<svg xmlns="http://www.w3.org/2000/svg" viewBox="0 0 253 213" fill="none" role="img"><path d="M97.2 61.3h60.6v20.3L178 65.1V41H77v55.5l20.2-16.4V61.3zM178 173V93.5l-20.2 16.4v20.9l-30.3-24.4c-7.2 5.8-23 18.5-30.3 24.4v-7.3L77 139.9V173l50.5-40.6L178 173z" fill="#FDE143"/><path d="M97.2 88.5L77 104.9v6.7l20.2-16.4v-6.7z" fill="#FDE143"/><path opacity=".5" d="M97.2 95.2L77 111.6v28.3l20.2-16.4V95.2zM97.2 80.1L77 96.5v8.4l20.2-16.4v-8.4zM157.801 109.9l20.2-16.4V65.1l-20.2 16.5v28.3z" fill="#FDE143"/><path fill="#FEF2AC" d="M187 41h3v9h-3z"/><path fill="#FEF2AC" d="M193 44v3h-9v-3zM58 118h6v18h-6z"/><path fill="#FEF2AC" d="M70 124v6H52v-6z"/><path fill="#F9F8FA" d="M187 179h3v9h-3z"/><path fill="#F9F8FA" d="M193 182v3h-9v-3zM187 194h3v9h-3z"/><path fill="#F9F8FA" d="M193 197v3h-9v-3zM157 179h3v9h-3z"/><path fill="#F9F8FA" d="M163 182v3h-9v-3zM50 41h3v9h-3z"/><path fill="#F9F8FA" d="M56 44v3h-9v-3zM50 11h3v9h-3z"/><path fill="#F9F8FA" d="M56 14v3h-9v-3zM80 11h3v9h-3z"/><path fill="#F9F8FA" d="M86 14v3h-9v-3zM187 149h3v9h-3z"/><path fill="#F9F8FA" d="M193 152v3h-9v-3zM50 71h3v9h-3z"/><path fill="#F9F8FA" d="M56 74v3h-9v-3zM202 135h3v9h-3z"/><path fill="#F9F8FA" d="M208 138v3h-9v-3zM65 41h3v9h-3z"/><path fill="#F9F8FA" d="M71 44v3h-9v-3zM65 11h3v9h-3z"/><path fill="#F9F8FA" d="M71 14v3h-9v-3zM95 11h3v9h-3z"/><path fill="#F9F8FA" d="M101 14v3h-9v-3zM202 164h3v9h-3z"/><path fill="#F9F8FA" d="M208 167v3h-9v-3zM65 71h3v9h-3z"/><path fill="#F9F8FA" d="M71 74v3h-9v-3zM187 135h3v9h-3z"/><path fill="#F9F8FA" d="M193 138v3h-9v-3zM50 56h3v9h-3z"/><path fill="#F9F8FA" d="M56 59v3h-9v-3zM50 26h3v9h-3z"/><path fill="#F9F8FA" d="M56 29v3h-9v-3zM80 26h3v9h-3z"/><path fill="#F9F8FA" d="M86 29v3h-9v-3zM187 164h3v9h-3z"/><path fill="#F9F8FA" d="M193 167v3h-9v-3zM50 86h3v9h-3z"/><path fill="#F9F8FA" d="M56 89v3h-9v-3zM202 149h3v9h-3z"/><path fill="#F9F8FA" d="M208 152v3h-9v-3zM65 56h3v9h-3z"/><path fill="#F9F8FA" d="M71 59v3h-9v-3zM65 26h3v9h-3z"/><path fill="#F9F8FA" d="M71 29v3h-9v-3zM95 26h3v9h-3z"/><path fill="#F9F8FA" d="M101 29v3h-9v-3zM202 179h3v9h-3z"/><path fill="#F9F8FA" d="M208 182v3h-9v-3zM172 179h3v9h-3z"/><path fill="#F9F8FA" d="M178 182v3h-9v-3zM172 194h3v9h-3z"/><path fill="#F9F8FA" d="M178 197v3h-9v-3zM65 86h3v9h-3z"/><path fill="#F9F8FA" d="M71 89v3h-9v-3z"/><path fill="#FEF2AC" d="M193 20h6v18h-6z"/><path fill="#FEF2AC" d="M205 26v6h-18v-6z"/></svg>
