<svg xmlns="http://www.w3.org/2000/svg" viewBox="0 0 253 213" fill="none" role="img"><path fill="#F9F8FA" d="M82 160v3h-9v-3z"/><path fill="#F9F8FA" d="M79 166h-3v-9h3zM67 160v3h-9v-3z"/><path fill="#F9F8FA" d="M64 166h-3v-9h3zM52 160v3h-9v-3z"/><path fill="#F9F8FA" d="M49 166h-3v-9h3zM97 175v3h-9v-3z"/><path fill="#F9F8FA" d="M94 181h-3v-9h3zM82 175v3h-9v-3z"/><path fill="#F9F8FA" d="M79 181h-3v-9h3zM67 175v3h-9v-3z"/><path fill="#F9F8FA" d="M64 181h-3v-9h3zM52 175v3h-9v-3z"/><path fill="#F9F8FA" d="M49 181h-3v-9h3zM67 145v3h-9v-3z"/><path fill="#F9F8FA" d="M64 151h-3v-9h3zM52 145v3h-9v-3z"/><path fill="#F9F8FA" d="M49 151h-3v-9h3zM52 130v3h-9v-3z"/><path fill="#F9F8FA" d="M49 136h-3v-9h3zM172 54.5v-3h9v3z"/><path fill="#F9F8FA" d="M175 48.5h3v9h-3zM165 36.5v3h-9v-3z"/><path fill="#F9F8FA" d="M162 42.5h-3v-9h3zM187 54.5v-3h9v3z"/><path fill="#F9F8FA" d="M190 48.5h3v9h-3zM202 54.5v-3h9v3z"/><path fill="#F9F8FA" d="M205 48.5h3v9h-3zM187 69.5v-3h9v3z"/><path fill="#F9F8FA" d="M190 63.5h3v9h-3zM202 69.5v-3h9v3z"/><path fill="#F9F8FA" d="M205 63.5h3v9h-3zM202 84.5v-3h9v3z"/><path fill="#F9F8FA" d="M205 78.5h3v9h-3zM172 39.5v-3h9v3z"/><path fill="#F9F8FA" d="M175 33.5h3v9h-3zM187 39.5v-3h9v3z"/><path fill="#F9F8FA" d="M190 33.5h3v9h-3zM202 39.5v-3h9v3z"/><path fill="#F9F8FA" d="M205 33.5h3v9h-3z"/><path d="M167.352 67.665C156.197 56.578 141.641 51 127.017 51c-14.624 0-29.18 5.578-40.335 16.665-22.243 22.242-22.243 58.36 0 80.602 11.155 11.155 25.711 16.665 40.335 16.665a57.136 57.136 0 0040.335-16.665c22.243-22.242 22.243-58.292 0-80.602zm-40.335 79.786c-10.543 0-20.474-4.081-27.888-11.563-7.482-7.482-11.563-17.345-11.563-27.888 0-10.543 4.081-20.474 11.563-27.888 6.938-6.938 15.985-10.815 25.711-11.359-2.516 1.36-4.965 2.993-7.142 5.17-11.971 11.97-11.971 31.424 0 43.396 5.986 5.985 13.876 8.978 21.698 8.978 7.823 0 15.713-2.993 21.699-8.978 2.176-2.177 3.741-4.558 5.169-7.142-.544 9.726-4.421 18.773-11.359 25.711-7.414 7.482-17.345 11.563-27.888 11.563z" fill="#5B3CC2"/><mask id="a" maskUnits="userSpaceOnUse" x="70" y="51" width="115" height="114"><path d="M167.352 67.665C156.197 56.578 141.641 51 127.017 51c-14.624 0-29.18 5.578-40.335 16.665-22.243 22.242-22.243 58.36 0 80.602 11.155 11.155 25.711 16.665 40.335 16.665a57.136 57.136 0 0040.335-16.665c22.243-22.242 22.243-58.292 0-80.602zm-40.335 79.786c-10.543 0-20.474-4.081-27.888-11.563-7.482-7.482-11.563-17.345-11.563-27.888 0-10.543 4.081-20.474 11.563-27.888 6.938-6.938 15.985-10.815 25.711-11.359-2.516 1.36-4.965 2.993-7.142 5.17-11.971 11.97-11.971 31.424 0 43.396 5.986 5.985 13.876 8.978 21.698 8.978 7.823 0 15.713-2.993 21.699-8.978 2.176-2.177 3.741-4.558 5.169-7.142-.544 9.726-4.421 18.773-11.359 25.711-7.414 7.482-17.345 11.563-27.888 11.563z" fill="#5B3CC2"/></mask><g mask="url(#a)" fill="#fff" fill-opacity=".41"><path d="M137.016 139.97L152.148 124l109.61 103.859-15.132 15.97zM-14.984-3.03L.148-19l109.61 103.858-15.132 15.97zM122 142.97l6.148-6.489 109.61 103.859-6.148 6.489zM-2 26.488l6.148-6.489 109.61 103.859-6.148 6.488z"/></g><path fill="#9F8CDB" d="M205 142v6h-18v-6z"/><path fill="#9F8CDB" d="M199 154h-6v-18h6zM202 125h3v9h-3z"/><path fill="#9F8CDB" d="M208 128v3h-9v-3zM57 55h6v18h-6z"/><path fill="#9F8CDB" d="M69 61v6H51v-6z"/></svg>
