<svg xmlns="http://www.w3.org/2000/svg" viewBox="0 0 649.3 649.3" role="img"><defs><style>.a{fill:#5b3cc2}</style></defs><path class="a" d="M347.78 56.86l.28-2.55 4.78.52.52-4.71 2.55.28-.52 4.71 4.61.51-.28 2.55-4.61-.51-.52 4.68-2.54-.28.51-4.68zM368.88 59.54l.48-2.51 4.73.9.89-4.66 2.51.48-.89 4.66 4.56.87-.48 2.51-4.56-.87-.88 4.63-2.51-.48.88-4.63zM389.69 63.88l.68-2.47 4.63 1.27 1.25-4.57 2.47.68-1.25 4.57 4.53 1.23-.67 2.47-4.48-1.23-1.24 4.54-2.47-.67 1.24-4.55zM410.1 69.85l.87-2.41 4.52 1.64 1.61-4.47 2.41.87L417.9 70l4.37 1.57-.87 2.41-4.4-1.62-1.6 4.42-2.4-.86 1.59-4.43zM430 77.4l1-2.33 4.38 2 2-4.32 2.34 1.06-2 4.32L442 80l-1 2.33-4.23-1.91-1.94 4.29-2.34-1 1.94-4.29zM449.17 86.5l1.24-2.25 4.22 2.32 2.29-4.15 2.24 1.24-2.29 4.15 4.07 2.24-1.24 2.24-4.07-2.24-2.27 4.13-2.24-1.24 2.27-4.12zM467.61 97.06l1.4-2.14 4 2.65 2.61-4 2.16 1.43-2.61 4 3.88 2.55-1.41 2.14-3.87-2.55-2.59 3.93-2.18-1.43 2.59-3.93zM485.16 109.06l1.57-2 3.8 2.95 2.91-3.74 2 1.57-2.91 3.75 3.66 2.85-1.57 2-3.62-2.85-2.89 3.71-2-1.57L489 112zM247.21 9.41l-.71 28.37-4 1.07.71-28.36zM258.08 6.93l-1.68 28.32-4 .94L254 7.86zM269 4.81l-2.66 28.25-4.08.8L265 5.61zM280 3.09l-3.6 28.14-4.1.65 3.63-28.14zM291.13 1.74l-4.61 28-4.12.52 4.61-28zM302.25.77l-5.58 27.82-4.13.37 5.57-27.82zM313.38.19l-6.53 27.61-4.15.2L309.23.42zM324.54 0l-7.48 27.37-4.15.08L320.39.08zM335.68.19l-8.43 27.1-4.15-.06 8.42-27.1zM346.82.77l-9.35 26.79-4.15-.21L342.67.57zM357.94 1.73l-10.27 26.45-4.14-.35L353.8 1.38zM369 3.08l-11.15 26.08-4.12-.49 11.18-26.08zM380 4.8l-12 25.68-4.11-.63 12.04-25.68zM391 6.9l-12.95 25.25-4.05-.77 12.91-25.25zM401.85 9.37l-13.8 24.79-4.05-.91 13.8-24.79zM412.64 12.22L398 36.52l-4-1.05 14.64-24.3zM423.31 15.43l-15.46 23.79-4-1.19 15.46-23.79zM288.16 174.75l-7.62-3.23-.17-.67 5-6.68.54 2-3.25 4.37 5 2.17zM299.59 167.25l-5.51 6.18-.37-2.06 3.6-4.09-4.81-2.58-.37-2.06 7.34 3.93zM311.94 170.88l-7-4.39-.07-.69 5.93-5.8.22 2.08-3.89 3.82 4.6 2.92zM323.6 156.55l-3.79 14.19-2.15.06 3.79-14.2zM336.06 165.68l-6.78 4.75.1-2.09 4.45-3.16-4.09-3.61.11-2.09 6.24 5.51zM347.22 172l-5.83-5.87.09-.69 7.12-4.31-.27 2.07-4.66 2.83 3.81 3.9zM360.66 169.41l-7.44 3.64.43-2.05 4.88-2.43-3.47-4.2.43-2 5.31 6.4zM370.72 177.43l-4.84-6.71.19-.67 7.71-3.14-.59 2-5 2.07 3.16 4.45zM386.9 168.54l-8.85 11.72-2-.75 8.86-11.73zM395 181.69l-8 1.85.88-1.89 5.31-1.26-2.43-4.88.88-1.89 3.72 7.44zM287.73 102.3a4.19 4.19 0 012.65.58 2.37 2.37 0 011 1.47 5.9 5.9 0 01-.24 2.39c-.27 1-.52 2-.77 3a7.17 7.17 0 00-.17 2.83 1.63 1.63 0 002.1 1.54l1.82-.3.34 2.09-1.82.3a3.8 3.8 0 01-5-3.15 8.31 8.31 0 01.13-3.12c.24-1.11.49-2.13.74-3.08a5.61 5.61 0 00.25-2.26 1.36 1.36 0 00-1.3-1.2 6.74 6.74 0 00-1.78 0l-.54.09-.24-1.48.54-.09a6.94 6.94 0 001.67-.58 1.32 1.32 0 00.86-1.53 6 6 0 00-1-2.08 71.67 71.67 0 01-1.7-2.74 8.46 8.46 0 01-1.11-3 3.94 3.94 0 01.56-2.92 4.43 4.43 0 013.15-1.64l1.83-.3.34 2.11-1.82.3a1.63 1.63 0 00-1.51 2.12 7.35 7.35 0 001.07 2.66c.57.93 1.13 1.83 1.7 2.69a6.08 6.08 0 011 2.2 2.42 2.42 0 01-.46 1.69 4 4 0 01-2.29 1.41zM302 100.38a4.11 4.11 0 012.61.76 2.29 2.29 0 01.87 1.52 5.71 5.71 0 01-.39 2.37c-.33.94-.65 1.93-1 3a7.22 7.22 0 00-.36 2.81 1.63 1.63 0 002 1.67l1.84-.18.21 2.1-1.85.18a4.19 4.19 0 01-3.51-.85 4.13 4.13 0 01-1.25-2.61 8.45 8.45 0 01.33-3.1c.31-1.09.63-2.1.94-3a5.71 5.71 0 00.4-2.24 1.34 1.34 0 00-1.22-1.27 6.37 6.37 0 00-1.78-.15l-.54.05-.14-1.44.55-.05a7 7 0 001.69-.47 1.33 1.33 0 001-1.48 6.13 6.13 0 00-.82-2.13c-.5-.88-1-1.83-1.52-2.85a8.62 8.62 0 01-.92-3A3.9 3.9 0 01300 87a4.36 4.36 0 013.24-1.44l1.76-.16.21 2.14-1.85.17a1.63 1.63 0 00-1.63 2 7.27 7.27 0 00.89 2.72c.51 1 1 1.9 1.52 2.79a6.05 6.05 0 01.84 2.26 2.3 2.3 0 01-.56 1.65 4 4 0 01-2.42 1.25zM316.43 99.4a4.15 4.15 0 012.55.91 2.36 2.36 0 01.78 1.59 5.73 5.73 0 01-.55 2.33 109 109 0 00-1.15 2.89 7.25 7.25 0 00-.53 2.79 1.62 1.62 0 001.88 1.79l1.85-.06.07 2.11-1.85.06a4.26 4.26 0 01-3.45-1.07 4.15 4.15 0 01-1.08-2.69 8.2 8.2 0 01.53-3.08c.38-1.06.76-2 1.13-3a5.55 5.55 0 00.54-2.2 1.35 1.35 0 00-1.13-1.36 7.15 7.15 0 00-1.76-.26h-.55V98.7h.55a6.72 6.72 0 001.73-.36A1.32 1.32 0 00317 97a5.94 5.94 0 00-.68-2.18c-.43-.91-.88-1.89-1.32-2.94a8.43 8.43 0 01-.73-3.1 4 4 0 01.94-2.83 4.41 4.41 0 013.33-1.22l1.86-.06.07 2.14-1.86.06a1.63 1.63 0 00-1.76 1.91 7.41 7.41 0 00.71 2.77c.45 1 .9 2 1.34 2.89a6 6 0 01.7 2.31 2.36 2.36 0 01-.67 1.61 4 4 0 01-2.5 1.04zM330.87 99.34a4.13 4.13 0 012.49 1.08 2.33 2.33 0 01.67 1.63 5.69 5.69 0 01-.7 2.29c-.44.89-.88 1.83-1.33 2.81a7.23 7.23 0 00-.71 2.75 1.63 1.63 0 001.76 1.91h1.85l-.06 2.12-1.86-.06a4.21 4.21 0 01-3.37-1.3 4.16 4.16 0 01-.9-2.75 8.25 8.25 0 01.72-3c.45-1 .89-2 1.32-2.89a5.56 5.56 0 00.68-2.16 1.35 1.35 0 00-1-1.43 6.63 6.63 0 00-1.74-.37h-.55v-1.44h.55a6.64 6.64 0 001.74-.25 1.32 1.32 0 001.16-1.28 6.23 6.23 0 00-.54-2.22c-.38-.94-.76-1.95-1.14-3a8.67 8.67 0 01-.52-3.15 4 4 0 011.12-2.76 4.41 4.41 0 013.41-1l1.85.06-.07 2.07h-1.85a1.63 1.63 0 00-1.85 1.74 7.6 7.6 0 00.54 2.81c.38 1 .76 2 1.15 3a6.14 6.14 0 01.55 2.35 2.34 2.34 0 01-.78 1.56 4 4 0 01-2.59.88zM530.36 151.64l2-1.6 3 3.75 3.71-3 1.6 2-3.7 3 2.9 3.62-2 1.6-2.87-3.61-3.67 2.94-1.61-2 3.68-2.94zM543.39 168.46l2.12-1.44 2.7 4 3.92-2.66 1.44 2.12-3.92 2.66 2.61 3.84-2.12 1.44-2.61-3.84-3.89 2.65-1.44-2.12 3.89-2.65zM555 186.25l2.23-1.27 2.38 4.18 4.12-2.35L565 189l-4.12 2.35 2.3 4-2.18 1.34-2.3-4-4.11 2.31-1.27-2.23 4.09-2.33zM565.24 204.9l2.32-1.09 2.05 4.36 4.29-2 1.09 2.32-4.29 2 2 4.2-2.32 1.09-2-4.2-4.26 2-1.12-2.32 4.26-2zM574 224.28l2.39-.9 1.7 4.5 4.44-1.67.9 2.4-4.43 1.67 1.63 4.34-2.39.91-1.64-4.35-4.41 1.67-.9-2.4 4.4-1.66zM581.1 244.3l2.47-.71 1.34 4.62 4.55-1.32.71 2.46-4.55 1.32 1.29 4.46-2.46.71-1.29-4.45-4.53 1.3-.71-2.46 4.52-1.31zM586.66 264.81l2.51-.52 1 4.71 4.65-.95.52 2.51-4.65.95.94 4.55-2.51.51-.94-4.54-4.61 1-.52-2.51 4.62-1zM590.59 285.7l2.55-.32.59 4.78 4.71-.59.32 2.54-4.71.59.57 4.6-2.54.32-.57-4.6-4.68.58-.31-2.54 4.67-.59zM492.8 47l-20.56 19.54-3.6-2.08 20.56-19.55zM502.25 52.91L481 71.75l-3.53-2.2 21.22-18.84zM511.49 59.17l-21.86 18.09-3.45-2.32L508 56.85zM520.48 65.72L498 83.05l-3.37-2.44 22.47-17.33zM529.28 72.61l-23 16.54L503 86.6l23-16.54zM537.83 79.79l-23.62 15.73-3.21-2.66 23.61-15.73zM546.11 87.25L522 102.16l-3.09-2.78L543 84.48zM554.14 95l-24.65 14.06-3-2.88 24.64-14.06zM561.87 103l-25.11 13.2-2.89-3L559 100zM569.35 111.31l-25.56 12.32-2.79-3.07 25.56-12.33zM576.53 119.85l-26 11.44-2.68-3.17 26-11.44zM583.42 128.64l-26.35 10.54-2.57-3.26 26.35-10.54zM590 137.64l-26.7 9.63-2.45-3.35 26.69-9.62zM596.25 146.88l-27 8.7-2.34-3.43 27-8.7zM602.18 156.3l-27.29 7.78-2.22-3.51 27.33-7.78zM607.79 165.94l-27.54 6.83-2.09-3.58 27.53-6.83zM613.07 175.76l-27.76 5.89-2-3.66 27.75-5.88zM404.84 192.85l-3.09-7.67.34-.6 8.24-1.21-1.05 1.8-5.39.81 2 5.07zM418.23 195.63l-8.26.47 1.19-1.72 5.44-.35-1.6-5.21 1.19-1.72 2.42 8zM424.4 206.93l-1.86-8.07.44-.53 8.32.09L430 200h-5.45l1.19 5.32zM442.77 205l-12.71 7.36-1.56-1.48 12.71-7.36zM445.13 220.31l-8.13-1.44 1.54-1.4 5.38.9-.33-5.44 1.55-1.4.52 8.31zM448.53 232.69v-8.28l.55-.42 8.08 2-1.65 1.27-5.3-1.29-.06 5.45zM459.88 240.34l-7.83-2.69 1.75-1.14 5.17 1.73.52-5.43 1.75-1.14-.78 8.29zM461.33 253.13l1.32-8.17.61-.34 7.67 3.23-1.83 1-5-2.1-.91 5.37zM479.06 258.28l-14.56 2-.88-2 14.55-2zM475.51 273.33l-7-4.39 2-.72 4.64 2.86 1.73-5.17 2-.71-2.63 7.89zM455.77 141.32a4.1 4.1 0 011.46 2.28 2.39 2.39 0 01-.35 1.73 5.88 5.88 0 01-1.86 1.51c-.87.5-1.76 1-2.68 1.59a7.31 7.31 0 00-2.12 1.88 1.63 1.63 0 00.4 2.57l1.5 1.08-1.23 1.72-1.5-1.08a4.23 4.23 0 01-2.08-3 4.14 4.14 0 01.79-2.79 8.06 8.06 0 012.29-2.11c.95-.61 1.85-1.17 2.7-1.66a5.4 5.4 0 001.77-1.42 1.33 1.33 0 00-.07-1.76 6.63 6.63 0 00-1.23-1.28l-.45-.32.85-1.18.45.32a6.62 6.62 0 001.58.77 1.32 1.32 0 001.7-.47 6 6 0 00.79-2.14c.21-1 .46-2 .74-3.14a8.58 8.58 0 011.33-2.9 3.93 3.93 0 012.46-1.67 4.4 4.4 0 013.39 1.15l1.5 1.08-1.25 1.74-1.5-1.08a1.62 1.62 0 00-2.56.43 7.31 7.31 0 00-1.13 2.63c-.26 1.07-.49 2.1-.7 3.11a6 6 0 01-.85 2.25 2.37 2.37 0 01-1.52.87 4 4 0 01-2.62-.71zM467.25 150.08a4.18 4.18 0 011.31 2.38 2.34 2.34 0 01-.47 1.7 5.76 5.76 0 01-1.95 1.39c-.89.44-1.82.91-2.77 1.41a7.29 7.29 0 00-2.24 1.74 1.63 1.63 0 00.23 2.59l1.43 1.18-1.34 1.63-1.45-1.18a4.22 4.22 0 01-1.88-3.08 4.12 4.12 0 011-2.73 8.07 8.07 0 012.42-2c1-.55 1.92-1.05 2.8-1.48a5.63 5.63 0 001.86-1.3 1.35 1.35 0 00.05-1.77 6.8 6.8 0 00-1.15-1.35l-.43-.35.92-1.12.43.35a6.85 6.85 0 001.53.87 1.34 1.34 0 001.73-.37 5.84 5.84 0 00.92-2.08c.28-1 .59-2 .95-3.09a8.5 8.5 0 011.5-2.81 4 4 0 012.57-1.5 4.43 4.43 0 013.32 1.28l1.43 1.18-1.36 1.65-1.43-1.18a1.63 1.63 0 00-2.59.28 7.26 7.26 0 00-1.29 2.55c-.33 1.05-.63 2.06-.9 3.05a6.21 6.21 0 01-1 2.2 2.37 2.37 0 01-1.57.76 3.91 3.91 0 01-2.58-.8zM478.12 159.56a4.1 4.1 0 011.15 2.45 2.28 2.28 0 01-.57 1.67 5.81 5.81 0 01-2 1.26c-.93.38-1.88.79-2.86 1.23a7.13 7.13 0 00-2.35 1.59 1.63 1.63 0 00.07 2.6l1.35 1.27-1.45 1.54-1.35-1.26a4.25 4.25 0 01-1.68-3.21 4.15 4.15 0 011.14-2.66 8.47 8.47 0 012.54-1.8c1-.48 2-.91 2.9-1.29a5.65 5.65 0 001.94-1.18 1.35 1.35 0 00.16-1.76 6.76 6.76 0 00-1.06-1.43l-.4-.37 1-1.06.4.38a6.89 6.89 0 001.47 1 1.33 1.33 0 001.75-.25 6 6 0 001.06-2c.34-.95.72-2 1.14-3a8.36 8.36 0 011.68-2.7 3.94 3.94 0 012.66-1.34 4.42 4.42 0 013.23 1.49l1.35 1.27-1.47 1.56-1.35-1.26a1.62 1.62 0 00-2.6.1 7.45 7.45 0 00-1.45 2.46c-.39 1-.76 2-1.09 3a6.11 6.11 0 01-1.14 2.13 2.37 2.37 0 01-1.62.66 4 4 0 01-2.55-1.09zM488.37 169.73a4.15 4.15 0 011 2.52 2.38 2.38 0 01-.68 1.63 5.85 5.85 0 01-2.12 1.13c-.94.31-1.92.66-2.93 1a7.26 7.26 0 00-2.44 1.44 1.61 1.61 0 00-.1 2.59l1.26 1.36-1.54 1.44-1.27-1.35a3.79 3.79 0 01-.16-5.88 8.32 8.32 0 012.66-1.64c1.05-.42 2-.78 3-1.1a5.68 5.68 0 002-1 1.35 1.35 0 00.27-1.75 6.63 6.63 0 00-1-1.49l-.38-.4 1.06-1 .37.4a7.06 7.06 0 001.41 1.06 1.34 1.34 0 001.76-.14 6 6 0 001.19-2c.4-.93.84-1.91 1.33-2.94a8.47 8.47 0 011.86-2.59 3.94 3.94 0 012.74-1.16 4.39 4.39 0 013.12 1.69l1.27 1.36-1.57 1.46-1.26-1.35a1.62 1.62 0 00-2.6-.06 7.54 7.54 0 00-1.62 2.36c-.45 1-.88 2-1.28 2.91a6 6 0 01-1.27 2.05 2.33 2.33 0 01-1.66.56 3.94 3.94 0 01-2.42-1.11zM592.45 347.78l2.55.28-.53 4.78 4.72.52-.28 2.54-4.72-.51-.51 4.61-2.54-.28.5-4.61-4.68-.52.28-2.54 4.68.51zM589.76 368.88l2.52.48-.9 4.72 4.62.92-.48 2.52-4.66-.89-.87 4.56-2.52-.48.87-4.56-4.63-.88.49-2.52 4.62.88zM585.42 389.69l2.47.67-1.27 4.64 4.57 1.26-.67 2.47-4.58-1.25-1.22 4.52-2.47-.68 1.22-4.47-4.54-1.24.68-2.48 4.54 1.25zM579.45 410.09l2.41.87-1.63 4.53 4.46 1.61-.87 2.41-4.46-1.61-1.58 4.36-2.41-.86L577 417l-4.43-1.6.87-2.41 4.43 1.6zM571.9 430l2.33 1.05-2 4.39 4.32 2-1.05 2.34-4.32-2-1.9 4.22-2.28-1.1 1.91-4.22-4.29-1.94 1.06-2.34 4.29 1.94zM562.81 449.17l2.24 1.24-2.32 4.22 4.15 2.28-1.23 2.25-4.16-2.29-2.23 4.06-2.26-1.23 2.24-4.07-4.12-2.27 1.23-2.24 4.13 2.27zM552.24 467.6l2.14 1.41-2.65 4 4 2.61-1.41 2.14-4-2.61-2.56 3.88-2.14-1.41 2.55-3.88-3.93-2.59 1.41-2.14 3.93 2.59zM540.25 485.16l2 1.57-3 3.8 3.74 2.91-1.57 2-3.74-2.91-2.85 3.66-2-1.57 2.85-3.66-3.72-2.9 1.57-2 3.72 2.89zM639.89 247.21l-28.36-.71-1.08-4 28.37.71zM642.38 258.08l-28.32-1.68-.94-4 28.32 1.6zM644.49 269l-28.25-2.66-.8-4.07 28.25 2.73zM646.22 280l-28.14-3.63-.66-4.1 28.14 3.63zM647.57 291.13l-28-4.61-.51-4.12 28 4.6zM648.53 302.24l-27.82-5.57-.37-4.13 27.82 5.57zM649.11 313.38l-27.61-6.54-.23-4.14 27.61 6.53zM649.3 324.54l-27.36-7.48-.09-4.15 27.37 7.48zM649.11 335.67L622 327.25l.06-4.15 27.09 8.42zM648.53 346.82l-26.78-9.36.2-4.14 26.79 9.35zM647.57 357.94l-26.45-10.27.35-4.14 26.45 10.27zM646.23 369l-26.08-11.18.49-4.13 26.08 11.18zM644.51 380l-25.68-12 .63-4.11 25.68 12.07zM642.4 391l-25.24-12.94.77-4.08 25.24 12.94zM639.93 401.85l-24.79-13.8.91-4.05 24.79 13.8zM637.09 412.64L612.78 398l1.05-4 24.31 14.64zM633.88 423.31l-23.79-15.47 1.18-4 23.79 15.47zM474.55 288.16l3.24-7.62.67-.18 6.68 5-2 .54-4.38-3.25-2.17 5zM482.05 299.59l-6.17-5.51 2.05-.38 4.1 3.6 2.57-4.8 2.06-.37-3.92 7.34zM478.42 311.94l4.39-7 .69-.07 5.82 5.95-2.07.21-3.82-3.89-2.93 4.61zM492.75 323.6l-14.19-3.79-.06-2.15 14.2 3.79zM483.62 336.05l-4.74-6.78 2.08.11 3.16 4.44 3.61-4.08 2.09.1-5.5 6.25zM477.27 347.22l5.88-5.83.69.08 4.3 7.13-2.07-.27-2.83-4.66-3.9 3.81zM479.89 360.65l-3.63-7.43 2 .43 2.43 4.88 4.2-3.47 2.05.42-6.41 5.32zM471.87 370.72l6.71-4.85.67.2 3.15 7.71-2-.59-2.07-5-4.44 3.16zM480.76 386.9L469 378.05l.76-2 11.72 8.85zM467.61 395l-1.85-8 1.9.88 1.26 5.31 4.87-2.44 1.9.88-7.44 3.73zM547 287.73a4.11 4.11 0 01-.58 2.64 2.35 2.35 0 01-1.47 1 5.77 5.77 0 01-2.39-.25c-1-.26-2-.52-3-.77a7.55 7.55 0 00-2.83-.17 1.63 1.63 0 00-1.54 2.1l.3 1.83-2.08.34-.3-1.83a3.79 3.79 0 013.15-5 8.24 8.24 0 013.11.12q1.67.36 3.09.75a5.75 5.75 0 002.25.25 1.35 1.35 0 001.2-1.3 6.74 6.74 0 000-1.78l-.09-.54 1.43-.23.09.54a6.9 6.9 0 00.58 1.66 1.33 1.33 0 001.54.87 6.17 6.17 0 002.07-1c.85-.55 1.76-1.12 2.74-1.7a8.76 8.76 0 013-1.12 3.93 3.93 0 012.92.57 4.4 4.4 0 011.65 3.15l.29 1.83-2.11.34-.3-1.83a1.62 1.62 0 00-2.12-1.5 7.58 7.58 0 00-2.66 1.06c-.93.58-1.83 1.14-2.68 1.7a6.15 6.15 0 01-2.2 1 2.33 2.33 0 01-1.69-.45 4 4 0 01-1.37-2.28zM548.92 302a4.18 4.18 0 01-.75 2.61 2.29 2.29 0 01-1.53.87 5.91 5.91 0 01-2.37-.39c-.94-.33-1.93-.65-3-1a7.35 7.35 0 00-2.81-.35 1.63 1.63 0 00-1.67 2l.18 1.84-2.1.21-.18-1.85a4.22 4.22 0 01.85-3.51 4.18 4.18 0 012.62-1.25 8.47 8.47 0 013.1.33c1.08.31 2.09.62 3 .94a5.45 5.45 0 002.23.39 1.34 1.34 0 001.28-1.21 6.81 6.81 0 00.15-1.78l-.06-.54 1.44-.14.06.54a6.62 6.62 0 00.47 1.7 1.32 1.32 0 001.47 1 5.87 5.87 0 002.13-.81c.89-.5 1.84-1 2.85-1.52a8.73 8.73 0 013.06-.92 4 4 0 012.88.75 4.44 4.44 0 011.43 3.25l.18 1.85-2.13.2-.18-1.84a1.63 1.63 0 00-2-1.64 7.58 7.58 0 00-2.72.89q-1.46.77-2.79 1.53a6.11 6.11 0 01-2.26.84 2.38 2.38 0 01-1.66-.57 4 4 0 01-1.17-2.42zM549.91 316.43A4.14 4.14 0 01549 319a2.32 2.32 0 01-1.58.78 5.91 5.91 0 01-2.34-.55c-.92-.39-1.88-.77-2.89-1.15a7.23 7.23 0 00-2.78-.54 1.63 1.63 0 00-1.8 1.89l.07 1.85-2.12.07-.06-1.85a4.25 4.25 0 011.08-3.46 4.12 4.12 0 012.69-1.07 8.36 8.36 0 013.07.52c1.06.38 2 .76 3 1.14a6 6 0 002.21.54 1.35 1.35 0 001.35-1.13 6.36 6.36 0 00.26-1.77v-.55h1.45v.55a6.58 6.58 0 00.36 1.72 1.33 1.33 0 001.41 1.06 5.89 5.89 0 002.18-.68c.91-.44 1.89-.88 2.94-1.33a8.46 8.46 0 013.1-.72 3.91 3.91 0 012.83.94 4.38 4.38 0 011.22 3.33l.07 1.85-2.15.07-.06-1.85a1.62 1.62 0 00-1.91-1.76 7.23 7.23 0 00-2.77.71c-1 .45-2 .89-2.88 1.34a6.18 6.18 0 01-2.31.7 2.43 2.43 0 01-1.62-.67 4 4 0 01-1.11-2.55zM550 330.87a4.25 4.25 0 01-1.08 2.49 2.35 2.35 0 01-1.63.67 5.73 5.73 0 01-2.3-.7c-.89-.44-1.83-.89-2.81-1.33a7 7 0 00-2.74-.71 1.62 1.62 0 00-1.91 1.76l-.06 1.85-2.11-.07.06-1.85a4.25 4.25 0 011.29-3.38 4.1 4.1 0 012.75-.89 8.26 8.26 0 013 .72c1 .45 2 .89 2.88 1.32a5.79 5.79 0 002.16.68 1.36 1.36 0 001.43-1 6.63 6.63 0 00.37-1.74v-.55h1.45v.55a7.1 7.1 0 00.25 1.75 1.32 1.32 0 001.34 1.14 6 6 0 002.22-.53c.94-.38 1.94-.76 3-1.14a8.59 8.59 0 013.14-.52 4 4 0 012.76 1.12 4.4 4.4 0 011 3.4l-.06 1.86-2.14-.07.06-1.86a1.63 1.63 0 00-1.8-1.88 7.25 7.25 0 00-2.81.54c-1 .38-2 .76-3 1.15a6.1 6.1 0 01-2.35.54 2.32 2.32 0 01-1.57-.77 3.92 3.92 0 01-.79-2.55zM497.66 530.36l1.61 2-3.76 3 3 3.7-2 1.6-3-3.69-3.61 2.9-1.61-2 3.62-2.9-3-3.68 2-1.6 3 3.67zM480.84 543.38l1.44 2.12-4 2.71 2.67 3.92-2.12 1.44-2.67-3.92-3.84 2.61-1.43-2.12 3.83-2.61-2.64-3.9 2.11-1.44 2.65 3.9zM463.06 555l1.27 2.22-4.18 2.39 2.34 4.12-2.22 1.27-2.35-4.12-4 2.29-1.3-2.17 4-2.3-2.33-4.09 2.23-1.27 2.33 4.09zM444.41 565.24l1.09 2.32-4.36 2 2 4.3-2.3 1.14-2-4.3-4.2 2-1.09-2.32 4.2-2-2-4.26 2.32-1.09 2 4.26zM425 573.94l.91 2.4-4.51 1.7 1.68 4.44-2.4.9-1.68-4.44-4.35 1.64-.9-2.4 4.34-1.64-1.66-4.4 2.4-.9 1.66 4.4zM405 581.1l.72 2.46-4.63 1.34 1.33 4.56-2.47.71-1.32-4.56-4.45 1.3-.72-2.47 4.46-1.29-1.31-4.52 2.46-.71 1.31 4.52zM384.5 586.66l.52 2.51-4.72 1 1 4.65-2.51.51-1-4.64-4.54.93-.52-2.51 4.55-.93-.95-4.61 2.51-.52 1 4.61zM363.61 590.59l.31 2.54-4.77.6.59 4.71-2.55.31-.58-4.7-4.61.57-.32-2.54 4.61-.58-.58-4.67 2.54-.32.58 4.68zM602.32 492.8l-19.55-20.56 2.07-3.6 19.56 20.56zM596.39 502.24L577.56 481l2.19-3.52 18.84 21.22zM590.14 511.48l-18.09-21.85 2.31-3.45 18.1 21.82zM583.58 520.48L566.25 498l2.44-3.36L586 517.12zM576.69 529.28l-16.53-23 2.55-3.28 16.54 23zM569.51 537.82l-15.73-23.61 2.67-3.19 15.73 23.62zM562.05 546.1l-14.9-24.1 2.77-3.09 14.9 24.09zM554.29 554.14l-14.06-24.65 2.88-3 14.06 24.64zM546.29 561.87l-13.21-25.11 3-2.9L549.27 559zM538 569.34l-12.33-25.55 3.08-2.79 12.32 25.55zM529.45 576.53l-11.43-26 3.17-2.68 11.43 26zM520.66 583.42l-10.53-26.35 3.26-2.57 10.53 26.35zM511.66 590L502 563.29l3.35-2.46 9.62 26.7zM502.43 596.24l-8.7-27 3.43-2.34 8.7 27zM493 602.18l-7.77-27.29 3.51-2.22 7.77 27.33zM483.36 607.79l-6.83-27.54 3.58-2.1 6.83 27.54zM473.54 613.07l-5.88-27.76 3.65-2 5.89 27.76zM456.45 404.84l7.67-3.1.61.35 1.21 8.24-1.81-1.05-.8-5.39-5.07 2zM453.67 418.23l-.47-8.23 1.72 1.19.35 5.44 5.22-1.57 1.72 1.19-8 2.41zM442.38 424.39l8.06-1.86.54.44-.09 8.33-1.62-1.3.05-5.45-5.32 1.16zM444.26 442.77l-7.35-12.72 1.48-1.56 7.36 12.72zM429 445.12l1.44-8.15 1.4 1.55-.91 5.38 5.44-.34 1.4 1.55-8.3.53zM416.62 448.52h8.27l.43.55-2 8.08-1.28-1.66 1.29-5.29-5.45-.06zM409 459.88l2.7-7.83 1.14 1.75-1.78 5.2 5.43.52 1.14 1.74-8.28-.77zM396.18 461.33l8.17 1.31.33.61-3.22 7.68-1-1.84 2.11-5-5.38-.91zM391 479.05l-2-14.55 1.95-.89 2 14.56zM376 475.51l4.4-7 .71 2-2.86 4.64 5.17 1.73.72 2-7.9-2.63zM508 455.76a4.18 4.18 0 01-2.29 1.47 2.31 2.31 0 01-1.72-.36 5.71 5.71 0 01-1.52-1.85c-.49-.87-1-1.76-1.59-2.68a7.16 7.16 0 00-1.88-2.12 1.63 1.63 0 00-2.57.4l-1.08 1.5-1.71-1.23 1.08-1.51a4.25 4.25 0 013-2.08 4.18 4.18 0 012.78.79 8.37 8.37 0 012.12 2.29c.61.95 1.16 1.86 1.65 2.71a5.77 5.77 0 001.42 1.77 1.34 1.34 0 001.76-.07 6.34 6.34 0 001.28-1.23l.33-.45 1.17.85-.32.44a6.72 6.72 0 00-.77 1.59 1.32 1.32 0 00.47 1.69 6 6 0 002.15.8c1 .21 2 .46 3.13.74a8.43 8.43 0 012.91 1.32 4 4 0 011.66 2.47 4.39 4.39 0 01-1.06 3.39l-1.08 1.5-1.74-1.25 1.08-1.5a1.63 1.63 0 00-.44-2.57 7.48 7.48 0 00-2.63-1.12c-1.07-.26-2.1-.49-3.1-.7a6.09 6.09 0 01-2.26-.86 2.41 2.41 0 01-.87-1.52 4 4 0 01.64-2.62zM499.22 467.24a4.07 4.07 0 01-2.37 1.31 2.3 2.3 0 01-1.7-.46 5.77 5.77 0 01-1.4-1.95c-.43-.9-.9-1.82-1.41-2.77a7.14 7.14 0 00-1.74-2.24 1.62 1.62 0 00-2.59.23l-1.17 1.43-1.64-1.34 1.18-1.43a4.23 4.23 0 013.09-1.89 4.17 4.17 0 012.73 1 8.36 8.36 0 012 2.42c.55 1 1 1.93 1.47 2.81a5.6 5.6 0 001.31 1.86 1.35 1.35 0 001.76.05 6.58 6.58 0 001.36-1.16l.35-.42 1.12.92-.35.42a7 7 0 00-.87 1.54 1.32 1.32 0 00.36 1.72 5.72 5.72 0 002.09.93c1 .28 2 .59 3.08.95a8.5 8.5 0 012.81 1.5 4 4 0 011.51 2.57 4.41 4.41 0 01-1.29 3.31L507.7 480l-1.7-1.41 1.18-1.43a1.62 1.62 0 00-.27-2.58 7.41 7.41 0 00-2.56-1.3c-1-.32-2.06-.62-3.05-.89a6.24 6.24 0 01-2.19-1 2.38 2.38 0 01-.77-1.58 3.93 3.93 0 01.88-2.57zM489.75 478.12a4.18 4.18 0 01-2.46 1.15 2.32 2.32 0 01-1.66-.57 5.82 5.82 0 01-1.27-2c-.38-.92-.79-1.87-1.23-2.86a7.18 7.18 0 00-1.59-2.34 1.63 1.63 0 00-2.6.06l-1.27 1.36-1.54-1.45 1.27-1.35a4.19 4.19 0 013.2-1.68 4.13 4.13 0 012.66 1.14 8.18 8.18 0 011.8 2.54c.49 1 .92 2 1.29 2.9a5.92 5.92 0 001.18 1.94 1.35 1.35 0 001.76.16 6.84 6.84 0 001.43-1.06l.38-.41 1 1-.37.4a7.7 7.7 0 00-1 1.48 1.33 1.33 0 00.25 1.74 6 6 0 002 1.07c1 .33 2 .71 3 1.14a8.51 8.51 0 012.71 1.68 3.93 3.93 0 011.33 2.66 4.4 4.4 0 01-1.49 3.23l-1.26 1.35-1.57-1.47 1.27-1.35a1.63 1.63 0 00-.11-2.6 7.46 7.46 0 00-2.46-1.46c-1-.39-2-.75-3-1.09a5.83 5.83 0 01-2.12-1.14 2.33 2.33 0 01-.67-1.61 4 4 0 011.14-2.56zM479.58 488.37a4.07 4.07 0 01-2.52 1 2.33 2.33 0 01-1.63-.67 5.64 5.64 0 01-1.13-2.12c-.32-.94-.67-1.92-1.05-2.93a7.09 7.09 0 00-1.43-2.44 1.63 1.63 0 00-2.6-.11l-1.35 1.27-1.45-1.54 1.35-1.27a4.24 4.24 0 013.31-1.47 4.18 4.18 0 012.58 1.31 8.19 8.19 0 011.63 2.66q.63 1.57 1.11 3a5.45 5.45 0 001.05 2 1.34 1.34 0 001.74.27 6.6 6.6 0 001.5-1l.4-.37 1 1.05-.4.38a6.7 6.7 0 00-1.06 1.41 1.34 1.34 0 00.13 1.76 6 6 0 001.95 1.19c.93.4 1.91.84 2.94 1.33a8.79 8.79 0 012.6 1.85 4 4 0 011.16 2.75 4.41 4.41 0 01-1.7 3.12l-1.35 1.26-1.47-1.56 1.35-1.27a1.63 1.63 0 00.07-2.6 7.46 7.46 0 00-2.37-1.61c-1-.45-2-.88-2.91-1.28a6.19 6.19 0 01-2-1.27 2.39 2.39 0 01-.56-1.66 4 4 0 011.11-2.44zM301.53 592.45l-.28 2.54-4.79-.52-.51 4.71-2.55-.28.52-4.71-4.61-.51.28-2.54 4.61.5.51-4.68 2.55.28-.52 4.68zM280.43 589.76l-.48 2.52-4.73-.9-.89 4.65-2.52-.48.89-4.65-4.56-.87.48-2.52 4.56.87.88-4.63 2.52.48-.88 4.63zM259.62 585.42l-.68 2.47-4.64-1.27-1.3 4.57-2.47-.67 1.26-4.58-4.48-1.22.68-2.47 4.47 1.22 1.25-4.54 2.47.68-1.18 4.54zM239.21 579.45l-.87 2.41-4.53-1.63-1.61 4.46-2.41-.87 1.61-4.46-4.4-1.58.87-2.41 4.36 1.58 1.6-4.43 2.41.87-1.6 4.43zM219.35 571.9l-1.06 2.33-4.38-2-2 4.32-2.33-1.06 1.95-4.32-4.23-1.91 1.1-2.26 4.23 1.91 1.94-4.29 2.33 1-1.94 4.3zM200.13 562.81l-1.24 2.24-4.21-2.32-2.29 4.15-2.24-1.23 2.28-4.16-4.06-2.24 1.24-2.24 4.06 2.24 2.27-4.13 2.25 1.24-2.28 4.12zM181.7 552.24l-1.41 2.14-4-2.65-2.61 4-2.14-1.41 2.61-4-3.87-2.55 1.41-2.14 3.87 2.55 2.59-3.93 2.14 1.41-2.59 3.93zM164.15 540.24l-1.58 2-3.79-3-2.92 3.74-2-1.57 2.91-3.74-3.66-2.85 1.58-2 3.66 2.85 2.89-3.71 2 1.57-2.89 3.72zM402.1 639.89l.71-28.36 4-1.08-.71 28.37zM391.22 642.38l1.69-28.33 4-.93-1.69 28.32zM380.27 644.49l2.66-28.25 4.08-.8-2.66 28.25zM369.27 646.22l3.63-28.14 4.11-.66-3.64 28.14zM358.18 647.57l4.6-28 4.13-.51-4.61 28zM347.06 648.53l5.57-27.82 4.14-.37-5.57 27.82zM335.93 649.11l6.53-27.61 4.15-.23-6.54 27.61zM324.76 649.3l7.49-27.37 4.15-.08-7.49 27.37zM313.63 649.11l8.42-27.11 4.16.06-8.43 27.09zM302.48 648.53l9.36-26.78 4.15.2-9.36 26.79zM291.36 647.57l10.28-26.45 4.14.35-10.28 26.45zM280.28 646.23l11.18-26.08 4.12.49-11.18 26.07zM269.27 644.5l12.07-25.67 4.1.63-12.07 25.68zM258.31 642.4l12.95-25.25 4.08.77-12.95 25.25zM247.45 639.93l13.8-24.79 4.05.91-13.8 24.79zM236.67 637.08l14.64-24.3 4 1.05-14.65 24.3zM226 633.87l15.47-23.78 4 1.18L230 635.06zM361.14 474.55l7.62 3.23.18.68-5 6.68-.53-2 3.24-4.38-5-2.17zM349.71 482.05l5.52-6.17.37 2.05L352 482l4.8 2.57.38 2.06-7.34-3.93zM337.37 478.42l7 4.39.07.69-5.95 5.82-.21-2.08 3.89-3.81-4.6-2.93zM325.71 492.75l3.79-14.19 2.15-.06-3.79 14.2zM313.25 483.62l6.78-4.74-.11 2.08-4.44 3.16 4.09 3.61-.11 2.09-6.25-5.5zM302.09 477.27l5.83 5.88-.09.69-7.12 4.3.26-2.07 4.66-2.83-3.81-3.9zM288.65 479.89l7.44-3.63-.43 2-4.88 2.43 3.47 4.2-.43 2.05-5.31-6.41zM278.58 471.87l4.85 6.71-.2.67-7.7 3.14.58-2 5.05-2.07-3.16-4.44zM262.41 480.76l8.85-11.76 2 .75-8.85 11.73zM254.27 467.61l8.06-1.85-.87 1.89-5.31 1.26 2.43 4.88-.88 1.9-3.7-7.45zM361.58 547a4.13 4.13 0 01-2.65-.58 2.33 2.33 0 01-1-1.47 5.9 5.9 0 01.24-2.39c.26-1 .52-2 .77-3a7.16 7.16 0 00.17-2.83 1.63 1.63 0 00-2.1-1.54l-1.83.3-.34-2.08 1.83-.3a4.21 4.21 0 013.56.62 4.11 4.11 0 011.41 2.53 8.24 8.24 0 01-.12 3.11c-.24 1.11-.49 2.14-.74 3.09a5.57 5.57 0 00-.25 2.25 1.33 1.33 0 001.29 1.2 6.74 6.74 0 001.78 0l.55-.09.23 1.43-.54.09a6.94 6.94 0 00-1.67.58 1.33 1.33 0 00-.87 1.53 6 6 0 001 2.08c.55.85 1.11 1.76 1.69 2.74a8.48 8.48 0 011.12 3 4 4 0 01-.56 2.92 4.39 4.39 0 01-3.15 1.64l-1.83.3-.35-2.11 1.83-.3a1.62 1.62 0 001.5-2.12 7.32 7.32 0 00-1.06-2.66c-.57-.93-1.14-1.83-1.7-2.69a6 6 0 01-1-2.2 2.33 2.33 0 01.46-1.68 4 4 0 012.33-1.37zM347.26 548.92a4.17 4.17 0 01-2.6-.75 2.39 2.39 0 01-.88-1.53 5.75 5.75 0 01.4-2.37c.32-.94.64-1.93 1-3a7.18 7.18 0 00.35-2.81 1.63 1.63 0 00-2-1.67l-1.85.18-.2-2.1 1.84-.18a4.24 4.24 0 013.52.85 4.12 4.12 0 011.24 2.61 8.21 8.21 0 01-.32 3.1c-.31 1.09-.63 2.1-.94 3a5.74 5.74 0 00-.4 2.24 1.36 1.36 0 001.22 1.28 6.26 6.26 0 001.77.14l.55-.05.14 1.44h-.55a7.17 7.17 0 00-1.7.48 1.32 1.32 0 00-1 1.47 5.75 5.75 0 00.82 2.13c.49.89 1 1.83 1.51 2.85a8.48 8.48 0 01.92 3 3.94 3.94 0 01-.75 2.88 4.38 4.38 0 01-3.25 1.44l-1.84.18-.21-2.13 1.85-.18a1.62 1.62 0 001.63-2 7.33 7.33 0 00-.89-2.72c-.51-1-1-1.9-1.52-2.79a6 6 0 01-.85-2.26 2.38 2.38 0 01.57-1.66 4 4 0 012.42-1.07zM332.87 549.91a4.21 4.21 0 01-2.55-.92 2.37 2.37 0 01-.77-1.58 5.87 5.87 0 01.54-2.34c.39-.92.78-1.88 1.16-2.89a7.2 7.2 0 00.53-2.78 1.63 1.63 0 00-1.88-1.8l-1.86.06-.06-2.11 1.85-.06a4.23 4.23 0 013.45 1.08 4.12 4.12 0 011.07 2.68 8.38 8.38 0 01-.52 3.08c-.38 1.06-.76 2-1.13 3a5.59 5.59 0 00-.54 2.21 1.34 1.34 0 001.13 1.35 6.7 6.7 0 001.76.26h.55v1.45h-.55a6.64 6.64 0 00-1.73.36 1.3 1.3 0 00-1.05 1.41 5.75 5.75 0 00.68 2.18q.64 1.37 1.32 2.94a8.69 8.69 0 01.73 3.1 4 4 0 01-.94 2.83 4.42 4.42 0 01-3.34 1.22l-1.85.06-.07-2.14 1.85-.06a1.63 1.63 0 001.77-1.91 7.44 7.44 0 00-.72-2.77c-.44-1-.89-2-1.34-2.88a6.18 6.18 0 01-.69-2.31 2.33 2.33 0 01.67-1.62 3.91 3.91 0 012.53-1.1zM318.43 550a4.13 4.13 0 01-2.48-1.07 2.31 2.31 0 01-.67-1.63 5.81 5.81 0 01.72-2.3c.45-.89.89-1.83 1.34-2.81a7.37 7.37 0 00.71-2.74 1.62 1.62 0 00-1.76-1.91l-1.86-.06.07-2.11h1.85a4.27 4.27 0 013.38 1.3 4.16 4.16 0 01.9 2.75 8.16 8.16 0 01-.72 3c-.45 1-.89 2-1.33 2.89a5.74 5.74 0 00-.68 2.16 1.36 1.36 0 001.05 1.43 6.47 6.47 0 001.74.37h.55v1.45h-.55a7.17 7.17 0 00-1.75.25 1.32 1.32 0 00-1.14 1.34 5.82 5.82 0 00.54 2.22c.37.93.75 1.94 1.13 3a8.47 8.47 0 01.52 3.15 3.92 3.92 0 01-1.11 2.76 4.42 4.42 0 01-3.41 1l-1.85-.06.07-2.14 1.85.06a1.63 1.63 0 001.88-1.8 7.41 7.41 0 00-.53-2.81c-.38-1-.77-2-1.15-3a6 6 0 01-.55-2.35 2.39 2.39 0 01.77-1.57 4 4 0 012.47-.77zM118.94 497.66l-2 1.6-3-3.75-3.7 3-1.6-2 3.7-3-2.91-3.62 2-1.6 2.91 3.62 3.67-3 1.6 2-3.67 3zM105.92 480.84l-2.12 1.44-2.71-4-3.92 2.72-1.44-2.12 3.92-2.67-2.6-3.84 2.12-1.44 2.6 3.84 3.9-2.65 1.44 2.12-3.9 2.65zM94.27 463.06l-2.22 1.26-2.38-4.18-4.13 2.35-1.26-2.22 4.12-2.35-2.3-4 2.23-1.27 2.29 4 4.09-2.33 1.29 2.22-4.09 2.33zM84.07 444.4l-2.32 1.09-2-4.35-4.29 2-1.09-2.32 4.29-2-2-4.2 2.34-1.09 2 4.2 4.26-2 1.02 2.27-4.26 2zM75.36 425l-2.4.9-1.7-4.5-4.43 1.67-.91-2.39 4.44-1.68-1.64-4.34 2.4-.9 1.64 4.34 4.4-1.66.91 2.39-4.41 1.67zM68.2 405l-2.46.71-1.34-4.62-4.56 1.32-.71-2.41 4.56-1.32-1.29-4.46 2.46-.71 1.29 4.46 4.52-1.31.71 2.46-4.52 1.31zM62.64 384.5l-2.51.51-1-4.71-4.65 1-.48-2.55 4.64-1-.93-4.54 2.51-.52.93 4.54 4.61-.94.52 2.5-4.61.95zM58.71 363.6l-2.54.32-.6-4.77-4.7.58-.32-2.54 4.71-.59-.58-4.6 2.54-.32.58 4.61 4.67-.59.32 2.55-4.67.58zM156.5 602.32l20.56-19.55 3.6 2.07-20.56 19.56zM147.06 596.39l21.22-18.83 3.52 2.19-21.22 18.84zM137.82 590.14L159.68 572l3.44 2.32-21.85 18.1zM128.82 583.58l22.47-17.33 3.36 2.44L132.18 586zM120 576.69l23.06-16.54 3.27 2.56-23 16.54zM111.48 569.51l23.61-15.73 3.19 2.67-23.61 15.73zM103.2 562.05l24.14-14.9 3.09 2.77-24.14 14.9zM95.17 554.29l24.64-14.06 3 2.88-24.65 14.06zM87.43 546.29l25.12-13.21 2.89 3-25.12 13.19zM80 538l25.55-12.33 2.79 3.08-25.59 12.32zM72.77 529.45l26-11.43 2.68 3.17-26 11.43zM65.89 520.66l26.34-10.53 2.57 3.26-26.34 10.53zM59.32 511.66L86 502l2.46 3.34L61.77 515zM53.06 502.43l27-8.7 2.35 3.43-27 8.7zM47.13 493l27.28-7.77 2.23 3.51-27.29 7.77zM41.51 483.36l27.54-6.83 2.1 3.58-27.54 6.83zM36.24 473.54L64 467.66l2 3.65-27.79 5.89zM244.46 456.45l3.1 7.67-.35.61-8.21 1.21 1-1.81 5.4-.8-2-5.07zM231.08 453.67l8.26-.47-1.19 1.72-5.44.35 1.57 5.22-1.19 1.72-2.41-8zM224.91 442.37l1.86 8.07-.44.54-8.33-.09 1.33-1.62 5.44.05-1.18-5.32zM206.53 444.26l12.72-7.35 1.56 1.48-12.72 7.36zM204.18 429l8.15 1.44-1.55 1.4-5.38-.91.34 5.44-1.55 1.4-.53-8.31zM200.78 416.62v8.27l-.55.43-8.09-2 1.66-1.28 5.29 1.29.06-5.45zM189.43 409l7.82 2.7-1.75 1.14-5.17-1.74-.51 5.43-1.75 1.14.77-8.29zM188 396.18l-1.32 8.17-.61.33-7.68-3.22 1.84-1 5 2.11.9-5.38zM170.25 391l14.55-2 .89 2-14.55 2zM173.8 376l7 4.4-2 .71-4.65-2.86-1.73 5.17-2 .72 2.63-7.9zM193.54 508a4.15 4.15 0 01-1.46-2.29 2.27 2.27 0 01.35-1.72 5.65 5.65 0 011.86-1.52q1.29-.73 2.67-1.59a7 7 0 002.12-1.88 1.63 1.63 0 00-.4-2.57l-1.5-1.08 1.24-1.72 1.5 1.09a4.21 4.21 0 012.08 3 4.13 4.13 0 01-.79 2.78 8.37 8.37 0 01-2.29 2.12c-.95.61-1.86 1.16-2.71 1.65a5.63 5.63 0 00-1.77 1.42 1.34 1.34 0 00.07 1.76 6.35 6.35 0 001.24 1.28l.44.32-.84 1.18-.45-.32a6.53 6.53 0 00-1.59-.77 1.32 1.32 0 00-1.69.47 6 6 0 00-.8 2.15c-.21 1-.46 2-.74 3.13a8.43 8.43 0 01-1.32 2.91 4 4 0 01-2.47 1.66 4.39 4.39 0 01-3.39-1.06l-1.5-1.09 1.25-1.73 1.51 1.08a1.62 1.62 0 002.56-.44 7.49 7.49 0 001.13-2.63c.25-1.07.48-2.1.69-3.1a6.09 6.09 0 01.86-2.26 2.35 2.35 0 011.52-.87 4 4 0 012.62.64zM182.06 499.22a4.13 4.13 0 01-1.31-2.37 2.3 2.3 0 01.46-1.7 5.77 5.77 0 011.95-1.4c.9-.43 1.82-.9 2.77-1.41a7 7 0 002.24-1.74 1.62 1.62 0 00-.23-2.59l-1.43-1.18 1.34-1.63 1.43 1.18a4.23 4.23 0 011.89 3.09 4.12 4.12 0 01-1 2.72 8.22 8.22 0 01-2.42 2c-1 .55-1.93 1-2.81 1.47a5.71 5.71 0 00-1.86 1.31 1.34 1.34 0 000 1.76 6.29 6.29 0 001.15 1.36l.42.35-.92 1.12-.42-.35a7 7 0 00-1.54-.87 1.32 1.32 0 00-1.72.36 6.1 6.1 0 00-.93 2.08c-.28 1-.59 2-.94 3.09a8.7 8.7 0 01-1.51 2.81 4 4 0 01-2.57 1.51 4.43 4.43 0 01-3.31-1.29l-1.43-1.17 1.36-1.66 1.43 1.18a1.63 1.63 0 002.59-.27 7.4 7.4 0 001.29-2.56c.32-1 .62-2.06.9-3.05a5.82 5.82 0 011-2.19 2.29 2.29 0 011.57-.77 3.93 3.93 0 012.56.81zM171.19 489.74a4.1 4.1 0 01-1.16-2.45 2.32 2.32 0 01.57-1.66 5.82 5.82 0 012-1.27c.92-.38 1.88-.79 2.86-1.23a7.18 7.18 0 002.34-1.59 1.62 1.62 0 00-.06-2.6l-1.35-1.27 1.44-1.54 1.35 1.27a3.77 3.77 0 01.54 5.86 8.18 8.18 0 01-2.54 1.8c-1 .49-2 .92-2.9 1.29a5.92 5.92 0 00-1.94 1.18 1.35 1.35 0 00-.15 1.76 6.2 6.2 0 001.06 1.43l.4.38-1 1-.4-.37a7.11 7.11 0 00-1.48-1 1.33 1.33 0 00-1.74.25 5.88 5.88 0 00-1.06 2c-.34 1-.72 2-1.14 3a8.72 8.72 0 01-1.69 2.71 3.91 3.91 0 01-2.66 1.33 4.37 4.37 0 01-3.22-1.49l-1.26-1.15 1.46-1.56 1.35 1.27a1.63 1.63 0 002.6-.11 7.46 7.46 0 001.46-2.46c.39-1 .75-2 1.09-3a6.15 6.15 0 011.14-2.12 2.33 2.33 0 011.61-.67 4 4 0 012.48 1.01zM160.93 479.58a4.19 4.19 0 01-1-2.52 2.3 2.3 0 01.68-1.63 5.59 5.59 0 012.11-1.13c1-.32 1.92-.67 2.93-1.05a7 7 0 002.44-1.43 1.62 1.62 0 00.11-2.6l-1.27-1.35 1.54-1.45 1.27 1.35a4.24 4.24 0 011.47 3.31 4.13 4.13 0 01-1.31 2.58 8.25 8.25 0 01-2.65 1.63c-1 .42-2 .79-3 1.11a5.45 5.45 0 00-2 1.05 1.34 1.34 0 00-.27 1.74 6.6 6.6 0 001 1.5l.37.4-1.05 1-.38-.4a6.7 6.7 0 00-1.41-1.06 1.32 1.32 0 00-1.75.13 5.71 5.71 0 00-1.19 1.95c-.4.93-.85 1.91-1.34 2.94a8.79 8.79 0 01-1.85 2.6 4 4 0 01-2.74 1.16 4.41 4.41 0 01-3.12-1.7l-1.27-1.35 1.56-1.47 1.27 1.35a1.63 1.63 0 002.6.07 7.42 7.42 0 001.61-2.37c.46-1 .88-2 1.28-2.91a6.19 6.19 0 011.27-2 2.39 2.39 0 011.66-.56 3.94 3.94 0 012.43 1.11zM56.86 301.53l-2.55-.28.52-4.78-4.71-.47.28-2.55 4.71.52.51-4.61 2.55.28-.51 4.61 4.68.51-.28 2.55-4.68-.51zM59.54 280.43L57 280l.9-4.73-4.66-.89.48-2.52 4.66.89.87-4.55 2.51.48-.87 4.55 4.63.89-.48 2.51-4.63-.88zM63.88 259.62l-2.47-.68 1.27-4.64-4.57-1.25.68-2.47 4.57 1.25 1.23-4.47 2.47.67-1.23 4.48 4.54 1.24-.67 2.47-4.54-1.22zM69.85 239.21l-2.41-.87 1.64-4.52-4.47-1.61.87-2.41 4.52 1.6 1.52-4.4 2.41.87-1.57 4.36 4.43 1.6-.87 2.41-4.43-1.6zM77.41 219.35l-2.34-1.06 2-4.38-4.32-2 1.06-2.33 4.32 1.95 1.87-4.18 2.34 1.05-1.92 4.23 4.29 1.94-1 2.33-4.32-1.9zM86.5 200.13l-2.25-1.23 2.33-4.22-4.16-2.29 1.24-2.24 4.15 2.29 2.24-4.07 2.24 1.24-2.24 4.06 4.13 2.27-1.24 2.25-4.12-2.27zM97.06 181.7l-2.14-1.41 2.65-4-4-2.6 1.43-2.16 4 2.6 2.55-3.87 2.14 1.41-2.55 3.87 3.93 2.59-1.41 2.14-3.93-2.59zM109.06 164.15l-2-1.57 2.95-3.8-3.74-2.91 1.57-2 3.75 2.92 2.85-3.66 2 1.57-2.85 3.66 3.72 2.89-1.58 2-3.73-2.9zM9.41 402.1l28.37.71 1.07 4-28.36-.71zM6.92 391.23l28.33 1.68.94 4-28.33-1.64zM4.81 380.27l28.25 2.66.8 4.08-28.25-2.66zM3.09 369.27l28.14 3.64.65 4.1-28.14-3.64zM1.74 358.18l28 4.6.52 4.13-28-4.61zM.77 347.06l27.82 5.57.37 4.14-27.82-5.57zM.19 335.93l27.61 6.53.23 4.15-27.61-6.54zM0 324.76l27.37 7.49.08 4.15-27.37-7.48zM.19 313.63l27.1 8.42-.06 4.16-27.1-8.43zM.77 302.49l26.79 9.35-.21 4.16-26.78-9.37zM1.73 291.36l26.45 10.28-.35 4.14L1.38 295.5zM3.08 280.28l26.08 11.18-.49 4.12L2.59 284.4zM4.8 269.27l25.68 12.07-.63 4.1-25.68-12.07zM6.9 258.31l25.25 12.95-.77 4.08-25.25-12.95zM9.37 247.45l24.79 13.8-.91 4.06L8.46 251.5zM12.22 236.67l24.3 14.64-1.05 4-24.3-14.65zM15.43 226l23.79 15.46-1.19 4L14.24 230zM174.75 361.14l-3.23 7.62-.67.18-6.68-5 2-.53 4.38 3.24 2.16-5zM167.25 349.71l6.18 5.52-2.06.37-4.09-3.6-2.58 4.8-2.06.38 3.93-7.34zM170.88 337.37l-4.39 7-.69.08-5.82-6 2.08-.21 3.82 3.89 2.92-4.6zM156.55 325.71l14.19 3.79.06 2.15-14.19-3.79zM165.68 313.25l4.75 6.78-2.09-.1-3.16-4.45-3.61 4.09-2.09-.11 5.51-6.24zM172 302.09l-5.87 5.83-.69-.09-4.31-7.12 2.07.26 2.83 4.66 3.9-3.81zM169.42 288.65l3.63 7.44-2.05-.43-2.43-4.88-4.2 3.47-2-.43 6.4-5.31zM177.43 278.59l-6.71 4.84-.67-.2-3.14-7.7 2 .59 2.06 5 4.45-3.16zM168.54 262.41l11.72 8.85-.75 2-11.73-8.85zM181.69 254.27l1.85 8.07-1.89-.88-1.26-5.31-4.88 2.43-1.89-.88 7.44-3.72zM102.3 361.58a4.19 4.19 0 01.58-2.65 2.33 2.33 0 011.47-1 5.9 5.9 0 012.39.24c1 .26 2 .52 3 .77a7.17 7.17 0 002.83.17 1.63 1.63 0 001.54-2.1l-.3-1.83 2.09-.34.3 1.83a4.2 4.2 0 01-.63 3.56 4.06 4.06 0 01-2.52 1.41 8.3 8.3 0 01-3.12-.12c-1.1-.24-2.13-.49-3.08-.74a5.61 5.61 0 00-2.26-.25 1.35 1.35 0 00-1.2 1.29 6.74 6.74 0 000 1.78l.09.55-1.43.23-.09-.54a6.94 6.94 0 00-.58-1.67 1.32 1.32 0 00-1.53-.86 5.82 5.82 0 00-2.08 1c-.84.55-1.76 1.11-2.74 1.69a8.48 8.48 0 01-3 1.12 4 4 0 01-2.92-.56 4.43 4.43 0 01-1.64-3.15l-.3-1.83 2.11-.35.3 1.83a1.63 1.63 0 002.12 1.5 7.32 7.32 0 002.66-1.06c.94-.57 1.83-1.14 2.69-1.7a6.08 6.08 0 012.2-1 2.42 2.42 0 011.69.46 4 4 0 011.36 2.32zM100.38 347.26a4.1 4.1 0 01.76-2.6 2.35 2.35 0 011.53-.88 5.73 5.73 0 012.36.4c.94.32 1.93.64 3 1a7 7 0 002.81.35 1.62 1.62 0 001.67-2l-.18-1.85 2.1-.2.18 1.84a4.2 4.2 0 01-.85 3.52 4.12 4.12 0 01-2.61 1.24 8.23 8.23 0 01-3.1-.32c-1.09-.31-2.1-.63-3-.94a5.71 5.71 0 00-2.24-.4 1.34 1.34 0 00-1.27 1.22 6.74 6.74 0 00-.15 1.77l.05.55-1.44.14-.05-.55a7.06 7.06 0 00-.47-1.7 1.33 1.33 0 00-1.48-1 5.93 5.93 0 00-2.13.82c-.88.49-1.83 1-2.85 1.51a8.42 8.42 0 01-3 .92 4 4 0 01-2.88-.75 4.38 4.38 0 01-1.44-3.25l-.18-1.84 2.14-.21.18 1.85a1.62 1.62 0 002 1.63 7.45 7.45 0 002.72-.89c1-.51 1.9-1 2.79-1.52a5.92 5.92 0 012.26-.85 2.36 2.36 0 011.65.57 3.88 3.88 0 011.12 2.42zM99.4 332.87a4.15 4.15 0 01.91-2.55 2.39 2.39 0 011.59-.77 5.73 5.73 0 012.33.55 109 109 0 002.89 1.15 7.25 7.25 0 002.79.53 1.62 1.62 0 001.79-1.88l-.06-1.86 2.11-.06.06 1.85a4.26 4.26 0 01-1.07 3.45 4.14 4.14 0 01-2.69 1.07 8.18 8.18 0 01-3.08-.52c-1.06-.38-2-.76-3-1.13a5.55 5.55 0 00-2.2-.54 1.34 1.34 0 00-1.36 1.13 6.7 6.7 0 00-.26 1.76v.55H98.7v-.55a7.19 7.19 0 00-.37-1.73 1.3 1.3 0 00-1.33-1 5.75 5.75 0 00-2.18.68q-1.37.64-2.94 1.32a8.64 8.64 0 01-3.1.73 4 4 0 01-2.83-.94 4.42 4.42 0 01-1.22-3.34l-.06-1.85 2.14-.07.06 1.85a1.63 1.63 0 001.91 1.77 7.4 7.4 0 002.77-.72c1-.44 2-.89 2.89-1.33a6 6 0 012.31-.7 2.31 2.31 0 011.61.67 4 4 0 011.04 2.48zM99.34 318.43a4.1 4.1 0 011.08-2.48 2.29 2.29 0 011.63-.67 5.81 5.81 0 012.29.69c.89.45 1.83.89 2.81 1.34a7.23 7.23 0 002.75.71 1.63 1.63 0 001.91-1.76l.06-1.86 2.11.07-.06 1.85a4.24 4.24 0 01-1.3 3.38 4.16 4.16 0 01-2.75.9 8.25 8.25 0 01-3-.72c-1-.45-2-.89-2.89-1.33a5.51 5.51 0 00-2.16-.67 1.35 1.35 0 00-1.43 1 6.47 6.47 0 00-.37 1.74v.55h-1.44v-.55a7 7 0 00-.24-1.74 1.32 1.32 0 00-1.34-1.16 5.82 5.82 0 00-2.22.54c-.94.37-1.95.75-3 1.13a8.69 8.69 0 01-3.15.53 4 4 0 01-2.76-1.12 4.42 4.42 0 01-1-3.41l.06-1.85 2.14.07-.07 1.85a1.62 1.62 0 001.79 1.88 7.38 7.38 0 002.81-.53c1-.38 2-.77 3-1.15a6 6 0 012.35-.55 2.34 2.34 0 011.56.78 3.94 3.94 0 01.83 2.54zM151.64 118.94l-1.6-2 3.75-3-3-3.7 2-1.6 3 3.7 3.62-2.9 1.6 2-3.61 2.9 2.94 3.67-2 1.6-2.94-3.67zM168.46 105.92L167 103.8l4-2.7-2.66-3.93 2.12-1.44 2.66 3.93 3.88-2.61 1.44 2.12-3.84 2.61 2.65 3.89-2.12 1.44-2.65-3.89zM186.25 94.28L185 92.05l4.18-2.38-2.35-4.12 2.17-1.27 2.35 4.12 4-2.3 1.27 2.23-4 2.3 2.38 4.09-2.24 1.28-2.33-4.1zM204.9 84.07l-1.09-2.32 4.36-2-2-4.29 2.32-1.09 2 4.29 4.19-2 1.09 2.34-4.19 2 2 4.26-2.32 1.09-2-4.26zM224.28 75.36l-.9-2.4 4.5-1.69-1.67-4.44 2.4-.9 1.67 4.43 4.34-1.63.91 2.39-4.35 1.64 1.67 4.41-2.4.9-1.66-4.41zM244.3 68.2l-.71-2.46 4.62-1.34-1.32-4.55 2.46-.71 1.32 4.55 4.46-1.29.71 2.46-4.46 1.29 1.32 4.52-2.47.72-1.31-4.53zM264.81 62.64l-.52-2.51 4.71-1-.95-4.64 2.51-.52.95 4.65 4.55-.94.51 2.51-4.54.94 1 4.61-2.51.52-1-4.62zM285.7 58.71l-.32-2.54 4.78-.59-.59-4.71 2.54-.32.59 4.71 4.6-.57.32 2.54-4.6.57.58 4.67-2.54.32-.59-4.67zM47 156.51l19.56 20.56-2.08 3.59-19.57-20.56zM52.91 147.06l18.84 21.22-2.2 3.52-18.84-21.22zM59.17 137.82l18.09 21.86-2.32 3.44-18.09-21.85zM65.72 128.82l17.33 22.47-2.44 3.37-17.32-22.47zM72.61 120l16.54 23.06-2.55 3.28-16.54-23.04zM79.79 111.48l15.73 23.61-2.66 3.19-15.73-23.61zM87.25 103.2l14.91 24.14-2.77 3.1-14.91-24.15zM95 95.17l14.06 24.64-2.88 3-14.05-24.65zM103 87.43l13.2 25.12-3 2.89L100 90.33zM111.31 80l12.32 25.56-3.07 2.79-12.33-25.6zM119.85 72.78l11.44 26-3.17 2.69-11.44-26zM128.64 65.89l10.54 26.34-3.26 2.57-10.54-26.34zM137.65 59.32L147.27 86l-3.35 2.46-9.62-26.68zM146.88 53.06l8.7 27-3.43 2.34-8.7-27zM156.3 47.13l7.78 27.29-3.51 2.22-7.77-27.29zM166 41.52l6.83 27.53-3.59 2.1-6.83-27.54zM175.76 36.24L181.65 64 178 66l-5.88-27.75zM192.85 244.46l-7.67 3.1-.6-.35-1.21-8.21 1.8 1.05.81 5.39 5.07-2zM195.63 231.08l.47 8.26-1.72-1.19-.35-5.44-5.21 1.57-1.72-1.18 8-2.42zM206.93 224.91l-8.07 1.86-.53-.44.09-8.32 1.62 1.32v5.45l5.32-1.19zM205 206.53l7.36 12.72-1.48 1.56-7.36-12.72zM220.31 204.18l-1.44 8.15-1.4-1.55.9-5.37-5.44.33-1.4-1.55 8.31-.52zM232.69 200.78h-8.28l-.42-.55 2-8.08 1.27 1.65-1.29 5.3 5.45.06zM240.34 189.43l-2.69 7.83-1.14-1.75 1.73-5.17-5.43-.52-1.14-1.75 8.29.78zM253.13 188l-8.13-1.34-.34-.61 3.23-7.67 1 1.83-2.1 5 5.37.91zM258.28 170.25l2 14.55-2 .89-2-14.55zM273.33 173.8l-4.39 7-.72-2 2.86-4.64-5.17-1.73-.71-2 7.89 2.64zM141.32 193.54a4.1 4.1 0 012.28-1.46 2.34 2.34 0 011.73.35 5.77 5.77 0 011.51 1.86c.5.87 1 1.76 1.59 2.68a7.44 7.44 0 001.88 2.12 1.63 1.63 0 002.57-.4l1.08-1.51 1.72 1.24-1.08 1.5a4.23 4.23 0 01-3 2.08 4.14 4.14 0 01-2.79-.79 8.2 8.2 0 01-2.11-2.29c-.61-.95-1.17-1.85-1.66-2.71a5.63 5.63 0 00-1.42-1.77 1.35 1.35 0 00-1.76.07 6.94 6.94 0 00-1.28 1.24l-.32.45-1.18-.85.32-.45a6.62 6.62 0 00.77-1.58 1.32 1.32 0 00-.47-1.7 5.82 5.82 0 00-2.14-.79c-1-.22-2-.46-3.14-.75a8.38 8.38 0 01-2.9-1.32 3.93 3.93 0 01-1.67-2.46 4.4 4.4 0 011.07-3.39l1.08-1.51 1.74 1.25-1.08 1.51a1.62 1.62 0 00.43 2.56 7.49 7.49 0 002.63 1.13c1.07.25 2.1.49 3.11.7a6 6 0 012.25.85 2.35 2.35 0 01.87 1.52 4 4 0 01-.63 2.62zM150.08 182.06a4.18 4.18 0 012.38-1.31 2.35 2.35 0 011.7.46 6 6 0 011.39 1.95c.44.9.91 1.83 1.41 2.78a7.29 7.29 0 001.74 2.24 1.63 1.63 0 002.59-.24l1.18-1.43 1.63 1.35-1.18 1.43a4.22 4.22 0 01-3.08 1.88 4.12 4.12 0 01-2.73-1 8.07 8.07 0 01-2-2.42c-.55-1-1.05-1.92-1.48-2.81a5.86 5.86 0 00-1.3-1.86 1.36 1.36 0 00-1.77 0 6.49 6.49 0 00-1.35 1.15l-.35.43-1.12-.92.35-.43a7.1 7.1 0 00.87-1.53 1.34 1.34 0 00-.37-1.73 6 6 0 00-2.08-.93c-1-.27-2-.59-3.09-.94a8.52 8.52 0 01-2.81-1.51 4 4 0 01-1.5-2.57 4.41 4.41 0 011.28-3.31l1.18-1.43 1.65 1.36-1.18 1.43a1.63 1.63 0 00.28 2.59 7.26 7.26 0 002.55 1.29c1.05.33 2.06.63 3.05.9a6 6 0 012.2 1 2.35 2.35 0 01.76 1.57 3.93 3.93 0 01-.8 2.56zM159.56 171.19A4.19 4.19 0 01162 170a2.33 2.33 0 011.67.58 5.81 5.81 0 011.26 2c.38.93.79 1.88 1.23 2.86a7.23 7.23 0 001.59 2.35 1.63 1.63 0 002.6-.07l1.27-1.35 1.54 1.45-1.26 1.35a4.25 4.25 0 01-3.21 1.68 4.15 4.15 0 01-2.66-1.14 8.39 8.39 0 01-1.8-2.55c-.48-1-.91-2-1.29-2.89a5.65 5.65 0 00-1.18-1.94 1.35 1.35 0 00-1.76-.16 6.76 6.76 0 00-1.43 1.06l-.37.4-1.06-1 .38-.4a6.75 6.75 0 001-1.48 1.32 1.32 0 00-.25-1.74 6 6 0 00-2-1.06c-.95-.34-2-.72-3-1.14a8.36 8.36 0 01-2.7-1.68 4 4 0 01-1.34-2.67 4.42 4.42 0 011.49-3.22l1.27-1.35 1.56 1.46-1.26 1.36a1.61 1.61 0 00.1 2.59 7.29 7.29 0 002.46 1.46c1 .39 2 .75 3 1.09a6.11 6.11 0 012.13 1.14 2.37 2.37 0 01.66 1.62 4 4 0 01-1.08 2.58zM169.73 160.94a4.15 4.15 0 012.52-1 2.38 2.38 0 011.63.68 5.88 5.88 0 011.13 2.11c.31 1 .66 1.93 1 2.94a7.37 7.37 0 001.44 2.44 1.62 1.62 0 002.59.1l1.36-1.27 1.44 1.55-1.35 1.26a4.26 4.26 0 01-3.3 1.48 4.14 4.14 0 01-2.58-1.32 8.16 8.16 0 01-1.64-2.65c-.42-1-.78-2-1.1-3a5.74 5.74 0 00-1-2 1.35 1.35 0 00-1.75-.27 6.61 6.61 0 00-1.49 1l-.4.38-1-1.06.4-.38a7.06 7.06 0 001.06-1.41 1.32 1.32 0 00-.14-1.75 5.87 5.87 0 00-2-1.19c-.93-.4-1.91-.84-2.94-1.33a8.47 8.47 0 01-2.59-1.86 4 4 0 01-1.16-2.74 4.39 4.39 0 011.69-3.12l1.36-1.27 1.46 1.56-1.35 1.27a1.62 1.62 0 00-.06 2.6 7.36 7.36 0 002.36 1.61c1 .46 2 .89 2.91 1.28a6 6 0 012.05 1.28 2.33 2.33 0 01.56 1.66 3.94 3.94 0 01-1.11 2.42zM508.28 193.83a4.16 4.16 0 01-.66-2.62 2.35 2.35 0 01.88-1.53 5.81 5.81 0 012.25-.85c1-.19 2-.41 3-.65a7.28 7.28 0 002.61-1.12 1.62 1.62 0 00.43-2.56l-1.08-1.5 1.72-1.24 1.08 1.51a4.2 4.2 0 011 3.46 4.11 4.11 0 01-1.63 2.39 8.3 8.3 0 01-2.84 1.28c-1.1.28-2.13.52-3.1.71a5.76 5.76 0 00-2.13.79 1.34 1.34 0 00-.49 1.69 6.55 6.55 0 00.77 1.61l.32.44-1.18.85-.23-.49a7.39 7.39 0 00-1.26-1.23 1.32 1.32 0 00-1.76-.09 5.91 5.91 0 00-1.43 1.78c-.52.87-1.08 1.78-1.7 2.74a8.57 8.57 0 01-2.18 2.33 3.92 3.92 0 01-2.86.8 4.41 4.41 0 01-2.88-2.08l-1.08-1.51 1.74-1.25 1.08 1.5a1.63 1.63 0 002.57.4 7.46 7.46 0 001.9-2.14c.58-.93 1.13-1.83 1.65-2.72a6 6 0 011.53-1.86 2.36 2.36 0 011.71-.35 4 4 0 012.25 1.51zM516.29 205.84a4.19 4.19 0 01-.5-2.67 2.33 2.33 0 011-1.46 5.78 5.78 0 012.3-.71c1-.13 2-.28 3.07-.46a7.12 7.12 0 002.68-.94 1.63 1.63 0 00.6-2.53l-1-1.57 1.8-1.12 1 1.57a4.25 4.25 0 01.81 3.53 4.18 4.18 0 01-1.79 2.28 8.35 8.35 0 01-2.91 1.09c-1.12.21-2.16.38-3.14.51a5.53 5.53 0 00-2.21.64 1.33 1.33 0 00-.6 1.66 6.37 6.37 0 00.66 1.65l.29.46-1.23.77-.29-.46a6.69 6.69 0 00-1.18-1.31 1.33 1.33 0 00-1.75-.21 5.93 5.93 0 00-1.54 1.69c-.57.83-1.2 1.71-1.87 2.62a8.55 8.55 0 01-2.32 2.19 3.93 3.93 0 01-2.92.61 4.39 4.39 0 01-2.73-2.26l-1-1.57 1.82-1.14 1 1.57a1.62 1.62 0 002.54.56 7.44 7.44 0 002-2c.64-.89 1.24-1.76 1.82-2.61a6.16 6.16 0 011.64-1.76 2.3 2.3 0 011.73-.23 4 4 0 012.22 1.61zM523.5 218.33a4.13 4.13 0 01-.32-2.7 2.37 2.37 0 011.07-1.4 5.91 5.91 0 012.33-.55c1-.07 2-.15 3.1-.26a7.13 7.13 0 002.73-.77 1.61 1.61 0 00.76-2.48l-.88-1.63 1.86-1 .88 1.63a4.21 4.21 0 01.58 3.57 4.07 4.07 0 01-1.92 2.16 8.38 8.38 0 01-3 .91c-1.12.13-2.17.24-3.15.3a5.67 5.67 0 00-2.22.51 1.34 1.34 0 00-.7 1.61 6.76 6.76 0 00.55 1.7l.26.48-1.27.69-.26-.48a6.72 6.72 0 00-1.1-1.39 1.32 1.32 0 00-1.73-.31 5.83 5.83 0 00-1.65 1.58c-.62.8-1.3 1.63-2 2.5a8.49 8.49 0 01-2.46 2 4 4 0 01-3 .43 4.42 4.42 0 01-2.58-2.44l-.88-1.63 1.88-1 .88 1.63a1.63 1.63 0 002.5.72 7.21 7.21 0 002.16-1.87q1-1.28 2-2.49a6.06 6.06 0 011.76-1.65 2.31 2.31 0 011.74-.12 4 4 0 012.08 1.75zM529.91 231.28a4.11 4.11 0 01-.15-2.71 2.29 2.29 0 011.16-1.32 5.85 5.85 0 012.36-.41c1 0 2 0 3.11-.06a7.22 7.22 0 002.78-.58 1.63 1.63 0 00.92-2.44l-.77-1.68 1.92-.88.77 1.68a4.24 4.24 0 01.35 3.6 4.19 4.19 0 01-2.06 2 8.33 8.33 0 01-3 .71c-1.13.06-2.19.1-3.17.11a5.43 5.43 0 00-2.24.36 1.33 1.33 0 00-.81 1.56 6.91 6.91 0 00.44 1.73l.23.5-1.31.6-.23-.5a6.9 6.9 0 00-1-1.45 1.31 1.31 0 00-1.7-.42 5.64 5.64 0 00-1.75 1.47c-.67.75-1.4 1.54-2.2 2.36a8.57 8.57 0 01-2.58 1.87 3.89 3.89 0 01-3 .23 4.38 4.38 0 01-2.43-2.6l-.77-1.68 2-.89.77 1.68a1.62 1.62 0 002.45.88 7.26 7.26 0 002.27-1.73c.75-.8 1.46-1.58 2.14-2.35a6.1 6.1 0 011.86-1.54 2.33 2.33 0 011.75 0 4 4 0 011.89 1.9zM225 487.7l-2.06-1.31 4.58-16.06 2.07 1.31zM212.37 479.28l-2-1.46 5.85-15.65 2 1.47zM200.52 469.92l-1.83-1.62 7.07-15.13 1.83 1.62zM189.43 459.65l-1.69-1.76 8.26-14.53 1.7 1.76zM179.2 448.56l-1.56-1.89 9.36-13.84 1.56 1.88zM169.84 436.67l-1.41-2 10.41-13.07 1.4 2zM161.45 424.09l-1.24-2.09 11.41-12.2 1.24 2.11zM154.08 410.87l-1.06-2.2 12.34-11.25 1.07 2.2zM147.79 397.09l-.89-2.27 13.2-10.23.89 2.27zM142.63 382.9l-.71-2.34 14-9.15.71 2.34zM547 362a4 4 0 011.39-2.32 2.3 2.3 0 011.7-.46 5.71 5.71 0 012.19 1c.82.55 1.7 1.11 2.61 1.68a7.06 7.06 0 002.63 1.06 1.62 1.62 0 002.12-1.5l.3-1.83 2.09.34-.3 1.83A4.24 4.24 0 01560 365a4.13 4.13 0 01-2.85.53 8.09 8.09 0 01-2.91-1.1c-1-.58-1.87-1.14-2.69-1.69a5.74 5.74 0 00-2.06-.95 1.35 1.35 0 00-1.55.85 6.67 6.67 0 00-.59 1.68l-.09.54-1.43-.23.09-.54a7 7 0 000-1.77 1.33 1.33 0 00-1.18-1.3 5.86 5.86 0 00-2.27.24c-1 .25-2 .5-3.14.74a8.64 8.64 0 01-3.19.11 4 4 0 01-2.59-1.46 4.4 4.4 0 01-.56-3.51l.3-1.83 2.11.34-.3 1.83a1.63 1.63 0 001.54 2.1 7.32 7.32 0 002.86-.17c1.07-.24 2.09-.5 3.08-.75a6 6 0 012.4-.24 2.32 2.32 0 011.46 1A3.94 3.94 0 01547 362zM544.19 376.15a4.16 4.16 0 011.53-2.23 2.35 2.35 0 011.73-.35 5.73 5.73 0 012.12 1.13c.79.6 1.63 1.22 2.5 1.85a7.35 7.35 0 002.56 1.22 1.62 1.62 0 002.21-1.36l.42-1.81 2.06.48-.42 1.8A4.24 4.24 0 01557 380a4.15 4.15 0 01-2.87.35 8.28 8.28 0 01-2.84-1.29q-1.39-1-2.58-1.86a5.75 5.75 0 00-2-1.08 1.34 1.34 0 00-1.6.75 6.47 6.47 0 00-.7 1.64l-.12.53-1.41-.32.12-.54a6.89 6.89 0 00.09-1.76A1.32 1.32 0 00542 375a5.91 5.91 0 00-2.28.1c-1 .19-2.06.37-3.19.53a8.43 8.43 0 01-3.18-.09 4 4 0 01-2.5-1.63 4.39 4.39 0 01-.33-3.53l.42-1.81 2.06.43-.42 1.81A1.63 1.63 0 00534 373a7.57 7.57 0 002.86 0c1.08-.18 2.12-.37 3.13-.56a5.94 5.94 0 012.41-.09 2.36 2.36 0 011.39 1.06 4 4 0 01.4 2.74zM540.46 390.08a4.21 4.21 0 011.67-2.13 2.32 2.32 0 011.75-.23 5.81 5.81 0 012 1.25c.75.66 1.55 1.33 2.38 2a7.21 7.21 0 002.47 1.39 1.63 1.63 0 002.3-1.22l.53-1.77 2 .6-.53 1.78a3.79 3.79 0 01-5 3.1 8.67 8.67 0 01-2.75-1.47c-.89-.7-1.71-1.37-2.45-2a5.68 5.68 0 00-1.92-1.21 1.34 1.34 0 00-1.64.65 6.76 6.76 0 00-.81 1.58l-.16.53-1.38-.41.15-.53a6.75 6.75 0 00.21-1.75 1.33 1.33 0 00-1-1.45 6.13 6.13 0 00-2.29 0q-1.5.19-3.21.33a8.27 8.27 0 01-3.17-.3 3.94 3.94 0 01-2.38-1.78 4.42 4.42 0 01-.11-3.55l.53-1.78 2.06.62-.53 1.77a1.62 1.62 0 001.25 2.28 7.45 7.45 0 002.86.2c1.08-.11 2.14-.23 3.15-.36a6.22 6.22 0 012.42.07 2.39 2.39 0 011.31 1.15 4 4 0 01.29 2.64zM535.83 403.77a4.15 4.15 0 011.81-2 2.38 2.38 0 011.76-.12 5.83 5.83 0 012 1.39c.71.71 1.46 1.42 2.24 2.16a7.19 7.19 0 002.38 1.54 1.62 1.62 0 002.37-1.06l.65-1.74 2 .73-.64 1.74a4.24 4.24 0 01-2.3 2.79 4.19 4.19 0 01-2.9 0 8.32 8.32 0 01-2.65-1.65 56.31 56.31 0 01-2.31-2.17 5.61 5.61 0 00-1.84-1.32 1.34 1.34 0 00-1.68.53 7.08 7.08 0 00-.91 1.53l-.19.52-1.36-.5.19-.52a6.59 6.59 0 00.32-1.73 1.32 1.32 0 00-.91-1.51 5.8 5.8 0 00-2.27-.2c-1 .06-2.08.1-3.22.12a8.47 8.47 0 01-3.15-.5 4 4 0 01-2.27-1.93 4.42 4.42 0 01.13-3.55l.64-1.74 2 .74L525 397a1.62 1.62 0 001.1 2.35 7.32 7.32 0 002.84.39c1.09 0 2.15-.09 3.17-.15a6.06 6.06 0 012.41.22 2.37 2.37 0 011.24 1.24 4 4 0 01.07 2.72zM138.89 369.46l-.54-2.38L153 359l.54 2.38zM135.93 354.61l-.34-2.42 15.2-6.93.34 2.42zM134.17 339.6l-.15-2.44 15.7-5.7.15 2.44zM133.6 324.5v-2.44l16.1-4.45-.05 2.44zM134.2 309.42l.23-2.43 16.4-3.19-.23 2.43zM136 294.4l.42-2.41L153 290.1l-.43 2.41zM139 279.57l.62-2.36 16.69-.57-.61 2.37zM143.09 265l.8-2.31 16.69.77-.8 2.31zM148.38 250.82l1-2.24 16.57 2.1-1 2.24zM154.77 237.13l1.15-2.15 16.35 3.41-1.15 2.15zM455.49 508.3a4.19 4.19 0 012.63-.66 2.35 2.35 0 011.53.88 5.83 5.83 0 01.84 2.24c.2 1 .42 2 .66 3a7.1 7.1 0 001.11 2.61 1.62 1.62 0 002.56.43l1.51-1.08 1.23 1.72-1.5 1.08a4.23 4.23 0 01-3.47 1 4.17 4.17 0 01-2.39-1.52 8.46 8.46 0 01-1.28-2.85c-.27-1.09-.51-2.12-.71-3.09a5.78 5.78 0 00-.78-2.13 1.34 1.34 0 00-1.69-.49 6.78 6.78 0 00-1.61.76l-.45.33-.84-1.18.44-.32a6.71 6.71 0 001.23-1.26 1.32 1.32 0 00.09-1.76 5.72 5.72 0 00-1.77-1.43c-.88-.52-1.79-1.08-2.75-1.7a8.71 8.71 0 01-2.33-2.18 4 4 0 01-.8-2.87 4.43 4.43 0 012.09-2.87l1.5-1.08 1.26 1.73-1.51 1.09a1.63 1.63 0 00-.4 2.57 7.46 7.46 0 002.14 1.9c.93.58 1.84 1.13 2.72 1.65a5.88 5.88 0 011.87 1.53A2.35 2.35 0 01457 506a4 4 0 01-1.51 2.3zM443.49 516.3a4.2 4.2 0 012.66-.49 2.38 2.38 0 011.47 1 5.74 5.74 0 01.7 2.29c.13 1 .28 2 .46 3.08a7.24 7.24 0 00.94 2.67 1.63 1.63 0 002.53.61l1.57-1 1.12 1.79-1.57 1a4.23 4.23 0 01-3.52.81 4.15 4.15 0 01-2.28-1.79 8.14 8.14 0 01-1.1-2.92c-.2-1.11-.37-2.15-.51-3.13a5.72 5.72 0 00-.64-2.17 1.33 1.33 0 00-1.66-.6 6.08 6.08 0 00-1.65.66l-.47.29-.77-1.23.47-.29a7 7 0 001.31-1.18 1.33 1.33 0 00.2-1.75 6 6 0 00-1.68-1.54c-.84-.57-1.71-1.2-2.63-1.88a8.53 8.53 0 01-2.19-2.31 4 4 0 01-.61-2.92 4.41 4.41 0 012.27-2.73l1.57-1 1.13 1.82-1.57 1a1.63 1.63 0 00-.56 2.54 7.44 7.44 0 002 2c.89.64 1.76 1.24 2.61 1.81a6.24 6.24 0 011.77 1.65 2.39 2.39 0 01.23 1.73 4 4 0 01-1.6 2.18zM431 523.52a4.1 4.1 0 012.69-.32 2.3 2.3 0 011.4 1.07 5.74 5.74 0 01.55 2.33c.07 1 .16 2 .26 3.1a7.37 7.37 0 00.77 2.73 1.63 1.63 0 002.49.76l1.63-.88 1 1.86-1.63.88a4.21 4.21 0 01-3.57.58 4.14 4.14 0 01-2.16-1.92 8.18 8.18 0 01-.9-3c-.14-1.12-.24-2.17-.31-3.15a5.83 5.83 0 00-.5-2.22 1.35 1.35 0 00-1.62-.7 6.29 6.29 0 00-1.69.55l-.49.26-.69-1.27.49-.26a7.39 7.39 0 001.38-1.1 1.32 1.32 0 00.32-1.73 6.14 6.14 0 00-1.58-1.65c-.8-.62-1.63-1.3-2.51-2a8.65 8.65 0 01-2-2.45 4 4 0 01-.42-3 4.39 4.39 0 012.44-2.58l1.63-.88 1 1.88-1.63.88a1.62 1.62 0 00-.72 2.5 7.26 7.26 0 001.88 2.16c.84.7 1.67 1.36 2.48 2a6.26 6.26 0 011.66 1.76 2.4 2.4 0 01.12 1.74 4 4 0 01-1.77 2.07zM418 529.92a4.16 4.16 0 012.71-.14 2.35 2.35 0 011.33 1.16 5.83 5.83 0 01.4 2.36c0 1 0 2 .06 3.11a7.22 7.22 0 00.59 2.78 1.63 1.63 0 002.43.92l1.68-.78.89 1.92-1.69.78a3.78 3.78 0 01-5.63-1.72 8.43 8.43 0 01-.71-3 74.02 74.02 0 01-.1-3.17 5.78 5.78 0 00-.36-2.24 1.34 1.34 0 00-1.57-.81 6.42 6.42 0 00-1.72.44l-.5.23-.61-1.31.5-.24a6.54 6.54 0 001.45-1 1.32 1.32 0 00.43-1.71 6.06 6.06 0 00-1.47-1.74c-.76-.67-1.55-1.41-2.37-2.2a8.57 8.57 0 01-1.87-2.58 4 4 0 01-.23-3 4.43 4.43 0 012.6-2.42l1.68-.77.9 2-1.69.77a1.62 1.62 0 00-.88 2.44 7.33 7.33 0 001.73 2.28c.8.75 1.59 1.46 2.36 2.14a6.26 6.26 0 011.54 1.86 2.39 2.39 0 010 1.75 3.94 3.94 0 01-1.88 1.89zM161.63 225l1.3-2.07 16.07 4.58-1.31 2.07zM170 212.39l1.47-1.95 15.64 5.85-1.47 2zM179.4 200.54l1.62-1.83 15.13 7.07-1.62 1.83zM189.68 189.45l1.76-1.7L206 196l-1.76 1.7zM200.77 179.22l1.89-1.56L216.5 187l-1.88 1.56zM212.66 169.86l2-1.41 13.06 10.41-2 1.4zM225.24 161.47l2.1-1.24 12.2 11.41-2.1 1.24zM238.46 154.1l2.2-1.06 11.25 12.34-2.2 1.07zM252.23 147.81l2.28-.89 10.23 13.2-2.28.89zM266.43 142.65l2.34-.71 9.15 14-2.34.71zM287.32 547a4.09 4.09 0 012.33 1.39 2.34 2.34 0 01.45 1.7 5.82 5.82 0 01-1 2.19c-.56.82-1.12 1.7-1.69 2.61a7.24 7.24 0 00-1.06 2.63 1.62 1.62 0 001.5 2.12l1.83.3-.34 2.09-1.83-.3a4.24 4.24 0 01-3.18-1.72 4.19 4.19 0 01-.53-2.85 8.47 8.47 0 011.1-2.91c.58-1 1.15-1.87 1.69-2.69a5.74 5.74 0 00.95-2.06 1.34 1.34 0 00-.85-1.55 6.76 6.76 0 00-1.67-.59l-.55-.09.24-1.43.54.09a7 7 0 001.76 0 1.33 1.33 0 001.31-1.18 5.91 5.91 0 00-.25-2.27c-.25-1-.49-2-.73-3.14a8.43 8.43 0 01-.11-3.19 3.9 3.9 0 011.46-2.59 4.38 4.38 0 013.51-.56l1.83.3-.35 2.11-1.83-.3a1.63 1.63 0 00-2.1 1.54 7.52 7.52 0 00.17 2.86c.25 1.06.5 2.09.76 3.08a6 6 0 01.24 2.4 2.36 2.36 0 01-1 1.46 4 4 0 01-2.6.55zM273.18 544.21a4.15 4.15 0 012.23 1.54 2.31 2.31 0 01.34 1.72 5.69 5.69 0 01-1.12 2.12c-.61.79-1.23 1.63-1.85 2.5a7.21 7.21 0 00-1.23 2.56 1.63 1.63 0 001.37 2.21l1.8.42-.47 2.06-1.81-.42a4.2 4.2 0 01-3.06-1.92 4.15 4.15 0 01-.35-2.87 8.28 8.28 0 011.29-2.84c.64-.93 1.26-1.79 1.85-2.58a5.42 5.42 0 001.08-2 1.34 1.34 0 00-.75-1.6 6.42 6.42 0 00-1.63-.7l-.54-.12.33-1.41.53.12a6.49 6.49 0 001.76.09 1.32 1.32 0 001.38-1.09 5.91 5.91 0 00-.1-2.28c-.18-1-.36-2.06-.53-3.18a8.48 8.48 0 01.09-3.19 4 4 0 011.63-2.49 4.37 4.37 0 013.54-.34l1.8.42-.48 2.09-1.8-.42a1.62 1.62 0 00-2.19 1.4 7.37 7.37 0 000 2.86c.18 1.08.36 2.12.56 3.13a6.09 6.09 0 01.08 2.41 2.32 2.32 0 01-1.06 1.39 4 4 0 01-2.69.41zM259.25 540.48a4.13 4.13 0 012.12 1.67 2.32 2.32 0 01.24 1.75 5.71 5.71 0 01-1.26 2c-.66.75-1.33 1.55-2 2.38a7.38 7.38 0 00-1.39 2.47 1.63 1.63 0 001.22 2.3l1.78.53-.61 2-1.77-.53a4.22 4.22 0 01-2.94-2.11 4.17 4.17 0 01-.16-2.89 8.29 8.29 0 011.47-2.75c.7-.89 1.37-1.7 2-2.45a5.52 5.52 0 001.21-1.92 1.34 1.34 0 00-.64-1.64 6.61 6.61 0 00-1.59-.81l-.53-.16.42-1.38.52.15a6.78 6.78 0 001.76.21 1.31 1.31 0 001.44-1 5.92 5.92 0 000-2.29q-.18-1.5-.33-3.21a8.68 8.68 0 01.3-3.17 4 4 0 011.78-2.38 4.44 4.44 0 013.56-.11l1.77.53-.61 2.06-1.78-.53a1.63 1.63 0 00-2.28 1.25 7.67 7.67 0 00-.2 2.86q.17 1.64.36 3.15a6 6 0 01-.07 2.42 2.35 2.35 0 01-1.15 1.31 3.92 3.92 0 01-2.64.29zM245.55 535.85a4.11 4.11 0 012 1.81 2.28 2.28 0 01.12 1.76 5.69 5.69 0 01-1.39 2c-.7.71-1.42 1.46-2.15 2.25a7.2 7.2 0 00-1.53 2.33 1.62 1.62 0 001.07 2.37l1.74.65-.74 2-1.73-.65a4.25 4.25 0 01-2.8-2.29 4.14 4.14 0 010-2.9 8.35 8.35 0 011.64-2.65c.75-.84 1.48-1.61 2.17-2.31a5.83 5.83 0 001.33-1.84 1.34 1.34 0 00-.54-1.68 6.64 6.64 0 00-1.53-.91l-.52-.19.51-1.36.51.19a6.68 6.68 0 001.74.32 1.32 1.32 0 001.51-.91 6 6 0 00.19-2.27c-.06-1-.1-2.08-.12-3.22a8.68 8.68 0 01.5-3.15 4 4 0 011.94-2.27 4.46 4.46 0 013.55.13l1.74.64-.75 2-1.71-.7a1.63 1.63 0 00-2.35 1.1 7.72 7.72 0 00-.39 2.84c0 1.1.09 2.15.16 3.17a6 6 0 01-.23 2.41 2.38 2.38 0 01-1.23 1.24 4 4 0 01-2.71.09zM279.86 138.91l2.39-.54 8.11 14.6-2.39.54zM294.72 136l2.42-.34 6.92 15.2-2.42.34zM309.72 134.19l2.44-.15 5.7 15.7-2.44.15zM324.82 133.62h2.45l4.45 16.1h-2.44zM339.91 134.22l2.43.23 3.19 16.4-2.44-.23zM354.93 136l2.41.42 1.88 16.6-2.41-.43zM369.75 139l2.37.62.56 16.69-2.37-.61zM384.31 143.11l2.31.8-.77 16.69-2.31-.8zM398.5 148.4l2.24 1-2.1 16.6-2.24-1zM412.19 154.79l2.15 1.16-3.4 16.34-2.16-1.15zM141 455.51a4.07 4.07 0 01.66 2.63 2.35 2.35 0 01-.88 1.53 5.92 5.92 0 01-2.24.85c-1 .19-2 .41-3.05.65a7.48 7.48 0 00-2.6 1.11 1.62 1.62 0 00-.44 2.56l1.08 1.51-1.71 1.23-1.09-1.5a4.25 4.25 0 01-1-3.47 4.14 4.14 0 011.64-2.39 8.32 8.32 0 012.84-1.28 67.8 67.8 0 013.09-.7 5.76 5.76 0 002.13-.79 1.34 1.34 0 00.49-1.69 6.58 6.58 0 00-.76-1.61l-.32-.45 1.17-.84.32.45a7.39 7.39 0 001.26 1.23 1.34 1.34 0 001.76.09 5.91 5.91 0 001.43-1.78 81.8 81.8 0 011.71-2.74 8.43 8.43 0 012.17-2.34 3.94 3.94 0 012.87-.79 4.38 4.38 0 012.87 2.08l1.09 1.51-1.74 1.25-1.09-1.51a1.62 1.62 0 00-2.57-.39 7.56 7.56 0 00-1.9 2.13 98.5 98.5 0 00-1.64 2.72 6 6 0 01-1.53 1.87 2.33 2.33 0 01-1.72.34 3.92 3.92 0 01-2.3-1.47zM133 443.51a4.13 4.13 0 01.49 2.66 2.34 2.34 0 01-1 1.47 5.74 5.74 0 01-2.29.7c-1 .13-2 .29-3.08.46a7.31 7.31 0 00-2.67.94 1.62 1.62 0 00-.6 2.53l1 1.57-1.77 1.16-1-1.57a4.21 4.21 0 01-.8-3.53 4.09 4.09 0 011.78-2.28 8.21 8.21 0 012.94-1.12c1.11-.21 2.15-.38 3.13-.51a5.76 5.76 0 002.18-.65 1.35 1.35 0 00.6-1.66 7.17 7.17 0 00-.66-1.65l-.3-.47 1.23-.77.29.47a7 7 0 001.18 1.31 1.33 1.33 0 001.75.2 5.87 5.87 0 001.54-1.68c.57-.84 1.2-1.71 1.88-2.63a8.72 8.72 0 012.32-2.19 4 4 0 012.91-.61 4.43 4.43 0 012.74 2.27l1 1.57-1.82 1.14-1-1.57a1.63 1.63 0 00-2.54-.57 7.63 7.63 0 00-2 2c-.63.89-1.24 1.75-1.81 2.6a6 6 0 01-1.65 1.77 2.38 2.38 0 01-1.73.23 4 4 0 01-2.24-1.59zM125.81 431a4.09 4.09 0 01.31 2.69 2.3 2.3 0 01-1.06 1.4 5.73 5.73 0 01-2.34.56c-1 .06-2 .15-3.1.26a7.37 7.37 0 00-2.73.76 1.63 1.63 0 00-.76 2.49l.88 1.63-1.86 1-.88-1.64a4.24 4.24 0 01-.58-3.57 4.16 4.16 0 011.93-2.16 8.53 8.53 0 013-.9c1.12-.13 2.17-.24 3.16-.31a5.77 5.77 0 002.21-.5 1.36 1.36 0 00.71-1.62 6.76 6.76 0 00-.56-1.69l-.26-.48 1.27-.69.27.48a6.61 6.61 0 001.09 1.39 1.33 1.33 0 001.73.31 5.85 5.85 0 001.65-1.58c.62-.8 1.3-1.63 2-2.5a8.66 8.66 0 012.45-2 4 4 0 012.95-.42 4.39 4.39 0 012.58 2.44l.88 1.63-1.88 1-.88-1.63a1.63 1.63 0 00-2.5-.73 7.4 7.4 0 00-2.16 1.88c-.69.85-1.35 1.67-2 2.48a6 6 0 01-1.76 1.66 2.3 2.3 0 01-1.74.12 4 4 0 01-2.02-1.76zM119.4 418.07a4.07 4.07 0 01.14 2.7 2.33 2.33 0 01-1.15 1.33 5.72 5.72 0 01-2.37.4c-1 0-2 0-3.11.06a7.31 7.31 0 00-2.77.59 1.62 1.62 0 00-.92 2.43l.77 1.69-1.92.88-.77-1.68a4.2 4.2 0 01-.35-3.6 4.13 4.13 0 012.06-2 8.27 8.27 0 013-.7c1.13-.07 2.19-.1 3.18-.11a5.63 5.63 0 002.24-.36 1.35 1.35 0 00.8-1.57 6.06 6.06 0 00-.44-1.72l-.23-.5 1.32-.61.23.5a6.92 6.92 0 001 1.46 1.32 1.32 0 001.71.42 5.75 5.75 0 001.74-1.47c.68-.75 1.41-1.54 2.2-2.36a8.4 8.4 0 012.58-1.87 4 4 0 013-.24 4.4 4.4 0 012.42 2.6l.77 1.69-1.94.89-.78-1.68a1.62 1.62 0 00-2.44-.89 7.61 7.61 0 00-2.28 1.74c-.75.8-1.46 1.58-2.14 2.35a6 6 0 01-1.86 1.54 2.31 2.31 0 01-1.74 0 3.93 3.93 0 01-1.95-1.91zM424.34 161.65l2.06 1.35-4.59 16-2.06-1.31zM436.93 170.06l2 1.47-5.93 15.65-1.95-1.47zM448.79 179.43l1.83 1.62-7.07 15.13-1.84-1.62zM459.87 189.7l1.7 1.76-8.24 14.54-1.69-1.76zM470.11 200.79l1.55 1.89-9.34 13.84-1.55-1.88zM479.47 212.68l1.4 2-10.4 13.07-1.41-2zM487.85 225.26l1.24 2.1-11.4 12.21-1.24-2.11zM495.22 238.48l1.07 2.2L484 251.93l-1.07-2.2zM501.51 252.25l.89 2.28-13.2 10.23-.89-2.27zM506.68 266.45l.7 2.34-14 9.15-.7-2.34zM102.29 287.35a4.17 4.17 0 01-1.39 2.32 2.3 2.3 0 01-1.7.46 5.71 5.71 0 01-2.19-1c-.83-.55-1.7-1.12-2.62-1.68a7.09 7.09 0 00-2.62-1.06 1.63 1.63 0 00-2.13 1.5l-.29 1.83-2.09-.34.3-1.83a4.21 4.21 0 011.72-3.18 4.16 4.16 0 012.84-.54A8.35 8.35 0 0195 285c1 .58 1.87 1.14 2.69 1.68a5.35 5.35 0 002.06.95 1.33 1.33 0 001.54-.84 6.38 6.38 0 00.6-1.68l.09-.54 1.43.23-.09.54a6.58 6.58 0 000 1.77 1.31 1.31 0 001.18 1.3 5.88 5.88 0 002.27-.24c1-.25 2-.5 3.14-.74a8.63 8.63 0 013.19-.11 4 4 0 012.59 1.46 4.44 4.44 0 01.56 3.51l-.3 1.83-2.12-.34.3-1.83a1.63 1.63 0 00-1.54-2.1 7.45 7.45 0 00-2.85.16c-1.07.25-2.1.5-3.09.76a6 6 0 01-2.4.24 2.3 2.3 0 01-1.45-1 3.94 3.94 0 01-.51-2.66zM105.12 273.2a4.11 4.11 0 01-1.54 2.23 2.34 2.34 0 01-1.73.35 6 6 0 01-2.12-1.13c-.79-.6-1.62-1.22-2.5-1.85a7.14 7.14 0 00-2.55-1.22 1.63 1.63 0 00-2.22 1.36l-.41 1.8-2.05-.47.41-1.8a4.28 4.28 0 011.92-3.07 4.17 4.17 0 012.88-.35 8.36 8.36 0 012.79 1.29c.93.64 1.79 1.26 2.57 1.85a5.66 5.66 0 002 1.09 1.34 1.34 0 001.59-.75 6.47 6.47 0 00.7-1.64l.13-.53 1.41.32-.12.54a6.8 6.8 0 00-.1 1.76 1.33 1.33 0 001.1 1.38 5.91 5.91 0 002.28-.1c1-.19 2.05-.37 3.18-.53a8.48 8.48 0 013.19.09 4 4 0 012.49 1.62 4.43 4.43 0 01.33 3.54l-.41 1.81-2.09-.48.41-1.81a1.62 1.62 0 00-1.39-2.19 7.43 7.43 0 00-2.87 0c-1.08.18-2.12.37-3.13.56a6.12 6.12 0 01-2.41.09 2.37 2.37 0 01-1.39-1.07 3.93 3.93 0 01-.35-2.69zM108.85 259.27a4.17 4.17 0 01-1.68 2.13 2.36 2.36 0 01-1.75.23 5.71 5.71 0 01-2-1.26c-.75-.65-1.54-1.32-2.37-2a7.08 7.08 0 00-2.52-1.37 1.62 1.62 0 00-2.29 1.22l-.53 1.78-2-.6.53-1.78a4.21 4.21 0 012.12-2.93 4.09 4.09 0 012.88-.17A8.19 8.19 0 01102 256c.89.7 1.71 1.37 2.45 2a6 6 0 001.93 1.21 1.35 1.35 0 001.64-.65 6.17 6.17 0 00.8-1.59l.16-.52 1.39.41-.16.53a6.83 6.83 0 00-.2 1.75 1.33 1.33 0 001 1.45 5.92 5.92 0 002.28 0c1-.12 2.08-.23 3.21-.32a8.52 8.52 0 013.18.29 4 4 0 012.38 1.79 4.42 4.42 0 01.1 3.55l-.53 1.78-2-.62.53-1.77a1.62 1.62 0 00-1.25-2.28 7.48 7.48 0 00-2.86-.2c-1.09.11-2.14.22-3.16.35a6 6 0 01-2.41-.07 2.31 2.31 0 01-1.32-1.14 4 4 0 01-.31-2.68zM113.48 245.58a4.12 4.12 0 01-1.81 2 2.34 2.34 0 01-1.76.13 5.86 5.86 0 01-2-1.39c-.7-.71-1.45-1.43-2.24-2.16a7.19 7.19 0 00-2.38-1.54 1.62 1.62 0 00-2.37 1.06l-.64 1.74-2-.73L99 243a4.22 4.22 0 012.3-2.79 4.11 4.11 0 012.89 0 8.24 8.24 0 012.65 1.64c.85.76 1.62 1.48 2.32 2.17a5.57 5.57 0 001.84 1.33 1.34 1.34 0 001.68-.53 6.42 6.42 0 00.9-1.54l.19-.51 1.36.5-.19.52a7 7 0 00-.32 1.73 1.33 1.33 0 00.91 1.51 5.91 5.91 0 002.28.19c1 0 2.08-.09 3.22-.11a8.47 8.47 0 013.15.5 4 4 0 012.26 1.93 4.41 4.41 0 01-.12 3.55l-.65 1.74-2-.74.65-1.74a1.62 1.62 0 00-1.11-2.35 7.27 7.27 0 00-2.83-.39q-1.65.06-3.18.15a6.22 6.22 0 01-2.4-.22 2.34 2.34 0 01-1.24-1.24 4 4 0 01-.08-2.72zM510.42 279.89l.53 2.38-14.6 8.11-.53-2.38zM513.37 294.74l.34 2.42-15.2 6.92-.34-2.41zM515.13 309.75l.15 2.44-15.7 5.7-.15-2.44zM515.71 324.85v2.44l-16.1 4.45v-2.44zM515.1 339.93l-.23 2.43-16.39 3.19.23-2.43zM513.32 355l-.43 2.41-16.59 1.89.42-2.41zM510.35 369.78l-.61 2.36-16.69.57.61-2.37zM506.21 384.34l-.8 2.31-16.68-.77.8-2.31zM500.92 398.53l-1 2.24-16.57-2.1 1-2.24zM494.54 412.22l-1.16 2.15L477 411l1.15-2.15zM362 102.31a4.17 4.17 0 01-2.32-1.39 2.3 2.3 0 01-.46-1.7 5.71 5.71 0 011-2.19c.55-.83 1.12-1.7 1.69-2.61a7.34 7.34 0 001.05-2.63 1.63 1.63 0 00-1.5-2.13l-1.83-.29.34-2.09 1.83.3a4.21 4.21 0 013.2 1.72 4.16 4.16 0 01.54 2.84 8.35 8.35 0 01-1.11 2.92c-.58 1-1.14 1.87-1.68 2.69a5.35 5.35 0 00-.95 2.06 1.33 1.33 0 00.84 1.54 6.38 6.38 0 001.68.6l.54.09-.23 1.42-.54-.08a7 7 0 00-1.77 0 1.31 1.31 0 00-1.3 1.18 5.88 5.88 0 00.24 2.27c.25 1 .5 2 .74 3.14a8.59 8.59 0 01.11 3.18 4 4 0 01-1.46 2.6 4.44 4.44 0 01-3.51.56l-1.83-.3.34-2.12 1.83.3a1.63 1.63 0 002.1-1.54 7.45 7.45 0 00-.16-2.85c-.25-1.07-.5-2.1-.76-3.09a6 6 0 01-.24-2.4 2.3 2.3 0 011-1.45 3.94 3.94 0 012.58-.55zM376.13 105.14a4.11 4.11 0 01-2.23-1.54 2.33 2.33 0 01-.35-1.73 6 6 0 011.13-2.12c.6-.79 1.22-1.62 1.85-2.5a7.06 7.06 0 001.22-2.55 1.63 1.63 0 00-1.36-2.22l-1.81-.41.48-2.06 1.8.41a4.3 4.3 0 013.07 1.92 4.17 4.17 0 01.35 2.88 8.36 8.36 0 01-1.28 2.84c-.64.93-1.26 1.79-1.85 2.57a5.8 5.8 0 00-1.09 2 1.34 1.34 0 00.75 1.6 6.12 6.12 0 001.64.7l.53.13-.32 1.41-.54-.12a6.8 6.8 0 00-1.76-.1 1.33 1.33 0 00-1.38 1.1 5.91 5.91 0 00.1 2.28c.19 1 .37 2 .53 3.18a8.48 8.48 0 01-.09 3.19 3.94 3.94 0 01-1.63 2.49 4.39 4.39 0 01-3.53.33l-1.81-.41.48-2.09 1.81.41a1.62 1.62 0 002.19-1.39 7.63 7.63 0 000-2.87c-.18-1.08-.37-2.12-.56-3.13a5.93 5.93 0 01-.09-2.41 2.37 2.37 0 011.07-1.39 3.93 3.93 0 012.68-.4zM390.06 108.87a4.17 4.17 0 01-2.13-1.68 2.36 2.36 0 01-.23-1.75 5.71 5.71 0 011.26-2c.65-.75 1.32-1.54 2-2.37a7.08 7.08 0 001.39-2.48 1.62 1.62 0 00-1.22-2.29l-1.77-.53.6-2 1.78.53a3.8 3.8 0 013.1 5 8.25 8.25 0 01-1.47 2.74c-.7.89-1.37 1.71-2 2.45a5.8 5.8 0 00-1.21 1.93 1.35 1.35 0 00.65 1.64 6.17 6.17 0 001.59.8l.52.16-.41 1.39-.53-.16a6.83 6.83 0 00-1.75-.2 1.33 1.33 0 00-1.45 1 6.09 6.09 0 00-.05 2.28q.19 1.52.33 3.21a8.52 8.52 0 01-.29 3.18A4 4 0 01387 122a4.42 4.42 0 01-3.55.1l-1.78-.53.62-2 1.77.53a1.62 1.62 0 002.28-1.25 7.48 7.48 0 00.2-2.86c-.11-1.09-.23-2.14-.35-3.16a6.2 6.2 0 01.06-2.41 2.37 2.37 0 011.15-1.32 4 4 0 012.66-.23zM403.75 113.5a4.12 4.12 0 01-2-1.81 2.34 2.34 0 01-.13-1.76 5.86 5.86 0 011.39-2c.71-.7 1.42-1.45 2.16-2.24a7.19 7.19 0 001.54-2.38 1.62 1.62 0 00-1.06-2.37l-1.74-.64.73-2 1.74.64a4.22 4.22 0 012.79 2.3 4.11 4.11 0 010 2.89 8.24 8.24 0 01-1.64 2.65c-.76.85-1.48 1.62-2.17 2.32A5.57 5.57 0 00404 111a1.34 1.34 0 00.53 1.68 6.42 6.42 0 001.54.9l.51.19-.5 1.36-.52-.19a7 7 0 00-1.73-.32 1.33 1.33 0 00-1.51.91 6.08 6.08 0 00-.2 2.28c.06 1 .1 2.08.12 3.22a8.47 8.47 0 01-.5 3.15 4 4 0 01-1.93 2.26 4.41 4.41 0 01-3.55-.12l-1.74-.65.74-2 1.74.65a1.62 1.62 0 002.35-1.11 7.24 7.24 0 00.39-2.83q-.06-1.65-.15-3.18a6.22 6.22 0 01.22-2.4 2.34 2.34 0 011.24-1.24 4 4 0 012.7-.06zM369.44 510.44l-2.38.53-8.06-14.6 2.38-.53zM354.59 513.39l-2.42.35-6.92-15.2 2.42-.35zM339.58 515.16l-2.44.14-5.69-15.69 2.43-.15zM324.48 515.73h-2.44l-4.45-16.1h2.44zM309.4 515.12l-2.43-.23-3.19-16.39 2.43.23zM294.38 513.34l-2.41-.43-1.89-16.59 2.41.42zM279.55 510.37l-2.36-.61-.57-16.69 2.37.61zM265 506.23l-2.31-.8.77-16.68 2.31.8zM250.8 500.94l-2.24-1 2.1-16.57 2.24 1zM237.12 494.56L235 493.4l3.41-16.35 2.15 1.16zM193.81 141.05a4.06 4.06 0 01-2.63.66 2.26 2.26 0 01-1.52-.88 5.76 5.76 0 01-.85-2.24c-.19-1-.41-2-.66-3a7.1 7.1 0 00-1.11-2.61 1.62 1.62 0 00-2.56-.44l-1.5 1.08-1.24-1.71 1.51-1.09a4.23 4.23 0 013.46-1 4.11 4.11 0 012.39 1.64 8.13 8.13 0 011.28 2.84c.28 1.09.51 2.12.71 3.09a5.81 5.81 0 00.78 2.13 1.35 1.35 0 001.7.49 6.49 6.49 0 001.6-.76l.45-.32.85 1.17-.45.32a6.71 6.71 0 00-1.23 1.26 1.32 1.32 0 00-.09 1.76 5.78 5.78 0 001.78 1.43c.87.52 1.78 1.09 2.74 1.71a8.39 8.39 0 012.33 2.17 4 4 0 01.8 2.87 4.4 4.4 0 01-2.09 2.87l-1.5 1.09-1.25-1.74 1.5-1.09a1.62 1.62 0 00.4-2.57 7.61 7.61 0 00-2.14-1.9c-.93-.58-1.83-1.13-2.72-1.65a6 6 0 01-1.86-1.52 2.33 2.33 0 01-.35-1.72 4 4 0 011.47-2.34zM205.82 133.05a4.17 4.17 0 01-2.67.49 2.34 2.34 0 01-1.47-1 5.9 5.9 0 01-.7-2.29c-.13-1-.28-2-.46-3.08a7.13 7.13 0 00-.94-2.67 1.62 1.62 0 00-2.53-.6l-1.57 1-1.12-1.79 1.57-1a4.2 4.2 0 013.53-.8 4.1 4.1 0 012.27 1.78 8.22 8.22 0 011.1 2.92c.21 1.11.38 2.15.51 3.13a5.78 5.78 0 00.64 2.18 1.36 1.36 0 001.66.6 7.09 7.09 0 001.66-.66l.46-.3.77 1.23-.47.29a7.74 7.74 0 00-1.31 1.18 1.33 1.33 0 00-.2 1.75 5.93 5.93 0 001.69 1.54c.83.57 1.71 1.2 2.62 1.88a8.41 8.41 0 012.19 2.32 4 4 0 01.61 2.91 4.41 4.41 0 01-2.26 2.74l-1.57 1-1.14-1.8 1.57-1a1.62 1.62 0 00.56-2.54 7.44 7.44 0 00-2-2c-.89-.63-1.76-1.24-2.61-1.81a5.91 5.91 0 01-1.76-1.65 2.28 2.28 0 01-.23-1.73 3.91 3.91 0 011.6-2.22zM218.3 125.84a4.16 4.16 0 01-2.69.32 2.37 2.37 0 01-1.4-1.07 5.75 5.75 0 01-.55-2.34c-.07-1-.16-2-.26-3.1a7.19 7.19 0 00-.77-2.73 1.63 1.63 0 00-2.49-.76l-1.63.88-1-1.86 1.63-.88a4.25 4.25 0 013.57-.58 4.16 4.16 0 012.16 1.93 8.13 8.13 0 01.9 3c.14 1.12.24 2.17.31 3.16a5.57 5.57 0 00.51 2.21 1.34 1.34 0 001.61.71 6.62 6.62 0 001.69-.56l.49-.26.69 1.28-.49.26a6.87 6.87 0 00-1.38 1.09 1.33 1.33 0 00-.32 1.73 5.91 5.91 0 001.59 1.65c.79.62 1.63 1.3 2.5 2a8.62 8.62 0 012 2.45 4 4 0 01.42 3 4.36 4.36 0 01-2.43 2.58l-1.63.89-1-1.89L222 138a1.62 1.62 0 00.72-2.5 7.36 7.36 0 00-1.87-2.16q-1.27-1-2.49-2a6 6 0 01-1.65-1.75 2.38 2.38 0 01-.13-1.75 4 4 0 011.72-2zM231.26 119.43a4.1 4.1 0 01-2.71.14 2.37 2.37 0 01-1.33-1.15 5.89 5.89 0 01-.4-2.37c0-1 0-2-.06-3.11a7.13 7.13 0 00-.59-2.77 1.62 1.62 0 00-2.43-.92l-1.68.77-.88-1.92 1.68-.77a4.2 4.2 0 013.6-.35 4.11 4.11 0 012 2.06 8.27 8.27 0 01.71 3c.06 1.13.1 2.19.1 3.18a5.82 5.82 0 00.36 2.24 1.35 1.35 0 001.57.8 6.14 6.14 0 001.73-.44l.5-.23.6 1.32-.5.23a6.91 6.91 0 00-1.45 1 1.33 1.33 0 00-.43 1.71 6.06 6.06 0 001.47 1.74c.76.68 1.55 1.41 2.37 2.2a8.57 8.57 0 011.87 2.58 4 4 0 01.23 3 4.4 4.4 0 01-2.6 2.42l-1.68.77-.89-1.94 1.68-.78a1.62 1.62 0 00.88-2.44 7.41 7.41 0 00-1.73-2.28c-.8-.75-1.58-1.46-2.35-2.14a6 6 0 01-1.54-1.85 2.34 2.34 0 010-1.75 4 4 0 011.9-1.95zM487.68 424.37l-1.31 2.06-16.06-4.59 1.31-2.06zM479.26 437l-1.47 2-15.64-5.86 1.47-1.95zM469.9 448.82l-1.62 1.83-15.13-7.07 1.62-1.83zM459.62 459.9l-1.75 1.7-14.53-8.23 1.75-1.7zM448.53 470.14l-1.88 1.56-13.85-9.34 1.89-1.56zM436.65 479.5l-2 1.4-13.06-10.4 2-1.41zM424.07 487.88l-2.07 1.24-12.2-11.4 2.11-1.24zM410.84 495.25l-2.2 1.07L397.39 484l2.2-1.07zM397.07 501.54l-2.28.9-10.23-13.21 2.28-.89zM382.88 506.71l-2.35.7-9.15-14 2.34-.7z"/></svg>
