<svg xmlns="http://www.w3.org/2000/svg" viewBox="0 0 242 270" fill="none" role="img"><path d="M184.852 16.68C173.697 5.591 159.141.014 144.517.014c-14.624 0-29.18 5.577-40.335 16.664-22.243 22.243-22.243 58.36 0 80.603 11.155 11.155 25.711 16.665 40.335 16.665a57.136 57.136 0 0040.335-16.665c22.243-22.242 22.243-58.292 0-80.603zm-40.335 79.786c-10.543 0-20.474-4.081-27.888-11.563-7.482-7.483-11.563-17.345-11.563-27.888 0-10.543 4.081-20.474 11.563-27.888 6.938-6.938 15.985-10.815 25.711-11.36-2.516 1.361-4.965 2.994-7.142 5.17-11.971 11.971-11.971 31.425 0 43.396 5.986 5.986 13.876 8.979 21.698 8.979 7.823 0 15.713-2.993 21.699-8.979 2.176-2.176 3.741-4.557 5.169-7.142-.544 9.727-4.421 18.773-11.359 25.712-7.414 7.482-17.345 11.563-27.888 11.563z" fill="#00B3F4"/><mask id="a" mask-type="alpha" maskUnits="userSpaceOnUse" x="87" y="0" width="115" height="114"><path d="M184.852 16.68C173.697 5.591 159.141.014 144.517.014c-14.624 0-29.18 5.577-40.335 16.664-22.243 22.243-22.243 58.36 0 80.603 11.155 11.155 25.711 16.665 40.335 16.665a57.136 57.136 0 0040.335-16.665c22.243-22.242 22.243-58.292 0-80.603zm-40.335 79.786c-10.543 0-20.474-4.081-27.888-11.563-7.482-7.483-11.563-17.345-11.563-27.888 0-10.543 4.081-20.474 11.563-27.888 6.938-6.938 15.985-10.815 25.711-11.36-2.516 1.361-4.965 2.994-7.142 5.17-11.971 11.971-11.971 31.425 0 43.396 5.986 5.986 13.876 8.979 21.698 8.979 7.823 0 15.713-2.993 21.699-8.979 2.176-2.176 3.741-4.557 5.169-7.142-.544 9.727-4.421 18.773-11.359 25.712-7.414 7.482-17.345 11.563-27.888 11.563z" fill="#5B3CC2"/></mask><g mask="url(#a)" fill="#fff" fill-opacity=".41"><path d="M154.516 88.984l15.131-15.97 109.61 103.859-15.131 15.97zM2.516-54.016l15.131-15.97 109.61 103.859-15.131 15.97zM139.5 91.984l6.148-6.489 109.61 103.859-6.148 6.489zM15.5-24.497l6.148-6.489 109.61 103.859-6.148 6.489z"/></g><path fill="#80EBFF" d="M222.5 91.015v6h-18v-6z"/><path fill="#80EBFF" d="M216.5 103.015h-6v-18h6zM219.5 74.015h3v9h-3z"/><path fill="#80EBFF" d="M225.5 77.015v3h-9v-3zM74.5 4.015h6v18h-6z"/><path fill="#80EBFF" d="M86.5 10.015v6h-18v-6z"/><g clip-path="url(#clip0)"><path d="M155 228.159h-.3l-20.2 20.3 6.1 6.1 14.4 14.5 14.4-14.4 14.4-14.4c-7.6-7.8-18-12.1-28.8-12.1zM188.3 194.559l-15.8 15.8c9.7 2.9 18.5 8.2 25.7 15.4l14.4-14.5c-7-7-15.2-12.6-24.3-16.7zM218.4 164.458l-14.9 14.9c8.6 4.7 16.5 10.6 23.5 17.6l14.5-14.6c-6.9-6.8-14.7-12.9-23.1-17.9zM174.9 168.959l16.8-16.8c-21.4-6.7-44.1-7.4-65.8-2.1-1.4.3-2.7.7-4.1 1.1l14.3 17.6c12.8-2.5 26-2.4 38.8.2zM125.4 171.359c1.2-.4 2.3-.7 3.5-1l-13.9-17.1c-1.7.6-3.4 1.2-5.1 1.9l13.6 16.8 1.9-.6zM89.9 165.358c-7.8 4.9-14.9 10.6-21.4 17l14.5 14.5c6-6 12.7-11.2 19.9-15.6l-13-15.9z" fill="#FF1193"/><path d="M211.8 142.159l-5.1-5.1-15.1 15.1-16.8 16.8-18.4 18.5c-.5 0-1-.1-1.4-.1-21.6 0-42.4 8.6-57.7 23.9l14.4 14.5c5.6-5.6 12.3-10.1 19.6-13.2l-31.7 31.7 5.1 5.1 9.3 9.3 107-107.2-9.2-9.3z" fill="#FF1193"/><path opacity=".5" d="M123.6 171.959l-13.7-16.8c-7 2.8-13.7 6.2-20.1 10.2l13 16c6.6-3.9 13.5-7.1 20.8-9.4z" fill="#FF1193"/><path d="M136.1 168.759l-14.3-17.6c-2.3.7-4.5 1.4-6.7 2.1l13.9 17.1c2.3-.6 4.7-1.2 7.1-1.6zM224.5 220.059h6v18h-6z" fill="#FF88C9"/><path fill="#FF88C9" d="M236.5 226.059v6h-18v-6zM215.5 235.059h3v9h-3z"/><path fill="#FF88C9" d="M221.5 238.059v3h-9v-3z"/></g><g clip-path="url(#clip1)"><g clip-path="url(#clip2)"><path d="M46.7 91.293h60.6v20.3l20.2-16.5v-24.1h-101v55.5l20.2-16.4v-18.8zM127.5 202.993v-79.5l-20.2 16.4v20.9l-30.3-24.4c-7.2 5.8-23 18.5-30.3 24.4v-7.3l-20.2 16.4v33.1l50.5-40.6 50.5 40.6z" fill="#FDE143"/><path d="M46.7 118.493l-20.2 16.4v6.7l20.2-16.4v-6.7z" fill="#FDE143"/><path d="M46.7 125.193l-20.2 16.4v28.3l20.2-16.4v-28.3zM46.7 110.093l-20.2 16.4v8.4l20.2-16.4v-8.4zM107.3 139.893l20.2-16.4v-28.4l-20.2 16.5v28.3z" fill="#FEF2AC"/></g></g><path fill="#FEF2AC" d="M18.5 71.059h-3v9h3z"/><path fill="#FEF2AC" d="M12.5 74.059v3h9v-3zM9.5 147.993h6v18h-6z"/><path fill="#FEF2AC" d="M21.5 153.993v6h-18v-6zM12.5 50.059h-6v18h6z"/><path fill="#FEF2AC" d="M.5 56.059v6h18v-6z"/><defs><clipPath id="clip0"><path fill="#fff" transform="translate(68.5 137.059)" d="M0 0h173v132H0z"/></clipPath><clipPath id="clip1"><path fill="#fff" transform="translate(26.5 70.993)" d="M0 0h101v132H0z"/></clipPath><clipPath id="clip2"><path fill="#fff" transform="translate(26.5 70.993)" d="M0 0h101v132H0z"/></clipPath></defs></svg>
