<svg xmlns="http://www.w3.org/2000/svg" viewBox="0 0 253 213" fill="none" role="img"><path d="M122.5 136.1h-.3L102 156.4l6.1 6.1 14.4 14.5 14.4-14.4 14.4-14.4c-7.6-7.8-18-12.1-28.8-12.1zM155.8 102.5L140 118.3c9.7 2.9 18.5 8.2 25.7 15.4l14.4-14.5c-7-7-15.2-12.6-24.3-16.7zM185.9 72.4L171 87.3c8.6 4.7 16.5 10.6 23.5 17.6L209 90.3c-6.9-6.8-14.7-12.9-23.1-17.9zM142.401 76.9l16.8-16.8c-21.4-6.7-44.1-7.4-65.8-2.1-1.4.3-2.7.7-4.1 1.1l14.3 17.6c12.8-2.5 26-2.4 38.8.2zM92.9 79.3c1.2-.4 2.3-.7 3.5-1L82.5 61.2c-1.7.6-3.4 1.2-5.1 1.9L91 79.9l1.9-.6zM57.4 73.3c-7.8 4.9-14.9 10.6-21.4 17l14.5 14.5c6-6 12.7-11.2 19.9-15.6l-13-15.9z" fill="#FF1193"/><path d="M179.301 50.1l-5.1-5.1-15.1 15.1-16.8 16.8-18.4 18.5c-.5 0-1-.1-1.4-.1-21.6 0-42.4 8.6-57.7 23.9l14.4 14.5c5.6-5.6 12.3-10.1 19.6-13.2l-31.7 31.7 5.1 5.1 9.3 9.3 107-107.2-9.2-9.3z" fill="#FF1193"/><path opacity=".5" d="M91.1 79.9L77.4 63.1c-7 2.8-13.7 6.2-20.1 10.2l13 16c6.6-3.9 13.5-7.1 20.8-9.4zM103.6 76.7L89.3 59.1c-2.3.7-4.5 1.4-6.7 2.1l13.9 17.1c2.3-.6 4.7-1.2 7.1-1.6z" fill="#FF1193"/><path fill="#FF88C9" d="M192 128h6v18h-6z"/><path fill="#FF88C9" d="M204 134v6h-18v-6zM183 143h3v9h-3z"/><path fill="#FF88C9" d="M189 146v3h-9v-3z"/><path fill="#F9F8FA" d="M9 153h3v9H9z"/><path fill="#F9F8FA" d="M15 156v3H6v-3zM24 153h3v9h-3z"/><path fill="#F9F8FA" d="M30 156v3h-9v-3zM39 168h3v9h-3z"/><path fill="#F9F8FA" d="M45 171v3h-9v-3zM39 183h3v9h-3z"/><path fill="#F9F8FA" d="M45 186v3h-9v-3zM9 168h3v9H9z"/><path fill="#F9F8FA" d="M15 171v3H6v-3zM9 183h3v9H9z"/><path fill="#F9F8FA" d="M15 186v3H6v-3zM54 183h3v9h-3z"/><path fill="#F9F8FA" d="M60 186v3h-9v-3zM9 138h3v9H9z"/><path fill="#F9F8FA" d="M15 141v3H6v-3zM24 168h3v9h-3z"/><path fill="#F9F8FA" d="M30 171v3h-9v-3zM24 183h3v9h-3z"/><path fill="#F9F8FA" d="M30 186v3h-9v-3zM244 62h-3v-9h3z"/><path fill="#F9F8FA" d="M238 59v-3h9v3zM229 62h-3v-9h3z"/><path fill="#F9F8FA" d="M223 59v-3h9v3zM214 47h-3v-9h3z"/><path fill="#F9F8FA" d="M208 44v-3h9v3zM214 32h-3v-9h3z"/><path fill="#F9F8FA" d="M208 29v-3h9v3zM244 47h-3v-9h3z"/><path fill="#F9F8FA" d="M238 44v-3h9v3zM244 32h-3v-9h3z"/><path fill="#F9F8FA" d="M238 29v-3h9v3zM199 32h-3v-9h3z"/><path fill="#F9F8FA" d="M193 29v-3h9v3zM244 77h-3v-9h3z"/><path fill="#F9F8FA" d="M238 74v-3h9v3zM229 47h-3v-9h3z"/><path fill="#F9F8FA" d="M223 44v-3h9v3zM229 32h-3v-9h3z"/><path fill="#F9F8FA" d="M223 29v-3h9v3z"/><path fill="#FF88C9" d="M32 56h6v18h-6z"/><path fill="#FF88C9" d="M44 62v6H26v-6z"/></svg>
