<svg fill="none" xmlns="http://www.w3.org/2000/svg" viewBox="0 0 439 485" role="img"><g filter="url(#filter0_d)" fill="#F4F4F5"><path d="M60 23.015c0-8.285 6.716-15 15-15h341c8.284 0 15 6.715 15 15v374c0 8.284-6.716 15-15 15H75c-8.284 0-15-6.716-15-15v-374z"/><path d="M60 17.513c0-5.246 4.58-9.498 10.23-9.498h350.54c5.65 0 10.23 4.252 10.23 9.498v385.003c0 5.246-4.58 9.499-10.23 9.499H70.23c-5.65 0-10.23-4.253-10.23-9.499V17.513z"/></g><path d="M60 21.015c0-8.285 6.716-15 15-15h341c8.284 0 15 6.715 15 15v13H60v-13z" fill="url(#paint0_linear)"/><rect x="322" y="60.015" width="60" height="60" rx="30" fill="#fff"/><path fill="#fff" d="M100 67.015h201v16H100zM100 97.015h201v16H100z"/><g filter="url(#filter1_d)"><rect x="14" y="143.015" width="368" height="327" rx="15" fill="#fff"/></g><rect x="31" y="161.015" width="334" height="62" rx="11" fill="#1AB8EC" fill-opacity=".12"/><path d="M61.628 199.015h3.234v-9.416l4.686 8.536 4.664-8.536v9.416h3.256v-15.114h-3.256l-4.664 8.536-4.686-8.536h-3.234v15.114zm21.454 3.96c1.782 0 3.234-1.166 4.092-3.388l4.664-11.946H88.56l-2.838 7.986-2.992-7.986h-3.322l4.73 11.484-.396.836c-.242.418-.726.616-1.342.616-.374 0-.946-.198-1.496-.506l-.682 2.2c.77.418 1.914.704 2.86.704zm16.982-3.96h3.234v-9.416l4.686 8.536 4.664-8.536v9.416h3.256v-15.114h-3.256l-4.664 8.536-4.686-8.536h-3.234v15.114zm19.078 0h5.412c5.082 0 8.69-3.146 8.69-7.568s-3.608-7.546-8.69-7.546h-5.412v15.114zm3.234-2.948v-9.218h2.596c2.882 0 4.928 1.914 4.928 4.598 0 2.706-2.046 4.62-4.928 4.62h-2.596zm13.502 2.948h3.234v-9.768l7.282 9.768h3.256v-15.114h-3.256v9.768l-7.282-9.768h-3.234v15.114zM61.628 273.015h7.942c2.882 0 4.95-1.672 4.95-4.092 0-1.672-1.012-3.08-2.772-3.872 1.342-.704 2.112-1.826 2.112-3.366 0-2.2-1.87-3.784-4.576-3.784h-7.656v15.114zm3.234-9.02v-3.322h3.608c1.21 0 2.068.704 2.068 1.65 0 .968-.858 1.672-2.068 1.672h-3.608zm0 6.248v-3.696h4.114c1.298 0 2.222.77 2.222 1.848s-.924 1.848-2.222 1.848h-4.114zm17.517 3.036c3.366 0 6.182-2.728 6.182-5.962 0-3.234-2.816-5.94-6.182-5.94-3.388 0-6.226 2.706-6.226 5.94 0 3.234 2.838 5.962 6.226 5.962zm0-2.706c-1.716 0-3.146-1.496-3.146-3.256 0-1.76 1.43-3.234 3.146-3.234 1.694 0 3.124 1.474 3.124 3.234s-1.43 3.256-3.124 3.256zm13.943 2.706c3.366 0 6.182-2.728 6.182-5.962 0-3.234-2.816-5.94-6.182-5.94-3.388 0-6.226 2.706-6.226 5.94 0 3.234 2.838 5.962 6.226 5.962zm0-2.706c-1.716 0-3.146-1.496-3.146-3.256 0-1.76 1.43-3.234 3.146-3.234 1.694 0 3.124 1.474 3.124 3.234s-1.43 3.256-3.124 3.256zm19.422-8.932h-3.696l-4.224 4.906v-8.91h-3.212v15.378h3.212v-2.794l1.364-1.474 2.816 4.268h3.696l-4.378-6.336 4.422-5.038zm15.032-.264c-1.694 0-3.102.814-3.696 2.068-.704-1.276-2.046-2.068-3.608-2.068-1.408 0-2.53.682-3.08 1.76v-1.496h-3.212v11.374h3.212v-6.864c0-1.21.902-2.068 2.2-2.068 1.166 0 2.002.924 2.002 2.244v6.71h3.08v-6.886c0-1.21.924-2.068 2.2-2.068 1.188 0 2.024.924 2.024 2.244v6.71h3.08v-7.26c0-2.574-1.826-4.4-4.202-4.4zm11.984 0c-1.584 0-3.146.44-4.752 1.254l1.078 2.134c.902-.462 1.892-.814 2.948-.814 1.87 0 2.618 1.056 2.618 2.266v.22c-.968-.374-1.98-.572-2.904-.572-2.64 0-4.73 1.54-4.73 3.784 0 2.178 1.87 3.63 4.29 3.63 1.232 0 2.53-.484 3.344-1.408v1.144h3.102v-6.798c0-2.97-2.024-4.84-4.994-4.84zm-.726 9.68c-1.1 0-1.914-.572-1.914-1.496s.924-1.606 2.09-1.606c.88 0 1.716.154 2.442.418v1.056c-.22 1.056-1.386 1.628-2.618 1.628zm11.639-7.304v-2.112h-3.212v11.374h3.212v-5.434c0-2.134 1.518-3.498 3.894-3.498v-2.706c-1.738 0-3.146.902-3.894 2.376zm16.813-2.112h-3.696l-4.224 4.906v-8.91h-3.212v15.378h3.212v-2.794l1.364-1.474 2.816 4.268h3.696l-4.378-6.336 4.422-5.038zm5.77 11.638c2.794 0 4.62-1.43 4.62-3.674 0-2.486-2.178-3.146-4.136-3.652-1.54-.418-2.002-.594-2.002-1.21 0-.396.55-.682 1.342-.682.968 0 2.156.374 3.19 1.012l1.298-2.288c-1.254-.836-2.86-1.408-4.488-1.408-2.684 0-4.466 1.54-4.444 3.696.022 2.244 1.826 2.882 4.158 3.454 1.166.308 2.002.528 2.002 1.232 0 .506-.616.858-1.474.858-1.518 0-2.794-.55-3.806-1.276l-1.386 2.222c1.364 1.1 3.3 1.716 5.126 1.716zM68.932 350.279c4.378 0 8.03-3.586 8.03-7.832s-3.652-7.81-8.03-7.81c-4.334 0-8.03 3.564-8.03 7.81 0 4.246 3.696 7.832 8.03 7.832zm0-2.948c-2.53 0-4.686-2.244-4.686-4.884 0-2.618 2.156-4.862 4.686-4.862 2.552 0 4.708 2.244 4.708 4.862 0 2.64-2.156 4.884-4.708 4.884zm14.135-9.306c0-.748.485-1.276 1.079-1.276.44 0 .88.154 1.1.374l.77-1.958c-.66-.594-1.695-.99-2.619-.99-2.002 0-3.41 1.43-3.41 3.476v.99h-1.561v2.596h1.561v8.778h3.08v-8.778h2.465v-2.596h-2.465v-.616zm8.337 0c0-.748.484-1.276 1.078-1.276.44 0 .88.154 1.1.374l.77-1.958c-.66-.594-1.695-.99-2.618-.99-2.002 0-3.41 1.43-3.41 3.476v.99H86.76v2.596h1.563v8.778h3.08v-8.778h2.464v-2.596h-2.465v-.616zm4.53 11.99h3.211v-15.378h-3.212v15.378zm7.621-12.936c.946 0 1.716-.792 1.716-1.76 0-.902-.77-1.716-1.716-1.716-.99 0-1.76.814-1.76 1.716 0 .968.77 1.76 1.76 1.76zm-1.628 12.936h3.212v-11.374h-3.212v11.374zm12.594-11.638c-1.474 0-2.75.66-3.432 1.694v-1.43h-3.212v11.374h3.212v-6.798l.022.066c0-1.232 1.034-2.2 2.376-2.2 1.276 0 2.156.968 2.156 2.376v6.556h3.102v-7.238c0-2.574-1.76-4.4-4.224-4.4zm12.304 9.064c-1.342 0-2.332-.836-2.706-2.068h8.206c0-4.29-2.09-6.996-5.654-6.996-3.322 0-5.852 2.486-5.852 5.918 0 3.498 2.64 5.984 6.028 5.984 1.672 0 3.63-.704 4.642-1.76l-2.046-2.09c-.616.594-1.716 1.012-2.618 1.012zm-.022-6.226c1.298 0 2.134.726 2.442 1.848h-5.082c.418-1.144 1.43-1.848 2.64-1.848zm18.921-2.838c-1.584 0-3.146.44-4.752 1.254l1.078 2.134c.902-.462 1.892-.814 2.948-.814 1.87 0 2.618 1.056 2.618 2.266v.22c-.968-.374-1.98-.572-2.904-.572-2.64 0-4.73 1.54-4.73 3.784 0 2.178 1.87 3.63 4.29 3.63 1.232 0 2.53-.484 3.344-1.408v1.144h3.102v-6.798c0-2.97-2.024-4.84-4.994-4.84zm-.726 9.68c-1.1 0-1.914-.572-1.914-1.496s.924-1.606 2.09-1.606c.88 0 1.716.154 2.442.418v1.056c-.22 1.056-1.386 1.628-2.618 1.628zm13.994 2.222c1.892 0 3.432-.77 4.554-2.002l-2.134-1.804c-.594.66-1.518 1.1-2.398 1.1-1.694 0-3.102-1.496-3.102-3.278 0-1.738 1.408-3.212 3.08-3.212.88 0 1.782.418 2.354 1.056l2.134-1.826c-1.1-1.188-2.618-1.936-4.466-1.936-3.366 0-6.226 2.706-6.226 5.94 0 3.234 2.838 5.962 6.204 5.962zm12.052 0c1.892 0 3.432-.77 4.554-2.002l-2.134-1.804c-.594.66-1.518 1.1-2.398 1.1-1.694 0-3.102-1.496-3.102-3.278 0-1.738 1.408-3.212 3.08-3.212.88 0 1.782.418 2.354 1.056l2.134-1.826c-1.1-1.188-2.618-1.936-4.466-1.936-3.366 0-6.226 2.706-6.226 5.94 0 3.234 2.838 5.962 6.204 5.962zm11.855-2.838c-1.342 0-2.332-.836-2.706-2.068h8.206c0-4.29-2.09-6.996-5.654-6.996-3.322 0-5.852 2.486-5.852 5.918 0 3.498 2.64 5.984 6.028 5.984 1.672 0 3.63-.704 4.642-1.76l-2.046-2.09c-.616.594-1.716 1.012-2.618 1.012zm-.022-6.226c1.298 0 2.134.726 2.442 1.848h-5.082c.418-1.144 1.43-1.848 2.64-1.848zm11.963 9.064c2.794 0 4.62-1.43 4.62-3.674 0-2.486-2.178-3.146-4.136-3.652-1.54-.418-2.002-.594-2.002-1.21 0-.396.55-.682 1.342-.682.968 0 2.156.374 3.19 1.012l1.298-2.288c-1.254-.836-2.86-1.408-4.488-1.408-2.684 0-4.466 1.54-4.444 3.696.022 2.244 1.826 2.882 4.158 3.454 1.166.308 2.002.528 2.002 1.232 0 .506-.616.858-1.474.858-1.518 0-2.794-.55-3.806-1.276l-1.386 2.222c1.364 1.1 3.3 1.716 5.126 1.716zm11.043 0c2.794 0 4.62-1.43 4.62-3.674 0-2.486-2.178-3.146-4.136-3.652-1.54-.418-2.002-.594-2.002-1.21 0-.396.55-.682 1.342-.682.968 0 2.156.374 3.19 1.012l1.298-2.288c-1.254-.836-2.86-1.408-4.488-1.408-2.684 0-4.466 1.54-4.444 3.696.022 2.244 1.826 2.882 4.158 3.454 1.166.308 2.002.528 2.002 1.232 0 .506-.616.858-1.474.858-1.518 0-2.794-.55-3.806-1.276l-1.386 2.222c1.364 1.1 3.3 1.716 5.126 1.716zM65.412 427.015h3.256v-12.188h4.708v-2.926H60.704v2.926h4.708v12.188zm16.625-11.638c-1.452 0-2.706.66-3.41 1.65v-5.39h-3.212v15.378h3.212v-6.732c0-1.232 1.034-2.2 2.376-2.2 1.276 0 2.156.968 2.156 2.376v6.556h3.102v-7.238c0-2.574-1.76-4.4-4.224-4.4zm12.303 9.064c-1.341 0-2.332-.836-2.706-2.068h8.207c0-4.29-2.09-6.996-5.654-6.996-3.322 0-5.852 2.486-5.852 5.918 0 3.498 2.64 5.984 6.028 5.984 1.671 0 3.63-.704 4.641-1.76l-2.046-2.09c-.615.594-1.715 1.012-2.617 1.012zm-.022-6.226c1.299 0 2.135.726 2.442 1.848h-5.082c.419-1.144 1.43-1.848 2.64-1.848zm21.225-2.838c-1.694 0-3.102.814-3.696 2.068-.704-1.276-2.046-2.068-3.608-2.068-1.408 0-2.53.682-3.08 1.76v-1.496h-3.212v11.374h3.212v-6.864c0-1.21.902-2.068 2.2-2.068 1.166 0 2.002.924 2.002 2.244v6.71h3.08v-6.886c0-1.21.924-2.068 2.2-2.068 1.188 0 2.024.924 2.024 2.244v6.71h3.08v-7.26c0-2.574-1.826-4.4-4.202-4.4zm12.27 9.064c-1.342 0-2.332-.836-2.706-2.068h8.206c0-4.29-2.09-6.996-5.654-6.996-3.322 0-5.852 2.486-5.852 5.918 0 3.498 2.64 5.984 6.028 5.984 1.672 0 3.63-.704 4.642-1.76l-2.046-2.09c-.616.594-1.716 1.012-2.618 1.012zm-.022-6.226c1.298 0 2.134.726 2.442 1.848h-5.082c.418-1.144 1.43-1.848 2.64-1.848zm11.963 9.064c2.794 0 4.62-1.43 4.62-3.674 0-2.486-2.178-3.146-4.136-3.652-1.54-.418-2.002-.594-2.002-1.21 0-.396.55-.682 1.342-.682.968 0 2.156.374 3.19 1.012l1.298-2.288c-1.254-.836-2.86-1.408-4.488-1.408-2.684 0-4.466 1.54-4.444 3.696.022 2.244 1.826 2.882 4.158 3.454 1.166.308 2.002.528 2.002 1.232 0 .506-.616.858-1.474.858-1.518 0-2.794-.55-3.806-1.276l-1.386 2.222c1.364 1.1 3.3 1.716 5.126 1.716z" fill="#1AB8EC"/><path d="M343.626 93.288h-4.879l3.523-3.5h-6.066l3.513-3.49H334c.127-.149.193-.235.268-.31 2.033-2.02 4.035-4.072 6.107-6.05 2.476-2.367 5.481-3.747 9.041-3.918.746-.035 1.517.117 2.255.271.822.178 1.631.404 2.423.676.981.327 1.96.352 2.968.162.745-.14 1.497-.14 2.22.116 1.143.401 1.876 1.152 2.063 2.3.157.961.675 1.667 1.611 2.062 1.181.502 2.385.956 3.583 1.424.643.251 1.295.48 1.937.732.868.344 1.431.905 1.447 1.849.019 1 .126 2.006.05 3-.075.995-.701 1.83-1.231 2.674-.221.353-.619.442-1.038.484a2.025 2.025 0 00-.708.21c-.41.212-.803.452-1.191.7-.772.489-1.585.517-2.458.272-.832-.231-1.672-.49-2.528-.58a8.92 8.92 0 00-2.551.061c-1.871.351-2.862 1.608-3.146 3.276-.3 1.77-.417 3.568-.579 5.356-.088.96-.104 1.926-.155 2.95-.386-.1-.744-.181-1.094-.285-4.239-1.277-7.868-3.487-11.024-6.412-.18-.167-.169-.3-.089-.492.478-1.156.947-2.316 1.445-3.538z" fill="url(#paint1_linear)"/><defs><linearGradient id="paint0_linear" x1="1211.39" y1="3.072" x2="431.066" y2="558.206" gradientUnits="userSpaceOnUse"><stop offset=".547" stop-color="#51FDBD"/><stop offset="1" stop-color="#19D7E1"/></linearGradient><linearGradient id="paint1_linear" x1="445.725" y1="73.072" x2="332.225" y2="80.907" gradientUnits="userSpaceOnUse"><stop offset=".547" stop-color="#51FDBD"/><stop offset="1" stop-color="#19D7E1"/></linearGradient><filter id="filter0_d" x="52" y=".015" width="387" height="420" filterUnits="userSpaceOnUse" color-interpolation-filters="sRGB"><feFlood flood-opacity="0" result="BackgroundImageFix"/><feColorMatrix in="SourceAlpha" values="0 0 0 0 0 0 0 0 0 0 0 0 0 0 0 0 0 0 127 0"/><feOffset/><feGaussianBlur stdDeviation="4"/><feColorMatrix values="0 0 0 0 0.12549 0 0 0 0 0.0666667 0 0 0 0 0.223529 0 0 0 0.1 0"/><feBlend in2="BackgroundImageFix" result="effect1_dropShadow"/><feBlend in="SourceGraphic" in2="effect1_dropShadow" result="shape"/></filter><filter id="filter1_d" x="0" y="129.015" width="396" height="355" filterUnits="userSpaceOnUse" color-interpolation-filters="sRGB"><feFlood flood-opacity="0" result="BackgroundImageFix"/><feColorMatrix in="SourceAlpha" values="0 0 0 0 0 0 0 0 0 0 0 0 0 0 0 0 0 0 127 0"/><feOffset/><feGaussianBlur stdDeviation="7"/><feColorMatrix values="0 0 0 0 0.223529 0 0 0 0 0.101961 0 0 0 0 0.431373 0 0 0 0.11 0"/><feBlend in2="BackgroundImageFix" result="effect1_dropShadow"/><feBlend in="SourceGraphic" in2="effect1_dropShadow" result="shape"/></filter></defs></svg>
