<?xml version="1.0" encoding="utf-8"?>
<!-- Generator: Adobe Illustrator 25.2.1, SVG Export Plug-In . SVG Version: 6.00 Build 0)  -->
<svg version="1.1" id="Layer_1" xmlns="http://www.w3.org/2000/svg" xmlns:xlink="http://www.w3.org/1999/xlink" x="0px" y="0px"
	 viewBox="0 0 148 109" style="enable-background:new 0 0 148 109;" xml:space="preserve">
<style type="text/css">
	.st0{fill:none;}
	.st1{fill:#37ACE2;}
	.st2{opacity:0.5;fill:#37ACE2;}
</style>
<polygon class="st0" points="28.9,91.9 57.6,92 61.1,85.9 39.5,73.4 "/>
<polygon class="st0" points="40.5,54.3 76.6,75.2 84.8,60.7 48.8,39.8 "/>
<polygon class="st1" points="148,0.1 129.6,0.1 123.7,10.2 135.8,21.6 "/>
<path class="st1" d="M100.6,50.4L50.2,21.2L62.4,0H43.8L27.2,27.6l7,4.1L17.8,60.3l7.5,4.4L0,108.7l67.1,0.3l8.6-15.1l6.9,4L99,69.4
	l7.4,4.3L118,53.2l-12.3-11.6L100.6,50.4z M57.6,92l-28.7-0.1l10.6-18.5L61.1,86L57.6,92z M76.6,75.1l-36-20.8l8.3-14.5l36,20.9
	L76.6,75.1z"/>
<polygon class="st1" points="131.3,29.7 119.2,18.2 117,22 129.1,33.5 "/>
<polygon class="st2" points="117,22 105.7,41.6 117.9,53.2 129.1,33.5 "/>
<polygon class="st2" points="135.8,21.6 123.7,10.2 119.2,18.2 131.3,29.7 "/>
<polygon class="st2" points="102,109 96,97 102,85 108,97 "/>
<polygon class="st2" points="117,104 113,97 117,90 121,97 "/>
</svg>
