<svg width="253" height="213" viewBox="0 0 253 213" fill="none" xmlns="http://www.w3.org/2000/svg">
<g clip-path="url(#clip0)">
<path d="M91 143H70V164H91V143Z" fill="#1AB8EC"/>
<path d="M91 112.182H70V133H91V112.182Z" fill="#1AB8EC"/>
<path d="M91 81H70V102H91V81Z" fill="#1AB8EC"/>
<path d="M122 143H101V164H122V143Z" fill="#1AB8EC"/>
<path d="M122 112H101V133H122V112Z" fill="#1AB8EC"/>
<path d="M122 81H101V102H122V81Z" fill="#1AB8EC"/>
<path d="M153 143H132V164H153V143Z" fill="#1AB8EC"/>
<path d="M153 112H132V133H153V112Z" fill="#1AB8EC"/>
<path d="M153 81H132V102H153V81Z" fill="#1AB8EC"/>
<path d="M184.001 143H163V164H184.001V143Z" fill="#1AB8EC"/>
<path d="M184.001 112H163V133H184.001V112Z" fill="#1AB8EC"/>
<path d="M184.001 81H163V102H184.001V81Z" fill="#1AB8EC"/>
<path d="M184 50H70V71H184V50Z" fill="#1AB8EC"/>
</g>
<g clip-path="url(#clip1)">
<rect x="186.742" y="130.377" width="22" height="151" transform="rotate(133.457 186.742 130.377)" fill="white" fill-opacity="0.41"/>
<rect x="192.758" y="117.858" width="8.93871" height="151" transform="rotate(133.457 192.758 117.858)" fill="white" fill-opacity="0.41"/>
</g>
<rect x="211" y="72" width="3" height="9" transform="rotate(-180 211 72)" fill="#F9F8FA"/>
<rect x="205" y="69" width="3" height="9" transform="rotate(-90 205 69)" fill="#F9F8FA"/>
<rect x="193" y="79" width="3" height="9" fill="#F9F8FA"/>
<rect x="199" y="82" width="3" height="9" transform="rotate(90 199 82)" fill="#F9F8FA"/>
<rect x="43" y="142" width="3" height="9" fill="#F9F8FA"/>
<rect x="49" y="145" width="3" height="9" transform="rotate(90 49 145)" fill="#F9F8FA"/>
<rect x="43" y="157" width="3" height="9" fill="#F9F8FA"/>
<rect x="49" y="160" width="3" height="9" transform="rotate(90 49 160)" fill="#F9F8FA"/>
<rect x="43" y="172" width="3" height="9" fill="#F9F8FA"/>
<rect x="49" y="175" width="3" height="9" transform="rotate(90 49 175)" fill="#F9F8FA"/>
<rect x="211" y="57" width="3" height="9" transform="rotate(-180 211 57)" fill="#F9F8FA"/>
<rect x="205" y="54" width="3" height="9" transform="rotate(-90 205 54)" fill="#F9F8FA"/>
<rect x="211" y="42" width="3" height="9" transform="rotate(-180 211 42)" fill="#F9F8FA"/>
<rect x="205" y="39" width="3" height="9" transform="rotate(-90 205 39)" fill="#F9F8FA"/>
<rect x="226" y="57" width="3" height="9" transform="rotate(-180 226 57)" fill="#F9F8FA"/>
<rect x="220" y="54" width="3" height="9" transform="rotate(-90 220 54)" fill="#F9F8FA"/>
<rect x="226" y="42" width="3" height="9" transform="rotate(-180 226 42)" fill="#F9F8FA"/>
<rect x="220" y="39" width="3" height="9" transform="rotate(-90 220 39)" fill="#F9F8FA"/>
<rect x="241" y="42" width="3" height="9" transform="rotate(-180 241 42)" fill="#F9F8FA"/>
<rect x="235" y="39" width="3" height="9" transform="rotate(-90 235 39)" fill="#F9F8FA"/>
<rect x="58" y="127" width="3" height="9" fill="#F9F8FA"/>
<rect x="64" y="130" width="3" height="9" transform="rotate(90 64 130)" fill="#F9F8FA"/>
<rect x="196" y="72" width="3" height="9" transform="rotate(-180 196 72)" fill="#F9F8FA"/>
<rect x="190" y="69" width="3" height="9" transform="rotate(-90 190 69)" fill="#F9F8FA"/>
<rect x="58" y="142" width="3" height="9" fill="#F9F8FA"/>
<rect x="64" y="145" width="3" height="9" transform="rotate(90 64 145)" fill="#F9F8FA"/>
<rect x="58" y="157" width="3" height="9" fill="#F9F8FA"/>
<rect x="64" y="160" width="3" height="9" transform="rotate(90 64 160)" fill="#F9F8FA"/>
<rect x="58" y="172" width="3" height="9" fill="#F9F8FA"/>
<rect x="64" y="175" width="3" height="9" transform="rotate(90 64 175)" fill="#F9F8FA"/>
<rect x="28" y="157" width="3" height="9" fill="#F9F8FA"/>
<rect x="34" y="160" width="3" height="9" transform="rotate(90 34 160)" fill="#F9F8FA"/>
<rect x="28" y="172" width="3" height="9" fill="#F9F8FA"/>
<rect x="34" y="175" width="3" height="9" transform="rotate(90 34 175)" fill="#F9F8FA"/>
<rect x="13" y="172" width="3" height="9" fill="#F9F8FA"/>
<rect x="19" y="175" width="3" height="9" transform="rotate(90 19 175)" fill="#F9F8FA"/>
<rect x="196" y="57" width="3" height="9" transform="rotate(-180 196 57)" fill="#F9F8FA"/>
<rect x="190" y="54" width="3" height="9" transform="rotate(-90 190 54)" fill="#F9F8FA"/>
<rect x="196" y="42" width="3" height="9" transform="rotate(-180 196 42)" fill="#F9F8FA"/>
<rect x="190" y="39" width="3" height="9" transform="rotate(-90 190 39)" fill="#F9F8FA"/>
<defs>
<clipPath id="clip0">
<rect width="114" height="114" fill="white" transform="translate(70 50)"/>
</clipPath>
<clipPath id="clip1">
<rect width="114" height="21" fill="white" transform="translate(70 50)"/>
</clipPath>
</defs>
</svg>
