<svg width="253" height="213" viewBox="0 0 253 213" fill="none" xmlns="http://www.w3.org/2000/svg">
<path d="M97.2 61.3H157.8V81.6L178 65.1V41H77V96.5L97.2 80.1V61.3Z" fill="#FDE143"/>
<path d="M178 173V93.5L157.8 109.9V130.8L127.5 106.4C120.3 112.2 104.5 124.9 97.2 130.8V123.5L77 139.9V173L127.5 132.4L178 173Z" fill="#FDE143"/>
<path d="M97.2 88.5L77 104.9V111.6L97.2 95.2V88.5Z" fill="#FDE143"/>
<path opacity="0.5" d="M97.2 95.2002L77 111.6V139.9L97.2 123.5V95.2002Z" fill="#FDE143"/>
<path opacity="0.5" d="M97.2 80.1001L77 96.5001V104.9L97.2 88.5001V80.1001Z" fill="#FDE143"/>
<path opacity="0.5" d="M157.801 109.9L178.001 93.5001V65.1001L157.801 81.6001V109.9Z" fill="#FDE143"/>
<rect x="187" y="41" width="3" height="9" fill="#FEF2AC"/>
<rect x="193" y="44" width="3" height="9" transform="rotate(90 193 44)" fill="#FEF2AC"/>
<rect x="58" y="118" width="6" height="18" fill="#FEF2AC"/>
<rect x="70" y="124" width="6" height="18" transform="rotate(90 70 124)" fill="#FEF2AC"/>
<rect x="187" y="179" width="3" height="9" fill="#F9F8FA"/>
<rect x="193" y="182" width="3" height="9" transform="rotate(90 193 182)" fill="#F9F8FA"/>
<rect x="187" y="194" width="3" height="9" fill="#F9F8FA"/>
<rect x="193" y="197" width="3" height="9" transform="rotate(90 193 197)" fill="#F9F8FA"/>
<rect x="157" y="179" width="3" height="9" fill="#F9F8FA"/>
<rect x="163" y="182" width="3" height="9" transform="rotate(90 163 182)" fill="#F9F8FA"/>
<rect x="50" y="41" width="3" height="9" fill="#F9F8FA"/>
<rect x="56" y="44" width="3" height="9" transform="rotate(90 56 44)" fill="#F9F8FA"/>
<rect x="50" y="11" width="3" height="9" fill="#F9F8FA"/>
<rect x="56" y="14" width="3" height="9" transform="rotate(90 56 14)" fill="#F9F8FA"/>
<rect x="80" y="11" width="3" height="9" fill="#F9F8FA"/>
<rect x="86" y="14" width="3" height="9" transform="rotate(90 86 14)" fill="#F9F8FA"/>
<rect x="187" y="149" width="3" height="9" fill="#F9F8FA"/>
<rect x="193" y="152" width="3" height="9" transform="rotate(90 193 152)" fill="#F9F8FA"/>
<rect x="50" y="71" width="3" height="9" fill="#F9F8FA"/>
<rect x="56" y="74" width="3" height="9" transform="rotate(90 56 74)" fill="#F9F8FA"/>
<rect x="202" y="135" width="3" height="9" fill="#F9F8FA"/>
<rect x="208" y="138" width="3" height="9" transform="rotate(90 208 138)" fill="#F9F8FA"/>
<rect x="65" y="41" width="3" height="9" fill="#F9F8FA"/>
<rect x="71" y="44" width="3" height="9" transform="rotate(90 71 44)" fill="#F9F8FA"/>
<rect x="65" y="11" width="3" height="9" fill="#F9F8FA"/>
<rect x="71" y="14" width="3" height="9" transform="rotate(90 71 14)" fill="#F9F8FA"/>
<rect x="95" y="11" width="3" height="9" fill="#F9F8FA"/>
<rect x="101" y="14" width="3" height="9" transform="rotate(90 101 14)" fill="#F9F8FA"/>
<rect x="202" y="164" width="3" height="9" fill="#F9F8FA"/>
<rect x="208" y="167" width="3" height="9" transform="rotate(90 208 167)" fill="#F9F8FA"/>
<rect x="65" y="71" width="3" height="9" fill="#F9F8FA"/>
<rect x="71" y="74" width="3" height="9" transform="rotate(90 71 74)" fill="#F9F8FA"/>
<rect x="187" y="135" width="3" height="9" fill="#F9F8FA"/>
<rect x="193" y="138" width="3" height="9" transform="rotate(90 193 138)" fill="#F9F8FA"/>
<rect x="50" y="56" width="3" height="9" fill="#F9F8FA"/>
<rect x="56" y="59" width="3" height="9" transform="rotate(90 56 59)" fill="#F9F8FA"/>
<rect x="50" y="26" width="3" height="9" fill="#F9F8FA"/>
<rect x="56" y="29" width="3" height="9" transform="rotate(90 56 29)" fill="#F9F8FA"/>
<rect x="80" y="26" width="3" height="9" fill="#F9F8FA"/>
<rect x="86" y="29" width="3" height="9" transform="rotate(90 86 29)" fill="#F9F8FA"/>
<rect x="187" y="164" width="3" height="9" fill="#F9F8FA"/>
<rect x="193" y="167" width="3" height="9" transform="rotate(90 193 167)" fill="#F9F8FA"/>
<rect x="50" y="86" width="3" height="9" fill="#F9F8FA"/>
<rect x="56" y="89" width="3" height="9" transform="rotate(90 56 89)" fill="#F9F8FA"/>
<rect x="202" y="149" width="3" height="9" fill="#F9F8FA"/>
<rect x="208" y="152" width="3" height="9" transform="rotate(90 208 152)" fill="#F9F8FA"/>
<rect x="65" y="56" width="3" height="9" fill="#F9F8FA"/>
<rect x="71" y="59" width="3" height="9" transform="rotate(90 71 59)" fill="#F9F8FA"/>
<rect x="65" y="26" width="3" height="9" fill="#F9F8FA"/>
<rect x="71" y="29" width="3" height="9" transform="rotate(90 71 29)" fill="#F9F8FA"/>
<rect x="95" y="26" width="3" height="9" fill="#F9F8FA"/>
<rect x="101" y="29" width="3" height="9" transform="rotate(90 101 29)" fill="#F9F8FA"/>
<rect x="202" y="179" width="3" height="9" fill="#F9F8FA"/>
<rect x="208" y="182" width="3" height="9" transform="rotate(90 208 182)" fill="#F9F8FA"/>
<rect x="172" y="179" width="3" height="9" fill="#F9F8FA"/>
<rect x="178" y="182" width="3" height="9" transform="rotate(90 178 182)" fill="#F9F8FA"/>
<rect x="172" y="194" width="3" height="9" fill="#F9F8FA"/>
<rect x="178" y="197" width="3" height="9" transform="rotate(90 178 197)" fill="#F9F8FA"/>
<rect x="65" y="86" width="3" height="9" fill="#F9F8FA"/>
<rect x="71" y="89" width="3" height="9" transform="rotate(90 71 89)" fill="#F9F8FA"/>
<rect x="193" y="20" width="6" height="18" fill="#FEF2AC"/>
<rect x="205" y="26" width="6" height="18" transform="rotate(90 205 26)" fill="#FEF2AC"/>
</svg>
