<?xml version="1.0" encoding="utf-8"?>
<!-- Generator: Adobe Illustrator 25.2.1, SVG Export Plug-In . SVG Version: 6.00 Build 0)  -->
<svg version="1.1" id="Layer_1" xmlns="http://www.w3.org/2000/svg" xmlns:xlink="http://www.w3.org/1999/xlink" x="0px" y="0px"
	 viewBox="0 0 151 155" style="enable-background:new 0 0 151 155;" xml:space="preserve">
<style type="text/css">
	.st0{fill:none;}
	.st1{fill:#FDE143;}
	.st2{opacity:0.5;fill:#FDE143;}
</style>
<polygon class="st0" points="73.5,114.4 23,155 124,155 124,154.9 "/>
<polygon class="st1" points="43.2,43.3 103.8,43.3 103.8,63.6 124,47.1 124,23 23,23 23,78.5 43.2,62.1 "/>
<path class="st1" d="M124,155V75.5l-20.2,16.4v20.9L73.5,88.4c-7.2,5.8-23,18.5-30.3,24.4v-7.3L23,121.9V155l50.5-40.6L124,155z"/>
<polygon class="st1" points="43.2,70.5 23,86.9 23,93.6 43.2,77.2 "/>
<polygon class="st2" points="43.2,77.2 23,93.6 23,121.9 43.2,105.5 "/>
<polygon class="st2" points="43.2,62.1 23,78.5 23,86.9 43.2,70.5 "/>
<polygon class="st2" points="103.8,91.9 124,75.5 124,47.1 103.8,63.6 "/>
<path class="st2" d="M142.5,32L134,16l8.5-16l8.5,16L142.5,32z M140.8,16l1.7,3.2l1.7-3.2l-1.7-3.2L140.8,16z"/>
<path class="st2" d="M8.5,128L0,111.5L8.5,95l8.5,16.5L8.5,128z M6.8,111.5l1.8,3.4l1.8-3.4l-1.8-3.4L6.8,111.5z"/>
<polygon class="st2" points="133.5,39 130,32.5 133.5,26 137,32.5 "/>
</svg>
