<svg width="560" height="645" viewBox="0 0 560 645" fill="none" xmlns="http://www.w3.org/2000/svg">
<g filter="url(#filter0_d)">
<path d="M8 23C8 14.7157 14.7157 8 23 8H537C545.284 8 552 14.7157 552 23V622C552 630.284 545.284 637 537 637H23C14.7157 637 8 630.284 8 622V23Z" fill="white"/>
<path d="M8 22.7884C8 14.621 14.7157 8 23 8H537C545.284 8 552 14.621 552 22.7884V622.212C552 630.379 545.284 637 537 637H23C14.7157 637 8 630.379 8 622.212V22.7884Z" fill="white"/>
</g>
<circle cx="54" cy="194" r="18" fill="#1F2033" fill-opacity="0.05"/>
<path d="M42.426 96.038H45.946V98.348C45.088 98.964 44.032 99.316 42.998 99.316C40.424 99.316 38.246 97.072 38.246 94.432C38.246 91.814 40.424 89.57 42.998 89.57C44.384 89.57 45.858 90.23 46.76 91.264L49.114 89.152C47.596 87.568 45.264 86.622 42.998 86.622C38.62 86.622 34.902 90.186 34.902 94.432C34.902 98.678 38.62 102.264 42.998 102.264C45.264 102.264 47.596 101.318 49.114 99.734V93.508H42.426V96.038ZM51.9776 102H57.3896C62.4716 102 66.0796 98.854 66.0796 94.432C66.0796 90.01 62.4716 86.886 57.3896 86.886H51.9776V102ZM55.2116 99.052V89.834H57.8076C60.6896 89.834 62.7356 91.748 62.7356 94.432C62.7356 97.138 60.6896 99.052 57.8076 99.052H55.2116ZM68.5819 102H71.8159V97.094H75.3799C78.6579 97.094 81.0779 94.982 81.0779 91.99C81.0779 88.998 78.6579 86.886 75.3799 86.886H68.5819V102ZM71.8159 94.124V89.856H75.0279C76.6339 89.856 77.7339 90.692 77.7339 91.99C77.7339 93.288 76.6339 94.124 75.0279 94.124H71.8159ZM95.8874 102L92.1694 96.72C94.2374 95.994 95.6014 94.234 95.6014 91.99C95.6014 88.998 93.1814 86.886 89.9034 86.886H83.1054V102H86.3394V97.094H88.7374L92.1914 102H95.8874ZM86.3394 89.856H89.5514C91.1574 89.856 92.2574 90.692 92.2574 91.99C92.2574 93.288 91.1574 94.124 89.5514 94.124H86.3394V89.856ZM99.4895 105.212C101.074 103.694 101.822 102.308 101.822 101.01C101.822 99.404 100.964 98.26 99.7315 98.26C98.6315 98.26 97.7515 99.184 97.7515 100.284C97.7515 101.362 98.6315 102.264 99.6875 102.264C99.4895 102.968 99.0275 103.716 98.3455 104.332L99.4895 105.212ZM110.737 102H116.149C121.231 102 124.839 98.854 124.839 94.432C124.839 90.01 121.231 86.886 116.149 86.886H110.737V102ZM113.971 99.052V89.834H116.567C119.449 89.834 121.495 91.748 121.495 94.432C121.495 97.138 119.449 99.052 116.567 99.052H113.971ZM133.062 102.264C136.758 102.264 138.936 100.35 138.936 97.468C138.936 94.674 136.78 93.706 133.524 92.98C131.192 92.452 130.29 92.1 130.29 91C130.29 90.098 131.126 89.372 132.512 89.372C133.964 89.372 135.482 89.966 136.824 91.044L138.518 88.712C136.978 87.392 135.064 86.622 132.6 86.622C129.3 86.622 127.012 88.536 127.012 91.33C127.012 94.256 129.278 95.158 132.468 95.884C134.778 96.412 135.658 96.742 135.658 97.82C135.658 98.766 134.822 99.514 133.194 99.514C131.28 99.514 129.652 98.766 128.222 97.534L126.352 99.756C128.112 101.384 130.444 102.264 133.062 102.264ZM152.352 102H156.004L149.844 86.886H146.214L140.054 102H143.684L144.652 99.624H151.384L152.352 102ZM145.774 96.874L148.018 91.352L150.262 96.874H145.774ZM170.567 102L166.849 96.72C168.917 95.994 170.281 94.234 170.281 91.99C170.281 88.998 167.861 86.886 164.583 86.886H157.785V102H161.019V97.094H163.417L166.871 102H170.567ZM161.019 89.856H164.231C165.837 89.856 166.937 90.692 166.937 91.99C166.937 93.288 165.837 94.124 164.231 94.124H161.019V89.856ZM174.169 105.212C175.753 103.694 176.501 102.308 176.501 101.01C176.501 99.404 175.643 98.26 174.411 98.26C173.311 98.26 172.431 99.184 172.431 100.284C172.431 101.362 173.311 102.264 174.367 102.264C174.169 102.968 173.707 103.716 173.025 104.332L174.169 105.212ZM192.721 102.264C195.009 102.264 197.121 101.274 198.595 99.734L196.241 97.622C195.361 98.634 194.107 99.316 192.721 99.316C190.191 99.316 188.035 97.072 188.035 94.432C188.035 91.814 190.191 89.57 192.721 89.57C194.107 89.57 195.361 90.252 196.241 91.264L198.595 89.152C197.121 87.59 195.009 86.622 192.721 86.622C188.387 86.622 184.691 90.186 184.691 94.432C184.691 98.678 188.387 102.264 192.721 102.264ZM208.039 102.264C210.327 102.264 212.439 101.274 213.913 99.734L211.559 97.622C210.679 98.634 209.425 99.316 208.039 99.316C205.509 99.316 203.353 97.072 203.353 94.432C203.353 91.814 205.509 89.57 208.039 89.57C209.425 89.57 210.679 90.252 211.559 91.264L213.913 89.152C212.439 87.59 210.327 86.622 208.039 86.622C203.705 86.622 200.009 90.186 200.009 94.432C200.009 98.678 203.705 102.264 208.039 102.264ZM215.922 102H219.156V97.094H222.72C225.998 97.094 228.418 94.982 228.418 91.99C228.418 88.998 225.998 86.886 222.72 86.886H215.922V102ZM219.156 94.124V89.856H222.368C223.974 89.856 225.074 90.692 225.074 91.99C225.074 93.288 223.974 94.124 222.368 94.124H219.156ZM241.533 102H245.185L239.025 86.886H235.395L229.235 102H232.865L233.833 99.624H240.565L241.533 102ZM234.955 96.874L237.199 91.352L239.443 96.874H234.955ZM248.441 105.212C250.025 103.694 250.773 102.308 250.773 101.01C250.773 99.404 249.915 98.26 248.683 98.26C247.583 98.26 246.703 99.184 246.703 100.284C246.703 101.362 247.583 102.264 248.639 102.264C248.441 102.968 247.979 103.716 247.297 104.332L248.441 105.212ZM264.551 90.362C262.967 90.362 261.405 90.802 259.799 91.616L260.877 93.75C261.779 93.288 262.769 92.936 263.825 92.936C265.695 92.936 266.443 93.992 266.443 95.202V95.422C265.475 95.048 264.463 94.85 263.539 94.85C260.899 94.85 258.809 96.39 258.809 98.634C258.809 100.812 260.679 102.264 263.099 102.264C264.331 102.264 265.629 101.78 266.443 100.856V102H269.545V95.202C269.545 92.232 267.521 90.362 264.551 90.362ZM263.825 100.042C262.725 100.042 261.911 99.47 261.911 98.546C261.911 97.622 262.835 96.94 264.001 96.94C264.881 96.94 265.717 97.094 266.443 97.358V98.414C266.223 99.47 265.057 100.042 263.825 100.042ZM278.83 90.362C277.356 90.362 276.08 91.022 275.398 92.056V90.626H272.186V102H275.398V95.202L275.42 95.268C275.42 94.036 276.454 93.068 277.796 93.068C279.072 93.068 279.952 94.036 279.952 95.444V102H283.054V94.762C283.054 92.188 281.294 90.362 278.83 90.362ZM294.257 86.622V92.254C293.355 91.066 292.035 90.362 290.429 90.362C287.393 90.362 285.193 92.826 285.193 96.302C285.193 99.8 287.393 102.264 290.429 102.264C292.035 102.264 293.355 101.56 294.257 100.372V102H297.469V86.622H294.257ZM291.353 99.558C289.571 99.558 288.317 98.216 288.317 96.302C288.317 94.41 289.571 93.068 291.353 93.068C293.047 93.068 294.257 94.41 294.257 96.302C294.257 98.216 293.047 99.558 291.353 99.558ZM313.957 102.264C316.245 102.264 318.357 101.274 319.831 99.734L317.477 97.622C316.597 98.634 315.343 99.316 313.957 99.316C311.427 99.316 309.271 97.072 309.271 94.432C309.271 91.814 311.427 89.57 313.957 89.57C315.343 89.57 316.597 90.252 317.477 91.264L319.831 89.152C318.357 87.59 316.245 86.622 313.957 86.622C309.623 86.622 305.927 90.186 305.927 94.432C305.927 98.678 309.623 102.264 313.957 102.264ZM328.953 102.264C333.331 102.264 336.983 98.678 336.983 94.432C336.983 90.186 333.331 86.622 328.953 86.622C324.619 86.622 320.923 90.186 320.923 94.432C320.923 98.678 324.619 102.264 328.953 102.264ZM328.953 99.316C326.423 99.316 324.267 97.072 324.267 94.432C324.267 91.814 326.423 89.57 328.953 89.57C331.505 89.57 333.661 91.814 333.661 94.432C333.661 97.072 331.505 99.316 328.953 99.316ZM339.371 102H342.605V97.094H346.169C349.447 97.094 351.867 94.982 351.867 91.99C351.867 88.998 349.447 86.886 346.169 86.886H339.371V102ZM342.605 94.124V89.856H345.817C347.423 89.856 348.523 90.692 348.523 91.99C348.523 93.288 347.423 94.124 345.817 94.124H342.605ZM353.894 102H357.128V97.094H360.692C363.97 97.094 366.39 94.982 366.39 91.99C366.39 88.998 363.97 86.886 360.692 86.886H353.894V102ZM357.128 94.124V89.856H360.34C361.946 89.856 363.046 90.692 363.046 91.99C363.046 93.288 361.946 94.124 360.34 94.124H357.128ZM379.506 102H383.158L376.998 86.886H373.368L367.208 102H370.838L371.806 99.624H378.538L379.506 102ZM372.928 96.874L375.172 91.352L377.416 96.874H372.928ZM386.677 102.264C387.755 102.264 388.635 101.34 388.635 100.218C388.635 99.184 387.755 98.26 386.677 98.26C385.533 98.26 384.631 99.184 384.631 100.218C384.631 101.34 385.533 102.264 386.677 102.264ZM403.185 102.264C406.881 102.264 409.059 100.35 409.059 97.468C409.059 94.674 406.903 93.706 403.647 92.98C401.315 92.452 400.413 92.1 400.413 91C400.413 90.098 401.249 89.372 402.635 89.372C404.087 89.372 405.605 89.966 406.947 91.044L408.641 88.712C407.101 87.392 405.187 86.622 402.723 86.622C399.423 86.622 397.135 88.536 397.135 91.33C397.135 94.256 399.401 95.158 402.591 95.884C404.901 96.412 405.781 96.742 405.781 97.82C405.781 98.766 404.945 99.514 403.317 99.514C401.403 99.514 399.775 98.766 398.345 97.534L396.475 99.756C398.235 101.384 400.567 102.264 403.185 102.264ZM416.887 102.264C420.253 102.264 423.069 99.536 423.069 96.302C423.069 93.068 420.253 90.362 416.887 90.362C413.499 90.362 410.661 93.068 410.661 96.302C410.661 99.536 413.499 102.264 416.887 102.264ZM416.887 99.558C415.171 99.558 413.741 98.062 413.741 96.302C413.741 94.542 415.171 93.068 416.887 93.068C418.581 93.068 420.011 94.542 420.011 96.302C420.011 98.062 418.581 99.558 416.887 99.558ZM431.607 102H434.841V92.584L439.527 101.12L444.191 92.584V102H447.447V86.886H444.191L439.527 95.422L434.841 86.886H431.607V102ZM455.547 90.362C453.963 90.362 452.401 90.802 450.795 91.616L451.873 93.75C452.775 93.288 453.765 92.936 454.821 92.936C456.691 92.936 457.439 93.992 457.439 95.202V95.422C456.471 95.048 455.459 94.85 454.535 94.85C451.895 94.85 449.805 96.39 449.805 98.634C449.805 100.812 451.675 102.264 454.095 102.264C455.327 102.264 456.625 101.78 457.439 100.856V102H460.541V95.202C460.541 92.232 458.517 90.362 455.547 90.362ZM454.821 100.042C453.721 100.042 452.907 99.47 452.907 98.546C452.907 97.622 453.831 96.94 454.997 96.94C455.877 96.94 456.713 97.094 457.439 97.358V98.414C457.219 99.47 456.053 100.042 454.821 100.042ZM469.826 90.362C468.352 90.362 467.076 91.022 466.394 92.056V90.626H463.182V102H466.394V95.202L466.416 95.268C466.416 94.036 467.45 93.068 468.792 93.068C470.068 93.068 470.948 94.036 470.948 95.444V102H474.05V94.762C474.05 92.188 472.29 90.362 469.826 90.362ZM479.358 105.96C481.14 105.96 482.592 104.794 483.45 102.572L488.114 90.626H484.836L481.998 98.612L479.006 90.626H475.684L480.414 102.11L480.018 102.946C479.776 103.364 479.292 103.562 478.676 103.562C478.302 103.562 477.73 103.364 477.18 103.056L476.498 105.256C477.268 105.674 478.412 105.96 479.358 105.96ZM46.584 128H50.236L44.076 112.886H40.446L34.286 128H37.916L38.884 125.624H45.616L46.584 128ZM40.006 122.874L42.25 117.352L44.494 122.874H40.006ZM57.4955 128.264C59.3875 128.264 60.9275 127.494 62.0495 126.262L59.9155 124.458C59.3215 125.118 58.3975 125.558 57.5175 125.558C55.8235 125.558 54.4155 124.062 54.4155 122.28C54.4155 120.542 55.8235 119.068 57.4955 119.068C58.3755 119.068 59.2775 119.486 59.8495 120.124L61.9835 118.298C60.8835 117.11 59.3655 116.362 57.5175 116.362C54.1515 116.362 51.2915 119.068 51.2915 122.302C51.2915 125.536 54.1295 128.264 57.4955 128.264ZM67.1942 118.738V116.626H63.9822V128H67.1942V122.566C67.1942 120.432 68.7122 119.068 71.0882 119.068V116.362C69.3502 116.362 67.9422 117.264 67.1942 118.738ZM78.2714 128.264C81.6374 128.264 84.4534 125.536 84.4534 122.302C84.4534 119.068 81.6374 116.362 78.2714 116.362C74.8834 116.362 72.0454 119.068 72.0454 122.302C72.0454 125.536 74.8834 128.264 78.2714 128.264ZM78.2714 125.558C76.5554 125.558 75.1254 124.062 75.1254 122.302C75.1254 120.542 76.5554 119.068 78.2714 119.068C79.9654 119.068 81.3954 120.542 81.3954 122.302C81.3954 124.062 79.9654 125.558 78.2714 125.558ZM93.2048 116.362C91.7308 116.362 90.4548 117.022 89.7728 118.056V116.626H86.5608V128H89.7728V121.202L89.7948 121.268C89.7948 120.036 90.8288 119.068 92.1708 119.068C93.4468 119.068 94.3268 120.036 94.3268 121.444V128H97.4288V120.762C97.4288 118.188 95.6688 116.362 93.2048 116.362ZM102.736 131.96C104.518 131.96 105.97 130.794 106.828 128.572L111.492 116.626H108.214L105.376 124.612L102.384 116.626H99.0624L103.792 128.11L103.396 128.946C103.154 129.364 102.67 129.562 102.054 129.562C101.68 129.562 101.108 129.364 100.558 129.056L99.8764 131.256C100.646 131.674 101.79 131.96 102.736 131.96ZM126.883 116.362C125.189 116.362 123.781 117.176 123.187 118.43C122.483 117.154 121.141 116.362 119.579 116.362C118.171 116.362 117.049 117.044 116.499 118.122V116.626H113.287V128H116.499V121.136C116.499 119.926 117.401 119.068 118.699 119.068C119.865 119.068 120.701 119.992 120.701 121.312V128.022H123.781V121.136C123.781 119.926 124.705 119.068 125.981 119.068C127.169 119.068 128.005 119.992 128.005 121.312V128.022H131.085V120.762C131.085 118.188 129.259 116.362 126.883 116.362ZM138.053 128.264C140.847 128.264 142.673 126.834 142.673 124.59C142.673 122.104 140.495 121.444 138.537 120.938C136.997 120.52 136.535 120.344 136.535 119.728C136.535 119.332 137.085 119.046 137.877 119.046C138.845 119.046 140.033 119.42 141.067 120.058L142.365 117.77C141.111 116.934 139.505 116.362 137.877 116.362C135.193 116.362 133.411 117.902 133.433 120.058C133.455 122.302 135.259 122.94 137.591 123.512C138.757 123.82 139.593 124.04 139.593 124.744C139.593 125.25 138.977 125.602 138.119 125.602C136.601 125.602 135.325 125.052 134.313 124.326L132.927 126.548C134.291 127.648 136.227 128.264 138.053 128.264ZM145.752 122.676H147.93L148.656 112.886H145.026L145.752 122.676ZM146.83 128.264C147.908 128.264 148.788 127.34 148.788 126.218C148.788 125.184 147.908 124.26 146.83 124.26C145.686 124.26 144.784 125.184 144.784 126.218C144.784 127.34 145.686 128.264 146.83 128.264ZM160.953 125.074V112.886H157.697V128H168.477V125.074H160.953ZM175.848 125.426C174.506 125.426 173.516 124.59 173.142 123.358H181.348C181.348 119.068 179.258 116.362 175.694 116.362C172.372 116.362 169.842 118.848 169.842 122.28C169.842 125.778 172.482 128.264 175.87 128.264C177.542 128.264 179.5 127.56 180.512 126.504L178.466 124.414C177.85 125.008 176.75 125.426 175.848 125.426ZM175.826 119.2C177.124 119.2 177.96 119.926 178.268 121.048H173.186C173.604 119.904 174.616 119.2 175.826 119.2ZM188.603 116.362C187.019 116.362 185.457 116.802 183.851 117.616L184.929 119.75C185.831 119.288 186.821 118.936 187.877 118.936C189.747 118.936 190.495 119.992 190.495 121.202V121.422C189.527 121.048 188.515 120.85 187.591 120.85C184.951 120.85 182.861 122.39 182.861 124.634C182.861 126.812 184.731 128.264 187.151 128.264C188.383 128.264 189.681 127.78 190.495 126.856V128H193.597V121.202C193.597 118.232 191.573 116.362 188.603 116.362ZM187.877 126.042C186.777 126.042 185.963 125.47 185.963 124.546C185.963 123.622 186.887 122.94 188.053 122.94C188.933 122.94 189.769 123.094 190.495 123.358V124.414C190.275 125.47 189.109 126.042 187.877 126.042ZM199.516 118.738V116.626H196.304V128H199.516V122.566C199.516 120.432 201.034 119.068 203.41 119.068V116.362C201.672 116.362 200.264 117.264 199.516 118.738ZM211.841 116.362C210.367 116.362 209.091 117.022 208.409 118.056V116.626H205.197V128H208.409V121.202L208.431 121.268C208.431 120.036 209.465 119.068 210.807 119.068C212.083 119.068 212.963 120.036 212.963 121.444V128H216.065V120.762C216.065 118.188 214.305 116.362 211.841 116.362ZM225.142 128H228.376V118.584L233.062 127.12L237.726 118.584V128H240.982V112.886H237.726L233.062 121.422L228.376 112.886H225.142V128ZM249.588 128.264C252.954 128.264 255.77 125.536 255.77 122.302C255.77 119.068 252.954 116.362 249.588 116.362C246.2 116.362 243.362 119.068 243.362 122.302C243.362 125.536 246.2 128.264 249.588 128.264ZM249.588 125.558C247.872 125.558 246.442 124.062 246.442 122.302C246.442 120.542 247.872 119.068 249.588 119.068C251.282 119.068 252.712 120.542 252.712 122.302C252.712 124.062 251.282 125.558 249.588 125.558ZM257.437 128H267.381V125.272H261.617L267.337 118.892V116.626H257.591V119.354H263.157L257.437 125.734V128ZM271.258 115.064C272.204 115.064 272.974 114.272 272.974 113.304C272.974 112.402 272.204 111.588 271.258 111.588C270.268 111.588 269.498 112.402 269.498 113.304C269.498 114.272 270.268 115.064 271.258 115.064ZM269.63 128H272.842V116.626H269.63V128ZM275.646 128H278.858V112.622H275.646V128ZM281.662 128H284.874V112.622H281.662V128ZM292.76 116.362C291.176 116.362 289.614 116.802 288.008 117.616L289.086 119.75C289.988 119.288 290.978 118.936 292.034 118.936C293.904 118.936 294.652 119.992 294.652 121.202V121.422C293.684 121.048 292.672 120.85 291.748 120.85C289.108 120.85 287.018 122.39 287.018 124.634C287.018 126.812 288.888 128.264 291.308 128.264C292.54 128.264 293.838 127.78 294.652 126.856V128H297.754V121.202C297.754 118.232 295.73 116.362 292.76 116.362ZM292.034 126.042C290.934 126.042 290.12 125.47 290.12 124.546C290.12 123.622 291.044 122.94 292.21 122.94C293.09 122.94 293.926 123.094 294.652 123.358V124.414C294.432 125.47 293.266 126.042 292.034 126.042ZM301.451 119.332H302.727C303.211 117.704 303.761 115.68 303.761 114.47C303.761 113.524 302.991 112.754 302.089 112.754C301.187 112.754 300.417 113.524 300.417 114.47C300.417 115.68 300.967 117.704 301.451 119.332ZM310.809 128.264C313.603 128.264 315.429 126.834 315.429 124.59C315.429 122.104 313.251 121.444 311.293 120.938C309.753 120.52 309.291 120.344 309.291 119.728C309.291 119.332 309.841 119.046 310.633 119.046C311.601 119.046 312.789 119.42 313.823 120.058L315.121 117.77C313.867 116.934 312.261 116.362 310.633 116.362C307.949 116.362 306.167 117.902 306.189 120.058C306.211 122.302 308.015 122.94 310.347 123.512C311.513 123.82 312.349 124.04 312.349 124.744C312.349 125.25 311.733 125.602 310.875 125.602C309.357 125.602 308.081 125.052 307.069 124.326L305.683 126.548C307.047 127.648 308.983 128.264 310.809 128.264ZM335.454 115.812V112.886H323.816V128H327.072V122.016H334.662V119.09H327.072V115.812H335.454ZM340.884 118.738V116.626H337.672V128H340.884V122.566C340.884 120.432 342.402 119.068 344.778 119.068V116.362C343.04 116.362 341.632 117.264 340.884 118.738ZM351.713 116.362C350.129 116.362 348.567 116.802 346.961 117.616L348.039 119.75C348.941 119.288 349.931 118.936 350.987 118.936C352.857 118.936 353.605 119.992 353.605 121.202V121.422C352.637 121.048 351.625 120.85 350.701 120.85C348.061 120.85 345.971 122.39 345.971 124.634C345.971 126.812 347.841 128.264 350.261 128.264C351.493 128.264 352.791 127.78 353.605 126.856V128H356.707V121.202C356.707 118.232 354.683 116.362 351.713 116.362ZM350.987 126.042C349.887 126.042 349.073 125.47 349.073 124.546C349.073 123.622 349.997 122.94 351.163 122.94C352.043 122.94 352.879 123.094 353.605 123.358V124.414C353.385 125.47 352.219 126.042 350.987 126.042ZM372.944 116.362C371.25 116.362 369.842 117.176 369.248 118.43C368.544 117.154 367.202 116.362 365.64 116.362C364.232 116.362 363.11 117.044 362.56 118.122V116.626H359.348V128H362.56V121.136C362.56 119.926 363.462 119.068 364.76 119.068C365.926 119.068 366.762 119.992 366.762 121.312V128.022H369.842V121.136C369.842 119.926 370.766 119.068 372.042 119.068C373.23 119.068 374.066 119.992 374.066 121.312V128.022H377.146V120.762C377.146 118.188 375.32 116.362 372.944 116.362ZM385.214 125.426C383.872 125.426 382.882 124.59 382.508 123.358H390.714C390.714 119.068 388.624 116.362 385.06 116.362C381.738 116.362 379.208 118.848 379.208 122.28C379.208 125.778 381.848 128.264 385.236 128.264C386.908 128.264 388.866 127.56 389.878 126.504L387.832 124.414C387.216 125.008 386.116 125.426 385.214 125.426ZM385.192 119.2C386.49 119.2 387.326 119.926 387.634 121.048H382.552C382.97 119.904 383.982 119.2 385.192 119.2ZM395.209 128H398.091L400.225 120.85L402.337 128H405.219L409.091 116.626H405.945L403.789 123.71L401.545 116.626H398.883L396.639 123.71L394.483 116.626H391.337L395.209 128ZM415.898 128.264C419.264 128.264 422.08 125.536 422.08 122.302C422.08 119.068 419.264 116.362 415.898 116.362C412.51 116.362 409.672 119.068 409.672 122.302C409.672 125.536 412.51 128.264 415.898 128.264ZM415.898 125.558C414.182 125.558 412.752 124.062 412.752 122.302C412.752 120.542 414.182 119.068 415.898 119.068C417.592 119.068 419.022 120.542 419.022 122.302C419.022 124.062 417.592 125.558 415.898 125.558ZM427.466 118.738V116.626H424.254V128H427.466V122.566C427.466 120.432 428.984 119.068 431.36 119.068V116.362C429.622 116.362 428.214 117.264 427.466 118.738ZM444.279 116.626H440.583L436.359 121.532V112.622H433.147V128H436.359V125.206L437.723 123.732L440.539 128H444.235L439.857 121.664L444.279 116.626ZM455.93 128H459.186V115.812H463.894V112.886H451.222V115.812H455.93V128ZM471.564 128.264C474.93 128.264 477.746 125.536 477.746 122.302C477.746 119.068 474.93 116.362 471.564 116.362C468.176 116.362 465.338 119.068 465.338 122.302C465.338 125.536 468.176 128.264 471.564 128.264ZM471.564 125.558C469.848 125.558 468.418 124.062 468.418 122.302C468.418 120.542 469.848 119.068 471.564 119.068C473.258 119.068 474.688 120.542 474.688 122.302C474.688 124.062 473.258 125.558 471.564 125.558ZM45.616 138.886V144.826H38.73V138.886H35.496V154H38.73V147.752H45.616V154H48.85V138.886H45.616ZM56.8396 142.362C55.2556 142.362 53.6936 142.802 52.0876 143.616L53.1656 145.75C54.0676 145.288 55.0576 144.936 56.1136 144.936C57.9836 144.936 58.7316 145.992 58.7316 147.202V147.422C57.7636 147.048 56.7516 146.85 55.8276 146.85C53.1876 146.85 51.0976 148.39 51.0976 150.634C51.0976 152.812 52.9676 154.264 55.3876 154.264C56.6196 154.264 57.9176 153.78 58.7316 152.856V154H61.8336V147.202C61.8336 144.232 59.8096 142.362 56.8396 142.362ZM56.1136 152.042C55.0136 152.042 54.1996 151.47 54.1996 150.546C54.1996 149.622 55.1236 148.94 56.2896 148.94C57.1696 148.94 58.0056 149.094 58.7316 149.358V150.414C58.5116 151.47 57.3456 152.042 56.1136 152.042ZM71.1188 142.362C69.6448 142.362 68.3688 143.022 67.6868 144.056V142.626H64.4748V154H67.6868V147.202L67.7088 147.268C67.7088 146.036 68.7428 145.068 70.0848 145.068C71.3608 145.068 72.2408 146.036 72.2408 147.444V154H75.3428V146.762C75.3428 144.188 73.5828 142.362 71.1188 142.362ZM86.5465 138.622V144.254C85.6445 143.066 84.3245 142.362 82.7185 142.362C79.6825 142.362 77.4825 144.826 77.4825 148.302C77.4825 151.8 79.6825 154.264 82.7185 154.264C84.3245 154.264 85.6445 153.56 86.5465 152.372V154H89.7585V138.622H86.5465ZM83.6425 151.558C81.8605 151.558 80.6065 150.216 80.6065 148.302C80.6065 146.41 81.8605 145.068 83.6425 145.068C85.3365 145.068 86.5465 146.41 86.5465 148.302C86.5465 150.216 85.3365 151.558 83.6425 151.558ZM92.5779 154H95.7899V138.622H92.5779V154ZM103.962 151.426C102.62 151.426 101.63 150.59 101.256 149.358H109.462C109.462 145.068 107.372 142.362 103.808 142.362C100.486 142.362 97.9555 144.848 97.9555 148.28C97.9555 151.778 100.596 154.264 103.984 154.264C105.656 154.264 107.614 153.56 108.626 152.504L106.58 150.414C105.964 151.008 104.864 151.426 103.962 151.426ZM103.94 145.2C105.238 145.2 106.074 145.926 106.382 147.048H101.3C101.718 145.904 102.73 145.2 103.94 145.2ZM117.867 154H121.101V149.094H124.665C127.943 149.094 130.363 146.982 130.363 143.99C130.363 140.998 127.943 138.886 124.665 138.886H117.867V154ZM121.101 146.124V141.856H124.313C125.919 141.856 127.019 142.692 127.019 143.99C127.019 145.288 125.919 146.124 124.313 146.124H121.101ZM135.515 144.738V142.626H132.303V154H135.515V148.566C135.515 146.432 137.033 145.068 139.409 145.068V142.362C137.671 142.362 136.263 143.264 135.515 144.738ZM142.868 141.064C143.814 141.064 144.584 140.272 144.584 139.304C144.584 138.402 143.814 137.588 142.868 137.588C141.878 137.588 141.108 138.402 141.108 139.304C141.108 140.272 141.878 141.064 142.868 141.064ZM141.24 154H144.452V142.626H141.24V154ZM151.062 154H154.032L158.894 142.626H155.55L152.558 150.304L149.5 142.626H146.134L151.062 154ZM164.928 142.362C163.344 142.362 161.782 142.802 160.176 143.616L161.254 145.75C162.156 145.288 163.146 144.936 164.202 144.936C166.072 144.936 166.82 145.992 166.82 147.202V147.422C165.852 147.048 164.84 146.85 163.916 146.85C161.276 146.85 159.186 148.39 159.186 150.634C159.186 152.812 161.056 154.264 163.476 154.264C164.708 154.264 166.006 153.78 166.82 152.856V154H169.922V147.202C169.922 144.232 167.898 142.362 164.928 142.362ZM164.202 152.042C163.102 152.042 162.288 151.47 162.288 150.546C162.288 149.622 163.212 148.94 164.378 148.94C165.258 148.94 166.094 149.094 166.82 149.358V150.414C166.6 151.47 165.434 152.042 164.202 152.042ZM178.195 154.264C180.087 154.264 181.627 153.494 182.749 152.262L180.615 150.458C180.021 151.118 179.097 151.558 178.217 151.558C176.523 151.558 175.115 150.062 175.115 148.28C175.115 146.542 176.523 145.068 178.195 145.068C179.075 145.068 179.977 145.486 180.549 146.124L182.683 144.298C181.583 143.11 180.065 142.362 178.217 142.362C174.851 142.362 171.991 145.068 171.991 148.302C171.991 151.536 174.829 154.264 178.195 154.264ZM187.277 157.96C189.059 157.96 190.511 156.794 191.369 154.572L196.033 142.626H192.755L189.917 150.612L186.925 142.626H183.603L188.333 154.11L187.937 154.946C187.695 155.364 187.211 155.562 186.595 155.562C186.221 155.562 185.649 155.364 185.099 155.056L184.417 157.256C185.187 157.674 186.331 157.96 187.277 157.96ZM207.273 151.074V138.886H204.017V154H214.797V151.074H207.273ZM221.883 142.362C220.299 142.362 218.737 142.802 217.131 143.616L218.209 145.75C219.111 145.288 220.101 144.936 221.157 144.936C223.027 144.936 223.775 145.992 223.775 147.202V147.422C222.807 147.048 221.795 146.85 220.871 146.85C218.231 146.85 216.141 148.39 216.141 150.634C216.141 152.812 218.011 154.264 220.431 154.264C221.663 154.264 222.961 153.78 223.775 152.856V154H226.877V147.202C226.877 144.232 224.853 142.362 221.883 142.362ZM221.157 152.042C220.057 152.042 219.243 151.47 219.243 150.546C219.243 149.622 220.167 148.94 221.333 148.94C222.213 148.94 223.049 149.094 223.775 149.358V150.414C223.555 151.47 222.389 152.042 221.157 152.042ZM232.444 154H235.326L237.46 146.85L239.572 154H242.454L246.326 142.626H243.18L241.024 149.71L238.78 142.626H236.118L233.874 149.71L231.718 142.626H228.572L232.444 154ZM252.35 154.264C255.144 154.264 256.97 152.834 256.97 150.59C256.97 148.104 254.792 147.444 252.834 146.938C251.294 146.52 250.832 146.344 250.832 145.728C250.832 145.332 251.382 145.046 252.174 145.046C253.142 145.046 254.33 145.42 255.364 146.058L256.662 143.77C255.408 142.934 253.802 142.362 252.174 142.362C249.49 142.362 247.708 143.902 247.73 146.058C247.752 148.302 249.556 148.94 251.888 149.512C253.054 149.82 253.89 150.04 253.89 150.744C253.89 151.25 253.274 151.602 252.416 151.602C250.898 151.602 249.622 151.052 248.61 150.326L247.224 152.548C248.588 153.648 250.524 154.264 252.35 154.264Z" fill="#5B3CC2"/>
<path d="M36.84 67H38.616V58.756H36.84V67ZM41.7133 67H43.4773V61.672L47.4493 67H49.2253V58.756H47.4493V64.084L43.4773 58.756H41.7133V67ZM54.4503 67H56.2263V60.352H58.7943V58.756H51.8823V60.352H54.4503V67ZM67.7063 60.352V58.756H61.3583V67H67.7063V65.404H63.1343V63.592H67.2743V61.996H63.1343V60.352H67.7063ZM77.3978 67L75.3698 64.12C76.4978 63.724 77.2418 62.764 77.2418 61.54C77.2418 59.908 75.9218 58.756 74.1338 58.756H70.4258V67H72.1898V64.324H73.4978L75.3818 67H77.3978ZM72.1898 60.376H73.9418C74.8178 60.376 75.4178 60.832 75.4178 61.54C75.4178 62.248 74.8178 62.704 73.9418 62.704H72.1898V60.376ZM80.0107 67H81.7747V61.672L85.7467 67H87.5227V58.756H85.7467V64.084L81.7747 58.756H80.0107V67ZM96.9596 60.352V58.756H90.6116V67H96.9596V65.404H92.3876V63.592H96.5276V61.996H92.3876V60.352H96.9596ZM101.815 67H103.591V60.352H106.159V58.756H99.2471V60.352H101.815V67ZM115.171 65.404V58.756H113.395V67H119.275V65.404H115.171ZM127.844 67H129.836L126.476 58.756H124.496L121.136 67H123.116L123.644 65.704H127.316L127.844 67ZM124.256 64.204L125.48 61.192L126.704 64.204H124.256ZM133.627 67H135.415L137.371 61.336L139.315 67H141.091L143.587 58.756H141.667L140.143 64.288L138.319 58.756H136.399L134.575 64.288L133.051 58.756H131.131L133.627 67Z" fill="#1AB8EC"/>
<line x1="36.0021" y1="229.5" x2="524.002" y2="231.508" stroke="#1F2033" stroke-opacity="0.05"/>
<path d="M8 23C8 14.7157 14.7157 8 23 8H537C545.284 8 552 14.7157 552 23V36H8V23Z" fill="#5B3CC2"/>
<rect x="98" y="181" width="151" height="9" fill="#1F2033" fill-opacity="0.05"/>
<rect x="98" y="199" width="236" height="9" fill="#1F2033" fill-opacity="0.05"/>
<rect x="36" y="425" width="488" height="9" fill="#1F2033" fill-opacity="0.05"/>
<rect x="36" y="569" width="488" height="9" fill="#1F2033" fill-opacity="0.05"/>
<rect x="36" y="497" width="488" height="9" fill="#1F2033" fill-opacity="0.05"/>
<rect x="36" y="461" width="488" height="9" fill="#1F2033" fill-opacity="0.05"/>
<rect x="36" y="605" width="242" height="9" fill="#1F2033" fill-opacity="0.05"/>
<rect x="36" y="533" width="488" height="9" fill="#1F2033" fill-opacity="0.05"/>
<rect x="36" y="443" width="488" height="9" fill="#1F2033" fill-opacity="0.05"/>
<rect x="36" y="587" width="488" height="9" fill="#1F2033" fill-opacity="0.05"/>
<rect x="36" y="515" width="488" height="9" fill="#1F2033" fill-opacity="0.05"/>
<rect x="36" y="479" width="488" height="9" fill="#1F2033" fill-opacity="0.05"/>
<rect x="36" y="551" width="488" height="9" fill="#1F2033" fill-opacity="0.05"/>
<rect x="36" y="250" width="488" height="157" fill="url(#paint0_linear)"/>
<path d="M48.8828 196.488H45.901L48.0536 194.362H44.347L46.4937 192.243H43C43.0778 192.153 43.118 192.101 43.164 192.055C44.406 190.829 45.6297 189.583 46.8959 188.382C48.4087 186.945 50.2452 186.107 52.4208 186.003C52.8767 185.982 53.3479 186.074 53.7991 186.168C54.3013 186.276 54.7959 186.413 55.2799 186.578C55.8791 186.777 56.4771 186.792 57.0934 186.677C57.5487 186.591 58.0082 186.592 58.4499 186.747C59.1487 186.991 59.5964 187.447 59.7108 188.143C59.8069 188.727 60.1236 189.156 60.6951 189.396C61.417 189.7 62.153 189.976 62.8849 190.26C63.2776 190.412 63.6763 190.551 64.0685 190.705C64.5993 190.913 64.9431 191.254 64.9531 191.827C64.9643 192.434 65.0298 193.045 64.9838 193.649C64.9378 194.252 64.555 194.759 64.2313 195.272C64.0962 195.486 63.8532 195.54 63.5967 195.566C63.4451 195.582 63.2983 195.625 63.1644 195.693C62.9138 195.822 62.6737 195.968 62.4366 196.118C61.9648 196.415 61.4677 196.432 60.9345 196.283C60.4256 196.143 59.9125 195.986 59.3894 195.931C58.8708 195.869 58.3451 195.882 57.8306 195.968C56.6871 196.182 56.0814 196.945 55.908 197.957C55.7246 199.032 55.6532 200.123 55.5542 201.209C55.5005 201.792 55.4905 202.379 55.4592 203C55.2233 202.94 55.0045 202.89 54.791 202.827C52.2002 202.052 49.9827 200.71 48.0536 198.934C47.9439 198.833 47.9504 198.752 47.9994 198.635C48.2919 197.933 48.5785 197.23 48.8828 196.488Z" fill="url(#paint1_linear)"/>
<path d="M285.5 251H179H128L285.5 407H443L285.5 251Z" fill="white" fill-opacity="0.1"/>
<path d="M482.5 407L329 252H364.5L518 407H482.5Z" fill="white" fill-opacity="0.1"/>
<path d="M52.774 265.926H49.57V262.65H47.302V265.926H44.08V268.068H47.302V271.344H49.57V268.068H52.774V265.926ZM68.647 265.926H65.443V262.65H63.175V265.926H59.953V268.068H63.175V271.344H65.443V268.068H68.647V265.926ZM84.5201 265.926H81.3161V262.65H79.0481V265.926H75.8261V268.068H79.0481V271.344H81.3161V268.068H84.5201V265.926ZM100.393 265.926H97.1891V262.65H94.9211V265.926H91.6991V268.068H94.9211V271.344H97.1891V268.068H100.393V265.926ZM116.266 265.926H113.062V262.65H110.794V265.926H107.572V268.068H110.794V271.344H113.062V268.068H116.266V265.926ZM132.139 265.926H128.935V262.65H126.667V265.926H123.445V268.068H126.667V271.344H128.935V268.068H132.139V265.926ZM148.012 265.926H144.808V262.65H142.54V265.926H139.318V268.068H142.54V271.344H144.808V268.068H148.012V265.926ZM163.885 265.926H160.681V262.65H158.413V265.926H155.191V268.068H158.413V271.344H160.681V268.068H163.885V265.926ZM52.774 283.926H49.57V280.65H47.302V283.926H44.08V286.068H47.302V289.344H49.57V286.068H52.774V283.926ZM68.647 283.926H65.443V280.65H63.175V283.926H59.953V286.068H63.175V289.344H65.443V286.068H68.647V283.926ZM84.5201 283.926H81.3161V280.65H79.0481V283.926H75.8261V286.068H79.0481V289.344H81.3161V286.068H84.5201V283.926ZM100.393 283.926H97.1891V280.65H94.9211V283.926H91.6991V286.068H94.9211V289.344H97.1891V286.068H100.393V283.926ZM116.266 283.926H113.062V280.65H110.794V283.926H107.572V286.068H110.794V289.344H113.062V286.068H116.266V283.926ZM132.139 283.926H128.935V280.65H126.667V283.926H123.445V286.068H126.667V289.344H128.935V286.068H132.139V283.926ZM148.012 283.926H144.808V280.65H142.54V283.926H139.318V286.068H142.54V289.344H144.808V286.068H148.012V283.926ZM163.885 283.926H160.681V280.65H158.413V283.926H155.191V286.068H158.413V289.344H160.681V286.068H163.885V283.926ZM52.774 301.926H49.57V298.65H47.302V301.926H44.08V304.068H47.302V307.344H49.57V304.068H52.774V301.926ZM68.647 301.926H65.443V298.65H63.175V301.926H59.953V304.068H63.175V307.344H65.443V304.068H68.647V301.926ZM84.5201 301.926H81.3161V298.65H79.0481V301.926H75.8261V304.068H79.0481V307.344H81.3161V304.068H84.5201V301.926ZM100.393 301.926H97.1891V298.65H94.9211V301.926H91.6991V304.068H94.9211V307.344H97.1891V304.068H100.393V301.926ZM116.266 301.926H113.062V298.65H110.794V301.926H107.572V304.068H110.794V307.344H113.062V304.068H116.266V301.926ZM132.139 301.926H128.935V298.65H126.667V301.926H123.445V304.068H126.667V307.344H128.935V304.068H132.139V301.926ZM148.012 301.926H144.808V298.65H142.54V301.926H139.318V304.068H142.54V307.344H144.808V304.068H148.012V301.926ZM163.885 301.926H160.681V298.65H158.413V301.926H155.191V304.068H158.413V307.344H160.681V304.068H163.885V301.926ZM52.774 319.926H49.57V316.65H47.302V319.926H44.08V322.068H47.302V325.344H49.57V322.068H52.774V319.926ZM68.647 319.926H65.443V316.65H63.175V319.926H59.953V322.068H63.175V325.344H65.443V322.068H68.647V319.926ZM84.5201 319.926H81.3161V316.65H79.0481V319.926H75.8261V322.068H79.0481V325.344H81.3161V322.068H84.5201V319.926ZM100.393 319.926H97.1891V316.65H94.9211V319.926H91.6991V322.068H94.9211V325.344H97.1891V322.068H100.393V319.926ZM116.266 319.926H113.062V316.65H110.794V319.926H107.572V322.068H110.794V325.344H113.062V322.068H116.266V319.926ZM132.139 319.926H128.935V316.65H126.667V319.926H123.445V322.068H126.667V325.344H128.935V322.068H132.139V319.926ZM148.012 319.926H144.808V316.65H142.54V319.926H139.318V322.068H142.54V325.344H144.808V322.068H148.012V319.926ZM163.885 319.926H160.681V316.65H158.413V319.926H155.191V322.068H158.413V325.344H160.681V322.068H163.885V319.926ZM52.774 337.926H49.57V334.65H47.302V337.926H44.08V340.068H47.302V343.344H49.57V340.068H52.774V337.926ZM68.647 337.926H65.443V334.65H63.175V337.926H59.953V340.068H63.175V343.344H65.443V340.068H68.647V337.926ZM84.5201 337.926H81.3161V334.65H79.0481V337.926H75.8261V340.068H79.0481V343.344H81.3161V340.068H84.5201V337.926ZM100.393 337.926H97.1891V334.65H94.9211V337.926H91.6991V340.068H94.9211V343.344H97.1891V340.068H100.393V337.926ZM116.266 337.926H113.062V334.65H110.794V337.926H107.572V340.068H110.794V343.344H113.062V340.068H116.266V337.926ZM132.139 337.926H128.935V334.65H126.667V337.926H123.445V340.068H126.667V343.344H128.935V340.068H132.139V337.926ZM148.012 337.926H144.808V334.65H142.54V337.926H139.318V340.068H142.54V343.344H144.808V340.068H148.012V337.926ZM163.885 337.926H160.681V334.65H158.413V337.926H155.191V340.068H158.413V343.344H160.681V340.068H163.885V337.926ZM52.774 355.926H49.57V352.65H47.302V355.926H44.08V358.068H47.302V361.344H49.57V358.068H52.774V355.926ZM68.647 355.926H65.443V352.65H63.175V355.926H59.953V358.068H63.175V361.344H65.443V358.068H68.647V355.926ZM84.5201 355.926H81.3161V352.65H79.0481V355.926H75.8261V358.068H79.0481V361.344H81.3161V358.068H84.5201V355.926ZM100.393 355.926H97.1891V352.65H94.9211V355.926H91.6991V358.068H94.9211V361.344H97.1891V358.068H100.393V355.926ZM116.266 355.926H113.062V352.65H110.794V355.926H107.572V358.068H110.794V361.344H113.062V358.068H116.266V355.926ZM132.139 355.926H128.935V352.65H126.667V355.926H123.445V358.068H126.667V361.344H128.935V358.068H132.139V355.926ZM148.012 355.926H144.808V352.65H142.54V355.926H139.318V358.068H142.54V361.344H144.808V358.068H148.012V355.926ZM163.885 355.926H160.681V352.65H158.413V355.926H155.191V358.068H158.413V361.344H160.681V358.068H163.885V355.926ZM52.774 373.926H49.57V370.65H47.302V373.926H44.08V376.068H47.302V379.344H49.57V376.068H52.774V373.926ZM68.647 373.926H65.443V370.65H63.175V373.926H59.953V376.068H63.175V379.344H65.443V376.068H68.647V373.926ZM84.5201 373.926H81.3161V370.65H79.0481V373.926H75.8261V376.068H79.0481V379.344H81.3161V376.068H84.5201V373.926ZM100.393 373.926H97.1891V370.65H94.9211V373.926H91.6991V376.068H94.9211V379.344H97.1891V376.068H100.393V373.926ZM116.266 373.926H113.062V370.65H110.794V373.926H107.572V376.068H110.794V379.344H113.062V376.068H116.266V373.926ZM132.139 373.926H128.935V370.65H126.667V373.926H123.445V376.068H126.667V379.344H128.935V376.068H132.139V373.926ZM148.012 373.926H144.808V370.65H142.54V373.926H139.318V376.068H142.54V379.344H144.808V376.068H148.012V373.926ZM163.885 373.926H160.681V370.65H158.413V373.926H155.191V376.068H158.413V379.344H160.681V376.068H163.885V373.926Z" fill="white" fill-opacity="0.22"/>
<path d="M405.774 282.926H402.57V279.65H400.302V282.926H397.08V285.068H400.302V288.344H402.57V285.068H405.774V282.926ZM421.647 282.926H418.443V279.65H416.175V282.926H412.953V285.068H416.175V288.344H418.443V285.068H421.647V282.926ZM437.52 282.926H434.316V279.65H432.048V282.926H428.826V285.068H432.048V288.344H434.316V285.068H437.52V282.926ZM453.393 282.926H450.189V279.65H447.921V282.926H444.699V285.068H447.921V288.344H450.189V285.068H453.393V282.926ZM469.266 282.926H466.062V279.65H463.794V282.926H460.572V285.068H463.794V288.344H466.062V285.068H469.266V282.926ZM485.139 282.926H481.935V279.65H479.667V282.926H476.445V285.068H479.667V288.344H481.935V285.068H485.139V282.926ZM501.012 282.926H497.808V279.65H495.54V282.926H492.318V285.068H495.54V288.344H497.808V285.068H501.012V282.926ZM516.885 282.926H513.681V279.65H511.413V282.926H508.191V285.068H511.413V288.344H513.681V285.068H516.885V282.926ZM405.774 300.926H402.57V297.65H400.302V300.926H397.08V303.068H400.302V306.344H402.57V303.068H405.774V300.926ZM421.647 300.926H418.443V297.65H416.175V300.926H412.953V303.068H416.175V306.344H418.443V303.068H421.647V300.926ZM437.52 300.926H434.316V297.65H432.048V300.926H428.826V303.068H432.048V306.344H434.316V303.068H437.52V300.926ZM453.393 300.926H450.189V297.65H447.921V300.926H444.699V303.068H447.921V306.344H450.189V303.068H453.393V300.926ZM469.266 300.926H466.062V297.65H463.794V300.926H460.572V303.068H463.794V306.344H466.062V303.068H469.266V300.926ZM485.139 300.926H481.935V297.65H479.667V300.926H476.445V303.068H479.667V306.344H481.935V303.068H485.139V300.926ZM501.012 300.926H497.808V297.65H495.54V300.926H492.318V303.068H495.54V306.344H497.808V303.068H501.012V300.926ZM516.885 300.926H513.681V297.65H511.413V300.926H508.191V303.068H511.413V306.344H513.681V303.068H516.885V300.926ZM405.774 318.926H402.57V315.65H400.302V318.926H397.08V321.068H400.302V324.344H402.57V321.068H405.774V318.926ZM421.647 318.926H418.443V315.65H416.175V318.926H412.953V321.068H416.175V324.344H418.443V321.068H421.647V318.926ZM437.52 318.926H434.316V315.65H432.048V318.926H428.826V321.068H432.048V324.344H434.316V321.068H437.52V318.926ZM453.393 318.926H450.189V315.65H447.921V318.926H444.699V321.068H447.921V324.344H450.189V321.068H453.393V318.926ZM469.266 318.926H466.062V315.65H463.794V318.926H460.572V321.068H463.794V324.344H466.062V321.068H469.266V318.926ZM485.139 318.926H481.935V315.65H479.667V318.926H476.445V321.068H479.667V324.344H481.935V321.068H485.139V318.926ZM501.012 318.926H497.808V315.65H495.54V318.926H492.318V321.068H495.54V324.344H497.808V321.068H501.012V318.926ZM516.885 318.926H513.681V315.65H511.413V318.926H508.191V321.068H511.413V324.344H513.681V321.068H516.885V318.926ZM405.774 336.926H402.57V333.65H400.302V336.926H397.08V339.068H400.302V342.344H402.57V339.068H405.774V336.926ZM421.647 336.926H418.443V333.65H416.175V336.926H412.953V339.068H416.175V342.344H418.443V339.068H421.647V336.926ZM437.52 336.926H434.316V333.65H432.048V336.926H428.826V339.068H432.048V342.344H434.316V339.068H437.52V336.926ZM453.393 336.926H450.189V333.65H447.921V336.926H444.699V339.068H447.921V342.344H450.189V339.068H453.393V336.926ZM469.266 336.926H466.062V333.65H463.794V336.926H460.572V339.068H463.794V342.344H466.062V339.068H469.266V336.926ZM485.139 336.926H481.935V333.65H479.667V336.926H476.445V339.068H479.667V342.344H481.935V339.068H485.139V336.926ZM501.012 336.926H497.808V333.65H495.54V336.926H492.318V339.068H495.54V342.344H497.808V339.068H501.012V336.926ZM516.885 336.926H513.681V333.65H511.413V336.926H508.191V339.068H511.413V342.344H513.681V339.068H516.885V336.926ZM405.774 354.926H402.57V351.65H400.302V354.926H397.08V357.068H400.302V360.344H402.57V357.068H405.774V354.926ZM421.647 354.926H418.443V351.65H416.175V354.926H412.953V357.068H416.175V360.344H418.443V357.068H421.647V354.926ZM437.52 354.926H434.316V351.65H432.048V354.926H428.826V357.068H432.048V360.344H434.316V357.068H437.52V354.926ZM453.393 354.926H450.189V351.65H447.921V354.926H444.699V357.068H447.921V360.344H450.189V357.068H453.393V354.926ZM469.266 354.926H466.062V351.65H463.794V354.926H460.572V357.068H463.794V360.344H466.062V357.068H469.266V354.926ZM485.139 354.926H481.935V351.65H479.667V354.926H476.445V357.068H479.667V360.344H481.935V357.068H485.139V354.926ZM501.012 354.926H497.808V351.65H495.54V354.926H492.318V357.068H495.54V360.344H497.808V357.068H501.012V354.926ZM516.885 354.926H513.681V351.65H511.413V354.926H508.191V357.068H511.413V360.344H513.681V357.068H516.885V354.926ZM405.774 372.926H402.57V369.65H400.302V372.926H397.08V375.068H400.302V378.344H402.57V375.068H405.774V372.926ZM421.647 372.926H418.443V369.65H416.175V372.926H412.953V375.068H416.175V378.344H418.443V375.068H421.647V372.926ZM437.52 372.926H434.316V369.65H432.048V372.926H428.826V375.068H432.048V378.344H434.316V375.068H437.52V372.926ZM453.393 372.926H450.189V369.65H447.921V372.926H444.699V375.068H447.921V378.344H450.189V375.068H453.393V372.926ZM469.266 372.926H466.062V369.65H463.794V372.926H460.572V375.068H463.794V378.344H466.062V375.068H469.266V372.926ZM485.139 372.926H481.935V369.65H479.667V372.926H476.445V375.068H479.667V378.344H481.935V375.068H485.139V372.926ZM501.012 372.926H497.808V369.65H495.54V372.926H492.318V375.068H495.54V378.344H497.808V375.068H501.012V372.926ZM516.885 372.926H513.681V369.65H511.413V372.926H508.191V375.068H511.413V378.344H513.681V375.068H516.885V372.926ZM405.774 390.926H402.57V387.65H400.302V390.926H397.08V393.068H400.302V396.344H402.57V393.068H405.774V390.926ZM421.647 390.926H418.443V387.65H416.175V390.926H412.953V393.068H416.175V396.344H418.443V393.068H421.647V390.926ZM437.52 390.926H434.316V387.65H432.048V390.926H428.826V393.068H432.048V396.344H434.316V393.068H437.52V390.926ZM453.393 390.926H450.189V387.65H447.921V390.926H444.699V393.068H447.921V396.344H450.189V393.068H453.393V390.926ZM469.266 390.926H466.062V387.65H463.794V390.926H460.572V393.068H463.794V396.344H466.062V393.068H469.266V390.926ZM485.139 390.926H481.935V387.65H479.667V390.926H476.445V393.068H479.667V396.344H481.935V393.068H485.139V390.926ZM501.012 390.926H497.808V387.65H495.54V390.926H492.318V393.068H495.54V396.344H497.808V393.068H501.012V390.926ZM516.885 390.926H513.681V387.65H511.413V390.926H508.191V393.068H511.413V396.344H513.681V393.068H516.885V390.926Z" fill="white" fill-opacity="0.22"/>
<defs>
<filter id="filter0_d" x="0" y="0" width="560" height="645" filterUnits="userSpaceOnUse" color-interpolation-filters="sRGB">
<feFlood flood-opacity="0" result="BackgroundImageFix"/>
<feColorMatrix in="SourceAlpha" type="matrix" values="0 0 0 0 0 0 0 0 0 0 0 0 0 0 0 0 0 0 127 0"/>
<feOffset/>
<feGaussianBlur stdDeviation="4"/>
<feColorMatrix type="matrix" values="0 0 0 0 0.12549 0 0 0 0 0.0666667 0 0 0 0 0.223529 0 0 0 0.1 0"/>
<feBlend mode="normal" in2="BackgroundImageFix" result="effect1_dropShadow"/>
<feBlend mode="normal" in="SourceGraphic" in2="effect1_dropShadow" result="shape"/>
</filter>
<linearGradient id="paint0_linear" x1="1550.5" y1="233.5" x2="46.5" y2="484.5" gradientUnits="userSpaceOnUse">
<stop offset="0.546875" stop-color="#51FDBD"/>
<stop offset="1" stop-color="#19D7E1"/>
</linearGradient>
<linearGradient id="paint1_linear" x1="111.277" y1="184.213" x2="41.9198" y2="189.032" gradientUnits="userSpaceOnUse">
<stop offset="0.546875" stop-color="#51FDBD"/>
<stop offset="1" stop-color="#19D7E1"/>
</linearGradient>
</defs>
</svg>
