<svg width="560" height="622" viewBox="0 0 560 622" fill="none" xmlns="http://www.w3.org/2000/svg">
<g filter="url(#filter0_d)">
<path d="M8 23C8 14.7157 14.7157 8 23 8H537C545.284 8 552 14.7157 552 23V599C552 607.284 545.284 614 537 614H23C14.7157 614 8 607.284 8 599V23Z" fill="white"/>
<path d="M8 22.2477C8 14.3789 14.7157 8 23 8H537C545.284 8 552 14.3789 552 22.2476V599.752C552 607.621 545.284 614 537 614H23C14.7157 614 8 607.621 8 599.752V22.2477Z" fill="white"/>
</g>
<circle cx="54" cy="167" r="18" fill="#1F2033" fill-opacity="0.05"/>
<path d="M35.628 102H41.04C46.122 102 49.73 98.854 49.73 94.432C49.73 90.01 46.122 86.886 41.04 86.886H35.628V102ZM38.862 99.052V89.834H41.458C44.34 89.834 46.386 91.748 46.386 94.432C46.386 97.138 44.34 99.052 41.458 99.052H38.862ZM57.7323 102.264C61.0983 102.264 63.9143 99.536 63.9143 96.302C63.9143 93.068 61.0983 90.362 57.7323 90.362C54.3443 90.362 51.5063 93.068 51.5063 96.302C51.5063 99.536 54.3443 102.264 57.7323 102.264ZM57.7323 99.558C56.0163 99.558 54.5863 98.062 54.5863 96.302C54.5863 94.542 56.0163 93.068 57.7323 93.068C59.4263 93.068 60.8563 94.542 60.8563 96.302C60.8563 98.062 59.4263 99.558 57.7323 99.558ZM72.6657 90.362C71.1917 90.362 69.9157 91.022 69.2337 92.056V90.626H66.0217V102H69.2337V95.202L69.2557 95.268C69.2557 94.036 70.2897 93.068 71.6317 93.068C72.9077 93.068 73.7877 94.036 73.7877 95.444V102H76.8897V94.762C76.8897 92.188 75.1297 90.362 72.6657 90.362ZM81.1634 93.706C82.7474 92.188 83.4954 90.802 83.4954 89.504C83.4954 87.898 82.6374 86.754 81.4054 86.754C80.3054 86.754 79.4254 87.678 79.4254 88.778C79.4254 89.856 80.3054 90.758 81.3614 90.758C81.1634 91.462 80.7014 92.21 80.0194 92.826L81.1634 93.706ZM92.0307 99.184C91.8107 99.404 91.3707 99.558 90.9307 99.558C90.3367 99.558 89.8527 99.03 89.8527 98.282V93.222H92.3167V90.626H89.8527V87.502H86.7727V90.626H85.2107V93.222H86.7727V98.788C86.7727 100.834 88.1807 102.264 90.1827 102.264C91.1067 102.264 92.1407 101.868 92.8007 101.274L92.0307 99.184ZM107.975 96.038H111.495V98.348C110.637 98.964 109.581 99.316 108.547 99.316C105.973 99.316 103.795 97.072 103.795 94.432C103.795 91.814 105.973 89.57 108.547 89.57C109.933 89.57 111.407 90.23 112.309 91.264L114.663 89.152C113.145 87.568 110.813 86.622 108.547 86.622C104.169 86.622 100.451 90.186 100.451 94.432C100.451 98.678 104.169 102.264 108.547 102.264C110.813 102.264 113.145 101.318 114.663 99.734V93.508H107.975V96.038ZM122.674 99.426C121.332 99.426 120.342 98.59 119.968 97.358H128.174C128.174 93.068 126.084 90.362 122.52 90.362C119.198 90.362 116.668 92.848 116.668 96.28C116.668 99.778 119.308 102.264 122.696 102.264C124.368 102.264 126.326 101.56 127.338 100.504L125.292 98.414C124.676 99.008 123.576 99.426 122.674 99.426ZM122.652 93.2C123.95 93.2 124.786 93.926 125.094 95.048H120.012C120.43 93.904 121.442 93.2 122.652 93.2ZM136.331 99.184C136.111 99.404 135.671 99.558 135.231 99.558C134.637 99.558 134.153 99.03 134.153 98.282V93.222H136.617V90.626H134.153V87.502H131.073V90.626H129.511V93.222H131.073V98.788C131.073 100.834 132.481 102.264 134.483 102.264C135.407 102.264 136.441 101.868 137.101 101.274L136.331 99.184ZM151.066 102.264C154.762 102.264 156.94 100.35 156.94 97.468C156.94 94.674 154.784 93.706 151.528 92.98C149.196 92.452 148.294 92.1 148.294 91C148.294 90.098 149.13 89.372 150.516 89.372C151.968 89.372 153.486 89.966 154.828 91.044L156.522 88.712C154.982 87.392 153.068 86.622 150.604 86.622C147.304 86.622 145.016 88.536 145.016 91.33C145.016 94.256 147.282 95.158 150.472 95.884C152.782 96.412 153.662 96.742 153.662 97.82C153.662 98.766 152.826 99.514 151.198 99.514C149.284 99.514 147.656 98.766 146.226 97.534L144.356 99.756C146.116 101.384 148.448 102.264 151.066 102.264ZM166.725 90.626V97.424L166.703 97.358C166.703 98.59 165.669 99.558 164.327 99.558C163.051 99.558 162.171 98.59 162.171 97.182V90.626H159.069V97.864C159.069 100.438 160.829 102.264 163.293 102.264C164.767 102.264 166.043 101.604 166.725 100.57V102H169.937V90.626H166.725ZM178.061 99.426C176.719 99.426 175.729 98.59 175.355 97.358H183.561C183.561 93.068 181.471 90.362 177.907 90.362C174.585 90.362 172.055 92.848 172.055 96.28C172.055 99.778 174.695 102.264 178.083 102.264C179.755 102.264 181.713 101.56 182.725 100.504L180.679 98.414C180.063 99.008 178.963 99.426 178.061 99.426ZM178.039 93.2C179.337 93.2 180.173 93.926 180.481 95.048H175.399C175.817 93.904 176.829 93.2 178.039 93.2ZM194.226 86.622V92.254C193.324 91.066 192.004 90.362 190.398 90.362C187.362 90.362 185.162 92.826 185.162 96.302C185.162 99.8 187.362 102.264 190.398 102.264C192.004 102.264 193.324 101.56 194.226 100.372V102H197.438V86.622H194.226ZM191.322 99.558C189.54 99.558 188.286 98.216 188.286 96.302C188.286 94.41 189.54 93.068 191.322 93.068C193.016 93.068 194.226 94.41 194.226 96.302C194.226 98.216 193.016 99.558 191.322 99.558ZM201.182 96.676H203.36L204.086 86.886H200.456L201.182 96.676ZM202.26 102.264C203.338 102.264 204.218 101.34 204.218 100.218C204.218 99.184 203.338 98.26 202.26 98.26C201.116 98.26 200.214 99.184 200.214 100.218C200.214 101.34 201.116 102.264 202.26 102.264ZM224.874 89.812V86.886H213.236V102H224.874V99.074H216.492V95.752H224.082V92.826H216.492V89.812H224.874ZM231.048 102H234.018L238.88 90.626H235.536L232.544 98.304L229.486 90.626H226.12L231.048 102ZM245.243 99.426C243.901 99.426 242.911 98.59 242.537 97.358H250.743C250.743 93.068 248.653 90.362 245.089 90.362C241.767 90.362 239.237 92.848 239.237 96.28C239.237 99.778 241.877 102.264 245.265 102.264C246.937 102.264 248.895 101.56 249.907 100.504L247.861 98.414C247.245 99.008 246.145 99.426 245.243 99.426ZM245.221 93.2C246.519 93.2 247.355 93.926 247.663 95.048H242.581C242.999 93.904 244.011 93.2 245.221 93.2ZM256.128 92.738V90.626H252.916V102H256.128V96.566C256.128 94.432 257.646 93.068 260.022 93.068V90.362C258.284 90.362 256.876 91.264 256.128 92.738ZM264.471 105.96C266.253 105.96 267.705 104.794 268.563 102.572L273.227 90.626H269.949L267.111 98.612L264.119 90.626H260.797L265.527 102.11L265.131 102.946C264.889 103.364 264.405 103.562 263.789 103.562C263.415 103.562 262.843 103.364 262.293 103.056L261.611 105.256C262.381 105.674 263.525 105.96 264.471 105.96ZM281.072 99.184C280.852 99.404 280.412 99.558 279.972 99.558C279.378 99.558 278.894 99.03 278.894 98.282V93.222H281.358V90.626H278.894V87.502H275.814V90.626H274.252V93.222H275.814V98.788C275.814 100.834 277.222 102.264 279.224 102.264C280.148 102.264 281.182 101.868 281.842 101.274L281.072 99.184ZM290.431 90.362C288.979 90.362 287.725 91.022 287.021 92.012V86.622H283.809V102H287.021V95.268C287.021 94.036 288.055 93.068 289.397 93.068C290.673 93.068 291.553 94.036 291.553 95.444V102H294.655V94.762C294.655 92.188 292.895 90.362 290.431 90.362ZM298.973 89.064C299.919 89.064 300.689 88.272 300.689 87.304C300.689 86.402 299.919 85.588 298.973 85.588C297.983 85.588 297.213 86.402 297.213 87.304C297.213 88.272 297.983 89.064 298.973 89.064ZM297.345 102H300.557V90.626H297.345V102ZM309.939 90.362C308.465 90.362 307.189 91.022 306.507 92.056V90.626H303.295V102H306.507V95.202L306.529 95.268C306.529 94.036 307.563 93.068 308.905 93.068C310.181 93.068 311.061 94.036 311.061 95.444V102H314.163V94.762C314.163 92.188 312.403 90.362 309.939 90.362ZM325.103 90.626V92.166C324.333 91.088 322.881 90.362 321.341 90.362C318.481 90.362 316.303 92.584 316.303 95.752C316.303 98.92 318.481 101.164 321.341 101.164C322.837 101.164 324.201 100.504 325.103 99.404V100.658C325.103 102.132 323.783 103.078 321.715 103.078C320.395 103.078 319.075 102.66 318.327 102L317.205 104.266C318.327 105.146 320.219 105.784 322.221 105.784C325.807 105.784 328.337 103.716 328.337 100.79V90.626H325.103ZM322.353 98.458C320.747 98.458 319.603 97.336 319.603 95.752C319.603 94.168 320.747 93.068 322.353 93.068C323.959 93.068 325.103 94.168 325.103 95.752C325.103 97.336 323.959 98.458 322.353 98.458ZM341.904 102H345.182V96.544L351.078 86.886H347.448L343.532 93.508L339.77 86.886H335.986L341.904 96.544V102ZM355.656 102.264C359.022 102.264 361.838 99.536 361.838 96.302C361.838 93.068 359.022 90.362 355.656 90.362C352.268 90.362 349.43 93.068 349.43 96.302C349.43 99.536 352.268 102.264 355.656 102.264ZM355.656 99.558C353.94 99.558 352.51 98.062 352.51 96.302C352.51 94.542 353.94 93.068 355.656 93.068C357.35 93.068 358.78 94.542 358.78 96.302C358.78 98.062 357.35 99.558 355.656 99.558ZM371.558 90.626V97.424L371.536 97.358C371.536 98.59 370.502 99.558 369.16 99.558C367.884 99.558 367.004 98.59 367.004 97.182V90.626H363.902V97.864C363.902 100.438 365.662 102.264 368.126 102.264C369.6 102.264 370.876 101.604 371.558 100.57V102H374.77V90.626H371.558ZM383.89 102H387.124V92.232L394.406 102H397.662V86.886H394.406V96.654L387.124 86.886H383.89V102ZM406.075 99.426C404.733 99.426 403.743 98.59 403.369 97.358H411.575C411.575 93.068 409.485 90.362 405.921 90.362C402.599 90.362 400.069 92.848 400.069 96.28C400.069 99.778 402.709 102.264 406.097 102.264C407.769 102.264 409.727 101.56 410.739 100.504L408.693 98.414C408.077 99.008 406.977 99.426 406.075 99.426ZM406.053 93.2C407.351 93.2 408.187 93.926 408.495 95.048H403.413C403.831 93.904 404.843 93.2 406.053 93.2ZM419.116 99.426C417.774 99.426 416.784 98.59 416.41 97.358H424.616C424.616 93.068 422.526 90.362 418.962 90.362C415.64 90.362 413.11 92.848 413.11 96.28C413.11 99.778 415.75 102.264 419.138 102.264C420.81 102.264 422.768 101.56 423.78 100.504L421.734 98.414C421.118 99.008 420.018 99.426 419.116 99.426ZM419.094 93.2C420.392 93.2 421.228 93.926 421.536 95.048H416.454C416.872 93.904 417.884 93.2 419.094 93.2ZM435.281 86.622V92.254C434.379 91.066 433.059 90.362 431.453 90.362C428.417 90.362 426.217 92.826 426.217 96.302C426.217 99.8 428.417 102.264 431.453 102.264C433.059 102.264 434.379 101.56 435.281 100.372V102H438.493V86.622H435.281ZM432.377 99.558C430.595 99.558 429.341 98.216 429.341 96.302C429.341 94.41 430.595 93.068 432.377 93.068C434.071 93.068 435.281 94.41 435.281 96.302C435.281 98.216 434.071 99.558 432.377 99.558ZM451.461 102H454.717V89.812H459.425V86.886H446.753V89.812H451.461V102ZM467.096 102.264C470.462 102.264 473.278 99.536 473.278 96.302C473.278 93.068 470.462 90.362 467.096 90.362C463.708 90.362 460.87 93.068 460.87 96.302C460.87 99.536 463.708 102.264 467.096 102.264ZM467.096 99.558C465.38 99.558 463.95 98.062 463.95 96.302C463.95 94.542 465.38 93.068 467.096 93.068C468.79 93.068 470.22 94.542 470.22 96.302C470.22 98.062 468.79 99.558 467.096 99.558ZM35.606 128H38.84V123.776L40.732 121.752L45.374 128H49.312L42.998 119.442L48.894 112.886H44.956L38.84 119.816V112.886H35.606V128ZM57.3688 116.362C55.8948 116.362 54.6188 117.022 53.9368 118.056V116.626H50.7248V128H53.9368V121.202L53.9588 121.268C53.9588 120.036 54.9928 119.068 56.3348 119.068C57.6108 119.068 58.4908 120.036 58.4908 121.444V128H61.5928V120.762C61.5928 118.188 59.8328 116.362 57.3688 116.362ZM69.8925 128.264C73.2585 128.264 76.0745 125.536 76.0745 122.302C76.0745 119.068 73.2585 116.362 69.8925 116.362C66.5045 116.362 63.6665 119.068 63.6665 122.302C63.6665 125.536 66.5045 128.264 69.8925 128.264ZM69.8925 125.558C68.1765 125.558 66.7465 124.062 66.7465 122.302C66.7465 120.542 68.1765 119.068 69.8925 119.068C71.5865 119.068 73.0165 120.542 73.0165 122.302C73.0165 124.062 71.5865 125.558 69.8925 125.558ZM80.5707 128H83.4527L85.5867 120.85L87.6987 128H90.5807L94.4527 116.626H91.3067L89.1507 123.71L86.9067 116.626H84.2447L82.0007 123.71L79.8447 116.626H76.6987L80.5707 128ZM113.529 128H117.181L111.021 112.886H107.391L101.231 128H104.861L105.829 125.624H112.561L113.529 128ZM106.951 122.874L109.195 117.352L111.439 122.874H106.951ZM125.893 116.362C124.309 116.362 122.989 117.044 122.087 118.21V112.622H118.875V128H122.087V126.394C122.989 127.582 124.309 128.264 125.893 128.264C128.929 128.264 131.129 125.8 131.129 122.302C131.129 118.826 128.929 116.362 125.893 116.362ZM124.969 125.558C123.407 125.558 122.263 124.414 122.087 122.742V121.862C122.263 120.212 123.407 119.068 124.969 119.068C126.751 119.068 128.005 120.41 128.005 122.302C128.005 124.216 126.751 125.558 124.969 125.558ZM138.986 128.264C142.352 128.264 145.168 125.536 145.168 122.302C145.168 119.068 142.352 116.362 138.986 116.362C135.598 116.362 132.76 119.068 132.76 122.302C132.76 125.536 135.598 128.264 138.986 128.264ZM138.986 125.558C137.27 125.558 135.84 124.062 135.84 122.302C135.84 120.542 137.27 119.068 138.986 119.068C140.68 119.068 142.11 120.542 142.11 122.302C142.11 124.062 140.68 125.558 138.986 125.558ZM154.888 116.626V123.424L154.866 123.358C154.866 124.59 153.832 125.558 152.49 125.558C151.214 125.558 150.334 124.59 150.334 123.182V116.626H147.232V123.864C147.232 126.438 148.992 128.264 151.456 128.264C152.93 128.264 154.206 127.604 154.888 126.57V128H158.1V116.626H154.888ZM166.839 125.184C166.619 125.404 166.179 125.558 165.739 125.558C165.145 125.558 164.661 125.03 164.661 124.282V119.222H167.125V116.626H164.661V113.502H161.581V116.626H160.019V119.222H161.581V124.788C161.581 126.834 162.989 128.264 164.991 128.264C165.915 128.264 166.949 127.868 167.609 127.274L166.839 125.184ZM182.783 122.038H186.303V124.348C185.445 124.964 184.389 125.316 183.355 125.316C180.781 125.316 178.603 123.072 178.603 120.432C178.603 117.814 180.781 115.57 183.355 115.57C184.741 115.57 186.215 116.23 187.117 117.264L189.471 115.152C187.953 113.568 185.621 112.622 183.355 112.622C178.977 112.622 175.259 116.186 175.259 120.432C175.259 124.678 178.977 128.264 183.355 128.264C185.621 128.264 187.953 127.318 189.471 125.734V119.508H182.783V122.038ZM192.335 128H197.747C202.829 128 206.437 124.854 206.437 120.432C206.437 116.01 202.829 112.886 197.747 112.886H192.335V128ZM195.569 125.052V115.834H198.165C201.047 115.834 203.093 117.748 203.093 120.432C203.093 123.138 201.047 125.052 198.165 125.052H195.569ZM208.939 128H212.173V123.094H215.737C219.015 123.094 221.435 120.982 221.435 117.99C221.435 114.998 219.015 112.886 215.737 112.886H208.939V128ZM212.173 120.124V115.856H215.385C216.991 115.856 218.091 116.692 218.091 117.99C218.091 119.288 216.991 120.124 215.385 120.124H212.173ZM236.245 128L232.527 122.72C234.595 121.994 235.959 120.234 235.959 117.99C235.959 114.998 233.539 112.886 230.261 112.886H223.463V128H226.697V123.094H229.095L232.549 128H236.245ZM226.697 115.856H229.909C231.515 115.856 232.615 116.692 232.615 117.99C232.615 119.288 231.515 120.124 229.909 120.124H226.697V115.856ZM239.847 131.212C241.431 129.694 242.179 128.308 242.179 127.01C242.179 125.404 241.321 124.26 240.089 124.26C238.989 124.26 238.109 125.184 238.109 126.284C238.109 127.362 238.989 128.264 240.045 128.264C239.847 128.968 239.385 129.716 238.703 130.332L239.847 131.212ZM251.095 128H256.507C261.589 128 265.197 124.854 265.197 120.432C265.197 116.01 261.589 112.886 256.507 112.886H251.095V128ZM254.329 125.052V115.834H256.925C259.807 115.834 261.853 117.748 261.853 120.432C261.853 123.138 259.807 125.052 256.925 125.052H254.329ZM273.419 128.264C277.115 128.264 279.293 126.35 279.293 123.468C279.293 120.674 277.137 119.706 273.881 118.98C271.549 118.452 270.647 118.1 270.647 117C270.647 116.098 271.483 115.372 272.869 115.372C274.321 115.372 275.839 115.966 277.181 117.044L278.875 114.712C277.335 113.392 275.421 112.622 272.957 112.622C269.657 112.622 267.369 114.536 267.369 117.33C267.369 120.256 269.635 121.158 272.825 121.884C275.135 122.412 276.015 122.742 276.015 123.82C276.015 124.766 275.179 125.514 273.551 125.514C271.637 125.514 270.009 124.766 268.579 123.534L266.709 125.756C268.469 127.384 270.801 128.264 273.419 128.264ZM292.709 128H296.361L290.201 112.886H286.571L280.411 128H284.041L285.009 125.624H291.741L292.709 128ZM286.131 122.874L288.375 117.352L290.619 122.874H286.131ZM310.924 128L307.206 122.72C309.274 121.994 310.638 120.234 310.638 117.99C310.638 114.998 308.218 112.886 304.94 112.886H298.142V128H301.376V123.094H303.774L307.228 128H310.924ZM301.376 115.856H304.588C306.194 115.856 307.294 116.692 307.294 117.99C307.294 119.288 306.194 120.124 304.588 120.124H301.376V115.856ZM314.527 131.212C316.111 129.694 316.859 128.308 316.859 127.01C316.859 125.404 316.001 124.26 314.769 124.26C313.669 124.26 312.789 125.184 312.789 126.284C312.789 127.362 313.669 128.264 314.725 128.264C314.527 128.968 314.065 129.716 313.383 130.332L314.527 131.212ZM333.078 128.264C335.366 128.264 337.478 127.274 338.952 125.734L336.598 123.622C335.718 124.634 334.464 125.316 333.078 125.316C330.548 125.316 328.392 123.072 328.392 120.432C328.392 117.814 330.548 115.57 333.078 115.57C334.464 115.57 335.718 116.252 336.598 117.264L338.952 115.152C337.478 113.59 335.366 112.622 333.078 112.622C328.744 112.622 325.048 116.186 325.048 120.432C325.048 124.678 328.744 128.264 333.078 128.264ZM348.397 128.264C350.685 128.264 352.797 127.274 354.271 125.734L351.917 123.622C351.037 124.634 349.783 125.316 348.397 125.316C345.867 125.316 343.711 123.072 343.711 120.432C343.711 117.814 345.867 115.57 348.397 115.57C349.783 115.57 351.037 116.252 351.917 117.264L354.271 115.152C352.797 113.59 350.685 112.622 348.397 112.622C344.063 112.622 340.367 116.186 340.367 120.432C340.367 124.678 344.063 128.264 348.397 128.264ZM356.279 128H359.513V123.094H363.077C366.355 123.094 368.775 120.982 368.775 117.99C368.775 114.998 366.355 112.886 363.077 112.886H356.279V128ZM359.513 120.124V115.856H362.725C364.331 115.856 365.431 116.692 365.431 117.99C365.431 119.288 364.331 120.124 362.725 120.124H359.513ZM381.891 128H385.543L379.383 112.886H375.753L369.593 128H373.223L374.191 125.624H380.923L381.891 128ZM375.313 122.874L377.557 117.352L379.801 122.874H375.313ZM388.798 131.212C390.382 129.694 391.13 128.308 391.13 127.01C391.13 125.404 390.272 124.26 389.04 124.26C387.94 124.26 387.06 125.184 387.06 126.284C387.06 127.362 387.94 128.264 388.996 128.264C388.798 128.968 388.336 129.716 387.654 130.332L388.798 131.212ZM404.908 116.362C403.324 116.362 401.762 116.802 400.156 117.616L401.234 119.75C402.136 119.288 403.126 118.936 404.182 118.936C406.052 118.936 406.8 119.992 406.8 121.202V121.422C405.832 121.048 404.82 120.85 403.896 120.85C401.256 120.85 399.166 122.39 399.166 124.634C399.166 126.812 401.036 128.264 403.456 128.264C404.688 128.264 405.986 127.78 406.8 126.856V128H409.902V121.202C409.902 118.232 407.878 116.362 404.908 116.362ZM404.182 126.042C403.082 126.042 402.268 125.47 402.268 124.546C402.268 123.622 403.192 122.94 404.358 122.94C405.238 122.94 406.074 123.094 406.8 123.358V124.414C406.58 125.47 405.414 126.042 404.182 126.042ZM419.187 116.362C417.713 116.362 416.437 117.022 415.755 118.056V116.626H412.543V128H415.755V121.202L415.777 121.268C415.777 120.036 416.811 119.068 418.153 119.068C419.429 119.068 420.309 120.036 420.309 121.444V128H423.411V120.762C423.411 118.188 421.651 116.362 419.187 116.362ZM434.615 112.622V118.254C433.713 117.066 432.393 116.362 430.787 116.362C427.751 116.362 425.551 118.826 425.551 122.302C425.551 125.8 427.751 128.264 430.787 128.264C432.393 128.264 433.713 127.56 434.615 126.372V128H437.827V112.622H434.615ZM431.711 125.558C429.929 125.558 428.675 124.216 428.675 122.302C428.675 120.41 429.929 119.068 431.711 119.068C433.405 119.068 434.615 120.41 434.615 122.302C434.615 124.216 433.405 125.558 431.711 125.558ZM454.315 128.264C456.603 128.264 458.715 127.274 460.189 125.734L457.835 123.622C456.955 124.634 455.701 125.316 454.315 125.316C451.785 125.316 449.629 123.072 449.629 120.432C449.629 117.814 451.785 115.57 454.315 115.57C455.701 115.57 456.955 116.252 457.835 117.264L460.189 115.152C458.715 113.59 456.603 112.622 454.315 112.622C449.981 112.622 446.285 116.186 446.285 120.432C446.285 124.678 449.981 128.264 454.315 128.264ZM469.311 128.264C473.689 128.264 477.341 124.678 477.341 120.432C477.341 116.186 473.689 112.622 469.311 112.622C464.977 112.622 461.281 116.186 461.281 120.432C461.281 124.678 464.977 128.264 469.311 128.264ZM469.311 125.316C466.781 125.316 464.625 123.072 464.625 120.432C464.625 117.814 466.781 115.57 469.311 115.57C471.863 115.57 474.019 117.814 474.019 120.432C474.019 123.072 471.863 125.316 469.311 125.316ZM479.728 128H482.962V123.094H486.526C489.804 123.094 492.224 120.982 492.224 117.99C492.224 114.998 489.804 112.886 486.526 112.886H479.728V128ZM482.962 120.124V115.856H486.174C487.78 115.856 488.88 116.692 488.88 117.99C488.88 119.288 487.78 120.124 486.174 120.124H482.962ZM494.252 128H497.486V123.094H501.05C504.328 123.094 506.748 120.982 506.748 117.99C506.748 114.998 504.328 112.886 501.05 112.886H494.252V128ZM497.486 120.124V115.856H500.698C502.304 115.856 503.404 116.692 503.404 117.99C503.404 119.288 502.304 120.124 500.698 120.124H497.486ZM519.863 128H523.515L517.355 112.886H513.725L507.565 128H511.195L512.163 125.624H518.895L519.863 128ZM513.285 122.874L515.529 117.352L517.773 122.874H513.285Z" fill="#5B3CC2"/>
<path d="M40.872 67.144C43.26 67.144 45.252 65.188 45.252 62.872C45.252 60.556 43.26 58.612 40.872 58.612C38.508 58.612 36.492 60.556 36.492 62.872C36.492 65.188 38.508 67.144 40.872 67.144ZM40.872 65.536C39.492 65.536 38.316 64.312 38.316 62.872C38.316 61.444 39.492 60.22 40.872 60.22C42.264 60.22 43.44 61.444 43.44 62.872C43.44 64.312 42.264 65.536 40.872 65.536ZM47.9343 67H49.6983V64.324H51.6423C53.4303 64.324 54.7503 63.172 54.7503 61.54C54.7503 59.908 53.4303 58.756 51.6423 58.756H47.9343V67ZM49.6983 62.704V60.376H51.4503C52.3263 60.376 52.9263 60.832 52.9263 61.54C52.9263 62.248 52.3263 62.704 51.4503 62.704H49.6983ZM63.5842 60.352V58.756H57.2362V67H63.5842V65.404H59.0122V63.592H63.1522V61.996H59.0122V60.352H63.5842ZM66.3757 67H68.1397V61.672L72.1117 67H73.8877V58.756H72.1117V64.084L68.1397 58.756H66.3757V67ZM81.7322 67H83.5082V58.756H81.7322V67ZM86.6055 67H88.3695V61.672L92.3415 67H94.1175V58.756H92.3415V64.084L88.3695 58.756H86.6055V67ZM99.3425 67H101.118V60.352H103.686V58.756H96.7745V60.352H99.3425V67ZM112.599 60.352V58.756H106.251V67H112.599V65.404H108.027V63.592H112.167V61.996H108.027V60.352H112.599ZM122.29 67L120.262 64.12C121.39 63.724 122.134 62.764 122.134 61.54C122.134 59.908 120.814 58.756 119.026 58.756H115.318V67H117.082V64.324H118.39L120.274 67H122.29ZM117.082 60.376H118.834C119.71 60.376 120.31 60.832 120.31 61.54C120.31 62.248 119.71 62.704 118.834 62.704H117.082V60.376ZM124.903 67H126.667V61.672L130.639 67H132.415V58.756H130.639V64.084L126.667 58.756H124.903V67ZM141.852 60.352V58.756H135.504V67H141.852V65.404H137.28V63.592H141.42V61.996H137.28V60.352H141.852ZM146.707 67H148.483V60.352H151.051V58.756H144.139V60.352H146.707V67Z" fill="#32E3AF"/>
<line x1="36.0021" y1="202.5" x2="524.002" y2="204.508" stroke="#1F2033" stroke-opacity="0.05"/>
<path d="M8 23C8 14.7157 14.7157 8 23 8H537C545.284 8 552 14.7157 552 23V36H8V23Z" fill="#5B3CC2"/>
<rect x="98" y="154" width="151" height="9" fill="#1F2033" fill-opacity="0.05"/>
<rect x="98" y="172" width="236" height="9" fill="#1F2033" fill-opacity="0.05"/>
<rect x="36" y="398" width="488" height="9" fill="#1F2033" fill-opacity="0.05"/>
<rect x="36" y="542" width="488" height="9" fill="#1F2033" fill-opacity="0.05"/>
<rect x="36" y="470" width="488" height="9" fill="#1F2033" fill-opacity="0.05"/>
<rect x="36" y="434" width="488" height="9" fill="#1F2033" fill-opacity="0.05"/>
<rect x="36" y="578" width="242" height="9" fill="#1F2033" fill-opacity="0.05"/>
<rect x="36" y="506" width="488" height="9" fill="#1F2033" fill-opacity="0.05"/>
<rect x="36" y="416" width="488" height="9" fill="#1F2033" fill-opacity="0.05"/>
<rect x="36" y="560" width="488" height="9" fill="#1F2033" fill-opacity="0.05"/>
<rect x="36" y="488" width="488" height="9" fill="#1F2033" fill-opacity="0.05"/>
<rect x="36" y="452" width="488" height="9" fill="#1F2033" fill-opacity="0.05"/>
<rect x="36" y="524" width="488" height="9" fill="#1F2033" fill-opacity="0.05"/>
<rect x="36" y="223" width="488" height="157" fill="#32E3AF"/>
<path d="M48.8828 169.488H45.901L48.0536 167.362H44.347L46.4937 165.243H43C43.0778 165.153 43.118 165.101 43.164 165.055C44.406 163.829 45.6297 162.583 46.8959 161.382C48.4087 159.945 50.2452 159.107 52.4208 159.003C52.8767 158.982 53.3479 159.074 53.7991 159.168C54.3013 159.276 54.7959 159.413 55.2799 159.578C55.8791 159.777 56.4771 159.792 57.0934 159.677C57.5487 159.591 58.0082 159.592 58.4499 159.747C59.1487 159.991 59.5964 160.447 59.7108 161.143C59.8069 161.727 60.1236 162.156 60.6951 162.396C61.417 162.7 62.153 162.976 62.8849 163.26C63.2776 163.412 63.6763 163.551 64.0685 163.705C64.5993 163.913 64.9431 164.254 64.9531 164.827C64.9643 165.434 65.0298 166.045 64.9838 166.649C64.9378 167.252 64.555 167.759 64.2313 168.272C64.0962 168.486 63.8532 168.54 63.5967 168.566C63.4451 168.582 63.2983 168.625 63.1644 168.693C62.9138 168.822 62.6737 168.968 62.4366 169.118C61.9648 169.415 61.4677 169.432 60.9345 169.283C60.4256 169.143 59.9125 168.986 59.3894 168.931C58.8708 168.869 58.3451 168.882 57.8306 168.968C56.6871 169.182 56.0814 169.945 55.908 170.957C55.7246 172.032 55.6532 173.123 55.5542 174.209C55.5005 174.792 55.4905 175.379 55.4592 176C55.2233 175.94 55.0045 175.89 54.791 175.827C52.2002 175.052 49.9827 173.71 48.0536 171.934C47.9439 171.833 47.9504 171.752 47.9994 171.635C48.2919 170.933 48.5785 170.23 48.8828 169.488Z" fill="#32E3AF"/>
<defs>
<filter id="filter0_d" x="0" y="0" width="560" height="622" filterUnits="userSpaceOnUse" color-interpolation-filters="sRGB">
<feFlood flood-opacity="0" result="BackgroundImageFix"/>
<feColorMatrix in="SourceAlpha" type="matrix" values="0 0 0 0 0 0 0 0 0 0 0 0 0 0 0 0 0 0 127 0"/>
<feOffset/>
<feGaussianBlur stdDeviation="4"/>
<feColorMatrix type="matrix" values="0 0 0 0 0.12549 0 0 0 0 0.0666667 0 0 0 0 0.223529 0 0 0 0.1 0"/>
<feBlend mode="normal" in2="BackgroundImageFix" result="effect1_dropShadow"/>
<feBlend mode="normal" in="SourceGraphic" in2="effect1_dropShadow" result="shape"/>
</filter>
</defs>
</svg>
