<?xml version="1.0" encoding="utf-8"?>
<!-- Generator: Adobe Illustrator 25.2.1, SVG Export Plug-In . SVG Version: 6.00 Build 0)  -->
<svg version="1.1" id="Layer_1" xmlns="http://www.w3.org/2000/svg" xmlns:xlink="http://www.w3.org/1999/xlink" x="0px" y="0px"
	 viewBox="0 0 181 132" style="enable-background:new 0 0 181 132;" xml:space="preserve">
<style type="text/css">
	.st0{fill:#FF1193;}
	.st1{opacity:0.5;fill:#FF1193;}
</style>
<path class="st0" d="M94.5,91.1c-0.1,0-0.2,0-0.3,0L74,111.4l6.1,6.1L94.5,132l14.4-14.4l14.4-14.4C115.7,95.4,105.3,91.1,94.5,91.1
	L94.5,91.1z"/>
<path class="st0" d="M127.8,57.5l-15.8,15.8c9.7,2.9,18.5,8.2,25.7,15.4l14.4-14.5C145.1,67.2,136.9,61.6,127.8,57.5z"/>
<path class="st0" d="M157.9,27.4l-14.9,14.9c8.6,4.7,16.5,10.6,23.5,17.6L181,45.3l0,0C174.1,38.5,166.3,32.4,157.9,27.4z"/>
<path class="st0" d="M114.4,31.9l16.8-16.8C109.8,8.4,87.1,7.7,65.4,13c-1.4,0.3-2.7,0.7-4.1,1.1l14.3,17.6
	C88.4,29.2,101.6,29.3,114.4,31.9z"/>
<path class="st0" d="M64.9,34.3c1.2-0.4,2.3-0.7,3.5-1L54.5,16.2c-1.7,0.6-3.4,1.2-5.1,1.9l13.6,16.8L64.9,34.3z"/>
<path class="st0" d="M29.4,28.3C21.6,33.2,14.5,38.9,8,45.3l14.5,14.5c6-6,12.7-11.2,19.9-15.6L29.4,28.3z"/>
<path class="st0" d="M151.3,5.1L146.2,0l-15.1,15.1l-16.8,16.8L95.9,50.4c-0.5,0-1-0.1-1.4-0.1c-21.6,0-42.4,8.6-57.7,23.9
	l14.4,14.5c5.6-5.6,12.3-10.1,19.6-13.2l-31.7,31.7l5.1,5.1l9.3,9.3l107-107.2L151.3,5.1z"/>
<path class="st1" d="M63.1,34.9L49.4,18.1c-7,2.8-13.7,6.2-20.1,10.2l13,16C48.9,40.4,55.8,37.2,63.1,34.9z"/>
<path class="st1" d="M75.6,31.7L61.3,14.1c-2.3,0.7-4.5,1.4-6.7,2.1l13.9,17.1C70.8,32.7,73.2,32.1,75.6,31.7z"/>
<polygon class="st1" points="158,93 164,105 170,93 164,81 "/>
<polygon class="st1" points="151,104 155,111 159,104 155,97 "/>
<polygon class="st1" points="6,10 0,20.5 6,31 12,20.5 "/>
</svg>
