<svg width="253" height="213" viewBox="0 0 253 213" fill="none" xmlns="http://www.w3.org/2000/svg">
<path d="M122.5 136.1C122.4 136.1 122.3 136.1 122.2 136.1L102 156.4L108.1 162.5L122.5 177L136.9 162.6L151.3 148.2C143.7 140.4 133.3 136.1 122.5 136.1Z" fill="#FF1193"/>
<path d="M155.8 102.5L140 118.3C149.7 121.2 158.5 126.5 165.7 133.7L180.1 119.2C173.1 112.2 164.9 106.6 155.8 102.5Z" fill="#FF1193"/>
<path d="M185.9 72.3999L171 87.2999C179.6 91.9999 187.5 97.8999 194.5 104.9L209 90.2999C202.1 83.4999 194.3 77.3999 185.9 72.3999Z" fill="#FF1193"/>
<path d="M142.401 76.9L159.201 60.1C137.801 53.4 115.101 52.7 93.4008 58C92.0008 58.3 90.7008 58.7 89.3008 59.1L103.601 76.7C116.401 74.2 129.601 74.3 142.401 76.9Z" fill="#FF1193"/>
<path d="M92.9004 79.3002C94.1004 78.9002 95.2004 78.6002 96.4004 78.3002L82.5004 61.2002C80.8004 61.8002 79.1004 62.4002 77.4004 63.1002L91.0004 79.9002L92.9004 79.3002Z" fill="#FF1193"/>
<path d="M57.4 73.2998C49.6 78.1998 42.5 83.8998 36 90.2998L50.5 104.8C56.5 98.7998 63.2 93.5998 70.4 89.1998L57.4 73.2998Z" fill="#FF1193"/>
<path d="M179.301 50.1L174.201 45L159.101 60.1L142.301 76.9L123.901 95.4C123.401 95.4 122.901 95.3 122.501 95.3C100.901 95.3 80.1008 103.9 64.8008 119.2L79.2008 133.7C84.8008 128.1 91.5008 123.6 98.8008 120.5L67.1008 152.2L72.2008 157.3L81.5008 166.6L188.501 59.4L179.301 50.1Z" fill="#FF1193"/>
<path opacity="0.5" d="M91.1008 79.9001L77.4008 63.1001C70.4008 65.9001 63.7008 69.3001 57.3008 73.3001L70.3008 89.3001C76.9008 85.4001 83.8008 82.2001 91.1008 79.9001Z" fill="#FF1193"/>
<path opacity="0.5" d="M103.6 76.7001L89.2996 59.1001C86.9996 59.8001 84.7996 60.5001 82.5996 61.2001L96.4996 78.3001C98.7996 77.7001 101.2 77.1001 103.6 76.7001Z" fill="#FF1193"/>
<rect x="192" y="128" width="6" height="18" fill="#FF88C9"/>
<rect x="204" y="134" width="6" height="18" transform="rotate(90 204 134)" fill="#FF88C9"/>
<rect x="183" y="143" width="3" height="9" fill="#FF88C9"/>
<rect x="189" y="146" width="3" height="9" transform="rotate(90 189 146)" fill="#FF88C9"/>
<rect x="9" y="153" width="3" height="9" fill="#F9F8FA"/>
<rect x="15" y="156" width="3" height="9" transform="rotate(90 15 156)" fill="#F9F8FA"/>
<rect x="24" y="153" width="3" height="9" fill="#F9F8FA"/>
<rect x="30" y="156" width="3" height="9" transform="rotate(90 30 156)" fill="#F9F8FA"/>
<rect x="39" y="168" width="3" height="9" fill="#F9F8FA"/>
<rect x="45" y="171" width="3" height="9" transform="rotate(90 45 171)" fill="#F9F8FA"/>
<rect x="39" y="183" width="3" height="9" fill="#F9F8FA"/>
<rect x="45" y="186" width="3" height="9" transform="rotate(90 45 186)" fill="#F9F8FA"/>
<rect x="9" y="168" width="3" height="9" fill="#F9F8FA"/>
<rect x="15" y="171" width="3" height="9" transform="rotate(90 15 171)" fill="#F9F8FA"/>
<rect x="9" y="183" width="3" height="9" fill="#F9F8FA"/>
<rect x="15" y="186" width="3" height="9" transform="rotate(90 15 186)" fill="#F9F8FA"/>
<rect x="54" y="183" width="3" height="9" fill="#F9F8FA"/>
<rect x="60" y="186" width="3" height="9" transform="rotate(90 60 186)" fill="#F9F8FA"/>
<rect x="9" y="138" width="3" height="9" fill="#F9F8FA"/>
<rect x="15" y="141" width="3" height="9" transform="rotate(90 15 141)" fill="#F9F8FA"/>
<rect x="24" y="168" width="3" height="9" fill="#F9F8FA"/>
<rect x="30" y="171" width="3" height="9" transform="rotate(90 30 171)" fill="#F9F8FA"/>
<rect x="24" y="183" width="3" height="9" fill="#F9F8FA"/>
<rect x="30" y="186" width="3" height="9" transform="rotate(90 30 186)" fill="#F9F8FA"/>
<rect x="244" y="62" width="3" height="9" transform="rotate(-180 244 62)" fill="#F9F8FA"/>
<rect x="238" y="59" width="3" height="9" transform="rotate(-90 238 59)" fill="#F9F8FA"/>
<rect x="229" y="62" width="3" height="9" transform="rotate(-180 229 62)" fill="#F9F8FA"/>
<rect x="223" y="59" width="3" height="9" transform="rotate(-90 223 59)" fill="#F9F8FA"/>
<rect x="214" y="47" width="3" height="9" transform="rotate(-180 214 47)" fill="#F9F8FA"/>
<rect x="208" y="44" width="3" height="9" transform="rotate(-90 208 44)" fill="#F9F8FA"/>
<rect x="214" y="32" width="3" height="9" transform="rotate(-180 214 32)" fill="#F9F8FA"/>
<rect x="208" y="29" width="3" height="9" transform="rotate(-90 208 29)" fill="#F9F8FA"/>
<rect x="244" y="47" width="3" height="9" transform="rotate(-180 244 47)" fill="#F9F8FA"/>
<rect x="238" y="44" width="3" height="9" transform="rotate(-90 238 44)" fill="#F9F8FA"/>
<rect x="244" y="32" width="3" height="9" transform="rotate(-180 244 32)" fill="#F9F8FA"/>
<rect x="238" y="29" width="3" height="9" transform="rotate(-90 238 29)" fill="#F9F8FA"/>
<rect x="199" y="32" width="3" height="9" transform="rotate(-180 199 32)" fill="#F9F8FA"/>
<rect x="193" y="29" width="3" height="9" transform="rotate(-90 193 29)" fill="#F9F8FA"/>
<rect x="244" y="77" width="3" height="9" transform="rotate(-180 244 77)" fill="#F9F8FA"/>
<rect x="238" y="74" width="3" height="9" transform="rotate(-90 238 74)" fill="#F9F8FA"/>
<rect x="229" y="47" width="3" height="9" transform="rotate(-180 229 47)" fill="#F9F8FA"/>
<rect x="223" y="44" width="3" height="9" transform="rotate(-90 223 44)" fill="#F9F8FA"/>
<rect x="229" y="32" width="3" height="9" transform="rotate(-180 229 32)" fill="#F9F8FA"/>
<rect x="223" y="29" width="3" height="9" transform="rotate(-90 223 29)" fill="#F9F8FA"/>
<rect x="32" y="56" width="6" height="18" fill="#FF88C9"/>
<rect x="44" y="62" width="6" height="18" transform="rotate(90 44 62)" fill="#FF88C9"/>
</svg>
