<svg width="439" height="484" viewBox="0 0 439 484" fill="none" xmlns="http://www.w3.org/2000/svg">
<g filter="url(#filter0_d)">
<path d="M60 23C60 14.7157 66.7157 8 75 8H416C424.284 8 431 14.7157 431 23V397C431 405.284 424.284 412 416 412H75C66.7157 412 60 405.284 60 397V23Z" fill="#F4F4F5"/>
<path d="M60 17.4984C60 12.2526 64.58 8 70.2298 8H420.77C426.42 8 431 12.2526 431 17.4984V402.502C431 407.747 426.42 412 420.77 412H70.2298C64.58 412 60 407.747 60 402.502V17.4984Z" fill="#F4F4F5"/>
</g>
<path d="M60 21C60 12.7157 66.7157 6 75 6H416C424.284 6 431 12.7157 431 21V34H60V21Z" fill="url(#paint0_linear)"/>
<rect x="322" y="60" width="60" height="60" rx="30" fill="white"/>
<rect x="100" y="67" width="201" height="16" fill="white"/>
<rect x="100" y="97" width="201" height="16" fill="white"/>
<g filter="url(#filter1_d)">
<rect x="14" y="143" width="368" height="327" rx="15" fill="white"/>
</g>
<rect x="31" y="161" width="334" height="62" rx="11" fill="#1AB8EC" fill-opacity="0.12"/>
<path d="M61.628 199H64.862V189.584L69.548 198.12L74.212 189.584V199H77.468V183.886H74.212L69.548 192.422L64.862 183.886H61.628V199ZM83.0821 202.96C84.8641 202.96 86.3161 201.794 87.1741 199.572L91.8381 187.626H88.5601L85.7221 195.612L82.7301 187.626H79.4081L84.1381 199.11L83.7421 199.946C83.5001 200.364 83.0161 200.562 82.4001 200.562C82.0261 200.562 81.4541 200.364 80.9041 200.056L80.2221 202.256C80.9921 202.674 82.1361 202.96 83.0821 202.96ZM100.064 199H103.298V189.584L107.984 198.12L112.648 189.584V199H115.904V183.886H112.648L107.984 192.422L103.298 183.886H100.064V199ZM119.142 199H124.554C129.636 199 133.244 195.854 133.244 191.432C133.244 187.01 129.636 183.886 124.554 183.886H119.142V199ZM122.376 196.052V186.834H124.972C127.854 186.834 129.9 188.748 129.9 191.432C129.9 194.138 127.854 196.052 124.972 196.052H122.376ZM135.878 199H139.112V189.232L146.394 199H149.65V183.886H146.394V193.654L139.112 183.886H135.878V199Z" fill="#1AB8EC"/>
<path d="M61.628 273H69.57C72.452 273 74.52 271.328 74.52 268.908C74.52 267.236 73.508 265.828 71.748 265.036C73.09 264.332 73.86 263.21 73.86 261.67C73.86 259.47 71.99 257.886 69.284 257.886H61.628V273ZM64.862 263.98V260.658H68.47C69.68 260.658 70.538 261.362 70.538 262.308C70.538 263.276 69.68 263.98 68.47 263.98H64.862ZM64.862 270.228V266.532H68.976C70.274 266.532 71.198 267.302 71.198 268.38C71.198 269.458 70.274 270.228 68.976 270.228H64.862ZM82.3788 273.264C85.7448 273.264 88.5608 270.536 88.5608 267.302C88.5608 264.068 85.7448 261.362 82.3788 261.362C78.9908 261.362 76.1528 264.068 76.1528 267.302C76.1528 270.536 78.9908 273.264 82.3788 273.264ZM82.3788 270.558C80.6628 270.558 79.2328 269.062 79.2328 267.302C79.2328 265.542 80.6628 264.068 82.3788 264.068C84.0728 264.068 85.5028 265.542 85.5028 267.302C85.5028 269.062 84.0728 270.558 82.3788 270.558ZM96.3222 273.264C99.6882 273.264 102.504 270.536 102.504 267.302C102.504 264.068 99.6882 261.362 96.3222 261.362C92.9342 261.362 90.0962 264.068 90.0962 267.302C90.0962 270.536 92.9342 273.264 96.3222 273.264ZM96.3222 270.558C94.6062 270.558 93.1762 269.062 93.1762 267.302C93.1762 265.542 94.6062 264.068 96.3222 264.068C98.0162 264.068 99.4462 265.542 99.4462 267.302C99.4462 269.062 98.0162 270.558 96.3222 270.558ZM115.744 261.626H112.048L107.824 266.532V257.622H104.612V273H107.824V270.206L109.188 268.732L112.004 273H115.7L111.322 266.664L115.744 261.626ZM130.776 261.362C129.082 261.362 127.674 262.176 127.08 263.43C126.376 262.154 125.034 261.362 123.472 261.362C122.064 261.362 120.942 262.044 120.392 263.122V261.626H117.18V273H120.392V266.136C120.392 264.926 121.294 264.068 122.592 264.068C123.758 264.068 124.594 264.992 124.594 266.312V273.022H127.674V266.136C127.674 264.926 128.598 264.068 129.874 264.068C131.062 264.068 131.898 264.992 131.898 266.312V273.022H134.978V265.762C134.978 263.188 133.152 261.362 130.776 261.362ZM142.76 261.362C141.176 261.362 139.614 261.802 138.008 262.616L139.086 264.75C139.988 264.288 140.978 263.936 142.034 263.936C143.904 263.936 144.652 264.992 144.652 266.202V266.422C143.684 266.048 142.672 265.85 141.748 265.85C139.108 265.85 137.018 267.39 137.018 269.634C137.018 271.812 138.888 273.264 141.308 273.264C142.54 273.264 143.838 272.78 144.652 271.856V273H147.754V266.202C147.754 263.232 145.73 261.362 142.76 261.362ZM142.034 271.042C140.934 271.042 140.12 270.47 140.12 269.546C140.12 268.622 141.044 267.94 142.21 267.94C143.09 267.94 143.926 268.094 144.652 268.358V269.414C144.432 270.47 143.266 271.042 142.034 271.042ZM153.673 263.738V261.626H150.461V273H153.673V267.566C153.673 265.432 155.191 264.068 157.567 264.068V261.362C155.829 261.362 154.421 262.264 153.673 263.738ZM170.486 261.626H166.79L162.566 266.532V257.622H159.354V273H162.566V270.206L163.93 268.732L166.746 273H170.442L166.064 266.664L170.486 261.626ZM176.256 273.264C179.05 273.264 180.876 271.834 180.876 269.59C180.876 267.104 178.698 266.444 176.74 265.938C175.2 265.52 174.738 265.344 174.738 264.728C174.738 264.332 175.288 264.046 176.08 264.046C177.048 264.046 178.236 264.42 179.27 265.058L180.568 262.77C179.314 261.934 177.708 261.362 176.08 261.362C173.396 261.362 171.614 262.902 171.636 265.058C171.658 267.302 173.462 267.94 175.794 268.512C176.96 268.82 177.796 269.04 177.796 269.744C177.796 270.25 177.18 270.602 176.322 270.602C174.804 270.602 173.528 270.052 172.516 269.326L171.13 271.548C172.494 272.648 174.43 273.264 176.256 273.264Z" fill="#1AB8EC"/>
<path d="M67.216 350.264C70.912 350.264 73.09 348.35 73.09 345.468C73.09 342.674 70.934 341.706 67.678 340.98C65.346 340.452 64.444 340.1 64.444 339C64.444 338.098 65.28 337.372 66.666 337.372C68.118 337.372 69.636 337.966 70.978 339.044L72.672 336.712C71.132 335.392 69.218 334.622 66.754 334.622C63.454 334.622 61.166 336.536 61.166 339.33C61.166 342.256 63.432 343.158 66.622 343.884C68.932 344.412 69.812 344.742 69.812 345.82C69.812 346.766 68.976 347.514 67.348 347.514C65.434 347.514 63.806 346.766 62.376 345.534L60.506 347.756C62.266 349.384 64.598 350.264 67.216 350.264ZM80.4119 338.362C78.8279 338.362 77.2659 338.802 75.6599 339.616L76.7379 341.75C77.6399 341.288 78.6299 340.936 79.6859 340.936C81.5559 340.936 82.3039 341.992 82.3039 343.202V343.422C81.3359 343.048 80.3239 342.85 79.3999 342.85C76.7599 342.85 74.6699 344.39 74.6699 346.634C74.6699 348.812 76.5399 350.264 78.9599 350.264C80.1919 350.264 81.4899 349.78 82.3039 348.856V350H85.4059V343.202C85.4059 340.232 83.3819 338.362 80.4119 338.362ZM79.6859 348.042C78.5859 348.042 77.7719 347.47 77.7719 346.546C77.7719 345.622 78.6959 344.94 79.8619 344.94C80.7419 344.94 81.5779 345.094 82.3039 345.358V346.414C82.0839 347.47 80.9179 348.042 79.6859 348.042ZM91.9191 350H94.8891L99.7511 338.626H96.4071L93.4151 346.304L90.3571 338.626H86.9911L91.9191 350ZM106.114 347.426C104.772 347.426 103.782 346.59 103.408 345.358H111.614C111.614 341.068 109.524 338.362 105.96 338.362C102.638 338.362 100.108 340.848 100.108 344.28C100.108 347.778 102.748 350.264 106.136 350.264C107.808 350.264 109.766 349.56 110.778 348.504L108.732 346.414C108.116 347.008 107.016 347.426 106.114 347.426ZM106.092 341.2C107.39 341.2 108.226 341.926 108.534 343.048H103.452C103.87 341.904 104.882 341.2 106.092 341.2ZM125.013 338.362C123.429 338.362 121.867 338.802 120.261 339.616L121.339 341.75C122.241 341.288 123.231 340.936 124.287 340.936C126.157 340.936 126.905 341.992 126.905 343.202V343.422C125.937 343.048 124.925 342.85 124.001 342.85C121.361 342.85 119.271 344.39 119.271 346.634C119.271 348.812 121.141 350.264 123.561 350.264C124.793 350.264 126.091 349.78 126.905 348.856V350H130.007V343.202C130.007 340.232 127.983 338.362 125.013 338.362ZM124.287 348.042C123.187 348.042 122.373 347.47 122.373 346.546C122.373 345.622 123.297 344.94 124.463 344.94C125.343 344.94 126.179 345.094 126.905 345.358V346.414C126.685 347.47 125.519 348.042 124.287 348.042ZM136.983 350.264C139.777 350.264 141.603 348.834 141.603 346.59C141.603 344.104 139.425 343.444 137.467 342.938C135.927 342.52 135.465 342.344 135.465 341.728C135.465 341.332 136.015 341.046 136.807 341.046C137.775 341.046 138.963 341.42 139.997 342.058L141.295 339.77C140.041 338.934 138.435 338.362 136.807 338.362C134.123 338.362 132.341 339.902 132.363 342.058C132.385 344.302 134.189 344.94 136.521 345.512C137.687 345.82 138.523 346.04 138.523 346.744C138.523 347.25 137.907 347.602 137.049 347.602C135.531 347.602 134.255 347.052 133.243 346.326L131.857 348.548C133.221 349.648 135.157 350.264 136.983 350.264ZM149.99 350H153.224V345.094H156.788C160.066 345.094 162.486 342.982 162.486 339.99C162.486 336.998 160.066 334.886 156.788 334.886H149.99V350ZM153.224 342.124V337.856H156.436C158.042 337.856 159.142 338.692 159.142 339.99C159.142 341.288 158.042 342.124 156.436 342.124H153.224ZM164.646 350H170.058C175.14 350 178.748 346.854 178.748 342.432C178.748 338.01 175.14 334.886 170.058 334.886H164.646V350ZM167.88 347.052V337.834H170.476C173.358 337.834 175.404 339.748 175.404 342.432C175.404 345.138 173.358 347.052 170.476 347.052H167.88ZM192.888 337.812V334.886H181.25V350H184.506V344.016H192.096V341.09H184.506V337.812H192.888Z" fill="#1AB8EC"/>
<path d="M61.628 427H69.57C72.452 427 74.52 425.328 74.52 422.908C74.52 421.236 73.508 419.828 71.748 419.036C73.09 418.332 73.86 417.21 73.86 415.67C73.86 413.47 71.99 411.886 69.284 411.886H61.628V427ZM64.862 417.98V414.658H68.47C69.68 414.658 70.538 415.362 70.538 416.308C70.538 417.276 69.68 417.98 68.47 417.98H64.862ZM64.862 424.228V420.532H68.976C70.274 420.532 71.198 421.302 71.198 422.38C71.198 423.458 70.274 424.228 68.976 424.228H64.862ZM84.3148 427.264C86.6028 427.264 88.7148 426.274 90.1888 424.734L87.8348 422.622C86.9548 423.634 85.7008 424.316 84.3148 424.316C81.7848 424.316 79.6288 422.072 79.6288 419.432C79.6288 416.814 81.7848 414.57 84.3148 414.57C85.7008 414.57 86.9548 415.252 87.8348 416.264L90.1888 414.152C88.7148 412.59 86.6028 411.622 84.3148 411.622C79.9808 411.622 76.2848 415.186 76.2848 419.432C76.2848 423.678 79.9808 427.264 84.3148 427.264ZM92.3292 427H97.7412C102.823 427 106.431 423.854 106.431 419.432C106.431 415.01 102.823 411.886 97.7412 411.886H92.3292V427ZM95.5632 424.052V414.834H98.1592C101.041 414.834 103.087 416.748 103.087 419.432C103.087 422.138 101.041 424.052 98.1592 424.052H95.5632ZM122.514 427.264C124.802 427.264 126.914 426.274 128.388 424.734L126.034 422.622C125.154 423.634 123.9 424.316 122.514 424.316C119.984 424.316 117.828 422.072 117.828 419.432C117.828 416.814 119.984 414.57 122.514 414.57C123.9 414.57 125.154 415.252 126.034 416.264L128.388 414.152C126.914 412.59 124.802 411.622 122.514 411.622C118.18 411.622 114.484 415.186 114.484 419.432C114.484 423.678 118.18 427.264 122.514 427.264ZM137.854 415.626V422.424L137.832 422.358C137.832 423.59 136.798 424.558 135.456 424.558C134.18 424.558 133.3 423.59 133.3 422.182V415.626H130.198V422.864C130.198 425.438 131.958 427.264 134.422 427.264C135.896 427.264 137.172 426.604 137.854 425.57V427H141.066V415.626H137.854ZM148.09 427.264C150.884 427.264 152.71 425.834 152.71 423.59C152.71 421.104 150.532 420.444 148.574 419.938C147.034 419.52 146.572 419.344 146.572 418.728C146.572 418.332 147.122 418.046 147.914 418.046C148.882 418.046 150.07 418.42 151.104 419.058L152.402 416.77C151.148 415.934 149.542 415.362 147.914 415.362C145.23 415.362 143.448 416.902 143.47 419.058C143.492 421.302 145.296 421.94 147.628 422.512C148.794 422.82 149.63 423.04 149.63 423.744C149.63 424.25 149.014 424.602 148.156 424.602C146.638 424.602 145.362 424.052 144.35 423.326L142.964 425.548C144.328 426.648 146.264 427.264 148.09 427.264ZM160.849 424.184C160.629 424.404 160.189 424.558 159.749 424.558C159.155 424.558 158.671 424.03 158.671 423.282V418.222H161.135V415.626H158.671V412.502H155.591V415.626H154.029V418.222H155.591V423.788C155.591 425.834 156.999 427.264 159.001 427.264C159.925 427.264 160.959 426.868 161.619 426.274L160.849 424.184ZM169.219 427.264C172.585 427.264 175.401 424.536 175.401 421.302C175.401 418.068 172.585 415.362 169.219 415.362C165.831 415.362 162.993 418.068 162.993 421.302C162.993 424.536 165.831 427.264 169.219 427.264ZM169.219 424.558C167.503 424.558 166.073 423.062 166.073 421.302C166.073 419.542 167.503 418.068 169.219 418.068C170.913 418.068 172.343 419.542 172.343 421.302C172.343 423.062 170.913 424.558 169.219 424.558ZM191.104 415.362C189.41 415.362 188.002 416.176 187.408 417.43C186.704 416.154 185.362 415.362 183.8 415.362C182.392 415.362 181.27 416.044 180.72 417.122V415.626H177.508V427H180.72V420.136C180.72 418.926 181.622 418.068 182.92 418.068C184.086 418.068 184.922 418.992 184.922 420.312V427.022H188.002V420.136C188.002 418.926 188.926 418.068 190.202 418.068C191.39 418.068 192.226 418.992 192.226 420.312V427.022H195.306V419.762C195.306 417.188 193.48 415.362 191.104 415.362ZM199.612 414.064C200.558 414.064 201.328 413.272 201.328 412.304C201.328 411.402 200.558 410.588 199.612 410.588C198.622 410.588 197.852 411.402 197.852 412.304C197.852 413.272 198.622 414.064 199.612 414.064ZM197.984 427H201.196V415.626H197.984V427ZM203.494 427H213.438V424.272H207.674L213.394 417.892V415.626H203.648V418.354H209.214L203.494 424.734V427ZM220.791 415.362C219.207 415.362 217.645 415.802 216.039 416.616L217.117 418.75C218.019 418.288 219.009 417.936 220.065 417.936C221.935 417.936 222.683 418.992 222.683 420.202V420.422C221.715 420.048 220.703 419.85 219.779 419.85C217.139 419.85 215.049 421.39 215.049 423.634C215.049 425.812 216.919 427.264 219.339 427.264C220.571 427.264 221.869 426.78 222.683 425.856V427H225.785V420.202C225.785 417.232 223.761 415.362 220.791 415.362ZM220.065 425.042C218.965 425.042 218.151 424.47 218.151 423.546C218.151 422.622 219.075 421.94 220.241 421.94C221.121 421.94 221.957 422.094 222.683 422.358V423.414C222.463 424.47 221.297 425.042 220.065 425.042ZM234.476 424.184C234.256 424.404 233.816 424.558 233.376 424.558C232.782 424.558 232.298 424.03 232.298 423.282V418.222H234.762V415.626H232.298V412.502H229.218V415.626H227.656V418.222H229.218V423.788C229.218 425.834 230.626 427.264 232.628 427.264C233.552 427.264 234.586 426.868 235.246 426.274L234.476 424.184ZM238.864 414.064C239.81 414.064 240.58 413.272 240.58 412.304C240.58 411.402 239.81 410.588 238.864 410.588C237.874 410.588 237.104 411.402 237.104 412.304C237.104 413.272 237.874 414.064 238.864 414.064ZM237.236 427H240.448V415.626H237.236V427ZM248.84 427.264C252.206 427.264 255.022 424.536 255.022 421.302C255.022 418.068 252.206 415.362 248.84 415.362C245.452 415.362 242.614 418.068 242.614 421.302C242.614 424.536 245.452 427.264 248.84 427.264ZM248.84 424.558C247.124 424.558 245.694 423.062 245.694 421.302C245.694 419.542 247.124 418.068 248.84 418.068C250.534 418.068 251.964 419.542 251.964 421.302C251.964 423.062 250.534 424.558 248.84 424.558ZM263.773 415.362C262.299 415.362 261.023 416.022 260.341 417.056V415.626H257.129V427H260.341V420.202L260.363 420.268C260.363 419.036 261.397 418.068 262.739 418.068C264.015 418.068 264.895 419.036 264.895 420.444V427H267.997V419.762C267.997 417.188 266.237 415.362 263.773 415.362Z" fill="#1AB8EC"/>
<path d="M343.626 93.2736H338.747L342.27 89.7732H336.204L339.717 86.2828H334C334.127 86.1344 334.193 86.0485 334.268 85.9725C336.301 83.9531 338.303 81.9012 340.375 79.9235C342.851 77.5568 345.856 76.1761 349.416 76.0052C350.162 75.9699 350.933 76.1219 351.671 76.2766C352.493 76.4548 353.302 76.6805 354.094 76.9524C355.075 77.279 356.054 77.3043 357.062 77.1143C357.807 76.9741 358.559 76.975 359.282 77.2301C360.425 77.6318 361.158 78.3828 361.345 79.53C361.502 80.4917 362.02 81.1974 362.956 81.5927C364.137 82.0939 365.341 82.5481 366.539 83.0168C367.182 83.2674 367.834 83.4963 368.476 83.7487C369.344 84.0925 369.907 84.6534 369.923 85.597C369.942 86.5977 370.049 87.6037 369.973 88.598C369.898 89.5923 369.272 90.4264 368.742 91.2715C368.521 91.6243 368.123 91.713 367.704 91.7555C367.456 91.7819 367.215 91.8532 366.996 91.9654C366.586 92.1771 366.193 92.4177 365.805 92.6656C365.033 93.1542 364.22 93.1822 363.347 92.937C362.515 92.7063 361.675 92.4476 360.819 92.3571C359.97 92.2553 359.11 92.276 358.268 92.4186C356.397 92.7697 355.406 94.0263 355.122 95.6946C354.822 97.4643 354.705 99.262 354.543 101.051C354.455 102.011 354.439 102.977 354.388 104C354.002 103.9 353.644 103.819 353.294 103.715C349.055 102.438 345.426 100.228 342.27 97.3032C342.09 97.1368 342.101 97.0029 342.181 96.8111C342.659 95.6548 343.128 94.4959 343.626 93.2736Z" fill="url(#paint1_linear)"/>
<defs>
<filter id="filter0_d" x="52" y="0" width="387" height="420" filterUnits="userSpaceOnUse" color-interpolation-filters="sRGB">
<feFlood flood-opacity="0" result="BackgroundImageFix"/>
<feColorMatrix in="SourceAlpha" type="matrix" values="0 0 0 0 0 0 0 0 0 0 0 0 0 0 0 0 0 0 127 0"/>
<feOffset/>
<feGaussianBlur stdDeviation="4"/>
<feColorMatrix type="matrix" values="0 0 0 0 0.12549 0 0 0 0 0.0666667 0 0 0 0 0.223529 0 0 0 0.1 0"/>
<feBlend mode="normal" in2="BackgroundImageFix" result="effect1_dropShadow"/>
<feBlend mode="normal" in="SourceGraphic" in2="effect1_dropShadow" result="shape"/>
</filter>
<filter id="filter1_d" x="0" y="129" width="396" height="355" filterUnits="userSpaceOnUse" color-interpolation-filters="sRGB">
<feFlood flood-opacity="0" result="BackgroundImageFix"/>
<feColorMatrix in="SourceAlpha" type="matrix" values="0 0 0 0 0 0 0 0 0 0 0 0 0 0 0 0 0 0 127 0"/>
<feOffset/>
<feGaussianBlur stdDeviation="7"/>
<feColorMatrix type="matrix" values="0 0 0 0 0.223529 0 0 0 0 0.101961 0 0 0 0 0.431373 0 0 0 0.11 0"/>
<feBlend mode="normal" in2="BackgroundImageFix" result="effect1_dropShadow"/>
<feBlend mode="normal" in="SourceGraphic" in2="effect1_dropShadow" result="shape"/>
</filter>
<linearGradient id="paint0_linear" x1="1211.39" y1="3.05731" x2="431.066" y2="558.191" gradientUnits="userSpaceOnUse">
<stop offset="0.546875" stop-color="#51FDBD"/>
<stop offset="1" stop-color="#19D7E1"/>
</linearGradient>
<linearGradient id="paint1_linear" x1="445.725" y1="73.0573" x2="332.225" y2="80.8924" gradientUnits="userSpaceOnUse">
<stop offset="0.546875" stop-color="#51FDBD"/>
<stop offset="1" stop-color="#19D7E1"/>
</linearGradient>
</defs>
</svg>
