<svg viewBox="0 0 60 60" fill="none" xmlns="http://www.w3.org/2000/svg">
  <circle cx="30" cy="30" r="30" fill="white" />
  <path
    d="M35.45 32.5C35.55 31.675 35.625 30.85 35.625 30C35.625 29.15 35.55 28.325 35.45 27.5H39.675C39.875 28.3 40 29.1375 40 30C40 30.8625 39.875 31.7 39.675 32.5M33.2375 39.45C33.9875 38.0625 34.5625 36.5625 34.9625 35H38.65C37.45 37.0625 35.5375 38.6625 33.2375 39.45ZM32.925 32.5H27.075C26.95 31.675 26.875 30.85 26.875 30C26.875 29.15 26.95 28.3125 27.075 27.5H32.925C33.0375 28.3125 33.125 29.15 33.125 30C33.125 30.85 33.0375 31.675 32.925 32.5ZM30 39.95C28.9625 38.45 28.125 36.7875 27.6125 35H32.3875C31.875 36.7875 31.0375 38.45 30 39.95ZM25 25H21.35C22.5375 22.925 24.4625 21.325 26.75 20.55C26 21.9375 25.4375 23.4375 25 25ZM21.35 35H25C25.4375 36.5625 26 38.0625 26.75 39.45C24.4625 38.6625 22.5375 37.0625 21.35 35ZM20.325 32.5C20.125 31.7 20 30.8625 20 30C20 29.1375 20.125 28.3 20.325 27.5H24.55C24.45 28.325 24.375 29.15 24.375 30C24.375 30.85 24.45 31.675 24.55 32.5M30 20.0375C31.0375 21.5375 31.875 23.2125 32.3875 25H27.6125C28.125 23.2125 28.9625 21.5375 30 20.0375ZM38.65 25H34.9625C34.5625 23.4375 33.9875 21.9375 33.2375 20.55C35.5375 21.3375 37.45 22.925 38.65 25ZM30 17.5C23.0875 17.5 17.5 23.125 17.5 30C17.5 33.3152 18.817 36.4946 21.1612 38.8388C22.3219 39.9996 23.6999 40.9203 25.2165 41.5485C26.733 42.1767 28.3585 42.5 30 42.5C33.3152 42.5 36.4946 41.183 38.8388 38.8388C41.183 36.4946 42.5 33.3152 42.5 30C42.5 28.3585 42.1767 26.733 41.5485 25.2165C40.9203 23.6999 39.9996 22.3219 38.8388 21.1612C37.6781 20.0004 36.3001 19.0797 34.7835 18.4515C33.267 17.8233 31.6415 17.5 30 17.5Z"
    fill="#187B7F" />
</svg>
