<?xml version="1.0" encoding="UTF-8" standalone="no"?>
<svg viewBox="0 0 1266 367" fill="none" version="1.1" id="svg69" xmlns="http://www.w3.org/2000/svg">
  <g opacity="0.8" id="g1" />
  <ellipse cx="212.5" cy="333.5" rx="212.5" ry="11.5" fill="#FCEFE2" id="ellipse1" />
  <path
    d="M87.7857 315.778C89.2678 313.556 88.7738 313 88.7738 313H97.1725C97.1725 313 96.8547 316.08 97.1725 318C97.4743 319.822 98.4121 320.611 98.6547 322.444C98.825 323.732 99.3383 324.727 98.6547 325.778C98.0411 326.721 96.1844 326.889 96.1844 326.889H78.8928V321.333C78.8928 321.333 86.3035 318 87.7857 315.778Z"
    fill="#F4D4B8" id="path2" />
  <path
    d="M74.4464 328V323C74.4464 323 72.8116 323.417 71.9762 324.111C70.8575 325.041 70 327.444 70 327.444L74.4464 328Z"
    fill="#F4D4B8" id="path3" />
  <path
    d="M134.5 318C136 316 135 313 135 313H144C144 313 144.678 314.772 145 316.5C145.305 318.14 145 320 148.5 322.5C149.453 323.181 149.692 325.555 149 326.5C148.379 327.349 146.5 327.5 146.5 327.5L127 328V322.5C127 322.5 133 320 134.5 318Z"
    fill="#F4D4B8" id="path4" />
  <path d="M124.5 328.5V324C124.5 324 122.846 324.375 122 325C120.868 325.837 120 328 120 328L124.5 328.5Z"
    fill="#F4D4B8" id="path5" />
  <path
    d="M111 135V132.5L117.5 131L118 135H122.5C122.5 135 117.843 142.172 115.5 141C113.157 139.828 110.343 136.172 108 135H111Z"
    fill="#F4D4B8" id="path6" />
  <path
    d="M91.3417 199.834L91.6475 190.5H86.0132C86.0132 190.5 73.2625 184.608 71.3925 183.419C69.5297 182.235 69 180.694 69 180.694L71.3925 167.343L74.084 158.411C74.084 158.411 79.3174 146.037 86.0132 141.473C90.0487 138.722 92.3447 137.591 96.8125 136.083C100.436 134.859 107.5 134.997 107.5 134.997L111.715 137.394C111.715 137.394 114 138.999 115.5 139.999C115.5 139.999 116.665 140.222 118.5 138.999C121.5 136.999 123 134.999 123 134.999L130 136.5C130 136.5 136.693 138.559 139.5 141C142.993 144.037 147 149.5 147 149.5L152 158.411L160 143L171 154.5L163 175.381C163 175.381 155.476 187.444 148 187.284C139.165 187.094 136.239 169.96 135.63 165.534L138.358 187.284L138.045 197.01C137.544 202.464 108.581 205.796 91.3417 199.834Z"
    fill="#F9CFA6" id="path7" />
  <path d="M152 158.5L160 143L171 155" stroke="black" stroke-width="0.5" stroke-linecap="round" id="path8" />
  <path
    d="M87.4992 174.5C87.4992 174.5 87.9312 170.087 88.9992 167.505C90.273 164.426 93.878 160.505 93.878 160.505L93.878 175.581L87.4992 174.5Z"
    fill="white" id="path9" />
  <path
    d="M110.001 178.5L109.945 188.5C109.945 188.5 122 192.5 123.501 192C125.002 191.5 124 191.5 124 191.5M127.5 181.5C127.5 181.5 129.002 182 127.001 182.5C125 183 118.001 183 118.001 183M129 185C129 185 130.001 185.5 128.501 186C127.001 186.5 118.501 185.5 118.501 185.5M127.001 188C127.001 188 128.002 189 126.001 189C124 189 118.001 187.5 118.001 187.5"
    stroke="black" stroke-linecap="round" id="path10" />
  <path d="M116 179.5C116 179.5 117.971 178.461 119 177.5C119.914 176.647 121 175 121 175" stroke="black"
    stroke-linecap="round" id="path11" />
  <path
    d="M110.001 178.499C110.001 178.499 122.309 171.637 120.501 175.499C120.111 176.333 119.331 177.094 118.501 177.724C117.075 178.806 115.501 179.499 115.501 179.499L127.001 180.999C127.001 180.999 129.002 181.999 127.001 182.499C125 182.999 118.001 182.999 118.001 182.999L128.501 184.499C128.501 184.499 130.001 185.499 128.501 185.999C127.001 186.499 118.501 185.499 118.501 185.499L126.501 186.999C126.501 186.999 128.002 188.999 126.001 188.999C124 188.999 118.001 187.499 118.001 187.499L124.001 190.499C124.001 190.499 125.002 191.499 123.501 191.999C122 192.499 109.945 188.499 109.945 188.499L110.001 178.499Z"
    fill="#F4D4B8" id="path12" />
  <path
    d="M161.025 143.251L168.502 152C168.502 152 180.33 145.134 181.279 143.661C182.227 142.188 181.377 142.918 181.377 142.918M177.836 132.779C177.836 132.779 179.437 132.064 178.064 133.901C176.691 135.738 170.748 140.837 170.748 140.837M181.389 134.342C181.389 134.342 182.565 133.992 181.617 135.465C180.669 136.937 172.801 142.37 172.801 142.37M181.645 138.075C181.645 138.075 183.146 138.105 181.448 139.563C179.749 141.02 173.678 144.252 173.678 144.252"
    stroke="black" stroke-linecap="round" id="path13" />
  <path
    d="M162.118 143.6C162.118 143.6 157.107 133.086 161 135.007C162 135.5 166.5 139.067 166.5 139.067L176.5 132.5C176.5 132.5 179.486 131.705 178.224 133.568C176.962 135.43 171.353 140.667 171.353 140.667L180.791 133.907C180.791 133.907 182.676 133.516 181.815 135.004C180.954 136.491 173.46 142.12 173.46 142.12L180.895 137.231C180.895 137.231 183.462 137.57 181.859 139.067C180.255 140.564 174.424 143.956 174.424 143.956L181.28 141.66C181.28 141.66 182.764 141.642 181.903 143.13C181.041 144.619 168.501 151.489 168.501 151.489L162.118 143.6Z"
    fill="#F4D4B8" id="path14" />
  <path
    d="M168.971 145.526C168.971 145.526 169.025 143.462 168.661 142.102C168.338 140.894 166.543 139.164 166.543 139.164"
    stroke="black" stroke-width="0.5" stroke-linecap="round" id="path15" />
  <path d="M94 160.5V175.5" stroke="black" stroke-width="0.5" stroke-linecap="round" id="path16" />
  <path
    d="M76.0855 262.22C77.2036 237.253 91.5 198.527 91.5 198.527C91.5 198.527 90.0693 202.999 112.543 203C135.017 203.001 137.514 198 137.514 198C137.514 198 136.025 227.793 137.514 246.787C139.571 273.018 150 313 150 313H119.036L107.549 238.822L100.058 262.22L110.046 313H81.5792C81.5792 313 75.1932 282.146 76.0855 262.22Z"
    fill="#94B1EB" id="path17" />
  <path
    d="M91.8676 199.965C91.8676 199.965 91.3309 202.999 113.5 203C135.669 203.001 137.684 198 137.684 198C137.684 198 136.215 227.41 137.684 246.16C139.712 272.054 150 311.522 150 311.522M83 312.997C83 312.997 91.4037 313.004 96.7941 312.997C102.377 312.99 110.096 312.997 110.096 312.997L105.5 287L100.5 262L108.125 238.297"
    stroke="black" stroke-width="0.5" stroke-linecap="round" id="path18" />
  <path d="M109.5 178.5L87 175" stroke="black" stroke-width="0.5" stroke-linecap="round" id="path19" />
  <path d="M92 191L91.5 199.5C91.5 199.5 92.5 203 114.5 203C136.5 203 138 197.5 138 197.5" stroke="black"
    stroke-width="0.5" stroke-linecap="round" id="path20" />
  <path
    d="M123.717 119.888C120.573 128.916 120.523 130.002 112.521 133.012C105.378 130.549 102.234 129.73 101.377 119.333C103.663 108.939 110.01 104.375 116.48 104.375C120.481 106.29 126.375 110.096 123.717 119.888Z"
    fill="#F4D4B8" id="path21" />
  <path d="M109.547 124.211C112.147 126.127 113.706 126.687 116.775 126.161" stroke="black" stroke-width="0.5"
    stroke-linecap="round" stroke-linejoin="round" id="path22" />
  <path
    d="M113.437 123.105H116.773L116.495 116.697C116.929 116.262 117.229 115.751 117.607 115.304C118.077 114.747 118.232 114.709 118.719 114.468C119.887 113.891 122.055 114.468 122.055 114.468L122.611 115.861M107.042 115.583C107.042 115.583 108.329 114.724 109.266 114.468C110.523 114.125 111.384 114.005 112.603 114.468C113.476 114.801 114.549 115.861 114.549 115.861M102.939 126.248C102.939 126.248 106.064 132.02 112.046 132.578C113.255 132.69 115.105 132.02 115.105 132.02"
    stroke="black" stroke-width="0.5" stroke-linecap="round" stroke-linejoin="round" id="path23" />
  <ellipse cx="119.555" cy="117.797" rx="0.834189" ry="0.835943" fill="#0F0F0F" id="ellipse23" />
  <ellipse cx="111.586" cy="117.18" rx="0.834189" ry="0.835943" fill="#0F0F0F" id="ellipse24" />
  <path fill-rule="evenodd" clip-rule="evenodd"
    d="M110.702 96.8838C109.328 94.7772 106.262 93.8849 103.292 94.8888C99.8785 96.0426 97.884 99.2638 98.837 102.084C99.1621 103.045 99.7881 103.836 100.607 104.415C99.4657 106.587 98.8139 109.043 98.8141 111.53C98.8143 112.801 98.837 114.439 99.3818 114.65C100.383 114.65 101.026 114.436 101.579 114.061L101.649 114.076C101.649 114.076 102.47 119.981 101.082 123.72C101.002 123.934 100.929 124.142 100.857 124.344C100.541 125.237 100.261 126.026 99.6636 126.84C98.4968 128.431 95.125 130.528 95.125 130.528C95.125 130.528 98.0499 130.341 99.0963 129.961C101.163 129.21 101.94 127.736 102.784 125.706C103.093 124.961 103.351 123.72 103.351 123.72V117.763C103.351 116.87 104.486 115.778 104.486 115.778L105.597 110.499C105.812 110.347 106.035 110.191 106.265 110.032L114.447 105.51C115.369 105.194 116.227 105.007 116.968 105.006C118.1 105.006 118.847 106.16 119.542 107.234C119.911 107.805 120.266 108.353 120.656 108.693C121.513 109.441 122.242 110.243 122.856 110.963C123.08 111.225 123.288 111.476 123.482 111.71L123.482 111.71L123.483 111.71C123.605 111.857 123.721 111.997 123.831 112.129C123.992 112.801 124.048 113.836 123.822 115.431C123.208 119.761 123.254 121.387 123.254 121.387C123.254 121.387 124.059 120.045 124.626 119.194C125.107 118.472 125.01 114.429 124.969 113.219C125.457 113.41 125.667 112.705 125.666 110.399C125.666 108.578 125.313 106.841 124.671 105.253C126.345 104.775 127.683 103.658 128.216 102.084C129.169 99.2638 127.174 96.0426 123.761 94.8888C120.577 93.8127 117.283 94.9154 116.081 97.3569C114.853 96.9844 113.553 96.7843 112.205 96.7845C111.697 96.7845 111.196 96.8184 110.702 96.8838Z"
    fill="black" id="path24" />
  <path
    d="M74.6094 322.5C74.6094 322.5 75.7859 321.791 76.6094 321.5C77.5483 321.169 79.1094 321 79.1094 321V328.5H74.6094V322.5Z"
    fill="#83BB9E" id="path25" />
  <path
    d="M70.6098 326L70.1098 327L100.61 326.5C100.61 326.5 101.11 327.695 101.11 328.5C101.11 329.305 100.61 330.5 100.61 330.5H69.6098C69.6098 330.5 69.2247 329.921 69.1098 329.5C68.9557 328.935 68.9713 328.569 69.1098 328C69.3405 327.051 70.6098 326 70.6098 326Z"
    fill="#83BB9E" id="path26" />
  <path d="M100.609 326.5H79.1094V321.5" stroke="black" stroke-width="0.5" id="path27" />
  <path
    d="M124.61 323.5C124.61 323.5 122.787 324.291 123.61 324C124 323.862 124.534 322.485 125.61 322C127.123 321.318 128.718 321 128.718 321L128.72 329H124.22L124.61 323.5Z"
    fill="#83BB9E" id="path28" />
  <path
    d="M121.109 326.5L120.609 327.5L150.219 327C150.219 327 150.719 328.195 150.719 329C150.719 329.805 150.219 331 150.219 331H119.219C119.219 331 118.834 330.421 118.719 330C118.565 329.435 118.581 329.069 118.719 328.5C118.95 327.551 121.109 326.5 121.109 326.5Z"
    fill="#83BB9E" id="path29" />
  <path d="M150.219 327H128.719V322" stroke="black" stroke-width="0.5" id="path30" />
  <path
    d="M450 332.479C450 332.479 478.891 333.645 506.023 334.076L552.5 332.479C550.31 334.279 528.786 334.436 506.023 334.076L450 336V332.479Z"
    fill="#CDCDCD" id="path35" />
  <path
    d="M552.5 332.479C547.7 336.424 450 332.479 450 332.479V336L552.5 332.479ZM552.5 332.479C557.3 328.534 545.78 284.971 552.5 283C559.22 281.029 668.14 280.761 671.5 278C674.86 275.239 668.14 241.295 671.5 235.766C674.86 230.237 747 235.766 747 235.766C747 218.192 747 201.683 747 193.001C747 184.319 769.976 185.329 788 184.052C804.995 182.848 1074.24 186.422 1080 184.052"
    stroke="#CDCDCD" id="path36" />
  <path
    d="M879 110.328C873.768 113.745 869.13 109.117 863 110.328C861.42 110.64 860 111.828 860 111.828L857 110.328C857 110.328 853.855 110.605 852 111.328C848.01 112.883 848.168 119.812 844 118.828C839.906 117.862 840 108.828 840 108.828L833 112.328C833 112.328 834.6 127.615 841.5 127.828C846.898 127.995 852 118.828 852 118.828L851 133.328L868.5 134.828L867 118.828C867 118.828 877.981 119.354 883.5 115.828C887.463 113.296 891.5 106.828 891.5 106.828L885 102.328C885 102.328 882.27 108.193 879 110.328Z"
    fill="#F0BE91" id="path37" />
  <path
    d="M834 100.328L833 106.328V108.329L834.5 111.828L838.5 109.828V109.328L840 106.829L839 105.329L837 105.328L838.5 100.829C838.5 100.829 837.5 98.3289 837 100.328C836.5 102.328 835 105.328 835 105.328C835 105.328 835.5 101.828 835.5 100.328C835.5 98.8289 834 100.328 834 100.328Z"
    fill="#F4D4B8" id="path38" />
  <path
    d="M887 100.828L886.5 103.328L890.5 106.33C890.5 106.33 891.767 103.973 892.5 103.329C893.892 102.106 894.721 103.168 896 101.828C897.888 99.8507 896.731 97.7688 895.5 95.3281C894.937 94.2119 892.701 94.178 891.5 93.8291C890.314 93.4844 887.703 94.3181 887 95.3336C886.333 96.2967 886.744 99.6853 887 100.828Z"
    fill="#F4D4B8" id="path39" />
  <path
    d="M821 144.328L825 147.828C825 147.828 822.223 155.686 821 153.328C820.371 152.115 821 149.828 821 149.828C821 149.828 818.372 153.561 816 153.328C814.696 153.2 813 151.828 813 151.828L821 144.328Z"
    fill="#FFF8F8" stroke="#7C6063" id="path40" />
  <path d="M822 145.828L814.5 152.828" stroke="#7C6063" id="path41" />
  <path
    d="M873.659 180.576L871.416 175.757C871.416 175.757 877.135 169.695 877.3 172.345C877.384 173.71 875.884 175.546 875.884 175.546C875.884 175.546 879.797 173.196 881.872 174.368C883.012 175.013 884.009 176.954 884.009 176.954L873.659 180.576Z"
    fill="#FFF8F8" stroke="#7C6063" id="path42" />
  <path d="M873.35 178.802L883.041 175.434" stroke="#7C6063" id="path43" />
  <path
    d="M845 147.828L851 133.328L868 134.828L876.5 154.828L879.5 170.828L870.5 176.328L865 156.828L858 146.328L846 158.828L821 155.828L826.5 146.328L845 147.828Z"
    fill="#94B1EB" id="path44" />
  <path d="M858 110.828L858.5 108.828H862L862.229 110.828L860 112.828L858 110.828Z" fill="#F4D4B8" id="path45" />
  <path
    d="M865.344 103.112C864.633 106.855 864.693 107.277 861.361 109.14C857.992 108.827 856.531 108.79 855.356 104.875C855.581 100.683 858.058 98.3691 860.939 97.7967C862.866 98.1779 865.781 99.1173 865.344 103.112Z"
    fill="#F4D4B8" id="path46" />
  <path d="M859.648 106.57C860.661 107.659 862.036 106.879 862.919 106.191L859.648 106.57Z" fill="black" stroke="black"
    stroke-width="0.5" stroke-linecap="round" stroke-linejoin="round" id="path47" />
  <path
    d="M861.012 105.253L862.498 104.958L861.844 103.348M862.668 102.367C862.63 102.172 862.837 101.926 863.051 101.73C863.343 101.463 863.651 101.209 864.003 101.388C864.285 101.53 864.377 102.105 864.377 102.105M858.122 103.27C858.122 103.27 858.163 102.803 858.56 102.622C859.094 102.379 859.22 102.306 859.798 102.376C860.212 102.427 860.539 102.868 860.539 102.868M856.579 107.388C856.579 107.388 858.41 109.327 861.116 109.012C861.663 108.948 862.435 108.528 862.435 108.528"
    stroke="black" stroke-width="0.5" stroke-linecap="round" stroke-linejoin="round" id="path48" />
  <path fill-rule="evenodd" clip-rule="evenodd"
    d="M857.794 95.4291C857.021 94.7419 855.588 94.6706 854.342 95.3187C852.911 96.0636 852.268 97.4766 852.908 98.4748C853.126 98.8155 853.465 99.0638 853.875 99.2135C853.532 100.148 853.43 101.148 853.619 102.103C853.716 102.591 853.851 103.217 854.11 103.25C854.554 103.162 854.823 103.024 855.04 102.833L855.076 102.832C855.076 102.832 855.892 105.026 855.559 106.584C855.54 106.673 855.523 106.76 855.506 106.844C855.434 107.214 855.369 107.542 855.166 107.907C854.767 108.621 853.426 109.724 853.426 109.724C853.426 109.724 854.714 109.394 855.151 109.155C856.014 108.684 856.247 108.05 856.468 107.196C856.549 106.883 856.569 106.383 856.569 106.383L856.115 104.097C856.047 103.754 856.469 103.234 856.469 103.234L856.561 101.107C856.64 101.034 856.721 100.96 856.805 100.884L860.132 98.4026C860.514 98.2028 860.878 98.0574 861.204 97.9925C861.708 97.8923 862.128 98.2691 862.52 98.6199C862.728 98.8063 862.927 98.9853 863.127 99.0815C863.566 99.2926 863.951 99.5361 864.28 99.758C864.399 99.8389 864.511 99.9169 864.615 99.9894L864.615 99.9896L864.615 99.9896C864.68 100.035 864.742 100.077 864.8 100.118C864.924 100.361 865.028 100.754 865.049 101.389C865.106 103.106 865.251 103.726 865.251 103.726C865.251 103.726 865.507 103.139 865.694 102.762C865.854 102.442 865.501 100.896 865.391 100.437C865.624 100.468 865.664 100.18 865.488 99.293C865.349 98.596 865.06 97.9619 864.656 97.4103C865.362 97.0786 865.872 96.5322 865.988 95.8817C866.198 94.7149 865.064 93.6548 863.456 93.5139C861.959 93.3827 860.58 94.0944 860.227 95.1347C859.652 95.1 859.057 95.1383 858.456 95.2576C858.23 95.3027 858.009 95.3602 857.794 95.4291Z"
    fill="black" id="path49" />
  <path
    d="M857 110.33C857 110.33 856.5 109.83 852 111.33C847.5 112.83 849.5 116.332 846 118.33C842.5 120.328 840.5 113.828 840.5 113.828"
    stroke="black" stroke-width="0.5" id="path50" />
  <path
    d="M835.749 99.8525C835.761 99.715 835.66 99.5934 835.523 99.5809C835.385 99.5684 835.264 99.6697 835.251 99.8072L835.749 99.8525ZM835 105.33L834.751 105.307L835.235 105.415L835 105.33ZM838.5 100.83L838.737 100.909L838.76 100.84L838.743 100.769L838.5 100.83ZM837 105.33L836.763 105.251L836.612 105.704L837.07 105.57L837 105.33ZM839 105.33L839.124 105.113L839 105.33ZM838.5 109.33L838.3 109.18L838.25 109.247V109.33H838.5ZM835.251 99.8072L834.751 105.307L835.249 105.352L835.749 99.8525L835.251 99.8072ZM835 105.33C835.235 105.415 835.235 105.415 835.235 105.415C835.235 105.415 835.235 105.415 835.235 105.415C835.235 105.415 835.235 105.415 835.235 105.414C835.236 105.414 835.236 105.413 835.236 105.411C835.237 105.409 835.239 105.405 835.241 105.4C835.244 105.389 835.25 105.374 835.257 105.354C835.272 105.313 835.294 105.254 835.322 105.179C835.377 105.028 835.457 104.811 835.555 104.55C835.75 104.027 836.015 103.325 836.295 102.608C836.576 101.89 836.872 101.159 837.127 100.578C837.255 100.287 837.372 100.037 837.471 99.8457C837.576 99.6423 837.646 99.5373 837.676 99.5069L837.324 99.1528C837.229 99.247 837.127 99.4229 837.027 99.6158C836.921 99.8207 836.799 100.082 836.67 100.377C836.41 100.968 836.111 101.706 835.83 102.426C835.548 103.146 835.282 103.851 835.086 104.375C834.988 104.637 834.908 104.854 834.852 105.006C834.824 105.082 834.803 105.142 834.788 105.182C834.78 105.202 834.775 105.218 834.771 105.228C834.769 105.234 834.768 105.238 834.767 105.24C834.766 105.242 834.766 105.243 834.765 105.243C834.765 105.244 834.765 105.244 834.765 105.244C834.765 105.244 834.765 105.244 834.765 105.244C834.765 105.244 834.765 105.244 835 105.33ZM837.676 99.5069C837.7 99.4837 837.691 99.5033 837.658 99.4996C837.64 99.4975 837.651 99.4909 837.69 99.5307C837.771 99.6117 837.865 99.7761 837.958 99.9914C838.046 100.198 838.122 100.423 838.175 100.598C838.201 100.685 838.222 100.759 838.236 100.811C838.243 100.837 838.249 100.857 838.252 100.871C838.254 100.877 838.255 100.883 838.256 100.886C838.257 100.888 838.257 100.889 838.257 100.89C838.257 100.89 838.257 100.89 838.257 100.89C838.257 100.891 838.257 100.891 838.257 100.891C838.257 100.891 838.257 100.891 838.257 100.891C838.257 100.891 838.257 100.891 838.5 100.83C838.743 100.769 838.743 100.769 838.743 100.769C838.742 100.769 838.742 100.769 838.742 100.769C838.742 100.769 838.742 100.769 838.742 100.769C838.742 100.768 838.742 100.768 838.742 100.767C838.742 100.766 838.741 100.764 838.741 100.762C838.74 100.758 838.738 100.752 838.736 100.744C838.732 100.729 838.726 100.707 838.719 100.679C838.704 100.624 838.681 100.545 838.653 100.453C838.597 100.269 838.516 100.025 838.417 99.7944C838.322 99.5724 838.197 99.3307 838.044 99.1772C837.967 99.0997 837.856 99.0188 837.715 99.0028C837.559 98.9852 837.425 99.0514 837.324 99.1528L837.676 99.5069ZM838.263 100.751L836.763 105.251L837.237 105.409L838.737 100.909L838.263 100.751ZM837 105.33C837.07 105.57 837.07 105.57 837.07 105.57C837.07 105.57 837.07 105.57 837.07 105.57C837.07 105.57 837.07 105.57 837.07 105.57C837.07 105.57 837.07 105.57 837.071 105.57C837.071 105.57 837.072 105.569 837.073 105.569C837.075 105.569 837.078 105.568 837.082 105.566C837.091 105.564 837.104 105.56 837.122 105.556C837.157 105.547 837.208 105.534 837.272 105.519C837.401 105.49 837.578 105.456 837.775 105.433C838.186 105.385 838.613 105.397 838.876 105.547L839.124 105.113C838.709 104.876 838.136 104.887 837.717 104.936C837.498 104.962 837.303 105 837.162 105.031C837.092 105.047 837.035 105.062 836.995 105.072C836.975 105.077 836.959 105.082 836.948 105.085C836.942 105.086 836.938 105.088 836.935 105.088C836.934 105.089 836.932 105.089 836.931 105.089C836.931 105.09 836.931 105.09 836.93 105.09C836.93 105.09 836.93 105.09 836.93 105.09C836.93 105.09 836.93 105.09 836.93 105.09C836.93 105.09 836.93 105.09 837 105.33ZM838.876 105.547C839.144 105.7 839.366 105.922 839.519 106.159C839.674 106.4 839.75 106.641 839.75 106.83H840.25C840.25 106.52 840.131 106.186 839.939 105.888C839.746 105.588 839.467 105.309 839.124 105.113L838.876 105.547ZM839.75 106.83C839.75 106.83 839.75 106.831 839.75 106.833C839.75 106.835 839.749 106.839 839.749 106.843C839.747 106.851 839.745 106.862 839.741 106.877C839.734 106.906 839.721 106.943 839.703 106.987C839.668 107.077 839.614 107.187 839.546 107.311C839.411 107.559 839.228 107.849 839.042 108.128C838.857 108.406 838.671 108.669 838.531 108.863C838.462 108.96 838.404 109.04 838.363 109.095C838.343 109.122 838.327 109.144 838.316 109.158C838.311 109.165 838.307 109.171 838.304 109.175C838.303 109.176 838.302 109.178 838.301 109.179C838.301 109.179 838.3 109.179 838.3 109.18C838.3 109.18 838.3 109.18 838.3 109.18C838.3 109.18 838.3 109.18 838.3 109.18C838.3 109.18 838.3 109.18 838.5 109.33C838.7 109.48 838.7 109.48 838.7 109.48C838.7 109.48 838.7 109.48 838.7 109.48C838.7 109.48 838.7 109.479 838.7 109.479C838.701 109.479 838.701 109.479 838.701 109.478C838.702 109.477 838.703 109.476 838.705 109.474C838.708 109.47 838.712 109.464 838.717 109.456C838.729 109.441 838.745 109.419 838.766 109.391C838.807 109.335 838.866 109.254 838.937 109.155C839.079 108.958 839.268 108.69 839.458 108.405C839.647 108.122 839.839 107.818 839.985 107.55C840.058 107.417 840.122 107.288 840.168 107.173C840.211 107.065 840.25 106.942 840.25 106.83H839.75ZM838.25 109.33V109.83H838.75V109.33H838.25Z"
    fill="black" id="path51" />
  <path d="M851 133.828L845 147.828L826.5 146.328" stroke="black" stroke-width="0.5" id="path52" />
  <path d="M891.5 106.828C891.5 106.828 887.387 113.976 883 116.328C880.823 117.495 877 118.328 877 118.328"
    stroke="black" stroke-width="0.5" id="path53" />
  <path d="M890.999 93.8281C891.5 95.8281 887.498 95.8281 888.999 96.8281C890.5 97.8281 890.999 99.3281 890.999 99.3281"
    stroke="black" stroke-width="0.5" id="path54" />
  <path
    d="M783.175 60.9775C770.303 80.2311 802.047 85.1886 789.175 104.442L1106 50.5924C1106 50.5924 1096.42 28.7972 1086.17 20.477C1066.51 4.51245 1045.93 36.6728 1024.17 25.9772C1013.15 20.5576 999.455 14.9251 988.635 8.87243C962.15 -5.94272 955.046 12.1361 926.175 10.8973C905.168 9.99595 878.912 -5.10828 862.235 10.8976C850.638 22.0289 847.473 32.1867 835.675 42.9775C822.67 54.8718 796.047 41.724 783.175 60.9775Z"
    fill="url(#paint0_linear_2998_918)" id="path55" />
  <path d="M810 151L804.5 148.5" stroke="black" stroke-width="0.5" id="path56" />
  <path d="M809.139 154.862L795 157.555" stroke="black" stroke-width="0.5" id="path57" />
  <line x1="920.5" y1="180.996" x2="921.493" y2="39.9964" stroke="black" id="line57" />
  <path
    d="M959.872 39.0054C941.809 17.0735 922 42.8653 922 42.8653V93C922 93 942.384 73.2953 957.38 73.7174C968.95 74.0431 973.845 84.3372 985.286 86.5725C1008.29 91.0672 1019.84 66.8141 1043.09 67.9327C1053.74 68.4448 1070 73.7174 1070 73.7174L1050.07 49.9356L1066.01 33.8668C1066.01 33.8668 1052.12 30.2626 1043.09 30.0103C1019.73 29.357 976.815 59.5767 959.872 39.0054Z"
    fill="#E3642A" id="path58" />
  <path d="M974.317 89.1354L974.024 93.1225L970.867 91.156L974.317 89.1354Z" fill="#3B5AFF" fill-opacity="0.8"
    id="path59" />
  <path d="M866.146 76.0609L868.176 81.7251L864.458 81.8362L866.146 76.0609Z" fill="#0931FF" fill-opacity="0.8"
    id="path60" />
  <path d="M849.18 61.5252L851.948 61.1508L849.867 64.2329L849.18 61.5252Z" fill="#FF0909" fill-opacity="0.8"
    id="path61" />
  <path d="M895.359 65.8967L891.406 63.744L896.995 61.7038L895.359 65.8967Z" fill="#FF0909" fill-opacity="0.8"
    id="path62" />
  <path d="M912.213 113.698L908.349 116.007L909.435 110.157L912.213 113.698Z" fill="#3B5AFF" id="path63" />
  <path d="M939.771 96.4045L935.818 94.2519L941.408 92.2116L939.771 96.4045Z" fill="#FF0909" fill-opacity="0.8"
    id="path64" />
  <path d="M872.5 62.5L870 60M897.5 81L897 84.5M846 78L842.5 81.5M959.5 105V109M959.5 84.5L954.5 88M908 90.5L910.5 95"
    stroke="#C7B700" id="path65" />
  <path
    d="M574.545 230.101C574.545 230.101 640.546 239.601 665.611 219.598C686.114 203.236 700.545 143.095 665.611 138.745C650.03 136.805 635.545 146.477 635.546 162.099C635.546 192.094 676.133 183.279 696.545 170.098C712.04 160.092 725.024 120.605 725.024 120.605M725.024 120.605L711.631 124.694M725.024 120.605L729.606 135.61"
    stroke="black" id="path66" />
  <defs id="defs69">
    <rect x="756.33765" y="211.30821" width="568.23812" height="23.199393" id="rect70" />
    <rect x="194.21952" y="103.09013" width="272.81863" height="183.96747" id="rect69" />
    <linearGradient id="paint0_linear_2998_918" x1="930.979" y1="4.75253" x2="932.535" y2="101.898"
      gradientUnits="userSpaceOnUse">
      <stop stop-color="#FCEFE2" id="stop66" />
      <stop offset="0.2" stop-color="#FCEFE2" stop-opacity="0.567066" id="stop67" />
      <stop offset="0.4" stop-color="#FCEFE2" stop-opacity="0.289284" id="stop68" />
      <stop offset="0.6" stop-color="#FCEFE2" stop-opacity="0" id="stop69" />
    </linearGradient>
  </defs>
  <text id="text69">
    <tspan x="194.21875" y="124" id="tspan2">
      <tspan style="fill:#000000" id="tspan1">How can you boost </tspan>
    </tspan>
    <tspan x="194.21875" y="164" id="tspan4">
      <tspan style="fill:#000000" id="tspan3">your employability </tspan>
    </tspan>
    <tspan x="194.21875" y="204" id="tspan6">
      <tspan style="fill:#000000" id="tspan5">with the MDN </tspan>
    </tspan>
    <tspan x="194.21875" y="244" id="tspan8">
      <tspan style="fill:#000000" id="tspan7">Curriculum?</tspan>
    </tspan>
  </text>
  <text id="text70" x="756.33789" y="220" style="fill:#000000">
    Learn about research collaboration and other essential soft skills</text>
  <text x="681.21136" y="265" style="fill:#000000" id="text71">
    Balance between modern tooling and long-term best practices</text>
  <text x="565.34723" y="310" style="fill:#000000" id="text72">
    Get access to hight-quality recommened resrouces
  </text>
  <text x="461.70996" y="355" style="fill:#000000" id="text73">
    Get guidance from trusted voices
  </text>
</svg>
