<svg viewBox="0 0 60 60" fill="none" xmlns="http://www.w3.org/2000/svg">
  <circle cx="30" cy="30" r="30" fill="white" />
  <path
    d="M42.1365 40.3625L40.3615 42.1375C40.1273 42.3703 39.8105 42.501 39.4803 42.501C39.1501 42.501 38.8332 42.3703 38.599 42.1375L23.749 27.3125C23.3426 27.4303 22.9222 27.4933 22.499 27.5C21.7032 27.4994 20.9189 27.3089 20.2115 26.9442C19.5041 26.5795 18.894 26.0512 18.4319 25.4033C17.9697 24.7553 17.669 24.0064 17.5545 23.2188C17.4401 22.4312 17.5154 21.6277 17.774 20.875L20.949 24.05L21.6115 23.3875L23.3865 21.6125L24.049 20.95L20.874 17.775C21.6267 17.5163 22.4302 17.4411 23.2178 17.5555C24.0055 17.6699 24.7544 17.9707 25.4023 18.4328C26.0503 18.895 26.5786 19.5051 26.9432 20.2125C27.3079 20.9199 27.4985 21.7041 27.499 22.5C27.4924 22.9231 27.4293 23.3435 27.3115 23.75L42.1365 38.6C42.3694 38.8342 42.5 39.151 42.5 39.4812C42.5 39.8115 42.3694 40.1283 42.1365 40.3625ZM17.8615 38.6C17.6287 38.8342 17.498 39.151 17.498 39.4812C17.498 39.8115 17.6287 40.1283 17.8615 40.3625L19.6365 42.1375C19.8707 42.3703 20.1876 42.501 20.5178 42.501C20.848 42.501 21.1648 42.3703 21.399 42.1375L28.2365 35.3125L24.699 31.775M39.999 17.5L34.999 20V22.5L32.2865 25.2125L34.7865 27.7125L37.499 25H39.999L42.499 20L39.999 17.5Z"
    fill="#182F7F" />
</svg>
