<svg xmlns="http://www.w3.org/2000/svg" fill="none" viewBox="0 0 499 488">
  <ellipse cx="215.809" cy="217.345" fill="#E3642A" rx="138.042" ry="158.209"
    transform="rotate(11.15 215.809 217.345)" />
  <circle cx="232.535" cy="214.43" r="140" fill="#fff" />
  <g clip-path="url(#a)">
    <path fill="#FEF9F4"
      d="M175.634 85.627c23.854-11.7 31.427-15.156 58.181-16.668 10.508-.594 17.785-1.824 28.138.002 15.887 2.801 35.317 10.673 48.312 19.911 12.211 8.681 16.217 10.026 26.546 18.894 13.288 11.408 19.967 19.587 29.2 34.213 10.438 16.536 15.471 28.147 16.813 47.427 1.141 16.41-3.485 25.499-7.4 41.512-3.232 13.22-4.211 21.036-10.042 33.412-9.443 20.04-20.202 28.544-35.941 44.549-11.719 11.917-17.973 19.336-32.242 28.349-25.4 16.044-44.098 21.945-74.524 21.768-29.835-.173-48.229-5.755-72.939-21.768-19.355-12.543-28.959-22.664-40.698-42.018-19.315-31.842-20.687-56.682-15.328-93.148 5.036-34.268 14.231-54.545 37.527-80.998 14.551-16.524 24.309-25.583 44.397-35.437" />
    <path fill="#FEF9F4" d="m162.947 283.681 48.963-8.783-1.209 21.434-5.981 20.597-41.628.18z" />
    <path fill="url(#b)"
      d="M263.313 481.062c1.734-.209 1.382-.854 3.116-1.062l7.121.531 7.121.531s-.026-.359 6.923 0c9.354.483 14.669 1.24 23.975 0 5.071-.676 9.323.003 11.099.003s1.776-.003 0 1.596c-1.776 1.6-6.757.782-11.099 1.067-9.349.612-23.975 0-23.975 0l-19.979-1.067s-6.036-1.391-4.302-1.599" />
    <path fill="url(#c)"
      d="M328.308 480.062c1.705-.209 1.359-.854 3.064-1.062l14.01 1.062s-.026-.359 6.809 0c9.2.483 14.428 1.24 23.581 0 4.988-.676 9.171.003 10.918.003s1.747-.003 0 1.596c-1.747 1.6-6.647.782-10.918 1.067-9.195.612-23.581 0-23.581 0l-19.652-1.067s-5.937-1.391-4.231-1.599" />
    <path fill="#924A3B" d="m261 281-28 2.708L259.444 294z" />
    <path fill="#E3642A"
      d="M266.371 231.896a1 1 0 0 1 1.008-.882l85.513 1.309c.593.01 1.047.529.978 1.118L346.692 294h-25.055l-4.175-13.289s-2.61-1.594-2.61 0 1.566 10.631 1.566 10.631h-1.044l-4.176-17.009s-1.013-.87-1.566-.532c-.391.239-.522 1.063-.522 1.063s-.033-.636-.522-1.063c-.619-.54-1.348-.349-2.088 0-1.491.704 0 4.253 0 4.253s-1.044-.532-2.088 0c-1.044.531-.522 4.252-.522 4.252h-1.566v11.162L259 294z" />
    <path fill="#F5CAC1"
      d="M301.616 293.28s-.567-.073-.917 0c-1.573.327 0 3.86 0 3.86l4.585 1.716 5.502 2.144h7.336l6.878-7.291-2.751-.429-4.127-12.437s-3.209-3.001-3.209-.858 1.375 10.722 1.375 10.722h-.917l-4.585-16.727s-.567-.072-.917 0c-.39.081-.46.425-.917.427-.458.002.459-.853-.917-1.284-1.375-.431-2.106.338-2.751 1.286-.886 1.303.917 3.86.917 3.86s-1.83-.517-2.751 0c-1.535.862 0 4.289 0 4.289s-1.834-1.713-1.834 0z" />
    <path fill="#ECAFA3"
      d="M270.059 181.265c-4.758 14.306-5.624 16.041-17.737 20.81-10.816-3.902-15.575-5.201-16.873-21.677 3.461-16.473 14.255-22.898 24.051-22.898 6.057 3.035 13.5 8 10.559 23.765" />
    <path fill="#ECAFA3"
      d="m239.776 195.57 21.631 2.168s0 9.538 3.461 14.307 1.731 19.942 1.731 19.942l-44.128-16.04s7.008-8.151 11.681-11.272c3.893-2.602 5.624-9.105 5.624-9.105" />
    <path stroke="#000" stroke-linecap="round" stroke-linejoin="round"
      d="M247.996 189.07c4.046 2.981 6.472 3.853 11.248 3.035M254.053 187.335h5.192l-.433-9.971c.676-.678 1.143-1.472 1.73-2.168.732-.867.973-.926 1.731-1.301 1.818-.898 5.191 0 5.191 0l.866 2.168m-24.227-.433s2.003-1.336 3.461-1.735c1.956-.534 3.296-.721 5.191 0 1.359.517 3.028 2.168 3.028 2.168m-7.787 3.035c2.091-1.206 3.213-.958 4.759 0m-9.085 18.642s4.596 4.175 8.22 4.335c1.887.084 4.759-.867 4.759-.867" />
    <ellipse cx="263.572" cy="179.098" fill="#0F0F0F" rx="1.298" ry="1.301" />
    <ellipse cx="236" cy="179" fill="#ECAFA3" rx="4" ry="7" />
    <path fill="#000" fill-rule="evenodd"
      d="M249.789 146.513c-2.142-3.268-6.906-4.65-11.521-3.09-5.312 1.795-8.416 6.808-6.933 11.196.505 1.494 1.477 2.723 2.749 3.623-1.773 3.378-2.785 7.194-2.785 11.061 0 1.978.036 4.526.883 4.854 1.552 0 2.552-.329 3.409-.908l.122.024s1.276 9.19-.883 15.008c-.124.334-.238.656-.35.971-.492 1.39-.927 2.617-1.857 3.884-1.816 2.475-7.062 5.739-7.062 5.739s4.551-.291 6.179-.883c3.216-1.169 4.425-3.462 5.739-6.621.481-1.159.882-3.09.882-3.09v-9.27c0-1.389 1.766-3.089 1.766-3.089l1.732-8.227q.465-.33.959-.672l12.857-7.105c1.416-.482 2.734-.766 3.874-.767 1.761 0 2.923 1.795 4.004 3.466.575.889 1.128 1.742 1.735 2.271 1.333 1.164 2.467 2.412 3.423 3.532.348.408.672.799.974 1.163q.288.346.548.657c.248 1.046.333 2.655-.018 5.127-.955 6.739-.883 9.27-.883 9.27s1.252-2.09 2.135-3.414c.748-1.122.597-7.402.534-9.291.758.294 1.083-.805 1.083-4.389 0-2.828-.548-5.526-1.542-7.992 2.603-.744 4.687-2.482 5.515-4.932 1.483-4.388-1.62-9.401-6.932-11.196-4.95-1.673-10.07.038-11.945 3.829a20.7 20.7 0 0 0-6.043-.895q-1.191 0-2.348.156"
      clip-rule="evenodd" />
    <path fill="#ECAFA3" d="m259.442 155 1.385 3.569L262 161l-3-1.631 1.096-.8z" />
    <path fill="#EDDBDB" d="m249.524 241.159 7.487-13.531-8.513-1.899z" />
    <path fill="#F9CFA6"
      d="m212.449 267.696-1.572-14.755-5.377 6.559h4.853l-1.176 8.75L207.5 275l-22 10.5s-5.373 2.997-8.5 1c-3.114-1.989-4-4.576-4-4.576l4-22.424 4.5-15s8.75-20.782 19.945-28.447c6.747-4.62 10.585-6.52 18.055-9.053 6.057-2.054 16-3.5 16-3.5l8.916 5.702s3.751 4.514 5.241 7.905c3.517 8.002 0 22.381 0 22.381s4.559-12.303 5.478-15.89c.868-3.388 2.382-14.396 2.382-14.396L262 207l11.763 1.148s9.456 3.279 14.149 7.378c5.84 5.1 10.481 16.863 10.481 16.863h-31.967l-5.764 48.481-26.613 2.433c-.531.048-.627.783-.127.967l25.168 9.247 29.87-.527-.524 16.336c-.837 9.159-49.26 14.755-78.083 4.743l1.048-32.145V273z" />
    <path fill="#ECAFA3"
      d="M174.239 286.157c-5.714-8.934 3.531-26.925 3.531-26.925s6.729-.678 11.035-.445c4.529.244 11.477 1.769 11.477 1.769l11.035-3.09.883-2.648c1.324-3.97 3.973-5.296 3.973-5.296s1.765-5.964 4.414-6.621 2.648.734 2.648 3.972c0 3.971-2.207 6.621-2.207 6.621l9.711-2.207s7.734-3.531 5.738 7.946-2.648 11.035-2.648 11.035-11.035 3.531-15.008 3.531S215 273 215 273l-31.933 14.479s-6.66 2.069-8.828-1.322" />
    <path stroke="#000" stroke-linecap="round"
      d="M220.5 273.5s11.424-.732 13.5-3.5c1.5-2 3-13 3-13s.491-3.68-1-5c-1.065-.942-3.5-1-3.5-1l-11.5 2.5 2-4s1.634-4.321 0-6c-.491-.505-1.5-.5-1.5-.5" />
    <path stroke="#7C6063" stroke-linecap="round" stroke-width="8"
      d="M246.947 70.007s13.077.594 21.332 1.967c20.21 3.362 31.687 7.368 49.452 17.706 20.24 11.779 27.635 22.135 40.24 40.333 5.034 7.267 8.422 13.347 12.606 21.148 2.359 4.4 4.567 6.347 6.787 10.821 8.041 16.2 5.445 28.129 4.364 46.234-2.536 42.462-17.093 67.191-45.089 98.861-22.93 25.94-39.997 39.602-72.724 50.169-11.252 3.633-17.795 5.548-29.574 6.394-22.742 1.634-36.427-2.292-57.209-11.804-19.985-9.148-29.729-18.066-45.089-33.938-11.726-12.118-19.627-18.804-26.18-34.429-5.147-12.271-5.09-20.222-6.788-33.446-2.983-23.237-5.085-37.147 0-60.005 2.835-12.743 5.911-19.547 11.151-31.479 10.113-23.024 15.639-37.545 33.938-54.595 19.457-18.13 34.857-24.487 60.603-30.495 16.105-3.757 42.18-3.442 42.18-3.442Z" />
    <path stroke="#7C6063" stroke-linecap="round" stroke-width="8"
      d="M243.947 70.007s13.077.594 21.332 1.967c20.21 3.362 31.687 7.368 49.452 17.706 20.24 11.779 27.635 22.135 40.24 40.333 5.034 7.267 8.422 13.347 12.606 21.148 2.359 4.4 4.567 6.347 6.787 10.821 8.041 16.2 5.444 28.129 4.364 46.234-2.536 42.462-17.093 67.191-45.089 98.861-22.93 25.94-39.997 39.602-72.724 50.169-11.252 3.633-17.795 5.548-29.574 6.394-22.742 1.634-36.427-2.292-57.209-11.804-19.985-9.148-29.729-18.066-45.089-33.938-11.726-12.118-19.627-18.804-26.18-34.429-5.147-12.271-5.09-20.222-6.788-33.446-2.983-23.237-5.085-37.147 0-60.005 2.835-12.743 5.911-19.547 11.151-31.479 10.113-23.024 15.639-37.545 33.938-54.595 19.457-18.13 34.857-24.487 60.603-30.495 16.105-3.757 42.18-3.442 42.18-3.442Z" />
    <path fill="#E5E5E5"
      d="M270 429.497s6.998-.707 10.909-.435c3.822.266 9.091 1.726 9.091 1.726l-1.364 10.319L270 451zM337 427.336s6.089-1.578 10-1.304c3.822.268 10 2.604 10 2.604l-.909 11.694L337 449z" />
    <path fill="#7C6063"
      d="M271.467 445.627v5.738s.691-4.235 2.648-5.738c1.042-.8 2.088-.477 3.09-1.324.949-.803.826-1.835 1.766-2.649.874-.757 1.536-1.006 2.648-1.324 1.658-.474 2.724-.338 4.414 0 1.069.214 2.649.883 2.649.883s1.572 1.421.883 1.765c-.309.155-.883 0-.883 0s-1.574-.699-2.649-.882c-1.189-.204-2.207-.003-3.09 0-.882.003-1.117.296-1.324.882-.115.325 0 .883 0 .883v1.324l-3.531 1.325-2.207 2.648-3.973 4.856-.883 1.324v.438l.442 5.297s.441 1.766 2.207 1.766 3.09-.883 3.09-.883l10.594.883 11.918 5.297s8.386 1.324 9.711 1.324c1.324 0-4.856-2.207-4.856-2.207v-2.649h8.387v1.766h3.09l1.324-.883s2.168-.714 3.531-.441c1.927.385 3.053 1.353 3.973 3.09 1.048 1.98.658 3.596 0 5.738-.759 2.472-3.973 5.297-3.973 5.297l-14.125 3.531H294.42l-25.16-2.648-6.18-1.766v-9.27s1.766-2.207 3.973-1.324 9.189 6.284 16.773 10.594l21.188 1.766 11.918-3.973v-3.531l-6.621 2.648h-9.27v-.883l-14.125-7.945s-3.09-1.324-4.414-.883c-1.277.426-1.074 1.922-2.207 2.649-2.032 1.302-6.18 0-6.18 0s-1.97-.639-3.09-1.325c-.735-.449-1.765-1.324-1.765-1.324v-9.711l-.883-2.204v-7.062z" />
    <path fill="#FFF8F8"
      d="m263.08 469.024 5.297-15.891.883 2.648v9.711l9.711 3.09s2.207-3.973 3.972-3.973 2.446.741 3.973 1.325c5.993 2.29 14.125 8.386 14.125 8.386.883 1.325 5.411.931 8.828.442 2.861-.41 4.414-1.766 7.063-2.207 2.648-.442 4.414.883 0 3.531s-7.042 3.49-11.918 4.414c-8.342 1.581-13.611.586-21.629-2.207-7.679-2.675-17.656-11.035-17.656-11.035z" />
    <path fill="#F2DDD0"
      d="M281.177 453.124s-3.531-.44-6.18-.44 3.09-6.181 3.09-6.181 3.532-1.764 4.856-1.323c1.325.441 13.683 10.592 13.683 10.592s1.766 1.528 3.09.883c1.429-.695.442-3.088 1.325-3.088s7.503 4.416 6.179 6.18-12.358 1.324-14.566 0c-2.207-1.324-11.477-6.623-11.477-6.623" />
    <path fill="#C9624B"
      d="M281.619 457.538s-8.828-2.648-9.711-3.09-1.324 3.532-1.324 3.532c3.103 1.896 4.414 3.972 7.945 4.855s4.971 1.531 7.504.442c1.362-.586 2.041-1.296 2.649-2.649.494-1.101 0-3.531 0-3.531l-4.856-2.648s.622 2.026 0 2.648c-.621.622-2.207.441-2.207.441" />
    <path fill="#7C6063"
      d="m337.236 448.715-1.324-4.414-2.207 5.297 2.207 2.648 4.414-5.297 7.946-3.972-8.829 1.324zM328.85 464.164l.882 1.766-.882-2.207 11.476 11.918 11.035 3.09s10.787 2.673 17.657 1.765c2.984-.394 4.759-.528 7.504-1.765 2.049-.924 4.855-3.09 4.855-3.09l-.883-4.856-7.062 2.649s-6.18-.442-7.504-1.324-12.36-8.829-14.567-9.27-11.035 1.324-11.035 1.324l-5.297-1.324v-4.856h.883l1.324 2.207 4.414-1.324 9.711 1.324 15.891 7.946 9.27.883-7.504-2.207-.883-2.649h5.297l5.738 2.649s4.092-1.211 6.18 0c1.375.797 2.004 1.636 2.648 3.089.908 2.049.832 3.658 0 5.739-1.295 3.241-7.504 4.855-7.504 4.855s-11.266 1.838-18.539 1.766c-13.929-.139-34.871-7.504-34.871-7.504v-5.738z" />
    <path stroke="#7C6063"
      d="m329.732 465.93-.882-1.766-1.766 4.856v5.738s20.942 7.365 34.871 7.504c7.273.072 18.539-1.766 18.539-1.766s6.209-1.614 7.504-4.855c.832-2.081.908-3.69 0-5.739-.644-1.453-1.273-2.292-2.648-3.089-2.088-1.211-6.18 0-6.18 0l-5.738-2.649h-5.297l.883 2.649 7.504 2.207-9.27-.883-15.891-7.946-9.711-1.324-4.414 1.324-1.324-2.207h-.883v4.856l5.297 1.324s8.828-1.765 11.035-1.324 13.243 8.387 14.567 9.27 7.504 1.324 7.504 1.324l7.062-2.649.883 4.856s-2.806 2.166-4.855 3.09c-2.745 1.237-4.52 1.371-7.504 1.765-6.87.908-17.657-1.765-17.657-1.765l-11.035-3.09m-10.594-9.711 10.594 9.711m-10.594-9.711-.882-2.207 11.476 11.918m-4.414-31.34 1.324 4.414 2.207-4.414 8.829-1.324-7.946 3.972-4.414 5.297-2.207-2.648z" />
    <path fill="#393765"
      d="M301.481 453.124c-.441-1.324-6.621-7.945-8.828-8.828s-8.291 1.766-7.946 2.207 1.325.883 1.325.883 4.549-2.467 6.621-.883c.387.296 1.324.883.883.883s-6.256.979-5.739 1.324l1.325.883c.517.345 6.621-.883 6.621-.883l1.324 1.766-5.738 1.324s.441 1.766 1.324 1.324 5.297-1.324 5.297-1.324l2.207 3.973s1.765-1.324 1.324-2.649M367.264 451.982c-.441-1.324-6.621-7.946-8.828-8.828-2.207-.883-8.747.703-8.401 1.144.345.441 1.78 1.946 1.78 1.946s4.549-2.468 6.621-.883c.387.296 2.221.883.883.883s-6.711.359-6.194.703c.517.345 1.263 1.159 1.78 1.504.517.344 6.607-.181 6.607-.181l.441.442-5.738.883s1.338 2.828 2.221 2.387c.883-.442 4.4-1.063 4.4-1.063l2.207 3.972s2.663-1.585 2.221-2.909" />
    <path fill="#FFF8F8"
      d="m329.289 465.926 4.856-17.215 1.765 3.531-.883 10.594 5.739 1.324s3.972-.883 5.738-.883 3.328-.583 4.855 0c5.993 2.291 14.126 8.829 14.126 8.829.882 1.324 4.809 1.572 7.945 1.324 2.88-.228 1.766 0 7.062-2.207s.883 4.414.883 4.414-3.065 2.222-5.297 3.09c-2.773 1.078-7.504 1.324-7.504 1.324s-15.376.144-23.394-2.649c-7.679-2.674-15.891-11.476-15.891-11.476" />
    <path fill="#C9624B"
      d="M346.504 454.929s-8.828-2.649-9.711-3.09-1.324 3.531-1.324 3.531c3.103 1.896 4.414 3.973 7.945 4.856 3.531.882 4.97 1.531 7.504.441 1.362-.586 2.04-1.296 2.648-2.648.495-1.101 0-3.531 0-3.531l-4.855-2.649s.622 2.027 0 2.649-2.207.441-2.207.441" />
    <path fill="#F2DDD0"
      d="M346.488 451.932s-3.391-.492-5.934-.492 2.967-6.907 2.967-6.907 3.391-1.97 4.663-1.477 12.886 10.956 12.886 10.956 1.949 2.586 3.221 1.866c1.372-.777.424-3.45 1.272-3.451s7.205 4.935 5.934 6.905c-1.272 1.971-11.868 1.48-13.988.001s-11.021-7.401-11.021-7.401" />
    <path stroke="#000" d="M235 204s6.388 2.19 9.5 5c4.408 3.98 5.751 7.694 7 13.5 1.402 6.516-1.5 17-1.5 17l4.5-12" />
    <path fill="#E9A98C" fill-opacity=".5" fill-rule="evenodd"
      d="M14.8 79.168c3.208-2.403 7.3-3.837 11.011-3.249 3.79.602 6.876 3.039 8.216 6.3 1.227 2.986-.426 6.412-1.637 9.705-1.185 3.222-2.083 6.76-5.16 8.773-3.216 2.104-7.174 2.203-10.717 1.615-3.63-.603-7.487-1.778-8.862-4.866-1.317-2.96 1.089-6.413 2.376-9.704 1.213-3.103 1.932-6.446 4.773-8.574"
      clip-rule="evenodd" />
    <path stroke="#000" stroke-linecap="round" stroke-linejoin="round" stroke-opacity=".9"
      d="m5.602 90.443-.565 11.93 12.773-4.186m-6.586-14.009 13.491-3.73-1.283 11.475" />
    <path fill="#000" stroke="#000"
      d="m8.686 89.456 5.505 2.892-4.509-4.618s-1.233.03-1.397.605c-.126.442.4 1.12.4 1.12Z" />
    <circle cx="16.963" cy="93.794" r="1.722" fill="#000" transform="rotate(-30 16.963 93.794)" />
    <path fill="#E9A98C" fill-opacity=".5" fill-rule="evenodd"
      d="M72.326 341.288c3.734.849 4.306 6.381 4.71 10.942.402 4.523.858 10.168-2.492 14.06-3.272 3.8-7.613 1.816-11.585 2.296-2.256.273-4.272.356-6.317-.133-2.94-.702-6.881-.093-7.935-3.272-1.142-3.446.136-8.591 2.812-12.185 2.486-3.337 6.277-2.563 9.538-4.398 3.972-2.235 7.65-8.132 11.269-7.31"
      clip-rule="evenodd" />
    <path fill="#000"
      d="M40.679 365.665c-.363.176-.589.272-.589.272s.222-.11.589-.272M66.716 352.359c1.524-.795 3.157-3.029 3.157-3.029s-1.964 1.43-3.157 3.029" />
    <path stroke="#000" stroke-linecap="round" stroke-linejoin="round"
      d="M45.494 353.424s-3.383.999-4.457 2.573c-1.898 2.782 5.7 2.526 4.673 5.521-.812 2.368-5.62 4.419-5.62 4.419s3.616-1.789 5.777-1.574c3.447.344 1.31 6.525 4.928 5.962 1.913-.297 4.457-2.573 4.457-2.573m1.639-20.321s2.832-5.891 4.203-3.014l3.51 7.367c1.371 2.877 5.269-2.454 5.269-2.454s-3.512 2.559-3.998 4.656c-.643 2.777 5.55 2.813 3.862 5.403-1.035 1.589-4.457 2.573-4.457 2.573" />
    <circle cx="53.035" cy="358.66" r="1.43" fill="#000" stroke="#000" transform="rotate(-30 53.035 358.66)" />
    <circle cx="59.955" cy="353.916" r=".787" fill="#000" stroke="#000" transform="rotate(-30 59.955 353.916)" />
    <path fill="#ECAFA3"
      d="m270 429.5 1-22c9.561 3.548 14.546 3.506 23 2.5l-4 21c-8.675-1.699-12.931-1.917-20-1.5M337 430l-3-23.5c9.561 3.548 17.046-.494 25.5-1.5l-2.5 26.5c-8.675-1.699-12.931-1.917-20-1.5" />
    <path fill="#94B1EB" stroke="#94B1EB"
      d="m212.127 314.291-.621-.162-.005.642.5.004-.5-.004v.003l-.001.007v.14a74 74 0 0 0 .027 1.985c.033 1.32.105 3.152.264 5.199.315 4.076.974 9.067 2.368 12.553 2.306 5.767 4.56 8.818 9.036 13.132 3.349 3.228 7.959 5.251 12.945 6.483 4.99 1.234 10.395 1.685 15.373 1.742 4.981.056 9.549-.282 12.871-.634 1.662-.176 3.013-.356 3.95-.491q.53-.078.877-.133v48.654c0 2.403 1.974 3.932 4.363 4.909 2.423.991 5.496 1.515 8.149 1.808 2.988.329 6.336.61 9.147.063 2.837-.553 5.219-1.974 6.08-5.092 3.169-11.479 3.56-25.535 3.166-36.694a222 222 0 0 0-.937-13.929 177 177 0 0 0-.55-4.875l27.325 4.999 3.596 16.746 2.621 33.659.021.27.238.13.239-.439-.239.439.002.001.006.003.021.012.082.043q.107.058.312.164a55.245 55.245 0 0 0 5.103 2.296c3.144 1.223 7.167 2.427 10.486 2.206 2.714-.181 5.931-1.38 8.432-2.507a54 54 0 0 0 4.045-2.035l.246-.14.065-.038.017-.009.004-.003.002-.001-.253-.431.253.431.27-.158-.025-.312-3.671-46.637v-.003l-.001-.01v-.001l-.002-.035-.008-.14q-.011-.186-.036-.534c-.035-.462-.09-1.13-.175-1.955a78 78 0 0 0-.942-6.448c-.955-5.016-2.677-11.081-5.763-15.001-3.749-4.763-10.663-8.821-16.571-11.674a111 111 0 0 0-10.062-4.248q-.424-.153-.651-.232l-.171-.059-.044-.015-.011-.004-.003-.001h-.001l-.158.465.158-.465-.008-.003-35.676-11.403-.95-.304.325.943c.147.429-.002 1.06-.774 1.907-.756.827-2.012 1.745-3.753 2.678-3.475 1.862-8.773 3.73-15.535 5.069-13.516 2.678-32.807 3.231-54.888-2.526Z" />
    <path stroke="#2D2D2F" stroke-linecap="round"
      d="M287 326.069s3.226-.588 6.858 1.675c4.736 2.95 5.679 22.816 6.642 37.756.565 8.769 0 22.5 0 22.5s-1 15.5-3.5 19-5.5 3-5.5 3" />
    <path stroke="#7C6063" stroke-linecap="round" stroke-width="7"
      d="M70 191.5s-6.066 15.307-6 25.5c.045 6.778 2 19 2 19M50.991 199.004s-6.352 14.444-5.797 23.819c.369 6.235 3.218 17.365 3.218 17.365M410.999 159.503S403 153.001 402 145.001m-4.999-24.497c-1.825-8.895-12.13-17.502-12.13-17.502m12.13 17.502c.306 1.495 3.181 18.137 4.999 24.497m-4.999-24.497L402 145.001M428.999 139.502s-5.499-4.502-6.002-10.998c0-7.999-1.546-17.148-5.218-23.116-4.384-7.127-14.797-18.462-14.797-18.462" />
  </g>
  <path fill="#E9A98C" fill-opacity=".5" fill-rule="evenodd"
    d="M472.727 74.136c4.495-3.228 10.751-5.281 14.99-3.95 3.973 1.246 3.009 6.223 3.836 9.86.567 2.495 1.564 4.903.153 7.69-1.373 2.71-4.488 4.578-7.356 6.53-3.41 2.323-6.966 5.958-10.518 5.639-3.55-.319-3.229-4.427-4.567-6.992-1.264-2.427-3.483-4.342-2.923-7.378.731-3.965 2.257-8.434 6.385-11.4"
    clip-rule="evenodd" />
  <path stroke="#000" stroke-linecap="round" stroke-linejoin="round" stroke-opacity=".8"
    d="m465.941 84.187-4.407 8.377 8.009.148m.999-15.423 3.314 17.176m.008-14.852 8.468.944-3.876 7.01" />
  <path fill="#E9A98C" fill-opacity=".5" fill-rule="evenodd"
    d="M253.078 13.957c3.972.53 7.899 2.37 10.136 5.389 2.286 3.083 2.782 6.983 1.456 10.25-1.214 2.991-4.794 4.28-7.964 5.784-3.101 1.47-6.22 3.368-9.826 2.651-3.769-.749-6.665-3.449-8.783-6.35-2.17-2.972-4.101-6.51-2.921-9.678 1.131-3.035 5.267-3.817 8.49-5.266 3.039-1.366 5.893-3.25 9.412-2.78"
    clip-rule="evenodd" />
  <path stroke="#000" stroke-opacity=".8"
    d="M248.108 32.11s.968-2.26 2.252-3.033c1.339-.805 3.909-.525 3.909-.525m-6.161 3.558 2.012 3.484 6.161-3.557-2.012-3.485m-6.161 3.558s-.747-2.09-1.75-3.032c-1.141-1.07-3.721-1.702-3.721-1.702s-2.737-1.063-3.738-2.462c-1.771-2.47-1.556-5.376.457-7.963 1.424-1.83 2.951-2.438 5.213-3.01 2.035-.516 3.428-.71 5.283.03 2.22.883 3.05 2.336 3.866 4.505.957 2.545-.816 4.42-.317 7.113.22 1.191.868 2.964.868 2.964" />
  <path stroke="#000" stroke-opacity=".8"
    d="M251.581 26.797c-1.468-3.456-2.278-5.382-.896-6.955s-.515.45-1.637.565c-.766.078-1.558-.61-1.723-1.765-.137-.959.076-1.17 1.038-1.265.229-.022.677.28.843.692.694 1.716-1.899 2.354-3.221 3.167-1.064.655-2.281 1.471-3.39.52-.661-.568-.617-1.225-.183-1.858.498-.727 1.687.354 2.069 1.35.423 1.1 1.681 1.76 1.416 2.572-.264.814-1.982.649-1.48.74.784.14 2-.269 2.773-.283 1.673-.031 1.638 4.109 1.638 4.109M250.81 11.559l3.588-6.464m-11.137 6.43-1.775-5.249m-6.194 11.732-6.499-1.476m10.076-2.471-3.658-4.163M249.224 33.804c.655-.753 1.552-1.193 2.353-1.359m3.336-2.554c-.949.115-2.565-.206-4.374 1.48m5.098-.224s-.458.071-.717.205a1.66 1.66 0 0 0-.694.61" />
  <path fill="#E9A98C" fill-opacity=".4" fill-rule="evenodd"
    d="M422.773 323.446c3.08 1.92 6.698 3.372 7.982 6.79 1.39 3.701 1.362 8.321-1.141 11.426-2.346 2.91-6.686 2.157-10.335 2.812-3.093.555-6.177 1.935-9.03.665-3.099-1.379-5.943-4.092-6.32-7.496-.354-3.208 3.218-5.221 4.59-8.161 1.657-3.553.538-9.011 4.129-10.532 3.568-1.511 6.868 2.466 10.125 4.496"
    clip-rule="evenodd" />
  <path stroke="#000" stroke-linecap="round" stroke-linejoin="round" stroke-opacity=".9"
    d="m403.934 330.55-2.136 6.24 7.42.166m-1.337-8.685 7.732.543-2.447 5.864m.952 5.569 7.731.543 2.171-12.38" />
  <defs>
    <linearGradient id="b" x1="293.5" x2="293.5" y1="480" y2="484" gradientUnits="userSpaceOnUse">
      <stop stop-color="#6B6B6B" />
      <stop offset="1" stop-color="#D9D9D9" stop-opacity="0" />
    </linearGradient>
    <linearGradient id="c" x1="358" x2="358" y1="479" y2="483" gradientUnits="userSpaceOnUse">
      <stop stop-color="#6B6B6B" />
      <stop offset="1" stop-color="#D9D9D9" stop-opacity="0" />
    </linearGradient>
    <clipPath id="a">
      <path fill="#fff" d="M0 43h491v445H0z" />
    </clipPath>
  </defs>
</svg>
