<svg width="414" height="278" viewBox="0 0 414 278" fill="none" xmlns="http://www.w3.org/2000/svg">
  <path d="M391.62 257.619C494.62 317.523 269.325 296.38 173.503 296.38C77.6798 296.38 0 264.645 0 251.579C0 238.512 77.6798 227.92 173.503 227.92C269.325 227.92 365.732 218.859 391.62 257.619Z" fill="#BFACA6" fill-opacity="0.3"/>
  <path d="M318.455 125.137L311.612 153.489L279.838 150.556L283.749 49.8576C283.749 49.8576 293.185 44.3193 299.88 43.9917C311.567 43.4196 319.922 45.4595 326.277 58.1677C332.631 70.8758 318.455 125.137 318.455 125.137Z" fill="#5BA092" stroke="black" stroke-width="0.4"/>
  <rect x="229.977" y="152.508" width="83.1008" height="12.7095" rx="6.35477" fill="#83BB9E"/>
  <path d="M278.857 165.215H308.288C308.288 165.215 313.08 163.26 313.074 159.193C313.068 154.633 309.868 153.211 309.868 153.211" stroke="black" stroke-width="0.4"/>
  <rect x="237.799" y="230.719" width="66.4807" height="12.7095" rx="6.35477" fill="#5BA092"/>
  <path d="M272.507 236.122C268.997 236.08 266.186 233.202 266.227 229.693L266.989 164.885L279.698 165.035L278.936 229.842C278.894 233.351 276.016 236.163 272.507 236.122Z" fill="#5BA092"/>
  <circle cx="245.13" cy="247.837" r="4.39946" fill="#5BA092"/>
  <circle cx="266.327" cy="247.103" r="4.39946" fill="#517D74"/>
  <circle cx="297.923" cy="247.837" r="4.39946" fill="#5BA092"/>
  <circle cx="271.526" cy="247.837" r="4.39946" fill="#5BA092"/>
  <path d="M284.388 52.3581L284.81 47.3203L277.561 48.2133L277.219 51.7851L272.309 52.3581C272.309 52.3581 277.2 59.7892 279.661 58.5753C282.123 57.3613 285.078 53.572 287.539 52.3581H284.388Z" fill="#F3CEB5"/>
  <path d="M287.504 51.7984C287.504 51.7984 282.087 56.8016 279.626 58.0156C277.165 59.2295 271.858 52.6764 271.858 52.6764C271.858 52.6764 275.876 52.23 277 51.7984C278.124 51.3667 277.216 47.7656 277.216 47.7656" stroke="black" stroke-width="0.4" stroke-linecap="round"/>
  <path fill-rule="evenodd" clip-rule="evenodd" d="M313.998 147L303.987 102.238L305.276 117.358C287.241 123.385 256.941 120.016 256.417 114.503L256.089 104.668L259.079 81.6332C259.079 81.6332 256.617 85.2213 246.002 85.4414C238.181 85.6036 232.795 78.1599 232.795 78.1599V44.1797H249.231V50.9757V57.7718V64.0869C249.231 64.0869 254.278 57.2982 257.932 54.2277C260.869 51.76 264.217 51.8059 264.217 51.8059H272.156C272.156 51.8059 273.725 53.828 276.864 55.8501C278.784 57.087 280.002 56.8612 280.002 56.8612C281.572 55.8501 283.961 54.2277 283.961 54.2277L288.371 51.8041C288.371 51.8041 295.762 51.6652 299.552 52.9019C304.226 54.427 306.628 55.5706 310.85 58.3518C317.855 62.9665 320.998 75.5 320.998 75.5L323.33 87C323.886 89.2345 325.998 106 326.147 110.5C326.262 113.975 328.648 147 328.648 147H313.998Z" fill="#F3D1AB"/>
  <path d="M315.957 145.628L326.237 146.931C326.237 146.931 328.684 160.027 327.963 161.522C327.243 163.016 327.381 161.973 327.381 161.973M316.626 164.257C316.626 164.257 316.932 165.889 317.722 163.874C318.511 161.858 319.477 154.57 319.477 154.57M320.014 166.295C320.014 166.295 320.39 167.406 321.11 165.912C321.831 164.418 321.976 155.431 321.976 155.431M323.372 164.622C323.372 164.622 324.261 165.8 324.537 163.717C324.813 161.633 324.099 155.183 324.099 155.183" stroke="black" stroke-width="0.809525" stroke-linecap="round"/>
  <path d="M316.158 152.003C316.158 152.003 314.819 153.914 313.69 154.855C312.687 155.69 310.846 156.597 310.846 156.597" stroke="black" stroke-width="0.809525" stroke-linecap="round"/>
  <path d="M315.959 145.626C315.959 145.626 307.213 157.509 311.43 156.152C312.339 155.859 313.229 155.15 313.99 154.372C315.299 153.034 316.228 151.489 316.228 151.489L316.183 163.668C316.183 163.668 316.934 165.887 317.724 163.872C318.513 161.857 319.479 154.569 319.479 154.569L319.571 165.706C319.571 165.706 320.392 167.404 321.112 165.91C321.833 164.416 321.978 155.429 321.978 155.429L322.415 163.963C322.415 163.963 324.263 165.798 324.539 163.715C324.815 161.631 324.101 155.181 324.101 155.181L326.355 161.836C326.355 161.836 327.245 163.015 327.965 161.52C328.686 160.025 326.239 146.929 326.239 146.929L315.959 145.626Z" fill="#F3CEB5"/>
  <path d="M323 84.5036L325.5 106L328.596 146.181" stroke="black" stroke-width="0.404763" stroke-linecap="round"/>
  <path d="M304.818 109.844L305.346 116.801C305.346 116.801 304.29 119.666 281.053 119.666C257.817 119.666 256.233 115.164 256.233 115.164" stroke="black" stroke-width="0.404763" stroke-linecap="round"/>
  <path d="M267.63 33.583C269.683 43.2882 270.524 46.433 277.667 48.6685C284.81 50.904 289.503 42.8674 290.969 36.0751C292.436 29.2828 284.002 19.5246 277.264 18.6378C272.839 20.0567 266.186 23.1586 267.63 33.583Z" fill="#F3CEB5"/>
  <path d="M274.392 38.6802C277.099 40.6534 280.002 39.5112 282.682 38.1672C285.363 36.8231 280.755 41.8949 278.579 41.9387C276.507 41.9803 274.392 38.6802 274.392 38.6802Z" fill="black" stroke="black" stroke-width="0.404763" stroke-linecap="round" stroke-linejoin="round"/>
  <path d="M276.694 29.2617C275.555 28.5083 275.21 28.4417 274.206 28.5513C273.28 28.6522 272.073 29.6179 272.073 29.6179M288.621 42.712C288.621 42.712 284.203 49.7092 279.397 49.0227C275.999 48.5373 275.028 47.5664 275.028 47.5664" stroke="black" stroke-width="0.404763" stroke-linecap="round" stroke-linejoin="round"/>
  <path d="M280.361 28.7852C280.361 28.7852 281.563 27.7188 282.494 27.7188C283.426 27.7188 284.627 28.7852 284.627 28.7852" stroke="black" stroke-width="0.4" stroke-linecap="round"/>
  <circle cx="1.24421" cy="1.24421" r="1.24421" transform="matrix(-0.99145 -0.130489 -0.130489 0.99145 275.832 30.6172)" fill="#0F0F0F"/>
  <circle cx="1.24421" cy="1.24421" r="1.24421" transform="matrix(-0.99145 -0.130489 -0.130489 0.99145 283.861 30.1797)" fill="#0F0F0F"/>
  <path fill-rule="evenodd" clip-rule="evenodd" d="M268.616 18.4117C267.734 19.9542 267.132 21.6899 266.885 23.5597C266.574 25.9255 266.696 26.6796 267.228 26.5532C267.023 27.7822 266.372 31.935 266.776 32.7441C267.252 33.6961 267.908 35.186 267.908 35.186C267.908 35.186 268.177 33.5213 268.123 28.9885C268.103 27.3145 268.302 26.2569 268.562 25.5888C268.695 25.4687 268.835 25.3406 268.982 25.2061L268.982 25.206C269.216 24.9924 269.467 24.7627 269.736 24.5238C270.472 23.8686 271.34 23.1445 272.333 22.494C272.786 22.1977 273.229 21.6832 273.691 21.1475C274.56 20.1395 275.494 19.0567 276.672 19.2119C277.453 19.3147 278.332 19.6306 279.261 20.0905L287.094 25.8015C287.327 26.0096 287.553 26.2137 287.77 26.4123L288.213 31.9796C288.213 31.9796 289.247 33.2575 289.126 34.1751L288.321 40.2949C288.321 40.2949 288.421 41.6051 288.643 42.4125C289.247 44.6142 289.857 46.2344 291.908 47.2892C292.946 47.8233 295.967 48.4164 295.967 48.4164C295.967 48.4164 292.739 45.7994 291.739 44.0059C291.227 43.0875 291.042 42.2387 290.834 41.2779C290.786 41.0603 290.738 40.837 290.684 40.6059C289.744 36.5747 291.397 30.6199 291.397 30.6199L291.465 30.6156C291.991 31.0811 292.634 31.3912 293.683 31.5292C294.278 31.3871 294.523 29.7078 294.695 28.4022C295.032 25.8483 294.686 23.2381 293.792 20.8511C294.723 20.3687 295.483 19.6419 295.951 18.6981C297.325 15.9317 295.684 12.349 292.285 10.6959C289.329 9.258 286.017 9.75348 284.3 11.7272C283.794 11.5918 283.275 11.4879 282.744 11.418C281.341 11.2332 279.959 11.2604 278.631 11.4749C277.708 8.80383 274.428 7.22108 270.968 7.88997C267.257 8.60739 264.745 11.6433 265.356 14.6709C265.697 16.3608 266.939 17.6909 268.616 18.4117Z" fill="black"/>
  <path d="M266.273 212.818C266.046 210.048 265.281 209.923 265.281 209.923L272.161 204.402C272.161 204.402 273.899 207.1 275.404 208.443C276.833 209.717 278.113 209.738 279.501 211.06C280.475 211.988 281.541 212.455 281.663 213.754C281.772 214.919 280.36 216.276 280.36 216.276L266.195 227.643L262.592 223.154C262.592 223.154 266.501 215.588 266.273 212.818Z" fill="#F3CEB5"/>
  <path d="M263.273 231.464L260.03 227.424C260.03 227.424 258.961 228.835 258.727 229.946C258.414 231.433 259.27 233.939 259.27 233.939L263.273 231.464Z" fill="#F3CEB5"/>
  <path d="M259.852 226.908C259.852 226.908 260.355 225.561 260.842 224.785C261.396 223.9 262.565 222.737 262.565 222.737L267.429 228.798L263.743 231.756L259.852 226.908Z" fill="#9DCCB4"/>
  <path d="M258.844 232.364L259.083 233.5L283.744 213.045C283.744 213.045 284.928 213.682 285.45 214.333C285.972 214.983 286.338 216.278 286.338 216.278L260.943 236.658C260.943 236.658 260.253 236.443 259.885 236.178C259.392 235.823 259.168 235.517 258.912 234.966C258.486 234.048 258.844 232.364 258.844 232.364Z" fill="#9DCCB4"/>
  <path d="M283.746 213.062L266.133 227.197L262.891 223.156" stroke="black" stroke-width="0.404763"/>
  <path d="M207.065 212.61C209.038 210.912 208.659 207.652 208.659 207.652L217.904 209.624C217.904 209.624 218.218 211.568 218.175 213.39C218.135 215.119 217.419 216.936 220.475 220.237C221.307 221.136 221.039 223.593 220.124 224.4C219.303 225.124 217.34 224.866 217.34 224.866L197.2 221.102L198.388 215.528C198.388 215.528 205.092 214.308 207.065 212.61Z" fill="#F3CEB5"/>
  <path d="M194.524 221.061L195.496 216.5C195.496 216.5 193.715 216.518 192.712 216.966C191.368 217.567 190.009 219.569 190.009 219.569L194.524 221.061Z" fill="#F3CEB5"/>
  <path d="M195.709 216.002C195.709 216.002 193.664 216.404 194.573 216.29C195.004 216.236 195.849 214.957 197.06 214.701C198.761 214.342 200.469 214.369 200.469 214.369L198.742 222.476L194.119 221.491L195.709 216.002Z" fill="#83BB9E"/>
  <path d="M191.469 218.274L190.739 219.178L221.264 225.156C221.264 225.156 221.52 226.477 221.346 227.293C221.172 228.109 220.4 229.21 220.4 229.21L188.555 222.421C188.555 222.421 188.284 221.75 188.257 221.298C188.221 220.691 188.316 220.324 188.581 219.777C189.023 218.867 191.469 218.274 191.469 218.274Z" fill="#83BB9E"/>
  <path d="M221.262 225.174L199.176 220.466L200.256 215.398" stroke="black" stroke-width="0.404763"/>
  <path d="M257.646 157.23L283.019 201.804L255.784 217.431L246.854 196.893C246.854 196.893 242.716 189.226 238.507 181.516L228.894 211.627L197.295 205.823C197.295 205.823 215.043 168.933 224.103 148.995C223.812 147.244 223.637 145.478 223.637 143.762C223.637 133.493 262.481 119.201 262.481 119.201H276.768C302.069 120.481 303.557 117.422 303.557 117.422C303.557 117.422 309.808 124.117 309.808 137.958C309.808 161.257 275.637 159.677 257.646 157.23Z" fill="#9AB0E6"/>
  <path d="M258.098 158.046L283.053 201.722L255.876 217.468L246.85 197.921C246.85 197.921 242.808 188.932 241.011 186.235M304.337 117.469C304.337 117.469 310.95 124.265 309.979 139.313C308.071 168.876 246.85 156.122 246.85 156.122L228.783 212.1L211.892 208.521L196.873 206.016C196.873 206.016 225.088 150.279 228.783 140.391C232.478 130.503 269.306 130.053 269.306 130.053" stroke="#4E4E4E" stroke-linecap="round"/>
  <path d="M246.234 43.8705L237.233 43.8873C237.233 43.8873 235.979 44.0956 234.537 42.3006C233.096 40.5055 231.483 36.4276 231.483 36.4276C231.483 36.4276 231.125 35.0794 231.605 34.445C231.948 33.9918 232.894 33.6711 232.894 33.6711C232.894 33.6711 232.612 32.5311 232.998 31.9717C233.488 31.2617 235.214 31.2547 235.214 31.2547C235.214 31.2547 234.842 29.8975 235.336 29.2721C235.747 28.7512 236.934 28.5172 236.934 28.5172L239.355 29.5185L239.826 22.1201C239.826 22.1201 239.942 19.7261 241.491 19.9835C242.591 20.1661 243.225 22.0798 243.225 22.0798L243.375 29.7649L244.323 24.4215C244.323 24.4215 245.459 21.0787 246.988 21.4567C248.516 21.8347 248.085 23.7992 248.085 23.7992L246.911 32.8246C246.911 32.8246 249.642 33.8458 249.503 36.1107C249.364 38.3756 246.769 39.3878 246.356 41.8879C246.229 42.6539 246.234 43.8705 246.234 43.8705Z" fill="#F3CEB5"/>
  <path d="M237.23 43.9003L241.731 43.8919L246.232 43.8835C246.232 43.8835 246.227 42.6669 246.353 41.9009C246.766 39.4008 249.362 38.3886 249.5 36.1237C249.639 33.8588 246.909 32.8376 246.909 32.8376L248.083 23.8122C248.083 23.8122 248.514 21.8477 246.985 21.4697C245.456 21.0917 244.991 23.6218 244.991 23.6218M241.489 19.9965C239.939 19.7391 239.734 23.3005 239.734 23.3005L239.352 29.5315L236.931 28.5302C236.931 28.5302 235.744 28.7642 235.333 29.2851C234.839 29.9105 235.211 31.2677 235.211 31.2677C235.211 31.2677 233.485 31.2747 232.995 31.9847C232.609 32.5441 232.891 33.6841 232.891 33.6841" stroke="black" stroke-width="0.4"/>
  <path d="M239.852 31.5353L242.169 34.236C242.169 34.236 242.473 35.3891 242.065 35.9353C241.386 36.8457 238.973 35.7458 238.973 35.7458M238.973 35.7458L235.214 31.251M238.973 35.7458C238.973 35.7458 239.608 37.618 238.817 38.2949C238.423 38.6312 237.545 38.7855 237.545 38.7855L233.442 34.8382M243.903 36.3323C243.903 36.3323 243.048 36.9228 242.596 37.3894C242.131 37.8704 241.582 38.7487 241.582 38.7487" stroke="black" stroke-width="0.4"/>
  <path d="M269.567 19.0587C265.782 23.4237 267.612 34.6974 267.612 34.6974L266.145 32.2533C266.145 32.2533 264.252 21.6387 268.101 16.6182C272.14 11.3479 276.252 10.4332 282.765 11.7262C289.655 13.094 295.034 16.9842 295.963 23.9469C296.346 26.8104 294.986 31.2793 294.986 31.2793L293.519 30.7905L294.008 23.9469C294.199 21.2743 287.52 14.8826 281.299 14.1703C276.08 13.5729 273.009 15.0907 269.567 19.0587Z" fill="#2F6858"/>
  <path d="M267.676 36.1551C267.676 37.0736 267.691 37.4845 267.405 38.2254C267.119 38.9663 267.463 40.3864 267.002 40.6633C266.541 40.9401 265.774 40.5307 265.316 40.2364C264.858 39.9422 263.985 38.907 263.707 38.1555C263.428 37.4039 263.284 36.5036 263.293 35.5853C263.303 34.667 263.467 33.7784 263.76 33.0485C264.054 32.3185 264.462 31.7852 264.926 31.5258C265.39 31.2665 266.884 31.1485 267.339 31.46L265.569 35.6714L267.676 36.1551Z" fill="#2F6858"/>
  <ellipse cx="266.89" cy="35.9683" rx="1.79836" ry="4.69491" fill="#5BA092"/>
  <path d="M296.573 34.0301C296.573 34.9486 296.592 35.3595 296.211 36.1004C295.83 36.8413 296.739 37.5945 296.124 37.8714C295.509 38.1482 293.402 37.9344 292.791 37.6401C292.18 37.3459 291.651 36.782 291.28 36.0305C290.909 35.2789 290.716 34.3786 290.729 33.4603C290.742 32.542 290.96 31.6534 291.351 30.9235C291.743 30.1935 292.288 29.6602 292.906 29.4008C293.525 29.1415 295.517 29.0235 296.124 29.335L293.763 33.5464L296.573 34.0301Z" fill="#5BA092"/>
  <ellipse cx="295.785" cy="33.548" rx="3.03473" ry="4.32145" fill="#2F6858"/>
  <path d="M202.093 112.928L202.094 115.848L226.52 116.597L202.093 112.928Z" fill="#FBF2E6"/>
  <path d="M195.5 64L199.324 88.5734L201.264 101.48L203.03 112.694C203.132 113.34 202.597 113.908 201.946 113.845L139.527 107.806" stroke="black"/>
  <path d="M198.242 88.2022L198.241 88.2022L198.24 88.1927L195.065 64.5541C195.032 64.3059 194.82 64.1206 194.569 64.1206L132.788 64.1209C132.48 64.1209 132.245 64.3971 132.295 64.7013L139.248 107.405C139.285 107.631 139.47 107.803 139.697 107.823L201.482 113.35C201.806 113.378 202.07 113.096 202.021 112.776L198.242 88.2022Z" fill="#858585" stroke="#858585"/>
  <path d="M162.078 88.181C162.264 86.6111 163.505 85.6734 165.12 85.4162C167.356 85.06 169.914 86.9249 169.551 89.0843C169.242 90.9248 167.363 91.9523 165.441 91.7201C163.519 91.4878 161.858 90.0342 162.078 88.181Z" fill="#D46C3B" stroke="#D46C3B"/>
  <path d="M227.022 117.693C227.09 117.131 226.678 116.624 226.114 116.576L203.51 114.653C202.973 114.607 202.497 114.994 202.432 115.529L202.286 116.739L202.144 117.914C202.078 118.462 202.469 118.96 203.017 119.026L225.525 121.747C226.073 121.813 226.571 121.422 226.638 120.874L227.022 117.693Z" fill="#995969"/>
  <path fill-rule="evenodd" clip-rule="evenodd" d="M226.65 121.147C226.625 121.422 226.381 121.624 226.106 121.598L201.969 119.348C201.694 119.323 201.492 119.079 201.517 118.804C201.543 118.529 201.787 118.327 202.062 118.353L226.199 120.603C226.474 120.628 226.676 120.872 226.65 121.147Z" fill="black"/>
  <path d="M202.529 114.328L138.985 108.255L138.985 111.887L201.893 119.589L202.529 114.328Z" fill="#858585"/>
  <path d="M138.881 108.257L202.543 114.206L202.312 117.725" stroke="black" stroke-width="0.4" stroke-linecap="round"/>
  <g filter="url(#filter0_d_4547_2207)">
  <path d="M196.129 65.9688L203.424 113.743" stroke="#FFF48D" stroke-opacity="0.3" shape-rendering="crispEdges"/>
  </g>
  <path d="M302.934 112.445C302.934 112.445 307.056 112.453 306.807 118.907C306.558 125.36 299.635 129.94 299.697 128.327" stroke="#2A2626"/>
  <path d="M281.672 108.86C281.806 108.897 281.961 108.939 282.132 108.985C282.799 109.163 283.731 109.402 284.794 109.647C286.911 110.133 289.58 110.648 291.705 110.73C293.83 110.812 296.53 110.505 298.678 110.183C299.757 110.021 300.705 109.855 301.383 109.728C301.583 109.691 301.76 109.657 301.91 109.628C301.922 109.836 301.936 110.095 301.951 110.397C301.991 111.23 302.032 112.39 302.04 113.698C302.054 116.325 301.928 119.501 301.386 121.819C300.992 123.506 300.208 125.459 299.514 127.007C299.168 127.777 298.847 128.44 298.613 128.91C298.519 129.099 298.439 129.256 298.377 129.377L284.584 128.844C284.534 128.718 284.471 128.555 284.396 128.361C284.207 127.868 283.948 127.175 283.669 126.375C283.109 124.769 282.475 122.753 282.156 121.06C281.714 118.716 281.598 115.52 281.595 112.886C281.593 111.573 281.62 110.41 281.646 109.574C281.655 109.298 281.664 109.058 281.672 108.86Z" fill="#858585" stroke="black"/>
  <path d="M291.661 110.302C295.282 110.418 300.404 109.041 301.539 108.721C301.692 108.678 301.864 108.578 301.806 108.431C301.65 108.038 300.295 107.238 292.139 106.922C284.926 106.643 282.524 107.432 281.725 108.009C281.385 108.254 281.594 108.627 282.001 108.727C283.697 109.145 288.252 110.193 291.661 110.302Z" fill="black" stroke="#CC826B"/>
  <path d="M288.79 123.795C288.471 123.783 288.185 123.744 287.932 123.68C287.684 123.616 287.562 123.511 287.568 123.365C287.569 123.333 287.583 123.261 287.611 123.148C287.638 123.035 287.671 122.931 287.712 122.837C287.756 122.743 287.808 122.697 287.867 122.699C287.876 122.699 287.926 122.711 288.017 122.732C288.134 122.764 288.236 122.791 288.321 122.812C288.412 122.83 288.514 122.84 288.628 122.845C289.229 122.868 289.666 122.766 289.94 122.54C290.217 122.313 290.366 121.938 290.387 121.415L290.614 115.526C290.621 115.344 290.786 115.259 291.11 115.272L291.205 115.276C291.533 115.288 291.694 115.386 291.686 115.568L291.464 121.333C291.433 122.139 291.201 122.759 290.769 123.194C290.342 123.629 289.682 123.83 288.79 123.795ZM294.841 124.029C294.395 124.012 293.98 123.948 293.596 123.837C293.218 123.722 292.915 123.592 292.688 123.446C292.466 123.296 292.357 123.164 292.361 123.051C292.364 122.987 292.392 122.904 292.446 122.801C292.505 122.698 292.57 122.607 292.641 122.528C292.713 122.448 292.769 122.41 292.81 122.411C292.846 122.413 292.925 122.452 293.045 122.53C293.321 122.686 293.597 122.818 293.871 122.924C294.145 123.031 294.48 123.091 294.876 123.107C295.186 123.119 295.464 123.07 295.71 122.961C295.956 122.852 296.149 122.693 296.289 122.484C296.434 122.271 296.512 122.023 296.523 121.74C296.535 121.44 296.462 121.189 296.306 120.986C296.154 120.78 295.965 120.615 295.737 120.492C295.514 120.365 295.187 120.207 294.756 120.017C294.29 119.816 293.921 119.633 293.649 119.468C293.382 119.298 293.156 119.059 292.972 118.751C292.792 118.443 292.712 118.04 292.731 117.544C292.748 117.111 292.874 116.729 293.111 116.396C293.347 116.058 293.674 115.802 294.091 115.626C294.509 115.451 294.984 115.374 295.516 115.394C295.758 115.403 296.032 115.448 296.339 115.529C296.646 115.604 296.907 115.703 297.121 115.826C297.34 115.948 297.446 116.078 297.441 116.214C297.439 116.273 297.411 116.354 297.357 116.457C297.307 116.556 297.249 116.645 297.182 116.724C297.115 116.804 297.063 116.843 297.027 116.841C296.986 116.84 296.905 116.802 296.785 116.729C296.584 116.612 296.385 116.518 296.187 116.446C295.989 116.37 295.747 116.327 295.46 116.316C294.991 116.297 294.606 116.403 294.306 116.634C294.009 116.864 293.853 117.195 293.836 117.628C293.826 117.887 293.882 118.104 294.003 118.277C294.124 118.451 294.28 118.591 294.472 118.699C294.664 118.807 294.933 118.934 295.278 119.079C295.301 119.085 295.353 119.105 295.433 119.14C295.909 119.345 296.296 119.543 296.594 119.732C296.897 119.917 297.149 120.178 297.35 120.514C297.556 120.85 297.649 121.273 297.63 121.783C297.611 122.261 297.484 122.674 297.247 123.02C297.014 123.367 296.69 123.628 296.272 123.804C295.86 123.975 295.383 124.05 294.841 124.029Z" fill="#F9F9FB"/>
  <path d="M155.379 234.289L136.627 120.394L96.6919 115.476L68.8745 240.848" stroke="black" stroke-width="4"/>
  <path d="M315.461 256.712L298.772 136.589L251.34 133.592L229.097 253.959" stroke="#2A2626" stroke-width="4"/>
  <path d="M56.5374 103.953C56.5583 103.371 57.0696 102.93 57.648 102.995L249.341 124.461C249.902 124.523 250.299 125.037 250.22 125.595L247.342 145.882C247.262 146.445 246.729 146.828 246.169 146.724L57.1176 111.537C56.6307 111.447 56.2834 111.013 56.3012 110.518L56.5374 103.953Z" fill="#F2B08F"/>
  <path d="M309.533 130.621C309.605 130.056 309.192 129.546 308.625 129.498L251.498 124.691C250.975 124.647 250.506 125.016 250.426 125.535L247.282 145.971C247.18 146.637 247.752 147.212 248.418 147.112L307.834 138.235C308.277 138.169 308.622 137.816 308.678 137.371L309.533 130.621Z" fill="#BFACA6"/>
  <path opacity="0.9" fill-rule="evenodd" clip-rule="evenodd" d="M216.997 42.1728C221.014 43.8515 224.998 47.1963 225.904 50.5883C226.753 53.767 223.068 55.1788 221.02 57.236C219.613 58.6481 218.446 60.3123 216.016 60.5183C213.653 60.7186 211.112 59.4029 208.618 58.2875C205.654 56.9614 201.763 56.0806 200.479 53.5679C199.196 51.056 202.038 49.5725 203.166 47.6153C204.233 45.7643 204.563 43.4854 206.799 42.6054C209.719 41.4561 213.306 40.6308 216.997 42.1728Z" fill="#FAF0E3"/>
  <path d="M212.759 45.094L205.385 45.6033L208.655 51.0334M219.239 45.3259L209.314 54.6489M219.105 48.514L222.044 54.5808L215.795 54.8809" stroke="#D46C3B" stroke-linecap="round" stroke-linejoin="round"/>
  <path fill-rule="evenodd" clip-rule="evenodd" d="M108.732 31.7882C111.933 31.7186 115.26 32.6717 117.399 34.7426C119.584 36.8581 120.456 39.8238 119.813 42.5184C119.223 44.9871 116.556 46.4205 114.239 47.9708C111.972 49.4875 109.744 51.3373 106.809 51.2179C103.74 51.0931 101.121 49.3489 99.0912 47.3546C97.0112 45.3114 95.0504 42.7997 95.5917 40.1989C96.1102 37.7071 99.2788 36.5995 101.644 35.0854C103.875 33.6575 105.896 31.8499 108.732 31.7882Z" fill="#FAF0E3"/>
  <path d="M100.644 34.6318L95.0232 41.6331L104.768 44.6375M106.887 33.2685L116.874 36.8615L111.011 43.2742" stroke="#D46C3B" stroke-linecap="round" stroke-linejoin="round"/>
  <path d="M102.987 35.362L105.112 39.51L104.365 34.7467C104.365 34.7467 103.59 34.2289 103.234 34.5072C102.961 34.7207 102.987 35.362 102.987 35.362Z" fill="#D46C3B" stroke="#D46C3B"/>
  <ellipse cx="1.29815" cy="1.2944" rx="1.29815" ry="1.2944" transform="matrix(1.00247 0.0960033 -0.0977924 0.988028 105.008 40.1875)" fill="#D46C3B"/>
  <path fill-rule="evenodd" clip-rule="evenodd" d="M173.313 27.3903C175.941 30.034 177.789 33.5978 177.721 37.0488C177.652 40.5741 175.798 43.6698 172.961 45.2711C170.363 46.7381 166.989 45.6302 163.796 44.9099C160.672 44.2051 157.292 43.7987 155.041 41.2288C152.687 38.5424 152.088 34.9465 152.177 31.6479C152.269 28.2684 152.859 24.6166 155.532 23.0035C158.094 21.458 161.589 23.2484 164.79 24.0381C167.809 24.7829 170.985 25.0481 173.313 27.3903Z" fill="#FAF0E3"/>
  <path d="M160.464 32.9596C160.464 32.9596 162.172 32.0379 163.355 32.1864C164.589 32.3413 166.072 33.7634 166.072 33.7634M160.464 32.9596L160.038 36.0832L165.645 36.887L166.072 33.7634M160.464 32.9596C160.464 32.9596 161.009 31.3096 160.835 30.2414C160.638 29.0282 159.32 27.3851 159.32 27.3851C159.32 27.3851 158.114 25.4002 158.162 24.0522C158.248 21.6704 159.796 19.9851 162.32 19.3701C164.106 18.935 165.362 19.3034 167.065 20.0502C168.596 20.722 169.567 21.28 170.377 22.6363C171.345 24.2589 171.161 25.5578 170.621 27.2897C169.986 29.3223 167.96 29.6153 166.965 31.516C166.525 32.357 166.072 33.7634 166.072 33.7634" stroke="#D46C3B"/>
  <path d="M165.154 30.9141C164.634 30.5901 165.697 25.205 166.154 24.4141C166.534 23.7572 167.147 23.5815 167.798 23.9906C167.953 24.088 168.088 24.492 167.993 24.8265C167.596 26.2201 165.653 25.3532 164.426 25.2115C163.438 25.0974 162.275 25.0085 162.039 23.8835C161.899 23.2127 162.246 22.8295 162.826 22.6504C163.493 22.4445 164.397 23.6151 164.154 24.4139C163.886 25.2967 163.217 30.5402 162.655 30.9122" stroke="#D46C3B" stroke-width="0.5"/>
  <path d="M172.161 21.6066L177.561 19.37M167.425 17.917L168.858 13.8214M159.258 18.0365L155.883 13.9686M163.428 17.344L163.147 13.0028" stroke="#D46C3B"/>
  <path d="M164.872 35.2771C164.289 34.963 163.479 34.085 161.846 34.4652" stroke="#D46C3B"/>
  <path opacity="0.9" fill-rule="evenodd" clip-rule="evenodd" d="M236.754 95.5028C238.942 97.0192 241.543 98.22 242.352 100.743C243.228 103.475 243.026 106.811 241.066 108.949C239.228 110.953 236.068 110.226 233.362 110.545C231.067 110.816 228.747 111.684 226.7 110.646C224.478 109.519 222.494 107.44 222.352 104.965C222.217 102.633 224.921 101.329 226.044 99.2631C227.401 96.766 226.793 92.7762 229.491 91.8289C232.173 90.8875 234.441 93.8991 236.754 95.5028Z" fill="#FAF0E3"/>
  <path d="M229.161 96.0195L224.914 98.3101L228.88 102.021M232.439 96.7289L236.389 100.793L232.159 102.731M229.928 106.171L233.878 110.235L241.175 104.681" stroke="#D46C3B" stroke-linecap="round" stroke-linejoin="round"/>
  <path fill-rule="evenodd" clip-rule="evenodd" d="M107.754 77.6008C111.255 77.9923 113.313 81.5695 114.951 84.5222C116.577 87.4504 118.565 91.106 116.736 93.7851C114.95 96.4013 110.599 95.2966 107.264 95.7807C105.371 96.0556 103.634 96.1968 101.71 95.9669C98.9444 95.6364 95.6736 96.2032 93.8574 94.1785C91.8894 91.9845 91.5554 88.5787 92.8805 86.1232C94.1112 83.8423 97.6405 84.183 99.9719 82.8471C102.811 81.2204 104.362 77.2215 107.754 77.6008Z" fill="#FAF0E3"/>
  <path d="M89.6138 90.7341C89.3164 90.8364 89.1311 90.889 89.1311 90.889C89.1311 90.889 89.3133 90.8241 89.6138 90.7341Z" fill="#D46C3B"/>
  <path d="M110.993 82.7554C112.245 82.2738 113.62 80.5452 113.62 80.5452C113.62 80.5452 111.998 81.522 110.993 82.7554Z" fill="#D46C3B"/>
  <path d="M93.8067 80.6745C93.8067 80.6745 91.0465 81.071 90.1397 82.2996C88.5366 84.4714 94.6875 85.3269 93.7837 87.8093C93.0692 89.7718 89.1311 90.889 89.1311 90.889C89.1311 90.889 92.0989 89.8323 93.841 90.3284C96.6199 91.1198 94.7407 96.2404 97.6798 96.2607C99.2336 96.2715 101.347 94.6356 101.347 94.6356M103.169 77.0343C103.169 77.0343 105.603 72.2669 106.641 74.9866C107.68 77.7063 108.262 79.2312 109.3 81.9509C110.338 84.6706 113.62 80.5452 113.62 80.5452C113.62 80.5452 110.718 82.2921 110.274 84.0637C109.686 86.4091 114.693 87.3212 113.265 89.354C112.388 90.6013 109.598 90.9791 109.598 90.9791" stroke="#D46C3B" stroke-linecap="round" stroke-linejoin="round"/>
  <path d="M100.689 85.9469C101.015 86.6527 100.742 87.3075 100.302 87.5028C99.8611 87.698 99.1798 87.4659 98.8545 86.7601C98.5291 86.0543 98.8015 85.3995 99.2421 85.2043C99.6828 85.009 100.364 85.2411 100.689 85.9469Z" fill="#D46C3B" stroke="#D46C3B"/>
  <path d="M105.95 82.9592C106.14 83.3699 105.962 83.6944 105.775 83.7776C105.587 83.8607 105.221 83.777 105.032 83.3663C104.843 82.9556 105.02 82.6311 105.208 82.5479C105.395 82.4648 105.761 82.5485 105.95 82.9592Z" fill="#E3642A" stroke="#D46C3B"/>
  <defs>
  <filter id="filter0_d_4547_2207" x="195.635" y="63.8906" width="20.2832" height="59.9297" filterUnits="userSpaceOnUse" color-interpolation-filters="sRGB">
  <feFlood flood-opacity="0" result="BackgroundImageFix"/>
  <feColorMatrix in="SourceAlpha" type="matrix" values="0 0 0 0 0 0 0 0 0 0 0 0 0 0 0 0 0 0 127 0" result="hardAlpha"/>
  <feOffset dx="6" dy="4"/>
  <feGaussianBlur stdDeviation="3"/>
  <feComposite in2="hardAlpha" operator="out"/>
  <feColorMatrix type="matrix" values="0 0 0 0 1 0 0 0 0 0.956863 0 0 0 0 0.552941 0 0 0 1 0"/>
  <feBlend mode="normal" in2="BackgroundImageFix" result="effect1_dropShadow_4547_2207"/>
  <feBlend mode="normal" in="SourceGraphic" in2="effect1_dropShadow_4547_2207" result="shape"/>
  </filter>
  </defs>
  </svg>
