<svg width="443" height="278" viewBox="0 0 443 278" fill="none" xmlns="http://www.w3.org/2000/svg">
  <path d="M420.62 257.619C523.62 317.523 298.325 296.38 202.503 296.38C106.68 296.38 29 264.645 29 251.579C29 238.512 106.68 227.92 202.503 227.92C298.325 227.92 394.732 218.859 420.62 257.619Z" fill="#312823"/>
  <path d="M347.455 125.137L340.612 153.489L308.838 150.556L312.749 49.8576C312.749 49.8576 322.185 44.3193 328.88 43.9917C340.567 43.4196 348.922 45.4595 355.277 58.1677C361.631 70.8758 347.455 125.137 347.455 125.137Z" fill="#256652" stroke="black" stroke-width="0.4"/>
  <rect x="258.977" y="152.508" width="83.1008" height="12.7095" rx="6.35477" fill="#256652"/>
  <path d="M307.857 165.215H337.288C337.288 165.215 342.08 163.26 342.074 159.193C342.068 154.633 338.868 153.211 338.868 153.211" stroke="black" stroke-width="0.4"/>
  <rect x="266.799" y="230.719" width="66.4807" height="12.7095" rx="6.35477" fill="#256652"/>
  <path d="M301.507 236.122C297.997 236.08 295.186 233.202 295.227 229.693L295.989 164.885L308.698 165.035L307.936 229.842C307.894 233.351 305.016 236.163 301.507 236.122Z" fill="#173F33"/>
  <circle cx="274.13" cy="247.837" r="4.39946" fill="#256652"/>
  <circle cx="295.327" cy="247.103" r="4.39946" fill="#173F33"/>
  <circle cx="326.923" cy="247.837" r="4.39946" fill="#256652"/>
  <circle cx="300.526" cy="247.837" r="4.39946" fill="#256652"/>
  <path d="M313.388 52.3581L313.81 47.3203L306.561 48.2133L306.219 51.7851L301.309 52.3581C301.309 52.3581 306.2 59.7892 308.661 58.5753C311.123 57.3613 314.078 53.572 316.539 52.3581H313.388Z" fill="#BF9D86"/>
  <path d="M316.504 51.7984C316.504 51.7984 311.087 56.8016 308.626 58.0156C306.165 59.2295 300.858 52.6764 300.858 52.6764C300.858 52.6764 304.876 52.23 306 51.7984C307.124 51.3667 306.216 47.7656 306.216 47.7656" stroke="black" stroke-width="0.4" stroke-linecap="round"/>
  <path fill-rule="evenodd" clip-rule="evenodd" d="M342.998 147L332.987 102.238L334.276 117.358C316.241 123.385 285.941 120.016 285.417 114.503L285.089 104.668L288.079 81.6332C288.079 81.6332 285.617 85.2213 275.002 85.4414C267.181 85.6036 261.795 78.1599 261.795 78.1599V44.1797H278.231V50.9757V57.7718V64.0869C278.231 64.0869 283.278 57.2982 286.932 54.2277C289.869 51.76 293.217 51.8059 293.217 51.8059H301.156C301.156 51.8059 302.726 53.828 305.864 55.8501C307.784 57.087 309.002 56.8612 309.002 56.8612C310.572 55.8501 312.962 54.2277 312.962 54.2277L317.372 51.8041C317.372 51.8041 324.762 51.6652 328.552 52.9019C333.227 54.427 335.628 55.5706 339.85 58.3518C346.855 62.9665 349.998 75.5 349.998 75.5L352.33 87C352.886 89.2345 354.998 106 355.147 110.5C355.262 113.975 357.648 147 357.648 147H342.998Z" fill="#B35C35"/>
  <path d="M344.957 145.628L355.237 146.931C355.237 146.931 357.684 160.027 356.963 161.522C356.243 163.016 356.381 161.973 356.381 161.973M345.626 164.257C345.626 164.257 345.932 165.889 346.722 163.874C347.511 161.858 348.477 154.57 348.477 154.57M349.014 166.295C349.014 166.295 349.39 167.406 350.11 165.912C350.831 164.418 350.976 155.431 350.976 155.431M352.372 164.622C352.372 164.622 353.261 165.8 353.537 163.717C353.813 161.633 353.099 155.183 353.099 155.183" stroke="black" stroke-width="0.809525" stroke-linecap="round"/>
  <path d="M345.158 152.003C345.158 152.003 343.819 153.914 342.69 154.855C341.687 155.69 339.846 156.597 339.846 156.597" stroke="black" stroke-width="0.809525" stroke-linecap="round"/>
  <path d="M344.959 145.626C344.959 145.626 336.213 157.509 340.43 156.152C341.339 155.859 342.229 155.15 342.99 154.372C344.299 153.034 345.228 151.489 345.228 151.489L345.183 163.668C345.183 163.668 345.934 165.887 346.724 163.872C347.513 161.857 348.479 154.569 348.479 154.569L348.571 165.706C348.571 165.706 349.392 167.404 350.112 165.91C350.833 164.416 350.978 155.429 350.978 155.429L351.415 163.963C351.415 163.963 353.263 165.798 353.539 163.715C353.815 161.631 353.101 155.181 353.101 155.181L355.355 161.836C355.355 161.836 356.245 163.015 356.965 161.52C357.686 160.025 355.239 146.929 355.239 146.929L344.959 145.626Z" fill="#BF9D86"/>
  <path d="M352 84.5036L354.5 106L357.596 146.181" stroke="black" stroke-width="0.404763" stroke-linecap="round"/>
  <path d="M333.818 109.844L334.346 116.801C334.346 116.801 333.29 119.666 310.053 119.666C286.817 119.666 285.233 115.164 285.233 115.164" stroke="black" stroke-width="0.404763" stroke-linecap="round"/>
  <path d="M296.63 33.583C298.683 43.2882 299.524 46.433 306.667 48.6685C313.81 50.904 318.503 42.8674 319.969 36.0751C321.436 29.2828 313.002 19.5246 306.264 18.6378C301.839 20.0567 295.186 23.1586 296.63 33.583Z" fill="#BF9D86"/>
  <path d="M303.392 38.6802C306.099 40.6534 309.002 39.5112 311.682 38.1672C314.363 36.8231 309.755 41.8949 307.579 41.9387C305.507 41.9803 303.392 38.6802 303.392 38.6802Z" fill="black" stroke="black" stroke-width="0.404763" stroke-linecap="round" stroke-linejoin="round"/>
  <path d="M305.694 29.2617C304.555 28.5083 304.21 28.4417 303.206 28.5513C302.28 28.6522 301.073 29.6179 301.073 29.6179M317.621 42.712C317.621 42.712 313.203 49.7092 308.397 49.0227C304.999 48.5373 304.028 47.5664 304.028 47.5664" stroke="black" stroke-width="0.404763" stroke-linecap="round" stroke-linejoin="round"/>
  <path d="M309.361 28.7852C309.361 28.7852 310.563 27.7188 311.494 27.7188C312.426 27.7188 313.627 28.7852 313.627 28.7852" stroke="black" stroke-width="0.4" stroke-linecap="round"/>
  <circle cx="1.24421" cy="1.24421" r="1.24421" transform="matrix(-0.99145 -0.130489 -0.130489 0.99145 304.832 30.6172)" fill="#0F0F0F"/>
  <circle cx="1.24421" cy="1.24421" r="1.24421" transform="matrix(-0.99145 -0.130489 -0.130489 0.99145 312.861 30.1797)" fill="#0F0F0F"/>
  <path fill-rule="evenodd" clip-rule="evenodd" d="M297.616 18.4117C296.734 19.9542 296.132 21.6899 295.885 23.5597C295.574 25.9255 295.696 26.6797 296.228 26.5532C296.023 27.7822 295.372 31.935 295.776 32.7441C296.252 33.6961 296.908 35.186 296.908 35.186C296.908 35.186 297.177 33.5213 297.123 28.9885C297.103 27.3145 297.302 26.2569 297.562 25.5888C297.695 25.4689 297.835 25.3409 297.982 25.2065L297.982 25.206L297.982 25.2059C298.216 24.9923 298.467 24.7627 298.736 24.5238C299.472 23.8686 300.34 23.1445 301.333 22.494C301.786 22.1977 302.229 21.6832 302.691 21.1475C303.56 20.1395 304.494 19.0567 305.672 19.2119C306.453 19.3147 307.332 19.6306 308.261 20.0905L316.094 25.8015C316.327 26.0096 316.553 26.2137 316.77 26.4123L317.213 31.9796C317.213 31.9796 318.247 33.2575 318.126 34.1751L317.321 40.2949C317.321 40.2949 317.421 41.6051 317.643 42.4125C318.247 44.6142 318.857 46.2344 320.908 47.2892C321.946 47.8233 324.967 48.4164 324.967 48.4164C324.967 48.4164 321.739 45.7994 320.739 44.0059C320.227 43.0875 320.042 42.2387 319.834 41.2779C319.786 41.0603 319.738 40.837 319.684 40.6059C318.744 36.5747 320.397 30.6199 320.397 30.6199L320.465 30.6156C320.991 31.0811 321.634 31.3912 322.683 31.5292C323.278 31.3871 323.523 29.7078 323.695 28.4022C324.032 25.8483 323.686 23.2381 322.792 20.8511C323.723 20.3687 324.483 19.6419 324.951 18.6981C326.325 15.9317 324.684 12.349 321.285 10.6959C318.329 9.258 315.017 9.75348 313.3 11.7272C312.794 11.5918 312.275 11.4879 311.744 11.418C310.341 11.2332 308.959 11.2604 307.631 11.4749C306.708 8.80383 303.428 7.22108 299.968 7.88997C296.257 8.60739 293.745 11.6433 294.356 14.6709C294.697 16.3608 295.939 17.6909 297.616 18.4117Z" fill="black"/>
  <path d="M295.273 212.818C295.046 210.048 294.281 209.923 294.281 209.923L301.161 204.402C301.161 204.402 302.899 207.1 304.404 208.443C305.833 209.717 307.113 209.738 308.501 211.06C309.475 211.988 310.541 212.455 310.663 213.754C310.772 214.919 309.36 216.276 309.36 216.276L295.195 227.643L291.592 223.154C291.592 223.154 295.501 215.588 295.273 212.818Z" fill="#BF9D86"/>
  <path d="M292.273 231.464L289.03 227.424C289.03 227.424 287.961 228.835 287.727 229.946C287.414 231.433 288.27 233.939 288.27 233.939L292.273 231.464Z" fill="#BF9D86"/>
  <path d="M288.852 226.908C288.852 226.908 289.355 225.561 289.842 224.785C290.396 223.9 291.565 222.737 291.565 222.737L296.429 228.798L292.743 231.756L288.852 226.908Z" fill="#256652"/>
  <path d="M287.844 232.364L288.083 233.5L312.744 213.045C312.744 213.045 313.928 213.682 314.45 214.333C314.972 214.983 315.338 216.278 315.338 216.278L289.943 236.658C289.943 236.658 289.253 236.443 288.885 236.178C288.392 235.823 288.168 235.517 287.912 234.966C287.486 234.048 287.844 232.364 287.844 232.364Z" fill="#256652"/>
  <path d="M312.746 213.062L295.133 227.197L291.891 223.156" stroke="black" stroke-width="0.404763"/>
  <path d="M236.065 212.61C238.038 210.912 237.659 207.652 237.659 207.652L246.904 209.624C246.904 209.624 247.218 211.568 247.175 213.39C247.135 215.119 246.419 216.936 249.475 220.237C250.307 221.136 250.039 223.593 249.124 224.4C248.303 225.124 246.34 224.866 246.34 224.866L226.2 221.102L227.388 215.528C227.388 215.528 234.092 214.308 236.065 212.61Z" fill="#BF9D86"/>
  <path d="M223.524 221.061L224.496 216.5C224.496 216.5 222.715 216.518 221.712 216.966C220.368 217.567 219.009 219.569 219.009 219.569L223.524 221.061Z" fill="#BF9D86"/>
  <path d="M224.709 216.002C224.709 216.002 222.664 216.404 223.573 216.29C224.004 216.236 224.849 214.957 226.06 214.701C227.761 214.342 229.469 214.369 229.469 214.369L227.742 222.476L223.119 221.491L224.709 216.002Z" fill="#256652"/>
  <path d="M220.469 218.274L219.739 219.178L250.264 225.156C250.264 225.156 250.52 226.477 250.346 227.293C250.172 228.109 249.4 229.21 249.4 229.21L217.555 222.421C217.555 222.421 217.284 221.75 217.257 221.298C217.221 220.691 217.316 220.324 217.581 219.777C218.023 218.867 220.469 218.274 220.469 218.274Z" fill="#256652"/>
  <path d="M250.262 225.174L228.176 220.466L229.256 215.398" stroke="black" stroke-width="0.404763"/>
  <path d="M286.646 157.23L312.019 201.804L284.784 217.431L275.854 196.893C275.854 196.893 271.716 189.226 267.507 181.516L257.894 211.627L226.295 205.823C226.295 205.823 244.043 168.933 253.103 148.995C252.812 147.244 252.637 145.478 252.637 143.762C252.637 133.493 291.481 119.201 291.481 119.201H305.768C331.069 120.481 332.557 117.422 332.557 117.422C332.557 117.422 338.808 124.117 338.808 137.958C338.808 161.257 304.637 159.677 286.646 157.23Z" fill="#7889B3"/>
  <path d="M287.098 158.046L312.053 201.722L284.876 217.468L275.85 197.921C275.85 197.921 271.808 188.932 270.011 186.235M333.337 117.469C333.337 117.469 339.95 124.265 338.979 139.313C337.071 168.876 275.85 156.122 275.85 156.122L257.783 212.1L240.892 208.521L225.873 206.016C225.873 206.016 254.088 150.279 257.783 140.391C261.478 130.503 298.306 130.053 298.306 130.053" stroke="#566280" stroke-linecap="round"/>
  <path d="M275.234 43.8705L266.233 43.8873C266.233 43.8873 264.979 44.0956 263.537 42.3006C262.096 40.5055 260.483 36.4276 260.483 36.4276C260.483 36.4276 260.125 35.0794 260.605 34.445C260.948 33.9918 261.894 33.6711 261.894 33.6711C261.894 33.6711 261.612 32.5311 261.998 31.9717C262.488 31.2617 264.214 31.2547 264.214 31.2547C264.214 31.2547 263.842 29.8975 264.336 29.2721C264.747 28.7512 265.934 28.5172 265.934 28.5172L268.355 29.5185L268.826 22.1201C268.826 22.1201 268.942 19.7261 270.491 19.9835C271.591 20.1661 272.225 22.0798 272.225 22.0798L272.375 29.7649L273.323 24.4215C273.323 24.4215 274.459 21.0787 275.988 21.4567C277.516 21.8347 277.085 23.7992 277.085 23.7992L275.911 32.8246C275.911 32.8246 278.642 33.8458 278.503 36.1107C278.364 38.3756 275.769 39.3878 275.356 41.8879C275.229 42.6539 275.234 43.8705 275.234 43.8705Z" fill="#BF9D86"/>
  <path d="M266.23 43.9003L270.731 43.8919L275.232 43.8835C275.232 43.8835 275.227 42.6669 275.353 41.9009C275.766 39.4008 278.362 38.3886 278.5 36.1237C278.639 33.8588 275.909 32.8376 275.909 32.8376L277.083 23.8122C277.083 23.8122 277.514 21.8477 275.985 21.4697C274.456 21.0917 273.991 23.6218 273.991 23.6218M270.489 19.9965C268.939 19.7391 268.734 23.3005 268.734 23.3005L268.352 29.5315L265.931 28.5302C265.931 28.5302 264.744 28.7642 264.333 29.2851C263.839 29.9105 264.211 31.2677 264.211 31.2677C264.211 31.2677 262.485 31.2747 261.995 31.9847C261.609 32.5441 261.891 33.6841 261.891 33.6841" stroke="black" stroke-width="0.4"/>
  <path d="M268.852 31.5353L271.169 34.236C271.169 34.236 271.473 35.3891 271.065 35.9353C270.386 36.8457 267.973 35.7458 267.973 35.7458M267.973 35.7458L264.214 31.251M267.973 35.7458C267.973 35.7458 268.608 37.618 267.817 38.2949C267.423 38.6312 266.545 38.7855 266.545 38.7855L262.442 34.8382M272.903 36.3323C272.903 36.3323 272.048 36.9228 271.596 37.3894C271.131 37.8704 270.582 38.7487 270.582 38.7487" stroke="black" stroke-width="0.4"/>
  <path d="M298.567 19.0587C294.782 23.4237 296.612 34.6974 296.612 34.6974L295.145 32.2533C295.145 32.2533 293.252 21.6387 297.101 16.6182C301.14 11.3479 305.252 10.4332 311.765 11.7262C318.655 13.094 324.034 16.9842 324.963 23.9469C325.346 26.8104 323.986 31.2793 323.986 31.2793L322.519 30.7905L323.008 23.9469C323.199 21.2743 316.52 14.8826 310.299 14.1703C305.08 13.5729 302.009 15.0907 298.567 19.0587Z" fill="#173F33"/>
  <path d="M296.676 36.1551C296.676 37.0736 296.691 37.4845 296.405 38.2254C296.119 38.9663 296.463 40.3864 296.002 40.6633C295.541 40.9401 294.774 40.5307 294.316 40.2364C293.858 39.9422 292.985 38.907 292.707 38.1555C292.428 37.4039 292.284 36.5036 292.293 35.5853C292.303 34.667 292.467 33.7784 292.76 33.0485C293.054 32.3185 293.462 31.7852 293.926 31.5258C294.39 31.2665 295.884 31.1485 296.339 31.46L294.569 35.6714L296.676 36.1551Z" fill="#173F33"/>
  <ellipse cx="295.89" cy="35.9683" rx="1.79836" ry="4.69491" fill="#256652"/>
  <path d="M325.573 34.0301C325.573 34.9486 325.592 35.3595 325.211 36.1004C324.83 36.8413 325.739 37.5945 325.124 37.8714C324.509 38.1482 322.402 37.9344 321.791 37.6401C321.18 37.3459 320.651 36.782 320.28 36.0305C319.909 35.2789 319.716 34.3786 319.729 33.4603C319.742 32.542 319.96 31.6534 320.351 30.9235C320.743 30.1935 321.288 29.6602 321.906 29.4008C322.525 29.1415 324.517 29.0235 325.124 29.335L322.763 33.5464L325.573 34.0301Z" fill="#256652"/>
  <ellipse cx="324.785" cy="33.548" rx="3.03473" ry="4.32145" fill="#173F33"/>
  <path d="M231.093 112.928L231.094 115.848L255.52 116.597L231.093 112.928Z" fill="#807B75"/>
  <path d="M224.5 64L228.324 88.5734L230.264 101.48L232.03 112.694C232.132 113.34 231.597 113.908 230.946 113.845L168.527 107.806" stroke="black"/>
  <path d="M227.242 88.2022L227.241 88.2022L227.24 88.1927L224.065 64.5541C224.032 64.3059 223.82 64.1206 223.569 64.1206L161.788 64.1209C161.48 64.1209 161.245 64.3971 161.295 64.7013L168.248 107.405C168.285 107.631 168.47 107.803 168.697 107.823L230.482 113.35C230.806 113.378 231.07 113.096 231.021 112.776L227.242 88.2022Z" fill="#858585" stroke="#858585"/>
  <path d="M191.078 88.181C191.264 86.6111 192.505 85.6734 194.12 85.4162C196.356 85.06 198.914 86.9249 198.551 89.0843C198.242 90.9248 196.363 91.9523 194.441 91.7201C192.519 91.4878 190.858 90.0342 191.078 88.181Z" fill="#D46C3B" stroke="#D46C3B"/>
  <path d="M256.022 117.693C256.09 117.131 255.678 116.624 255.114 116.576L232.51 114.653C231.973 114.607 231.497 114.994 231.432 115.529L231.286 116.739L231.144 117.914C231.078 118.462 231.469 118.96 232.017 119.026L254.525 121.747C255.073 121.813 255.571 121.422 255.638 120.874L256.022 117.693Z" fill="#424040"/>
  <path fill-rule="evenodd" clip-rule="evenodd" d="M255.65 121.147C255.625 121.422 255.381 121.624 255.106 121.598L230.969 119.348C230.694 119.323 230.492 119.079 230.517 118.804C230.543 118.529 230.787 118.327 231.062 118.353L255.199 120.603C255.474 120.628 255.676 120.872 255.65 121.147Z" fill="black"/>
  <path d="M231.529 114.328L167.985 108.255L167.985 111.887L230.893 119.589L231.529 114.328Z" fill="#858585"/>
  <path d="M167.881 108.257L231.543 114.206L231.312 117.725" stroke="black" stroke-width="0.4" stroke-linecap="round"/>
  <g filter="url(#filter0_d_4694_256)">
  <path d="M225.129 65.9688L232.424 113.743" stroke="#FFF48D" stroke-opacity="0.1" shape-rendering="crispEdges"/>
  </g>
  <path d="M331.934 112.445C331.934 112.445 336.056 112.453 335.807 118.907C335.558 125.36 328.635 129.94 328.697 128.327" stroke="#2A2626"/>
  <path d="M310.672 108.86C310.806 108.897 310.961 108.939 311.132 108.985C311.799 109.163 312.731 109.402 313.794 109.647C315.911 110.133 318.58 110.648 320.705 110.73C322.83 110.812 325.53 110.505 327.678 110.183C328.757 110.021 329.705 109.855 330.383 109.728C330.583 109.691 330.76 109.657 330.91 109.628C330.922 109.836 330.936 110.095 330.951 110.397C330.991 111.23 331.032 112.39 331.04 113.698C331.054 116.325 330.928 119.501 330.386 121.819C329.992 123.506 329.208 125.459 328.514 127.007C328.168 127.777 327.847 128.44 327.613 128.91C327.519 129.099 327.439 129.256 327.377 129.377L313.584 128.844C313.534 128.718 313.471 128.555 313.396 128.361C313.207 127.868 312.948 127.175 312.669 126.375C312.109 124.769 311.475 122.753 311.156 121.06C310.714 118.716 310.598 115.52 310.595 112.886C310.593 111.573 310.62 110.41 310.646 109.574C310.655 109.298 310.664 109.058 310.672 108.86Z" fill="#424040" stroke="black"/>
  <path d="M320.661 110.302C324.282 110.418 329.404 109.041 330.539 108.721C330.692 108.678 330.864 108.578 330.806 108.431C330.65 108.038 329.295 107.238 321.139 106.922C313.926 106.643 311.524 107.432 310.725 108.009C310.385 108.254 310.594 108.627 311.001 108.727C312.697 109.145 317.252 110.193 320.661 110.302Z" fill="black" stroke="#CC826B"/>
  <path d="M317.79 123.795C317.471 123.783 317.185 123.744 316.932 123.68C316.684 123.616 316.562 123.511 316.568 123.365C316.569 123.333 316.583 123.261 316.611 123.148C316.638 123.035 316.671 122.931 316.712 122.837C316.756 122.743 316.808 122.697 316.867 122.699C316.876 122.699 316.926 122.711 317.017 122.732C317.134 122.764 317.236 122.791 317.321 122.812C317.412 122.83 317.514 122.84 317.628 122.845C318.229 122.868 318.666 122.766 318.94 122.54C319.217 122.313 319.366 121.938 319.387 121.415L319.614 115.526C319.621 115.344 319.786 115.259 320.11 115.272L320.205 115.276C320.533 115.288 320.694 115.386 320.686 115.568L320.464 121.333C320.433 122.139 320.201 122.759 319.769 123.194C319.342 123.629 318.682 123.83 317.79 123.795ZM323.841 124.029C323.395 124.012 322.98 123.948 322.596 123.837C322.218 123.722 321.915 123.592 321.688 123.446C321.466 123.296 321.357 123.164 321.361 123.051C321.364 122.987 321.392 122.904 321.446 122.801C321.505 122.698 321.57 122.607 321.641 122.528C321.713 122.448 321.769 122.41 321.81 122.411C321.846 122.413 321.925 122.452 322.045 122.53C322.321 122.686 322.597 122.818 322.871 122.924C323.145 123.031 323.48 123.091 323.876 123.107C324.186 123.119 324.464 123.07 324.71 122.961C324.956 122.852 325.149 122.693 325.289 122.484C325.434 122.271 325.512 122.023 325.523 121.74C325.535 121.44 325.462 121.189 325.306 120.986C325.154 120.78 324.965 120.615 324.737 120.492C324.514 120.365 324.187 120.207 323.756 120.017C323.29 119.816 322.921 119.633 322.649 119.468C322.382 119.298 322.156 119.059 321.972 118.751C321.792 118.443 321.712 118.04 321.731 117.544C321.748 117.111 321.874 116.729 322.111 116.396C322.347 116.058 322.674 115.802 323.091 115.626C323.509 115.451 323.984 115.374 324.516 115.394C324.758 115.403 325.032 115.448 325.339 115.529C325.646 115.604 325.907 115.703 326.121 115.826C326.34 115.948 326.446 116.078 326.441 116.214C326.439 116.273 326.411 116.354 326.357 116.457C326.307 116.556 326.249 116.645 326.182 116.724C326.115 116.804 326.063 116.843 326.027 116.841C325.986 116.84 325.905 116.802 325.785 116.729C325.584 116.612 325.385 116.518 325.187 116.446C324.989 116.37 324.747 116.327 324.46 116.316C323.991 116.297 323.606 116.403 323.306 116.634C323.009 116.864 322.853 117.195 322.836 117.628C322.826 117.887 322.882 118.104 323.003 118.277C323.124 118.451 323.28 118.591 323.472 118.699C323.664 118.807 323.933 118.934 324.278 119.079C324.301 119.085 324.353 119.105 324.433 119.14C324.909 119.345 325.296 119.543 325.594 119.732C325.897 119.917 326.149 120.178 326.35 120.514C326.556 120.85 326.649 121.273 326.63 121.783C326.611 122.261 326.484 122.674 326.247 123.02C326.014 123.367 325.69 123.628 325.272 123.804C324.86 123.975 324.383 124.05 323.841 124.029Z" fill="#F9F9FB"/>
  <path d="M184.379 234.289L165.627 120.394L125.692 115.476L97.8745 240.848" stroke="#424040" stroke-width="4"/>
  <path d="M344.461 256.712L327.772 136.589L280.34 133.592L258.097 253.959" stroke="#424040" stroke-width="4"/>
  <path d="M85.5374 103.953C85.5583 103.371 86.0696 102.93 86.648 102.995L278.341 124.461C278.902 124.523 279.299 125.037 279.22 125.595L276.342 145.882C276.262 146.445 275.729 146.828 275.169 146.724L86.1176 111.537C85.6307 111.447 85.2834 111.013 85.3012 110.518L85.5374 103.953Z" fill="#4D3E36"/>
  <path d="M338.533 130.621C338.605 130.056 338.192 129.546 337.625 129.498L280.498 124.691C279.975 124.647 279.506 125.016 279.426 125.535L276.282 145.971C276.18 146.637 276.752 147.212 277.418 147.112L336.834 138.235C337.277 138.169 337.622 137.816 337.678 137.371L338.533 130.621Z" fill="#665C59"/>
  <path d="M39.8757 227.953C40.4153 222.867 44.7054 219.008 49.8199 219.008H56.9533C61.9878 219.008 66.2374 222.751 66.8732 227.745L70.5872 256.918C70.5872 256.918 60.0921 259.273 53.2928 259.229C46.8054 259.188 36.8027 256.918 36.8027 256.918L39.8757 227.953Z" fill="#593221"/>
  <ellipse cx="53.4953" cy="222.435" rx="10.6984" ry="3.77082" fill="#663A26"/>
  <path d="M90.2269 204.929C90.2269 204.929 83.9005 207.74 79.6462 207.833C74.6527 207.941 67.2285 204.417 67.2285 204.417C67.2285 204.417 68.0055 198.153 69.68 194.668C71.5521 190.772 74.3858 188.169 74.3858 188.169C74.0524 189.495 77.75 193.525 77.75 193.525L77.2785 183.186C77.2785 183.186 85.5686 178.608 91.1945 178.941C100.757 179.507 111.198 194.768 111.198 194.768C106.329 201.252 102.574 203.394 93.8487 204.152L93.4724 195.429L91.6606 195.821L90.2269 204.929Z" fill="#256652"/>
  <path d="M102.865 197.007L100.657 192.681" stroke="#173F33"/>
  <path d="M74.7572 196.914L84.5229 202.361" stroke="#173F33"/>
  <path d="M85.3978 192.482L87.0136 187.842" stroke="#173F33"/>
  <path d="M51.5448 226.242C51.5448 226.242 52.0532 215.454 57.7412 208.155C63.4292 200.856 77.9831 194.471 87.998 191.993C96.8684 189.798 109.417 195.352 109.417 195.352" stroke="#173F33"/>
  <path d="M29.8967 173.415C29.8967 173.415 33.4597 179.892 36.8194 182.806C40.7631 186.227 48.601 188.36 48.601 188.36C48.601 188.36 51.3356 182.822 51.8614 178.911C52.4492 174.539 51.5736 170.561 51.5736 170.561C51.1302 171.846 46.0071 172.607 46.0071 172.607L51.9263 164.637C51.9263 164.637 47.7367 155.433 43.0499 151.944C35.0839 146.013 18.5373 151.27 18.5373 151.27C18.9646 159.717 20.8255 163.941 27.4111 170.374L32.3874 163.636L33.6292 165.159L29.8967 173.415Z" fill="#173F33"/>
  <path d="M22.9998 158.485L27.0873 156.493" stroke="#256652"/>
  <path d="M46.5947 177.308L35.8495 175.152" stroke="#256652"/>
  <path d="M40.0007 167L40.8163 164.423L41.6318 161.847" stroke="#256652"/>
  <path d="M56.3128 226.203C56.3128 226.203 59.6909 216.779 59.4382 206.838C59.1854 196.897 48.2287 178.274 40.5191 167.821C33.6904 158.562 19.6652 152.889 19.6652 152.889" stroke="#256652"/>
  <path opacity="0.9" fill-rule="evenodd" clip-rule="evenodd" d="M245.997 42.1728C250.014 43.8515 253.998 47.1963 254.904 50.5883C255.753 53.767 252.068 55.1788 250.02 57.236C248.613 58.6481 247.446 60.3123 245.016 60.5183C242.653 60.7186 240.112 59.4029 237.618 58.2875C234.654 56.9614 230.763 56.0806 229.479 53.5679C228.196 51.056 231.038 49.5725 232.166 47.6153C233.233 45.7643 233.563 43.4854 235.799 42.6054C238.719 41.4561 242.306 40.6308 245.997 42.1728Z" fill="#3F2317"/>
  <path d="M241.759 45.094L234.385 45.6033L237.655 51.0334M248.239 45.3259L238.314 54.6489M248.105 48.514L251.044 54.5808L244.795 54.8809" stroke="#E3642A" stroke-linecap="round" stroke-linejoin="round"/>
  <path fill-rule="evenodd" clip-rule="evenodd" d="M137.732 31.7882C140.933 31.7186 144.26 32.6717 146.399 34.7426C148.584 36.8581 149.456 39.8238 148.813 42.5184C148.223 44.9871 145.556 46.4205 143.239 47.9708C140.972 49.4875 138.744 51.3373 135.809 51.2179C132.74 51.0931 130.121 49.3489 128.091 47.3546C126.011 45.3114 124.05 42.7997 124.592 40.1989C125.11 37.7071 128.279 36.5995 130.644 35.0854C132.875 33.6575 134.896 31.8499 137.732 31.7882Z" fill="#3F2317"/>
  <path d="M129.644 34.6318L124.023 41.6331L133.768 44.6375M135.887 33.2685L145.874 36.8615L140.011 43.2742" stroke="#E3642A" stroke-linecap="round" stroke-linejoin="round"/>
  <path d="M131.987 35.362L134.112 39.51L133.365 34.7467C133.365 34.7467 132.59 34.2289 132.234 34.5072C131.961 34.7207 131.987 35.362 131.987 35.362Z" fill="#D46C3B" stroke="#E3642A"/>
  <ellipse cx="1.29815" cy="1.2944" rx="1.29815" ry="1.2944" transform="matrix(1.00247 0.0960033 -0.0977924 0.988028 134.008 40.1875)" fill="#D46C3B"/>
  <path fill-rule="evenodd" clip-rule="evenodd" d="M202.313 27.3903C204.941 30.034 206.789 33.5978 206.721 37.0488C206.652 40.5741 204.798 43.6698 201.961 45.2711C199.363 46.7381 195.989 45.6302 192.796 44.9099C189.672 44.2051 186.292 43.7987 184.041 41.2288C181.687 38.5424 181.088 34.9465 181.177 31.6479C181.269 28.2684 181.859 24.6166 184.532 23.0035C187.094 21.458 190.589 23.2484 193.79 24.0381C196.809 24.7829 199.985 25.0481 202.313 27.3903Z" fill="#3F2317"/>
  <path d="M189.464 32.9596C189.464 32.9596 191.172 32.0379 192.355 32.1864C193.589 32.3413 195.072 33.7634 195.072 33.7634M189.464 32.9596L189.038 36.0832L194.645 36.887L195.072 33.7634M189.464 32.9596C189.464 32.9596 190.009 31.3096 189.835 30.2414C189.638 29.0282 188.32 27.3851 188.32 27.3851C188.32 27.3851 187.114 25.4002 187.162 24.0522C187.248 21.6704 188.796 19.9851 191.32 19.3701C193.106 18.935 194.362 19.3034 196.065 20.0502C197.596 20.722 198.567 21.28 199.377 22.6363C200.345 24.2589 200.161 25.5578 199.621 27.2897C198.986 29.3223 196.96 29.6153 195.965 31.516C195.525 32.357 195.072 33.7634 195.072 33.7634" stroke="#E3642A"/>
  <path d="M194.154 30.9141C193.634 30.5901 194.697 25.205 195.154 24.4141C195.534 23.7572 196.147 23.5815 196.798 23.9906C196.953 24.088 197.088 24.492 196.993 24.8265C196.596 26.2201 194.653 25.3532 193.426 25.2115C192.438 25.0974 191.275 25.0085 191.039 23.8835C190.899 23.2127 191.246 22.8295 191.826 22.6504C192.493 22.4445 193.397 23.6151 193.154 24.4139C192.886 25.2967 192.217 30.5402 191.655 30.9122" stroke="#E3642A" stroke-width="0.5"/>
  <path d="M201.161 21.6066L206.561 19.37M196.425 17.917L197.858 13.8214M188.258 18.0365L184.883 13.9686M192.428 17.344L192.147 13.0028" stroke="#E3642A"/>
  <path d="M193.872 35.2771C193.289 34.963 192.479 34.085 190.846 34.4652" stroke="#E3642A"/>
  <path opacity="0.9" fill-rule="evenodd" clip-rule="evenodd" d="M265.754 95.5028C267.942 97.0192 270.543 98.22 271.352 100.743C272.228 103.475 272.026 106.811 270.066 108.949C268.228 110.953 265.068 110.226 262.362 110.545C260.067 110.816 257.747 111.684 255.7 110.646C253.478 109.519 251.494 107.44 251.352 104.965C251.217 102.633 253.921 101.329 255.044 99.2631C256.401 96.766 255.793 92.7762 258.491 91.8289C261.173 90.8875 263.441 93.8991 265.754 95.5028Z" fill="#3F2317"/>
  <path d="M258.161 96.0195L253.914 98.3101L257.88 102.021M261.439 96.7289L265.389 100.793L261.159 102.731M258.928 106.171L262.878 110.235L270.175 104.681" stroke="#E3642A" stroke-linecap="round" stroke-linejoin="round"/>
  <path fill-rule="evenodd" clip-rule="evenodd" d="M136.754 77.6008C140.255 77.9923 142.313 81.5695 143.951 84.5222C145.577 87.4504 147.565 91.106 145.736 93.7851C143.95 96.4013 139.599 95.2966 136.264 95.7807C134.371 96.0556 132.634 96.1968 130.71 95.9669C127.944 95.6364 124.674 96.2032 122.857 94.1785C120.889 91.9845 120.555 88.5787 121.88 86.1232C123.111 83.8423 126.641 84.183 128.972 82.8471C131.811 81.2204 133.362 77.2215 136.754 77.6008Z" fill="#3F2317"/>
  <path d="M118.614 90.7341C118.316 90.8364 118.131 90.889 118.131 90.889C118.131 90.889 118.313 90.8241 118.614 90.7341Z" fill="#D46C3B"/>
  <path d="M139.993 82.7554C141.245 82.2738 142.62 80.5452 142.62 80.5452C142.62 80.5452 140.998 81.522 139.993 82.7554Z" fill="#D46C3B"/>
  <path d="M122.807 80.6745C122.807 80.6745 120.046 81.071 119.14 82.2996C117.537 84.4714 123.688 85.3269 122.784 87.8093C122.069 89.7718 118.131 90.889 118.131 90.889C118.131 90.889 121.099 89.8323 122.841 90.3284C125.62 91.1198 123.741 96.2404 126.68 96.2607C128.234 96.2715 130.347 94.6356 130.347 94.6356M132.169 77.0343C132.169 77.0343 134.603 72.2669 135.641 74.9866C136.68 77.7063 137.262 79.2312 138.3 81.9509C139.338 84.6706 142.62 80.5452 142.62 80.5452C142.62 80.5452 139.718 82.2921 139.274 84.0637C138.686 86.4091 143.693 87.3212 142.265 89.354C141.388 90.6013 138.598 90.9791 138.598 90.9791" stroke="#E3642A" stroke-linecap="round" stroke-linejoin="round"/>
  <path d="M129.689 85.9469C130.015 86.6527 129.742 87.3075 129.302 87.5028C128.861 87.698 128.18 87.4659 127.854 86.7601C127.529 86.0543 127.802 85.3995 128.242 85.2043C128.683 85.009 129.364 85.2411 129.689 85.9469Z" fill="#D46C3B" stroke="#E3642A"/>
  <path d="M134.95 82.9592C135.14 83.3699 134.962 83.6944 134.775 83.7776C134.587 83.8607 134.221 83.777 134.032 83.3663C133.843 82.9556 134.02 82.6311 134.208 82.5479C134.395 82.4648 134.761 82.5485 134.95 82.9592Z" fill="#E3642A" stroke="#E3642A"/>
  <defs>
  <filter id="filter0_d_4694_256" x="224.635" y="63.8906" width="20.2832" height="59.9297" filterUnits="userSpaceOnUse" color-interpolation-filters="sRGB">
  <feFlood flood-opacity="0" result="BackgroundImageFix"/>
  <feColorMatrix in="SourceAlpha" type="matrix" values="0 0 0 0 0 0 0 0 0 0 0 0 0 0 0 0 0 0 127 0" result="hardAlpha"/>
  <feOffset dx="6" dy="4"/>
  <feGaussianBlur stdDeviation="3"/>
  <feComposite in2="hardAlpha" operator="out"/>
  <feColorMatrix type="matrix" values="0 0 0 0 1 0 0 0 0 0.956863 0 0 0 0 0.552941 0 0 0 0.2 0"/>
  <feBlend mode="normal" in2="BackgroundImageFix" result="effect1_dropShadow_4694_256"/>
  <feBlend mode="normal" in="SourceGraphic" in2="effect1_dropShadow_4694_256" result="shape"/>
  </filter>
  </defs>
  </svg>
