<svg xmlns="http://www.w3.org/2000/svg" fill="none" viewBox="0 0 60 60">
  <circle cx="30" cy="30" r="30" fill="#fff" />
  <path fill="#356A1C"
    d="M35.96 28.42a.5.5 0 0 1-.69 0l-3.861-3.683a.5.5 0 0 1 0-.724l1.11-1.059a.5.5 0 0 1 .69 0l2.06 1.967a.5.5 0 0 0 .69 0l4.813-4.592a.5.5 0 0 1 .69 0l1.11 1.06a.5.5 0 0 1 0 .723zm-7.55-4.17a.5.5 0 0 0-.5-.5H17.12a.5.5 0 0 0-.5.5v1.5a.5.5 0 0 0 .5.5h10.79a.5.5 0 0 0 .5-.5zm12.72 7.862a.5.5 0 0 0 0-.724l-1.109-1.059a.5.5 0 0 0-.69 0l-2.716 2.592a.5.5 0 0 1-.69 0l-2.716-2.592a.5.5 0 0 0-.69 0l-1.11 1.06a.5.5 0 0 0 0 .723l2.648 2.526a.5.5 0 0 1 0 .724l-2.648 2.526a.5.5 0 0 0 0 .724l1.11 1.059a.5.5 0 0 0 .69 0l2.716-2.592a.5.5 0 0 1 .69 0l2.716 2.592a.5.5 0 0 0 .69 0l1.11-1.06a.5.5 0 0 0 0-.723l-2.648-2.526a.5.5 0 0 1 0-.724zM28.41 34.25a.5.5 0 0 0-.5-.5H17.12a.5.5 0 0 0-.5.5v1.5a.5.5 0 0 0 .5.5h10.79a.5.5 0 0 0 .5-.5z" />
</svg>
