<svg xmlns="http://www.w3.org/2000/svg" fill="none" viewBox="0 0 60 60">
  <circle cx="30" cy="30" r="30" fill="#fff" />
  <path fill="#2C67BC"
    d="M25 18.75a2.5 2.5 0 0 0-2.5 2.5v5a2.5 2.5 0 0 1-2.5 2.5h-.75a.5.5 0 0 0-.5.5v1.5a.5.5 0 0 0 .5.5H20a2.5 2.5 0 0 1 2.5 2.5v5a2.5 2.5 0 0 0 2.5 2.5h2a.5.5 0 0 0 .5-.5v-1.5a.5.5 0 0 0-.5-.5h-1.5a.5.5 0 0 1-.5-.5V32.5a2.5 2.5 0 0 0-2.5-2.5 2.5 2.5 0 0 0 2.5-2.5v-5.75a.5.5 0 0 1 .5-.5H27a.5.5 0 0 0 .5-.5v-2m7.5 0a2.5 2.5 0 0 1 2.5 2.5v5a2.5 2.5 0 0 0 2.5 2.5h.75a.5.5 0 0 1 .5.5v1.5a.5.5 0 0 1-.5.5H40a2.5 2.5 0 0 0-2.5 2.5v5a2.5 2.5 0 0 1-2.5 2.5h-2a.5.5 0 0 1-.5-.5v-1.5a.5.5 0 0 1 .5-.5h1.5a.5.5 0 0 0 .5-.5V32.5a2.5 2.5 0 0 1 2.5-2.5 2.5 2.5 0 0 1-2.5-2.5v-5.75a.5.5 0 0 0-.5-.5H33a.5.5 0 0 1-.5-.5v-1.5a.5.5 0 0 1 .5-.5z" />
</svg>
