<svg xmlns="http://www.w3.org/2000/svg" viewBox="0 0 500 500" role="img">
  <title>MDN Web Docs</title>
  <rect x="0" y="0" width="500" height="500" />
  <path
    fill="white"
    d="M162.75,294.13H112.19l36.5-38.69H85.84l36.4-38.58H63c1.32-1.64,2-2.59,2.78-3.43,21.06-22.32,41.81-45,63.28-66.86,25.65-26.16,56.79-41.42,93.68-43.31,7.73-.39,15.72,1.29,23.37,3a212.12,212.12,0,0,1,25.11,7.47c10.16,3.61,20.3,3.89,30.75,1.79,7.72-1.55,15.51-1.54,23,1.28,11.85,4.44,19.44,12.74,21.38,25.42,1.63,10.63,7,18.43,16.69,22.8,12.24,5.54,24.72,10.56,37.13,15.74,6.66,2.77,13.42,5.3,20.07,8.09,9,3.8,14.83,10,15,20.43.19,11.06,1.3,22.18.52,33.17S428.49,262.66,423,272c-2.29,3.9-6.41,4.88-10.76,5.35a20,20,0,0,0-7.33,2.32c-4.25,2.34-8.32,5-12.34,7.74-8,5.4-16.43,5.71-25.47,3-8.63-2.55-17.33-5.41-26.2-6.41a86.7,86.7,0,0,0-26.43.68c-19.39,3.88-29.66,17.77-32.6,36.21-3.11,19.56-4.32,39.43-6,59.2-.91,10.61-1.08,21.29-1.61,32.6-4-1.1-7.71-2-11.33-3.15C219,395.43,181.4,371,148.69,338.67c-1.86-1.84-1.75-3.32-.92-5.44C152.73,320.45,157.59,307.64,162.75,294.13Z"
  />
</svg>
