<svg id="Layer_1" data-name="Layer 1" xmlns="http://www.w3.org/2000/svg" viewBox="0 0 500 500"><defs><style>.cls-1{fill:#fff;}</style></defs><title>mdn-web-docs</title><path d="M500,500H0V0H500ZM162.75,294.13c-5.16,13.51-10,26.32-15,39.1-.83,2.12-.94,3.6.92,5.44C181.4,371,219,395.43,263,409.55c3.62,1.16,7.33,2.05,11.33,3.15.53-11.31.7-22,1.61-32.6,1.69-19.77,2.9-39.64,6-59.2,2.94-18.44,13.21-32.33,32.6-36.21a86.7,86.7,0,0,1,26.43-.68c8.87,1,17.57,3.86,26.2,6.41,9,2.68,17.47,2.37,25.47-3,4-2.71,8.09-5.4,12.34-7.74a20,20,0,0,1,7.33-2.32c4.35-.47,8.47-1.45,10.76-5.35,5.46-9.32,12-18.52,12.78-29.54s-.33-22.11-.52-33.17c-.18-10.39-6-16.63-15-20.43-6.65-2.79-13.41-5.32-20.07-8.09-12.41-5.18-24.89-10.2-37.13-15.74-9.68-4.37-15.06-12.17-16.69-22.8-1.94-12.68-9.53-21-21.38-25.42-7.49-2.82-15.28-2.83-23-1.28-10.45,2.1-20.59,1.82-30.75-1.79a212.12,212.12,0,0,0-25.11-7.47c-7.65-1.7-15.64-3.38-23.37-3-36.89,1.89-68,17.15-93.68,43.31-21.47,21.91-42.22,44.54-63.28,66.86-.79.84-1.46,1.79-2.78,3.43h59.2l-36.4,38.58h62.85l-36.5,38.69Z"/><path class="cls-1" d="M162.75,294.13H112.19l36.5-38.69H85.84l36.4-38.58H63c1.32-1.64,2-2.59,2.78-3.43,21.06-22.32,41.81-45,63.28-66.86,25.65-26.16,56.79-41.42,93.68-43.31,7.73-.39,15.72,1.29,23.37,3a212.12,212.12,0,0,1,25.11,7.47c10.16,3.61,20.3,3.89,30.75,1.79,7.72-1.55,15.51-1.54,23,1.28,11.85,4.44,19.44,12.74,21.38,25.42,1.63,10.63,7,18.43,16.69,22.8,12.24,5.54,24.72,10.56,37.13,15.74,6.66,2.77,13.42,5.3,20.07,8.09,9,3.8,14.83,10,15,20.43.19,11.06,1.3,22.18.52,33.17S428.49,262.66,423,272c-2.29,3.9-6.41,4.88-10.76,5.35a20,20,0,0,0-7.33,2.32c-4.25,2.34-8.32,5-12.34,7.74-8,5.4-16.43,5.71-25.47,3-8.63-2.55-17.33-5.41-26.2-6.41a86.7,86.7,0,0,0-26.43.68c-19.39,3.88-29.66,17.77-32.6,36.21-3.11,19.56-4.32,39.43-6,59.2-.91,10.61-1.08,21.29-1.61,32.6-4-1.1-7.71-2-11.33-3.15C219,395.43,181.4,371,148.69,338.67c-1.86-1.84-1.75-3.32-.92-5.44C152.73,320.45,157.59,307.64,162.75,294.13Z"/></svg>