<svg class="icon" viewBox="0 0 100 100" xmlns="http://www.w3.org/2000/svg" aria-hidden="true" role="img"><g fill="#212121"><path d="M69.37 54.11v25.83a2.61 2.61 0 01-2.6 2.6H20a2.61 2.61 0 01-2.6-2.6v-46.8a2.61 2.61 0 012.6-2.6h31.49V24H14.12a3.26 3.26 0 00-3.25 3.25v58.5A3.26 3.26 0 0014.12 89h58.5a3.26 3.26 0 003.25-3.25V54.11z"/><path d="M50.75 54.85l30.62-30.62V51a3.91 3.91 0 003.9 3.89A3.86 3.86 0 0089.13 51V14.88A3.86 3.86 0 0085.27 11H49.13a3.87 3.87 0 100 7.73h26.76L45.26 49.37a3.88 3.88 0 105.49 5.48z"/></g></svg>
