<svg class="icon" viewBox="0 0 100 100" xmlns="http://www.w3.org/2000/svg" aria-hidden="true" role="img"><path d="M26.56 87.4L32 82 18 68l-5.4 5.44v6.35h7.61v7.61zm31.07-55.13A1.25 1.25 0 0056.44 31h-.11a1.4 1.4 0 00-1 .41l-32.2 32.2a1.42 1.42 0 00-.42 1A1.25 1.25 0 0024 65.89a1.37 1.37 0 001-.41l32.2-32.2a1.37 1.37 0 00.43-1.01zm-3.2-11.41l24.71 24.71L29.71 95H5V70.29zM95 26.56a7.63 7.63 0 01-2.2 5.35l-9.86 9.86-24.71-24.71 9.86-9.8A7.44 7.44 0 0173.44 5a7.67 7.67 0 015.4 2.26l14 13.9a7.88 7.88 0 012.16 5.4z" fill="#212121"/></svg>
