<svg class="icon" viewBox="0 0 100 100" xmlns="http://www.w3.org/2000/svg" aria-hidden="true" role="img"><path d="M26.23 29.27a6.07 6.07 0 10-6.06 6.06 6 6 0 006.06-6.06zM76.8 56.56a6.11 6.11 0 01-1.75 4.27L51.78 84.15a6.32 6.32 0 01-4.32 1.75 6.09 6.09 0 01-4.26-1.75L9.31 50.21A16.49 16.49 0 015 39.88V20.17a6.11 6.11 0 016.07-6.07h19.71a16.74 16.74 0 0110.38 4.31l33.89 33.84a6.3 6.3 0 011.75 4.31zm18.2 0a6.11 6.11 0 01-1.75 4.27L70 84.15a6.33 6.33 0 01-4.32 1.75c-2.46 0-3.69-1.14-5.3-2.8l22.25-22.27a6.11 6.11 0 001.75-4.27 6.3 6.3 0 00-1.75-4.31L48.74 18.41a16.72 16.72 0 00-10.38-4.31H49a16.77 16.77 0 0110.38 4.31l33.87 33.84A6.3 6.3 0 0195 56.56z" fill="#212121"/></svg>
