<svg xmlns="http://www.w3.org/2000/svg" width="135" height="12" fill="none"><g fill="#fff" clip-path="url(#a)"><path d="M50.33 11.942a4.75 4.75 0 0 1-1.998-.413 3.75 3.75 0 0 1-1.578-1.249c-.395-.55-.6-1.356-.619-2.183h1.748c0 .497.04 1.021.279 1.339q.368.476.968.71c.4.149.715.223 1.2.223.49 0 1.051-.074 1.428-.224q.564-.225.87-.601a1.3 1.3 0 0 0 .313-.863q0-.655-.403-1.05-.404-.405-1.229-.683l-2.125-.79q-1.371-.513-2.09-1.177-.716-.674-.717-1.869 0-1.356 1.058-2.2c.706-.57 1.615-.854 2.894-.854 1.214 0 2.239.282 2.908.845.676.563 1.016 1.331 1.112 2.301H52.6c-.084-.491-.198-.882-.574-1.17-.37-.287-.992-.49-1.698-.49-.681 0-1.13.21-1.513.508q-.573.44-.573 1.114 0 .558.358.89.367.332 1.14.601l2.42.89q1.247.44 1.946 1.185.7.746.7 1.895 0 .97-.503 1.716-.502.746-1.47 1.177c-.646.281-1.578.422-2.505.422Zm13.814 0q-1.515 0-2.618-.737-1.094-.745-1.695-2.093c-.4-.904-.59-1.964-.59-3.18 0-1.28.202-2.356.626-3.224q.637-1.311 1.749-1.976 1.12-.674 2.528-.674 1.893 0 3.013.944 1.122.933 1.489 2.434l-1.82.35q-.323-.998-1.023-1.59a2.46 2.46 0 0 0-1.659-.602q-.843 0-1.542.485-.7.486-1.12 1.456c-.282.64-.405 1.44-.405 2.398 0 .886.1 1.664.332 2.335q.35.997 1.032 1.554.681.557 1.703.557 1.247 0 1.964-.665c.478-.449.648-1.073.648-1.792h1.922c0 .839-.203 1.595-.58 2.187q-.555.881-1.568 1.357-1.014.476-2.386.476m9.428-.175V.233h4.079c1.333 0 2.346.35 3.04.984q1.049.943 1.049 2.488 0 1.528-1.05 2.47c-.693.629-1.718.822-3.05.822l-.398.036-.7.016h-1.048v4.718zm6.29 0-2.795-4.73 1.922-.163 2.796 4.893h-1.922Zm-4.368-5.942h2.01c.813 0 1.426-.069 1.85-.458q.637-.592.637-1.527 0-.96-.6-1.527c-.395-.383-.975-.682-1.74-.682h-2.157zm11.534 5.942V.233h1.922v11.534zM94.717.233h2.621l3.67 7.515h-.35l3.56-7.515h2.557v11.534h-1.922V2.156h.524l-4.019 8.038h-1.049l-4.194-8.038h.524v9.611h-1.922zm17.825 11.534V.233h4.543c.855 0 1.453.17 2.015.445q.852.414 1.273 1.096a2.8 2.8 0 0 1 .422 1.5q0 .98-.547 1.689c-.359.473-.896.77-1.59.95.454.078.866.271 1.213.523q.52.367.816.916.305.548.305 1.212 0 .567-.197 1.123a2.7 2.7 0 0 1-.655 1.015q-.457.459-1.228.737a6.3 6.3 0 0 1-2.001.328zm1.922-1.573h2.447c.777 0 1.376-.139 1.723-.462q.528-.485.529-1.257 0-.781-.556-1.258c-.371-.317-.96-.518-1.695-.518h-2.448zm0-8.388v3.32h2.448c.664 0 1.184-.026 1.56-.343q.574-.476.574-1.32 0-.8-.556-1.258c-.364-.311-.902-.399-1.578-.399zm10.485 9.961L128.794.233h2.097c1.481 4.492 2.363 7.042 3.845 11.534h-1.923l-.874-2.796h-4.194l-.873 2.796zm3.321-4.194h3.145l-1.573-5.243z"/><path d="M64.144 11.942q-1.515 0-2.618-.737-1.094-.745-1.695-2.093c-.4-.904-.59-1.964-.59-3.18 0-1.28.202-2.356.626-3.224q.637-1.311 1.749-1.976 1.12-.674 2.528-.674 1.893 0 3.013.944 1.122.933 1.489 2.434l-1.82.35q-.323-.998-1.023-1.59a2.46 2.46 0 0 0-1.659-.602q-.843 0-1.542.485-.7.486-1.12 1.456c-.282.64-.405 1.44-.405 2.398 0 .886.1 1.664.332 2.335q.35.997 1.032 1.554.681.557 1.703.557 1.247 0 1.964-.665c.478-.449.648-1.073.648-1.792h1.922c0 .839-.203 1.595-.58 2.187q-.555.881-1.568 1.357-1.014.476-2.386.476M5.767 6H0v5.767h11.534V6H17.3V.233H5.767zM34.601.233h-5.767V6h-5.767v5.767h11.534z"/></g><defs><clipPath id="a"><path fill="#fff" d="M0 .059h134.735v11.883H0z"/></clipPath></defs></svg>