<svg xmlns="http://www.w3.org/2000/svg" width="530.482" height="800" fill="none"><path stroke="#d3d3d3" d="m512.866 89.37-83.011 49.153v98.102l83.011 48.948c.407-.206 51.11-29.947 83.007-48.948.204-19.207 0-34.285 0-49.154s-.203-29.947 0-48.948zM249.733-31.866 166.72 17.082v98.102l83.012 48.948v.205c.203-.205 51.114-30.152 83.006-49.153V66.236c-.203-15.074-.203-29.947 0-49.154zM83.511 241.79.5 290.736v98.102l83.011 49.153c.204-.205 51.11-30.152 83.007-49.153.203-19.207 0-34.08 0-48.948 0-15.079-.204-29.947 0-49.154zm263.337 136.724-83.011 49.153v98.102l83.011 48.948c.204-.206 51.114-29.947 83.007-48.948v-49.154c-.204-14.868-.204-29.947 0-48.948zM83.511 621.185.5 670.343v98.102l83.011 48.948c.204-.206 51.11-29.947 83.007-48.948.203-19.207 0-34.285 0-49.154 0-14.873-.204-29.947 0-48.948zm429.355 0-83.011 49.158v98.102l83.011 48.948c.407-.206 51.11-29.947 83.007-48.948.204-19.207 0-34.285 0-49.154 0-14.873-.203-29.947 0-48.948z"/></svg>