<svg xmlns="http://www.w3.org/2000/svg" xmlns:xlink="http://www.w3.org/1999/xlink" width="135.0001" height="40.0001" viewBox="0 0 135.0001 40.0001"><defs><linearGradient id="linear-gradient" x1="21.7997" y1="598.7098" x2="5.0173" y2="615.4922" gradientTransform="translate(0 -590)" gradientUnits="userSpaceOnUse"><stop offset="0" stop-color="#00a0ff"/><stop offset="0.0066" stop-color="#00a1ff"/><stop offset="0.2601" stop-color="#00beff"/><stop offset="0.5122" stop-color="#00d2ff"/><stop offset="0.7604" stop-color="#00dfff"/><stop offset="1" stop-color="#00e3ff"/></linearGradient><linearGradient id="linear-gradient-2" x1="33.8344" y1="610.0017" x2="9.6375" y2="610.0017" gradientTransform="translate(0 -590)" gradientUnits="userSpaceOnUse"><stop offset="0" stop-color="#ffe000"/><stop offset="0.4087" stop-color="#ffbd00"/><stop offset="0.7754" stop-color="orange"/><stop offset="1" stop-color="#ff9c00"/></linearGradient><linearGradient id="linear-gradient-3" x1="24.8271" y1="612.2963" x2="2.0688" y2="635.0546" gradientTransform="translate(0 -590)" gradientUnits="userSpaceOnUse"><stop offset="0" stop-color="#ff3a44"/><stop offset="1" stop-color="#c31162"/></linearGradient><linearGradient id="linear-gradient-4" x1="7.2971" y1="590.1765" x2="17.4597" y2="600.339" gradientTransform="translate(0 -590)" gradientUnits="userSpaceOnUse"><stop offset="0" stop-color="#32a071"/><stop offset="0.0685" stop-color="#2da771"/><stop offset="0.4762" stop-color="#15cf74"/><stop offset="0.8009" stop-color="#06e775"/><stop offset="1" stop-color="#00f076"/></linearGradient></defs><g id="Layer_2" data-name="Layer 2"><g id="Layer_1-2" data-name="Layer 1"><g id="Layer_2-2" data-name="Layer 2"><g id="artwork"><rect x="0.0001" width="135" height="40" rx="5"/><path d="M130,.8A4.2047,4.2047,0,0,1,134.2,5V35a4.2047,4.2047,0,0,1-4.2,4.2H5A4.2047,4.2047,0,0,1,.8,35V5A4.2047,4.2047,0,0,1,5,.8H130m0-.8H5A5.0147,5.0147,0,0,0,0,5V35a5.0147,5.0147,0,0,0,5,5H130a5.0147,5.0147,0,0,0,5-5V5A5.0147,5.0147,0,0,0,130,0Z" fill="#a6a6a6"/><path d="M47.4185,10.2433a2.7077,2.7077,0,0,1-.7452,2.0029,2.9084,2.9084,0,0,1-2.2041.8877,3.1525,3.1525,0,0,1-2.208-5.3672,3.0186,3.0186,0,0,1,2.208-.9009,3.0944,3.0944,0,0,1,1.2315.2515,2.4749,2.4749,0,0,1,.9385.67l-.5274.5278a2.0262,2.0262,0,0,0-1.6426-.7119,2.3194,2.3194,0,0,0-2.3313,2.3073c0,.03,0,.06.0013.09a2.3591,2.3591,0,0,0,4.0058,1.7266,1.888,1.888,0,0,0,.5029-1.2154H44.4692V9.7906h2.9073A2.5452,2.5452,0,0,1,47.4185,10.2433Z" fill="#fff" stroke="#fff" stroke-miterlimit="10" stroke-width="0.2"/><path d="M52.0278,7.7374H49.2954V9.64h2.4639v.72H49.2954v1.9023h2.7324V13H48.5249V7h3.5029Z" fill="#fff" stroke="#fff" stroke-miterlimit="10" stroke-width="0.2"/><path d="M55.2788,13h-.7715V7.7374H52.8315V7h4.1231v.7373H55.2788Z" fill="#fff" stroke="#fff" stroke-miterlimit="10" stroke-width="0.2"/><path d="M59.938,13V7h.77v6Z" fill="#fff" stroke="#fff" stroke-miterlimit="10" stroke-width="0.2"/><path d="M64.1284,13h-.7715V7.7374H61.6812V7h4.123v.7373H64.1284Z" fill="#fff" stroke="#fff" stroke-miterlimit="10" stroke-width="0.2"/><path d="M73.6094,12.2247a3.1157,3.1157,0,0,1-4.3994,0,3.2417,3.2417,0,0,1,0-4.4492,3.1049,3.1049,0,0,1,4.391-.0006l.0045.0045A3.2316,3.2316,0,0,1,73.6094,12.2247Zm-3.83-.5024a2.307,2.307,0,0,0,3.26,0,2.5569,2.5569,0,0,0,0-3.4444,2.307,2.307,0,0,0-3.26,0A2.56,2.56,0,0,0,69.7794,11.7223Z" fill="#fff" stroke="#fff" stroke-miterlimit="10" stroke-width="0.2"/><path d="M75.5752,13V7h.9385l2.916,4.6675h.0332L79.43,10.5113V7h.7715v6h-.8047L76.346,8.1065h-.0332l.0332,1.1563V13Z" fill="#fff" stroke="#fff" stroke-miterlimit="10" stroke-width="0.2"/><path d="M68.1359,21.7517a4.2532,4.2532,0,1,0,4.2693,4.2531,4.1923,4.1923,0,0,0-4.13-4.2534C68.2287,21.7508,68.1823,21.7508,68.1359,21.7517Zm0,6.8308a2.5842,2.5842,0,1,1,2.3934-2.7618q.0066.092.0066.1841a2.4606,2.4606,0,0,1-2.34,2.5756Zm-9.3134-6.8308a4.2532,4.2532,0,1,0,4.2692,4.2531,4.1923,4.1923,0,0,0-4.13-4.2534C58.9152,21.7508,58.8689,21.7508,58.8225,21.7517Zm0,6.8308a2.5842,2.5842,0,1,1,2.3934-2.7618q.0066.092.0066.1841a2.4607,2.4607,0,0,1-2.34,2.5756ZM47.7437,23.0567V24.861h4.3177a3.7656,3.7656,0,0,1-.9828,2.2716,4.42,4.42,0,0,1-3.3349,1.321,4.8013,4.8013,0,0,1,0-9.6018,4.6021,4.6021,0,0,1,3.2544,1.2888l1.2727-1.2727a6.2941,6.2941,0,0,0-4.5271-1.82,6.606,6.606,0,1,0-.1923,13.2106q.0961.0013.1923,0a6.0387,6.0387,0,0,0,4.6076-1.8527,5.9618,5.9618,0,0,0,1.5628-4.2209,5.8742,5.8742,0,0,0-.0968-1.1277ZM93.052,24.4582a3.9528,3.9528,0,0,0-3.641-2.7065,4.042,4.042,0,0,0-4.0164,4.0674q.0006.0929.0054.1857a4.162,4.162,0,0,0,4.0694,4.2526q.0758.0017.1515.0006a4.23,4.23,0,0,0,3.5442-1.8849l-1.45-.9666a2.4291,2.4291,0,0,1-2.0943,1.176,2.1636,2.1636,0,0,1-2.0622-1.2888l5.6871-2.3521Zm-5.8,1.4178a2.3328,2.3328,0,0,1,2.1772-2.4785l.0459-.0025a1.6469,1.6469,0,0,1,1.5789.9022ZM82.6285,30h1.8688V17.4986H82.6285Zm-3.061-7.298h-.0644a2.9473,2.9473,0,0,0-2.2394-.9505,4.257,4.257,0,0,0,0,8.5063,2.9,2.9,0,0,0,2.2394-.9666h.0644v.6122c0,1.6272-.87,2.4971-2.2716,2.4971a2.3532,2.3532,0,0,1-2.1426-1.5144l-1.6272.6767a4.0532,4.0532,0,0,0,3.77,2.5132c2.1911,0,4.0438-1.2888,4.0438-4.43V22.0094H79.5675Zm-2.1426,5.88a2.5869,2.5869,0,0,1,0-5.1553,2.3967,2.3967,0,0,1,2.277,2.5107q-.0021.0416-.0055.083a2.3768,2.3768,0,0,1-2.1822,2.5566q-.0446.0036-.0893.0054Zm24.381-11.0837H97.3347V30H99.2V25.2638h2.6055a3.8883,3.8883,0,1,0,0-7.765Zm.0482,6.0252H99.2V19.2387h2.6537a2.1431,2.1431,0,1,1,.0879,4.2853q-.0439.0009-.0879,0Zm11.5317-1.7953a3.5034,3.5034,0,0,0-3.3293,1.9139l1.6566.6916a1.7679,1.7679,0,0,1,1.7048-.9168,1.7967,1.7967,0,0,1,1.9622,1.6083v.1287a4.1277,4.1277,0,0,0-1.9461-.4825c-1.7852,0-3.6026.9811-3.6026,2.8146a2.888,2.888,0,0,0,3.0148,2.7554q.0447-.0019.0892-.0054a2.6323,2.6323,0,0,0,2.38-1.2223h.0643v.965h1.8013V25.1866c0-2.2195-1.6562-3.4579-3.7952-3.4579Zm-.2252,6.8514c-.6112,0-1.4636-.3055-1.4636-1.0615,0-.9649,1.0615-1.3349,1.9783-1.3349a3.324,3.324,0,0,1,1.7048.4182,2.2619,2.2619,0,0,1-2.2195,1.9786Zm10.5828-6.578-2.1391,5.42H121.54l-2.2194-5.42h-2.01l3.3292,7.5752-1.8978,4.2138h1.946l5.1306-11.789ZM106.9364,30h1.8656V17.4988h-1.8656Z" fill="#fff"/><path d="M10.4354,7.5381A2.0025,2.0025,0,0,0,9.9726,8.943V31.0591a2.0014,2.0014,0,0,0,.4628,1.4049l.074.0721,12.389-12.3889v-.2923L10.5094,7.4655Z" fill="url(#linear-gradient)"/><path d="M27.0278,24.2786l-4.1294-4.1314v-.2923l4.13-4.13.0931.0531,4.8928,2.78c1.3976.794,1.3976,2.0932,0,2.8877l-4.8928,2.78Z" fill="url(#linear-gradient-2)"/><path d="M27.1219,24.225l-4.2235-4.2239L10.4354,32.464a1.6267,1.6267,0,0,0,2.0781.0614l14.6084-8.3" fill="url(#linear-gradient-3)"/><path d="M27.1219,15.7771l-14.6084-8.3a1.6267,1.6267,0,0,0-2.0781.0614l12.463,12.463Z" fill="url(#linear-gradient-4)"/><path d="M27.0288,24.132,12.5135,32.3793A1.6655,1.6655,0,0,1,10.51,32.39h0l-.0745.0745h0l.074.0721h0a1.6649,1.6649,0,0,0,2.0036-.0107l14.6084-8.3Z" opacity="0.2" style="isolation:isolate"/><path d="M10.4354,32.3184a2.0025,2.0025,0,0,1-.4628-1.4049V31.06a2.0025,2.0025,0,0,0,.4628,1.4049L10.51,32.39Z" opacity="0.12" style="isolation:isolate"/><path d="M32.0147,21.2988,27.0288,24.132l.0931.093,4.8928-2.78a1.7548,1.7548,0,0,0,1.0483-1.4434h0A1.8621,1.8621,0,0,1,32.0147,21.2988Z" opacity="0.12" style="isolation:isolate"/><path d="M12.5135,7.6233l19.5012,11.08a1.8613,1.8613,0,0,1,1.0483,1.2978h0a1.7537,1.7537,0,0,0-1.0483-1.4439L12.5135,7.4772c-1.3976-.7941-2.5409-.1345-2.5409,1.4663V9.09C9.9726,7.4889,11.1159,6.8293,12.5135,7.6233Z" fill="#fff" opacity="0.25" style="isolation:isolate"/></g></g></g></g></svg>