<svg class="icon" viewBox="0 0 100 100" xmlns="http://www.w3.org/2000/svg" aria-hidden="true" role="img"><g fill="#212121"><path d="M26.96 46v8l5.98-4zM47.61 40.19V29.04L28.87 41.53l8.37 5.59zM71.13 41.53L52.39 29.04v11.15l10.37 6.93zM28.87 58.48l18.74 12.49V59.81l-10.37-6.93zM52.39 59.81v11.16l18.74-12.49-8.37-5.6zM50 44.34L41.54 50 50 55.66 58.46 50z"/><path d="M50 5a45 45 0 1045 45A45 45 0 0050 5zm27.82 53.48a1.62 1.62 0 010 .31.36.36 0 010 .1 1.18 1.18 0 010 .2.56.56 0 010 .12.64.64 0 01-.06.18v.11c0 .06 0 .11-.08.16l-.07.11-.1.15-.08.1-.12.13-.1.09-.13.12-.11.08-25.43 17a2.36 2.36 0 01-2.66 0l-25.43-17-.11-.08-.34-.12-.1-.09-.16-.15-.08-.1-.1-.15-.07-.11-.08-.16-.05-.11a.64.64 0 01-.06-.18.56.56 0 010-.12 1.18 1.18 0 010-.2.36.36 0 010-.1 1.62 1.62 0 010-.31v-17a1.62 1.62 0 010-.31.36.36 0 010-.1 1.18 1.18 0 010-.2.56.56 0 010-.12.49.49 0 01.06-.17.61.61 0 01.05-.12s.05-.11.08-.16l.07-.11.1-.14a.76.76 0 00.08-.11l.12-.13.1-.09.13-.12.11-.08 25.43-17a2.39 2.39 0 012.66 0l25.43 17 .11.08.13.12.1.09.12.13.08.11a.71.71 0 01.1.14l.07.11s0 .11.08.16a.61.61 0 010 .12.49.49 0 01.06.17.56.56 0 010 .12 1.18 1.18 0 010 .2.36.36 0 010 .1 1.62 1.62 0 010 .31z"/><path d="M73.04 54v-8l-5.98 4z"/></g></svg>
