<svg xmlns="http://www.w3.org/2000/svg" fill="none" viewBox="0 0 383 233"><rect width="206.101" height="148.585" x="96.658" y="80.863" fill="#DFF7E3" rx="8"/><rect width="205.101" height="147.585" x="105.048" y="74.287" fill="#CAD2CE" stroke="#007936" rx="7.5"/><path fill="#007936" stroke="#007936" d="M105.048 81.787a7.5 7.5 0 0 1 7.5-7.5h190.101a7.5 7.5 0 0 1 7.5 7.5v9.694H105.048z"/><circle cx="117.686" cy="84.327" r="3.922" fill="#DFF7E3"/><circle cx="131.414" cy="84.327" r="3.922" fill="#DFF7E3"/><circle cx="145.141" cy="84.327" r="3.922" fill="#DFF7E3"/><path fill="#fff" d="M121.608 115.86a8 8 0 0 1 8-8h158.537a8 8 0 0 1 8 8v45.774a8 8 0 0 1-8 8H129.608a8 8 0 0 1-8-8z"/><path fill="#007936" stroke="#DFF7E3" d="M249.995 152.289c-1.023-4.014 1.391-8.136 5.392-9.208l45.393-12.158a7.393 7.393 0 0 1 9.098 5.327l5.516 21.64c1.023 4.013-1.391 8.136-5.392 9.207l-45.393 12.158a7.39 7.39 0 0 1-9.098-5.327z"/><path fill="#fff" d="M269.826 157.813c-.311.059-.502.086-.502.086s.191-.038.502-.086m22.471-4.801c1.319-.294 3.013-1.657 3.013-1.657s-1.781.686-3.013 1.657"/><path stroke="#DFF7E3" stroke-linecap="round" stroke-linejoin="round" d="M275.972 149.5s-2.771.071-3.907 1.047c-2.007 1.725 3.813 3.078 2.424 5.142-1.098 1.632-5.165 2.21-5.165 2.21s3.109-.622 4.705-.019c2.547.963-.333 5.219 2.527 5.529 1.512.163 3.907-1.047 3.907-1.047m5.38-15.091s3.348-3.895 3.803-1.432l1.166 6.307c.455 2.462 4.498-.791 4.498-.791s-3.186 1.227-3.982 2.721c-1.053 1.976 3.641 3.265 1.832 4.887-1.109.995-3.907 1.046-3.907 1.046"/><circle cx="280.63" cy="155.011" r="1.017" stroke="#DFF7E3" transform="rotate(-14.99 280.63 155.011)"/><circle cx="286.849" cy="152.819" r=".511" stroke="#DFF7E3" transform="rotate(-14.99 286.849 152.819)"/><path fill="#fff" d="M121.31 180.93a3.033 3.033 0 0 1 3.032-3.033h72.826a3.032 3.032 0 0 1 0 6.065h-72.826a3.03 3.03 0 0 1-3.032-3.032m0 14.151a3.03 3.03 0 0 1 3.032-3.032h72.826a3.032 3.032 0 0 1 0 6.065h-72.826a3.033 3.033 0 0 1-3.032-3.033"/><path fill="#007936" d="M110.962 131.452a7.9 7.9 0 0 1-5.645-2.383 8.22 8.22 0 0 1-2.338-5.754c0-2.158.841-4.227 2.338-5.753a7.9 7.9 0 0 1 5.645-2.383 7.9 7.9 0 0 1 5.646 2.383 8.22 8.22 0 0 1 2.338 5.753 8.22 8.22 0 0 1-2.338 5.754 7.9 7.9 0 0 1-5.646 2.383m16.948-5.882c.092-.744.16-1.487.16-2.255s-.068-1.534-.16-2.324l4.813-3.79c.434-.349.548-.976.274-1.488l-4.562-8.044c-.274-.511-.889-.72-1.391-.511l-5.68 2.325c-1.186-.907-2.418-1.697-3.855-2.278l-.844-6.161a1.16 1.16 0 0 0-1.141-.977H106.4a1.16 1.16 0 0 0-1.14.977l-.844 6.161c-1.437.581-2.669 1.371-3.855 2.278l-5.68-2.325a1.11 1.11 0 0 0-1.391.511l-4.562 8.044a1.16 1.16 0 0 0 .273 1.488l4.813 3.79c-.09.79-.16 1.557-.16 2.324 0 .768.07 1.511.16 2.255l-4.813 3.86a1.16 1.16 0 0 0-.273 1.487l4.562 8.044c.273.512.89.698 1.391.512l5.68-2.348c1.186.93 2.418 1.72 3.855 2.301l.844 6.161c.091.558.57.976 1.14.976h9.124c.571 0 1.05-.418 1.141-.976l.844-6.161c1.437-.604 2.669-1.371 3.855-2.301l5.68 2.348c.502.186 1.117 0 1.391-.512l4.562-8.044c.274-.511.16-1.139-.274-1.487z"/><path fill="#DFF7E3" stroke="#007936" d="m130.371 127.531-.034.277.218.174 4.812 3.859c.232.186.314.544.149.857l-4.559 8.038-.006.011a.636.636 0 0 1-.769.281l-5.67-2.344-.27-.111-.23.18c-1.157.907-2.351 1.649-3.74 2.234l-.263.11-.038.283-.843 6.153a.66.66 0 0 1-.646.552h-9.125a.66.66 0 0 1-.646-.552l-.843-6.153-.039-.287-.269-.109c-1.381-.558-2.572-1.321-3.734-2.231l-.229-.18-.27.111-5.67 2.344a.64.64 0 0 1-.77-.281l-.005-.011-4.562-8.044-.003-.004a.66.66 0 0 1 .155-.847l4.812-3.859.218-.174-.034-.277a18 18 0 0 1-.156-2.194c0-.739.066-1.484.156-2.268l.032-.277-.22-.173-4.808-3.786-.002-.001a.66.66 0 0 1-.153-.846l.003-.005 4.562-8.043.006-.011a.61.61 0 0 1 .758-.286l.003.001 5.68 2.325.265.109.228-.174c1.164-.891 2.357-1.654 3.738-2.212l.269-.109.039-.287.843-6.154a.66.66 0 0 1 .646-.551h9.125a.66.66 0 0 1 .646.551l.843 6.154.039.287.269.109c1.381.558 2.574 1.321 3.738 2.212l.228.174.265-.109 5.68-2.325.003-.001a.61.61 0 0 1 .758.286l.006.011 4.559 8.037c.165.313.083.67-.147.857l-.002.001-4.809 3.786-.219.173.032.277c.09.784.156 1.529.156 2.268s-.066 1.459-.156 2.194Zm-22.454 3.91a8.4 8.4 0 0 0 6.002 2.533 8.4 8.4 0 0 0 6.003-2.533 8.72 8.72 0 0 0 2.481-6.104 8.72 8.72 0 0 0-2.481-6.104 8.4 8.4 0 0 0-6.003-2.533 8.4 8.4 0 0 0-6.002 2.533 8.72 8.72 0 0 0-2.481 6.104c0 2.287.891 4.483 2.481 6.104Z"/><path stroke="#fff" d="M113.916 135.945c5.984 0 10.855-4.738 10.855-10.608s-4.871-10.608-10.855-10.608c-5.983 0-10.854 4.738-10.854 10.608s4.871 10.608 10.854 10.608Z"/><path fill="#F4D4B8" d="m50.629 106.946.573-2.5h3.39l.305 2.5h2.744s-2.84 4.482-4.268 3.75c-1.43-.732-3.145-3.018-4.574-3.75z"/><path fill="#F9CFA6" fill-rule="evenodd" d="m38.825 141.748-.182 5.719c10.512 3.726 28.172 1.644 28.477-1.765l.191-6.079-1.663-13.594c.371 2.767 2.156 13.475 7.543 13.594 4.559.1 9.146-7.439 9.146-7.439l4.878-13.051-6.707-7.188-4.878 9.632-3.049-5.569s-2.443-3.415-4.573-5.313c-1.712-1.525-5.793-2.812-5.793-2.812l-4.268-.939s-.915 1.25-2.744 2.501c-1.12.764-1.83.625-1.83.625a149 149 0 0 1-2.307-1.628l-2.57-1.499s-4.308-.086-6.517.679c-2.725.943-4.125 1.65-6.585 3.369-4.083 2.853-7.274 10.586-7.274 10.586l-1.642 5.583-1.459 8.345s.324.962 1.46 1.703c.154.101.361.245.613.42 1.599 1.113 4.998 3.481 8.302 4.005 1.029.164 2.372.159 3.431.115m-1.619-14.384c-.653 1.651-.92 4.471-.92 4.471l3.888.684.014-9.632s-2.202 2.508-2.982 4.477" clip-rule="evenodd"/><path stroke="#000" stroke-linecap="round" d="m50.021 134.134-.034 6.25s7.35 2.5 8.266 2.187c.915-.312.304-.312.304-.312m2.134-6.25s.916.312-.304.625c-1.22.312-5.488.312-5.488.312m6.707 1.25s.61.313-.304.625c-.915.313-6.098-.312-6.098-.312m5.183 1.562s.61.625-.61.625-4.878-.937-4.878-.937m-1.223-5s1.202-.65 1.83-1.25c.556-.534 1.219-1.563 1.219-1.563"/><path fill="#ECAFA3" d="M50.021 134.133s7.505-4.288 6.403-1.875c-.238.521-.714.997-1.22 1.391-.87.676-1.83 1.109-1.83 1.109l7.013.938s1.22.625 0 .938-5.488.312-5.488.312l6.403.938s.914.625 0 .937c-.915.313-6.098-.312-6.098-.312l4.878.937s.915 1.25-.305 1.25-4.878-.937-4.878-.937l3.659 1.875s.61.625-.305.937-8.266-2.187-8.266-2.187z"/><path stroke="#000" stroke-linecap="round" stroke-width=".5" d="m81.056 112.166 4.559 5.468s7.262-4.335 7.846-5.261.062-.466.062-.466m-2.144-6.35s.982-.452.137.703c-.846 1.156-4.499 4.368-4.499 4.368m6.535-4.099s.72-.223.136.703-5.417 4.353-5.417 4.353m5.429-2.716s.919.015-.125.934c-1.044.918-4.77 2.96-4.77 2.96"/><path fill="#ECAFA3" d="M81.728 112.885s-2.06-8.227-.515-6.029c1.326 1.885 2.342 2.395 2.89 2.52l.456.024 6.028-4.037s1.804-.481 1.048.671c-.757 1.151-4.131 4.381-4.131 4.381l5.686-4.16s1.14-.235.624.685c-.515.921-5.029 4.386-5.029 4.386l4.481-3.006s1.556.221.591 1.144c-.964.924-4.48 3.006-4.48 3.006l4.14-1.398s.9-.004.384.916c-.516.921-8.208 5.58-8.208 5.58z"/><path fill="#005A26" d="M75.582 186.458c-.682-15.605-9.4-39.81-9.4-39.81s.873 2.796-12.831 2.796c-13.704.001-14.608-2.498-14.608-2.498s.29 17.994-.619 29.866c-1.254 16.394-7.613 41.383-7.613 41.383h18.881l7.004-46.362 4.568 14.625-6.09 31.737h17.358s3.894-19.284 3.35-31.737"/><path fill="#ECAFA3" d="M59.959 97.031c-1.917 5.642-1.948 6.322-6.827 8.203-4.356-1.539-6.272-2.051-6.795-8.55 1.394-6.496 5.264-9.349 9.21-9.349 2.439 1.197 6.033 3.576 4.412 9.696m10.145 122.902c-.904-1.389-.603-1.736-.603-1.736H64.38s.194 1.926 0 3.125c-.184 1.139-.756 1.632-.904 2.778-.104.805-.417 1.427 0 2.083.374.59 1.506.695 1.506.695h10.544v-3.472s-4.519-2.084-5.422-3.473m8.134 7.639v-3.125s.996.261 1.506.695c.682.581 1.205 2.083 1.205 2.083z"/><path fill="#83BB9E" d="M78.14 224.135s-.718-.444-1.22-.625c-.572-.207-1.524-.313-1.524-.313v4.688h2.744z"/><path fill="#83BB9E" d="m80.579 226.323.304.625-18.597-.313s-.305.747-.305 1.25.305 1.25.305 1.25h18.902s.235-.361.305-.625c.094-.353.085-.581 0-.937-.14-.593-.914-1.25-.914-1.25"/><path stroke="#000" stroke-width=".5" d="M62.287 226.635h13.11v-3.125"/><path fill="#ECAFA3" d="M41.614 221.322c-.915-1.25-.305-3.125-.305-3.125H35.82s-.414 1.108-.61 2.188c-.186 1.025 0 2.187-2.134 3.75-.581.425-.727 1.909-.305 2.5.379.53 1.524.625 1.524.625l11.89.312v-3.437s-3.658-1.563-4.572-2.813m6.098 6.563v-2.813s1.009.235 1.525.625c.69.524 1.22 1.875 1.22 1.875z"/><path fill="#83BB9E" d="M47.652 224.76s1.112.494.61.313c-.238-.086-.563-.947-1.22-1.25a10 10 0 0 0-1.895-.625v5h2.743z"/><path fill="#83BB9E" d="m49.782 226.635.305.625-18.055-.312s-.305.747-.305 1.25.305 1.25.305 1.25h18.903s.235-.362.305-.625c.094-.353.084-.582 0-.938-.141-.593-1.458-1.25-1.458-1.25"/><path stroke="#000" stroke-width=".5" d="M32.034 226.948h13.11v-3.125"/><path fill="#003D18" stroke="#000" d="m61.16 91.01-5.578-4.083h-4.78l-8.766 4.084-10.358 13.476-17.53 1.634L1 111.021l8.367 11.026h14.74l16.336-6.534 15.139-13.885z"/><path fill="url(#a)" d="M305.258 118.36c.593-.073.472-.299 1.065-.372l2.436.186 2.435.186s-.009-.126 2.367 0c3.199.169 5.017.435 8.199 0 1.734-.237 3.188.001 3.796.001s.607-.001 0 .56c-.608.56-2.311.274-3.796.373-3.197.215-8.199 0-8.199 0l-6.832-.373s-2.064-.488-1.471-.561"/><path fill="url(#b)" d="M327.483 118.01c.583-.073.465-.299 1.048-.372l4.791.372s-.009-.126 2.328 0c3.147.169 4.935.435 8.065 0 1.705-.237 3.136.001 3.733.001s.597-.001 0 .56c-.597.56-2.273.274-3.733.373-3.145.215-8.065 0-8.065 0l-6.72-.373s-2.03-.488-1.447-.561"/><path fill="#924A3B" d="m304.469 48.235-9.575.95 9.043 3.607z"/><path fill="#ECAFA3" d="M307.565 13.275c-1.627 5.015-1.923 5.623-6.066 7.294-3.698-1.368-5.326-1.823-5.77-7.598 1.184-5.774 4.875-8.026 8.225-8.026 2.071 1.064 4.617 2.804 3.611 8.33"/><path fill="#ECAFA3" d="m297.623 18.577 6.668.35s-.855 3.681 2.223 4.557-.149 11.918-.149 11.918l-15.24-7.565s2.124-5.905 4.275-6.105c1.881-.175 2.223-3.155 2.223-3.155"/><path stroke="#000" stroke-linecap="round" stroke-linejoin="round" stroke-width=".2" d="M300.021 16.01c1.384 1.045 2.214 1.35 3.847 1.064m-1.774-1.673h1.775l-.148-3.495c.231-.237.391-.516.592-.76.25-.304.333-.324.592-.456.621-.315 1.775 0 1.775 0l.296.76m-8.285-.152s.685-.468 1.183-.608c.669-.187 1.128-.252 1.776 0 .464.182 1.035.76 1.035.76m-4.142 7.598s1.572 1.464 2.811 1.52c.645.03 1.627-.304 1.627-.304"/><ellipse cx="305.345" cy="12.515" fill="#0F0F0F" rx=".444" ry=".456"/><ellipse cx="301.492" cy="12.222" fill="#0F0F0F" rx=".444" ry=".456"/><ellipse cx="296.07" cy="12.695" fill="#ECAFA3" rx="1.368" ry="2.454"/><path fill="#003D18" fill-rule="evenodd" d="M300.782 1.309c-.732-1.146-2.362-1.631-3.94-1.084-1.817.63-2.878 2.386-2.371 3.924.173.525.506.956.941 1.271a8.56 8.56 0 0 0-.952 3.877c.001.693.013 1.586.303 1.701.53 0 .872-.115 1.165-.318l.039.008s.437 3.221-.301 5.26q-.064.175-.12.34c-.169.488-.317.918-.635 1.362-.621.868-2.415 2.012-2.415 2.012s1.556-.102 2.113-.31c1.1-.41 1.513-1.213 1.962-2.32.165-.407.302-1.084.302-1.084V12.7c0-.487.604-1.083.604-1.083l.592-2.88q.167-.123.346-.249l4.371-2.476c.488-.171.943-.272 1.335-.272.602 0 1 .629 1.369 1.214.197.312.386.61.594.796.456.408.843.846 1.17 1.238q.178.215.333.408h.001l.186.229c.085.367.114.93-.006 1.798-.327 2.362-.302 3.249-.302 3.249s.428-.732.73-1.197c.256-.393.204-2.593.182-3.256.26.104.372-.28.372-1.538a7.7 7.7 0 0 0-.528-2.803c.888-.261 1.599-.87 1.882-1.728.507-1.538-.554-3.295-2.371-3.924-1.692-.586-3.442.013-4.084 1.341a7 7 0 0 0-2.063-.312q-.408 0-.804.055" clip-rule="evenodd"/><path fill="#ECAFA3" d="m303.935 4.07.473 1.25.402.852-1.026-.571.375-.28z"/><path fill="#F9CFA6" d="m287.866 43.571-.538-5.172-1.839 2.3h1.66l-.403 3.067-.573 2.366-7.523 3.68s-1.838 1.05-2.907.35c-1.065-.697-1.368-1.603-1.368-1.603l1.368-7.86 1.539-5.258s2.992-7.285 6.82-9.972c2.307-1.619 3.62-2.285 6.175-3.173 2.071-.72 5.471-1.227 5.471-1.227l3.049 2s1.283 1.581 1.792 2.77c1.203 2.805 0 7.845 0 7.845s1.559-4.313 1.874-5.57c.296-1.187.814-5.046.814-5.046l1.533-.772 4.023.403s3.233 1.149 4.838 2.586c1.998 1.788 3.585 5.91 3.585 5.91h-10.932l-1.971 16.994-7.7.721c-.528.05-.625.78-.129.966l7.291 2.746 10.215-.185-.179 5.727c-.287 3.21-16.846 5.172-26.702 1.662l.358-11.267V45.43z"/><path fill="#ECAFA3" d="M274.798 50.042c-1.954-3.132 1.208-9.438 1.208-9.438s2.301-.237 3.773-.156c1.549.086 3.925.62 3.925.62l3.774-1.083.302-.928c.452-1.391 1.358-1.856 1.358-1.856s.604-2.09 1.51-2.321c.905-.23.905.257.905 1.392 0 1.392-.754 2.321-.754 2.321l3.32-.774s2.645-1.237 1.963 2.785c-.683 4.023-.906 3.869-.906 3.869s-3.774 1.237-5.132 1.237c-1.359 0-1.307-.28-1.307-.28l-10.92 5.075s-2.278.725-3.019-.463"/><path stroke="#000" stroke-linecap="round" stroke-width=".5" d="M290.615 45.606s3.907-.257 4.617-1.227c.513-.701 1.026-4.557 1.026-4.557s.168-1.29-.342-1.752c-.364-.33-1.197-.35-1.197-.35l-3.933.876.684-1.403s.559-1.514 0-2.103c-.168-.177-.513-.175-.513-.175"/><path fill="#E5E5E5" d="M307.545 100.285s2.393-.247 3.731-.152c1.306.093 3.108.605 3.108.605l-.466 3.617-6.373 3.468zm22.909-.757s2.082-.553 3.419-.457c1.307.094 3.42.913 3.42.913l-.311 4.099-6.528 3.039z"/><path fill="#7C6063" d="M308.046 105.94v2.011s.236-1.484.906-2.011c.356-.281.714-.167 1.057-.464.324-.282.282-.644.603-.929.299-.265.526-.353.906-.464.567-.166.931-.118 1.51 0 .365.075.905.309.905.309s.538.498.302.619c-.105.054-.302 0-.302 0s-.538-.245-.905-.309c-.407-.071-.755-.001-1.057 0s-.382.104-.453.309c-.039.114 0 .31 0 .31v.464l-1.208.464-.754.928-1.359 1.702-.302.465v.153l.151 1.857s.151.619.755.619 1.057-.31 1.057-.31l3.622.31 4.076 1.856s2.868.465 3.321.465-1.661-.774-1.661-.774v-.928h2.868v.619h1.057l.453-.31s.741-.25 1.207-.155c.66.136 1.045.475 1.359 1.083.359.695.225 1.261 0 2.012-.26.866-1.359 1.857-1.359 1.857l-4.83 1.237h-4.075l-8.605-.928-2.113-.619v-3.249s.604-.774 1.359-.464c.754.309 3.142 2.202 5.736 3.713l7.245.619 4.076-1.393v-1.237l-2.264.928h-3.17v-.309l-4.831-2.785s-1.056-.465-1.509-.31c-.437.149-.367.674-.755.928-.695.457-2.113 0-2.113 0s-.674-.224-1.057-.464a6 6 0 0 1-.604-.464v-3.404l-.301-.772v-2.476z"/><path fill="#FFF8F8" d="m305.178 114.139 1.812-5.57.301.929v3.404l3.321 1.083s.755-1.393 1.359-1.393.836.26 1.358.464c2.05.803 4.831 2.94 4.831 2.94.302.464 1.85.326 3.019.155.978-.144 1.509-.619 2.415-.774s1.509.31 0 1.238c-1.51.928-2.408 1.223-4.076 1.547-2.852.554-4.654.205-7.396-.774-2.626-.937-6.038-3.868-6.038-3.868z"/><path fill="#F2DDD0" d="M311.369 108.568s-1.208-.154-2.114-.154 1.057-2.166 1.057-2.166 1.208-.618 1.661-.464c.453.155 4.679 3.713 4.679 3.713s.604.535 1.057.309c.488-.244.151-1.082.453-1.082s2.565 1.548 2.113 2.166c-.453.618-4.227.464-4.981 0-.755-.464-3.925-2.322-3.925-2.322"/><path fill="#C9624B" d="M311.522 110.116s-3.019-.929-3.321-1.083c-.302-.155-.452 1.237-.452 1.237 1.061.665 1.509 1.393 2.717 1.702 1.207.31 1.699.537 2.566.155.466-.205.697-.454.905-.928.17-.386 0-1.238 0-1.238l-1.66-.928s.213.71 0 .928-.755.155-.755.155"/><path fill="#7C6063" d="m330.537 107.022-.453-1.548-.755 1.857.755.928 1.509-1.856 2.717-1.393-3.019.464zm-2.868 5.415.302.619-.302-.774 3.924 4.178 3.774 1.083s3.689.937 6.038.619c1.021-.139 1.628-.186 2.566-.619.701-.324 1.661-1.083 1.661-1.083l-.302-1.702-2.415.928s-2.114-.155-2.567-.464c-.452-.31-4.226-3.095-4.981-3.249-.755-.155-3.774.464-3.774.464l-1.811-.464v-1.702h.302l.453.773 1.509-.464 3.321.464 5.434 2.785 3.17.31-2.566-.774-.302-.928h1.812l1.962.928s1.399-.424 2.113 0c.47.28.686.574.906 1.083.31.718.284 1.282 0 2.012-.443 1.136-2.566 1.702-2.566 1.702s-3.853.644-6.34.619c-4.763-.049-11.925-2.631-11.925-2.631v-2.011z"/><path stroke="#7C6063" d="m327.971 113.056-.302-.619-.604 1.702v2.011s7.162 2.582 11.925 2.631c2.487.025 6.34-.619 6.34-.619s2.123-.566 2.566-1.702c.284-.73.31-1.294 0-2.012-.22-.509-.436-.803-.906-1.083-.714-.424-2.113 0-2.113 0l-1.962-.928h-1.812l.302.928 2.566.774-3.17-.31-5.434-2.785-3.321-.464-1.509.464-.453-.773h-.302v1.702l1.811.464s3.019-.619 3.774-.464 4.529 2.939 4.981 3.249c.453.309 2.567.464 2.567.464l2.415-.928.302 1.702s-.96.759-1.661 1.083c-.938.433-1.545.48-2.566.619-2.349.318-6.038-.619-6.038-.619l-3.774-1.083m-3.622-3.404 3.622 3.404m-3.622-3.404-.302-.774 3.924 4.178m-1.509-10.986.453 1.548.754-1.548 3.019-.464-2.717 1.393-1.509 1.856-.755-.928z"/><path fill="#393765" d="M318.312 108.569c-.151-.464-2.264-2.785-3.019-3.095-.755-.309-2.835.619-2.717.774s.453.309.453.309 1.556-.864 2.264-.309c.133.104.453.309.302.309s-2.139.344-1.962.465l.453.309c.176.121 2.264-.309 2.264-.309l.453.618-1.963.465s.151.619.453.464 1.812-.464 1.812-.464l.754 1.392s.604-.464.453-.928m22.498-.401c-.151-.465-2.265-2.785-3.019-3.095-.755-.309-2.992.247-2.873.401s.608.682.608.682 1.556-.865 2.265-.309c.132.104.759.309.301.309-.457 0-2.294.126-2.118.247s.432.406.609.527 2.259-.063 2.259-.063l.151.154-1.962.31s.458.991.76.837c.301-.155 1.504-.373 1.504-.373l.755 1.392s.91-.555.76-1.019"/><path fill="#FFF8F8" d="m327.827 113.057 1.661-6.035.603 1.238-.302 3.714 1.963.464s1.358-.31 1.962-.31 1.138-.204 1.661 0c2.049.803 4.83 3.095 4.83 3.095.302.464 1.645.551 2.717.464.985-.08.604 0 2.415-.774 1.812-.773.302 1.548.302 1.548s-1.048.778-1.811 1.083c-.949.377-2.566.464-2.566.464s-5.259.05-8.001-.929c-2.626-.937-5.434-4.022-5.434-4.022"/><path fill="#C9624B" d="M333.711 109.2s-3.019-.929-3.321-1.084c-.302-.154-.452 1.238-.452 1.238 1.061.665 1.509 1.393 2.717 1.702 1.207.31 1.699.537 2.566.155.466-.205.697-.454.905-.928.17-.386 0-1.238 0-1.238l-1.66-.928s.212.71 0 .928c-.213.218-.755.155-.755.155"/><path fill="#F2DDD0" d="M333.702 108.149s-1.16-.172-2.03-.172 1.015-2.421 1.015-2.421 1.16-.691 1.595-.518 4.406 3.84 4.406 3.84.667.907 1.102.654c.469-.272.145-1.209.435-1.209s2.464 1.729 2.029 2.42-4.058.519-4.783 0a436 436 0 0 0-3.769-2.594"/><path stroke="#000" stroke-width=".5" d="M295.579 21.245s2.184.767 3.248 1.752c1.508 1.395 1.967 2.697 2.394 4.732.48 2.284-.513 5.96-.513 5.96l1.539-4.207"/><path fill="#ECAFA3" d="m307.545 100.287.342-7.712c3.27 1.244 4.974 1.23 7.865.876l-1.368 7.361c-2.966-.595-4.422-.671-6.839-.525m22.915.175-1.025-8.237c3.269 1.244 5.829-.173 8.72-.526l-.855 9.289c-2.967-.596-4.422-.672-6.84-.526"/><path fill="#005A26" stroke="#DFF7E3" d="m287.837 59.59-.624-.167-.005.646.5.004-.5-.004v.206a38 38 0 0 0 .1 2.391c.108 1.431.336 3.223.831 4.493.808 2.07 1.606 3.176 3.165 4.716 1.202 1.188 2.84 1.917 4.577 2.357 1.741.442 3.617.601 5.335.621a38 38 0 0 0 5.727-.386V91.14c0 1.05.849 1.666 1.693 2.02.873.366 1.962.554 2.878.658 1.017.115 2.211.22 3.23.017.517-.103 1.017-.29 1.434-.62.424-.335.736-.796.898-1.4 1.097-4.07 1.229-9.035 1.094-12.956a80 80 0 0 0-.457-6.178l8.686 1.629 1.181 5.636.895 11.777.02.268.234.131.244-.436-.244.436h.001l.003.002.008.004.029.017.111.059q.144.077.404.206c.342.17.822.394 1.373.614 1.081.43 2.517.878 3.732.796.992-.068 2.139-.511 3-.909a19 19 0 0 0 1.409-.727l.04-.023.048-.028.023-.013.007-.004.001-.002h.001l-.258-.428.258.428.265-.16-.024-.307-1.255-16.343v-.002l-.001-.012-.003-.05-.013-.192a28 28 0 0 0-.386-2.98c-.328-1.765-.927-3.957-2.032-5.397-1.332-1.733-3.757-3.183-5.782-4.185a38 38 0 0 0-3.699-1.586l-.06-.021-.015-.006-.005-.001h-.001l-.164.472.163-.473-.008-.002-12.2-3.997-.947-.31.318.944.001.012q0 .013-.014.057a.9.9 0 0 1-.187.283c-.223.25-.617.551-1.196.87-1.151.632-2.929 1.277-5.219 1.742-4.573.928-11.118 1.123-18.618-.881Z"/><path fill="#00210A" d="M306.236 31.608c.06-.51.496-.893 1.01-.885l27.92.439a1 1 0 0 1 .978 1.114l-2.372 20.516h-8.568l-1.428-4.658s-.893-.56-.893 0c0 .559.536 3.726.536 3.726h-.357l-1.428-5.962s-.347-.305-.536-.186c-.133.083-.178.372-.178.372s-.011-.223-.179-.372c-.211-.19-.461-.123-.714 0-.51.246 0 1.49 0 1.49s-.357-.186-.714 0c-.357.187-.178 1.49-.178 1.49h-.536v3.913l-14.815.187z"/><path fill="#F5CAC1" d="M318.359 52.539s-.194-.026-.314 0c-.538.114 0 1.353 0 1.353l1.568.601 1.882.752h2.508l2.352-2.556-.94-.15-1.412-4.36s-1.097-1.052-1.097-.3c0 .75.47 3.758.47 3.758h-.313l-1.324-5.714s-.171-.706-.684-.356c-.114.078-.171.526-.171.35 0-.175.14-.293-.33-.444-.47-.15-.72.119-.941.451-.303.457.245 1.22.245 1.22s-.198-.18-.513 0c-.525.303-.342 1.578-.342 1.578s-.644-.542-.644.059z"/><path fill="#99D5A3" d="m343.07 230.714-14.609-41.078-1.461-3.043 9.739-.507L343.07 181c14.262 13.864 39.93 34.5 39.93 34.5s-9.449 12.152-18.017 15.214c-8.095 2.893-21.913 0-21.913 0"/><path fill="#DFF7E3" d="m338.798 230.918-14.709-39.712-1.47-2.942 9.805-.49 9.806-5.883L379 216.21s-9.514 11.748-18.14 14.708c-8.149 2.796-22.062 0-22.062 0"/><path fill="#E5A38C" d="M323.499 188.892s-16.528-17.424-17.89-19.791c-1.361-2.368 11.259 6.528 11.259 6.528s-12.494-12.815-11.141-15.178c.434-.758 4.539 2.688 8.264 6.058-4.601-4.436-10.072-10.028-9.99-11.466.102-1.802-.352-2.169 1.815-2.623 1.877-.394 12.639 12.458 15.746 16.358-3-4.05-12.999-17.891-12.777-18.359 1.195-2.527 3.461-.122 3.461-.122l18.99 18.804 1.736-1.669s-3.348-5.421-5.051-8.381c-1.702-2.96 4.42-1.105 4.42-1.105s5.774 6.575 7.736 11.916c1.752 4.769 2.212 11.293 2.212 11.293l-.124.829-9.734 5.598z"/><path fill="#F5CAC1" d="M322.853 188.537s-17.026-17.516-18.387-19.883 11.734 6.633 11.734 6.633-12.536-12.64-11.244-14.968c.542-.976 7.378 5.134 11.448 8.903-4.664-4.441-13.125-12.754-13.049-14.534.077-1.787-.022-1.79 2.091-2.213 1.819-.364 12.123 12.093 15.215 16.015-3.035-4.128-12.897-17.871-12.687-18.331 1.136-2.493 3.383-.077 3.383-.077l18.807 18.908 1.677-1.634s-3.343-5.424-5.046-8.384c-1.702-2.96 4.307-1.041 4.307-1.041s5.73 6.601 7.717 11.928c1.774 4.757 2.307 11.238 2.307 11.238l-.111.822-9.446 5.432z"/><defs><linearGradient id="a" x1="315.581" x2="315.581" y1="117.988" y2="119.39" gradientUnits="userSpaceOnUse"><stop stop-color="#6B6B6B"/><stop offset="1" stop-color="#D9D9D9" stop-opacity="0"/></linearGradient><linearGradient id="b" x1="337.637" x2="337.637" y1="117.638" y2="119.04" gradientUnits="userSpaceOnUse"><stop stop-color="#6B6B6B"/><stop offset="1" stop-color="#D9D9D9" stop-opacity="0"/></linearGradient></defs></svg>