<svg xmlns="http://www.w3.org/2000/svg" fill="none" viewBox="0 0 80 80"><ellipse cx="57.432" cy="22.222" fill="#D7F5DC" rx="22.568" ry="22.222"/><path fill="#007936" d="M36.402 28a10.75 10.75 0 0 1 7.507 3.033 10.23 10.23 0 0 1 3.11 7.321c0 2.746-1.119 5.38-3.11 7.322a10.76 10.76 0 0 1-7.507 3.032c-2.816 0-5.517-1.09-7.508-3.032a10.23 10.23 0 0 1-3.11-7.322c0-2.746 1.119-5.38 3.11-7.321A10.76 10.76 0 0 1 36.402 28m-21.235 7.396c1.699 0 3.276.444 4.641 1.242-.454 4.23.82 8.432 3.428 11.715-1.516 2.84-4.55 4.793-8.069 4.793a9.22 9.22 0 0 1-6.435-2.6 8.77 8.77 0 0 1-2.665-6.275c0-2.354.959-4.611 2.665-6.276a9.22 9.22 0 0 1 6.435-2.6m42.469 0a9.22 9.22 0 0 1 6.435 2.6 8.77 8.77 0 0 1 2.665 6.275 8.77 8.77 0 0 1-2.665 6.275 9.22 9.22 0 0 1-6.435 2.6c-3.52 0-6.553-1.953-8.07-4.793 2.61-3.283 3.884-7.484 3.428-11.715a9.13 9.13 0 0 1 4.642-1.242M16.684 65.719c0-6.124 8.827-11.094 19.717-11.094s19.718 4.97 19.718 11.094v5.177H16.684zM0 70.896v-4.438c0-4.112 5.733-7.573 13.499-8.579-1.79 2.012-2.882 4.793-2.882 7.84v5.177zm72.803 0H62.186v-5.177c0-3.047-1.092-5.828-2.882-7.84 7.766 1.006 13.499 4.467 13.499 8.58z"/></svg>