<svg xmlns="http://www.w3.org/2000/svg" fill="none" viewBox="0 0 45 46"><circle cx="30.094" cy="13.156" r="12.656" fill="#fff"/><path fill="#007936" d="M20.476 16.25a6.05 6.05 0 0 1 4.223 1.706 5.75 5.75 0 0 1 1.749 4.118c0 1.545-.63 3.026-1.75 4.119a6.05 6.05 0 0 1-4.222 1.705 6.05 6.05 0 0 1-4.223-1.705 5.75 5.75 0 0 1-1.75-4.119c0-1.545.63-3.026 1.75-4.118a6.05 6.05 0 0 1 4.223-1.706M8.532 20.41c.955 0 1.842.25 2.61.7a9.05 9.05 0 0 0 1.928 6.589 5.13 5.13 0 0 1-4.538 2.695 5.2 5.2 0 0 1-3.62-1.462 4.93 4.93 0 0 1-1.5-3.53 4.93 4.93 0 0 1 1.5-3.53 5.2 5.2 0 0 1 3.62-1.462m23.888 0c1.358 0 2.66.526 3.62 1.462a4.93 4.93 0 0 1 1.5 3.53 4.93 4.93 0 0 1-1.5 3.53 5.2 5.2 0 0 1-3.62 1.463 5.13 5.13 0 0 1-4.539-2.696 9.05 9.05 0 0 0 1.928-6.59 5.14 5.14 0 0 1 2.611-.699M9.385 37.467c0-3.445 4.965-6.24 11.09-6.24 6.127 0 11.092 2.795 11.092 6.24v2.912H9.385zM0 40.379v-2.496c0-2.313 3.225-4.26 7.593-4.826-1.007 1.132-1.62 2.696-1.62 4.41v2.912zm40.952 0H34.98v-2.912c0-1.714-.615-3.278-1.621-4.41 4.368.566 7.593 2.513 7.593 4.826z"/></svg>