<svg xmlns="http://www.w3.org/2000/svg" viewBox="0 0 50.04 50.702"><path fill="none" stroke="#fff" d="M25 50.202C11.462 50.202.5 39.069.5 25.351S11.463.5 25 .5s24.5 11.133 24.5 24.851S38.537 50.202 25 50.202z"/><path fill="#fff" stroke="#8FF295" d="M25.019 38.027c-6.916 0-12.51-5.681-12.51-12.676s5.595-12.675 12.51-12.675 12.51 5.681 12.51 12.675-5.595 12.676-12.51 12.676z"/><path fill="#8FF295" stroke="#8FF295" d="M25.018 33.968c-4.705 0-8.507-3.864-8.507-8.617 0-4.752 3.802-8.617 8.507-8.617s8.507 3.865 8.507 8.617-3.802 8.617-8.507 8.617z"/></svg>