<svg xmlns="http://www.w3.org/2000/svg" fill="none" viewBox="0 0 50 50"><path fill="#007936" d="M39.889 23.611v-12.5l-5.861 2.945c.194.833.305 1.694.305 2.61 0 6.14-4.972 11.112-11.11 11.112-6.14 0-11.112-4.972-11.112-11.111 0-.917.111-1.778.306-2.611l-8.64-4.334L23.223 0l19.445 9.722v13.89zm-16.667-4.167-5.555-2.777c0 3.055 2.5 5.555 5.555 5.555 3.056 0 5.556-2.5 5.556-5.555zm7.64-9.944-7.195-3.667-7.473 3.806 7.223 3.667zm-7.64 21.056c7.417 0 22.222 3.694 22.222 11.11V50H1v-8.333c0-7.417 14.806-11.111 22.222-11.111m0 5.277c-8.333 0-16.944 4.056-16.944 5.834v3.055h33.889v-3.055c0-1.778-8.695-5.834-16.945-5.834"/></svg>