<svg xmlns="http://www.w3.org/2000/svg" fill="none" viewBox="0 0 294 537"><ellipse cx="149.376" cy="521.651" fill="#007936" rx="51.63" ry="14.642"/><path fill="#DC8173" fill-rule="evenodd" d="M106.027 417.26c-.092-.361-2.97-11.608-5.79-18.446-6.09-14.769-22.136-33.777-22.136-33.777s-1.898-7.858 0-12.883c2.048-5.422 11.45-3.134 11.45-3.134l28.751 19.848 28.242-22.286 41.219-26.116s5.929-3.125 8.141 0c.928 1.311 1.527 4.179 1.527 4.179s8.545-7.134 14.503-6.616c2.862.249 7.124 2.437 7.124 2.437s6.001 3.122 7.633 7.661c1.851 5.148-1.018 14.625-1.018 14.625s2.641 4.323 2.799 7.66c.265 5.619-6.361 11.491-6.361 11.491l-33.637 47.74.11-.01s2.796 30.482 3.568 50.118c.954 24.294 0 62.299 0 62.299s-26.114 7.717-43.596 7.59c-17.092-.125-42.529-7.59-42.529-7.59z" clip-rule="evenodd"/><path fill="#FCB7A0" fill-rule="evenodd" d="M105.576 403.517c1.956 4.066 3.493 7.263 3.653 13.752.214 8.735 0 105.795 0 105.795s23.85 6.843 40.514 7.02c17.192.183 42.168-7.02 42.168-7.02s1.145-33.769.978-55.413c-.172-22.273-1.927-56.998-1.927-56.998l34.348-48.749s6.626-5.873 6.361-11.491c-.158-3.338-2.799-7.661-2.799-7.661s2.869-9.477 1.018-14.625c-1.632-4.539-7.633-7.66-7.633-7.66s-9.159-1.406-12.744-.7c-2.084.411-9.209 6.217-17.538 13.543 3.471-4.828 5.341-9.276 4.123-12.531-1.367-3.65-8.335.695-8.335.695l-38.02 25.108-28.242 22.286-31.615-19.806s-5.192-1.47-8.585 3.092c-3.477 4.673-.542 12.437-.542 12.437s16.587 19.454 22.677 34.223c.737 1.787 1.464 3.297 2.14 4.703" clip-rule="evenodd"/><path fill="#FCB7A0" fill-rule="evenodd" d="M105.576 403.517c1.956 4.066 3.493 7.263 3.653 13.752.214 8.735 0 105.795 0 105.795s23.85 6.843 40.514 7.02c17.192.183 42.168-7.02 42.168-7.02s1.145-33.769.978-55.413c-.172-22.273-1.927-56.998-1.927-56.998l34.348-48.749s6.626-5.873 6.361-11.491c-.158-3.338-2.799-7.661-2.799-7.661s2.869-9.477 1.018-14.625c-1.632-4.539-7.633-7.66-7.633-7.66s-9.159-1.406-12.744-.7c-2.084.411-9.209 6.217-17.538 13.543 3.471-4.828 5.341-9.276 4.123-12.531-1.367-3.65-8.335.695-8.335.695l-38.02 25.108-28.242 22.286-31.615-19.806s-5.192-1.47-8.585 3.092c-3.477 4.673-.542 12.437-.542 12.437s16.587 19.454 22.677 34.223c.737 1.787 1.464 3.297 2.14 4.703" clip-rule="evenodd"/><path fill="#FCB7A0" fill-rule="evenodd" d="M105.576 403.517c1.956 4.066 3.493 7.263 3.653 13.752.214 8.735 0 105.795 0 105.795s23.85 6.843 40.514 7.02c17.192.183 42.168-7.02 42.168-7.02s1.145-33.769.978-55.413c-.172-22.273-1.927-56.998-1.927-56.998l34.348-48.749s6.626-5.873 6.361-11.491c-.158-3.338-2.799-7.661-2.799-7.661s2.869-9.477 1.018-14.625c-1.632-4.539-7.633-7.66-7.633-7.66s-9.159-1.406-12.744-.7c-2.084.411-9.209 6.217-17.538 13.543 3.471-4.828 5.341-9.276 4.123-12.531-1.367-3.65-8.335.695-8.335.695l-38.02 25.108-28.242 22.286-31.615-19.806s-5.192-1.47-8.585 3.092c-3.477 4.673-.542 12.437-.542 12.437s16.587 19.454 22.677 34.223c.737 1.787 1.464 3.297 2.14 4.703" clip-rule="evenodd"/><path stroke="#DC8173" stroke-width="2" d="M169.818 356.875h-12.181m12.181 0c6.09 1.736 8.175 4.747 12.181 8.677m-12.181-8.677 26.987-28.991m27.186-6.065s-12.502 11.661-14.105 12.843c-14.575 10.745-15.244 17.336-27.887 30.89m0 0c4.756 2.982 6.141 4.654 10.898 7.636m36.227-29.849s-8.339-1.042-36.227 29.849m0 0c4.483 9.372 1.608 14.925 1.608 14.925"/><path stroke="#fff" stroke-width="3" d="M153.037 304.214c76.961 0 139.466-59.668 139.466-133.412S229.998 37.391 153.037 37.391 13.57 97.058 13.57 170.802s62.506 133.412 139.467 133.412Z"/><ellipse cx="153.213" cy="170.402" fill="#007936" rx="127.213" ry="122.209"/><path fill="#DFF7E3" d="M68.62 161.965c-3.206-1.857-12.65 4.706-16.298 5.449-60.767 12.373 51.257-40.319 21.068-56.99-.673-.372-1.038-1.363-1.754-1.643-3.216-1.261-19.024 12.87-16.537.081.09-.456.025-.999-.197-1.407-11.064-20.306-25.055 34.399-25.09 34.536-.001.004 0-.004 0 0-.034.139-16.582 66.936 25.292 77.186 9.478 2.32 19.84 28.624 24.507 41.883.69 1.962 3.67 1.771 4.083-.268.982-4.832 2.181-10.534 2.816-12.814 1.308-4.692-1.312-7.764 0-12.455 2.408-8.603 12.944-8.052 16.3-16.346 3.201-7.913 1.619-13.316 2.385-21.795.722-7.99 4.462-12.884 1.193-20.238-2.777-6.247-7.448-13.415-13.914-10.898-3.164 1.232-3.917.142-7.156 1.168-5.853 1.854-4.19-5.705-10.336-5.449-3.677.153-3.193 1.834-6.361 0m116.106 96.755c-8.567 4.93.513 15.966 2.094 17.78.152.174.326.307.537.404 2.95 1.355 26.585 10.732 57.134-20.591 15.775-16.176 17.945-20.722 18.241-21.613.04-.119.058-.224.089-.345.657-2.552 8.483-34.174-6.202-36.252-3.528-.5-11.107 4.505-16.862 9.264-4.782 3.954-9.75 14.842-16.05 15.427-6.011.558-5.446 8.478-11.378 10.342-5.59 1.756-7.852-.846-12.247 2.641-3.732 2.96-9.869.671-14.65 2.018-9.01 2.539-7.452 6.46-7.094 6.783 3.175 2.86.763 2.004 2.111 4.857.807 1.707 2.669 1.404 2.023 3.391-.655 2.012 4.535 4.581 2.254 5.894M123.719 83.105c4.963 1.428 8.848-18.567 9.171-20.28.017-.087.036-.157.057-.243.319-1.262 2.113-11.46-24.479-7.122-9.27 1.513-23.41 10.814-25.16 11.982q-.18.12-.327.278c-1.436 1.529-12.76 13.77-9.505 16.196 1.372 1.023 3.264 2.582 7.365 2.604 3.406.018 11.205-4.164 12.788-1.275 1.51 2.757 6.377-2.442 8.692-.535 2.182 1.797.984 4.576 4.022 4.685 2.58.091 2.326 4.677 4.095 6.31 3.333 3.078 5.496-.156 5.63-.54 1.184-3.412 1.112-1.636 2.644-4.1.917-1.474.367-2.247 1.74-3.145 1.39-.909 2.002-5.179 3.267-4.815"/><ellipse cx="106.716" cy="26.196" fill="#fff" rx="17.173" ry="15.612"/><path fill="#007936" d="M101.514 11.804c10.372-1.79 20.297 5.014 22.126 15.168 2.198 12.205-9.366 32.08-12.087 36.54a.942.942 0 0 1-1.409.243c-4.115-3.28-21.926-18.084-24.124-30.288-1.829-10.155 5.121-19.872 15.494-21.663m.758 31.714a1 1 0 0 0 1.386-.24L116.93 24.54a1 1 0 0 0-.253-1.4l-2.778-1.919a1 1 0 0 0-1.386.24L102.322 35.86a1 1 0 0 1-1.387.24l-4.92-3.408a1 1 0 0 0-1.386.238l-1.94 2.733a1 1 0 0 0 .252 1.4z"/><g clip-path="url(#a)"><ellipse cx="24.018" cy="136.767" fill="#fff" rx="9.891" ry="8.992"/><path fill="#007936" d="M16.927 128.036c4.834-3.588 11.747-2.657 15.412 2.075 4.202 5.425 3.861 17.651 3.651 21.359a.946.946 0 0 1-1.162.862c-3.704-.802-15.82-3.782-20.021-9.207-3.665-4.733-2.714-11.501 2.12-15.089m8.474 15.995a1 1 0 0 0 1.137-.845l1.654-12.187a1 1 0 0 0-.866-1.116l-1.09-.151a1 1 0 0 0-1.136.845l-1.24 9.151a1 1 0 0 1-1.138.845l-2.569-.359a1 1 0 0 0-1.137.844l-.146 1.068a1 1 0 0 0 .864 1.117z"/></g><path fill="#DFF7E3" d="M251.59 91.024c-6.374-12.172-38.972-29.125-40.39-29.858-.045-.023-.062-.034-.107-.059-.914-.508-12.377-6.242-31.653 13.6-7.026 7.23 2.566 21.982-6.842 22.003-33.962.078-35.212 4.164-54.457 14.472-23.355 12.51 5.083 43.976 9.303 43.967 9.003-.021 13.523-7.817 17.95 22.147.458 3.097 23.357-13.133 22.545-15.622-2.031-6.224-6.911-19.059 4.588-35.825 10.094-14.717 15.767 8.528 31.904 5.766 5.098-.873-7.787.032 1.659-8.956 4.921-4.683 32.265-2.657 31.931-5.523-.2-1.715 2.34-18.149 3.731-19.084 6.968-4.687 10.442-5.875 9.838-7.029"/><g clip-path="url(#b)"><ellipse cx="10.024" cy="9.173" fill="#fff" rx="10.024" ry="9.173" transform="matrix(.97915 .214 -.2218 .9727 229.637 56.787)"/><path fill="#007936" d="M242.274 52.47c6.073 2.372 9.042 9.139 6.618 15.084-2.802 6.874-14.696 13.422-18.2 15.231a.942.942 0 0 1-1.338-.522c-1.269-3.674-5.291-16.44-2.489-23.314 2.424-5.946 9.336-8.852 15.409-6.48M231.94 69.107a1 1 0 0 0 1.313.513l12.557-5.348a1 1 0 0 0 .535-1.314l-.526-1.211a1 1 0 0 0-1.313-.512l-9.482 4.04a1 1 0 0 1-1.313-.513l-1.161-2.681a1 1 0 0 0-1.313-.514l-1.233.524a1 1 0 0 0-.536 1.314z"/></g><path fill="#007936" d="M94.615 153.278c3.07 0 5.566 2.444 5.566 5.449 0 3.172-3.355 7.518-4.855 9.303a.92.92 0 0 1-1.421 0c-1.5-1.785-4.855-6.131-4.855-9.303 0-3.005 2.496-5.449 5.565-5.449m-1.919 8.647a1 1 0 0 0 1.406-.001l3.926-3.879a.781.781 0 1 0-1.099-1.111l-2.827 2.795a1 1 0 0 1-1.406 0l-.394-.39a.781.781 0 1 0-1.099 1.112zm97.716 62.416c3.069 0 5.566 2.444 5.566 5.449 0 3.172-3.355 7.518-4.855 9.303a.92.92 0 0 1-1.421 0c-1.501-1.785-4.855-6.131-4.855-9.303 0-3.005 2.496-5.449 5.565-5.449m-1.919 8.647a1 1 0 0 0 1.405-.001l3.926-3.879a.781.781 0 1 0-1.098-1.111l-2.827 2.795a1 1 0 0 1-1.406 0l-.394-.39a.781.781 0 1 0-1.099 1.112z"/><ellipse cx="9.68" cy="8.937" fill="#fff" rx="9.68" ry="8.937" transform="matrix(.81306 .58276 -.59867 .80056 218.758 241.488)"/><path fill="#007936" d="M220.83 243.292c5.981-.098 10.929 4.585 11.029 10.441.115 6.713-7.431 16.248-9.805 19.078a.946.946 0 0 1-1.437.023c-2.469-2.75-10.337-12.032-10.452-18.745-.1-5.856 4.684-10.699 10.665-10.797m-2.774 17.561a1 1 0 0 0 1.406-.024l8.548-8.733a1 1 0 0 0-.025-1.424l-.758-.722a1 1 0 0 0-1.405.024l-6.433 6.577a1 1 0 0 1-1.406.023l-1.833-1.753a1 1 0 0 0-1.405.023l-.732.746a1 1 0 0 0 .023 1.424z"/><defs><clipPath id="a"><path fill="#fff" d="m0 136.738 30.055-22.309 22.787 29.424-30.055 22.31z"/></clipPath><clipPath id="b"><path fill="#fff" d="m224.648 42.012 37.76 14.753-15.068 36.968-37.76-14.753z"/></clipPath></defs></svg>