<svg xmlns="http://www.w3.org/2000/svg" fill="none" viewBox="0 0 51 50"><path fill="#007936" d="M23.85 12.5h6.25l6.855-6.875a2.08 2.08 0 0 1 2.958 0l5.375 5.396a2.083 2.083 0 0 1 0 2.937l-4.771 4.792H23.85v4.167a2.083 2.083 0 0 1-4.166 0v-6.25A4.167 4.167 0 0 1 23.85 12.5m-12.5 10.417v8.333l-4.77 4.77a2.083 2.083 0 0 0 0 2.938l5.374 5.396a2.08 2.08 0 0 0 2.959 0l8.937-8.937h8.334a2.083 2.083 0 0 0 2.083-2.084V31.25h2.083a2.083 2.083 0 0 0 2.084-2.083v-2.084h2.083A2.083 2.083 0 0 0 42.6 25v-2.083H28.017V25a4.167 4.167 0 0 1-4.167 4.167h-4.166A4.167 4.167 0 0 1 15.517 25v-6.25z"/></svg>