<svg xmlns="http://www.w3.org/2000/svg" fill="none" viewBox="0 0 80 80"><ellipse cx="57.872" cy="22.222" fill="#D7F5DC" rx="22.127" ry="22.222"/><path fill="#007936" d="M59.577 59.259q2.561 0 4.32 1.778 1.756 1.778 1.727 4.148l-23.92 8.889-20.852-5.926V41.48h5.809l21.656 7.97q2.323.92 2.323 3.319 0 1.392-1.013 2.43-1.013 1.036-2.561 1.096h-8.34l-5.214-1.985-.983 2.785 6.196 2.163zm-11.916-40.8q3.157-3.645 8.043-3.644 4.051 0 6.852 2.962 2.8 2.964 2.978 6.815 0 3.052-2.978 7.29-2.979 4.236-5.869 7.08t-9.026 8.445q-6.196-5.6-9.115-8.444t-5.868-7.082-2.89-7.289q0-4.03 2.89-6.815 2.89-2.784 6.97-2.963 4.767 0 8.013 3.645M2.932 41.48h11.964v32.593H2.932z"/></svg>