<svg xmlns="http://www.w3.org/2000/svg" fill="none" viewBox="0 0 45 46"><ellipse cx="32.554" cy="13" fill="#fff" rx="12.447" ry="12.5"/><path fill="#007936" d="M33.512 33.833q1.44 0 2.43 1 .988 1 .972 2.334l-13.455 5-11.73-3.334v-15h3.268l12.181 4.484q1.308.516 1.307 1.866 0 .784-.57 1.367-.57.584-1.44.617h-4.692l-2.932-1.117-.553 1.567 3.485 1.216zm-6.702-22.95q1.776-2.05 4.524-2.05 2.28 0 3.854 1.667 1.575 1.666 1.675 3.833 0 1.717-1.675 4.1-1.676 2.384-3.301 3.984t-5.077 4.75q-3.486-3.15-5.128-4.75t-3.3-3.984-1.626-4.1q0-2.266 1.625-3.833t3.921-1.667q2.682 0 4.508 2.05M1.649 23.833h6.73v18.334h-6.73z"/></svg>