<svg xmlns="http://www.w3.org/2000/svg" fill="none" viewBox="0 0 51 50"><path fill="#007936" d="m35.432 43.75-5.729-6.25 2.417-2.417 3.312 3.313 7.48-7.48 2.416 2.938M26.682 43.75h-16.25a4.15 4.15 0 0 1-4.166-4.167V10.417a4.15 4.15 0 0 1 4.166-4.167H39.6a4.15 4.15 0 0 1 4.167 4.167v16.25a12.5 12.5 0 0 0-4.167-1.5v-14.75H10.432v29.166h14.75c.25 1.5.771 2.896 1.5 4.167m-1.666-8.333H14.599V31.25h10.417m5.583-4.167h-16v-4.166h20.833v2.25c-1.77.291-3.396.958-4.833 1.916m4.833-8.333H14.6v-4.167h20.833"/></svg>