<svg xmlns="http://www.w3.org/2000/svg" fill="none" viewBox="0 0 51 50"><path fill="#007936" d="M35.203 25c0-1.417-.125-2.792-.292-4.167h7.042c.333 1.334.542 2.73.542 4.167 0 .77-.063 1.52-.167 2.25a11.9 11.9 0 0 1 4 1.333c.208-1.166.333-2.354.333-3.583 0-11.458-9.375-20.833-20.833-20.833-11.52 0-20.833 9.375-20.833 20.833s9.375 20.833 20.833 20.833a20.3 20.3 0 0 0 3.583-.333 12.3 12.3 0 0 1-1.5-5.917c0-.604.063-1.187.146-1.77-.666 1.312-1.396 2.583-2.229 3.77-1.73-2.5-3.125-5.27-3.98-8.25h7.75a12.4 12.4 0 0 1 5.397-5c.125-1.104.208-2.208.208-3.333M25.828 8.396c1.73 2.5 3.125 5.291 3.98 8.27h-7.96c.855-2.979 2.25-5.77 3.98-8.27M9.703 29.166c-.333-1.333-.542-2.729-.542-4.166s.209-2.834.542-4.167h7.042c-.167 1.375-.292 2.75-.292 4.167s.125 2.791.292 4.166zm1.708 4.167h6.084c.729 2.604 1.666 5.104 2.916 7.417a16.68 16.68 0 0 1-9-7.417m6.084-16.666H11.41a16.5 16.5 0 0 1 9-7.417c-1.25 2.312-2.187 4.812-2.916 7.416m13.208 12.5h-9.75A27.6 27.6 0 0 1 20.62 25c0-1.417.125-2.813.333-4.167h9.75c.188 1.354.333 2.75.333 4.167s-.146 2.791-.333 4.166m.52-19.917a16.64 16.64 0 0 1 9.022 7.416h-6.146c-.667-2.604-1.625-5.104-2.875-7.416m16.48 26.687-9.896 9.896-5.729-6.25 2.417-2.416 3.312 3.312 7.48-7.48z"/></svg>