<svg xmlns="http://www.w3.org/2000/svg" width="1340" height="426" role="img">
  <title>MDN Masthead Background</title>
  <path
    fill="#62ADCD"
    fill-rule="evenodd"
    opacity=".14"
    d="M1097.97 131.55v17.37h-8.7v8.68h8.7v-8.68h8.7v-8.68h8.7v-8.69h-17.4zm0 26.05v17.36h17.4v-8.68h-8.7v-8.68h-8.7zm34.8-26.05v8.68h8.7v8.69h8.7v-17.37h-17.4zm17.4 17.37v8.68h-8.7v8.68h-8.7v8.68h17.4V157.6h8.7v-8.68h-8.7zM954.2 42.69v8.68h-8.7v26.05h8.7V51.37h8.7V42.7h-8.7zm0 43.41h8.7v-8.68h-8.7v8.68zm26.1-34.73h8.7V42.7h-8.7v8.68zm8.7 0v26.05h-8.7v8.68h8.7v-8.68h8.7V51.37h-8.7zM860.27 42.7v17.36h-8.7v8.69h-8.7V86.1h8.7V68.74h8.7v-8.68h8.7V42.69zm43.5 0v17.36h-8.7v8.69h-8.7V86.1h8.7V68.74h8.7v-8.68h8.7V42.69zm293.59-.1v17.47h-8.76v8.74h-8.75v17.48h8.75V68.8h8.76v-8.74h8.75V42.6zm43.78 0v17.47h-8.76v8.74h-8.75v17.48h8.75V68.8h8.76v-8.74h8.75V42.6zm43.77 0v17.47h-8.75v8.74h-8.76v17.48h8.76V68.8h8.75v-8.74h8.76V42.6zm43.78 0v17.47h-8.75v8.74h-8.76v17.48h8.76V68.8h8.75v-8.74h8.76V42.6zM515.05.64v8.94h-8.91V36.4h8.91V9.58h8.92V.64h-8.92zm0 44.7h8.92V36.4h-8.92v8.95zM541.8 9.59h8.92V.64h-8.92v8.94zm8.92 0V36.4h-8.92v8.95h8.92V36.4h8.9V9.58h-8.9zM181.97 146.55v17.37h-8.7v8.68h8.7v-8.68h8.7v-8.68h8.7v-8.69h-17.4zm0 26.05v17.36h17.4v-8.68h-8.7v-8.68h-8.7zm34.8-26.05v8.69h8.7v8.68h8.7v-17.37h-17.4zm17.4 17.37v8.68h-8.7v8.68h-8.7v8.68h17.4V172.6h8.7v-8.68h-8.7zM38.2 57.69v8.68h-8.7v26.05h8.7V66.37h8.7V57.7h-8.7zm0 43.41h8.7v-8.68h-8.7v8.68zm26.1-34.73h8.7V57.7h-8.7v8.68zm8.7 0v26.05h-8.7v8.68h8.7v-8.68h8.7V66.37h-8.7zm208.37-8.78v17.47h-8.76v8.74h-8.75v17.48h8.75V83.8h8.76v-8.74h8.75V57.6zm43.78 0v17.47h-8.76v8.74h-8.75v17.48h8.75V83.8h8.76v-8.74h8.75V57.6zm43.77 0v17.47h-8.75v8.74h-8.76v17.48h8.76V83.8h8.75v-8.74h8.76V57.6zm43.78 0v17.47h-8.75v8.74h-8.76v17.48h8.76V83.8h8.75v-8.74h8.76V57.6zm43.78 0v17.47h-8.76v8.74h-8.75v17.48h8.75V83.8h8.76v-8.74h8.75V57.6zm-480.7 309.96v8.69h8.7v8.68h8.7v-17.37h-17.4zm17.4 17.37v8.68h-8.7v8.68h-8.7v8.68h17.4V393.6h8.7v-8.68h-8.7zm47.19-106.33v17.47H31.6v8.74h-8.75v17.48h8.75V304.8h8.76v-8.74h8.75V278.6zm43.78 0v17.47h-8.76v8.74h-8.75v17.48h8.75V304.8h8.76v-8.74h8.75V278.6zm43.77 0v17.47h-8.75v8.74h-8.76v17.48h8.76V304.8h8.75v-8.74h8.76V278.6zm43.78 0v17.47h-8.76v8.74h-8.75v17.48h8.76V304.8h8.75v-8.74h8.76V278.6zm43.78 0v17.47h-8.76v8.74h-8.75v17.48h8.75V304.8h8.76v-8.74h8.75V278.6zM961.94 381.96v17.37h-8.7V408h8.7v-8.68h8.7v-8.68h8.7v-8.69h-17.4zm0 26.05v17.37h17.4v-8.69h-8.7v-8.68h-8.7zm34.8-26.05v8.69h8.7v8.68h8.7v-17.37h-17.4zm17.4 17.37V408h-8.7v8.68h-8.7v8.69h17.4V408h8.7v-8.68h-8.7zM818.15 293.1v8.69h-8.7v26.04h8.7V301.8h8.7v-8.69h-8.7zm0 43.42h8.7v-8.69h-8.7v8.69zm26.1-34.73h8.7v-8.69h-8.7v8.69zm8.7 0v26.04h-8.7v8.69h8.7v-8.69h8.7V301.8h-8.7zm-128.72-8.69v17.37h-8.7v8.68h-8.7v17.37h8.7v-17.37h8.7v-8.68h8.7V293.1zm43.5 0v17.37h-8.7v8.68h-8.7v17.37h8.7v-17.37h8.7v-8.68h8.7V293.1zm293.6-.1v17.48h-8.76v8.73h-8.75v17.48h8.75v-17.48h8.76v-8.73h8.75V293zm43.77 0v17.48h-8.75v8.73h-8.76v17.48h8.76v-17.48h8.75v-8.73h8.76V293zm43.78 0v17.48h-8.76v8.73h-8.75v17.48h8.75v-17.48h8.76v-8.73h8.76V293zm43.78 0v17.48h-8.76v8.73h-8.75v17.48h8.75v-17.48h8.76v-8.73h8.76V293zm43.78 0v17.48h-8.76v8.73h-8.76v17.48h8.76v-17.48h8.76v-8.73h8.75V293zm59.71-154.9v8.69h-8.7v26.04h8.7V146.8h8.7v-8.69h-8.7zm0 43.42h8.7v-8.69h-8.7v8.69zm26.1-34.73h8.7v-8.69h-8.7v8.69zm8.7 0v26.04h-8.7v8.69h8.7v-8.69h8.7V146.8h-8.7zm-128.72-8.69v17.37h-8.7v8.68h-8.7v17.37h8.7v-17.37h8.7v-8.68h8.7V138.1zm43.5 0v17.37h-8.7v8.68h-8.7v17.37h8.7v-17.37h8.7v-8.68h8.7V138.1z"
  />
</svg>
