<svg version="1.1" id="mdn-plus-logo" xmlns="http://www.w3.org/2000/svg" xmlns:xlink="http://www.w3.org/1999/xlink" x="0px" y="0px" viewBox="0 0 522.3 104.6" xml:space="preserve">
  <style type="text/css">
  .logo-m{fill:var(--text-link);}
  .logo-text{fill:var(--text-primary);}
</style>
  <g class="logo-m">
    <path d="M40.3,0L11.7,92.1H0L28.5,0H40.3z" />
    <path d="M50.7,0v92.1H40.3V0H50.7z" />
    <path d="M91,0L62.5,92.1H50.8L79.3,0H91z" />
    <path d="M101.4,0v92.1H91V0H101.4z" />
    <path d="M455.3,95.8h67v8.8h-67V95.8z" />
  </g>
  <g class="logo-text">
    <path d="M198.7,72.8h-17.1v-5.5h3.8V51.5c0-3.7-0.7-6.3-2.1-7.9c-1.4-1.6-3.3-2.3-5.7-2.3c-3.2,0-5.6,1.1-7.2,3.4
      s-2.4,4.6-2.5,6.9v15.6h6v5.5h-17.1v-5.5h3.8V51.5c0-3.8-0.7-6.4-2.1-7.9c-1.4-1.5-3.3-2.3-5.6-2.3c-3.2,0-5.5,1.1-7.2,3.3
      c-1.6,2.2-2.4,4.5-2.5,6.9v15.8h6.9v5.5h-20.2v-5.5h6V42h-6.1v-5.6h13.4v6.4c1.2-2.1,2.7-3.8,4.7-5.2c2-1.3,4.4-2,7.3-2
      c2.8,0,5.3,0.7,7.5,2.1c2.2,1.4,3.7,3.5,4.5,6.4c1.1-2.5,2.7-4.5,4.9-6.1c2.2-1.6,4.8-2.4,7.9-2.4c3.5,0,6.5,1.1,8.9,3.3
      c2.4,2.2,3.7,5.6,3.7,10.2v18.2h6.1V72.8z" />
    <path d="M242.8,72.8h-13.2v-7.2c-1.2,2.2-2.8,4.1-4.9,5.6c-2.1,1.6-4.8,2.4-8.3,2.4c-4.8,0-8.7-1.6-11.6-4.9
      c-2.9-3.2-4.3-7.7-4.3-13.3c0-5,1.3-9.6,4-13.7c2.6-4.1,6.9-6.2,12.8-6.2c5.7,0,9.8,2.2,12.3,6.5V22.3H221v-5.6h15.8v50.6h6V72.8
      z M229.6,56v-4.4c-0.1-3-1.2-5.5-3.2-7.3c-2-1.8-4.4-2.8-7.2-2.8c-3.6,0-6.3,1.3-8.2,3.9c-1.9,2.6-2.8,5.8-2.8,9.6
      c0,4.1,1,7.3,3,9.5c2,2.2,4.5,3.3,7.4,3.3c3.2,0,5.8-1.3,7.8-3.8C228.4,61.4,229.5,58.7,229.6,56z" />
    <path d="M289.7,72.8h-19.3v-5.5h6V51.5c0-3.7-0.7-6.3-2.2-7.9c-1.4-1.6-3.4-2.3-5.7-2.3c-3.1,0-5.6,1-7.4,3c-1.8,2-2.8,4.4-2.9,7
      v15.9h6v5.5h-19.3v-5.5h6V42h-6.2v-5.6h13.6v6.2c2.6-4.6,6.8-6.9,12.7-6.9c3.6,0,6.7,1.1,9.2,3.3c2.5,2.2,3.7,5.6,3.7,10.2v18.2
      h6V72.8z" />
    <path d="M348.7,53.6c0,5-1.4,9.6-4.1,13.8c-2.7,4.2-7,6.2-13,6.2c-5.5,0-9.5-2-12-6v16.8h8.1v5.7h-21.4v-5.7h6.1V42h-6.3v-5.6
      h13.6v7.4c1.1-2.2,2.7-4.1,4.7-5.7c2.1-1.6,4.8-2.4,8.2-2.4c4.8,0,8.6,1.6,11.6,4.8C347.2,43.6,348.7,48,348.7,53.6z M341.1,54.3
      c0-4.2-1-7.4-3-9.5c-2-2.2-4.5-3.3-7.6-3.3c-3.2,0-5.7,1.2-7.7,3.7c-1.9,2.4-3,5.1-3.1,7.9l-0.1,4.2c0,3,1,5.5,3,7.5
      c2,2,4.5,2.9,7.4,2.9c3.7,0,6.5-1.3,8.3-3.9C340.2,61.3,341.1,58.1,341.1,54.3z" />
    <path d="M370.8,72.8h-19.3v-5.5h6v-45h-6.2v-5.6h13.6v50.6h6V72.8z" />
    <path d="M416.8,72.8h-13.6v-6.5c-2.6,4.9-6.7,7.3-12.6,7.3c-3.6,0-6.7-1.1-9.2-3.3c-2.5-2.2-3.8-5.6-3.8-10.3V42h-6v-5.6H385
      v21.4c0,3.7,0.7,6.3,2.2,7.8c1.5,1.5,3.5,2.3,6,2.3c3,0,5.4-1.1,7.2-3.2c1.8-2.1,2.8-4.5,2.8-7.1V42H396v-5.6h14.6v30.9h6.2V72.8
      z" />
    <path d="M450.4,62.1c0,3.6-1.5,6.5-4.6,8.5c-3.1,2-7,3-11.7,3c-5.7,0-10.6-1.2-14.6-3.6l1.2-8.8l5.7,0.6l-0.2,4.7
      c1.1,0.5,2.3,0.9,3.6,1.1c1.3,0.2,2.6,0.3,3.9,0.3c2.4,0,4.5-0.4,6.5-1.3c1.9-0.9,2.9-2.2,2.9-4.1c0-1.8-0.8-3.1-2.3-3.8
      s-3.5-1.3-5.8-1.7c-2.3-0.4-4.6-0.9-6.9-1.4c-2.3-0.6-4.2-1.6-5.7-2.9c-1.6-1.4-2.3-3.5-2.3-6.3c0-4.1,1.5-6.9,4.6-8.5
      c3.1-1.6,6.4-2.4,9.9-2.4c2.6,0,5,0.3,7.2,0.9c2.2,0.6,4.3,1.4,6.1,2.4l0.8,8.8l-5.8,0.7l-0.8-5.7c-2.3-1-4.7-1.6-7.2-1.6
      c-2.1,0-3.7,0.4-5.1,1.1c-1.3,0.8-2,2-2,3.8c0,1.7,0.8,2.9,2.3,3.6c1.5,0.7,3.4,1.2,5.7,1.6c2.2,0.4,4.5,0.8,6.7,1.4
      c2.2,0.6,4.1,1.6,5.7,3C449.7,57.1,450.4,59.2,450.4,62.1z" />
  </g>
</svg>
