<svg version="1.1" id="mdn-docs-logo" xmlns="http://www.w3.org/2000/svg" xmlns:xlink="http://www.w3.org/1999/xlink" x="0px" y="0px" viewBox="0 0 694.9 104.4" xml:space="preserve">
  <style type="text/css">
  .logo-m{fill:var(--text-link);}
  .logo-text{fill:var(--text-primary);}
</style>
  <g class="logo-m">
    <path d="M40.3,0L11.7,92.1H0L28.5,0H40.3z" />
    <path d="M50.7,0v92.1H40.3V0H50.7z" />
    <path d="M91,0L62.5,92.1H50.8L79.3,0H91z" />
    <path d="M101.4,0v92.1H91V0H101.4z" />
    <path d="M627.9,95.6h67v8.8h-67V95.6z" />
  </g>
  <g class="logo-text">
    <path d="M198.7,72.8h-17.1v-5.5h3.8V51.5c0-3.7-0.7-6.3-2.1-7.9c-1.4-1.6-3.3-2.3-5.7-2.3c-3.2,0-5.6,1.1-7.2,3.4s-2.4,4.6-2.5,6.9
      v15.6h6v5.5h-17.1v-5.5h3.8V51.5c0-3.8-0.7-6.4-2.1-7.9c-1.4-1.5-3.3-2.3-5.6-2.3c-3.2,0-5.5,1.1-7.2,3.3c-1.6,2.2-2.4,4.5-2.5,6.9
      v15.8h6.9v5.5h-20.2v-5.5h6V42h-6.1v-5.6h13.4v6.4c1.2-2.1,2.7-3.8,4.7-5.2c2-1.3,4.4-2,7.3-2c2.8,0,5.3,0.7,7.5,2.1
      c2.2,1.4,3.7,3.5,4.5,6.4c1.1-2.5,2.7-4.5,4.9-6.1s4.8-2.4,7.9-2.4c3.5,0,6.5,1.1,8.9,3.3s3.7,5.6,3.7,10.2v18.2h6.1L198.7,72.8
      L198.7,72.8z" />
    <path d="M242.8,72.8h-13.2v-7.2c-1.2,2.2-2.8,4.1-4.9,5.6c-2.1,1.6-4.8,2.4-8.3,2.4c-4.8,0-8.7-1.6-11.6-4.9
      c-2.9-3.2-4.3-7.7-4.3-13.3c0-5,1.3-9.6,4-13.7c2.6-4.1,6.9-6.2,12.8-6.2c5.7,0,9.8,2.2,12.3,6.5V22.3H221v-5.6h15.8v50.6h6V72.8z
       M229.6,56v-4.4c-0.1-3-1.2-5.5-3.2-7.3s-4.4-2.8-7.2-2.8c-3.6,0-6.3,1.3-8.2,3.9c-1.9,2.6-2.8,5.8-2.8,9.6c0,4.1,1,7.3,3,9.5
      c2,2.2,4.5,3.3,7.4,3.3c3.2,0,5.8-1.3,7.8-3.8C228.4,61.4,229.5,58.7,229.6,56z" />
    <path d="M289.7,72.8h-19.3v-5.5h6V51.5c0-3.7-0.7-6.3-2.2-7.9c-1.4-1.6-3.4-2.3-5.7-2.3c-3.1,0-5.6,1-7.4,3c-1.8,2-2.8,4.4-2.9,7
      v15.9h6v5.5h-19.3v-5.5h6V42h-6.2v-5.6h13.6v6.2c2.6-4.6,6.8-6.9,12.7-6.9c3.6,0,6.7,1.1,9.2,3.3s3.7,5.6,3.7,10.2v18.2h6v5.4
      H289.7z" />
    <path d="M366.1,42h-4l-10.7,30.8h-5.5l-10.8-26h-0.4l-10.5,26H319L307.8,42H304v-5.6h18.1V42h-6.5l6.8,20.4h0.4l10.3-26h4.7
      l11.2,26h0.5l5.7-20.3H349v-5.6h17.1V42z" />
    <path d="M401,62c-0.4,3.2-2,5.9-4.7,8.2c-2.8,2.3-6.5,3.4-11.3,3.4c-5.4,0-9.7-1.6-13.1-4.7c-3.3-3.2-5-7.7-5-13.7
      c0-5.7,1.6-10.3,4.7-14s7.4-5.5,12.9-5.5c5.1,0,9.1,1.6,11.9,4.7s4.3,6.9,4.3,11.3c0,1.5-0.2,3-0.5,4.7h-25.6
      c0.3,7.7,4,11.6,10.9,11.6c2.9,0,5.1-0.7,6.5-2c1.5-1.4,2.5-3,3-4.9L401,62z M393.1,51.3c0.2-2.4-0.4-4.7-1.8-6.9s-3.8-3.3-7-3.3
      c-3.1,0-5.3,1-6.9,3c-1.5,2-2.5,4.4-2.8,7.2H393.1z" />
    <path d="M444.1,53.7c0,5-1.3,9.5-4,13.7s-6.9,6.2-12.7,6.2c-6,0-10.3-2.2-12.7-6.7c-0.1,0.4-0.2,1.4-0.4,2.9
      c-0.2,1.5-0.3,2.5-0.4,2.9h-7.3c0.3-1.7,0.6-3.5,0.8-5.3c0.3-1.8,0.4-3.7,0.4-5.5V22.3h-6v-5.6h13.3v27c1.1-2.2,2.7-4.1,4.7-5.7
      c2-1.6,4.8-2.4,8.4-2.4c4.6,0,8.4,1.6,11.4,4.7C442.6,43.5,444.1,47.9,444.1,53.7z M436.4,54.3c0-4.2-1-7.4-3-9.5
      c-2-2.2-4.4-3.3-7.4-3.3c-3.4,0-6,1.2-8,3.7c-1.9,2.4-2.9,5-3,7.7V57c0,3,1,5.6,3,7.7s4.5,3.1,7.6,3.1c3.6,0,6.3-1.3,8.1-3.9
      C435.5,61.2,436.4,58,436.4,54.3z" />
    <path d="M506.5,72.8h-13.2v-7.2c-1.2,2.2-2.8,4.1-4.9,5.6c-2.1,1.6-4.8,2.4-8.3,2.4c-4.8,0-8.7-1.6-11.6-4.9
      c-2.9-3.2-4.3-7.7-4.3-13.3c0-5,1.3-9.6,4-13.7c2.6-4.1,6.9-6.2,12.8-6.2c5.7,0,9.8,2.2,12.3,6.5V22.3h-8.6v-5.6h15.8v50.6h6
      L506.5,72.8L506.5,72.8z M493.2,56v-4.4c-0.1-3-1.2-5.5-3.2-7.3s-4.4-2.8-7.2-2.8c-3.6,0-6.3,1.3-8.2,3.9c-1.9,2.6-2.8,5.8-2.8,9.6
      c0,4.1,1,7.3,3,9.5c2,2.2,4.5,3.3,7.4,3.3c3.2,0,5.8-1.3,7.8-3.8C492.1,61.4,493.1,58.7,493.2,56z" />
    <path d="M546.3,54.6c0,5.6-1.8,10.2-5.3,13.7s-8.2,5.3-13.9,5.3s-10.1-1.7-13.4-5.1c-3.3-3.4-5-7.9-5-13.5c0-5.3,1.6-9.9,4.7-13.7
      c3.2-3.8,7.9-5.7,14.2-5.7s11,1.9,14.1,5.7C544.7,45,546.3,49.4,546.3,54.6z M538.6,54.4c0-4-1-7.2-3-9.5s-4.8-3.5-8.2-3.5
      c-3.6,0-6.4,1.2-8.3,3.7s-2.9,5.6-2.9,9.5c0,3.7,0.9,6.8,2.8,9.4c1.9,2.6,4.6,3.9,8.3,3.9c3.6,0,6.4-1.3,8.4-3.8
      C537.6,61.5,538.6,58.3,538.6,54.4z" />
    <path d="M583.6,60.2c-0.4,3.2-1.9,6.3-4.4,9.1c-2.5,2.9-6.4,4.3-11.8,4.3c-5.2,0-9.4-1.6-12.6-4.8c-3.2-3.2-4.8-7.7-4.8-13.7
      c0-5.5,1.6-10.1,4.7-13.9c3.2-3.8,7.6-5.7,13.2-5.7c2.3,0,4.6,0.3,6.7,0.8c2.2,0.5,4.2,1.5,6.2,2.9l1.5,9.5l-5.9,0.7l-1.3-6.1
      c-2.1-1.2-4.5-1.8-7.2-1.8c-3.5,0-6.1,1.2-7.7,3.7c-1.7,2.5-2.5,5.7-2.5,9.6c0,4.1,0.9,7.3,2.7,9.5c1.8,2.3,4.4,3.4,7.8,3.4
      c5.2,0,8.2-2.9,9.2-8.8L583.6,60.2z" />
    <path d="M618.3,62.1c0,3.6-1.5,6.5-4.6,8.5s-7,3-11.7,3c-5.7,0-10.6-1.2-14.6-3.6l1.2-8.8l5.7,0.6l-0.2,4.7
      c1.1,0.5,2.3,0.9,3.6,1.1s2.6,0.3,3.9,0.3c2.4,0,4.5-0.4,6.5-1.3c1.9-0.9,2.9-2.2,2.9-4.1c0-1.8-0.8-3.1-2.3-3.8s-3.5-1.3-5.8-1.7
      s-4.6-0.9-6.9-1.4c-2.3-0.6-4.2-1.6-5.7-2.9c-1.6-1.4-2.3-3.5-2.3-6.3c0-4.1,1.5-6.9,4.6-8.5s6.4-2.4,9.9-2.4c2.6,0,5,0.3,7.2,0.9
      c2.2,0.6,4.3,1.4,6.1,2.4l0.8,8.8l-5.8,0.7l-0.8-5.7c-2.3-1-4.7-1.6-7.2-1.6c-2.1,0-3.7,0.4-5.1,1.1c-1.3,0.8-2,2-2,3.8
      c0,1.7,0.8,2.9,2.3,3.6c1.5,0.7,3.4,1.2,5.7,1.6c2.2,0.4,4.5,0.8,6.7,1.4c2.2,0.6,4.1,1.6,5.7,3C617.5,57.1,618.3,59.2,618.3,62.1z" />
  </g>
</svg>
