<svg width="155" height="24" viewBox="0 0 155 24" fill="none" xmlns="http://www.w3.org/2000/svg" aria-labelledby="mdn-docs-logo-svg">
<title id="mdn-docs-logo-svg">MDN logo</title>
<path d="M0 24H3.60948L9.3913 0H5.87884L0 24Z" fill="var(--text-link)"/>
<path d="M12.8914 24H16.5005L22.2827 0H18.7696L12.8914 24Z" fill="var(--text-link)"/>
<path d="M9.39136 24H12.8914V0H9.46809L9.39136 24Z" fill="var(--text-link)"/>
<path d="M25.7827 0H22.2827V24H25.7827V0Z" fill="var(--text-link)"/>
<path d="M49.0827 8.222H47.5707V17.078H48.9747V18.5H44.6727V17.078H45.9327V10.508H45.8607L42.1887 17.798H41.3787L37.5807 10.4H37.5087V17.078H38.8227V18.5H34.5567V17.078H35.9607V8.222H34.4487V6.8H37.3647L41.8107 15.404H41.8827L46.1487 6.8H49.0827V8.222ZM60.8497 12.632C60.8497 14.372 60.3277 15.788 59.2837 16.88C58.2397 17.96 56.7937 18.5 54.9457 18.5H49.5817V17.096H51.0037V8.204H49.5817V6.8H54.8557C56.7877 6.8 58.2697 7.346 59.3017 8.438C60.3337 9.53 60.8497 10.928 60.8497 12.632ZM59.1037 12.65C59.1037 11.27 58.7377 10.184 58.0057 9.392C57.2737 8.6 56.2117 8.204 54.8197 8.204H52.6417V17.096H54.8197C56.2117 17.096 57.2737 16.712 58.0057 15.944C58.7377 15.164 59.1037 14.066 59.1037 12.65ZM73.2225 8.222H71.8185V18.5H70.8285L64.1865 9.806H64.1145V17.078H65.8965V18.5H61.2345V17.078H62.5665V8.222H61.0545V6.8H63.7545L70.1985 15.224H70.2705V8.222H68.5245V6.8H73.2225V8.222ZM92.2446 8.222H91.2726L88.1226 18.5H86.8626L83.8746 9.662H83.8026L80.9226 18.5H79.6446L76.2966 8.222H75.2886V6.8H79.5186V8.222H78.0426L80.2926 15.818H80.3826L82.9026 8.222H81.8046V6.8H86.0166V8.222H84.9546L87.4746 15.89H87.5646L89.6346 8.222H88.0506V6.8H92.2446V8.222ZM98.4462 16.124C98.3622 16.82 98.0202 17.42 97.4202 17.924C96.8202 18.428 96.0042 18.68 94.9722 18.68C93.8082 18.68 92.8662 18.332 92.1462 17.636C91.4262 16.94 91.0662 15.932 91.0662 14.612C91.0662 13.364 91.4022 12.332 92.0742 11.516C92.7462 10.7 93.6762 10.292 94.8642 10.292C95.9682 10.292 96.8262 10.634 97.4382 11.318C98.0502 12.002 98.3622 12.83 98.3742 13.802C98.3742 14.126 98.3382 14.468 98.2662 14.828H92.7222C92.7942 16.532 93.5802 17.384 95.0802 17.384C95.7042 17.384 96.1722 17.234 96.4842 16.934C96.8082 16.634 97.0242 16.274 97.1322 15.854L98.4462 16.124ZM96.7362 13.766C96.7842 13.238 96.6522 12.734 96.3402 12.254C96.0402 11.762 95.5362 11.516 94.8282 11.516C94.1682 11.516 93.6702 11.738 93.3342 12.182C93.0102 12.614 92.8122 13.142 92.7402 13.766H96.7362ZM107.206 14.288C107.206 15.38 106.918 16.388 106.342 17.312C105.766 18.224 104.848 18.68 103.588 18.68C102.28 18.68 101.362 18.188 100.834 17.204C100.822 17.3 100.792 17.516 100.744 17.852C100.708 18.188 100.684 18.404 100.672 18.5H99.0876C99.1476 18.128 99.2076 17.738 99.2676 17.33C99.3276 16.922 99.3576 16.52 99.3576 16.124V7.358H98.0616V6.116H100.942V12.074C101.182 11.594 101.518 11.18 101.95 10.832C102.394 10.472 103 10.292 103.768 10.292C104.764 10.292 105.586 10.64 106.234 11.336C106.882 12.032 107.206 13.016 107.206 14.288ZM105.55 14.414C105.55 13.49 105.334 12.788 104.902 12.308C104.482 11.828 103.954 11.588 103.318 11.588C102.586 11.588 102.01 11.858 101.59 12.398C101.17 12.938 100.954 13.502 100.942 14.09V14.99C100.942 15.662 101.158 16.232 101.59 16.7C102.022 17.156 102.568 17.384 103.228 17.384C104.008 17.384 104.59 17.096 104.974 16.52C105.358 15.944 105.55 15.242 105.55 14.414ZM121.891 12.632C121.891 14.372 121.369 15.788 120.325 16.88C119.281 17.96 117.835 18.5 115.987 18.5H110.623V17.096H112.045V8.204H110.623V6.8H115.897C117.829 6.8 119.311 7.346 120.343 8.438C121.375 9.53 121.891 10.928 121.891 12.632ZM120.145 12.65C120.145 11.27 119.779 10.184 119.047 9.392C118.315 8.6 117.253 8.204 115.861 8.204H113.683V17.096H115.861C117.253 17.096 118.315 16.712 119.047 15.944C119.779 15.164 120.145 14.066 120.145 12.65ZM130.354 14.486C130.354 15.722 129.97 16.73 129.202 17.51C128.446 18.29 127.444 18.68 126.196 18.68C124.972 18.68 124 18.302 123.28 17.546C122.572 16.79 122.218 15.794 122.218 14.558C122.218 13.382 122.56 12.374 123.244 11.534C123.928 10.694 124.948 10.274 126.304 10.274C127.66 10.274 128.674 10.694 129.346 11.534C130.018 12.362 130.354 13.346 130.354 14.486ZM128.698 14.432C128.698 13.544 128.476 12.842 128.032 12.326C127.6 11.81 127.012 11.552 126.268 11.552C125.488 11.552 124.888 11.828 124.468 12.38C124.06 12.92 123.856 13.616 123.856 14.468C123.856 15.284 124.054 15.98 124.45 16.556C124.858 17.12 125.458 17.402 126.25 17.402C127.03 17.402 127.63 17.126 128.05 16.574C128.482 16.01 128.698 15.296 128.698 14.432ZM137.871 15.71C137.775 16.418 137.457 17.09 136.917 17.726C136.389 18.362 135.543 18.68 134.379 18.68C133.251 18.68 132.339 18.332 131.643 17.636C130.959 16.928 130.617 15.92 130.617 14.612C130.617 13.4 130.959 12.38 131.643 11.552C132.327 10.712 133.281 10.292 134.505 10.292C135.009 10.292 135.495 10.352 135.963 10.472C136.431 10.592 136.875 10.802 137.295 11.102L137.619 13.19L136.341 13.334L136.053 11.984C135.597 11.72 135.075 11.588 134.487 11.588C133.731 11.588 133.173 11.864 132.813 12.416C132.453 12.956 132.273 13.658 132.273 14.522C132.273 15.422 132.465 16.124 132.849 16.628C133.233 17.132 133.797 17.384 134.541 17.384C135.657 17.384 136.323 16.736 136.539 15.44L137.871 15.71ZM144.835 16.142C144.835 16.946 144.499 17.57 143.827 18.014C143.167 18.458 142.327 18.68 141.307 18.68C140.071 18.68 139.021 18.416 138.157 17.888L138.409 15.944L139.651 16.07L139.615 17.114C139.855 17.234 140.113 17.318 140.389 17.366C140.677 17.414 140.959 17.438 141.235 17.438C141.751 17.438 142.213 17.342 142.621 17.15C143.041 16.958 143.251 16.658 143.251 16.25C143.251 15.854 143.083 15.578 142.747 15.422C142.411 15.254 141.991 15.128 141.487 15.044C140.995 14.96 140.503 14.858 140.011 14.738C139.519 14.606 139.105 14.39 138.769 14.09C138.433 13.778 138.265 13.31 138.265 12.686C138.265 11.786 138.595 11.162 139.255 10.814C139.927 10.466 140.641 10.292 141.397 10.292C141.949 10.292 142.465 10.364 142.945 10.508C143.437 10.64 143.881 10.814 144.277 11.03L144.457 12.974L143.197 13.118L143.017 11.858C142.525 11.63 142.009 11.516 141.469 11.516C141.025 11.516 140.659 11.6 140.371 11.768C140.083 11.936 139.939 12.212 139.939 12.596C139.939 12.968 140.101 13.232 140.425 13.388C140.761 13.544 141.169 13.664 141.649 13.748C142.141 13.82 142.627 13.922 143.107 14.054C143.599 14.186 144.007 14.408 144.331 14.72C144.667 15.032 144.835 15.506 144.835 16.142ZM145.417 19.796H153.193V20.894H145.417V19.796Z" fill="var(--text-primary)"/>
</svg>
