<svg id="mdn-plus-logo" xmlns="http://www.w3.org/2000/svg" viewBox="0 0 522.3 104.6" style="enable-background:new 0 0 522.3 104.6" xml:space="preserve" role="img"><title>MDN Plus</title><path d="M40.3 0 11.7 92.1H0L28.5 0Zm10.4 0v92.1H40.3V0ZM91 0 62.5 92.1H50.8L79.3 0Zm10.4 0v92.1H91V0Z" class="logo-m"/><path d="M455.3 95.8h67v8.8h-67z" class="logo-_"/><path d="M348.7 53.6c0 5-1.4 9.6-4.1 13.8-2.7 4.2-7 6.2-13 6.2-5.5 0-9.5-2-12-6v16.8h8.1v5.7h-21.4v-5.7h6.1V42h-6.3v-5.6h13.6v7.4c1.1-2.2 2.7-4.1 4.7-5.7 2.1-1.6 4.8-2.4 8.2-2.4 4.8 0 8.6 1.6 11.6 4.8 3 3.1 4.5 7.5 4.5 13.1zm-7.6.7c0-4.2-1-7.4-3-9.5-2-2.2-4.5-3.3-7.6-3.3-3.2 0-5.7 1.2-7.7 3.7-1.9 2.4-3 5.1-3.1 7.9l-.1 4.2c0 3 1 5.5 3 7.5s4.5 2.9 7.4 2.9c3.7 0 6.5-1.3 8.3-3.9 1.9-2.5 2.8-5.7 2.8-9.5zm29.7 18.5h-19.3v-5.5h6v-45h-6.2v-5.6h13.6v50.6h6v5.5h-.1zm46 0h-13.6v-6.5c-2.6 4.9-6.7 7.3-12.6 7.3-3.6 0-6.7-1.1-9.2-3.3-2.5-2.2-3.8-5.6-3.8-10.3V42h-6v-5.6H385v21.4c0 3.7.7 6.3 2.2 7.8s3.5 2.3 6 2.3c3 0 5.4-1.1 7.2-3.2 1.8-2.1 2.8-4.5 2.8-7.1V42H396v-5.6h14.6v30.9h6.2v5.5zm33.6-10.7c0 3.6-1.5 6.5-4.6 8.5s-7 3-11.7 3c-5.7 0-10.6-1.2-14.6-3.6l1.2-8.8 5.7.6-.2 4.7c1.1.5 2.3.9 3.6 1.1 1.3.2 2.6.3 3.9.3 2.4 0 4.5-.4 6.5-1.3 1.9-.9 2.9-2.2 2.9-4.1 0-1.8-.8-3.1-2.3-3.8s-3.5-1.3-5.8-1.7-4.6-.9-6.9-1.4c-2.3-.6-4.2-1.6-5.7-2.9-1.6-1.4-2.3-3.5-2.3-6.3 0-4.1 1.5-6.9 4.6-8.5s6.4-2.4 9.9-2.4c2.6 0 5 .3 7.2.9 2.2.6 4.3 1.4 6.1 2.4l.8 8.8-5.8.7-.8-5.7c-2.3-1-4.7-1.6-7.2-1.6-2.1 0-3.7.4-5.1 1.1-1.3.8-2 2-2 3.8 0 1.7.8 2.9 2.3 3.6 1.5.7 3.4 1.2 5.7 1.6 2.2.4 4.5.8 6.7 1.4 2.2.6 4.1 1.6 5.7 3 1.5 1.6 2.2 3.7 2.2 6.6zM197.6 73.2h-17.1v-5.5h3.8V51.9c0-3.7-.7-6.3-2.1-7.9-1.4-1.6-3.3-2.3-5.7-2.3-3.2 0-5.6 1.1-7.2 3.4s-2.4 4.6-2.5 6.9v15.6h6v5.5h-17.1v-5.5h3.8V51.9c0-3.8-.7-6.4-2.1-7.9-1.4-1.5-3.3-2.3-5.6-2.3-3.2 0-5.5 1.1-7.2 3.3-1.6 2.2-2.4 4.5-2.5 6.9v15.8h6.9v5.5h-20.2v-5.5h6V42.4h-6.1v-5.6h13.4v6.4c1.2-2.1 2.7-3.8 4.7-5.2 2-1.3 4.4-2 7.3-2s5.3.7 7.5 2.1c2.2 1.4 3.7 3.5 4.5 6.4 1.1-2.5 2.7-4.5 4.9-6.1s4.8-2.4 7.9-2.4c3.5 0 6.5 1.1 8.9 3.3s3.7 5.6 3.7 10.2v18.2h6.1v5.5zm42.5 0h-13.2V66c-1.2 2.2-2.8 4.1-4.9 5.6-2.1 1.6-4.8 2.4-8.3 2.4-4.8 0-8.7-1.6-11.6-4.9-2.9-3.2-4.3-7.7-4.3-13.3 0-5 1.3-9.6 4-13.7 2.6-4.1 6.9-6.2 12.8-6.2s9.8 2.2 12.3 6.5V22.7h-8.6v-5.6h15.8v50.6h6v5.5zm-13.3-16.8V52c-.1-3-1.2-5.5-3.2-7.3s-4.4-2.8-7.2-2.8c-3.6 0-6.3 1.3-8.2 3.9-1.9 2.6-2.8 5.8-2.8 9.6 0 4.1 1 7.3 3 9.5s4.5 3.3 7.4 3.3c3.2 0 5.8-1.3 7.8-3.8 2.1-2.6 3.1-5.3 3.2-8zm61.5 16.8H269v-5.5h6V51.9c0-3.7-.7-6.3-2.2-7.9-1.4-1.6-3.4-2.3-5.7-2.3-3.1 0-5.6 1-7.4 3s-2.8 4.4-2.9 7v15.9h6v5.5h-19.3v-5.5h6V42.4h-6.2v-5.6h13.6V43c2.6-4.6 6.8-6.9 12.7-6.9 3.6 0 6.7 1.1 9.2 3.3s3.7 5.6 3.7 10.2v18.2h6v5.4h-.2z" class="logo-text"/></svg>