<svg width="107" height="24" viewBox="0 0 107 24" fill="none" xmlns="http://www.w3.org/2000/svg" aria-labelledby="mdn-plus-logo-svg">
<title id="mdn-plus-logo-svg">MDN plus logo</title>
<path d="M0 24H3.60948L9.3913 0H5.87884L0 24Z" fill="var(--text-link)"/>
<path d="M12.8914 24H16.5005L22.2827 0H18.7696L12.8914 24Z" fill="var(--text-link)"/>
<path d="M9.39136 24H12.8914V0H9.46809L9.39136 24Z" fill="var(--text-link)"/>
<path d="M25.7827 0H22.2827V24H25.7827V0Z" fill="var(--text-link)"/>
<path d="M49.0827 8.222H47.5707V17.078H48.9747V18.5H44.6727V17.078H45.9327V10.508H45.8607L42.1887 17.798H41.3787L37.5807 10.4H37.5087V17.078H38.8227V18.5H34.5567V17.078H35.9607V8.222H34.4487V6.8H37.3647L41.8107 15.404H41.8827L46.1487 6.8H49.0827V8.222ZM60.8497 12.632C60.8497 14.372 60.3277 15.788 59.2837 16.88C58.2397 17.96 56.7937 18.5 54.9457 18.5H49.5817V17.096H51.0037V8.204H49.5817V6.8H54.8557C56.7877 6.8 58.2697 7.346 59.3017 8.438C60.3337 9.53 60.8497 10.928 60.8497 12.632ZM59.1037 12.65C59.1037 11.27 58.7377 10.184 58.0057 9.392C57.2737 8.6 56.2117 8.204 54.8197 8.204H52.6417V17.096H54.8197C56.2117 17.096 57.2737 16.712 58.0057 15.944C58.7377 15.164 59.1037 14.066 59.1037 12.65ZM73.2225 8.222H71.8185V18.5H70.8285L64.1865 9.806H64.1145V17.078H65.8965V18.5H61.2345V17.078H62.5665V8.222H61.0545V6.8H63.7545L70.1985 15.224H70.2705V8.222H68.5245V6.8H73.2225V8.222ZM85.8758 10.436C85.8758 11.696 85.4858 12.65 84.7058 13.298C83.9378 13.946 82.9778 14.27 81.8258 14.27H79.6838V17.078H81.6278V18.5H76.6238V17.078H78.0458V8.222H76.6238V6.8H81.7178C83.1698 6.8 84.2258 7.154 84.8858 7.862C85.5458 8.558 85.8758 9.416 85.8758 10.436ZM84.1298 10.472C84.1298 9.776 83.9258 9.23 83.5178 8.834C83.1098 8.426 82.4498 8.222 81.5378 8.222H79.6838V12.866H81.5738C83.2778 12.866 84.1298 12.068 84.1298 10.472ZM89.9808 18.5H85.8048V17.276H87.1008V7.358H85.7508V6.116H88.6848V17.276H89.9808V18.5ZM99.4031 18.5H96.4691V17.06C95.9171 18.14 95.0111 18.68 93.7511 18.68C92.9711 18.68 92.3051 18.44 91.7531 17.96C91.2131 17.48 90.9431 16.724 90.9431 15.692V11.696H89.6471V10.454H92.5271V15.17C92.5271 15.986 92.6831 16.562 92.9951 16.898C93.3191 17.234 93.7511 17.402 94.2911 17.402C94.9391 17.402 95.4611 17.168 95.8571 16.7C96.2531 16.22 96.4571 15.692 96.4691 15.116V11.696H94.9031V10.454H98.0531V17.276H99.4031V18.5ZM106.142 16.142C106.142 16.946 105.806 17.57 105.134 18.014C104.474 18.458 103.634 18.68 102.614 18.68C101.378 18.68 100.328 18.416 99.4636 17.888L99.7156 15.944L100.958 16.07L100.922 17.114C101.162 17.234 101.42 17.318 101.696 17.366C101.984 17.414 102.266 17.438 102.542 17.438C103.058 17.438 103.52 17.342 103.928 17.15C104.348 16.958 104.558 16.658 104.558 16.25C104.558 15.854 104.39 15.578 104.054 15.422C103.718 15.254 103.298 15.128 102.794 15.044C102.302 14.96 101.81 14.858 101.318 14.738C100.826 14.606 100.412 14.39 100.076 14.09C99.7396 13.778 99.5716 13.31 99.5716 12.686C99.5716 11.786 99.9016 11.162 100.562 10.814C101.234 10.466 101.948 10.292 102.704 10.292C103.256 10.292 103.772 10.364 104.252 10.508C104.744 10.64 105.188 10.814 105.584 11.03L105.764 12.974L104.504 13.118L104.324 11.858C103.832 11.63 103.316 11.516 102.776 11.516C102.332 11.516 101.966 11.6 101.678 11.768C101.39 11.936 101.246 12.212 101.246 12.596C101.246 12.968 101.408 13.232 101.732 13.388C102.068 13.544 102.476 13.664 102.956 13.748C103.448 13.82 103.934 13.922 104.414 14.054C104.906 14.186 105.314 14.408 105.638 14.72C105.974 15.032 106.142 15.506 106.142 16.142Z" fill="var(--text-primary)"/>
</svg>
