<svg viewBox="0 0 117 32" fill="none" xmlns="http://www.w3.org/2000/svg" role="img"><title>MDN Web Docs Logo</title><g clip-path="url(#clip0)"><path d="M53.908 22.378h-3.51V17.66c0-.718-.121-1.232-.363-1.541-.24-.31-.597-.464-1.067-.464-.57 0-.982.185-1.235.557-.254.371-.38.848-.381 1.43v2.934h1.114v1.802h-3.51V17.66c0-.718-.12-1.232-.362-1.541-.242-.31-.598-.464-1.068-.464-.582 0-.997.185-1.244.557-.248.371-.372.848-.372 1.43v2.934h1.598v1.802H38.4v-1.802h1.114v-4.754H38.42v-1.82h3.491v1.262c.533-.953 1.382-1.43 2.545-1.43a3.249 3.249 0 011.671.446c.508.297.86.748 1.059 1.356.495-1.201 1.405-1.802 2.73-1.802a3.1 3.1 0 012.006.706c.582.47.873 1.2.873 2.191v3.845h1.114v1.802zM64.661 22.378h-3.509v-1.56c-.241.49-.598.914-1.04 1.235-.458.341-1.065.512-1.82.512-1.102 0-1.969-.378-2.6-1.133s-.947-1.783-.947-3.083c0-1.25.309-2.315.928-3.194.618-.88 1.553-1.32 2.804-1.32.68 0 1.238.137 1.672.41.417.255.762.612 1.003 1.038V11.42h-1.671V9.6h4.067v10.976h1.114v1.802zm-3.509-4.234v-.205c0-.693-.183-1.235-.548-1.625a1.793 1.793 0 00-1.365-.585c-.533 0-1 .198-1.402.594-.402.396-.603 1.022-.604 1.876 0 .805.186 1.418.557 1.839.372.42.811.63 1.32.631.63 0 1.129-.266 1.494-.798a2.989 2.989 0 00.548-1.727zM75.916 22.378h-4.624v-1.802h1.114V17.66c0-.718-.12-1.231-.362-1.54-.241-.31-.597-.465-1.068-.465-.57 0-1.009.176-1.318.529-.31.353-.47.814-.484 1.384v3.008h1.115v1.802h-4.625v-1.802h1.115v-4.754H65.57v-1.82h3.603v1.281c.558-.965 1.455-1.448 2.693-1.448.793 0 1.48.235 2.062.705.582.47.873 1.201.873 2.192v3.844h1.114v1.802zM89.957 22.378h-2.73v-1.672a4.28 4.28 0 01-1.115 1.3c-.47.372-1.084.558-1.839.558-1.065 0-1.922-.363-2.572-1.088-.65-.726-.975-1.732-.975-3.018a5.906 5.906 0 01.855-3.084c.569-.953 1.529-1.43 2.88-1.43 1.287 0 2.21.502 2.767 1.504v-4.79h-2.006V9.6h3.306v11.72h1.43l-.001 1.058zm-2.73-3.658V17.4c-.025-.693-.28-1.256-.762-1.69a2.474 2.474 0 00-1.709-.65c-.916 0-1.588.335-2.016 1.003-.428.67-.64 1.437-.64 2.304 0 1.016.239 1.784.715 2.304.477.52 1.074.78 1.792.78.743 0 1.36-.3 1.848-.9.49-.6.746-1.211.772-1.831zM99.261 18.236c0 1.251-.371 2.285-1.114 3.102-.743.817-1.752 1.225-3.027 1.226-1.251 0-2.232-.397-2.944-1.189-.712-.792-1.068-1.814-1.069-3.065 0-1.2.347-2.23 1.04-3.092.694-.86 1.71-1.29 3.047-1.29 1.35 0 2.364.423 3.045 1.272.681.848 1.022 1.86 1.022 3.036zm-1.376-.018c0-.941-.238-1.706-.715-2.294-.477-.588-1.148-.883-2.016-.882-.867 0-1.532.303-1.996.91-.464.606-.696 1.368-.697 2.284 0 .904.23 1.666.688 2.285.458.619 1.126.928 2.005.928.88 0 1.554-.307 2.025-.92.47-.613.707-1.383.709-2.311h-.003zM108.101 19.592c-.111.718-.436 1.393-.975 2.024-.538.632-1.377.948-2.516.948s-2.049-.369-2.73-1.105c-.681-.737-1.022-1.768-1.022-3.093 0-1.139.322-2.16.966-3.064.644-.904 1.61-1.356 2.897-1.356a5.751 5.751 0 011.504.186c.458.124.898.347 1.319.668l.316 1.988-1.076.13-.316-1.393c-.495-.31-1.083-.464-1.764-.465-.88 0-1.511.316-1.895.947-.383.632-.575 1.393-.576 2.285 0 .99.217 1.764.65 2.321.433.557 1.059.836 1.876.836 1.237 0 1.98-.7 2.229-2.098l1.113.241zM116.348 19.982c0 .805-.338 1.436-1.013 1.895-.674.458-1.507.687-2.498.687-.586-.001-1.17-.08-1.736-.232-.576-.155-1.044-.35-1.402-.585l.26-1.876 1.04.111-.055 1.096a4.201 4.201 0 001.839.408c.581 0 1.098-.114 1.55-.343.452-.23.678-.58.678-1.05 0-.457-.173-.78-.52-.965-.346-.186-.777-.322-1.292-.408a23.277 23.277 0 01-1.55-.316c-.52-.124-.954-.337-1.301-.64-.346-.303-.519-.777-.52-1.42 0-.88.322-1.498.966-1.857a4.24 4.24 0 012.099-.538 5.628 5.628 0 011.607.224c.501.15.925.329 1.272.538l.204 1.932-1.077.125-.204-1.337a3.598 3.598 0 00-1.691-.409c-.519 0-.946.1-1.28.297-.333.199-.5.508-.501.928 0 .434.173.74.52.92.347.179.773.309 1.28.39.508.08 1.015.183 1.523.306.508.124.935.343 1.282.66.346.316.52.803.52 1.46z" fill="#15141A" class="logo-text" /><path d="M16 0C7.2 0 0 7.2 0 16s7.2 16 16 16 16-7.2 16-16S24.8 0 16 0zm10.48 16.32c-.08.24-.24.4-.32.64a.625.625 0 01-.32.32c-.16.08-.32.08-.48.08-.16 0-.24 0-.32.08-.32.24-.64.4-.96.56l-.72.24c-.24 0-.48 0-.72-.16-.72-.32-1.6-.48-2.4-.48a3.21 3.21 0 00-1.2.24c-.4.16-.72.4-.96.72-.24.32-.4.64-.48.96-.24.72-.48 4.88-.48 5.92 0 0-3.92-.8-7.68-4.64l.96-2.56H7.44l2.16-2.32H5.84l2.24-2.32h-3.6l4-4.32c1.2-1.2 2.72-2.08 4.4-2.48 1.6-.24 2-.16 2.96.16l.56.16.16.08.72.24c.48.16.96.16 1.36 0 .64-.16 1.28-.08 1.84.24.24.16.48.32.64.56.16.24.24.56.32.8 0 .24.08.48.24.72.145.225.335.415.56.56.64.4 1.36.72 2.08.96.52.18 1.028.393 1.52.64.26.085.485.254.64.48.16.16.24.4.24.64 0 .48.08.88.08 1.36.08.8 0 1.36-.32 1.92z" fill="#008787"/></g><defs><clipPath id="clip0"><path fill="#fff" d="M0 0h116.348v32H0z"/></clipPath></defs></svg>
