<svg viewBox="0 0 114 32" fill="none" xmlns="http://www.w3.org/2000/svg" role="img"><title>MDN Plus Logo</title><g clip-path="url(#clip0)"><path d="M53.903 22.374h-3.509v-4.716c0-.718-.12-1.231-.362-1.541-.241-.31-.597-.465-1.067-.464-.57 0-.981.186-1.235.557-.254.371-.38.848-.38 1.43v2.933h1.113v1.801h-3.509v-4.716c0-.718-.12-1.231-.362-1.541-.242-.31-.597-.465-1.067-.464-.583 0-.997.186-1.245.557-.247.371-.37.848-.37 1.43v2.933h1.596v1.801H38.4v-1.8h1.114V15.82h-1.095V14h3.49v1.264c.532-.953 1.38-1.43 2.544-1.43a3.25 3.25 0 011.67.446c.508.297.86.75 1.06 1.356.494-1.2 1.404-1.801 2.728-1.801.755 0 1.424.234 2.006.704.582.469.873 1.2.872 2.19v3.844h1.114v1.801zM64.653 22.374h-3.509v-1.56c-.241.49-.598.913-1.04 1.234-.458.341-1.064.512-1.82.512-1.1 0-1.967-.377-2.599-1.133-.63-.755-.947-1.782-.947-3.082 0-1.25.31-2.314.928-3.193.62-.88 1.554-1.319 2.804-1.318.68 0 1.238.136 1.672.408.416.256.762.614 1.002 1.04v-3.863h-1.671V9.6h4.066v10.973h1.114v1.801zm-3.509-4.233v-.204c0-.694-.182-1.235-.547-1.625a1.793 1.793 0 00-1.365-.585c-.533 0-1 .198-1.402.594-.401.396-.602 1.021-.603 1.875 0 .805.185 1.418.557 1.838.371.421.81.632 1.318.632.631 0 1.13-.266 1.495-.799a2.995 2.995 0 00.547-1.726zM75.904 22.374h-4.622v-1.8h1.114v-2.916c0-.718-.121-1.231-.362-1.541-.242-.31-.598-.465-1.068-.464-.57 0-1.009.176-1.318.53-.31.352-.47.813-.483 1.382v3.008h1.114v1.801h-4.623v-1.8h1.114V15.82h-1.207V14h3.602v1.28c.557-.965 1.454-1.448 2.692-1.448.792 0 1.48.235 2.061.704.582.47.873 1.2.873 2.19v3.847h1.113v1.801zM89.514 18.01c0 .732-.13 1.458-.38 2.145a3.922 3.922 0 01-1.208 1.728c-.55.452-1.277.678-2.181.677-1.25 0-2.16-.464-2.73-1.393v4.103h1.913v1.059h-4.679V25.27h1.467v-10.1H80.23v-1.058h2.784v1.728a4.023 4.023 0 011.077-1.318c.47-.384 1.09-.576 1.856-.576 1.064 0 1.925.359 2.581 1.077.656.718.985 1.714.986 2.988zm-1.374.112c0-.99-.241-1.748-.724-2.274a2.342 2.342 0 00-1.801-.79c-.743 0-1.355.294-1.838.883-.483.587-.737 1.197-.761 1.828v1.226c0 .693.241 1.275.724 1.745.482.47 1.064.705 1.745.704.928 0 1.603-.334 2.024-1.003.42-.668.631-1.441.63-2.319zM94.991 22.374h-4.196v-1.058h1.448V10.66h-1.467V9.6h2.767v11.716h1.448v1.058zM105.704 22.374h-2.784v-1.56a3.157 3.157 0 01-1.142 1.263c-.503.322-1.082.483-1.737.483-.805 0-1.482-.25-2.033-.752-.55-.501-.826-1.303-.826-2.404V15.17h-1.448v-1.058h2.747v4.92c0 .891.186 1.516.557 1.875.372.36.848.539 1.43.539.706 0 1.284-.266 1.736-.799.451-.532.69-1.095.715-1.69V15.17h-1.728v-1.058h3.026v7.204h1.486l.001 1.058zM113.595 19.979c0 .805-.338 1.436-1.012 1.894-.675.457-1.507.686-2.496.687-.587-.001-1.17-.079-1.736-.232-.576-.155-1.044-.35-1.402-.585l.26-1.875 1.04.11-.057 1.096a4.198 4.198 0 001.838.409c.582 0 1.099-.115 1.55-.344.452-.229.678-.579.678-1.049 0-.457-.173-.78-.52-.965-.346-.186-.776-.323-1.29-.409a23.272 23.272 0 01-1.55-.315c-.52-.124-.953-.338-1.3-.64-.347-.303-.52-.777-.52-1.42 0-.88.322-1.498.966-1.857a4.229 4.229 0 012.097-.538 5.638 5.638 0 011.607.224c.501.15.925.329 1.271.539l.205 1.93-1.078.129-.204-1.337a3.587 3.587 0 00-1.69-.408c-.519 0-.946.099-1.28.297-.333.198-.5.508-.501.928 0 .433.173.74.52.919.347.18.773.31 1.28.39.508.08 1.015.183 1.523.306.507.123.934.343 1.28.66.347.314.521.8.521 1.456z" fill="#15141A" class="logo-text" /><path d="M16 0C7.2 0 0 7.2 0 16s7.2 16 16 16 16-7.2 16-16S24.8 0 16 0zm10.48 16.32c-.08.24-.24.4-.32.64a.625.625 0 01-.32.32c-.16.08-.32.08-.48.08-.16 0-.24 0-.32.08-.32.24-.64.4-.96.56l-.72.24c-.24 0-.48 0-.72-.16-.72-.32-1.6-.48-2.4-.48a3.21 3.21 0 00-1.2.24c-.4.16-.72.4-.96.72-.24.32-.4.64-.48.96-.24.72-.48 4.88-.48 5.92 0 0-3.92-.8-7.68-4.64l.96-2.56H7.44l2.16-2.32H5.84l2.24-2.32h-3.6l4-4.32c1.2-1.2 2.72-2.08 4.4-2.48 1.6-.24 2-.16 2.96.16l.56.16.16.08.72.24c.48.16.96.16 1.36 0 .64-.16 1.28-.08 1.84.24.24.16.48.32.64.56.16.24.24.56.32.8 0 .24.08.48.24.72.145.225.335.415.56.56.64.4 1.36.72 2.08.96.52.18 1.028.393 1.52.64.26.085.485.254.64.48.16.16.24.4.24.64 0 .48.08.88.08 1.36.08.8 0 1.36-.32 1.92z" fill="url(#paint0_linear)"/><path d="M16 0C7.2 0 0 7.2 0 16s7.2 16 16 16 16-7.2 16-16S24.8 0 16 0zm10.48 16.32c-.08.24-.24.4-.32.64a.625.625 0 01-.32.32c-.16.08-.32.08-.48.08-.16 0-.24 0-.32.08-.32.24-.64.4-.96.56l-.72.24c-.24 0-.48 0-.72-.16-.72-.32-1.6-.48-2.4-.48a3.21 3.21 0 00-1.2.24c-.4.16-.72.4-.96.72-.24.32-.4.64-.48.96-.24.72-.48 4.88-.48 5.92 0 0-3.92-.8-7.68-4.64l.96-2.56H7.44l2.16-2.32H5.84l2.24-2.32h-3.6l4-4.32c1.2-1.2 2.72-2.08 4.4-2.48 1.6-.24 2-.16 2.96.16l.56.16.16.08.72.24c.48.16.96.16 1.36 0 .64-.16 1.28-.08 1.84.24.24.16.48.32.64.56.16.24.24.56.32.8 0 .24.08.48.24.72.145.225.335.415.56.56.64.4 1.36.72 2.08.96.52.18 1.028.393 1.52.64.26.085.485.254.64.48.16.16.24.4.24.64 0 .48.08.88.08 1.36.08.8 0 1.36-.32 1.92z" fill="#7B61FF" fill-opacity=".5"/></g><defs><linearGradient id="paint0_linear" x1="-5" y1="32" x2="35" y2="32" gradientUnits="userSpaceOnUse"><stop stop-color="#B3FFE3"/><stop offset="1" stop-color="#80EBFF"/></linearGradient><clipPath id="clip0"><path fill="#fff" d="M0 0h113.595v32H0z"/></clipPath></defs></svg>
