<svg width="48" height="17" viewBox="0 0 48 17" fill="none" xmlns="http://www.w3.org/2000/svg" aria-labelledby="mdn-footer-logo-svg">
<title id="mdn-footer-logo-svg">MDN logo</title>
<path d="M20.04 16.512H15.504V10.416C15.504 9.488 15.344 8.824 15.024 8.424C14.72 8.024 14.264 7.824 13.656 7.824C12.92 7.824 12.384 8.064 12.048 8.544C11.728 9.024 11.568 9.64 11.568 10.392V14.184H13.008V16.512H8.472V10.416C8.472 9.488 8.312 8.824 7.992 8.424C7.688 8.024 7.232 7.824 6.624 7.824C5.872 7.824 5.336 8.064 5.016 8.544C4.696 9.024 4.536 9.64 4.536 10.392V14.184H6.6V16.512H0V14.184H1.44V8.04H0.024V5.688H4.536V7.32C5.224 6.088 6.32 5.472 7.824 5.472C8.608 5.472 9.328 5.664 9.984 6.048C10.64 6.432 11.096 7.016 11.352 7.8C11.992 6.248 13.168 5.472 14.88 5.472C15.856 5.472 16.72 5.776 17.472 6.384C18.224 6.992 18.6 7.936 18.6 9.216V14.184H20.04V16.512Z" fill="currentColor"/>
<path d="M33.6714 16.512H29.1354V14.496C28.8314 15.12 28.3834 15.656 27.7914 16.104C27.1994 16.536 26.4154 16.752 25.4394 16.752C24.0154 16.752 22.8954 16.264 22.0794 15.288C21.2634 14.312 20.8554 12.984 20.8554 11.304C20.8554 9.688 21.2554 8.312 22.0554 7.176C22.8554 6.04 24.0634 5.472 25.6794 5.472C26.5594 5.472 27.2794 5.648 27.8394 6C28.3994 6.352 28.8314 6.8 29.1354 7.344V2.352H26.9754V0H32.2314V14.184H33.6714V16.512ZM29.1354 11.04V10.776C29.1354 9.88 28.8954 9.184 28.4154 8.688C27.9514 8.176 27.3674 7.92 26.6634 7.92C25.9754 7.92 25.3674 8.176 24.8394 8.688C24.3274 9.2 24.0714 10.008 24.0714 11.112C24.0714 12.152 24.3114 12.944 24.7914 13.488C25.2714 14.032 25.8394 14.304 26.4954 14.304C27.3114 14.304 27.9514 13.96 28.4154 13.272C28.8954 12.584 29.1354 11.84 29.1354 11.04Z" fill="currentColor"/>
<path d="M47.9589 16.512H41.9829V14.184H43.4229V10.416C43.4229 9.488 43.2629 8.824 42.9429 8.424C42.6389 8.024 42.1829 7.824 41.5749 7.824C40.8389 7.824 40.2709 8.056 39.8709 8.52C39.4709 8.968 39.2629 9.56 39.2469 10.296V14.184H40.6869V16.512H34.7109V14.184H36.1509V8.04H34.5909V5.688H39.2469V7.344C39.9669 6.096 41.1269 5.472 42.7269 5.472C43.7509 5.472 44.6389 5.776 45.3909 6.384C46.1429 6.992 46.5189 7.936 46.5189 9.216V14.184H47.9589V16.512Z" fill="currentColor"/>
</svg>
