<svg width="150" height="32" viewBox="0 0 150 32" fill="none" xmlns="http://www.w3.org/2000/svg">
<path d="M0 28H3.60948L9.3913 4H5.87884L0 28Z" fill="var(--text-link)"/>
<path d="M12.8914 28H16.5005L22.2827 4H18.7696L12.8914 28Z" fill="var(--text-link)"/>
<path d="M9.39136 28H12.8914V4H9.46809L9.39136 28Z" fill="var(--text-link)"/>
<path d="M25.7827 4H22.2827V28H25.7827V4Z" fill="var(--text-link)"/>
<path d="M33.7827 9.46021V21.0966H35.4532V12.6704H35.5611L38.9929 21.0795H40.3793L43.8111 12.6761H43.9191V21.0966H45.5895V9.46021H43.4589L39.7543 18.5057H39.6179L35.9134 9.46021H33.7827Z" fill="var(--text-primary)"/>
<path d="M51.1091 21.0966C54.6546 21.0966 56.7057 18.8977 56.7057 15.2613C56.7057 11.642 54.6546 9.46021 51.2285 9.46021H47.3421V21.0966H51.1091ZM49.0978 19.5625V10.9943H51.1205C53.666 10.9943 54.9785 12.517 54.9785 15.2613C54.9785 18.017 53.666 19.5625 51.0125 19.5625H49.0978Z" fill="var(--text-primary)"/>
<path d="M67.481 9.46021H65.7424V18.0057H65.6344L59.714 9.46021H58.089V21.0966H59.8446V12.5625H59.9526L65.8674 21.0966H67.481V9.46021Z" fill="var(--text-primary)"/>
<path d="M74.9549 21.0966H76.7276L79.1765 12.3807H79.2674L81.7162 21.0966H83.4833L86.7162 9.46021H84.864L82.6026 18.4773H82.4946L80.1367 9.46021H78.3071L75.9492 18.4716H75.8412L73.5742 9.46021H71.7276L74.9549 21.0966Z" fill="var(--text-primary)"/>
<path d="M90.2827 21.2727C92.1861 21.2727 93.5327 20.3352 93.9191 18.9148L92.3111 18.625C92.0043 19.4488 91.2657 19.8693 90.2998 19.8693C88.8452 19.8693 87.8679 18.9261 87.8225 17.2443H94.027V16.642C94.027 13.4886 92.1407 12.2557 90.1634 12.2557C87.7316 12.2557 86.1293 14.1079 86.1293 16.7898C86.1293 19.5 87.7089 21.2727 90.2827 21.2727ZM87.8282 15.9716C87.8964 14.7329 88.7941 13.6591 90.1748 13.6591C91.4929 13.6591 92.3566 14.6363 92.3623 15.9716H87.8282Z" fill="var(--text-primary)"/>
<path d="M95.2483 21.0966H96.9074V19.7386H97.0495C97.3563 20.2954 97.9813 21.267 99.5722 21.267C101.686 21.267 103.22 19.5738 103.22 16.75C103.22 13.9204 101.663 12.2557 99.5552 12.2557C97.9358 12.2557 97.3506 13.2443 97.0495 13.7841H96.9472V9.46021H95.2483V21.0966ZM96.9131 16.7329C96.9131 14.9091 97.7086 13.6988 99.1915 13.6988C100.731 13.6988 101.504 15 101.504 16.7329C101.504 18.4829 100.709 19.8182 99.1915 19.8182C97.7313 19.8182 96.9131 18.5682 96.9131 16.7329Z" fill="var(--text-primary)"/>
<path d="M111.665 21.0966C115.211 21.0966 117.262 18.8977 117.262 15.2613C117.262 11.642 115.211 9.46021 111.785 9.46021H107.898V21.0966H111.665ZM109.654 19.5625V10.9943H111.677C114.222 10.9943 115.535 12.517 115.535 15.2613C115.535 18.017 114.222 19.5625 111.569 19.5625H109.654Z" fill="var(--text-primary)"/>
<path d="M122.185 21.2727C124.645 21.2727 126.253 19.4716 126.253 16.7727C126.253 14.0568 124.645 12.2557 122.185 12.2557C119.725 12.2557 118.117 14.0568 118.117 16.7727C118.117 19.4716 119.725 21.2727 122.185 21.2727ZM122.191 19.8466C120.583 19.8466 119.833 18.4432 119.833 16.767C119.833 15.0966 120.583 13.6761 122.191 13.6761C123.787 13.6761 124.537 15.0966 124.537 16.767C124.537 18.4432 123.787 19.8466 122.191 19.8466Z" fill="var(--text-primary)"/>
<path d="M131.026 21.2727C133.088 21.2727 134.423 20.0341 134.611 18.3352H132.957C132.742 19.2784 132.009 19.8352 131.037 19.8352C129.599 19.8352 128.673 18.6363 128.673 16.7329C128.673 14.8636 129.617 13.6875 131.037 13.6875C132.117 13.6875 132.776 14.3693 132.957 15.1875H134.611C134.429 13.4261 132.992 12.2557 131.009 12.2557C128.548 12.2557 126.957 14.1079 126.957 16.7727C126.957 19.4034 128.492 21.2727 131.026 21.2727Z" fill="var(--text-primary)"/>
<path d="M142.167 14.5C141.815 13.142 140.753 12.2557 138.866 12.2557C136.895 12.2557 135.497 13.2954 135.497 14.8409C135.497 16.0795 136.247 16.9034 137.883 17.267L139.361 17.5909C140.201 17.7784 140.594 18.1534 140.594 18.6988C140.594 19.375 139.872 19.9034 138.758 19.9034C137.741 19.9034 137.088 19.4659 136.883 18.6079L135.241 18.8579C135.525 20.4034 136.809 21.2727 138.77 21.2727C140.878 21.2727 142.338 20.1534 142.338 18.5738C142.338 17.3409 141.554 16.5795 139.951 16.2102L138.565 15.892C137.605 15.6648 137.19 15.3409 137.196 14.75C137.19 14.0795 137.917 13.6023 138.883 13.6023C139.94 13.6023 140.429 14.1875 140.628 14.7727L142.167 14.5Z" fill="var(--text-primary)"/>
<path d="M149.639 21.0966H142.247V22.5398H149.639V21.0966Z" fill="var(--text-primary)"/>
</svg>
