<svg id="mdn-logo" xmlns="http://www.w3.org/2000/svg" viewBox="0 0 361 104.2" role="img">
  <style type="text/css">
    .logo-m {
      fill: var(--text-link);
    }
    .logo-text {
      fill: var(--text-primary);
    }
  </style>
  <path
    class="logo-text"
    d="M197.56 73.17h-17.1v-5.5h3.8v-15.8c0-3.7-.7-6.3-2.1-7.9-1.4-1.6-3.3-2.3-5.7-2.3-3.2 0-5.6 1.1-7.2 3.4s-2.4 4.6-2.5 6.9v15.6h6v5.5h-17.1v-5.5h3.8v-15.7c0-3.8-.7-6.4-2.1-7.9-1.4-1.5-3.3-2.3-5.6-2.3-3.2 0-5.5 1.1-7.2 3.3-1.6 2.2-2.4 4.5-2.5 6.9v15.8h6.9v5.5h-20.2v-5.5h6v-25.3h-6.1v-5.6h13.4v6.4c1.2-2.1 2.7-3.8 4.7-5.2 2-1.3 4.4-2 7.3-2s5.3.7 7.5 2.1c2.2 1.4 3.7 3.5 4.5 6.4 1.1-2.5 2.7-4.5 4.9-6.1s4.8-2.4 7.9-2.4c3.5 0 6.5 1.1 8.9 3.3s3.7 5.6 3.7 10.2v18.2h6.1v5.5ZM240.06 73.17h-13.2v-7.2c-1.2 2.2-2.8 4.1-4.9 5.6-2.1 1.6-4.8 2.4-8.3 2.4-4.8 0-8.7-1.6-11.6-4.9-2.9-3.2-4.3-7.7-4.3-13.3 0-5 1.3-9.6 4-13.7 2.6-4.1 6.9-6.2 12.8-6.2s9.8 2.2 12.3 6.5v-19.7h-8.6v-5.6h15.8v50.6h6v5.5Zm-13.3-16.8v-4.4c-.1-3-1.2-5.5-3.2-7.3s-4.4-2.8-7.2-2.8c-3.6 0-6.3 1.3-8.2 3.9-1.9 2.6-2.8 5.8-2.8 9.6 0 4.1 1 7.3 3 9.5s4.5 3.3 7.4 3.3c3.2 0 5.8-1.3 7.8-3.8 2.1-2.6 3.1-5.3 3.2-8ZM288.26 73.17h-19.3v-5.5h6v-15.8c0-3.7-.7-6.3-2.2-7.9-1.4-1.6-3.4-2.3-5.7-2.3-3.1 0-5.6 1-7.4 3-1.8 2-2.8 4.4-2.9 7v15.9h6v5.5h-19.3v-5.5h6v-25.2h-6.2v-5.6h13.6v6.2c2.6-4.6 6.8-6.9 12.7-6.9 3.6 0 6.7 1.1 9.2 3.3s3.7 5.6 3.7 10.2v18.2h6v5.4h-.2Z"
  />
  <g class="logo-m">
    <path d="m42.01.17-28.6 92.1H1.71L30.21.17h11.8Z" />
    <path
      d="M52.41.17v92.1h-10.4V.17h10.4ZM92.71.17l-28.5 92.1h-11.7L81.01.17h11.7Z"
    />
    <path d="M103.11.17v92.1h-10.4V.17h10.4Z" />
  </g>
  <path class="logo-m" d="M294 94.97h67v8.8h-67v-8.8Z" />
</svg>
