<svg xmlns="http://www.w3.org/2000/svg" width="137" height="32" fill="none" viewBox="0 0 267.431 62.607"><path fill="currentColor" d="m13.913 23.056 5.33 25.356h2.195l5.33-25.356h14.267v38.976h-7.578V29.694h-2.194l-7.264 32.337h-7.343L9.418 29.694H7.223v32.337H-.354V23.056Zm47.137 9.123c9.12 0 14.423 5.385 14.423 15.214s-5.33 15.214-14.423 15.214c-9.12 0-14.423-5.385-14.423-15.214 0-9.855 5.304-15.214 14.423-15.214m0 24.363c4.285 0 6.428-2.196 6.428-7.032v-4.287c0-4.836-2.143-7.032-6.428-7.032s-6.428 2.196-6.428 7.032v4.287c0 4.836 2.143 7.032 6.428 7.032m18.473-.157 15.47-18.01h-15.26v-5.647h24.352v5.646L88.616 56.385h15.704v5.646H79.523Zm29.318-23.657h11.183V62.03h-7.578V38.375h-3.632v-5.646zm3.605-9.672h7.578v5.646h-7.578zm13.17 0h11.21v38.976h-7.578v-33.33h-3.632zm16.801 0H153.6v38.976h-7.577v-33.33h-3.632v-5.646zm29.03 9.123c4.442 0 7.394 2.143 8.231 5.881h2.194v-5.332h9.276v5.646h-3.632v18.011h3.632v5.646h-4.442c-3.135 0-4.834-1.699-4.834-4.836V56.7h-2.194c-.81 3.738-3.789 5.881-8.23 5.881-6.978 0-11.916-5.829-11.916-15.214 0-9.384 4.938-15.187 11.915-15.187m2.3 24.363c4.284 0 6.192-2.196 6.192-7.032v-4.287c0-4.836-1.908-7.032-6.193-7.032-4.18 0-6.193 2.196-6.193 7.032v4.287c0 4.836 2.012 7.032 6.193 7.032m48.34 5.489h-7.577V0h7.577zm6.585-29.643h32.165v-2.196l-21.295-7.634v-6.143l21.295-7.633V6.588h-25.345V0h32.165v12.522l-17.35 5.881V20.6l17.35 5.882v12.521h-38.985zm0-25.801h6.794v6.796h-6.794z"/></svg>
