<svg width="112" height="32" fill="none" role="img" xmlns="http://www.w3.org/2000/svg">
  <title id="mozilla-footer-logo-svg">Mozilla logo</title>
  <path d="M41.753 14.218c-2.048 0-3.324 1.522-3.324 4.157 0 2.423 1.119 4.286 3.29 4.286 2.082 0 3.447-1.678 3.447-4.347 0-2.826-1.522-4.096-3.413-4.096Zm54.89 7.044c0 .901.437 1.618 1.645 1.618 1.427 0 2.949-1.024 3.044-3.352-.649-.095-1.365-.185-2.02-.185-1.426-.005-2.668.397-2.668 1.92Z" fill="currentColor" />
  <path d="M0 0v32h111.908V0H0Zm32.56 25.426h-5.87v-7.884c0-2.423-.806-3.352-2.39-3.352-1.924 0-2.702 1.365-2.702 3.324v4.868h1.864v3.044h-5.864v-7.884c0-2.423-.806-3.352-2.39-3.352-1.924 0-2.702 1.365-2.702 3.324v4.868h2.669v3.044H6.642v-3.044h1.863v-7.918H6.642V11.42h5.864v2.11c.839-1.489 2.3-2.39 4.252-2.39 2.02 0 3.878.963 4.566 3.01.778-1.862 2.361-3.01 4.566-3.01 2.512 0 4.812 1.522 4.812 4.84v6.402h1.863v3.044h-.005Zm9.036.307c-4.314 0-7.296-2.635-7.296-7.106 0-4.096 2.484-7.481 7.514-7.481s7.481 3.38 7.481 7.29c0 4.472-3.228 7.297-7.699 7.297Zm22.578-.307H51.942l-.403-2.11 7.7-8.846h-4.376l-.621 2.17-2.888-.313.498-4.907h12.294l.313 2.11-7.767 8.852h4.533l.654-2.172 3.167.308-.872 4.908Zm7.99 0h-4.191v-5.03h4.19v5.03Zm0-8.976h-4.191v-5.03h4.19v5.03Zm2.618 8.976 6.054-21.358h3.945l-6.054 21.358h-3.945Zm8.136 0 6.048-21.358h3.945l-6.054 21.358h-3.939Zm21.486.307c-1.863 0-2.887-1.085-3.072-2.792-.805 1.427-2.232 2.792-4.498 2.792-2.02 0-4.314-1.085-4.314-4.006 0-3.447 3.323-4.253 6.518-4.253.778 0 1.584.034 2.3.124v-.465c0-1.427-.034-3.133-2.3-3.133-.84 0-1.488.061-2.143.402l-.453 1.578-3.195-.34.549-3.224c2.45-.996 3.692-1.27 5.992-1.27 3.01 0 5.556 1.55 5.556 4.75v6.083c0 .805.314 1.085.963 1.085.184 0 .375-.034.587-.095l.034 2.11a5.432 5.432 0 0 1-2.524.654Z" fill="currentColor" />
</svg>
