<svg version="1.1" xmlns="http://www.w3.org/2000/svg" viewBox="0 0 512 512" fill="white">
<path d="M11.9,39.1C32.9,38.6,45,26.5,45.6,5.5c0.8,21,12.6,32.9,33.7,33.6c-21.1,0.7-32.9,12.6-33.7,33.5
	C45,51.6,32.9,39.8,11.9,39.1z"/>
<path d="M33.5,121.3c11.3-0.3,18.1-7.1,18.5-18.4c0.3,11.3,7.2,18.1,18.4,18.4c-11.3,0.3-18.1,7.1-18.5,18.4
	C51.6,128.5,44.8,121.6,33.5,121.3z"/>
<path d="M104.3,78.1c-0.3-4.3-2.4-6.6-7-6.9c4,0.1,7.1-2.9,7-6.9c0,3.9,2.9,6.7,6.7,6.9C107.1,71.3,104.4,74.2,104.3,78.1z"/>
<path d="M70.5,60.7c0.2,2,1.3,3.1,3.3,3.3c-1.8,0.1-3.2,1.4-3.3,3.2C70.4,65.4,69,64,67.2,64C69.2,63.8,70.3,62.8,70.5,60.7z"/>
<path d="M35.4,435.8c20.9-0.5,33.1-12.7,33.7-33.6c0.8,21,12.6,32.9,33.7,33.6c-21.1,0.7-32.9,12.6-33.7,33.5
	C68.4,448.3,56.3,436.4,35.4,435.8z"/>
<path d="M213.2,28.4c11.3-0.3,18.1-7.1,18.5-18.4c0.3,11.3,7.2,18.1,18.4,18.4c-11.3,0.3-18.1,7.1-18.5,18.4
	C231.4,35.5,224.6,28.7,213.2,28.4z"/>
<path d="M358.8,262.9c-0.3-4.3-2.4-6.6-7-6.9c4,0.1,7.1-2.9,7-6.9c0,3.9,2.9,6.7,6.7,6.9C361.7,256.1,358.9,259,358.8,262.9z"/>
<path d="M140.5,179.9c0.2,2,1.3,3.1,3.3,3.3c-1.8,0.1-3.2,1.4-3.3,3.2c-0.1-1.8-1.5-3.2-3.3-3.2C139.2,183,140.3,182,140.5,179.9z"
	/>
<path d="M245.1,448.1c20.9-0.5,33.1-12.7,33.7-33.6c0.8,21,12.6,32.9,33.7,33.6c-21.1,0.7-32.9,12.6-33.7,33.5
	C278.1,460.6,266.1,448.8,245.1,448.1z"/>
<path d="M117,213.6c11.3-0.3,18.1-7.1,18.5-18.4c0.3,11.3,7.2,18.1,18.4,18.4c-11.3,0.3-18.1,7.1-18.5,18.4
	C135.1,220.8,128.3,213.9,117,213.6z"/>
<path d="M220.6,180.3c-0.3-4.3-2.4-6.6-7-6.9c4,0.1,7.1-2.9,7-6.9c0,3.9,2.9,6.7,6.7,6.9C223.5,173.5,220.8,176.4,220.6,180.3z"/>
<path d="M190.6,201.5c0.2,2,1.3,3.1,3.3,3.3c-1.8,0.1-3.2,1.4-3.3,3.2c-0.1-1.8-1.5-3.2-3.3-3.2
	C189.2,204.6,190.4,203.6,190.6,201.5z"/>
<path d="M414.2,396.1c20.9-0.5,33.1-12.7,33.7-33.6c0.8,21,12.6,32.9,33.7,33.6c-21.1,0.7-32.9,12.6-33.7,33.5
	C447.2,408.6,435.2,396.8,414.2,396.1z"/>
<path d="M122.2,365.8c11.3-0.3,18.1-7.1,18.5-18.4c0.3,11.3,7.2,18.1,18.4,18.4c-11.3,0.3-18.1,7.1-18.5,18.4
	C140.3,373,133.5,366.1,122.2,365.8z"/>
<path d="M470.2,38.4c-0.3-4.3-2.4-6.6-7-6.9c4,0.1,7.1-2.9,7-6.9c0,3.9,2.9,6.7,6.7,6.9C473,31.7,470.3,34.5,470.2,38.4z"/>
<path d="M92.3,332c0.2,2,1.3,3.1,3.3,3.3c-1.8,0.1-3.2,1.4-3.3,3.2c-0.1-1.8-1.5-3.2-3.3-3.2C90.9,335.1,92.1,334,92.3,332z"/>
<path d="M263.9,89.5c20.9-0.5,33.1-12.7,33.7-33.6c0.8,21,12.6,32.9,33.7,33.6c-21.1,0.7-32.9,12.6-33.7,33.5
	C296.9,102,284.8,90.2,263.9,89.5z"/>
<path d="M231.3,207.2c11.3-0.3,18.1-7.1,18.5-18.4c0.3,11.3,7.2,18.1,18.4,18.4c-11.3,0.3-18.1,7.1-18.5,18.4
	C249.5,214.3,242.7,207.4,231.3,207.2z"/>
<path d="M425.5,136.7c-0.3-4.3-2.4-6.6-7-6.9c4,0.1,7.1-2.9,7-6.9c0,3.9,2.9,6.7,6.7,6.9C428.3,129.9,425.6,132.8,425.5,136.7z"/>
<path d="M313.5,300.7c0.2,2,1.3,3.1,3.3,3.3c-1.8,0.1-3.2,1.4-3.3,3.2c-0.1-1.8-1.5-3.2-3.3-3.2
	C312.2,303.8,313.4,302.7,313.5,300.7z"/>
<path d="M353.4,335.9c20.9-0.5,33.1-12.7,33.7-33.6c0.8,21,12.6,32.9,33.7,33.6c-21.1,0.7-32.9,12.6-33.7,33.5
	C386.4,348.4,374.4,336.5,353.4,335.9z"/>
<path d="M140.8,78.5c11.3-0.3,18.1-7.1,18.5-18.4c0.3,11.3,7.2,18.1,18.4,18.4c-11.3,0.3-18.1,7.1-18.5,18.4
	C159,85.6,152.2,78.7,140.8,78.5z"/>
<path d="M331.1,272.6c-0.3-4.3-2.4-6.6-7-6.9c4,0.1,7.1-2.9,7-6.9c0,3.9,2.9,6.7,6.7,6.9C333.9,265.8,331.2,268.7,331.1,272.6z"/>
<path d="M194.1,167.6c0.2,2,1.3,3.1,3.3,3.3c-1.8,0.1-3.2,1.4-3.3,3.2c-0.1-1.8-1.5-3.2-3.3-3.2
	C192.7,170.7,193.9,169.6,194.1,167.6z"/>
<path d="M129.8,259.6c20.9-0.5,33.1-12.7,33.7-33.6c0.8,21,12.6,32.9,33.7,33.6c-21.1,0.7-32.9,12.6-33.7,33.5
	C162.8,272.1,150.8,260.3,129.8,259.6z"/>
<path d="M15.4,243.8c11.3-0.3,18.1-7.1,18.5-18.4c0.3,11.3,7.2,18.1,18.4,18.4c-11.3,0.3-18.1,7.1-18.5,18.4
	C33.6,251,26.8,244.1,15.4,243.8z"/>
<path d="M364.1,509c-0.3-4.3-2.4-6.6-7-6.9c4,0.1,7.1-2.9,7-6.9c0,3.9,2.9,6.7,6.7,6.9C367,502.2,364.2,505.1,364.1,509z"/>
<path d="M123.7,253.7c0.2,2,1.3,3.1,3.3,3.3c-1.8,0.1-3.2,1.4-3.3,3.2c-0.1-1.8-1.5-3.2-3.3-3.2
	C122.3,256.8,123.5,255.8,123.7,253.7z"/>
<path d="M208.5,106.8c20.9-0.5,33.1-12.7,33.7-33.6c0.8,21,12.6,32.9,33.7,33.6c-21.1,0.7-32.9,12.6-33.7,33.5
	C241.5,119.3,229.5,107.5,208.5,106.8z"/>
<path d="M395.8,37.2c11.3-0.3,18.1-7.1,18.5-18.4c0.3,11.3,7.2,18.1,18.4,18.4c-11.3,0.3-18.1,7.1-18.5,18.4
	C414,44.4,407.2,37.5,395.8,37.2z"/>
<path d="M115,482.3c-0.3-4.3-2.4-6.6-7-6.9c4,0.1,7.1-2.9,7-6.9c0,3.9,2.9,6.7,6.7,6.9C117.8,475.5,115.1,478.4,115,482.3z"/>
<path d="M463.4,114.6c0.2,2,1.3,3.1,3.3,3.3c-1.8,0.1-3.2,1.4-3.3,3.2c-0.1-1.8-1.5-3.2-3.3-3.2
	C462.1,117.7,463.2,116.7,463.4,114.6z"/>
<path d="M235.9,284.7c20.9-0.5,33.1-12.7,33.7-33.6c0.8,21,12.6,32.9,33.7,33.6c-21.1,0.7-32.9,12.6-33.7,33.5
	C268.9,297.2,256.8,285.4,235.9,284.7z"/>
<path d="M401.1,190.3c11.3-0.3,18.1-7.1,18.5-18.4c0.3,11.3,7.2,18.1,18.4,18.4c-11.3,0.3-18.1,7.1-18.5,18.4
	C419.2,197.5,412.4,190.6,401.1,190.3z"/>
<path d="M12.4,291.2c-0.3-4.3-2.4-6.6-7-6.9c4,0.1,7.1-2.9,7-6.9c0,3.9,2.9,6.7,6.7,6.9C15.3,284.4,12.5,287.3,12.4,291.2z"/>
<path d="M370.1,297.6c0.2,2,1.3,3.1,3.3,3.3c-1.8,0.1-3.2,1.4-3.3,3.2c-0.1-1.8-1.5-3.2-3.3-3.2
	C368.7,300.7,369.9,299.7,370.1,297.6z"/>
<path d="M417.1,73c20.9-0.5,33.1-12.7,33.7-33.6c0.8,21,12.6,32.9,33.7,33.6c-21.1,0.7-32.9,12.6-33.7,33.5
	C450.1,85.5,438,73.7,417.1,73z"/>
<path d="M351.2,31.2c11.3-0.3,18.1-7.1,18.5-18.4c0.3,11.3,7.2,18.1,18.4,18.4c-11.3,0.3-18.1,7.1-18.5,18.4
	C369.3,38.3,362.5,31.4,351.2,31.2z"/>
<path d="M88.3,179.2c-0.3-4.3-2.4-6.6-7-6.9c4,0.1,7.1-2.9,7-6.9c0,3.9,2.9,6.7,6.7,6.9C91.1,172.4,88.4,175.3,88.3,179.2z"/>
<path d="M436.2,337.7c0.2,2,1.3,3.1,3.3,3.3c-1.8,0.1-3.2,1.4-3.3,3.2c-0.1-1.8-1.5-3.2-3.3-3.2C434.8,340.8,436,339.7,436.2,337.7z
	"/>
<path d="M322.4,196.3c20.9-0.5,33.1-12.7,33.7-33.6c0.8,21,12.6,32.9,33.7,33.6c-21.1,0.7-32.9,12.6-33.7,33.5
	C355.4,208.8,343.3,197,322.4,196.3z"/>
<path d="M60.6,195.8c11.3-0.3,18.1-7.1,18.5-18.4c0.3,11.3,7.2,18.1,18.4,18.4c-11.3,0.3-18.1,7.1-18.5,18.4
	C78.7,203,72,196.1,60.6,195.8z"/>
<path d="M180.6,148.3c-0.3-4.3-2.4-6.6-7-6.9c4,0.1,7.1-2.9,7-6.9c0,3.9,2.9,6.7,6.7,6.9C183.5,141.5,180.8,144.4,180.6,148.3z"/>
<path d="M470.5,256.4c0.2,2,1.3,3.1,3.3,3.3c-1.8,0.1-3.2,1.4-3.3,3.2c-0.1-1.8-1.5-3.2-3.3-3.2
	C469.2,259.5,470.3,258.5,470.5,256.4z"/>
<path d="M419.5,449.9c-0.3-4.3-2.4-6.6-7-6.9c4,0.1,7.1-2.9,7-6.9c0,3.9,2.9,6.7,6.7,6.9C422.4,443.2,419.6,446,419.5,449.9z"/>
<path d="M279.2,356.8c11.3-0.3,18.1-7.1,18.5-18.4c0.3,11.3,7.2,18.1,18.4,18.4c-11.3,0.3-18.1,7.1-18.5,18.4
	C297.4,363.9,290.6,357.1,279.2,356.8z"/>
<path d="M484,341.3c0.2,2,1.3,3.1,3.3,3.3c-1.8,0.1-3.2,1.4-3.3,3.2c-0.1-1.8-1.5-3.2-3.3-3.2C482.6,344.3,483.8,343.3,484,341.3z"
	/>
<path d="M93.8,127.4c20.9-0.5,33.1-12.7,33.7-33.6c0.8,21,12.6,32.9,33.7,33.6c-21.1,0.7-32.9,12.6-33.7,33.5
	C126.8,139.9,114.7,128.1,93.8,127.4z"/>
<path d="M312.5,161.9c-0.3-4.3-2.4-6.6-7-6.9c4,0.1,7.1-2.9,7-6.9c0,3.9,2.9,6.7,6.7,6.9C315.4,155.2,312.6,158,312.5,161.9z"/>
<path d="M190.2,380.8c11.3-0.3,18.1-7.1,18.5-18.4c0.3,11.3,7.2,18.1,18.4,18.4c-11.3,0.3-18.1,7.1-18.5,18.4
	C208.4,387.9,201.6,381.1,190.2,380.8z"/>
<path d="M200,313.3c0.2,2,1.3,3.1,3.3,3.3c-1.8,0.1-3.2,1.4-3.3,3.2c-0.1-1.8-1.5-3.2-3.3-3.2C198.6,316.3,199.8,315.3,200,313.3z"
	/>
<path d="M121.8,462.4c20.9-0.5,33.1-12.7,33.7-33.6c0.8,21,12.6,32.9,33.7,33.6c-21.1,0.7-32.9,12.6-33.7,33.5
	C154.8,474.9,142.7,463.1,121.8,462.4z"/>
<path d="M432.4,293c11.3-0.3,18.1-7.1,18.5-18.4c0.3,11.3,7.2,18.1,18.4,18.4c-11.3,0.3-18.1,7.1-18.5,18.4
	C450.5,300.2,443.8,293.3,432.4,293z"/>
<path d="M432.4,472c11.3-0.3,18.1-7.1,18.5-18.4c0.3,11.3,7.2,18.1,18.4,18.4c-11.3,0.3-18.1,7.1-18.5,18.4
	C450.5,479.2,443.8,472.3,432.4,472z"/>
<path d="M352.4,418c11.3-0.3,18.1-7.1,18.5-18.4c0.3,11.3,7.2,18.1,18.4,18.4c-11.3,0.3-18.1,7.1-18.5,18.4
	C370.5,425.2,363.8,418.3,352.4,418z"/>
<path d="M458.4,177c11.3-0.3,18.1-7.1,18.5-18.4c0.3,11.3,7.2,18.1,18.4,18.4c-11.3,0.3-18.1,7.1-18.5,18.4
	C476.5,184.2,469.8,177.3,458.4,177z"/>
<path d="M387.4,260c11.3-0.3,18.1-7.1,18.5-18.4c0.3,11.3,7.2,18.1,18.4,18.4c-11.3,0.3-18.1,7.1-18.5,18.4
	C405.5,267.2,398.8,260.3,387.4,260z"/>
<path d="M77.4,291c11.3-0.3,18.1-7.1,18.5-18.4c0.3,11.3,7.2,18.1,18.4,18.4c-11.3,0.3-18.1,7.1-18.5,18.4
	C95.5,298.2,88.8,291.3,77.4,291z"/>
<path d="M345.4,115c11.3-0.3,18.1-7.1,18.5-18.4c0.3,11.3,7.2,18.1,18.4,18.4c-11.3,0.3-18.1,7.1-18.5,18.4
	C363.5,122.2,356.8,115.3,345.4,115z"/>
<path d="M17.5,89.9c-0.3-4.3-2.4-6.6-7-6.9c4,0.1,7.1-2.9,7-6.9c0,3.9,2.9,6.7,6.7,6.9C20.3,83.2,17.6,86,17.5,89.9z"/>
<path d="M319.9,402.3c0.2,2,1.3,3.1,3.3,3.3c-1.8,0.1-3.2,1.4-3.3,3.2c-0.1-1.8-1.5-3.2-3.3-3.2
	C318.6,405.3,319.7,404.3,319.9,402.3z"/>
<path d="M143.5,31.9c-0.3-4.3-2.4-6.6-7-6.9c4,0.1,7.1-2.9,7-6.9c0,3.9,2.9,6.7,6.7,6.9C146.3,25.2,143.6,28,143.5,31.9z"/>
<path d="M300.9,202.3c0.2,2,1.3,3.1,3.3,3.3c-1.8,0.1-3.2,1.4-3.3,3.2c-0.1-1.8-1.5-3.2-3.3-3.2
	C299.6,205.3,300.7,204.3,300.9,202.3z"/>
<path d="M319.5,498.9c-0.3-4.3-2.4-6.6-7-6.9c4,0.1,7.1-2.9,7-6.9c0,3.9,2.9,6.7,6.7,6.9C322.3,492.2,319.6,495,319.5,498.9z"/>
<path d="M222.9,237.3c0.2,2,1.3,3.1,3.3,3.3c-1.8,0.1-3.2,1.4-3.3,3.2c-0.1-1.8-1.5-3.2-3.3-3.2
	C221.6,240.3,222.7,239.3,222.9,237.3z"/>
<path d="M143.5,310.9c-0.3-4.3-2.4-6.6-7-6.9c4,0.1,7.1-2.9,7-6.9c0,3.9,2.9,6.7,6.7,6.9C146.3,304.2,143.6,307,143.5,310.9z"/>
<path d="M258.9,372.3c0.2,2,1.3,3.1,3.3,3.3c-1.8,0.1-3.2,1.4-3.3,3.2c-0.1-1.8-1.5-3.2-3.3-3.2
	C257.6,375.3,258.7,374.3,258.9,372.3z"/>
<path d="M127.5,427.9c-0.3-4.3-2.4-6.6-7-6.9c4,0.1,7.1-2.9,7-6.9c0,3.9,2.9,6.7,6.7,6.9C130.3,421.2,127.6,424,127.5,427.9z"/>
<path d="M206.9,492.3c0.2,2,1.3,3.1,3.3,3.3c-1.8,0.1-3.2,1.4-3.3,3.2c-0.1-1.8-1.5-3.2-3.3-3.2
	C205.6,495.3,206.7,494.3,206.9,492.3z"/>
<path d="M21.5,495.9c-0.3-4.3-2.4-6.6-7-6.9c4,0.1,7.1-2.9,7-6.9c0,3.9,2.9,6.7,6.7,6.9C24.3,489.2,21.6,492,21.5,495.9z"/>
<path d="M173.9,396.3c0.2,2,1.3,3.1,3.3,3.3c-1.8,0.1-3.2,1.4-3.3,3.2c-0.1-1.8-1.5-3.2-3.3-3.2
	C172.6,399.3,173.7,398.3,173.9,396.3z"/>
<path d="M21.5,357.9c-0.3-4.3-2.4-6.6-7-6.9c4,0.1,7.1-2.9,7-6.9c0,3.9,2.9,6.7,6.7,6.9C24.3,351.2,21.6,354,21.5,357.9z"/>
<path d="M33.9,402.3c0.2,2,1.3,3.1,3.3,3.3c-1.8,0.1-3.2,1.4-3.3,3.2c-0.1-1.8-1.5-3.2-3.3-3.2C32.6,405.3,33.7,404.3,33.9,402.3z"
	/>
<path d="M60.5,295.9c-0.3-4.3-2.4-6.6-7-6.9c4,0.1,7.1-2.9,7-6.9c0,3.9,2.9,6.7,6.7,6.9C63.3,289.2,60.6,292,60.5,295.9z"/>
<path d="M20.9,300.3c0.2,2,1.3,3.1,3.3,3.3c-1.8,0.1-3.2,1.4-3.3,3.2c-0.1-1.8-1.5-3.2-3.3-3.2C19.6,303.3,20.7,302.3,20.9,300.3z"
	/>
<path d="M389.6,154.7c-0.3-4.3-2.4-6.6-7-6.9c4,0.1,7.1-2.9,7-6.9c0,3.9,2.9,6.7,6.7,6.9C392.5,147.9,389.8,150.8,389.6,154.7z"/>
<path d="M203.6,469.7c-0.3-4.3-2.4-6.6-7-6.9c4,0.1,7.1-2.9,7-6.9c0,3.9,2.9,6.7,6.7,6.9C206.5,462.9,203.8,465.8,203.6,469.7z"/>
<path d="M227.6,435.7c-0.3-4.3-2.4-6.6-7-6.9c4,0.1,7.1-2.9,7-6.9c0,3.9,2.9,6.7,6.7,6.9C230.5,428.9,227.8,431.8,227.6,435.7z"/>
<path d="M28.6,161.7c-0.3-4.3-2.4-6.6-7-6.9c4,0.1,7.1-2.9,7-6.9c0,3.9,2.9,6.7,6.7,6.9C31.5,154.9,28.8,157.8,28.6,161.7z"/>
<path d="M19.6,215.7c-0.3-4.3-2.4-6.6-7-6.9c4,0.1,7.1-2.9,7-6.9c0,3.9,2.9,6.7,6.7,6.9C22.5,208.9,19.8,211.8,19.6,215.7z"/>
<path d="M396.5,212.6c0.2,2,1.3,3.1,3.3,3.3c-1.8,0.1-3.2,1.4-3.3,3.2c-0.1-1.8-1.5-3.2-3.3-3.2
	C395.2,215.6,396.3,214.6,396.5,212.6z"/>
<path d="M84.5,377.6c0.2,2,1.3,3.1,3.3,3.3c-1.8,0.1-3.2,1.4-3.3,3.2c-0.1-1.8-1.5-3.2-3.3-3.2C83.2,380.6,84.3,379.6,84.5,377.6z"
	/>
<path d="M199.5,60.6c0.2,2,1.3,3.1,3.3,3.3c-1.8,0.1-3.2,1.4-3.3,3.2c-0.1-1.8-1.5-3.2-3.3-3.2C198.2,63.6,199.3,62.6,199.5,60.6z"
	/>
<path d="M255.5,60.6c0.2,2,1.3,3.1,3.3,3.3c-1.8,0.1-3.2,1.4-3.3,3.2c-0.1-1.8-1.5-3.2-3.3-3.2C254.2,63.6,255.3,62.6,255.5,60.6z"
	/>
<path d="M310.5,12.6c0.2,2,1.3,3.1,3.3,3.3c-1.8,0.1-3.2,1.4-3.3,3.2c-0.1-1.8-1.5-3.2-3.3-3.2C309.2,15.6,310.3,14.6,310.5,12.6z"
	/>
<path d="M331.5,52.6c0.2,2,1.3,3.1,3.3,3.3c-1.8,0.1-3.2,1.4-3.3,3.2c-0.1-1.8-1.5-3.2-3.3-3.2C330.2,55.6,331.3,54.6,331.5,52.6z"
	/>
</svg>
