<svg class="icon" viewBox="0 0 100 100" xmlns="http://www.w3.org/2000/svg" aria-hidden="true" role="img"><path d="M65 50a15 15 0 10-15 15 15 15 0 0015-15zm8.08 0A23.09 23.09 0 1150 26.92 23.05 23.05 0 0173.08 50zm6.33-24A5.39 5.39 0 1174 20.59 5.37 5.37 0 0179.41 26zM50 13.09c-6.57 0-20.63-.53-26.55 1.81a14.38 14.38 0 00-5.15 3.4 14.38 14.38 0 00-3.4 5.15c-2.34 5.92-1.81 20-1.81 26.55s-.53 20.62 1.81 26.54a15.39 15.39 0 008.55 8.55c5.92 2.35 20 1.82 26.55 1.82s20.62.53 26.54-1.82a15.39 15.39 0 008.55-8.55c2.35-5.92 1.82-20 1.82-26.54s.53-20.63-1.82-26.55a15.39 15.39 0 00-8.55-8.55c-5.92-2.34-19.98-1.81-26.54-1.81zM95 50c0 6.21.06 12.36-.3 18.57-.35 7.21-2 13.6-7.26 18.87s-11.66 6.91-18.87 7.26c-6.21.36-12.36.3-18.57.3s-12.36.06-18.57-.3c-7.21-.35-13.6-2-18.87-7.26S5.65 75.78 5.3 68.57C4.94 62.36 5 56.21 5 50s-.06-12.36.3-18.57c.35-7.21 2-13.6 7.26-18.87S24.22 5.65 31.43 5.3C37.64 4.94 43.79 5 50 5s12.36-.06 18.57.3c7.21.35 13.6 2 18.87 7.26s6.91 11.66 7.26 18.87c.36 6.21.3 12.36.3 18.57z" fill="#212121"/></svg>
