<svg xmlns="http://www.w3.org/2000/svg" viewBox="0 0 1920 1080" fill="none" role="img"><g clip-path="url(#clip0)"><path fill="#FFDFE7" d="M0 0h1920v1080H0z"/><path transform="matrix(.96245 .27144 .0082 .99997 0 88.844)" stroke="#fff" d="M0-.5h2716"/><path transform="matrix(.96245 .27144 .0082 .99997 0 -441.015)" stroke="#fff" d="M0-.5h2716"/><path transform="matrix(.96245 .27144 .0082 .99997 0 221.309)" stroke="#fff" d="M0-.5h2716"/><path transform="matrix(.96245 .27144 .0082 .99997 0 -308.55)" stroke="#fff" d="M0-.5h2716"/><path transform="matrix(.96245 .27144 .0082 .99997 0 155.077)" stroke="#fff" d="M0-.5h2716"/><path transform="matrix(.96245 .27144 .0082 .99997 0 -374.782)" stroke="#fff" d="M0-.5h2716"/><path transform="matrix(.96245 .27144 .0082 .99997 0 287.541)" stroke="#fff" d="M0-.5h2716"/><path transform="matrix(.96245 .27144 .0082 .99997 0 -242.318)" stroke="#fff" d="M0-.5h2716"/><path transform="matrix(.96245 .27144 .0082 .99997 0 353.774)" stroke="#fff" d="M0-.5h2716"/><path transform="matrix(.96245 .27144 .0082 .99997 0 -176.085)" stroke="#fff" d="M0-.5h2716"/><path transform="matrix(.96245 .27144 .0082 .99997 0 486.238)" stroke="#fff" d="M0-.5h2716"/><path transform="matrix(.96245 .27144 .0082 .99997 0 -43.62)" stroke="#fff" d="M0-.5h2716"/><path transform="matrix(.96245 .27144 .0082 .99997 0 420.006)" stroke="#fff" d="M0-.5h2716"/><path transform="matrix(.96245 .27144 .0082 .99997 0 -109.853)" stroke="#fff" d="M0-.5h2716"/><path transform="matrix(.96245 .27144 .0082 .99997 0 552.471)" stroke="#fff" d="M0-.5h2716"/><path transform="matrix(.96245 .27144 .0082 .99997 0 22.612)" stroke="#fff" d="M0-.5h2716"/><path transform="matrix(.96245 .27144 .0082 .99997 0 618.703)" stroke="#fff" d="M0-.5h2716"/><path transform="matrix(.96245 .27144 .0082 .99997 0 751.168)" stroke="#fff" d="M0-.5h2716"/><path transform="matrix(.96245 .27144 .0082 .99997 0 684.936)" stroke="#fff" d="M0-.5h2716"/><path transform="matrix(.96245 .27144 .0082 .99997 0 817.4)" stroke="#fff" d="M0-.5h2716"/><path transform="matrix(.96245 .27144 .0082 .99997 0 883.633)" stroke="#fff" d="M0-.5h2716"/><path transform="matrix(.96245 .27144 .0082 .99997 0 1016.1)" stroke="#fff" d="M0-.5h2716"/><path transform="matrix(.96245 .27144 .0082 .99997 0 949.865)" stroke="#fff" d="M0-.5h2716"/><path transform="matrix(.7071 -.7071 0 1 0 426.001)" stroke="#fff" d="M0-.5h2716"/><path transform="matrix(.7071 -.7071 0 1 0 625.005)" stroke="#fff" d="M0-.5h2716"/><path transform="matrix(.7071 -.7071 0 1 0 525.503)" stroke="#fff" d="M0-.5h2716"/><path transform="matrix(.7071 -.7071 0 1 0 724.507)" stroke="#fff" d="M0-.5h2716"/><path transform="matrix(.7071 -.7071 0 1 0 824.009)" stroke="#fff" d="M0-.5h2716"/><path transform="matrix(.7071 -.7071 0 1 0 27.993)" stroke="#fff" d="M0-.5h2716"/><path transform="matrix(.7071 -.7071 0 1 0 1023.01)" stroke="#fff" d="M0-.5h2716"/><path transform="matrix(.7071 -.7071 0 1 0 226.997)" stroke="#fff" d="M0-.5h2716"/><path transform="matrix(.7071 -.7071 0 1 0 923.511)" stroke="#fff" d="M0-.5h2716"/><path transform="matrix(.7071 -.7071 0 1 0 127.495)" stroke="#fff" d="M0-.5h2716"/><path transform="matrix(.7071 -.7071 0 1 0 1122.51)" stroke="#fff" d="M0-.5h2716"/><path transform="matrix(.7071 -.7071 0 1 0 326.499)" stroke="#fff" d="M0-.5h2716"/><path transform="matrix(.7071 -.7071 0 1 0 2018.03)" stroke="#fff" d="M0-.5h2716"/><path transform="matrix(.7071 -.7071 0 1 0 1222.02)" stroke="#fff" d="M0-.5h2716"/><path transform="matrix(.7071 -.7071 0 1 0 2217.04)" stroke="#fff" d="M0-.5h2716"/><path transform="matrix(.7071 -.7071 0 1 0 1421.02)" stroke="#fff" d="M0-.5h2716"/><path transform="matrix(.7071 -.7071 0 1 0 2117.53)" stroke="#fff" d="M0-.5h2716"/><path transform="matrix(.7071 -.7071 0 1 0 1321.52)" stroke="#fff" d="M0-.5h2716"/><path transform="matrix(.7071 -.7071 0 1 0 2316.54)" stroke="#fff" d="M0-.5h2716"/><path transform="matrix(.7071 -.7071 0 1 0 1520.52)" stroke="#fff" d="M0-.5h2716"/><path transform="matrix(.7071 -.7071 0 1 0 2416.04)" stroke="#fff" d="M0-.5h2716"/><path transform="matrix(.7071 -.7071 0 1 0 1620.02)" stroke="#fff" d="M0-.5h2716"/><path transform="matrix(.7071 -.7071 0 1 0 2615.04)" stroke="#fff" d="M0-.5h2716"/><path transform="matrix(.7071 -.7071 0 1 0 1819.03)" stroke="#fff" d="M0-.5h2716"/><path transform="matrix(.7071 -.7071 0 1 0 2515.54)" stroke="#fff" d="M0-.5h2716"/><path transform="matrix(.7071 -.7071 0 1 0 1719.53)" stroke="#fff" d="M0-.5h2716"/><path transform="matrix(.7071 -.7071 0 1 0 2714.55)" stroke="#fff" d="M0-.5h2716"/><path transform="matrix(.7071 -.7071 0 1 0 1918.53)" stroke="#fff" d="M0-.5h2716"/><path d="M736.543-409.588c7.811-7.81 22.792-11.824 33.461-8.966l431.556 115.635c10.67 2.859 12.99 11.508 5.18 19.319L669.335 253.801c-7.811 7.81-22.792 11.825-33.461 8.966L204.319 147.132c-10.67-2.859-12.987-11.508-5.177-19.319l537.401-537.401z" fill="#FF9AA2" fill-opacity=".2"/><path d="M767.176-415.725L1198.73-300.09l5.66-5.657-431.558-115.635-5.656 5.657zm435.694 131.09L665.471 252.766l7.727 2.07L1210.6-282.565l-7.73-2.07zM638.702 259.938L207.147 144.303l-5.657 5.657 431.555 115.635 5.657-5.657zM203.006 128.849l537.401-537.402-7.727-2.07-537.401 537.401 7.727 2.071zm4.141 15.454c-8.535-2.287-10.389-9.206-4.141-15.454l-7.727-2.071c-9.373 9.373-6.592 19.752 6.211 23.182l5.657-5.657zm458.324 108.463c-6.249 6.248-18.233 9.459-26.769 7.172l-5.657 5.657c12.804 3.431 30.781-1.386 40.153-10.759l-7.727-2.07zM1198.73-300.09c8.54 2.287 10.39 9.206 4.14 15.455l7.73 2.07c9.37-9.372 6.59-19.752-6.21-23.182l-5.66 5.657zM772.832-421.382c-12.803-3.431-30.78 1.386-40.152 10.759l7.727 2.07c6.249-6.248 18.233-9.459 26.769-7.172l5.656-5.657z" fill="#2AC3A2"/><g clip-path="url(#clip1)"><path d="M736.543-476.683c7.811-7.81 22.792-11.824 33.461-8.965l431.556 115.635c10.67 2.859 12.99 11.508 5.18 19.318L669.336 186.707c-7.811 7.81-22.792 11.824-33.461 8.965L204.319 80.037c-10.67-2.859-12.987-11.508-5.177-19.318l537.401-537.402z" fill="#fff" fill-opacity=".6"/></g><path d="M767.176-482.82l431.554 115.635 5.66-5.657-431.558-115.635-5.656 5.657zm435.694 131.09L665.472 185.671l7.727 2.071L1210.6-349.659l-7.73-2.071zM638.703 192.844L207.147 77.209l-5.657 5.656 431.557 115.636 5.656-5.657zM203.006 61.754l537.401-537.401-7.727-2.071L195.279 59.683l7.727 2.07zm4.141 15.455c-8.535-2.287-10.389-9.207-4.141-15.455l-7.727-2.07c-9.373 9.372-6.592 19.75 6.211 23.181l5.657-5.656zM665.472 185.67c-6.248 6.249-18.233 9.46-26.769 7.173l-5.656 5.657c12.803 3.43 30.78-1.387 40.152-10.759l-7.727-2.071zm533.258-552.856c8.54 2.287 10.39 9.207 4.14 15.455l7.73 2.071c9.37-9.373 6.59-19.752-6.21-23.183l-5.66 5.657zM772.832-488.477c-12.803-3.43-30.78 1.387-40.152 10.759l7.727 2.071c6.249-6.249 18.233-9.46 26.769-7.173l5.656-5.657z" fill="#2AC3A2"/><g clip-path="url(#clip2)"><path d="M736.543-543.778c7.811-7.81 22.792-11.824 33.461-8.965l431.556 115.635c10.67 2.859 12.99 11.508 5.18 19.318L669.336 119.612c-7.811 7.81-22.792 11.824-33.461 8.965L204.319 12.942c-10.67-2.859-12.987-11.508-5.177-19.318l537.401-537.402z" fill="#fff" fill-opacity=".8"/><rect x=".259" y=".966" width="266" height="3" rx="1.5" transform="matrix(.96593 .25882 -.7071 .7071 301.961 25.687)" fill="#B3FFE3" fill-opacity=".5" stroke="#2AC3A2" stroke-width="2"/><path transform="matrix(.96593 .25882 -.7071 .7071 201.986 -10.128)" stroke="#2AC3A2" stroke-width="2" d="M-.259-.966h488.78v27H-.259z"/></g><path d="M767.176-549.915L1198.73-434.28l5.66-5.657-431.558-115.635-5.656 5.657zm435.694 131.09L665.472 118.576l7.727 2.071L1210.6-416.754l-7.73-2.071zM638.703 125.749L207.147 10.114l-5.657 5.656 431.557 115.636 5.656-5.657zM203.006-5.341l537.401-537.401-7.727-2.071L195.279-7.412l7.727 2.07zm4.141 15.455c-8.535-2.287-10.389-9.207-4.141-15.455l-7.727-2.07c-9.373 9.372-6.592 19.75 6.211 23.181l5.657-5.656zm458.325 108.462c-6.248 6.249-18.233 9.46-26.769 7.173l-5.656 5.657c12.803 3.43 30.78-1.387 40.152-10.759l-7.727-2.071zM1198.73-434.28c8.54 2.287 10.39 9.207 4.14 15.455l7.73 2.071c9.37-9.373 6.59-19.752-6.21-23.183l-5.66 5.657zM772.832-555.572c-12.803-3.43-30.78 1.387-40.152 10.759l7.727 2.071c6.249-6.249 18.233-9.46 26.769-7.173l5.656-5.657z" fill="#2AC3A2"/><g clip-path="url(#clip3)"><path d="M736.543-610.873c7.811-7.81 22.792-11.824 33.461-8.965l431.556 115.635c10.67 2.859 12.99 11.508 5.18 19.318L669.336 52.517c-7.811 7.81-22.792 11.824-33.461 8.965L204.319-54.153c-10.67-2.859-12.987-11.508-5.177-19.318l537.401-537.402z" fill="#fff" fill-opacity=".8"/><rect x=".259" y=".966" width="266" height="3" rx="1.5" transform="matrix(.96593 .25882 -.7071 .7071 301.961 -41.408)" fill="#B3FFE3" fill-opacity=".5" stroke="#2AC3A2" stroke-width="2"/><path transform="matrix(.96593 .25882 -.7071 .7071 201.986 -77.223)" stroke="#2AC3A2" stroke-width="2" d="M-.259-.966h488.78v27H-.259z"/></g><path d="M767.176-617.01l431.554 115.635 5.66-5.657-431.558-115.635-5.656 5.657zm435.694 131.09L665.472 51.481l7.727 2.07 537.401-537.4-7.73-2.071zM638.703 58.654L207.147-56.981l-5.657 5.657L633.047 64.31l5.656-5.657zM203.006-72.436l537.401-537.401-7.727-2.071L195.279-74.507l7.727 2.07zm4.141 15.455c-8.535-2.287-10.389-9.207-4.141-15.455l-7.727-2.07c-9.373 9.372-6.592 19.751 6.211 23.182l5.657-5.657zM665.472 51.48c-6.248 6.249-18.233 9.46-26.769 7.173l-5.656 5.657c12.803 3.43 30.78-1.387 40.152-10.76l-7.727-2.07zm533.258-552.856c8.54 2.287 10.39 9.207 4.14 15.455l7.73 2.071c9.37-9.373 6.59-19.752-6.21-23.183l-5.66 5.657zM772.832-622.667c-12.803-3.43-30.78 1.387-40.152 10.759l7.727 2.071c6.249-6.249 18.233-9.46 26.769-7.173l5.656-5.657z" fill="#2AC3A2"/><path d="M1615.54-488.588c7.81-7.81 22.79-11.824 33.46-8.966l431.56 115.635c10.67 2.859 12.99 11.508 5.18 19.319l-537.41 537.401c-7.81 7.81-22.79 11.825-33.46 8.966L1083.32 68.132c-10.67-2.859-12.99-11.508-5.18-19.319l537.4-537.401z" fill="#FF9AA2" fill-opacity=".2"/><path d="M1646.18-494.725l431.55 115.635 5.66-5.657-431.56-115.635-5.65 5.657zm435.69 131.09l-537.4 537.401 7.73 2.07 537.4-537.401-7.73-2.07zM1517.7 180.938L1086.15 65.303l-5.66 5.657 431.56 115.635 5.65-5.657zm-435.69-131.09l537.4-537.401-7.73-2.07-537.4 537.401 7.73 2.07zm4.14 15.455c-8.54-2.287-10.39-9.206-4.14-15.454l-7.73-2.071c-9.37 9.373-6.59 19.752 6.21 23.182l5.66-5.657zm458.32 108.463c-6.25 6.248-18.23 9.459-26.77 7.172l-5.65 5.657c12.8 3.431 30.78-1.386 40.15-10.759l-7.73-2.07zm533.26-552.856c8.54 2.287 10.39 9.206 4.14 15.455l7.73 2.07c9.37-9.372 6.59-19.752-6.21-23.182l-5.66 5.657zm-425.9-121.292c-12.8-3.431-30.78 1.386-40.15 10.759l7.73 2.07c6.25-6.248 18.23-9.459 26.77-7.172l5.65-5.657z" fill="#2AC3A2"/><g clip-path="url(#clip4)"><path d="M1615.54-555.683c7.81-7.81 22.79-11.824 33.46-8.965l431.56 115.635c10.67 2.859 12.99 11.508 5.18 19.318l-537.4 537.402c-7.81 7.81-22.8 11.824-33.47 8.965L1083.32 1.037c-10.67-2.859-12.99-11.508-5.18-19.318l537.4-537.402z" fill="#fff" fill-opacity=".6"/></g><path d="M1646.18-561.82l431.55 115.635 5.66-5.657-431.56-115.635-5.65 5.657zm435.69 131.09l-537.4 537.401 7.73 2.071 537.4-537.401-7.73-2.071zM1517.7 113.844L1086.15-1.791l-5.66 5.657L1512.05 119.5l5.65-5.657zm-435.69-131.09l537.4-537.401-7.73-2.071-537.4 537.401 7.73 2.07zm4.14 15.455c-8.54-2.287-10.39-9.207-4.14-15.455l-7.73-2.07c-9.37 9.372-6.59 19.75 6.21 23.182l5.66-5.657zm458.32 108.462c-6.25 6.249-18.23 9.46-26.77 7.173l-5.65 5.657c12.8 3.43 30.78-1.387 40.15-10.759l-7.73-2.071zm533.26-552.856c8.54 2.287 10.39 9.207 4.14 15.455l7.73 2.071c9.37-9.373 6.59-19.752-6.21-23.183l-5.66 5.657zm-425.9-121.292c-12.8-3.43-30.78 1.387-40.15 10.759l7.73 2.071c6.25-6.249 18.23-9.46 26.77-7.173l5.65-5.657z" fill="#2AC3A2"/><g clip-path="url(#clip5)"><path d="M1615.54-622.778c7.81-7.81 22.79-11.824 33.46-8.965l431.56 115.635c10.67 2.859 12.99 11.508 5.18 19.318l-537.4 537.402c-7.81 7.81-22.8 11.824-33.47 8.965L1083.32-66.058c-10.67-2.859-12.99-11.508-5.18-19.318l537.4-537.402z" fill="#fff" fill-opacity=".8"/><rect x=".259" y=".966" width="266" height="3" rx="1.5" transform="matrix(.96593 .25882 -.7071 .7071 1180.96 -53.313)" fill="#B3FFE3" fill-opacity=".5" stroke="#2AC3A2" stroke-width="2"/><path transform="matrix(.96593 .25882 -.7071 .7071 1080.99 -89.128)" stroke="#2AC3A2" stroke-width="2" d="M-.259-.966h488.78v27H-.259z"/></g><path d="M1646.18-628.915l431.55 115.635 5.66-5.657-431.56-115.635-5.65 5.657zm435.69 131.09l-537.4 537.401 7.73 2.07 537.4-537.4-7.73-2.071zM1517.7 46.749L1086.15-68.886l-5.66 5.656 431.56 115.636 5.65-5.657zm-435.69-131.09l537.4-537.401-7.73-2.071-537.4 537.401 7.73 2.07zm4.14 15.455c-8.54-2.287-10.39-9.207-4.14-15.455l-7.73-2.07c-9.37 9.372-6.59 19.75 6.21 23.181l5.66-5.656zm458.32 108.462c-6.25 6.249-18.23 9.46-26.77 7.173l-5.65 5.657c12.8 3.43 30.78-1.387 40.15-10.76l-7.73-2.07zm533.26-552.856c8.54 2.287 10.39 9.207 4.14 15.455l7.73 2.071c9.37-9.373 6.59-19.752-6.21-23.183l-5.66 5.657zm-425.9-121.292c-12.8-3.43-30.78 1.387-40.15 10.759l7.73 2.071c6.25-6.249 18.23-9.46 26.77-7.173l5.65-5.657z" fill="#2AC3A2"/><path d="M914.543 305.412c7.811-7.81 22.792-11.824 33.461-8.966l431.556 115.635c10.67 2.859 12.99 11.508 5.18 19.319L847.335 968.801c-7.811 7.81-22.792 11.825-33.461 8.966L382.319 862.132c-10.67-2.859-12.987-11.508-5.177-19.319l537.401-537.401z" fill="#FF9AA2" fill-opacity=".2"/><path d="M945.176 299.275L1376.73 414.91l5.66-5.657-431.558-115.635-5.656 5.657zm435.694 131.09L843.471 967.766l7.727 2.07L1388.6 432.435l-7.73-2.07zM816.702 974.938L385.147 859.303l-5.657 5.657 431.555 115.635 5.657-5.657zM381.006 843.849l537.401-537.402-7.727-2.07-537.401 537.401 7.727 2.071zm4.141 15.454c-8.535-2.287-10.389-9.206-4.141-15.454l-7.727-2.071c-9.373 9.373-6.592 19.752 6.211 23.182l5.657-5.657zm458.324 108.463c-6.249 6.248-18.233 9.459-26.769 7.172l-5.657 5.657c12.804 3.431 30.781-1.386 40.153-10.759l-7.727-2.07zM1376.73 414.91c8.54 2.287 10.39 9.206 4.14 15.455l7.73 2.07c9.37-9.372 6.59-19.752-6.21-23.182l-5.66 5.657zM950.832 293.618c-12.803-3.431-30.78 1.386-40.152 10.759l7.727 2.07c6.249-6.248 18.233-9.459 26.769-7.172l5.656-5.657z" fill="#2AC3A2"/><g clip-path="url(#clip6)"><path d="M914.543 238.317c7.811-7.81 22.792-11.824 33.461-8.965l431.556 115.635c10.67 2.859 12.99 11.508 5.18 19.318L847.336 901.707c-7.811 7.81-22.792 11.824-33.461 8.965L382.319 795.037c-10.67-2.859-12.987-11.508-5.177-19.318l537.401-537.402z" fill="#fff" fill-opacity=".6"/><path d="M1301.97 352.315c-.32.096-.53.324-.47.508.07.184.38.255.71.159l.01-.005c.33-.096.54-.324.47-.508-.07-.184-.38-.255-.71-.159l-.01.005z" stroke="#2AC3A2" stroke-linecap="round" stroke-linejoin="round"/><path d="M1300.72 342.994c8.08-1.466 15.03.397 17.39 4.659M1300.78 346.239c5.39-.978 10.61.42 12.17 3.261M1301.6 349.281c2.84-.367 5.02.216 6.08 1.631" stroke="#2AC3A2" stroke-width="2" stroke-linejoin="round"/><path d="M1319 356.554l-2.12 2.122m28.18-8.587l-12.72 12.728 12.72-12.728zm-8.84 2.112l-9.2 9.192 9.2-9.192zm-8.37 2.241l-5.66 5.657 5.66-5.657z" stroke="#2AC3A2" stroke-width="2"/><path d="M1363.4 356.616l-.71.707.97.259 1.64.44-4.31 4.313-6.76-1.812 4.31-4.313 1.64.44.97.259.7-.707.57-.566 1.55.414-.57.566z" fill="#B3FFE3" fill-opacity=".2" stroke="#2AC3A2" stroke-width="2"/><path d="M1355.26 368.062l-6.76-1.811 4.31-4.314 6.76 1.812-4.31 4.313z" fill="#2AC3A2" stroke="#2AC3A2" stroke-width="2"/><path transform="matrix(.96593 .25882 -.7071 .7071 929.377 224.391)" stroke="#2AC3A2" stroke-width="2" d="M.259.966h484.78v48H.259z"/></g><path d="M945.176 232.18l431.554 115.635 5.66-5.657-431.558-115.635-5.656 5.657zm435.694 131.09L843.472 900.671l7.727 2.071L1388.6 365.341l-7.73-2.071zM816.703 907.844L385.147 792.209l-5.657 5.657 431.557 115.635 5.656-5.657zm-435.697-131.09l537.401-537.401-7.727-2.071-537.401 537.401 7.727 2.071zm4.141 15.455c-8.535-2.287-10.389-9.207-4.141-15.455l-7.727-2.071c-9.373 9.373-6.592 19.752 6.211 23.183l5.657-5.657zm458.325 108.462c-6.248 6.249-18.233 9.46-26.769 7.173l-5.656 5.657c12.803 3.43 30.78-1.387 40.152-10.759l-7.727-2.071zm533.258-552.856c8.54 2.287 10.39 9.207 4.14 15.455l7.73 2.071c9.37-9.373 6.59-19.752-6.21-23.183l-5.66 5.657zM950.832 226.523c-12.803-3.43-30.78 1.387-40.152 10.759l7.727 2.071c6.249-6.249 18.233-9.46 26.769-7.173l5.656-5.657z" fill="#2AC3A2"/><g clip-path="url(#clip7)"><path d="M914.543 171.222c7.811-7.81 22.792-11.824 33.461-8.965l431.556 115.635c10.67 2.859 12.99 11.508 5.18 19.318L847.336 834.612c-7.811 7.81-22.792 11.824-33.461 8.965L382.319 727.942c-10.67-2.859-12.987-11.508-5.177-19.318l537.401-537.402z" fill="#fff" fill-opacity=".8"/><path d="M1301.97 285.22c-.32.096-.53.324-.47.508.07.184.38.255.71.159l.01-.005c.33-.096.54-.324.47-.508-.07-.184-.38-.255-.71-.159l-.01.005z" stroke="#2AC3A2" stroke-linecap="round" stroke-linejoin="round"/><path d="M1300.72 275.899c8.08-1.466 15.03.397 17.39 4.659M1300.78 279.144c5.39-.978 10.61.42 12.17 3.261M1301.6 282.186c2.84-.367 5.02.216 6.08 1.631" stroke="#2AC3A2" stroke-width="2" stroke-linejoin="round"/><path d="M1319 289.459l-2.12 2.122m28.18-8.587l-12.72 12.728 12.72-12.728zm-8.84 2.112l-9.2 9.192 9.2-9.192zm-8.37 2.241l-5.66 5.657 5.66-5.657z" stroke="#2AC3A2" stroke-width="2"/><path d="M1363.4 289.521l-.71.707.97.259 1.64.44-4.31 4.313-6.76-1.812 4.31-4.313 1.64.44.97.259.7-.707.57-.566 1.55.414-.57.566z" fill="#B3FFE3" fill-opacity=".2" stroke="#2AC3A2" stroke-width="2"/><path d="M1355.26 300.967l-6.76-1.811 4.31-4.314 6.76 1.812-4.31 4.313z" fill="#2AC3A2" stroke="#2AC3A2" stroke-width="2"/><path transform="matrix(.96593 .25882 -.7071 .7071 929.377 157.296)" stroke="#2AC3A2" stroke-width="2" d="M.259.966h484.78v48H.259z"/><rect x=".259" y=".966" width="348.78" height="33" rx="9" transform="matrix(.96593 .25882 -.7071 .7071 908.037 203.131)" stroke="#2AC3A2" stroke-width="2"/><rect x=".259" y=".966" width="16" height="16" rx="1" transform="matrix(.96593 .25882 -.7071 .7071 1269.83 307.695)" stroke="#2AC3A2" stroke-width="2"/><path transform="matrix(.96593 .25882 -.7071 .7071 1313.38 322.023)" stroke="#2AC3A2" stroke-width="2" d="M0-1h18"/><path transform="matrix(.96593 .25882 -.7071 .7071 1309.14 326.266)" stroke="#2AC3A2" stroke-width="2" d="M0-1h18"/><path transform="matrix(.96593 .25882 -.7071 .7071 1304.9 330.509)" stroke="#2AC3A2" stroke-width="2" d="M0-1h18"/><path transform="matrix(.96593 .25882 -.7071 .7071 892.638 192.22)" stroke="#2AC3A2" stroke-width="2" d="M-.259-.966h488.78v52H-.259z"/><rect x=".259" y=".966" width="266" height="3" rx="1.5" transform="matrix(.96593 .25882 -.7071 .7071 479.961 740.687)" fill="#B3FFE3" fill-opacity=".5" stroke="#2AC3A2" stroke-width="2"/><path transform="matrix(.96593 .25882 -.7071 .7071 379.986 704.872)" stroke="#2AC3A2" stroke-width="2" d="M-.259-.966h488.78v27H-.259z"/></g><path d="M945.176 165.085L1376.73 280.72l5.66-5.657-431.558-115.635-5.656 5.657zm435.694 131.09L843.472 833.576l7.727 2.071L1388.6 298.246l-7.73-2.071zM816.703 840.749L385.147 725.114l-5.657 5.657 431.557 115.635 5.656-5.657zm-435.697-131.09l537.401-537.401-7.727-2.071-537.401 537.401 7.727 2.071zm4.141 15.455c-8.535-2.287-10.389-9.207-4.141-15.455l-7.727-2.071c-9.373 9.373-6.592 19.752 6.211 23.183l5.657-5.657zm458.325 108.462c-6.248 6.249-18.233 9.46-26.769 7.173l-5.656 5.657c12.803 3.43 30.78-1.387 40.152-10.759l-7.727-2.071zM1376.73 280.72c8.54 2.287 10.39 9.207 4.14 15.455l7.73 2.071c9.37-9.373 6.59-19.752-6.21-23.183l-5.66 5.657zM950.832 159.428c-12.803-3.43-30.78 1.387-40.152 10.759l7.727 2.071c6.249-6.249 18.233-9.46 26.769-7.173l5.656-5.657z" fill="#2AC3A2"/><g clip-path="url(#clip8)"><path d="M914.543 104.127c7.811-7.81 22.792-11.824 33.461-8.965l431.556 115.635c10.67 2.859 12.99 11.508 5.18 19.318L847.336 767.517c-7.811 7.81-22.792 11.824-33.461 8.965L382.319 660.847c-10.67-2.859-12.987-11.508-5.177-19.318l537.401-537.402z" fill="#fff" fill-opacity=".8"/><path d="M1301.97 218.125c-.32.096-.53.324-.47.508.07.184.38.255.71.159l.01-.005c.33-.096.54-.324.47-.508-.07-.184-.38-.255-.71-.159l-.01.005z" stroke="#2AC3A2" stroke-linecap="round" stroke-linejoin="round"/><path d="M1300.72 208.804c8.08-1.466 15.03.397 17.39 4.659M1300.78 212.049c5.39-.978 10.61.42 12.17 3.261M1301.6 215.091c2.84-.367 5.02.216 6.08 1.631" stroke="#2AC3A2" stroke-width="2" stroke-linejoin="round"/><path d="M1319 222.364l-2.12 2.122m28.18-8.587l-12.72 12.728 12.72-12.728zm-8.84 2.112l-9.2 9.192 9.2-9.192zm-8.37 2.241l-5.66 5.657 5.66-5.657z" stroke="#2AC3A2" stroke-width="2"/><path d="M1363.4 222.426l-.71.707.97.259 1.64.44-4.31 4.313-6.76-1.812 4.31-4.313 1.64.44.97.259.7-.707.57-.566 1.55.414-.57.566z" fill="#B3FFE3" fill-opacity=".2" stroke="#2AC3A2" stroke-width="2"/><path d="M1355.26 233.873l-6.76-1.812 4.31-4.314 6.76 1.812-4.31 4.314z" fill="#2AC3A2" stroke="#2AC3A2" stroke-width="2"/><path transform="matrix(.96593 .25882 -.7071 .7071 929.377 90.201)" stroke="#2AC3A2" stroke-width="2" d="M.259.966h484.78v48H.259z"/><rect x=".259" y=".966" width="348.78" height="33" rx="9" transform="matrix(.96593 .25882 -.7071 .7071 908.037 136.036)" stroke="#2AC3A2" stroke-width="2"/><rect x=".259" y=".966" width="16" height="16" rx="1" transform="matrix(.96593 .25882 -.7071 .7071 1269.83 240.6)" stroke="#2AC3A2" stroke-width="2"/><path transform="matrix(.96593 .25882 -.7071 .7071 1313.38 254.928)" stroke="#2AC3A2" stroke-width="2" d="M0-1h18"/><path transform="matrix(.96593 .25882 -.7071 .7071 1309.14 259.171)" stroke="#2AC3A2" stroke-width="2" d="M0-1h18"/><path transform="matrix(.96593 .25882 -.7071 .7071 1304.9 263.414)" stroke="#2AC3A2" stroke-width="2" d="M0-1h18"/><path transform="matrix(.96593 .25882 -.7071 .7071 892.638 125.125)" stroke="#2AC3A2" stroke-width="2" d="M-.259-.966h488.78v52H-.259z"/><rect x=".259" y=".966" width="55.667" height="23" rx="11.5" transform="matrix(.96593 .25882 -.7071 .7071 871.608 209.208)" fill="#B3FFE3" fill-opacity=".3" stroke="#2AC3A2" stroke-width="2"/><rect x=".259" y=".966" width="55.667" height="23" rx="11.5" transform="matrix(.96593 .25882 -.7071 .7071 936.969 226.722)" fill="#B3FFE3" fill-opacity=".3" stroke="#2AC3A2" stroke-width="2"/><rect x=".259" y=".966" width="55.667" height="23" rx="11.5" transform="matrix(.96593 .25882 -.7071 .7071 1002.33 244.235)" fill="#B3FFE3" fill-opacity=".3" stroke="#2AC3A2" stroke-width="2"/><path transform="matrix(.96593 .25882 -.7071 .7071 836.252 244.564)" fill="#fff" fill-opacity=".5" stroke="#2AC3A2" stroke-width="2" d="M.259.966h384.78v423H.259z"/><path transform="matrix(.96593 .25882 -.7071 .7071 518.055 562.762)" fill="#B3FFE3" fill-opacity=".3" stroke="#2AC3A2" stroke-width="2" d="M.259.966h384.78v23H.259z"/><path transform="matrix(.96593 .25882 -.7071 .7071 493.306 587.51)" fill="#B3FFE3" fill-opacity=".3" stroke="#2AC3A2" stroke-width="2" d="M.259.966h177.78v23H.259z"/><rect x=".259" y=".966" width="266" height="3" rx="1.5" transform="matrix(.96593 .25882 -.7071 .7071 479.961 673.592)" fill="#B3FFE3" fill-opacity=".5" stroke="#2AC3A2" stroke-width="2"/><path transform="matrix(.96593 .25882 -.7071 .7071 379.986 637.777)" stroke="#2AC3A2" stroke-width="2" d="M-.259-.966h488.78v27H-.259z"/></g><path d="M945.176 97.99l431.554 115.635 5.66-5.657L950.832 92.333l-5.656 5.657zm435.694 131.09L843.472 766.481l7.727 2.071L1388.6 231.151l-7.73-2.071zM816.703 773.654L385.147 658.019l-5.657 5.657 431.557 115.635 5.656-5.657zm-435.697-131.09l537.401-537.401-7.727-2.071-537.401 537.401 7.727 2.071zm4.141 15.455c-8.535-2.287-10.389-9.207-4.141-15.455l-7.727-2.071c-9.373 9.373-6.592 19.752 6.211 23.183l5.657-5.657zm458.325 108.462c-6.248 6.249-18.233 9.46-26.769 7.173l-5.656 5.657c12.803 3.43 30.78-1.387 40.152-10.759l-7.727-2.071zm533.258-552.856c8.54 2.287 10.39 9.207 4.14 15.455l7.73 2.071c9.37-9.373 6.59-19.752-6.21-23.183l-5.66 5.657zM950.832 92.333c-12.803-3.43-30.78 1.387-40.152 10.759l7.727 2.071c6.249-6.249 18.233-9.46 26.769-7.173l5.656-5.657z" fill="#2AC3A2"/><path d="M-29.457 364.412c7.81-7.81 22.792-11.824 33.461-8.966L435.56 471.081c10.67 2.859 12.987 11.508 5.177 19.319l-537.401 537.4c-7.811 7.81-22.792 11.83-33.461 8.97l-431.555-115.638c-10.67-2.859-12.987-11.508-5.177-19.319l537.401-537.401z" fill="#FF9AA2" fill-opacity=".2"/><path d="M1.176 358.275L432.73 473.91l5.657-5.657L6.832 352.618l-5.656 5.657zm435.696 131.09l-537.401 537.405 7.727 2.07L444.6 491.435l-7.727-2.07zm-564.17 544.575l-431.555-115.637-5.657 5.657 431.555 115.64 5.657-5.66zm-435.696-131.091l537.401-537.402-7.727-2.07-537.401 537.401 7.727 2.071zm4.141 15.454c-8.535-2.287-10.389-9.206-4.141-15.454l-7.727-2.071c-9.373 9.373-6.592 19.752 6.211 23.182l5.657-5.657zm458.324 108.467c-6.249 6.24-18.233 9.46-26.769 7.17l-5.657 5.66c12.804 3.43 30.781-1.39 40.153-10.76l-7.727-2.07zm533.26-552.86c8.535 2.287 10.389 9.206 4.141 15.455l7.727 2.07c9.373-9.372 6.592-19.752-6.211-23.182l-5.657 5.657zM6.832 352.618c-12.803-3.431-30.78 1.386-40.152 10.759l7.727 2.07c6.248-6.248 18.233-9.459 26.769-7.172l5.656-5.657z" fill="#2AC3A2"/><g clip-path="url(#clip9)"><path d="M-29.457 297.317c7.81-7.81 22.792-11.824 33.461-8.965L435.56 403.987c10.67 2.859 12.987 11.508 5.177 19.318L-96.664 960.707c-7.811 7.81-22.792 11.824-33.461 8.965l-431.556-115.635c-10.67-2.859-12.987-11.508-5.177-19.318l537.401-537.402z" fill="#fff" fill-opacity=".6"/><path d="M357.969 411.315c-.324.096-.533.324-.467.508s.382.255.706.159l.016-.005c.324-.096.533-.324.467-.508s-.382-.255-.706-.159l-.016.005z" stroke="#2AC3A2" stroke-linecap="round" stroke-linejoin="round"/><path d="M356.72 401.994c8.08-1.466 15.035.397 17.387 4.659M356.782 405.239c5.387-.978 10.603.42 12.171 3.261M357.598 408.281c2.847-.367 5.02.216 6.085 1.631" stroke="#2AC3A2" stroke-width="2" stroke-linejoin="round"/><path d="M375.003 415.554l-2.121 2.122m28.182-8.587l-12.727 12.728 12.727-12.728zm-8.848 2.112l-9.192 9.192 9.192-9.192zm-8.365 2.241l-5.657 5.657 5.657-5.657z" stroke="#2AC3A2" stroke-width="2"/><path d="M419.4 415.616l-.707.707.966.259 1.642.44-4.313 4.313-6.762-1.812 4.313-4.313 1.643.44.965.259.708-.707.565-.566 1.546.414-.566.566z" fill="#B3FFE3" fill-opacity=".2" stroke="#2AC3A2" stroke-width="2"/><path d="M411.26 427.062l-6.761-1.811 4.313-4.314 6.762 1.812-4.314 4.313z" fill="#2AC3A2" stroke="#2AC3A2" stroke-width="2"/><path transform="matrix(.96593 .25882 -.7071 .7071 -14.623 283.391)" stroke="#2AC3A2" stroke-width="2" d="M.259.966h484.78v48H.259z"/></g><path d="M1.176 291.18l431.556 115.635 5.657-5.657L6.832 285.523l-5.656 5.657zm435.697 131.09l-537.401 537.401 7.727 2.071L444.6 424.341l-7.727-2.071zm-564.17 544.574l-431.556-115.635-5.657 5.657 431.557 115.635 5.656-5.657zm-435.697-131.09l537.401-537.401-7.727-2.071-537.401 537.401 7.727 2.071zm4.141 15.455c-8.535-2.287-10.389-9.207-4.141-15.455l-7.727-2.071c-9.373 9.373-6.592 19.752 6.211 23.183l5.657-5.657zm458.325 108.462c-6.248 6.249-18.233 9.46-26.769 7.173l-5.656 5.657c12.803 3.43 30.78-1.387 40.152-10.759l-7.727-2.071zm533.26-552.856c8.535 2.287 10.389 9.207 4.141 15.455l7.727 2.071c9.373-9.373 6.592-19.752-6.211-23.183l-5.657 5.657zM6.832 285.523c-12.803-3.43-30.78 1.387-40.152 10.759l7.727 2.071c6.248-6.249 18.233-9.46 26.769-7.173l5.656-5.657z" fill="#2AC3A2"/><g clip-path="url(#clip10)"><path d="M-29.457 230.222c7.81-7.81 22.792-11.824 33.461-8.965L435.56 336.892c10.67 2.859 12.987 11.508 5.177 19.318L-96.664 893.612c-7.811 7.81-22.792 11.824-33.461 8.965l-431.556-115.635c-10.67-2.859-12.987-11.508-5.177-19.318l537.401-537.402z" fill="#fff" fill-opacity=".8"/><path d="M357.969 344.22c-.324.096-.533.324-.467.508s.382.255.706.159l.016-.005c.324-.096.533-.324.467-.508s-.382-.255-.706-.159l-.016.005z" stroke="#2AC3A2" stroke-linecap="round" stroke-linejoin="round"/><path d="M356.72 334.899c8.08-1.466 15.035.397 17.387 4.659M356.782 338.144c5.387-.978 10.603.42 12.171 3.261M357.598 341.186c2.847-.367 5.02.216 6.085 1.631" stroke="#2AC3A2" stroke-width="2" stroke-linejoin="round"/><path d="M375.003 348.459l-2.121 2.122m28.182-8.587l-12.727 12.728 12.727-12.728zm-8.848 2.112l-9.192 9.192 9.192-9.192zm-8.365 2.241l-5.657 5.657 5.657-5.657z" stroke="#2AC3A2" stroke-width="2"/><path d="M419.4 348.521l-.707.707.966.259 1.642.44-4.313 4.313-6.762-1.812 4.313-4.313 1.643.44.965.259.708-.707.565-.566 1.546.414-.566.566z" fill="#B3FFE3" fill-opacity=".2" stroke="#2AC3A2" stroke-width="2"/><path d="M411.26 359.967l-6.761-1.811 4.313-4.314 6.762 1.812-4.314 4.313z" fill="#2AC3A2" stroke="#2AC3A2" stroke-width="2"/><path transform="matrix(.96593 .25882 -.7071 .7071 -14.623 216.296)" stroke="#2AC3A2" stroke-width="2" d="M.259.966h484.78v48H.259z"/><rect x=".259" y=".966" width="348.78" height="33" rx="9" transform="matrix(.96593 .25882 -.7071 .7071 -35.963 262.131)" stroke="#2AC3A2" stroke-width="2"/><rect x=".259" y=".966" width="16" height="16" rx="1" transform="matrix(.96593 .25882 -.7071 .7071 325.832 366.695)" stroke="#2AC3A2" stroke-width="2"/><path transform="matrix(.96593 .25882 -.7071 .7071 369.384 381.023)" stroke="#2AC3A2" stroke-width="2" d="M0-1h18"/><path transform="matrix(.96593 .25882 -.7071 .7071 365.141 385.266)" stroke="#2AC3A2" stroke-width="2" d="M0-1h18"/><path transform="matrix(.96593 .25882 -.7071 .7071 360.898 389.509)" stroke="#2AC3A2" stroke-width="2" d="M0-1h18"/><path transform="matrix(.96593 .25882 -.7071 .7071 -51.361 251.22)" stroke="#2AC3A2" stroke-width="2" d="M-.259-.966h488.78v52H-.259z"/></g><path d="M1.176 224.085L432.732 339.72l5.657-5.657L6.832 218.428l-5.656 5.657zm435.697 131.09l-537.401 537.401 7.727 2.071L444.6 357.246l-7.727-2.071zm-564.17 544.574l-431.556-115.635-5.657 5.657 431.557 115.635 5.656-5.657zm-435.697-131.09l537.401-537.401-7.727-2.071-537.401 537.401 7.727 2.071zm4.141 15.455c-8.535-2.287-10.389-9.207-4.141-15.455l-7.727-2.071c-9.373 9.373-6.592 19.752 6.211 23.183l5.657-5.657zm458.325 108.462c-6.248 6.249-18.233 9.46-26.769 7.173l-5.656 5.657c12.803 3.43 30.78-1.387 40.152-10.759l-7.727-2.071zm533.26-552.856c8.535 2.287 10.389 9.207 4.141 15.455l7.727 2.071c9.373-9.373 6.592-19.752-6.211-23.183l-5.657 5.657zM6.832 218.428c-12.803-3.43-30.78 1.387-40.152 10.759l7.727 2.071c6.248-6.249 18.233-9.46 26.769-7.173l5.656-5.657z" fill="#2AC3A2"/><g clip-path="url(#clip11)"><path d="M-29.457 163.127c7.81-7.81 22.792-11.824 33.461-8.965L435.56 269.797c10.67 2.859 12.987 11.508 5.177 19.318L-96.664 826.517c-7.811 7.81-22.792 11.824-33.461 8.965l-431.556-115.635c-10.67-2.859-12.987-11.508-5.177-19.318l537.401-537.402z" fill="#fff" fill-opacity=".8"/><path d="M357.969 277.125c-.324.096-.533.324-.467.508s.382.255.706.159l.016-.005c.324-.096.533-.324.467-.508s-.382-.255-.706-.159l-.016.005z" stroke="#2AC3A2" stroke-linecap="round" stroke-linejoin="round"/><path d="M356.72 267.804c8.08-1.466 15.035.397 17.387 4.659M356.782 271.049c5.387-.978 10.603.42 12.171 3.261M357.598 274.091c2.847-.367 5.02.216 6.085 1.631" stroke="#2AC3A2" stroke-width="2" stroke-linejoin="round"/><path d="M375.003 281.364l-2.121 2.122m28.182-8.587l-12.727 12.728 12.727-12.728zm-8.848 2.112l-9.192 9.192 9.192-9.192zm-8.365 2.241l-5.657 5.657 5.657-5.657z" stroke="#2AC3A2" stroke-width="2"/><path d="M419.4 281.426l-.707.707.966.259 1.642.44-4.313 4.313-6.762-1.812 4.313-4.313 1.643.44.965.259.708-.707.565-.566 1.546.414-.566.566z" fill="#B3FFE3" fill-opacity=".2" stroke="#2AC3A2" stroke-width="2"/><path d="M411.26 292.873l-6.761-1.812 4.313-4.314 6.762 1.812-4.314 4.314z" fill="#2AC3A2" stroke="#2AC3A2" stroke-width="2"/><path transform="matrix(.96593 .25882 -.7071 .7071 -14.623 149.201)" stroke="#2AC3A2" stroke-width="2" d="M.259.966h484.78v48H.259z"/><rect x=".259" y=".966" width="348.78" height="33" rx="9" transform="matrix(.96593 .25882 -.7071 .7071 -35.963 195.036)" stroke="#2AC3A2" stroke-width="2"/><rect x=".259" y=".966" width="16" height="16" rx="1" transform="matrix(.96593 .25882 -.7071 .7071 325.832 299.6)" stroke="#2AC3A2" stroke-width="2"/><path transform="matrix(.96593 .25882 -.7071 .7071 369.384 313.928)" stroke="#2AC3A2" stroke-width="2" d="M0-1h18"/><path transform="matrix(.96593 .25882 -.7071 .7071 365.141 318.171)" stroke="#2AC3A2" stroke-width="2" d="M0-1h18"/><path transform="matrix(.96593 .25882 -.7071 .7071 360.898 322.414)" stroke="#2AC3A2" stroke-width="2" d="M0-1h18"/><path transform="matrix(.96593 .25882 -.7071 .7071 -51.361 184.125)" stroke="#2AC3A2" stroke-width="2" d="M-.259-.966h488.78v52H-.259z"/><rect x=".259" y=".966" width="55.667" height="23" rx="11.5" transform="matrix(.96593 .25882 -.7071 .7071 -7.031 285.722)" fill="#B3FFE3" fill-opacity=".3" stroke="#2AC3A2" stroke-width="2"/><rect x=".259" y=".966" width="55.667" height="23" rx="11.5" transform="matrix(.96593 .25882 -.7071 .7071 58.33 303.235)" fill="#B3FFE3" fill-opacity=".3" stroke="#2AC3A2" stroke-width="2"/><path transform="matrix(.96593 .25882 -.7071 .7071 -107.748 303.564)" fill="#fff" fill-opacity=".5" stroke="#2AC3A2" stroke-width="2" d="M.259.966h384.78v423H.259z"/></g><path d="M1.176 156.99l431.556 115.635 5.657-5.657L6.832 151.333l-5.656 5.657zm435.697 131.09l-537.401 537.401 7.727 2.071L444.6 290.151l-7.727-2.071zm-564.17 544.574l-431.556-115.635-5.657 5.657 431.557 115.635 5.656-5.657zm-435.697-131.09l537.401-537.401-7.727-2.071-537.401 537.401 7.727 2.071zm4.141 15.455c-8.535-2.287-10.389-9.207-4.141-15.455l-7.727-2.071c-9.373 9.373-6.592 19.752 6.211 23.183l5.657-5.657zm458.325 108.462c-6.248 6.249-18.233 9.46-26.769 7.173l-5.656 5.657c12.803 3.43 30.78-1.387 40.152-10.759l-7.727-2.071zm533.26-552.856c8.535 2.287 10.389 9.207 4.141 15.455l7.727 2.071c9.373-9.373 6.592-19.752-6.211-23.183l-5.657 5.657zM6.832 151.333c-12.803-3.43-30.78 1.387-40.152 10.759l7.727 2.071c6.248-6.249 18.233-9.46 26.769-7.173l5.656-5.657z" fill="#2AC3A2"/><path d="M1998.54 15.412c7.81-7.81 22.79-11.824 33.46-8.966l431.56 115.635c10.67 2.859 12.99 11.508 5.18 19.319l-537.41 537.401c-7.81 7.81-22.79 11.825-33.46 8.966l-431.55-115.635c-10.67-2.859-12.99-11.508-5.18-19.319l537.4-537.4z" fill="#FF9AA2" fill-opacity=".2"/><path d="M2029.18 9.275l431.55 115.635 5.66-5.657L2034.83 3.618l-5.65 5.657zm435.69 131.09l-537.4 537.401 7.73 2.07 537.4-537.401-7.73-2.07zM1900.7 684.938l-431.55-115.635-5.66 5.657 431.56 115.635 5.65-5.657zm-435.69-131.089l537.4-537.402-7.73-2.07-537.4 537.401 7.73 2.071zm4.14 15.454c-8.54-2.287-10.39-9.206-4.14-15.454l-7.73-2.071c-9.37 9.373-6.59 19.752 6.21 23.182l5.66-5.657zm458.32 108.463c-6.25 6.248-18.23 9.459-26.77 7.172l-5.65 5.657c12.8 3.431 30.78-1.386 40.15-10.759l-7.73-2.07zm533.26-552.856c8.54 2.287 10.39 9.206 4.14 15.455l7.73 2.07c9.37-9.372 6.59-19.752-6.21-23.182l-5.66 5.657zM2034.83 3.618c-12.8-3.43-30.78 1.386-40.15 10.759l7.73 2.07c6.25-6.248 18.23-9.46 26.77-7.172l5.65-5.657z" fill="#2AC3A2"/><g clip-path="url(#clip12)"><path d="M1998.54-51.683c7.81-7.81 22.79-11.824 33.46-8.965l431.56 115.635c10.67 2.859 12.99 11.508 5.18 19.318l-537.4 537.402c-7.81 7.81-22.8 11.824-33.47 8.965l-431.55-115.635c-10.67-2.859-12.99-11.508-5.18-19.318l537.4-537.402z" fill="#fff" fill-opacity=".6"/></g><path d="M2029.18-57.82l431.55 115.635 5.66-5.657-431.56-115.635-5.65 5.657zm435.69 131.09l-537.4 537.401 7.73 2.071 537.4-537.401-7.73-2.07zM1900.7 617.844l-431.55-115.635-5.66 5.657 431.56 115.635 5.65-5.657zm-435.69-131.09l537.4-537.401-7.73-2.07-537.4 537.4 7.73 2.071zm4.14 15.455c-8.54-2.287-10.39-9.207-4.14-15.455l-7.73-2.071c-9.37 9.373-6.59 19.752 6.21 23.183l5.66-5.657zm458.32 108.462c-6.25 6.249-18.23 9.46-26.77 7.173l-5.65 5.657c12.8 3.43 30.78-1.387 40.15-10.759l-7.73-2.071zm533.26-552.856c8.54 2.287 10.39 9.207 4.14 15.455l7.73 2.07c9.37-9.372 6.59-19.751-6.21-23.182l-5.66 5.657zm-425.9-121.292c-12.8-3.43-30.78 1.387-40.15 10.76l7.73 2.07c6.25-6.249 18.23-9.46 26.77-7.173l5.65-5.657z" fill="#2AC3A2"/><g clip-path="url(#clip13)"><path d="M1998.54-118.778c7.81-7.81 22.79-11.824 33.46-8.965l431.56 115.635c10.67 2.859 12.99 11.508 5.18 19.318l-537.4 537.402c-7.81 7.81-22.8 11.824-33.47 8.965l-431.55-115.635c-10.67-2.859-12.99-11.508-5.18-19.318l537.4-537.402z" fill="#fff" fill-opacity=".8"/><rect x=".259" y=".966" width="266" height="3" rx="1.5" transform="matrix(.96593 .25882 -.7071 .7071 1563.96 450.687)" fill="#B3FFE3" fill-opacity=".5" stroke="#2AC3A2" stroke-width="2"/><path transform="matrix(.96593 .25882 -.7071 .7071 1463.99 414.872)" stroke="#2AC3A2" stroke-width="2" d="M-.259-.966h488.78v27H-.259z"/></g><path d="M2029.18-124.915L2460.73-9.28l5.66-5.657-431.56-115.635-5.65 5.657zm435.69 131.09l-537.4 537.401 7.73 2.071L2472.6 8.246l-7.73-2.07zM1900.7 550.75l-431.55-115.635-5.66 5.657 431.56 115.635 5.65-5.657zm-435.69-131.09l537.4-537.401-7.73-2.071-537.4 537.401 7.73 2.071zm4.14 15.455c-8.54-2.287-10.39-9.207-4.14-15.455l-7.73-2.071c-9.37 9.373-6.59 19.752 6.21 23.183l5.66-5.657zm458.32 108.462c-6.25 6.249-18.23 9.46-26.77 7.173l-5.65 5.657c12.8 3.43 30.78-1.387 40.15-10.759l-7.73-2.071zM2460.73-9.28c8.54 2.287 10.39 9.207 4.14 15.455l7.73 2.07c9.37-9.372 6.59-19.75-6.21-23.182l-5.66 5.657zm-425.9-121.292c-12.8-3.43-30.78 1.387-40.15 10.759l7.73 2.071c6.25-6.249 18.23-9.46 26.77-7.173l5.65-5.657z" fill="#2AC3A2"/><g clip-path="url(#clip14)"><path d="M1998.54-185.873c7.81-7.81 22.79-11.824 33.46-8.965l431.56 115.635c10.67 2.859 12.99 11.508 5.18 19.318l-537.4 537.402c-7.81 7.81-22.8 11.824-33.47 8.965l-431.55-115.635c-10.67-2.859-12.99-11.508-5.18-19.318l537.4-537.402z" fill="#fff" fill-opacity=".8"/><path transform="matrix(.96593 .25882 -.7071 .7071 1920.25 -45.436)" fill="#fff" fill-opacity=".5" stroke="#2AC3A2" stroke-width="2" d="M.259.966h384.78v423H.259z"/><path transform="matrix(.96593 .25882 -.7071 .7071 1602.05 272.762)" fill="#B3FFE3" fill-opacity=".3" stroke="#2AC3A2" stroke-width="2" d="M.259.966h384.78v23H.259z"/><path transform="matrix(.96593 .25882 -.7071 .7071 1577.31 297.51)" fill="#B3FFE3" fill-opacity=".3" stroke="#2AC3A2" stroke-width="2" d="M.259.966h177.78v23H.259z"/><rect x=".259" y=".966" width="266" height="3" rx="1.5" transform="matrix(.96593 .25882 -.7071 .7071 1563.96 383.592)" fill="#B3FFE3" fill-opacity=".5" stroke="#2AC3A2" stroke-width="2"/><path transform="matrix(.96593 .25882 -.7071 .7071 1463.99 347.777)" stroke="#2AC3A2" stroke-width="2" d="M-.259-.966h488.78v27H-.259z"/></g><path d="M2029.18-192.01l431.55 115.635 5.66-5.656-431.56-115.636-5.65 5.657zm435.69 131.09l-537.4 537.401 7.73 2.071 537.4-537.401-7.73-2.07zM1900.7 483.654l-431.55-115.635-5.66 5.657 431.56 115.635 5.65-5.657zm-435.69-131.09l537.4-537.401-7.73-2.071-537.4 537.401 7.73 2.071zm4.14 15.455c-8.54-2.287-10.39-9.207-4.14-15.455l-7.73-2.071c-9.37 9.373-6.59 19.752 6.21 23.183l5.66-5.657zm458.32 108.462c-6.25 6.249-18.23 9.46-26.77 7.173l-5.65 5.657c12.8 3.43 30.78-1.387 40.15-10.759l-7.73-2.071zm533.26-552.856c8.54 2.287 10.39 9.207 4.14 15.455l7.73 2.07c9.37-9.372 6.59-19.75-6.21-23.181l-5.66 5.656zm-425.9-121.292c-12.8-3.43-30.78 1.387-40.15 10.759l7.73 2.071c6.25-6.249 18.23-9.46 26.77-7.173l5.65-5.657z" fill="#2AC3A2"/><path d="M1304.54 810.412c7.81-7.81 22.79-11.824 33.46-8.966l431.56 115.635c10.67 2.859 12.99 11.508 5.18 19.319l-537.41 537.4c-7.81 7.81-22.79 11.83-33.46 8.97l-431.551-115.64c-10.67-2.86-12.987-11.51-5.177-19.32l537.398-537.398z" fill="#FF9AA2" fill-opacity=".2"/><path d="M1335.18 804.275l431.55 115.635 5.66-5.657-431.56-115.635-5.65 5.657zm435.69 131.09l-537.4 537.405 7.73 2.07 537.4-537.405-7.73-2.07zM1206.7 1479.94L775.147 1364.3l-5.657 5.66 431.56 115.64 5.65-5.66zm-435.694-131.09l537.404-537.403-7.73-2.07-537.401 537.403 7.727 2.07zm4.141 15.45c-8.535-2.28-10.389-9.2-4.141-15.45l-7.727-2.07c-9.373 9.37-6.592 19.75 6.211 23.18l5.657-5.66zm458.323 108.47c-6.25 6.24-18.23 9.46-26.77 7.17l-5.65 5.66c12.8 3.43 30.78-1.39 40.15-10.76l-7.73-2.07zm533.26-552.86c8.54 2.287 10.39 9.206 4.14 15.455l7.73 2.07c9.37-9.372 6.59-19.752-6.21-23.182l-5.66 5.657zm-425.9-121.292c-12.8-3.431-30.78 1.386-40.15 10.759l7.73 2.07c6.25-6.248 18.23-9.459 26.77-7.172l5.65-5.657z" fill="#2AC3A2"/><g clip-path="url(#clip15)"><path d="M1304.54 743.317c7.81-7.81 22.79-11.824 33.46-8.965l431.56 115.635c10.67 2.859 12.99 11.508 5.18 19.318l-537.4 537.405c-7.81 7.81-22.8 11.82-33.47 8.96l-431.551-115.63c-10.67-2.86-12.987-11.51-5.177-19.32l537.398-537.403z" fill="#fff" fill-opacity=".6"/><path d="M1691.97 857.315c-.32.096-.53.323-.47.508.07.184.38.255.71.159l.01-.005c.33-.096.54-.324.47-.508-.07-.184-.38-.256-.71-.159l-.01.005z" stroke="#2AC3A2" stroke-linecap="round" stroke-linejoin="round"/><path d="M1690.72 847.994c8.08-1.466 15.03.397 17.39 4.659M1690.78 851.238c5.39-.977 10.61.42 12.17 3.261M1691.6 854.281c2.84-.367 5.02.215 6.08 1.63" stroke="#2AC3A2" stroke-width="2" stroke-linejoin="round"/><path d="M1709 861.554l-2.12 2.122m28.18-8.587l-12.72 12.728 12.72-12.728zm-8.84 2.112l-9.2 9.192 9.2-9.192zm-8.37 2.241l-5.66 5.657 5.66-5.657z" stroke="#2AC3A2" stroke-width="2"/><path d="M1753.4 861.616l-.71.707.97.259 1.64.44-4.31 4.313-6.76-1.812 4.31-4.313 1.64.44.97.259.7-.708.57-.565 1.55.414-.57.566z" fill="#B3FFE3" fill-opacity=".2" stroke="#2AC3A2" stroke-width="2"/><path d="M1745.26 873.062l-6.76-1.811 4.31-4.314 6.76 1.812-4.31 4.313z" fill="#2AC3A2" stroke="#2AC3A2" stroke-width="2"/><path transform="matrix(.96593 .25882 -.7071 .7071 1319.38 729.391)" stroke="#2AC3A2" stroke-width="2" d="M.259.966h484.78v48H.259z"/></g><path d="M1335.18 737.18l431.55 115.635 5.66-5.657-431.56-115.635-5.65 5.657zm435.69 131.09l-537.4 537.4 7.73 2.07 537.4-537.399-7.73-2.071zm-564.17 544.57l-431.553-115.63-5.657 5.66 431.56 115.63 5.65-5.66zm-435.694-131.09l537.404-537.397-7.73-2.071-537.401 537.398 7.727 2.07zm4.141 15.46c-8.535-2.29-10.389-9.21-4.141-15.46l-7.727-2.07c-9.373 9.38-6.592 19.75 6.211 23.19l5.657-5.66zm458.323 108.46c-6.25 6.25-18.23 9.46-26.77 7.17l-5.65 5.66c12.8 3.43 30.78-1.39 40.15-10.76l-7.73-2.07zm533.26-552.855c8.54 2.287 10.39 9.207 4.14 15.455l7.73 2.071c9.37-9.373 6.59-19.752-6.21-23.183l-5.66 5.657zm-425.9-121.292c-12.8-3.43-30.78 1.386-40.15 10.759l7.73 2.071c6.25-6.249 18.23-9.46 26.77-7.173l5.65-5.657z" fill="#2AC3A2"/><g clip-path="url(#clip16)"><path d="M1304.54 676.222c7.81-7.81 22.79-11.824 33.46-8.965l431.56 115.635c10.67 2.859 12.99 11.508 5.18 19.318l-537.4 537.4c-7.81 7.81-22.8 11.83-33.47 8.97l-431.551-115.64c-10.67-2.86-12.987-11.51-5.177-19.32l537.398-537.398z" fill="#fff" fill-opacity=".8"/><path d="M1691.97 790.22c-.32.096-.53.324-.47.508.07.184.38.255.71.159l.01-.005c.33-.096.54-.324.47-.508-.07-.184-.38-.255-.71-.159l-.01.005z" stroke="#2AC3A2" stroke-linecap="round" stroke-linejoin="round"/><path d="M1690.72 780.899c8.08-1.466 15.03.397 17.39 4.659M1690.78 784.143c5.39-.977 10.61.421 12.17 3.261M1691.6 787.186c2.84-.367 5.02.216 6.08 1.631" stroke="#2AC3A2" stroke-width="2" stroke-linejoin="round"/><path d="M1709 794.459l-2.12 2.122m28.18-8.587l-12.72 12.728 12.72-12.728zm-8.84 2.112l-9.2 9.192 9.2-9.192zm-8.37 2.241l-5.66 5.657 5.66-5.657z" stroke="#2AC3A2" stroke-width="2"/><path d="M1753.4 794.521l-.71.707.97.259 1.64.44-4.31 4.313-6.76-1.812 4.31-4.313 1.64.44.97.259.7-.707.57-.566 1.55.414-.57.566z" fill="#B3FFE3" fill-opacity=".2" stroke="#2AC3A2" stroke-width="2"/><path d="M1745.26 805.968l-6.76-1.812 4.31-4.313 6.76 1.811-4.31 4.314z" fill="#2AC3A2" stroke="#2AC3A2" stroke-width="2"/><path transform="matrix(.96593 .25882 -.7071 .7071 1319.38 662.296)" stroke="#2AC3A2" stroke-width="2" d="M.259.966h484.78v48H.259z"/><rect x=".259" y=".966" width="348.78" height="33" rx="9" transform="matrix(.96593 .25882 -.7071 .7071 1298.04 708.131)" stroke="#2AC3A2" stroke-width="2"/><rect x=".259" y=".966" width="16" height="16" rx="1" transform="matrix(.96593 .25882 -.7071 .7071 1659.83 812.695)" stroke="#2AC3A2" stroke-width="2"/><path transform="matrix(.96593 .25882 -.7071 .7071 1703.38 827.024)" stroke="#2AC3A2" stroke-width="2" d="M0-1h18"/><path transform="matrix(.96593 .25882 -.7071 .7071 1699.14 831.266)" stroke="#2AC3A2" stroke-width="2" d="M0-1h18"/><path transform="matrix(.96593 .25882 -.7071 .7071 1694.9 835.509)" stroke="#2AC3A2" stroke-width="2" d="M0-1h18"/><path transform="matrix(.96593 .25882 -.7071 .7071 1282.64 697.22)" stroke="#2AC3A2" stroke-width="2" d="M-.259-.966h488.78v52H-.259z"/></g><path d="M1335.18 670.085l431.55 115.635 5.66-5.657-431.56-115.635-5.65 5.657zm435.69 131.09l-537.4 537.405 7.73 2.07 537.4-537.404-7.73-2.071zM1206.7 1345.75l-431.553-115.64-5.657 5.66 431.56 115.64 5.65-5.66zm-435.694-131.09l537.404-537.402-7.73-2.071-537.401 537.403 7.727 2.07zm4.141 15.45c-8.535-2.28-10.389-9.2-4.141-15.45l-7.727-2.07c-9.373 9.37-6.592 19.75 6.211 23.18l5.657-5.66zm458.323 108.47c-6.25 6.24-18.23 9.46-26.77 7.17l-5.65 5.66c12.8 3.43 30.78-1.39 40.15-10.76l-7.73-2.07zm533.26-552.86c8.54 2.287 10.39 9.207 4.14 15.455l7.73 2.071c9.37-9.373 6.59-19.752-6.21-23.183l-5.66 5.657zm-425.9-121.292c-12.8-3.43-30.78 1.387-40.15 10.759l7.73 2.071c6.25-6.249 18.23-9.46 26.77-7.173l5.65-5.657z" fill="#2AC3A2"/><g clip-path="url(#clip17)"><path d="M1304.54 609.127c7.81-7.81 22.79-11.824 33.46-8.965l431.56 115.635c10.67 2.859 12.99 11.508 5.18 19.318l-537.4 537.405c-7.81 7.81-22.8 11.82-33.47 8.96l-431.551-115.63c-10.67-2.86-12.987-11.51-5.177-19.32l537.398-537.403z" fill="#fff" fill-opacity=".8"/><path d="M1691.97 723.125c-.32.096-.53.324-.47.508.07.184.38.255.71.159l.01-.005c.33-.096.54-.324.47-.508-.07-.184-.38-.255-.71-.159l-.01.005z" stroke="#2AC3A2" stroke-linecap="round" stroke-linejoin="round"/><path d="M1690.72 713.804c8.08-1.466 15.03.397 17.39 4.659M1690.78 717.048c5.39-.977 10.61.421 12.17 3.261M1691.6 720.091c2.84-.367 5.02.216 6.08 1.631" stroke="#2AC3A2" stroke-width="2" stroke-linejoin="round"/><path d="M1709 727.364l-2.12 2.122m28.18-8.587l-12.72 12.728 12.72-12.728zm-8.84 2.112l-9.2 9.192 9.2-9.192zm-8.37 2.241l-5.66 5.657 5.66-5.657z" stroke="#2AC3A2" stroke-width="2"/><path d="M1753.4 727.426l-.71.707.97.259 1.64.44-4.31 4.313-6.76-1.812 4.31-4.313 1.64.44.97.259.7-.707.57-.566 1.55.414-.57.566z" fill="#B3FFE3" fill-opacity=".2" stroke="#2AC3A2" stroke-width="2"/><path d="M1745.26 738.873l-6.76-1.812 4.31-4.313 6.76 1.811-4.31 4.314z" fill="#2AC3A2" stroke="#2AC3A2" stroke-width="2"/><path transform="matrix(.96593 .25882 -.7071 .7071 1319.38 595.201)" stroke="#2AC3A2" stroke-width="2" d="M.259.966h484.78v48H.259z"/><rect x=".259" y=".966" width="348.78" height="33" rx="9" transform="matrix(.96593 .25882 -.7071 .7071 1298.04 641.036)" stroke="#2AC3A2" stroke-width="2"/><rect x=".259" y=".966" width="16" height="16" rx="1" transform="matrix(.96593 .25882 -.7071 .7071 1659.83 745.6)" stroke="#2AC3A2" stroke-width="2"/><path transform="matrix(.96593 .25882 -.7071 .7071 1703.38 759.929)" stroke="#2AC3A2" stroke-width="2" d="M0-1h18"/><path transform="matrix(.96593 .25882 -.7071 .7071 1699.14 764.171)" stroke="#2AC3A2" stroke-width="2" d="M0-1h18"/><path transform="matrix(.96593 .25882 -.7071 .7071 1694.9 768.414)" stroke="#2AC3A2" stroke-width="2" d="M0-1h18"/><path transform="matrix(.96593 .25882 -.7071 .7071 1282.64 630.125)" stroke="#2AC3A2" stroke-width="2" d="M-.259-.966h488.78v52H-.259z"/><rect x=".259" y=".966" width="55.667" height="23" rx="11.5" transform="matrix(.96593 .25882 -.7071 .7071 1261.61 714.208)" fill="#B3FFE3" fill-opacity=".3" stroke="#2AC3A2" stroke-width="2"/><rect x=".259" y=".966" width="55.667" height="23" rx="11.5" transform="matrix(.96593 .25882 -.7071 .7071 1326.97 731.722)" fill="#B3FFE3" fill-opacity=".3" stroke="#2AC3A2" stroke-width="2"/><rect x=".259" y=".966" width="55.667" height="23" rx="11.5" transform="matrix(.96593 .25882 -.7071 .7071 1392.33 749.235)" fill="#B3FFE3" fill-opacity=".3" stroke="#2AC3A2" stroke-width="2"/><path transform="matrix(.96593 .25882 -.7071 .7071 1226.25 749.564)" fill="#fff" fill-opacity=".5" stroke="#2AC3A2" stroke-width="2" d="M.259.966h384.78v423H.259z"/><path transform="matrix(.96593 .25882 -.7071 .7071 908.055 1067.76)" fill="#B3FFE3" fill-opacity=".3" stroke="#2AC3A2" stroke-width="2" d="M.259.966h384.78v23H.259z"/></g><path d="M1335.18 602.99l431.55 115.635 5.66-5.657-431.56-115.635-5.65 5.657zm435.69 131.09l-537.4 537.4 7.73 2.07 537.4-537.399-7.73-2.071zm-564.17 544.57l-431.553-115.63-5.657 5.66 431.56 115.63 5.65-5.66zm-435.694-131.09l537.404-537.397-7.73-2.071-537.401 537.398 7.727 2.07zm4.141 15.46c-8.535-2.29-10.389-9.21-4.141-15.46l-7.727-2.07c-9.373 9.38-6.592 19.75 6.211 23.19l5.657-5.66zm458.323 108.46c-6.25 6.25-18.23 9.46-26.77 7.17l-5.65 5.66c12.8 3.43 30.78-1.39 40.15-10.76l-7.73-2.07zm533.26-552.855c8.54 2.287 10.39 9.207 4.14 15.455l7.73 2.071c9.37-9.373 6.59-19.752-6.21-23.183l-5.66 5.657zm-425.9-121.292c-12.8-3.43-30.78 1.387-40.15 10.759l7.73 2.071c6.25-6.249 18.23-9.46 26.77-7.173l5.65-5.657z" fill="#2AC3A2"/><path d="M2131.54 920.412c7.81-7.81 22.79-11.824 33.46-8.966l431.56 115.634c10.67 2.86 12.99 11.51 5.18 19.32l-537.41 537.4c-7.81 7.81-22.79 11.83-33.46 8.97l-431.55-115.64c-10.67-2.86-12.99-11.51-5.18-19.32l537.4-537.398z" fill="#FF9AA2" fill-opacity=".2"/><path d="M2162.18 914.275l431.55 115.635 5.66-5.66-431.56-115.632-5.65 5.657zm435.69 131.085l-537.4 537.41 7.73 2.07 537.4-537.4-7.73-2.08zm-564.17 544.58l-431.55-115.64-5.66 5.66 431.56 115.64 5.65-5.66zm-435.69-131.09l537.4-537.403-7.73-2.07-537.4 537.403 7.73 2.07zm4.14 15.45c-8.54-2.28-10.39-9.2-4.14-15.45l-7.73-2.07c-9.37 9.37-6.59 19.75 6.21 23.18l5.66-5.66zm458.32 108.47c-6.25 6.24-18.23 9.46-26.77 7.17l-5.65 5.66c12.8 3.43 30.78-1.39 40.15-10.76l-7.73-2.07zm533.26-552.86c8.54 2.29 10.39 9.21 4.14 15.45l7.73 2.08c9.37-9.38 6.59-19.76-6.21-23.19l-5.66 5.66zm-425.9-121.292c-12.8-3.431-30.78 1.386-40.15 10.759l7.73 2.07c6.25-6.248 18.23-9.459 26.77-7.172l5.65-5.657z" fill="#2AC3A2"/><g clip-path="url(#clip18)"><path d="M2131.54 853.317c7.81-7.81 22.79-11.824 33.46-8.965l431.56 115.635c10.67 2.859 12.99 11.508 5.18 19.318l-537.4 537.405c-7.81 7.81-22.8 11.82-33.47 8.96l-431.55-115.63c-10.67-2.86-12.99-11.51-5.18-19.32l537.4-537.403z" fill="#fff" fill-opacity=".6"/></g><path d="M2162.18 847.18l431.55 115.635 5.66-5.657-431.56-115.635-5.65 5.657zm435.69 131.09l-537.4 537.4 7.73 2.07 537.4-537.399-7.73-2.071zm-564.17 544.57l-431.55-115.63-5.66 5.66 431.56 115.63 5.65-5.66zm-435.69-131.09l537.4-537.397-7.73-2.071-537.4 537.398 7.73 2.07zm4.14 15.46c-8.54-2.29-10.39-9.21-4.14-15.46l-7.73-2.07c-9.37 9.38-6.59 19.75 6.21 23.19l5.66-5.66zm458.32 108.46c-6.25 6.25-18.23 9.46-26.77 7.17l-5.65 5.66c12.8 3.43 30.78-1.39 40.15-10.76l-7.73-2.07zm533.26-552.855c8.54 2.287 10.39 9.207 4.14 15.455l7.73 2.071c9.37-9.373 6.59-19.752-6.21-23.183l-5.66 5.657zm-425.9-121.292c-12.8-3.43-30.78 1.386-40.15 10.759l7.73 2.071c6.25-6.249 18.23-9.46 26.77-7.173l5.65-5.657z" fill="#2AC3A2"/><g clip-path="url(#clip19)"><path d="M2131.54 786.222c7.81-7.81 22.79-11.824 33.46-8.965l431.56 115.635c10.67 2.859 12.99 11.508 5.18 19.318l-537.4 537.4c-7.81 7.81-22.8 11.83-33.47 8.97l-431.55-115.64c-10.67-2.86-12.99-11.51-5.18-19.32l537.4-537.398z" fill="#fff" fill-opacity=".8"/></g><path d="M2162.18 780.085l431.55 115.635 5.66-5.657-431.56-115.635-5.65 5.657zm435.69 131.09l-537.4 537.405 7.73 2.07 537.4-537.404-7.73-2.071zM2033.7 1455.75l-431.55-115.64-5.66 5.66 431.56 115.64 5.65-5.66zm-435.69-131.09l537.4-537.402-7.73-2.071-537.4 537.403 7.73 2.07zm4.14 15.45c-8.54-2.28-10.39-9.2-4.14-15.45l-7.73-2.07c-9.37 9.37-6.59 19.75 6.21 23.18l5.66-5.66zm458.32 108.47c-6.25 6.24-18.23 9.46-26.77 7.17l-5.65 5.66c12.8 3.43 30.78-1.39 40.15-10.76l-7.73-2.07zm533.26-552.86c8.54 2.287 10.39 9.207 4.14 15.455l7.73 2.071c9.37-9.373 6.59-19.752-6.21-23.183l-5.66 5.657zm-425.9-121.292c-12.8-3.43-30.78 1.387-40.15 10.759l7.73 2.071c6.25-6.249 18.23-9.46 26.77-7.173l5.65-5.657z" fill="#2AC3A2"/><g clip-path="url(#clip20)" fill="#fff"><path d="M2131.54 719.127c7.81-7.81 22.79-11.824 33.46-8.965l431.56 115.635c10.67 2.859 12.99 11.508 5.18 19.318l-537.4 537.405c-7.81 7.81-22.8 11.82-33.47 8.96l-431.55-115.63c-10.67-2.86-12.99-11.51-5.18-19.32l537.4-537.403z" fill-opacity=".8"/><path transform="matrix(.96593 .25882 -.7071 .7071 2053.25 859.564)" fill-opacity=".5" stroke="#2AC3A2" stroke-width="2" d="M.259.966h384.78v423H.259z"/></g><path d="M2162.18 712.99l431.55 115.635 5.66-5.657-431.56-115.635-5.65 5.657zm435.69 131.09l-537.4 537.4 7.73 2.07 537.4-537.399-7.73-2.071zm-564.17 544.57l-431.55-115.63-5.66 5.66 431.56 115.63 5.65-5.66zm-435.69-131.09l537.4-537.397-7.73-2.071-537.4 537.398 7.73 2.07zm4.14 15.46c-8.54-2.29-10.39-9.21-4.14-15.46l-7.73-2.07c-9.37 9.38-6.59 19.75 6.21 23.19l5.66-5.66zm458.32 108.46c-6.25 6.25-18.23 9.46-26.77 7.17l-5.65 5.66c12.8 3.43 30.78-1.39 40.15-10.76l-7.73-2.07zm533.26-552.855c8.54 2.287 10.39 9.207 4.14 15.455l7.73 2.071c9.37-9.373 6.59-19.752-6.21-23.183l-5.66 5.657zm-425.9-121.292c-12.8-3.43-30.78 1.387-40.15 10.759l7.73 2.071c6.25-6.249 18.23-9.46 26.77-7.173l5.65-5.657z" fill="#2AC3A2"/><path d="M160.543 1074.41c7.811-7.81 22.792-11.82 33.461-8.96l431.555 115.63c10.67 2.86 12.987 11.51 5.177 19.32L93.335 1737.8c-7.81 7.81-22.792 11.83-33.461 8.97l-431.555-115.64c-10.67-2.86-12.987-11.51-5.177-19.32l537.401-537.4z" fill="#FF9AA2" fill-opacity=".2"/><path d="M191.176 1068.27l431.555 115.64 5.657-5.66-431.556-115.63-5.656 5.65zm435.696 131.09L89.471 1736.77l7.727 2.07 537.401-537.4-7.727-2.08zm-564.17 544.58l-431.555-115.64-5.657 5.66L57.045 1749.6l5.657-5.66zm-435.696-131.09l537.401-537.4-7.727-2.07-537.401 537.4 7.727 2.07zm4.141 15.45c-8.535-2.28-10.389-9.2-4.141-15.45l-7.727-2.07c-9.373 9.37-6.592 19.75 6.211 23.18l5.657-5.66zm458.324 108.47c-6.249 6.24-18.233 9.46-26.769 7.17l-5.657 5.66c12.804 3.43 30.78-1.39 40.153-10.76l-7.727-2.07zm533.26-552.86c8.535 2.29 10.389 9.21 4.141 15.45l7.727 2.08c9.373-9.38 6.592-19.76-6.211-23.19l-5.657 5.66zm-425.899-121.29c-12.803-3.43-30.78 1.38-40.152 10.76l7.727 2.07c6.249-6.25 18.233-9.46 26.769-7.18l5.656-5.65z" fill="#2AC3A2"/><g clip-path="url(#clip21)"><path d="M160.543 1007.32c7.811-7.813 22.792-11.827 33.461-8.968L625.56 1113.99c10.67 2.86 12.987 11.5 5.177 19.32l-537.401 537.4c-7.81 7.81-22.792 11.82-33.461 8.96l-431.556-115.63c-10.67-2.86-12.987-11.51-5.177-19.32l537.401-537.4z" fill="#fff" fill-opacity=".6"/><path transform="matrix(.96593 .25882 -.7071 .7071 175.377 993.391)" stroke="#2AC3A2" stroke-width="2" d="M.259.966h484.78v48H.259z"/></g><path d="M191.176 1001.18l431.556 115.64 5.657-5.66-431.557-115.637-5.656 5.657zm435.697 131.09l-537.401 537.4 7.727 2.07 537.401-537.4-7.727-2.07zm-564.17 544.57l-431.556-115.63-5.657 5.66L57.047 1682.5l5.656-5.66zm-435.697-131.09l537.401-537.4-7.727-2.07-537.401 537.4 7.727 2.07zm4.141 15.46c-8.535-2.29-10.389-9.21-4.141-15.46l-7.727-2.07c-9.373 9.38-6.592 19.75 6.211 23.19l5.657-5.66zm458.325 108.46c-6.248 6.25-18.233 9.46-26.769 7.17l-5.656 5.66c12.803 3.43 30.78-1.39 40.152-10.76l-7.727-2.07zm533.26-552.85c8.535 2.28 10.389 9.2 4.141 15.45l7.727 2.07c9.373-9.37 6.592-19.75-6.211-23.18l-5.657 5.66zm-425.9-121.297c-12.803-3.43-30.78 1.386-40.152 10.757l7.727 2.07c6.249-6.25 18.233-9.457 26.769-7.17l5.656-5.657z" fill="#2AC3A2"/><g clip-path="url(#clip22)"><path d="M160.543 940.222c7.811-7.81 22.792-11.824 33.461-8.965L625.56 1046.89c10.67 2.86 12.987 11.51 5.177 19.32l-537.401 537.4c-7.81 7.81-22.792 11.83-33.461 8.97l-431.556-115.64c-10.67-2.86-12.987-11.51-5.177-19.32l537.401-537.398z" fill="#fff" fill-opacity=".8"/><path d="M547.969 1054.22c-.324.1-.533.32-.467.51.066.18.382.25.706.16l.016-.01c.324-.09.533-.32.467-.51-.066-.18-.382-.25-.706-.15h-.016z" stroke="#2AC3A2" stroke-linecap="round" stroke-linejoin="round"/><path d="M546.72 1044.9c8.08-1.47 15.035.4 17.387 4.66M546.783 1048.14c5.386-.97 10.602.42 12.171 3.26M547.598 1051.19c2.847-.37 5.02.21 6.085 1.63" stroke="#2AC3A2" stroke-width="2" stroke-linejoin="round"/><path d="M565.003 1058.46l-2.121 2.12m28.183-8.59l-12.728 12.73 12.728-12.73zm-8.848 2.12l-9.193 9.19 9.193-9.19zm-8.366 2.24l-5.656 5.65 5.656-5.65z" stroke="#2AC3A2" stroke-width="2"/><path d="M609.4 1058.52l-.707.71.966.26 1.642.44-4.314 4.31-6.761-1.81 4.313-4.32 1.642.44.966.26.707-.7.566-.57 1.546.42-.566.56z" fill="#B3FFE3" fill-opacity=".2" stroke="#2AC3A2" stroke-width="2"/><path d="M601.26 1069.97l-6.762-1.81 4.314-4.32 6.761 1.81-4.313 4.32z" fill="#2AC3A2" stroke="#2AC3A2" stroke-width="2"/><path transform="matrix(.96593 .25882 -.7071 .7071 175.377 926.296)" stroke="#2AC3A2" stroke-width="2" d="M.259.966h484.78v48H.259z"/><rect x=".259" y=".966" width="348.78" height="33" rx="9" transform="matrix(.96593 .25882 -.7071 .7071 154.037 972.131)" stroke="#2AC3A2" stroke-width="2"/><rect x=".259" y=".966" width="16" height="16" rx="1" transform="matrix(.96593 .25882 -.7071 .7071 515.832 1076.69)" stroke="#2AC3A2" stroke-width="2"/><path transform="matrix(.96593 .25882 -.7071 .7071 138.638 961.22)" stroke="#2AC3A2" stroke-width="2" d="M-.259-.966h488.78v52H-.259z"/></g><path d="M191.176 934.085l431.556 115.635 5.657-5.66-431.557-115.632-5.656 5.657zm435.697 131.095l-537.401 537.4 7.727 2.07 537.401-537.4-7.727-2.07zm-564.17 544.57l-431.556-115.64-5.657 5.66 431.557 115.64 5.656-5.66zm-435.697-131.09l537.401-537.402-7.727-2.071-537.401 537.403 7.727 2.07zm4.141 15.45c-8.535-2.28-10.389-9.2-4.141-15.45l-7.727-2.07c-9.373 9.37-6.592 19.75 6.211 23.18l5.657-5.66zm458.325 108.47c-6.248 6.24-18.233 9.46-26.769 7.17l-5.656 5.66c12.803 3.43 30.78-1.39 40.152-10.76l-7.727-2.07zm533.26-552.86c8.535 2.29 10.389 9.21 4.141 15.46l7.727 2.07c9.373-9.38 6.592-19.76-6.211-23.19l-5.657 5.66zm-425.9-121.292c-12.803-3.43-30.78 1.387-40.152 10.759l7.727 2.071c6.249-6.249 18.233-9.46 26.769-7.173l5.656-5.657z" fill="#2AC3A2"/><g clip-path="url(#clip23)"><path d="M160.543 873.127c7.811-7.81 22.792-11.824 33.461-8.965L625.56 979.797c10.67 2.859 12.987 11.508 5.177 19.318L93.336 1536.52c-7.81 7.81-22.792 11.82-33.461 8.96l-431.556-115.63c-10.67-2.86-12.987-11.51-5.177-19.32l537.401-537.403z" fill="#fff" fill-opacity=".8"/><path d="M547.969 987.125c-.324.096-.533.324-.467.508s.382.255.706.159l.016-.005c.324-.096.533-.324.467-.508s-.382-.255-.706-.159l-.016.005z" stroke="#2AC3A2" stroke-linecap="round" stroke-linejoin="round"/><path d="M546.72 977.804c8.08-1.466 15.035.397 17.387 4.659M546.783 981.048c5.386-.977 10.602.421 12.171 3.261M547.598 984.091c2.847-.367 5.02.216 6.085 1.631" stroke="#2AC3A2" stroke-width="2" stroke-linejoin="round"/><path d="M565.003 991.364l-2.121 2.122m28.183-8.587l-12.728 12.728 12.728-12.728zm-8.848 2.112l-9.193 9.192 9.193-9.192zm-8.366 2.241l-5.656 5.657 5.656-5.657z" stroke="#2AC3A2" stroke-width="2"/><path d="M609.4 991.426l-.707.707.966.259 1.642.44-4.314 4.313-6.761-1.812 4.313-4.313 1.642.44.966.259.707-.707.566-.566 1.546.414-.566.566z" fill="#B3FFE3" fill-opacity=".2" stroke="#2AC3A2" stroke-width="2"/><path d="M601.26 1002.87l-6.762-1.81 4.314-4.312 6.761 1.811-4.313 4.311z" fill="#2AC3A2" stroke="#2AC3A2" stroke-width="2"/><path transform="matrix(.96593 .25882 -.7071 .7071 175.377 859.201)" stroke="#2AC3A2" stroke-width="2" d="M.259.966h484.78v48H.259z"/><rect x=".259" y=".966" width="348.78" height="33" rx="9" transform="matrix(.96593 .25882 -.7071 .7071 154.037 905.036)" stroke="#2AC3A2" stroke-width="2"/><rect x=".259" y=".966" width="16" height="16" rx="1" transform="matrix(.96593 .25882 -.7071 .7071 515.832 1009.6)" stroke="#2AC3A2" stroke-width="2"/><path transform="matrix(.96593 .25882 -.7071 .7071 559.383 1023.93)" stroke="#2AC3A2" stroke-width="2" d="M0-1h18"/><path transform="matrix(.96593 .25882 -.7071 .7071 555.141 1028.17)" stroke="#2AC3A2" stroke-width="2" d="M0-1h18"/><path transform="matrix(.96593 .25882 -.7071 .7071 550.898 1032.41)" stroke="#2AC3A2" stroke-width="2" d="M0-1h18"/><path transform="matrix(.96593 .25882 -.7071 .7071 138.638 894.125)" stroke="#2AC3A2" stroke-width="2" d="M-.259-.966h488.78v52H-.259z"/><rect x=".259" y=".966" width="55.667" height="23" rx="11.5" transform="matrix(.96593 .25882 -.7071 .7071 117.608 978.208)" fill="#B3FFE3" fill-opacity=".3" stroke="#2AC3A2" stroke-width="2"/><rect x=".259" y=".966" width="55.667" height="23" rx="11.5" transform="matrix(.96593 .25882 -.7071 .7071 182.969 995.722)" fill="#B3FFE3" fill-opacity=".3" stroke="#2AC3A2" stroke-width="2"/><rect x=".259" y=".966" width="55.667" height="23" rx="11.5" transform="matrix(.96593 .25882 -.7071 .7071 248.33 1013.24)" fill="#B3FFE3" fill-opacity=".3" stroke="#2AC3A2" stroke-width="2"/><path transform="matrix(.96593 .25882 -.7071 .7071 82.252 1013.56)" fill="#fff" fill-opacity=".5" stroke="#2AC3A2" stroke-width="2" d="M.259.966h384.78v423H.259z"/></g><path d="M191.176 866.99l431.556 115.635 5.657-5.657-431.557-115.635-5.656 5.657zm435.697 131.09l-537.401 537.4 7.727 2.07 537.401-537.4-7.727-2.07zm-564.17 544.57l-431.556-115.63-5.657 5.66 431.557 115.63 5.656-5.66zm-435.697-131.09l537.401-537.397-7.727-2.071-537.401 537.398 7.727 2.07zm4.141 15.46c-8.535-2.29-10.389-9.21-4.141-15.46l-7.727-2.07c-9.373 9.38-6.592 19.75 6.211 23.19l5.657-5.66zm458.325 108.46c-6.248 6.25-18.233 9.46-26.769 7.17l-5.656 5.66c12.803 3.43 30.78-1.39 40.152-10.76l-7.727-2.07zm533.26-552.855c8.535 2.287 10.389 9.207 4.141 15.455l7.727 2.07c9.373-9.372 6.592-19.751-6.211-23.182l-5.657 5.657zm-425.9-121.292c-12.803-3.43-30.78 1.387-40.152 10.759l7.727 2.071c6.249-6.249 18.233-9.46 26.769-7.173l5.656-5.657z" fill="#2AC3A2"/></g><defs><clipPath id="clip0"><path fill="#fff" d="M0 0h1920v1080H0z"/></clipPath><clipPath id="clip1"><path d="M736.543-476.683c7.811-7.81 22.792-11.824 33.461-8.965l431.556 115.635c10.67 2.859 12.99 11.508 5.18 19.318L669.336 186.707c-7.811 7.81-22.792 11.824-33.461 8.965L204.319 80.037c-10.67-2.859-12.987-11.508-5.177-19.318l537.401-537.402z" fill="#fff"/></clipPath><clipPath id="clip2"><path d="M736.543-543.778c7.811-7.81 22.792-11.824 33.461-8.965l431.556 115.635c10.67 2.859 12.99 11.508 5.18 19.318L669.336 119.612c-7.811 7.81-22.792 11.824-33.461 8.965L204.319 12.942c-10.67-2.859-12.987-11.508-5.177-19.318l537.401-537.402z" fill="#fff"/></clipPath><clipPath id="clip3"><path d="M736.543-610.873c7.811-7.81 22.792-11.824 33.461-8.965l431.556 115.635c10.67 2.859 12.99 11.508 5.18 19.318L669.336 52.517c-7.811 7.81-22.792 11.824-33.461 8.965L204.319-54.153c-10.67-2.859-12.987-11.508-5.177-19.318l537.401-537.402z" fill="#fff"/></clipPath><clipPath id="clip4"><path d="M1615.54-555.683c7.81-7.81 22.79-11.824 33.46-8.965l431.56 115.635c10.67 2.859 12.99 11.508 5.18 19.318l-537.4 537.402c-7.81 7.81-22.8 11.824-33.47 8.965L1083.32 1.037c-10.67-2.859-12.99-11.508-5.18-19.318l537.4-537.402z" fill="#fff"/></clipPath><clipPath id="clip5"><path d="M1615.54-622.778c7.81-7.81 22.79-11.824 33.46-8.965l431.56 115.635c10.67 2.859 12.99 11.508 5.18 19.318l-537.4 537.402c-7.81 7.81-22.8 11.824-33.47 8.965L1083.32-66.058c-10.67-2.859-12.99-11.508-5.18-19.318l537.4-537.402z" fill="#fff"/></clipPath><clipPath id="clip6"><path d="M914.543 238.317c7.811-7.81 22.792-11.824 33.461-8.965l431.556 115.635c10.67 2.859 12.99 11.508 5.18 19.318L847.336 901.707c-7.811 7.81-22.792 11.824-33.461 8.965L382.319 795.037c-10.67-2.859-12.987-11.508-5.177-19.318l537.401-537.402z" fill="#fff"/></clipPath><clipPath id="clip7"><path d="M914.543 171.222c7.811-7.81 22.792-11.824 33.461-8.965l431.556 115.635c10.67 2.859 12.99 11.508 5.18 19.318L847.336 834.612c-7.811 7.81-22.792 11.824-33.461 8.965L382.319 727.942c-10.67-2.859-12.987-11.508-5.177-19.318l537.401-537.402z" fill="#fff"/></clipPath><clipPath id="clip8"><path d="M914.543 104.127c7.811-7.81 22.792-11.824 33.461-8.965l431.556 115.635c10.67 2.859 12.99 11.508 5.18 19.318L847.336 767.517c-7.811 7.81-22.792 11.824-33.461 8.965L382.319 660.847c-10.67-2.859-12.987-11.508-5.177-19.318l537.401-537.402z" fill="#fff"/></clipPath><clipPath id="clip9"><path d="M-29.457 297.317c7.81-7.81 22.792-11.824 33.461-8.965L435.56 403.987c10.67 2.859 12.987 11.508 5.177 19.318L-96.664 960.707c-7.811 7.81-22.792 11.824-33.461 8.965l-431.556-115.635c-10.67-2.859-12.987-11.508-5.177-19.318l537.401-537.402z" fill="#fff"/></clipPath><clipPath id="clip10"><path d="M-29.457 230.222c7.81-7.81 22.792-11.824 33.461-8.965L435.56 336.892c10.67 2.859 12.987 11.508 5.177 19.318L-96.664 893.612c-7.811 7.81-22.792 11.824-33.461 8.965l-431.556-115.635c-10.67-2.859-12.987-11.508-5.177-19.318l537.401-537.402z" fill="#fff"/></clipPath><clipPath id="clip11"><path d="M-29.457 163.127c7.81-7.81 22.792-11.824 33.461-8.965L435.56 269.797c10.67 2.859 12.987 11.508 5.177 19.318L-96.664 826.517c-7.811 7.81-22.792 11.824-33.461 8.965l-431.556-115.635c-10.67-2.859-12.987-11.508-5.177-19.318l537.401-537.402z" fill="#fff"/></clipPath><clipPath id="clip12"><path d="M1998.54-51.683c7.81-7.81 22.79-11.824 33.46-8.965l431.56 115.635c10.67 2.859 12.99 11.508 5.18 19.318l-537.4 537.402c-7.81 7.81-22.8 11.824-33.47 8.965l-431.55-115.635c-10.67-2.859-12.99-11.508-5.18-19.318l537.4-537.402z" fill="#fff"/></clipPath><clipPath id="clip13"><path d="M1998.54-118.778c7.81-7.81 22.79-11.824 33.46-8.965l431.56 115.635c10.67 2.859 12.99 11.508 5.18 19.318l-537.4 537.402c-7.81 7.81-22.8 11.824-33.47 8.965l-431.55-115.635c-10.67-2.859-12.99-11.508-5.18-19.318l537.4-537.402z" fill="#fff"/></clipPath><clipPath id="clip14"><path d="M1998.54-185.873c7.81-7.81 22.79-11.824 33.46-8.965l431.56 115.635c10.67 2.859 12.99 11.508 5.18 19.318l-537.4 537.402c-7.81 7.81-22.8 11.824-33.47 8.965l-431.55-115.635c-10.67-2.859-12.99-11.508-5.18-19.318l537.4-537.402z" fill="#fff"/></clipPath><clipPath id="clip15"><path d="M1304.54 743.317c7.81-7.81 22.79-11.824 33.46-8.965l431.56 115.635c10.67 2.859 12.99 11.508 5.18 19.318l-537.4 537.405c-7.81 7.81-22.8 11.82-33.47 8.96l-431.551-115.63c-10.67-2.86-12.987-11.51-5.177-19.32l537.398-537.403z" fill="#fff"/></clipPath><clipPath id="clip16"><path d="M1304.54 676.222c7.81-7.81 22.79-11.824 33.46-8.965l431.56 115.635c10.67 2.859 12.99 11.508 5.18 19.318l-537.4 537.4c-7.81 7.81-22.8 11.83-33.47 8.97l-431.551-115.64c-10.67-2.86-12.987-11.51-5.177-19.32l537.398-537.398z" fill="#fff"/></clipPath><clipPath id="clip17"><path d="M1304.54 609.127c7.81-7.81 22.79-11.824 33.46-8.965l431.56 115.635c10.67 2.859 12.99 11.508 5.18 19.318l-537.4 537.405c-7.81 7.81-22.8 11.82-33.47 8.96l-431.551-115.63c-10.67-2.86-12.987-11.51-5.177-19.32l537.398-537.403z" fill="#fff"/></clipPath><clipPath id="clip18"><path d="M2131.54 853.317c7.81-7.81 22.79-11.824 33.46-8.965l431.56 115.635c10.67 2.859 12.99 11.508 5.18 19.318l-537.4 537.405c-7.81 7.81-22.8 11.82-33.47 8.96l-431.55-115.63c-10.67-2.86-12.99-11.51-5.18-19.32l537.4-537.403z" fill="#fff"/></clipPath><clipPath id="clip19"><path d="M2131.54 786.222c7.81-7.81 22.79-11.824 33.46-8.965l431.56 115.635c10.67 2.859 12.99 11.508 5.18 19.318l-537.4 537.4c-7.81 7.81-22.8 11.83-33.47 8.97l-431.55-115.64c-10.67-2.86-12.99-11.51-5.18-19.32l537.4-537.398z" fill="#fff"/></clipPath><clipPath id="clip20"><path d="M2131.54 719.127c7.81-7.81 22.79-11.824 33.46-8.965l431.56 115.635c10.67 2.859 12.99 11.508 5.18 19.318l-537.4 537.405c-7.81 7.81-22.8 11.82-33.47 8.96l-431.55-115.63c-10.67-2.86-12.99-11.51-5.18-19.32l537.4-537.403z" fill="#fff"/></clipPath><clipPath id="clip21"><path d="M160.543 1007.32c7.811-7.813 22.792-11.827 33.461-8.968L625.56 1113.99c10.67 2.86 12.987 11.5 5.177 19.32l-537.401 537.4c-7.81 7.81-22.792 11.82-33.461 8.96l-431.556-115.63c-10.67-2.86-12.987-11.51-5.177-19.32l537.401-537.4z" fill="#fff"/></clipPath><clipPath id="clip22"><path d="M160.543 940.222c7.811-7.81 22.792-11.824 33.461-8.965L625.56 1046.89c10.67 2.86 12.987 11.51 5.177 19.32l-537.401 537.4c-7.81 7.81-22.792 11.83-33.461 8.97l-431.556-115.64c-10.67-2.86-12.987-11.51-5.177-19.32l537.401-537.398z" fill="#fff"/></clipPath><clipPath id="clip23"><path d="M160.543 873.127c7.811-7.81 22.792-11.824 33.461-8.965L625.56 979.797c10.67 2.859 12.987 11.508 5.177 19.318L93.336 1536.52c-7.81 7.81-22.792 11.82-33.461 8.96l-431.556-115.63c-10.67-2.86-12.987-11.51-5.177-19.32l537.401-537.403z" fill="#fff"/></clipPath></defs></svg>
