<svg width="1920" height="1080" viewBox="0 0 1920 1080" fill="none" xmlns="http://www.w3.org/2000/svg">
<g clip-path="url(#clip0)">
<rect width="1920" height="1080" fill="#B3FFE3"/>
<line x1="1920" y1="43.5" x2="0.00012207" y2="43.5" stroke="white"/>
<line x1="1920" y1="93.5002" x2="0.00012207" y2="93.5002" stroke="white"/>
<line x1="1920" y1="143.5" x2="0.00012207" y2="143.5" stroke="white"/>
<line x1="1920" y1="193.5" x2="0.00012207" y2="193.5" stroke="white"/>
<line x1="1920" y1="243.5" x2="0.00012207" y2="243.5" stroke="white"/>
<line x1="1920" y1="293.5" x2="0.00012207" y2="293.5" stroke="white"/>
<line x1="1920" y1="343.5" x2="0.00012207" y2="343.5" stroke="white"/>
<line x1="1920" y1="393.501" x2="0.00012207" y2="393.501" stroke="white"/>
<line x1="1920" y1="443.501" x2="0.00012207" y2="443.501" stroke="white"/>
<line x1="1920" y1="493.501" x2="0.00012207" y2="493.501" stroke="white"/>
<line x1="1920" y1="543.501" x2="0.00012207" y2="543.501" stroke="white"/>
<line x1="1920" y1="593.501" x2="0.00012207" y2="593.501" stroke="white"/>
<line x1="1920" y1="643.501" x2="0.00012207" y2="643.501" stroke="white"/>
<line x1="1920" y1="693.501" x2="0.00012207" y2="693.501" stroke="white"/>
<line x1="1920" y1="743.501" x2="0.00012207" y2="743.501" stroke="white"/>
<line x1="1920" y1="793.501" x2="0.00012207" y2="793.501" stroke="white"/>
<line x1="1920" y1="843.501" x2="0.00012207" y2="843.501" stroke="white"/>
<line x1="1920" y1="893.501" x2="0.00012207" y2="893.501" stroke="white"/>
<line x1="1920" y1="943.501" x2="0.00012207" y2="943.501" stroke="white"/>
<line x1="1920" y1="993.501" x2="0.00012207" y2="993.501" stroke="white"/>
<line x1="1920" y1="1043.5" x2="0.00012207" y2="1043.5" stroke="white"/>
<g clip-path="url(#clip1)">
<path d="M100 -213.015C100 -224.06 108.954 -233.015 120 -233.015H587C598.046 -233.015 607 -224.06 607 -213.015V672.985C607 684.031 598.046 692.985 587 692.985H120C108.954 692.985 100 684.031 100 672.985V-213.015Z" fill="white"/>
<rect width="507" height="776" transform="translate(100 -133.015)" fill="#B3FFE3" fill-opacity="0.1"/>
<rect x="150.5" y="50.4854" width="406" height="409" fill="white" stroke="#592ACB"/>
<rect x="150.5" y="485.485" width="406" height="24" fill="#B3FFE3" fill-opacity="0.3" stroke="#592ACB"/>
<rect x="150.5" y="520.485" width="406" height="24" fill="#B3FFE3" fill-opacity="0.3" stroke="#592ACB"/>
<rect x="150.5" y="555.485" width="199" height="24" fill="#B3FFE3" fill-opacity="0.3" stroke="#592ACB"/>
<path d="M175.75 682.275L151 667.985L175.75 653.696L175.75 682.275Z" fill="#B3FFE3" fill-opacity="0.2" stroke="#592ACB"/>
<path d="M257.15 653.696L281.9 667.985L257.15 682.275L257.15 653.696Z" fill="#B3FFE3" fill-opacity="0.2" stroke="#592ACB"/>
<rect x="346.3" y="655.485" width="35" height="25" rx="12.5" fill="#B3FFE3" fill-opacity="0.2" stroke="#592ACB"/>
<rect x="445.2" y="655.485" width="25" height="25" fill="#B3FFE3" fill-opacity="0.2" stroke="#592ACB"/>
<path d="M553.1 662.785C554.134 662.785 555.126 662.374 555.858 661.643C556.589 660.912 557 659.92 557 658.885C557 657.851 556.589 656.859 555.858 656.128C555.126 655.396 554.134 654.985 553.1 654.985C552.066 654.985 551.074 655.396 550.342 656.128C549.611 656.859 549.2 657.851 549.2 658.885C549.2 659.92 549.611 660.912 550.342 661.643C551.074 662.374 552.066 662.785 553.1 662.785ZM537.5 671.885C538.534 671.885 539.526 671.474 540.258 670.743C540.989 670.012 541.4 669.02 541.4 667.985C541.4 666.951 540.989 665.959 540.258 665.228C539.526 664.496 538.534 664.085 537.5 664.085C536.466 664.085 535.474 664.496 534.742 665.228C534.011 665.959 533.6 666.951 533.6 667.985C533.6 669.02 534.011 670.012 534.742 670.743C535.474 671.474 536.466 671.885 537.5 671.885ZM553.1 680.985C554.134 680.985 555.126 680.574 555.858 679.843C556.589 679.112 557 678.12 557 677.085C557 676.051 556.589 675.059 555.858 674.328C555.126 673.596 554.134 673.185 553.1 673.185C552.066 673.185 551.074 673.596 550.342 674.328C549.611 675.059 549.2 676.051 549.2 677.085C549.2 678.12 549.611 679.112 550.342 679.843C551.074 680.574 552.066 680.985 553.1 680.985ZM549.65 660.704L540.943 666.154L549.65 660.704Z" fill="#B3FFE3" fill-opacity="0.2"/>
<path d="M549.65 675.267L540.943 669.817M549.65 660.704L540.943 666.154M553.1 662.785C554.134 662.785 555.126 662.374 555.858 661.643C556.589 660.912 557 659.92 557 658.885C557 657.851 556.589 656.859 555.858 656.128C555.126 655.396 554.134 654.985 553.1 654.985C552.066 654.985 551.074 655.396 550.342 656.128C549.611 656.859 549.2 657.851 549.2 658.885C549.2 659.92 549.611 660.912 550.342 661.643C551.074 662.374 552.066 662.785 553.1 662.785ZM537.5 671.885C538.534 671.885 539.526 671.474 540.258 670.743C540.989 670.012 541.4 669.02 541.4 667.985C541.4 666.951 540.989 665.959 540.258 665.228C539.526 664.496 538.534 664.085 537.5 664.085C536.466 664.085 535.474 664.496 534.742 665.228C534.011 665.959 533.6 666.951 533.6 667.985C533.6 669.02 534.011 670.012 534.742 670.743C535.474 671.474 536.466 671.885 537.5 671.885ZM553.1 680.985C554.134 680.985 555.126 680.574 555.858 679.843C556.589 679.112 557 678.12 557 677.085C557 676.051 556.589 675.059 555.858 674.328C555.126 673.596 554.134 673.185 553.1 673.185C552.066 673.185 551.074 673.596 550.342 674.328C549.611 675.059 549.2 676.051 549.2 677.085C549.2 678.12 549.611 679.112 550.342 679.843C551.074 680.574 552.066 680.985 553.1 680.985Z" stroke="#592ACB"/>
<rect x="100.5" y="643.485" width="506" height="49" stroke="#592ACB"/>
</g>
<path d="M120 -229.015H587V-237.015H120V-229.015ZM603 -213.015V672.985H611V-213.015H603ZM587 688.985H120V696.985H587V688.985ZM104 672.985V-213.015H96V672.985H104ZM120 688.985C111.163 688.985 104 681.822 104 672.985H96C96 686.24 106.745 696.985 120 696.985V688.985ZM603 672.985C603 681.822 595.837 688.985 587 688.985V696.985C600.255 696.985 611 686.24 611 672.985H603ZM587 -229.015C595.837 -229.015 603 -221.851 603 -213.015H611C611 -226.269 600.255 -237.015 587 -237.015V-229.015ZM120 -237.015C106.745 -237.015 96 -226.269 96 -213.015H104C104 -221.851 111.163 -229.015 120 -229.015V-237.015Z" fill="#592ACB"/>
<g clip-path="url(#clip2)">
<path d="M1313 -619.015C1313 -630.06 1321.95 -639.015 1333 -639.015H2062C2073.05 -639.015 2082 -630.06 2082 -619.015V272.985C2082 284.031 2073.05 292.985 2062 292.985H1333C1321.95 292.985 1313 284.031 1313 272.985V-619.015Z" fill="white"/>
<rect width="769" height="757" transform="translate(1313 -539.015)" fill="#B3FFE3" fill-opacity="0.1"/>
<rect x="1363.5" y="-355.515" width="668" height="390" fill="white" stroke="#592ACB"/>
<rect x="1363.5" y="60.4854" width="668" height="24" fill="#B3FFE3" fill-opacity="0.3" stroke="#592ACB"/>
<rect x="1363.5" y="95.4854" width="668" height="24" fill="#B3FFE3" fill-opacity="0.3" stroke="#592ACB"/>
<rect x="1363.5" y="130.485" width="461" height="24" fill="#B3FFE3" fill-opacity="0.3" stroke="#592ACB"/>
<rect x="1564" y="228.485" width="267" height="4" rx="2" fill="#B3FFE3" fill-opacity="0.5" stroke="#592ACB"/>
<rect x="1312.5" y="217.485" width="770" height="26" stroke="#592ACB"/>
<path d="M1416.21 278.735L1430.5 253.985L1444.79 278.735H1416.21Z" fill="#B3FFE3" fill-opacity="0.2" stroke="#592ACB"/>
<rect x="1689.5" y="255.485" width="25" height="25" rx="12.5" fill="#B3FFE3" fill-opacity="0.2" stroke="#592ACB"/>
<rect x="1313.5" y="243.485" width="768" height="49" stroke="#592ACB"/>
</g>
<path d="M1333 -635.015H2062V-643.015H1333V-635.015ZM2078 -619.015V272.985H2086V-619.015H2078ZM2062 288.985H1333V296.985H2062V288.985ZM1317 272.985V-619.015H1309V272.985H1317ZM1333 288.985C1324.16 288.985 1317 281.822 1317 272.985H1309C1309 286.24 1319.75 296.985 1333 296.985V288.985ZM2078 272.985C2078 281.822 2070.84 288.985 2062 288.985V296.985C2075.25 296.985 2086 286.24 2086 272.985H2078ZM2062 -635.015C2070.84 -635.015 2078 -627.851 2078 -619.015H2086C2086 -632.269 2075.25 -643.015 2062 -643.015V-635.015ZM1333 -643.015C1319.75 -643.015 1309 -632.269 1309 -619.015H1317C1317 -627.851 1324.16 -635.015 1333 -635.015V-643.015Z" fill="#592ACB"/>
<g clip-path="url(#clip3)">
<path d="M707 -617.015C707 -628.06 715.954 -637.015 727 -637.015H1193C1204.05 -637.015 1213 -628.06 1213 -617.015V272.985C1213 284.031 1204.05 292.985 1193 292.985H727C715.954 292.985 707 284.031 707 272.985V-617.015Z" fill="white"/>
<rect width="506" height="805" transform="translate(707 -537.015)" fill="#B3FFE3" fill-opacity="0.1"/>
<rect x="757.5" y="-353.515" width="405" height="438" fill="white" stroke="#592ACB"/>
<rect x="757.5" y="110.485" width="405" height="24" fill="#B3FFE3" fill-opacity="0.3" stroke="#592ACB"/>
<rect x="757.5" y="145.485" width="405" height="24" fill="#B3FFE3" fill-opacity="0.3" stroke="#592ACB"/>
<rect x="757.5" y="180.485" width="198" height="24" fill="#B3FFE3" fill-opacity="0.3" stroke="#592ACB"/>
<rect x="826.5" y="278.485" width="267" height="4" rx="2" fill="#B3FFE3" fill-opacity="0.5" stroke="#592ACB"/>
<rect x="706.5" y="267.485" width="507" height="26" stroke="#592ACB"/>
</g>
<path d="M727 -633.015H1193V-641.015H727V-633.015ZM1209 -617.015V272.985H1217V-617.015H1209ZM1193 288.985H727V296.985H1193V288.985ZM711 272.985V-617.015H703V272.985H711ZM727 288.985C718.163 288.985 711 281.822 711 272.985H703C703 286.24 713.745 296.985 727 296.985V288.985ZM1209 272.985C1209 281.822 1201.84 288.985 1193 288.985V296.985C1206.25 296.985 1217 286.24 1217 272.985H1209ZM1193 -633.015C1201.84 -633.015 1209 -625.851 1209 -617.015H1217C1217 -630.269 1206.25 -641.015 1193 -641.015V-633.015ZM727 -641.015C713.745 -641.015 703 -630.27 703 -617.015H711C711 -625.851 718.163 -633.015 727 -633.015V-641.015Z" fill="#592ACB"/>
<g clip-path="url(#clip4)">
<path d="M-762 813C-762 801.954 -753.046 793 -742 793H587C598.046 793 607 801.954 607 813V1818C607 1829.05 598.046 1838 587 1838H-742C-753.046 1838 -762 1829.05 -762 1818V813Z" fill="white"/>
<line x1="473" y1="817.5" x2="491" y2="817.5" stroke="#592ACB"/>
<rect x="521.5" y="809.5" width="17" height="17" stroke="#592ACB"/>
<path d="M569 827L587 809M587 827L569 809" stroke="#592ACB" stroke-linejoin="round"/>
<rect x="-761.5" y="793.5" width="1368" height="49" stroke="#592ACB"/>
<rect x="-592.487" y="851" width="1130.99" height="34" rx="9.5" stroke="#592ACB"/>
<line x1="569" y1="861.5" x2="587" y2="861.5" stroke="#592ACB"/>
<line x1="569" y1="867.5" x2="587" y2="867.5" stroke="#592ACB"/>
<line x1="569" y1="873.5" x2="587" y2="873.5" stroke="#592ACB"/>
<rect x="-762.5" y="842.5" width="1370" height="51" stroke="#592ACB"/>
<rect width="1369" height="820" transform="translate(-762 893)" fill="#B3FFE3" fill-opacity="0.1"/>
<rect x="-712" y="948.5" width="1269" height="42" fill="#B3FFE3" fill-opacity="0.3"/>
<rect x="-711.5" y="949" width="1268" height="41" stroke="#B3FFE3" stroke-opacity="0.3"/>
<rect x="-711.5" y="949" width="1268" height="41" stroke="#592ACB"/>
<rect x="-711.5" y="1076.5" width="1268" height="453" fill="white" stroke="#592ACB"/>
</g>
<path d="M-742 797H587V789H-742V797ZM603 813V1818H611V813H603ZM587 1834H-742V1842H587V1834ZM-758 1818V813H-766V1818H-758ZM-742 1834C-750.837 1834 -758 1826.84 -758 1818H-766C-766 1831.25 -755.255 1842 -742 1842V1834ZM603 1818C603 1826.84 595.837 1834 587 1834V1842C600.255 1842 611 1831.25 611 1818H603ZM587 797C595.837 797 603 804.163 603 813H611C611 799.745 600.255 789 587 789V797ZM-742 789C-755.255 789 -766 799.745 -766 813H-758C-758 804.163 -750.837 797 -742 797V789Z" fill="#592ACB"/>
<g clip-path="url(#clip5)">
<path d="M707 412.985C707 401.94 715.954 392.985 727 392.985H2056C2067.05 392.985 2076 401.94 2076 412.985V1417.99C2076 1429.03 2067.05 1437.99 2056 1437.99H727C715.954 1437.99 707 1429.03 707 1417.99V412.985Z" fill="white"/>
<circle cx="737" cy="417.985" r="9.5" fill="#B3FFE3" fill-opacity="0.5" stroke="#592ACB"/>
<circle cx="767" cy="417.985" r="9.5" fill="#B3FFE3" fill-opacity="0.5" stroke="#592ACB"/>
<circle cx="797" cy="417.985" r="9.5" fill="#B3FFE3" fill-opacity="0.5" stroke="#592ACB"/>
<rect x="707.5" y="393.485" width="1368" height="49" stroke="#592ACB"/>
<path d="M745 467.985L727 467.985" stroke="#592ACB" stroke-linejoin="round"/>
<path d="M734.875 475.86L727 467.985L734.875 460.11" stroke="#592ACB" stroke-linejoin="round"/>
<path d="M775 467.985H793" stroke="#592ACB" stroke-linejoin="round"/>
<path d="M785.125 460.11L793 467.985L785.125 475.86" stroke="#592ACB" stroke-linejoin="round"/>
<path d="M840.59 466.29L838.428 464.064C837.411 463.047 836.115 462.354 834.704 462.074C833.293 461.793 831.831 461.937 830.502 462.487C829.173 463.038 828.037 463.97 827.238 465.166C826.439 466.362 826.013 467.768 826.013 469.207C826.013 470.645 826.439 472.051 827.238 473.247C828.037 474.443 829.173 475.375 830.502 475.926C831.831 476.476 833.293 476.62 834.704 476.34C836.115 476.059 837.411 475.366 838.428 474.349" stroke="#592ACB" stroke-miterlimit="10"/>
<path d="M840.871 461.621V466.764H835.728" stroke="#592ACB" stroke-linejoin="round"/>
<rect x="876.513" y="450.985" width="1130.99" height="34" rx="9.5" stroke="#592ACB"/>
<rect x="706.5" y="442.485" width="1370" height="51" stroke="#592ACB"/>
<rect width="1369" height="820" transform="translate(707 492.985)" fill="#B3FFE3" fill-opacity="0.1"/>
<rect x="757" y="548.485" width="1269" height="42" fill="#B3FFE3" fill-opacity="0.3"/>
<rect x="757.5" y="548.985" width="1268" height="41" stroke="#B3FFE3" stroke-opacity="0.3"/>
<rect x="757.5" y="548.985" width="1268" height="41" stroke="#592ACB"/>
<rect x="757.5" y="600.985" width="533" height="24" fill="#B3FFE3" fill-opacity="0.3" stroke="#592ACB"/>
<rect x="757.5" y="676.485" width="1268" height="453" fill="white" stroke="#592ACB"/>
</g>
<path d="M727 396.985H2056V388.985H727V396.985ZM2072 412.985V1417.99H2080V412.985H2072ZM2056 1433.99H727V1441.99H2056V1433.99ZM711 1417.99V412.985H703V1417.99H711ZM727 1433.99C718.163 1433.99 711 1426.82 711 1417.99H703C703 1431.24 713.745 1441.99 727 1441.99V1433.99ZM2072 1417.99C2072 1426.82 2064.84 1433.99 2056 1433.99V1441.99C2069.25 1441.99 2080 1431.24 2080 1417.99H2072ZM2056 396.985C2064.84 396.985 2072 404.149 2072 412.985H2080C2080 399.731 2069.25 388.985 2056 388.985V396.985ZM727 388.985C713.745 388.985 703 399.731 703 412.985H711C711 404.149 718.163 396.985 727 396.985V388.985Z" fill="#592ACB"/>
<line x1="605" y1="893.5" x2="655" y2="893.5" stroke="url(#paint0_linear)" stroke-opacity="0.5"/>
</g>
<defs>
<linearGradient id="paint0_linear" x1="609.167" y1="894.999" x2="655" y2="894.999" gradientUnits="userSpaceOnUse">
<stop stop-color="#FFB4DB"/>
<stop offset="1" stop-color="#FFB4DB" stop-opacity="0"/>
</linearGradient>
<clipPath id="clip0">
<rect width="1920" height="1080" fill="white"/>
</clipPath>
<clipPath id="clip1">
<path d="M100 -213.015C100 -224.06 108.954 -233.015 120 -233.015H587C598.046 -233.015 607 -224.06 607 -213.015V672.985C607 684.031 598.046 692.985 587 692.985H120C108.954 692.985 100 684.031 100 672.985V-213.015Z" fill="white"/>
</clipPath>
<clipPath id="clip2">
<path d="M1313 -619.015C1313 -630.06 1321.95 -639.015 1333 -639.015H2062C2073.05 -639.015 2082 -630.06 2082 -619.015V272.985C2082 284.031 2073.05 292.985 2062 292.985H1333C1321.95 292.985 1313 284.031 1313 272.985V-619.015Z" fill="white"/>
</clipPath>
<clipPath id="clip3">
<path d="M707 -617.015C707 -628.06 715.954 -637.015 727 -637.015H1193C1204.05 -637.015 1213 -628.06 1213 -617.015V272.985C1213 284.031 1204.05 292.985 1193 292.985H727C715.954 292.985 707 284.031 707 272.985V-617.015Z" fill="white"/>
</clipPath>
<clipPath id="clip4">
<path d="M-762 813C-762 801.954 -753.046 793 -742 793H587C598.046 793 607 801.954 607 813V1818C607 1829.05 598.046 1838 587 1838H-742C-753.046 1838 -762 1829.05 -762 1818V813Z" fill="white"/>
</clipPath>
<clipPath id="clip5">
<path d="M707 412.985C707 401.94 715.954 392.985 727 392.985H2056C2067.05 392.985 2076 401.94 2076 412.985V1417.99C2076 1429.03 2067.05 1437.99 2056 1437.99H727C715.954 1437.99 707 1429.03 707 1417.99V412.985Z" fill="white"/>
</clipPath>
</defs>
</svg>
