<svg width="1920" height="1080" viewBox="0 0 1920 1080" fill="none" xmlns="http://www.w3.org/2000/svg">
<g clip-path="url(#clip0)">
<rect width="1920" height="1080" fill="#FFDFE7"/>
<line y1="-0.5" x2="2716" y2="-0.5" transform="matrix(0.962455 0.27144 0.00820296 0.999966 0 88.8442)" stroke="white"/>
<line y1="-0.5" x2="2716" y2="-0.5" transform="matrix(0.962455 0.27144 0.00820296 0.999966 0 -441.015)" stroke="white"/>
<line y1="-0.5" x2="2716" y2="-0.5" transform="matrix(0.962455 0.27144 0.00820296 0.999966 0 221.309)" stroke="white"/>
<line y1="-0.5" x2="2716" y2="-0.5" transform="matrix(0.962455 0.27144 0.00820296 0.999966 0 -308.55)" stroke="white"/>
<line y1="-0.5" x2="2716" y2="-0.5" transform="matrix(0.962455 0.27144 0.00820296 0.999966 0 155.077)" stroke="white"/>
<line y1="-0.5" x2="2716" y2="-0.5" transform="matrix(0.962455 0.27144 0.00820296 0.999966 0 -374.782)" stroke="white"/>
<line y1="-0.5" x2="2716" y2="-0.5" transform="matrix(0.962455 0.27144 0.00820296 0.999966 0 287.541)" stroke="white"/>
<line y1="-0.5" x2="2716" y2="-0.5" transform="matrix(0.962455 0.27144 0.00820296 0.999966 0 -242.318)" stroke="white"/>
<line y1="-0.5" x2="2716" y2="-0.5" transform="matrix(0.962455 0.27144 0.00820296 0.999966 0 353.774)" stroke="white"/>
<line y1="-0.5" x2="2716" y2="-0.5" transform="matrix(0.962455 0.27144 0.00820296 0.999966 0 -176.085)" stroke="white"/>
<line y1="-0.5" x2="2716" y2="-0.5" transform="matrix(0.962455 0.27144 0.00820296 0.999966 0 486.238)" stroke="white"/>
<line y1="-0.5" x2="2716" y2="-0.5" transform="matrix(0.962455 0.27144 0.00820296 0.999966 0 -43.6206)" stroke="white"/>
<line y1="-0.5" x2="2716" y2="-0.5" transform="matrix(0.962455 0.27144 0.00820296 0.999966 0 420.006)" stroke="white"/>
<line y1="-0.5" x2="2716" y2="-0.5" transform="matrix(0.962455 0.27144 0.00820296 0.999966 0 -109.853)" stroke="white"/>
<line y1="-0.5" x2="2716" y2="-0.5" transform="matrix(0.962455 0.27144 0.00820296 0.999966 0 552.471)" stroke="white"/>
<line y1="-0.5" x2="2716" y2="-0.5" transform="matrix(0.962455 0.27144 0.00820296 0.999966 0 22.6118)" stroke="white"/>
<line y1="-0.5" x2="2716" y2="-0.5" transform="matrix(0.962455 0.27144 0.00820296 0.999966 0 618.703)" stroke="white"/>
<line y1="-0.5" x2="2716" y2="-0.5" transform="matrix(0.962455 0.27144 0.00820296 0.999966 0 751.168)" stroke="white"/>
<line y1="-0.5" x2="2716" y2="-0.5" transform="matrix(0.962455 0.27144 0.00820296 0.999966 0 684.936)" stroke="white"/>
<line y1="-0.5" x2="2716" y2="-0.5" transform="matrix(0.962455 0.27144 0.00820296 0.999966 0 817.4)" stroke="white"/>
<line y1="-0.5" x2="2716" y2="-0.5" transform="matrix(0.962455 0.27144 0.00820296 0.999966 0 883.633)" stroke="white"/>
<line y1="-0.5" x2="2716" y2="-0.5" transform="matrix(0.962455 0.27144 0.00820296 0.999966 0 1016.1)" stroke="white"/>
<line y1="-0.5" x2="2716" y2="-0.5" transform="matrix(0.962455 0.27144 0.00820296 0.999966 0 949.865)" stroke="white"/>
<line y1="-0.5" x2="2716" y2="-0.5" transform="matrix(0.707107 -0.707107 0 1 0 426.001)" stroke="white"/>
<line y1="-0.5" x2="2716" y2="-0.5" transform="matrix(0.707107 -0.707107 0 1 0 625.005)" stroke="white"/>
<line y1="-0.5" x2="2716" y2="-0.5" transform="matrix(0.707107 -0.707107 0 1 0 525.503)" stroke="white"/>
<line y1="-0.5" x2="2716" y2="-0.5" transform="matrix(0.707107 -0.707107 0 1 0 724.507)" stroke="white"/>
<line y1="-0.5" x2="2716" y2="-0.5" transform="matrix(0.707107 -0.707107 0 1 0 824.009)" stroke="white"/>
<line y1="-0.5" x2="2716" y2="-0.5" transform="matrix(0.707107 -0.707107 0 1 0 27.9932)" stroke="white"/>
<line y1="-0.5" x2="2716" y2="-0.5" transform="matrix(0.707107 -0.707107 0 1 0 1023.01)" stroke="white"/>
<line y1="-0.5" x2="2716" y2="-0.5" transform="matrix(0.707107 -0.707107 0 1 0 226.997)" stroke="white"/>
<line y1="-0.5" x2="2716" y2="-0.5" transform="matrix(0.707107 -0.707107 0 1 0 923.511)" stroke="white"/>
<line y1="-0.5" x2="2716" y2="-0.5" transform="matrix(0.707107 -0.707107 0 1 0 127.495)" stroke="white"/>
<line y1="-0.5" x2="2716" y2="-0.5" transform="matrix(0.707107 -0.707107 0 1 0 1122.51)" stroke="white"/>
<line y1="-0.5" x2="2716" y2="-0.5" transform="matrix(0.707107 -0.707107 0 1 0 326.499)" stroke="white"/>
<line y1="-0.5" x2="2716" y2="-0.5" transform="matrix(0.707107 -0.707107 0 1 0 2018.03)" stroke="white"/>
<line y1="-0.5" x2="2716" y2="-0.5" transform="matrix(0.707107 -0.707107 0 1 0 1222.02)" stroke="white"/>
<line y1="-0.5" x2="2716" y2="-0.5" transform="matrix(0.707107 -0.707107 0 1 0 2217.04)" stroke="white"/>
<line y1="-0.5" x2="2716" y2="-0.5" transform="matrix(0.707107 -0.707107 0 1 0 1421.02)" stroke="white"/>
<line y1="-0.5" x2="2716" y2="-0.5" transform="matrix(0.707107 -0.707107 0 1 0 2117.53)" stroke="white"/>
<line y1="-0.5" x2="2716" y2="-0.5" transform="matrix(0.707107 -0.707107 0 1 0 1321.52)" stroke="white"/>
<line y1="-0.5" x2="2716" y2="-0.5" transform="matrix(0.707107 -0.707107 0 1 0 2316.54)" stroke="white"/>
<line y1="-0.5" x2="2716" y2="-0.5" transform="matrix(0.707107 -0.707107 0 1 0 1520.52)" stroke="white"/>
<line y1="-0.5" x2="2716" y2="-0.5" transform="matrix(0.707107 -0.707107 0 1 0 2416.04)" stroke="white"/>
<line y1="-0.5" x2="2716" y2="-0.5" transform="matrix(0.707107 -0.707107 0 1 0 1620.02)" stroke="white"/>
<line y1="-0.5" x2="2716" y2="-0.5" transform="matrix(0.707107 -0.707107 0 1 0 2615.04)" stroke="white"/>
<line y1="-0.5" x2="2716" y2="-0.5" transform="matrix(0.707107 -0.707107 0 1 0 1819.03)" stroke="white"/>
<line y1="-0.5" x2="2716" y2="-0.5" transform="matrix(0.707107 -0.707107 0 1 0 2515.54)" stroke="white"/>
<line y1="-0.5" x2="2716" y2="-0.5" transform="matrix(0.707107 -0.707107 0 1 0 1719.53)" stroke="white"/>
<line y1="-0.5" x2="2716" y2="-0.5" transform="matrix(0.707107 -0.707107 0 1 0 2714.55)" stroke="white"/>
<line y1="-0.5" x2="2716" y2="-0.5" transform="matrix(0.707107 -0.707107 0 1 0 1918.53)" stroke="white"/>
<path d="M736.543 -409.588C744.354 -417.398 759.335 -421.412 770.004 -418.554L1201.56 -302.919C1212.23 -300.06 1214.55 -291.411 1206.74 -283.6L669.335 253.801C661.524 261.611 646.543 265.626 635.874 262.767L204.319 147.132C193.649 144.273 191.332 135.624 199.142 127.813L736.543 -409.588Z" fill="#FF9AA2" fill-opacity="0.2"/>
<path d="M767.176 -415.725L1198.73 -300.09L1204.39 -305.747L772.832 -421.382L767.176 -415.725ZM1202.87 -284.635L665.471 252.766L673.198 254.836L1210.6 -282.565L1202.87 -284.635ZM638.702 259.938L207.147 144.303L201.49 149.96L633.045 265.595L638.702 259.938ZM203.006 128.849L740.407 -408.553L732.68 -410.623L195.279 126.778L203.006 128.849ZM207.147 144.303C198.612 142.016 196.758 135.097 203.006 128.849L195.279 126.778C185.906 136.151 188.687 146.53 201.49 149.96L207.147 144.303ZM665.471 252.766C659.222 259.014 647.238 262.225 638.702 259.938L633.045 265.595C645.849 269.026 663.826 264.209 673.198 254.836L665.471 252.766ZM1198.73 -300.09C1207.27 -297.803 1209.12 -290.884 1202.87 -284.635L1210.6 -282.565C1219.97 -291.937 1217.19 -302.317 1204.39 -305.747L1198.73 -300.09ZM772.832 -421.382C760.029 -424.813 742.052 -419.996 732.68 -410.623L740.407 -408.553C746.656 -414.801 758.64 -418.012 767.176 -415.725L772.832 -421.382Z" fill="#2AC3A2"/>
<g clip-path="url(#clip1)">
<path d="M736.543 -476.683C744.354 -484.493 759.335 -488.507 770.004 -485.648L1201.56 -370.013C1212.23 -367.154 1214.55 -358.505 1206.74 -350.695L669.336 186.707C661.525 194.517 646.544 198.531 635.875 195.672L204.319 80.0371C193.649 77.1783 191.332 68.5291 199.142 60.7186L736.543 -476.683Z" fill="white" fill-opacity="0.6"/>
</g>
<path d="M767.176 -482.82L1198.73 -367.185L1204.39 -372.842L772.832 -488.477L767.176 -482.82ZM1202.87 -351.73L665.472 185.671L673.199 187.742L1210.6 -349.659L1202.87 -351.73ZM638.703 192.844L207.147 77.2087L201.49 82.8655L633.047 198.501L638.703 192.844ZM203.006 61.7538L740.407 -475.647L732.68 -477.718L195.279 59.6833L203.006 61.7538ZM207.147 77.2087C198.612 74.9216 196.758 68.0022 203.006 61.7538L195.279 59.6833C185.906 69.0559 188.687 79.4349 201.49 82.8655L207.147 77.2087ZM665.472 185.671C659.224 191.92 647.239 195.131 638.703 192.844L633.047 198.501C645.85 201.931 663.827 197.114 673.199 187.742L665.472 185.671ZM1198.73 -367.185C1207.27 -364.898 1209.12 -357.978 1202.87 -351.73L1210.6 -349.659C1219.97 -359.032 1217.19 -369.411 1204.39 -372.842L1198.73 -367.185ZM772.832 -488.477C760.029 -491.907 742.052 -487.09 732.68 -477.718L740.407 -475.647C746.656 -481.896 758.64 -485.107 767.176 -482.82L772.832 -488.477Z" fill="#2AC3A2"/>
<g clip-path="url(#clip2)">
<path d="M736.543 -543.778C744.354 -551.588 759.335 -555.602 770.004 -552.743L1201.56 -437.108C1212.23 -434.249 1214.55 -425.6 1206.74 -417.79L669.336 119.612C661.525 127.422 646.544 131.436 635.875 128.577L204.319 12.9421C193.649 10.0833 191.332 1.4341 199.142 -6.3764L736.543 -543.778Z" fill="white" fill-opacity="0.8"/>
<rect x="0.258819" y="0.965926" width="266" height="3" rx="1.5" transform="matrix(0.965926 0.258819 -0.707107 0.707107 301.961 25.6874)" fill="#B3FFE3" fill-opacity="0.5" stroke="#2AC3A2" stroke-width="2"/>
<rect x="-0.258819" y="-0.965926" width="488.78" height="27" transform="matrix(0.965926 0.258819 -0.707107 0.707107 201.986 -10.1278)" stroke="#2AC3A2" stroke-width="2"/>
</g>
<path d="M767.176 -549.915L1198.73 -434.28L1204.39 -439.937L772.832 -555.572L767.176 -549.915ZM1202.87 -418.825L665.472 118.576L673.199 120.647L1210.6 -416.754L1202.87 -418.825ZM638.703 125.749L207.147 10.1137L201.49 15.7705L633.047 131.406L638.703 125.749ZM203.006 -5.34112L740.407 -542.742L732.68 -544.813L195.279 -7.41167L203.006 -5.34112ZM207.147 10.1137C198.612 7.82662 196.758 0.907261 203.006 -5.34112L195.279 -7.41167C185.906 1.9609 188.687 12.3399 201.49 15.7705L207.147 10.1137ZM665.472 118.576C659.224 124.825 647.239 128.036 638.703 125.749L633.047 131.406C645.85 134.836 663.827 130.019 673.199 120.647L665.472 118.576ZM1198.73 -434.28C1207.27 -431.993 1209.12 -425.073 1202.87 -418.825L1210.6 -416.754C1219.97 -426.127 1217.19 -436.506 1204.39 -439.937L1198.73 -434.28ZM772.832 -555.572C760.029 -559.002 742.052 -554.185 732.68 -544.813L740.407 -542.742C746.656 -548.991 758.64 -552.202 767.176 -549.915L772.832 -555.572Z" fill="#2AC3A2"/>
<g clip-path="url(#clip3)">
<path d="M736.543 -610.873C744.354 -618.683 759.335 -622.697 770.004 -619.838L1201.56 -504.203C1212.23 -501.344 1214.55 -492.695 1206.74 -484.885L669.336 52.5166C661.525 60.3271 646.544 64.3412 635.875 61.4823L204.319 -54.1529C193.649 -57.0117 191.332 -65.6609 199.142 -73.4714L736.543 -610.873Z" fill="white" fill-opacity="0.8"/>
<rect x="0.258819" y="0.965926" width="266" height="3" rx="1.5" transform="matrix(0.965926 0.258819 -0.707107 0.707107 301.961 -41.4076)" fill="#B3FFE3" fill-opacity="0.5" stroke="#2AC3A2" stroke-width="2"/>
<rect x="-0.258819" y="-0.965926" width="488.78" height="27" transform="matrix(0.965926 0.258819 -0.707107 0.707107 201.986 -77.2228)" stroke="#2AC3A2" stroke-width="2"/>
</g>
<path d="M767.176 -617.01L1198.73 -501.375L1204.39 -507.032L772.832 -622.667L767.176 -617.01ZM1202.87 -485.92L665.472 51.4813L673.199 53.5518L1210.6 -483.849L1202.87 -485.92ZM638.703 58.6539L207.147 -56.9813L201.49 -51.3244L633.047 64.3107L638.703 58.6539ZM203.006 -72.4361L740.407 -609.837L732.68 -611.908L195.279 -74.5066L203.006 -72.4361ZM207.147 -56.9813C198.612 -59.2683 196.758 -66.1877 203.006 -72.4361L195.279 -74.5066C185.906 -65.1341 188.687 -54.755 201.49 -51.3244L207.147 -56.9813ZM665.472 51.4813C659.224 57.7297 647.239 60.941 638.703 58.6539L633.047 64.3107C645.85 67.7413 663.827 62.9245 673.199 53.5518L665.472 51.4813ZM1198.73 -501.375C1207.27 -499.088 1209.12 -492.168 1202.87 -485.92L1210.6 -483.849C1219.97 -493.222 1217.19 -503.601 1204.39 -507.032L1198.73 -501.375ZM772.832 -622.667C760.029 -626.097 742.052 -621.28 732.68 -611.908L740.407 -609.837C746.656 -616.086 758.64 -619.297 767.176 -617.01L772.832 -622.667Z" fill="#2AC3A2"/>
<path d="M1615.54 -488.588C1623.35 -496.398 1638.33 -500.412 1649 -497.554L2080.56 -381.919C2091.23 -379.06 2093.55 -370.411 2085.74 -362.6L1548.33 174.801C1540.52 182.611 1525.54 186.626 1514.87 183.767L1083.32 68.1318C1072.65 65.273 1070.33 56.6238 1078.14 48.8133L1615.54 -488.588Z" fill="#FF9AA2" fill-opacity="0.2"/>
<path d="M1646.18 -494.725L2077.73 -379.09L2083.39 -384.747L1651.83 -500.382L1646.18 -494.725ZM2081.87 -363.635L1544.47 173.766L1552.2 175.836L2089.6 -361.565L2081.87 -363.635ZM1517.7 180.938L1086.15 65.3034L1080.49 70.9602L1512.05 186.595L1517.7 180.938ZM1082.01 49.8486L1619.41 -487.553L1611.68 -489.623L1074.28 47.778L1082.01 49.8486ZM1086.15 65.3034C1077.61 63.0163 1075.76 56.097 1082.01 49.8486L1074.28 47.778C1064.91 57.1506 1067.69 67.5296 1080.49 70.9602L1086.15 65.3034ZM1544.47 173.766C1538.22 180.014 1526.24 183.225 1517.7 180.938L1512.05 186.595C1524.85 190.026 1542.83 185.209 1552.2 175.836L1544.47 173.766ZM2077.73 -379.09C2086.27 -376.803 2088.12 -369.884 2081.87 -363.635L2089.6 -361.565C2098.97 -370.937 2096.19 -381.317 2083.39 -384.747L2077.73 -379.09ZM1651.83 -500.382C1639.03 -503.813 1621.05 -498.996 1611.68 -489.623L1619.41 -487.553C1625.66 -493.801 1637.64 -497.012 1646.18 -494.725L1651.83 -500.382Z" fill="#2AC3A2"/>
<g clip-path="url(#clip4)">
<path d="M1615.54 -555.683C1623.35 -563.493 1638.33 -567.507 1649 -564.648L2080.56 -449.013C2091.23 -446.154 2093.55 -437.505 2085.74 -429.695L1548.34 107.707C1540.53 115.517 1525.54 119.531 1514.87 116.672L1083.32 1.03709C1072.65 -1.82175 1070.33 -10.4709 1078.14 -18.2814L1615.54 -555.683Z" fill="white" fill-opacity="0.6"/>
</g>
<path d="M1646.18 -561.82L2077.73 -446.185L2083.39 -451.842L1651.83 -567.477L1646.18 -561.82ZM2081.87 -430.73L1544.47 106.671L1552.2 108.742L2089.6 -428.659L2081.87 -430.73ZM1517.7 113.844L1086.15 -1.79134L1080.49 3.86552L1512.05 119.501L1517.7 113.844ZM1082.01 -17.2462L1619.41 -554.647L1611.68 -556.718L1074.28 -19.3167L1082.01 -17.2462ZM1086.15 -1.79134C1077.61 -4.07841 1075.76 -10.9978 1082.01 -17.2462L1074.28 -19.3167C1064.91 -9.94413 1067.69 0.434912 1080.49 3.86552L1086.15 -1.79134ZM1544.47 106.671C1538.22 112.92 1526.24 116.131 1517.7 113.844L1512.05 119.501C1524.85 122.931 1542.83 118.114 1552.2 108.742L1544.47 106.671ZM2077.73 -446.185C2086.27 -443.898 2088.12 -436.978 2081.87 -430.73L2089.6 -428.659C2098.97 -438.032 2096.19 -448.411 2083.39 -451.842L2077.73 -446.185ZM1651.83 -567.477C1639.03 -570.907 1621.05 -566.09 1611.68 -556.718L1619.41 -554.647C1625.66 -560.896 1637.64 -564.107 1646.18 -561.82L1651.83 -567.477Z" fill="#2AC3A2"/>
<g clip-path="url(#clip5)">
<path d="M1615.54 -622.778C1623.35 -630.588 1638.33 -634.602 1649 -631.743L2080.56 -516.108C2091.23 -513.249 2093.55 -504.6 2085.74 -496.79L1548.34 40.6115C1540.53 48.422 1525.54 52.4361 1514.87 49.5773L1083.32 -66.0579C1072.65 -68.9167 1070.33 -77.5659 1078.14 -85.3764L1615.54 -622.778Z" fill="white" fill-opacity="0.8"/>
<rect x="0.258819" y="0.965926" width="266" height="3" rx="1.5" transform="matrix(0.965926 0.258819 -0.707107 0.707107 1180.96 -53.3126)" fill="#B3FFE3" fill-opacity="0.5" stroke="#2AC3A2" stroke-width="2"/>
<rect x="-0.258819" y="-0.965926" width="488.78" height="27" transform="matrix(0.965926 0.258819 -0.707107 0.707107 1080.99 -89.1278)" stroke="#2AC3A2" stroke-width="2"/>
</g>
<path d="M1646.18 -628.915L2077.73 -513.28L2083.39 -518.937L1651.83 -634.572L1646.18 -628.915ZM2081.87 -497.825L1544.47 39.5763L1552.2 41.6468L2089.6 -495.754L2081.87 -497.825ZM1517.7 46.7489L1086.15 -68.8863L1080.49 -63.2295L1512.05 52.4057L1517.7 46.7489ZM1082.01 -84.3411L1619.41 -621.742L1611.68 -623.813L1074.28 -86.4117L1082.01 -84.3411ZM1086.15 -68.8863C1077.61 -71.1734 1075.76 -78.0927 1082.01 -84.3411L1074.28 -86.4117C1064.91 -77.0391 1067.69 -66.6601 1080.49 -63.2295L1086.15 -68.8863ZM1544.47 39.5763C1538.22 45.8246 1526.24 49.0359 1517.7 46.7489L1512.05 52.4057C1524.85 55.8363 1542.83 51.0194 1552.2 41.6468L1544.47 39.5763ZM2077.73 -513.28C2086.27 -510.993 2088.12 -504.073 2081.87 -497.825L2089.6 -495.754C2098.97 -505.127 2096.19 -515.506 2083.39 -518.937L2077.73 -513.28ZM1651.83 -634.572C1639.03 -638.002 1621.05 -633.185 1611.68 -623.813L1619.41 -621.742C1625.66 -627.991 1637.64 -631.202 1646.18 -628.915L1651.83 -634.572Z" fill="#2AC3A2"/>
<path d="M914.543 305.412C922.354 297.602 937.335 293.588 948.004 296.446L1379.56 412.081C1390.23 414.94 1392.55 423.589 1384.74 431.4L847.335 968.801C839.524 976.611 824.543 980.626 813.874 977.767L382.319 862.132C371.649 859.273 369.332 850.624 377.142 842.813L914.543 305.412Z" fill="#FF9AA2" fill-opacity="0.2"/>
<path d="M945.176 299.275L1376.73 414.91L1382.39 409.253L950.832 293.618L945.176 299.275ZM1380.87 430.365L843.471 967.766L851.198 969.836L1388.6 432.435L1380.87 430.365ZM816.702 974.938L385.147 859.303L379.49 864.96L811.045 980.595L816.702 974.938ZM381.006 843.849L918.407 306.447L910.68 304.377L373.279 841.778L381.006 843.849ZM385.147 859.303C376.612 857.016 374.758 850.097 381.006 843.849L373.279 841.778C363.906 851.151 366.687 861.53 379.49 864.96L385.147 859.303ZM843.471 967.766C837.222 974.014 825.238 977.225 816.702 974.938L811.045 980.595C823.849 984.026 841.826 979.209 851.198 969.836L843.471 967.766ZM1376.73 414.91C1385.27 417.197 1387.12 424.116 1380.87 430.365L1388.6 432.435C1397.97 423.063 1395.19 412.683 1382.39 409.253L1376.73 414.91ZM950.832 293.618C938.029 290.187 920.052 295.004 910.68 304.377L918.407 306.447C924.656 300.199 936.64 296.988 945.176 299.275L950.832 293.618Z" fill="#2AC3A2"/>
<g clip-path="url(#clip6)">
<path d="M914.543 238.317C922.354 230.507 937.335 226.493 948.004 229.352L1379.56 344.987C1390.23 347.846 1392.55 356.495 1384.74 364.305L847.336 901.707C839.525 909.517 824.544 913.531 813.875 910.672L382.319 795.037C371.649 792.178 369.332 783.529 377.142 775.719L914.543 238.317Z" fill="white" fill-opacity="0.6"/>
<path d="M1301.97 352.315C1301.65 352.411 1301.44 352.639 1301.5 352.823C1301.57 353.007 1301.88 353.078 1302.21 352.982L1302.22 352.977C1302.55 352.881 1302.76 352.653 1302.69 352.469C1302.62 352.285 1302.31 352.214 1301.98 352.31L1301.97 352.315Z" stroke="#2AC3A2" stroke-linecap="round" stroke-linejoin="round"/>
<path d="M1300.72 342.994C1308.8 341.528 1315.75 343.391 1318.11 347.653" stroke="#2AC3A2" stroke-width="2" stroke-linejoin="round"/>
<path d="M1300.78 346.239C1306.17 345.261 1311.39 346.659 1312.95 349.5" stroke="#2AC3A2" stroke-width="2" stroke-linejoin="round"/>
<path d="M1301.6 349.281C1304.44 348.914 1306.62 349.497 1307.68 350.912" stroke="#2AC3A2" stroke-width="2" stroke-linejoin="round"/>
<path d="M1319 356.554L1316.88 358.676M1345.06 350.089L1332.34 362.817L1345.06 350.089ZM1336.22 352.201L1327.02 361.393L1336.22 352.201ZM1327.85 354.442L1322.19 360.099L1327.85 354.442Z" stroke="#2AC3A2" stroke-width="2"/>
<path d="M1363.4 356.616L1362.69 357.323L1363.66 357.582L1365.3 358.022L1360.99 362.335L1354.23 360.523L1358.54 356.21L1360.18 356.65L1361.15 356.909L1361.85 356.202L1362.42 355.636L1363.97 356.05L1363.4 356.616Z" fill="#B3FFE3" fill-opacity="0.2" stroke="#2AC3A2" stroke-width="2"/>
<path d="M1355.26 368.062L1348.5 366.251L1352.81 361.937L1359.57 363.749L1355.26 368.062Z" fill="#2AC3A2" stroke="#2AC3A2" stroke-width="2"/>
<rect x="0.258819" y="0.965926" width="484.78" height="48" transform="matrix(0.965926 0.258819 -0.707107 0.707107 929.377 224.391)" stroke="#2AC3A2" stroke-width="2"/>
</g>
<path d="M945.176 232.18L1376.73 347.815L1382.39 342.158L950.832 226.523L945.176 232.18ZM1380.87 363.27L843.472 900.671L851.199 902.742L1388.6 365.341L1380.87 363.27ZM816.703 907.844L385.147 792.209L379.49 797.866L811.047 913.501L816.703 907.844ZM381.006 776.754L918.407 239.353L910.68 237.282L373.279 774.683L381.006 776.754ZM385.147 792.209C376.612 789.922 374.758 783.002 381.006 776.754L373.279 774.683C363.906 784.056 366.687 794.435 379.49 797.866L385.147 792.209ZM843.472 900.671C837.224 906.92 825.239 910.131 816.703 907.844L811.047 913.501C823.85 916.931 841.827 912.114 851.199 902.742L843.472 900.671ZM1376.73 347.815C1385.27 350.102 1387.12 357.022 1380.87 363.27L1388.6 365.341C1397.97 355.968 1395.19 345.589 1382.39 342.158L1376.73 347.815ZM950.832 226.523C938.029 223.093 920.052 227.91 910.68 237.282L918.407 239.353C924.656 233.104 936.64 229.893 945.176 232.18L950.832 226.523Z" fill="#2AC3A2"/>
<g clip-path="url(#clip7)">
<path d="M914.543 171.222C922.354 163.412 937.335 159.398 948.004 162.257L1379.56 277.892C1390.23 280.751 1392.55 289.4 1384.74 297.21L847.336 834.612C839.525 842.422 824.544 846.436 813.875 843.577L382.319 727.942C371.649 725.083 369.332 716.434 377.142 708.624L914.543 171.222Z" fill="white" fill-opacity="0.8"/>
<path d="M1301.97 285.22C1301.65 285.316 1301.44 285.544 1301.5 285.728C1301.57 285.912 1301.88 285.983 1302.21 285.887L1302.22 285.882C1302.55 285.786 1302.76 285.558 1302.69 285.374C1302.62 285.19 1302.31 285.119 1301.98 285.215L1301.97 285.22Z" stroke="#2AC3A2" stroke-linecap="round" stroke-linejoin="round"/>
<path d="M1300.72 275.899C1308.8 274.433 1315.75 276.296 1318.11 280.558" stroke="#2AC3A2" stroke-width="2" stroke-linejoin="round"/>
<path d="M1300.78 279.144C1306.17 278.166 1311.39 279.564 1312.95 282.405" stroke="#2AC3A2" stroke-width="2" stroke-linejoin="round"/>
<path d="M1301.6 282.186C1304.44 281.819 1306.62 282.402 1307.68 283.817" stroke="#2AC3A2" stroke-width="2" stroke-linejoin="round"/>
<path d="M1319 289.459L1316.88 291.581M1345.06 282.994L1332.34 295.722L1345.06 282.994ZM1336.22 285.106L1327.02 294.298L1336.22 285.106ZM1327.85 287.347L1322.19 293.004L1327.85 287.347Z" stroke="#2AC3A2" stroke-width="2"/>
<path d="M1363.4 289.521L1362.69 290.228L1363.66 290.487L1365.3 290.927L1360.99 295.24L1354.23 293.428L1358.54 289.115L1360.18 289.555L1361.15 289.814L1361.85 289.107L1362.42 288.541L1363.97 288.955L1363.4 289.521Z" fill="#B3FFE3" fill-opacity="0.2" stroke="#2AC3A2" stroke-width="2"/>
<path d="M1355.26 300.967L1348.5 299.156L1352.81 294.842L1359.57 296.654L1355.26 300.967Z" fill="#2AC3A2" stroke="#2AC3A2" stroke-width="2"/>
<rect x="0.258819" y="0.965926" width="484.78" height="48" transform="matrix(0.965926 0.258819 -0.707107 0.707107 929.377 157.296)" stroke="#2AC3A2" stroke-width="2"/>
<rect x="0.258819" y="0.965926" width="348.78" height="33" rx="9" transform="matrix(0.965926 0.258819 -0.707107 0.707107 908.037 203.131)" stroke="#2AC3A2" stroke-width="2"/>
<rect x="0.258819" y="0.965926" width="16" height="16" rx="1" transform="matrix(0.965926 0.258819 -0.707107 0.707107 1269.83 307.695)" stroke="#2AC3A2" stroke-width="2"/>
<line y1="-1" x2="18" y2="-1" transform="matrix(0.965926 0.258819 -0.707107 0.707107 1313.38 322.023)" stroke="#2AC3A2" stroke-width="2"/>
<line y1="-1" x2="18" y2="-1" transform="matrix(0.965926 0.258819 -0.707107 0.707107 1309.14 326.266)" stroke="#2AC3A2" stroke-width="2"/>
<line y1="-1" x2="18" y2="-1" transform="matrix(0.965926 0.258819 -0.707107 0.707107 1304.9 330.509)" stroke="#2AC3A2" stroke-width="2"/>
<rect x="-0.258819" y="-0.965926" width="488.78" height="52" transform="matrix(0.965926 0.258819 -0.707107 0.707107 892.638 192.22)" stroke="#2AC3A2" stroke-width="2"/>
<rect x="0.258819" y="0.965926" width="266" height="3" rx="1.5" transform="matrix(0.965926 0.258819 -0.707107 0.707107 479.961 740.687)" fill="#B3FFE3" fill-opacity="0.5" stroke="#2AC3A2" stroke-width="2"/>
<rect x="-0.258819" y="-0.965926" width="488.78" height="27" transform="matrix(0.965926 0.258819 -0.707107 0.707107 379.986 704.872)" stroke="#2AC3A2" stroke-width="2"/>
</g>
<path d="M945.176 165.085L1376.73 280.72L1382.39 275.063L950.832 159.428L945.176 165.085ZM1380.87 296.175L843.472 833.576L851.199 835.647L1388.6 298.246L1380.87 296.175ZM816.703 840.749L385.147 725.114L379.49 730.771L811.047 846.406L816.703 840.749ZM381.006 709.659L918.407 172.258L910.68 170.187L373.279 707.588L381.006 709.659ZM385.147 725.114C376.612 722.827 374.758 715.907 381.006 709.659L373.279 707.588C363.906 716.961 366.687 727.34 379.49 730.771L385.147 725.114ZM843.472 833.576C837.224 839.825 825.239 843.036 816.703 840.749L811.047 846.406C823.85 849.836 841.827 845.019 851.199 835.647L843.472 833.576ZM1376.73 280.72C1385.27 283.007 1387.12 289.927 1380.87 296.175L1388.6 298.246C1397.97 288.873 1395.19 278.494 1382.39 275.063L1376.73 280.72ZM950.832 159.428C938.029 155.998 920.052 160.815 910.68 170.187L918.407 172.258C924.656 166.009 936.64 162.798 945.176 165.085L950.832 159.428Z" fill="#2AC3A2"/>
<g clip-path="url(#clip8)">
<path d="M914.543 104.127C922.354 96.317 937.335 92.3029 948.004 95.1617L1379.56 210.797C1390.23 213.656 1392.55 222.305 1384.74 230.115L847.336 767.517C839.525 775.327 824.544 779.341 813.875 776.482L382.319 660.847C371.649 657.988 369.332 649.339 377.142 641.529L914.543 104.127Z" fill="white" fill-opacity="0.8"/>
<path d="M1301.97 218.125C1301.65 218.221 1301.44 218.449 1301.5 218.633C1301.57 218.817 1301.88 218.888 1302.21 218.792L1302.22 218.787C1302.55 218.691 1302.76 218.463 1302.69 218.279C1302.62 218.095 1302.31 218.024 1301.98 218.12L1301.97 218.125Z" stroke="#2AC3A2" stroke-linecap="round" stroke-linejoin="round"/>
<path d="M1300.72 208.804C1308.8 207.338 1315.75 209.201 1318.11 213.463" stroke="#2AC3A2" stroke-width="2" stroke-linejoin="round"/>
<path d="M1300.78 212.049C1306.17 211.071 1311.39 212.469 1312.95 215.31" stroke="#2AC3A2" stroke-width="2" stroke-linejoin="round"/>
<path d="M1301.6 215.091C1304.44 214.724 1306.62 215.307 1307.68 216.722" stroke="#2AC3A2" stroke-width="2" stroke-linejoin="round"/>
<path d="M1319 222.364L1316.88 224.486M1345.06 215.899L1332.34 228.627L1345.06 215.899ZM1336.22 218.011L1327.02 227.203L1336.22 218.011ZM1327.85 220.252L1322.19 225.909L1327.85 220.252Z" stroke="#2AC3A2" stroke-width="2"/>
<path d="M1363.4 222.426L1362.69 223.133L1363.66 223.392L1365.3 223.832L1360.99 228.145L1354.23 226.333L1358.54 222.02L1360.18 222.46L1361.15 222.719L1361.85 222.012L1362.42 221.446L1363.97 221.86L1363.4 222.426Z" fill="#B3FFE3" fill-opacity="0.2" stroke="#2AC3A2" stroke-width="2"/>
<path d="M1355.26 233.873L1348.5 232.061L1352.81 227.747L1359.57 229.559L1355.26 233.873Z" fill="#2AC3A2" stroke="#2AC3A2" stroke-width="2"/>
<rect x="0.258819" y="0.965926" width="484.78" height="48" transform="matrix(0.965926 0.258819 -0.707107 0.707107 929.377 90.2013)" stroke="#2AC3A2" stroke-width="2"/>
<rect x="0.258819" y="0.965926" width="348.78" height="33" rx="9" transform="matrix(0.965926 0.258819 -0.707107 0.707107 908.037 136.036)" stroke="#2AC3A2" stroke-width="2"/>
<rect x="0.258819" y="0.965926" width="16" height="16" rx="1" transform="matrix(0.965926 0.258819 -0.707107 0.707107 1269.83 240.6)" stroke="#2AC3A2" stroke-width="2"/>
<line y1="-1" x2="18" y2="-1" transform="matrix(0.965926 0.258819 -0.707107 0.707107 1313.38 254.928)" stroke="#2AC3A2" stroke-width="2"/>
<line y1="-1" x2="18" y2="-1" transform="matrix(0.965926 0.258819 -0.707107 0.707107 1309.14 259.171)" stroke="#2AC3A2" stroke-width="2"/>
<line y1="-1" x2="18" y2="-1" transform="matrix(0.965926 0.258819 -0.707107 0.707107 1304.9 263.414)" stroke="#2AC3A2" stroke-width="2"/>
<rect x="-0.258819" y="-0.965926" width="488.78" height="52" transform="matrix(0.965926 0.258819 -0.707107 0.707107 892.638 125.125)" stroke="#2AC3A2" stroke-width="2"/>
<rect x="0.258819" y="0.965926" width="55.6667" height="23" rx="11.5" transform="matrix(0.965926 0.258819 -0.707107 0.707107 871.608 209.208)" fill="#B3FFE3" fill-opacity="0.3" stroke="#2AC3A2" stroke-width="2"/>
<rect x="0.258819" y="0.965926" width="55.6667" height="23" rx="11.5" transform="matrix(0.965926 0.258819 -0.707107 0.707107 936.969 226.722)" fill="#B3FFE3" fill-opacity="0.3" stroke="#2AC3A2" stroke-width="2"/>
<rect x="0.258819" y="0.965926" width="55.6667" height="23" rx="11.5" transform="matrix(0.965926 0.258819 -0.707107 0.707107 1002.33 244.235)" fill="#B3FFE3" fill-opacity="0.3" stroke="#2AC3A2" stroke-width="2"/>
<rect x="0.258819" y="0.965926" width="384.78" height="423" transform="matrix(0.965926 0.258819 -0.707107 0.707107 836.252 244.564)" fill="white" fill-opacity="0.5" stroke="#2AC3A2" stroke-width="2"/>
<rect x="0.258819" y="0.965926" width="384.78" height="23" transform="matrix(0.965926 0.258819 -0.707107 0.707107 518.055 562.762)" fill="#B3FFE3" fill-opacity="0.3" stroke="#2AC3A2" stroke-width="2"/>
<rect x="0.258819" y="0.965926" width="177.78" height="23" transform="matrix(0.965926 0.258819 -0.707107 0.707107 493.306 587.51)" fill="#B3FFE3" fill-opacity="0.3" stroke="#2AC3A2" stroke-width="2"/>
<rect x="0.258819" y="0.965926" width="266" height="3" rx="1.5" transform="matrix(0.965926 0.258819 -0.707107 0.707107 479.961 673.592)" fill="#B3FFE3" fill-opacity="0.5" stroke="#2AC3A2" stroke-width="2"/>
<rect x="-0.258819" y="-0.965926" width="488.78" height="27" transform="matrix(0.965926 0.258819 -0.707107 0.707107 379.986 637.777)" stroke="#2AC3A2" stroke-width="2"/>
</g>
<path d="M945.176 97.9902L1376.73 213.625L1382.39 207.968L950.832 92.3333L945.176 97.9902ZM1380.87 229.08L843.472 766.481L851.199 768.552L1388.6 231.151L1380.87 229.08ZM816.703 773.654L385.147 658.019L379.49 663.676L811.047 779.311L816.703 773.654ZM381.006 642.564L918.407 105.163L910.68 103.092L373.279 640.493L381.006 642.564ZM385.147 658.019C376.612 655.732 374.758 648.812 381.006 642.564L373.279 640.493C363.906 649.866 366.687 660.245 379.49 663.676L385.147 658.019ZM843.472 766.481C837.224 772.73 825.239 775.941 816.703 773.654L811.047 779.311C823.85 782.741 841.827 777.924 851.199 768.552L843.472 766.481ZM1376.73 213.625C1385.27 215.912 1387.12 222.832 1380.87 229.08L1388.6 231.151C1397.97 221.778 1395.19 211.399 1382.39 207.968L1376.73 213.625ZM950.832 92.3333C938.029 88.9027 920.052 93.7196 910.68 103.092L918.407 105.163C924.656 98.9144 936.64 95.7031 945.176 97.9902L950.832 92.3333Z" fill="#2AC3A2"/>
<path d="M-29.4566 364.412C-21.6461 356.602 -6.66526 352.588 4.00406 355.446L435.559 471.081C446.229 473.94 448.546 482.589 440.736 490.4L-96.6654 1027.8C-104.476 1035.61 -119.457 1039.63 -130.126 1036.77L-561.681 921.132C-572.351 918.273 -574.668 909.624 -566.858 901.813L-29.4566 364.412Z" fill="#FF9AA2" fill-opacity="0.2"/>
<path d="M1.17563 358.275L432.731 473.91L438.388 468.253L6.83249 352.618L1.17563 358.275ZM436.872 489.365L-100.529 1026.77L-92.8017 1028.84L444.599 491.435L436.872 489.365ZM-127.298 1033.94L-558.853 918.303L-564.51 923.96L-132.955 1039.6L-127.298 1033.94ZM-562.994 902.849L-25.5929 365.447L-33.3203 363.377L-570.721 900.778L-562.994 902.849ZM-558.853 918.303C-567.388 916.016 -569.242 909.097 -562.994 902.849L-570.721 900.778C-580.094 910.151 -577.313 920.53 -564.51 923.96L-558.853 918.303ZM-100.529 1026.77C-106.778 1033.01 -118.762 1036.23 -127.298 1033.94L-132.955 1039.6C-120.151 1043.03 -102.174 1038.21 -92.8017 1028.84L-100.529 1026.77ZM432.731 473.91C441.266 476.197 443.12 483.116 436.872 489.365L444.599 491.435C453.972 482.063 451.191 471.683 438.388 468.253L432.731 473.91ZM6.83249 352.618C-5.97069 349.187 -23.9477 354.004 -33.3203 363.377L-25.5929 365.447C-19.3445 359.199 -7.35983 355.988 1.17563 358.275L6.83249 352.618Z" fill="#2AC3A2"/>
<g clip-path="url(#clip9)">
<path d="M-29.4566 297.317C-21.6461 289.507 -6.66526 285.493 4.00406 288.352L435.56 403.987C446.23 406.846 448.547 415.495 440.737 423.305L-96.6644 960.707C-104.475 968.517 -119.456 972.531 -130.125 969.672L-561.681 854.037C-572.351 851.178 -574.668 842.529 -566.858 834.719L-29.4566 297.317Z" fill="white" fill-opacity="0.6"/>
<path d="M357.969 411.315C357.645 411.411 357.436 411.639 357.502 411.823C357.568 412.007 357.884 412.078 358.208 411.982L358.224 411.977C358.548 411.881 358.757 411.653 358.691 411.469C358.625 411.285 358.309 411.214 357.985 411.31L357.969 411.315Z" stroke="#2AC3A2" stroke-linecap="round" stroke-linejoin="round"/>
<path d="M356.72 401.994C364.8 400.528 371.755 402.391 374.107 406.653" stroke="#2AC3A2" stroke-width="2" stroke-linejoin="round"/>
<path d="M356.782 405.239C362.169 404.261 367.385 405.659 368.953 408.5" stroke="#2AC3A2" stroke-width="2" stroke-linejoin="round"/>
<path d="M357.598 408.281C360.445 407.914 362.618 408.497 363.683 409.912" stroke="#2AC3A2" stroke-width="2" stroke-linejoin="round"/>
<path d="M375.003 415.554L372.882 417.676M401.064 409.089L388.337 421.817L401.064 409.089ZM392.216 411.201L383.024 420.393L392.216 411.201ZM383.851 413.442L378.194 419.099L383.851 413.442Z" stroke="#2AC3A2" stroke-width="2"/>
<path d="M419.4 415.616L418.693 416.323L419.659 416.582L421.301 417.022L416.988 421.335L410.226 419.523L414.539 415.21L416.182 415.65L417.147 415.909L417.855 415.202L418.42 414.636L419.966 415.05L419.4 415.616Z" fill="#B3FFE3" fill-opacity="0.2" stroke="#2AC3A2" stroke-width="2"/>
<path d="M411.26 427.062L404.499 425.251L408.812 420.937L415.574 422.749L411.26 427.062Z" fill="#2AC3A2" stroke="#2AC3A2" stroke-width="2"/>
<rect x="0.258819" y="0.965926" width="484.78" height="48" transform="matrix(0.965926 0.258819 -0.707107 0.707107 -14.6226 283.391)" stroke="#2AC3A2" stroke-width="2"/>
</g>
<path d="M1.17564 291.18L432.732 406.815L438.389 401.158L6.83249 285.523L1.17564 291.18ZM436.873 422.27L-100.528 959.671L-92.8007 961.742L444.6 424.341L436.873 422.27ZM-127.297 966.844L-558.853 851.209L-564.51 856.866L-132.953 972.501L-127.297 966.844ZM-562.994 835.754L-25.5929 298.353L-33.3203 296.282L-570.721 833.683L-562.994 835.754ZM-558.853 851.209C-567.388 848.922 -569.242 842.002 -562.994 835.754L-570.721 833.683C-580.094 843.056 -577.313 853.435 -564.51 856.866L-558.853 851.209ZM-100.528 959.671C-106.776 965.92 -118.761 969.131 -127.297 966.844L-132.953 972.501C-120.15 975.931 -102.173 971.114 -92.8007 961.742L-100.528 959.671ZM432.732 406.815C441.267 409.102 443.121 416.022 436.873 422.27L444.6 424.341C453.973 414.968 451.192 404.589 438.389 401.158L432.732 406.815ZM6.83249 285.523C-5.97069 282.093 -23.9477 286.91 -33.3203 296.282L-25.5929 298.353C-19.3445 292.104 -7.35983 288.893 1.17564 291.18L6.83249 285.523Z" fill="#2AC3A2"/>
<g clip-path="url(#clip10)">
<path d="M-29.4566 230.222C-21.6461 222.412 -6.66526 218.398 4.00406 221.257L435.56 336.892C446.23 339.751 448.547 348.4 440.737 356.21L-96.6644 893.612C-104.475 901.422 -119.456 905.436 -130.125 902.577L-561.681 786.942C-572.351 784.083 -574.668 775.434 -566.858 767.624L-29.4566 230.222Z" fill="white" fill-opacity="0.8"/>
<path d="M357.969 344.22C357.645 344.316 357.436 344.544 357.502 344.728C357.568 344.912 357.884 344.983 358.208 344.887L358.224 344.882C358.548 344.786 358.757 344.558 358.691 344.374C358.625 344.19 358.309 344.119 357.985 344.215L357.969 344.22Z" stroke="#2AC3A2" stroke-linecap="round" stroke-linejoin="round"/>
<path d="M356.72 334.899C364.8 333.433 371.755 335.296 374.107 339.558" stroke="#2AC3A2" stroke-width="2" stroke-linejoin="round"/>
<path d="M356.782 338.144C362.169 337.166 367.385 338.564 368.953 341.405" stroke="#2AC3A2" stroke-width="2" stroke-linejoin="round"/>
<path d="M357.598 341.186C360.445 340.819 362.618 341.402 363.683 342.817" stroke="#2AC3A2" stroke-width="2" stroke-linejoin="round"/>
<path d="M375.003 348.459L372.882 350.581M401.064 341.994L388.337 354.722L401.064 341.994ZM392.216 344.106L383.024 353.298L392.216 344.106ZM383.851 346.347L378.194 352.004L383.851 346.347Z" stroke="#2AC3A2" stroke-width="2"/>
<path d="M419.4 348.521L418.693 349.228L419.659 349.487L421.301 349.927L416.988 354.24L410.226 352.428L414.539 348.115L416.182 348.555L417.147 348.814L417.855 348.107L418.42 347.541L419.966 347.955L419.4 348.521Z" fill="#B3FFE3" fill-opacity="0.2" stroke="#2AC3A2" stroke-width="2"/>
<path d="M411.26 359.967L404.499 358.156L408.812 353.842L415.574 355.654L411.26 359.967Z" fill="#2AC3A2" stroke="#2AC3A2" stroke-width="2"/>
<rect x="0.258819" y="0.965926" width="484.78" height="48" transform="matrix(0.965926 0.258819 -0.707107 0.707107 -14.6226 216.296)" stroke="#2AC3A2" stroke-width="2"/>
<rect x="0.258819" y="0.965926" width="348.78" height="33" rx="9" transform="matrix(0.965926 0.258819 -0.707107 0.707107 -35.9627 262.131)" stroke="#2AC3A2" stroke-width="2"/>
<rect x="0.258819" y="0.965926" width="16" height="16" rx="1" transform="matrix(0.965926 0.258819 -0.707107 0.707107 325.832 366.695)" stroke="#2AC3A2" stroke-width="2"/>
<line y1="-1" x2="18" y2="-1" transform="matrix(0.965926 0.258819 -0.707107 0.707107 369.384 381.023)" stroke="#2AC3A2" stroke-width="2"/>
<line y1="-1" x2="18" y2="-1" transform="matrix(0.965926 0.258819 -0.707107 0.707107 365.141 385.266)" stroke="#2AC3A2" stroke-width="2"/>
<line y1="-1" x2="18" y2="-1" transform="matrix(0.965926 0.258819 -0.707107 0.707107 360.898 389.509)" stroke="#2AC3A2" stroke-width="2"/>
<rect x="-0.258819" y="-0.965926" width="488.78" height="52" transform="matrix(0.965926 0.258819 -0.707107 0.707107 -51.3615 251.22)" stroke="#2AC3A2" stroke-width="2"/>
</g>
<path d="M1.17564 224.085L432.732 339.72L438.389 334.063L6.83249 218.428L1.17564 224.085ZM436.873 355.175L-100.528 892.576L-92.8007 894.647L444.6 357.246L436.873 355.175ZM-127.297 899.749L-558.853 784.114L-564.51 789.771L-132.953 905.406L-127.297 899.749ZM-562.994 768.659L-25.5929 231.258L-33.3203 229.187L-570.721 766.588L-562.994 768.659ZM-558.853 784.114C-567.388 781.827 -569.242 774.907 -562.994 768.659L-570.721 766.588C-580.094 775.961 -577.313 786.34 -564.51 789.771L-558.853 784.114ZM-100.528 892.576C-106.776 898.825 -118.761 902.036 -127.297 899.749L-132.953 905.406C-120.15 908.836 -102.173 904.019 -92.8007 894.647L-100.528 892.576ZM432.732 339.72C441.267 342.007 443.121 348.927 436.873 355.175L444.6 357.246C453.973 347.873 451.192 337.494 438.389 334.063L432.732 339.72ZM6.83249 218.428C-5.97069 214.998 -23.9477 219.815 -33.3203 229.187L-25.5929 231.258C-19.3445 225.009 -7.35983 221.798 1.17564 224.085L6.83249 218.428Z" fill="#2AC3A2"/>
<g clip-path="url(#clip11)">
<path d="M-29.4566 163.127C-21.6461 155.317 -6.66526 151.303 4.00406 154.162L435.56 269.797C446.23 272.656 448.547 281.305 440.737 289.115L-96.6644 826.517C-104.475 834.327 -119.456 838.341 -130.125 835.482L-561.681 719.847C-572.351 716.988 -574.668 708.339 -566.858 700.529L-29.4566 163.127Z" fill="white" fill-opacity="0.8"/>
<path d="M357.969 277.125C357.645 277.221 357.436 277.449 357.502 277.633C357.568 277.817 357.884 277.888 358.208 277.792L358.224 277.787C358.548 277.691 358.757 277.463 358.691 277.279C358.625 277.095 358.309 277.024 357.985 277.12L357.969 277.125Z" stroke="#2AC3A2" stroke-linecap="round" stroke-linejoin="round"/>
<path d="M356.72 267.804C364.8 266.338 371.755 268.201 374.107 272.463" stroke="#2AC3A2" stroke-width="2" stroke-linejoin="round"/>
<path d="M356.782 271.049C362.169 270.071 367.385 271.469 368.953 274.31" stroke="#2AC3A2" stroke-width="2" stroke-linejoin="round"/>
<path d="M357.598 274.091C360.445 273.724 362.618 274.307 363.683 275.722" stroke="#2AC3A2" stroke-width="2" stroke-linejoin="round"/>
<path d="M375.003 281.364L372.882 283.486M401.064 274.899L388.337 287.627L401.064 274.899ZM392.216 277.011L383.024 286.203L392.216 277.011ZM383.851 279.252L378.194 284.909L383.851 279.252Z" stroke="#2AC3A2" stroke-width="2"/>
<path d="M419.4 281.426L418.693 282.133L419.659 282.392L421.301 282.832L416.988 287.145L410.226 285.333L414.539 281.02L416.182 281.46L417.147 281.719L417.855 281.012L418.42 280.446L419.966 280.86L419.4 281.426Z" fill="#B3FFE3" fill-opacity="0.2" stroke="#2AC3A2" stroke-width="2"/>
<path d="M411.26 292.873L404.499 291.061L408.812 286.747L415.574 288.559L411.26 292.873Z" fill="#2AC3A2" stroke="#2AC3A2" stroke-width="2"/>
<rect x="0.258819" y="0.965926" width="484.78" height="48" transform="matrix(0.965926 0.258819 -0.707107 0.707107 -14.6226 149.201)" stroke="#2AC3A2" stroke-width="2"/>
<rect x="0.258819" y="0.965926" width="348.78" height="33" rx="9" transform="matrix(0.965926 0.258819 -0.707107 0.707107 -35.9627 195.036)" stroke="#2AC3A2" stroke-width="2"/>
<rect x="0.258819" y="0.965926" width="16" height="16" rx="1" transform="matrix(0.965926 0.258819 -0.707107 0.707107 325.832 299.6)" stroke="#2AC3A2" stroke-width="2"/>
<line y1="-1" x2="18" y2="-1" transform="matrix(0.965926 0.258819 -0.707107 0.707107 369.384 313.928)" stroke="#2AC3A2" stroke-width="2"/>
<line y1="-1" x2="18" y2="-1" transform="matrix(0.965926 0.258819 -0.707107 0.707107 365.141 318.171)" stroke="#2AC3A2" stroke-width="2"/>
<line y1="-1" x2="18" y2="-1" transform="matrix(0.965926 0.258819 -0.707107 0.707107 360.898 322.414)" stroke="#2AC3A2" stroke-width="2"/>
<rect x="-0.258819" y="-0.965926" width="488.78" height="52" transform="matrix(0.965926 0.258819 -0.707107 0.707107 -51.3615 184.125)" stroke="#2AC3A2" stroke-width="2"/>
<rect x="0.258819" y="0.965926" width="55.6667" height="23" rx="11.5" transform="matrix(0.965926 0.258819 -0.707107 0.707107 -7.03131 285.722)" fill="#B3FFE3" fill-opacity="0.3" stroke="#2AC3A2" stroke-width="2"/>
<rect x="0.258819" y="0.965926" width="55.6667" height="23" rx="11.5" transform="matrix(0.965926 0.258819 -0.707107 0.707107 58.3295 303.235)" fill="#B3FFE3" fill-opacity="0.3" stroke="#2AC3A2" stroke-width="2"/>
<rect x="0.258819" y="0.965926" width="384.78" height="423" transform="matrix(0.965926 0.258819 -0.707107 0.707107 -107.748 303.564)" fill="white" fill-opacity="0.5" stroke="#2AC3A2" stroke-width="2"/>
</g>
<path d="M1.17564 156.99L432.732 272.625L438.389 266.968L6.83249 151.333L1.17564 156.99ZM436.873 288.08L-100.528 825.481L-92.8007 827.552L444.6 290.151L436.873 288.08ZM-127.297 832.654L-558.853 717.019L-564.51 722.676L-132.953 838.311L-127.297 832.654ZM-562.994 701.564L-25.5929 164.163L-33.3203 162.092L-570.721 699.493L-562.994 701.564ZM-558.853 717.019C-567.388 714.732 -569.242 707.812 -562.994 701.564L-570.721 699.493C-580.094 708.866 -577.313 719.245 -564.51 722.676L-558.853 717.019ZM-100.528 825.481C-106.776 831.73 -118.761 834.941 -127.297 832.654L-132.953 838.311C-120.15 841.741 -102.173 836.924 -92.8007 827.552L-100.528 825.481ZM432.732 272.625C441.267 274.912 443.121 281.832 436.873 288.08L444.6 290.151C453.973 280.778 451.192 270.399 438.389 266.968L432.732 272.625ZM6.83249 151.333C-5.97069 147.903 -23.9477 152.72 -33.3203 162.092L-25.5929 164.163C-19.3445 157.914 -7.35983 154.703 1.17564 156.99L6.83249 151.333Z" fill="#2AC3A2"/>
<path d="M1998.54 15.4121C2006.35 7.60166 2021.33 3.58756 2032 6.4464L2463.56 122.081C2474.23 124.94 2476.55 133.589 2468.74 141.4L1931.33 678.801C1923.52 686.611 1908.54 690.626 1897.87 687.767L1466.32 572.132C1455.65 569.273 1453.33 560.624 1461.14 552.813L1998.54 15.4121Z" fill="#FF9AA2" fill-opacity="0.2"/>
<path d="M2029.18 9.27483L2460.73 124.91L2466.39 119.253L2034.83 3.61797L2029.18 9.27483ZM2464.87 140.365L1927.47 677.766L1935.2 679.836L2472.6 142.435L2464.87 140.365ZM1900.7 684.938L1469.15 569.303L1463.49 574.96L1895.05 690.595L1900.7 684.938ZM1465.01 553.849L2002.41 16.4474L1994.68 14.3769L1457.28 551.778L1465.01 553.849ZM1469.15 569.303C1460.61 567.016 1458.76 560.097 1465.01 553.849L1457.28 551.778C1447.91 561.151 1450.69 571.53 1463.49 574.96L1469.15 569.303ZM1927.47 677.766C1921.22 684.014 1909.24 687.225 1900.7 684.938L1895.05 690.595C1907.85 694.026 1925.83 689.209 1935.2 679.836L1927.47 677.766ZM2460.73 124.91C2469.27 127.197 2471.12 134.116 2464.87 140.365L2472.6 142.435C2481.97 133.063 2479.19 122.683 2466.39 119.253L2460.73 124.91ZM2034.83 3.61797C2022.03 0.187371 2004.05 5.00428 1994.68 14.3769L2002.41 16.4474C2008.66 10.199 2020.64 6.98776 2029.18 9.27483L2034.83 3.61797Z" fill="#2AC3A2"/>
<g clip-path="url(#clip12)">
<path d="M1998.54 -51.6826C2006.35 -59.4931 2021.33 -63.5072 2032 -60.6483L2463.56 54.9868C2474.23 57.8457 2476.55 66.4949 2468.74 74.3054L1931.34 611.707C1923.53 619.517 1908.54 623.531 1897.87 620.672L1466.32 505.037C1455.65 502.178 1453.33 493.529 1461.14 485.719L1998.54 -51.6826Z" fill="white" fill-opacity="0.6"/>
</g>
<path d="M2029.18 -57.8199L2460.73 57.8153L2466.39 52.1584L2034.83 -63.4768L2029.18 -57.8199ZM2464.87 73.2701L1927.47 610.671L1935.2 612.742L2472.6 75.3406L2464.87 73.2701ZM1900.7 617.844L1469.15 502.209L1463.49 507.866L1895.05 623.501L1900.7 617.844ZM1465.01 486.754L2002.41 -50.6473L1994.68 -52.7179L1457.28 484.683L1465.01 486.754ZM1469.15 502.209C1460.61 499.922 1458.76 493.002 1465.01 486.754L1457.28 484.683C1447.91 494.056 1450.69 504.435 1463.49 507.866L1469.15 502.209ZM1927.47 610.671C1921.22 616.92 1909.24 620.131 1900.7 617.844L1895.05 623.501C1907.85 626.931 1925.83 622.114 1935.2 612.742L1927.47 610.671ZM2460.73 57.8153C2469.27 60.1023 2471.12 67.0217 2464.87 73.2701L2472.6 75.3406C2481.97 65.9681 2479.19 55.589 2466.39 52.1584L2460.73 57.8153ZM2034.83 -63.4768C2022.03 -66.9074 2004.05 -62.0904 1994.68 -52.7179L2002.41 -50.6473C2008.66 -56.8957 2020.64 -60.107 2029.18 -57.8199L2034.83 -63.4768Z" fill="#2AC3A2"/>
<g clip-path="url(#clip13)">
<path d="M1998.54 -118.778C2006.35 -126.588 2021.33 -130.602 2032 -127.743L2463.56 -12.1081C2474.23 -9.24929 2476.55 -0.600094 2468.74 7.21039L1931.34 544.612C1923.53 552.422 1908.54 556.436 1897.87 553.577L1466.32 437.942C1455.65 435.083 1453.33 426.434 1461.14 418.624L1998.54 -118.778Z" fill="white" fill-opacity="0.8"/>
<rect x="0.258819" y="0.965926" width="266" height="3" rx="1.5" transform="matrix(0.965926 0.258819 -0.707107 0.707107 1563.96 450.687)" fill="#B3FFE3" fill-opacity="0.5" stroke="#2AC3A2" stroke-width="2"/>
<rect x="-0.258819" y="-0.965926" width="488.78" height="27" transform="matrix(0.965926 0.258819 -0.707107 0.707107 1463.99 414.872)" stroke="#2AC3A2" stroke-width="2"/>
</g>
<path d="M2029.18 -124.915L2460.73 -9.2797L2466.39 -14.9366L2034.83 -130.572L2029.18 -124.915ZM2464.87 6.17512L1927.47 543.576L1935.2 545.647L2472.6 8.24567L2464.87 6.17512ZM1900.7 550.749L1469.15 435.114L1463.49 440.771L1895.05 556.406L1900.7 550.749ZM1465.01 419.659L2002.41 -117.742L1994.68 -119.813L1457.28 417.588L1465.01 419.659ZM1469.15 435.114C1460.61 432.827 1458.76 425.907 1465.01 419.659L1457.28 417.588C1447.91 426.961 1450.69 437.34 1463.49 440.771L1469.15 435.114ZM1927.47 543.576C1921.22 549.825 1909.24 553.036 1900.7 550.749L1895.05 556.406C1907.85 559.836 1925.83 555.019 1935.2 545.647L1927.47 543.576ZM2460.73 -9.2797C2469.27 -6.99263 2471.12 -0.0732737 2464.87 6.17512L2472.6 8.24567C2481.97 -1.12691 2479.19 -11.5059 2466.39 -14.9366L2460.73 -9.2797ZM2034.83 -130.572C2022.03 -134.002 2004.05 -129.185 1994.68 -119.813L2002.41 -117.742C2008.66 -123.991 2020.64 -127.202 2029.18 -124.915L2034.83 -130.572Z" fill="#2AC3A2"/>
<g clip-path="url(#clip14)">
<path d="M1998.54 -185.873C2006.35 -193.683 2021.33 -197.697 2032 -194.838L2463.56 -79.2031C2474.23 -76.3443 2476.55 -67.6951 2468.74 -59.8846L1931.34 477.517C1923.53 485.327 1908.54 489.341 1897.87 486.482L1466.32 370.847C1455.65 367.988 1453.33 359.339 1461.14 351.529L1998.54 -185.873Z" fill="white" fill-opacity="0.8"/>
<rect x="0.258819" y="0.965926" width="384.78" height="423" transform="matrix(0.965926 0.258819 -0.707107 0.707107 1920.25 -45.4364)" fill="white" fill-opacity="0.5" stroke="#2AC3A2" stroke-width="2"/>
<rect x="0.258819" y="0.965926" width="384.78" height="23" transform="matrix(0.965926 0.258819 -0.707107 0.707107 1602.05 272.762)" fill="#B3FFE3" fill-opacity="0.3" stroke="#2AC3A2" stroke-width="2"/>
<rect x="0.258819" y="0.965926" width="177.78" height="23" transform="matrix(0.965926 0.258819 -0.707107 0.707107 1577.31 297.51)" fill="#B3FFE3" fill-opacity="0.3" stroke="#2AC3A2" stroke-width="2"/>
<rect x="0.258819" y="0.965926" width="266" height="3" rx="1.5" transform="matrix(0.965926 0.258819 -0.707107 0.707107 1563.96 383.592)" fill="#B3FFE3" fill-opacity="0.5" stroke="#2AC3A2" stroke-width="2"/>
<rect x="-0.258819" y="-0.965926" width="488.78" height="27" transform="matrix(0.965926 0.258819 -0.707107 0.707107 1463.99 347.777)" stroke="#2AC3A2" stroke-width="2"/>
</g>
<path d="M2029.18 -192.01L2460.73 -76.3747L2466.39 -82.0315L2034.83 -197.667L2029.18 -192.01ZM2464.87 -60.9199L1927.47 476.481L1935.2 478.552L2472.6 -58.8493L2464.87 -60.9199ZM1900.7 483.654L1469.15 368.019L1463.49 373.676L1895.05 489.311L1900.7 483.654ZM1465.01 352.564L2002.41 -184.837L1994.68 -186.908L1457.28 350.493L1465.01 352.564ZM1469.15 368.019C1460.61 365.732 1458.76 358.812 1465.01 352.564L1457.28 350.493C1447.91 359.866 1450.69 370.245 1463.49 373.676L1469.15 368.019ZM1927.47 476.481C1921.22 482.73 1909.24 485.941 1900.7 483.654L1895.05 489.311C1907.85 492.741 1925.83 487.924 1935.2 478.552L1927.47 476.481ZM2460.73 -76.3747C2469.27 -74.0876 2471.12 -67.1682 2464.87 -60.9199L2472.6 -58.8493C2481.97 -68.2219 2479.19 -78.6009 2466.39 -82.0315L2460.73 -76.3747ZM2034.83 -197.667C2022.03 -201.097 2004.05 -196.28 1994.68 -186.908L2002.41 -184.837C2008.66 -191.086 2020.64 -194.297 2029.18 -192.01L2034.83 -197.667Z" fill="#2AC3A2"/>
<path d="M1304.54 810.412C1312.35 802.602 1327.33 798.588 1338 801.446L1769.56 917.081C1780.23 919.94 1782.55 928.589 1774.74 936.4L1237.33 1473.8C1229.52 1481.61 1214.54 1485.63 1203.87 1482.77L772.319 1367.13C761.649 1364.27 759.332 1355.62 767.142 1347.81L1304.54 810.412Z" fill="#FF9AA2" fill-opacity="0.2"/>
<path d="M1335.18 804.275L1766.73 919.91L1772.39 914.253L1340.83 798.618L1335.18 804.275ZM1770.87 935.365L1233.47 1472.77L1241.2 1474.84L1778.6 937.435L1770.87 935.365ZM1206.7 1479.94L775.147 1364.3L769.49 1369.96L1201.05 1485.6L1206.7 1479.94ZM771.006 1348.85L1308.41 811.447L1300.68 809.377L763.279 1346.78L771.006 1348.85ZM775.147 1364.3C766.612 1362.02 764.758 1355.1 771.006 1348.85L763.279 1346.78C753.906 1356.15 756.687 1366.53 769.49 1369.96L775.147 1364.3ZM1233.47 1472.77C1227.22 1479.01 1215.24 1482.23 1206.7 1479.94L1201.05 1485.6C1213.85 1489.03 1231.83 1484.21 1241.2 1474.84L1233.47 1472.77ZM1766.73 919.91C1775.27 922.197 1777.12 929.116 1770.87 935.365L1778.6 937.435C1787.97 928.063 1785.19 917.683 1772.39 914.253L1766.73 919.91ZM1340.83 798.618C1328.03 795.187 1310.05 800.004 1300.68 809.377L1308.41 811.447C1314.66 805.199 1326.64 801.988 1335.18 804.275L1340.83 798.618Z" fill="#2AC3A2"/>
<g clip-path="url(#clip15)">
<path d="M1304.54 743.317C1312.35 735.507 1327.33 731.493 1338 734.352L1769.56 849.987C1780.23 852.846 1782.55 861.495 1774.74 869.305L1237.34 1406.71C1229.53 1414.52 1214.54 1418.53 1203.87 1415.67L772.319 1300.04C761.649 1297.18 759.332 1288.53 767.142 1280.72L1304.54 743.317Z" fill="white" fill-opacity="0.6"/>
<path d="M1691.97 857.315C1691.65 857.411 1691.44 857.638 1691.5 857.823C1691.57 858.007 1691.88 858.078 1692.21 857.982L1692.22 857.977C1692.55 857.881 1692.76 857.653 1692.69 857.469C1692.62 857.285 1692.31 857.213 1691.98 857.31L1691.97 857.315Z" stroke="#2AC3A2" stroke-linecap="round" stroke-linejoin="round"/>
<path d="M1690.72 847.994C1698.8 846.528 1705.75 848.391 1708.11 852.653" stroke="#2AC3A2" stroke-width="2" stroke-linejoin="round"/>
<path d="M1690.78 851.238C1696.17 850.261 1701.39 851.658 1702.95 854.499" stroke="#2AC3A2" stroke-width="2" stroke-linejoin="round"/>
<path d="M1691.6 854.281C1694.44 853.914 1696.62 854.496 1697.68 855.911" stroke="#2AC3A2" stroke-width="2" stroke-linejoin="round"/>
<path d="M1709 861.554L1706.88 863.676M1735.06 855.089L1722.34 867.817L1735.06 855.089ZM1726.22 857.201L1717.02 866.393L1726.22 857.201ZM1717.85 859.442L1712.19 865.099L1717.85 859.442Z" stroke="#2AC3A2" stroke-width="2"/>
<path d="M1753.4 861.616L1752.69 862.323L1753.66 862.582L1755.3 863.022L1750.99 867.335L1744.23 865.523L1748.54 861.21L1750.18 861.65L1751.15 861.909L1751.85 861.201L1752.42 860.636L1753.97 861.05L1753.4 861.616Z" fill="#B3FFE3" fill-opacity="0.2" stroke="#2AC3A2" stroke-width="2"/>
<path d="M1745.26 873.062L1738.5 871.251L1742.81 866.937L1749.57 868.749L1745.26 873.062Z" fill="#2AC3A2" stroke="#2AC3A2" stroke-width="2"/>
<rect x="0.258819" y="0.965926" width="484.78" height="48" transform="matrix(0.965926 0.258819 -0.707107 0.707107 1319.38 729.391)" stroke="#2AC3A2" stroke-width="2"/>
</g>
<path d="M1335.18 737.18L1766.73 852.815L1772.39 847.158L1340.83 731.523L1335.18 737.18ZM1770.87 868.27L1233.47 1405.67L1241.2 1407.74L1778.6 870.341L1770.87 868.27ZM1206.7 1412.84L775.147 1297.21L769.49 1302.87L1201.05 1418.5L1206.7 1412.84ZM771.006 1281.75L1308.41 744.353L1300.68 742.282L763.279 1279.68L771.006 1281.75ZM775.147 1297.21C766.612 1294.92 764.758 1288 771.006 1281.75L763.279 1279.68C753.906 1289.06 756.687 1299.43 769.49 1302.87L775.147 1297.21ZM1233.47 1405.67C1227.22 1411.92 1215.24 1415.13 1206.7 1412.84L1201.05 1418.5C1213.85 1421.93 1231.83 1417.11 1241.2 1407.74L1233.47 1405.67ZM1766.73 852.815C1775.27 855.102 1777.12 862.022 1770.87 868.27L1778.6 870.341C1787.97 860.968 1785.19 850.589 1772.39 847.158L1766.73 852.815ZM1340.83 731.523C1328.03 728.093 1310.05 732.909 1300.68 742.282L1308.41 744.353C1314.66 738.104 1326.64 734.893 1335.18 737.18L1340.83 731.523Z" fill="#2AC3A2"/>
<g clip-path="url(#clip16)">
<path d="M1304.54 676.222C1312.35 668.412 1327.33 664.398 1338 667.257L1769.56 782.892C1780.23 785.751 1782.55 794.4 1774.74 802.21L1237.34 1339.61C1229.53 1347.42 1214.54 1351.44 1203.87 1348.58L772.319 1232.94C761.649 1230.08 759.332 1221.43 767.142 1213.62L1304.54 676.222Z" fill="white" fill-opacity="0.8"/>
<path d="M1691.97 790.22C1691.65 790.316 1691.44 790.544 1691.5 790.728C1691.57 790.912 1691.88 790.983 1692.21 790.887L1692.22 790.882C1692.55 790.786 1692.76 790.558 1692.69 790.374C1692.62 790.19 1692.31 790.119 1691.98 790.215L1691.97 790.22Z" stroke="#2AC3A2" stroke-linecap="round" stroke-linejoin="round"/>
<path d="M1690.72 780.899C1698.8 779.433 1705.75 781.296 1708.11 785.558" stroke="#2AC3A2" stroke-width="2" stroke-linejoin="round"/>
<path d="M1690.78 784.143C1696.17 783.166 1701.39 784.564 1702.95 787.404" stroke="#2AC3A2" stroke-width="2" stroke-linejoin="round"/>
<path d="M1691.6 787.186C1694.44 786.819 1696.62 787.402 1697.68 788.817" stroke="#2AC3A2" stroke-width="2" stroke-linejoin="round"/>
<path d="M1709 794.459L1706.88 796.581M1735.06 787.994L1722.34 800.722L1735.06 787.994ZM1726.22 790.106L1717.02 799.298L1726.22 790.106ZM1717.85 792.347L1712.19 798.004L1717.85 792.347Z" stroke="#2AC3A2" stroke-width="2"/>
<path d="M1753.4 794.521L1752.69 795.228L1753.66 795.487L1755.3 795.927L1750.99 800.24L1744.23 798.428L1748.54 794.115L1750.18 794.555L1751.15 794.814L1751.85 794.107L1752.42 793.541L1753.97 793.955L1753.4 794.521Z" fill="#B3FFE3" fill-opacity="0.2" stroke="#2AC3A2" stroke-width="2"/>
<path d="M1745.26 805.968L1738.5 804.156L1742.81 799.843L1749.57 801.654L1745.26 805.968Z" fill="#2AC3A2" stroke="#2AC3A2" stroke-width="2"/>
<rect x="0.258819" y="0.965926" width="484.78" height="48" transform="matrix(0.965926 0.258819 -0.707107 0.707107 1319.38 662.296)" stroke="#2AC3A2" stroke-width="2"/>
<rect x="0.258819" y="0.965926" width="348.78" height="33" rx="9" transform="matrix(0.965926 0.258819 -0.707107 0.707107 1298.04 708.131)" stroke="#2AC3A2" stroke-width="2"/>
<rect x="0.258819" y="0.965926" width="16" height="16" rx="1" transform="matrix(0.965926 0.258819 -0.707107 0.707107 1659.83 812.695)" stroke="#2AC3A2" stroke-width="2"/>
<line y1="-1" x2="18" y2="-1" transform="matrix(0.965926 0.258819 -0.707107 0.707107 1703.38 827.024)" stroke="#2AC3A2" stroke-width="2"/>
<line y1="-1" x2="18" y2="-1" transform="matrix(0.965926 0.258819 -0.707107 0.707107 1699.14 831.266)" stroke="#2AC3A2" stroke-width="2"/>
<line y1="-1" x2="18" y2="-1" transform="matrix(0.965926 0.258819 -0.707107 0.707107 1694.9 835.509)" stroke="#2AC3A2" stroke-width="2"/>
<rect x="-0.258819" y="-0.965926" width="488.78" height="52" transform="matrix(0.965926 0.258819 -0.707107 0.707107 1282.64 697.22)" stroke="#2AC3A2" stroke-width="2"/>
</g>
<path d="M1335.18 670.085L1766.73 785.72L1772.39 780.063L1340.83 664.428L1335.18 670.085ZM1770.87 801.175L1233.47 1338.58L1241.2 1340.65L1778.6 803.246L1770.87 801.175ZM1206.7 1345.75L775.147 1230.11L769.49 1235.77L1201.05 1351.41L1206.7 1345.75ZM771.006 1214.66L1308.41 677.258L1300.68 675.187L763.279 1212.59L771.006 1214.66ZM775.147 1230.11C766.612 1227.83 764.758 1220.91 771.006 1214.66L763.279 1212.59C753.906 1221.96 756.687 1232.34 769.49 1235.77L775.147 1230.11ZM1233.47 1338.58C1227.22 1344.82 1215.24 1348.04 1206.7 1345.75L1201.05 1351.41C1213.85 1354.84 1231.83 1350.02 1241.2 1340.65L1233.47 1338.58ZM1766.73 785.72C1775.27 788.007 1777.12 794.927 1770.87 801.175L1778.6 803.246C1787.97 793.873 1785.19 783.494 1772.39 780.063L1766.73 785.72ZM1340.83 664.428C1328.03 660.998 1310.05 665.815 1300.68 675.187L1308.41 677.258C1314.66 671.009 1326.64 667.798 1335.18 670.085L1340.83 664.428Z" fill="#2AC3A2"/>
<g clip-path="url(#clip17)">
<path d="M1304.54 609.127C1312.35 601.317 1327.33 597.303 1338 600.162L1769.56 715.797C1780.23 718.656 1782.55 727.305 1774.74 735.115L1237.34 1272.52C1229.53 1280.33 1214.54 1284.34 1203.87 1281.48L772.319 1165.85C761.649 1162.99 759.332 1154.34 767.142 1146.53L1304.54 609.127Z" fill="white" fill-opacity="0.8"/>
<path d="M1691.97 723.125C1691.65 723.221 1691.44 723.449 1691.5 723.633C1691.57 723.817 1691.88 723.888 1692.21 723.792L1692.22 723.787C1692.55 723.691 1692.76 723.463 1692.69 723.279C1692.62 723.095 1692.31 723.024 1691.98 723.12L1691.97 723.125Z" stroke="#2AC3A2" stroke-linecap="round" stroke-linejoin="round"/>
<path d="M1690.72 713.804C1698.8 712.338 1705.75 714.201 1708.11 718.463" stroke="#2AC3A2" stroke-width="2" stroke-linejoin="round"/>
<path d="M1690.78 717.048C1696.17 716.071 1701.39 717.469 1702.95 720.309" stroke="#2AC3A2" stroke-width="2" stroke-linejoin="round"/>
<path d="M1691.6 720.091C1694.44 719.724 1696.62 720.307 1697.68 721.722" stroke="#2AC3A2" stroke-width="2" stroke-linejoin="round"/>
<path d="M1709 727.364L1706.88 729.486M1735.06 720.899L1722.34 733.627L1735.06 720.899ZM1726.22 723.011L1717.02 732.203L1726.22 723.011ZM1717.85 725.252L1712.19 730.909L1717.85 725.252Z" stroke="#2AC3A2" stroke-width="2"/>
<path d="M1753.4 727.426L1752.69 728.133L1753.66 728.392L1755.3 728.832L1750.99 733.145L1744.23 731.333L1748.54 727.02L1750.18 727.46L1751.15 727.719L1751.85 727.012L1752.42 726.446L1753.97 726.86L1753.4 727.426Z" fill="#B3FFE3" fill-opacity="0.2" stroke="#2AC3A2" stroke-width="2"/>
<path d="M1745.26 738.873L1738.5 737.061L1742.81 732.748L1749.57 734.559L1745.26 738.873Z" fill="#2AC3A2" stroke="#2AC3A2" stroke-width="2"/>
<rect x="0.258819" y="0.965926" width="484.78" height="48" transform="matrix(0.965926 0.258819 -0.707107 0.707107 1319.38 595.201)" stroke="#2AC3A2" stroke-width="2"/>
<rect x="0.258819" y="0.965926" width="348.78" height="33" rx="9" transform="matrix(0.965926 0.258819 -0.707107 0.707107 1298.04 641.036)" stroke="#2AC3A2" stroke-width="2"/>
<rect x="0.258819" y="0.965926" width="16" height="16" rx="1" transform="matrix(0.965926 0.258819 -0.707107 0.707107 1659.83 745.6)" stroke="#2AC3A2" stroke-width="2"/>
<line y1="-1" x2="18" y2="-1" transform="matrix(0.965926 0.258819 -0.707107 0.707107 1703.38 759.929)" stroke="#2AC3A2" stroke-width="2"/>
<line y1="-1" x2="18" y2="-1" transform="matrix(0.965926 0.258819 -0.707107 0.707107 1699.14 764.171)" stroke="#2AC3A2" stroke-width="2"/>
<line y1="-1" x2="18" y2="-1" transform="matrix(0.965926 0.258819 -0.707107 0.707107 1694.9 768.414)" stroke="#2AC3A2" stroke-width="2"/>
<rect x="-0.258819" y="-0.965926" width="488.78" height="52" transform="matrix(0.965926 0.258819 -0.707107 0.707107 1282.64 630.125)" stroke="#2AC3A2" stroke-width="2"/>
<rect x="0.258819" y="0.965926" width="55.6667" height="23" rx="11.5" transform="matrix(0.965926 0.258819 -0.707107 0.707107 1261.61 714.208)" fill="#B3FFE3" fill-opacity="0.3" stroke="#2AC3A2" stroke-width="2"/>
<rect x="0.258819" y="0.965926" width="55.6667" height="23" rx="11.5" transform="matrix(0.965926 0.258819 -0.707107 0.707107 1326.97 731.722)" fill="#B3FFE3" fill-opacity="0.3" stroke="#2AC3A2" stroke-width="2"/>
<rect x="0.258819" y="0.965926" width="55.6667" height="23" rx="11.5" transform="matrix(0.965926 0.258819 -0.707107 0.707107 1392.33 749.235)" fill="#B3FFE3" fill-opacity="0.3" stroke="#2AC3A2" stroke-width="2"/>
<rect x="0.258819" y="0.965926" width="384.78" height="423" transform="matrix(0.965926 0.258819 -0.707107 0.707107 1226.25 749.564)" fill="white" fill-opacity="0.5" stroke="#2AC3A2" stroke-width="2"/>
<rect x="0.258819" y="0.965926" width="384.78" height="23" transform="matrix(0.965926 0.258819 -0.707107 0.707107 908.055 1067.76)" fill="#B3FFE3" fill-opacity="0.3" stroke="#2AC3A2" stroke-width="2"/>
</g>
<path d="M1335.18 602.99L1766.73 718.625L1772.39 712.968L1340.83 597.333L1335.18 602.99ZM1770.87 734.08L1233.47 1271.48L1241.2 1273.55L1778.6 736.151L1770.87 734.08ZM1206.7 1278.65L775.147 1163.02L769.49 1168.68L1201.05 1284.31L1206.7 1278.65ZM771.006 1147.56L1308.41 610.163L1300.68 608.092L763.279 1145.49L771.006 1147.56ZM775.147 1163.02C766.612 1160.73 764.758 1153.81 771.006 1147.56L763.279 1145.49C753.906 1154.87 756.687 1165.24 769.49 1168.68L775.147 1163.02ZM1233.47 1271.48C1227.22 1277.73 1215.24 1280.94 1206.7 1278.65L1201.05 1284.31C1213.85 1287.74 1231.83 1282.92 1241.2 1273.55L1233.47 1271.48ZM1766.73 718.625C1775.27 720.912 1777.12 727.832 1770.87 734.08L1778.6 736.151C1787.97 726.778 1785.19 716.399 1772.39 712.968L1766.73 718.625ZM1340.83 597.333C1328.03 593.903 1310.05 598.72 1300.68 608.092L1308.41 610.163C1314.66 603.914 1326.64 600.703 1335.18 602.99L1340.83 597.333Z" fill="#2AC3A2"/>
<path d="M2131.54 920.412C2139.35 912.602 2154.33 908.588 2165 911.446L2596.56 1027.08C2607.23 1029.94 2609.55 1038.59 2601.74 1046.4L2064.33 1583.8C2056.52 1591.61 2041.54 1595.63 2030.87 1592.77L1599.32 1477.13C1588.65 1474.27 1586.33 1465.62 1594.14 1457.81L2131.54 920.412Z" fill="#FF9AA2" fill-opacity="0.2"/>
<path d="M2162.18 914.275L2593.73 1029.91L2599.39 1024.25L2167.83 908.618L2162.18 914.275ZM2597.87 1045.36L2060.47 1582.77L2068.2 1584.84L2605.6 1047.44L2597.87 1045.36ZM2033.7 1589.94L1602.15 1474.3L1596.49 1479.96L2028.05 1595.6L2033.7 1589.94ZM1598.01 1458.85L2135.41 921.447L2127.68 919.377L1590.28 1456.78L1598.01 1458.85ZM1602.15 1474.3C1593.61 1472.02 1591.76 1465.1 1598.01 1458.85L1590.28 1456.78C1580.91 1466.15 1583.69 1476.53 1596.49 1479.96L1602.15 1474.3ZM2060.47 1582.77C2054.22 1589.01 2042.24 1592.23 2033.7 1589.94L2028.05 1595.6C2040.85 1599.03 2058.83 1594.21 2068.2 1584.84L2060.47 1582.77ZM2593.73 1029.91C2602.27 1032.2 2604.12 1039.12 2597.87 1045.36L2605.6 1047.44C2614.97 1038.06 2612.19 1027.68 2599.39 1024.25L2593.73 1029.91ZM2167.83 908.618C2155.03 905.187 2137.05 910.004 2127.68 919.377L2135.41 921.447C2141.66 915.199 2153.64 911.988 2162.18 914.275L2167.83 908.618Z" fill="#2AC3A2"/>
<g clip-path="url(#clip18)">
<path d="M2131.54 853.317C2139.35 845.507 2154.33 841.493 2165 844.352L2596.56 959.987C2607.23 962.846 2609.55 971.495 2601.74 979.305L2064.34 1516.71C2056.53 1524.52 2041.54 1528.53 2030.87 1525.67L1599.32 1410.04C1588.65 1407.18 1586.33 1398.53 1594.14 1390.72L2131.54 853.317Z" fill="white" fill-opacity="0.6"/>
</g>
<path d="M2162.18 847.18L2593.73 962.815L2599.39 957.158L2167.83 841.523L2162.18 847.18ZM2597.87 978.27L2060.47 1515.67L2068.2 1517.74L2605.6 980.341L2597.87 978.27ZM2033.7 1522.84L1602.15 1407.21L1596.49 1412.87L2028.05 1528.5L2033.7 1522.84ZM1598.01 1391.75L2135.41 854.353L2127.68 852.282L1590.28 1389.68L1598.01 1391.75ZM1602.15 1407.21C1593.61 1404.92 1591.76 1398 1598.01 1391.75L1590.28 1389.68C1580.91 1399.06 1583.69 1409.43 1596.49 1412.87L1602.15 1407.21ZM2060.47 1515.67C2054.22 1521.92 2042.24 1525.13 2033.7 1522.84L2028.05 1528.5C2040.85 1531.93 2058.83 1527.11 2068.2 1517.74L2060.47 1515.67ZM2593.73 962.815C2602.27 965.102 2604.12 972.022 2597.87 978.27L2605.6 980.341C2614.97 970.968 2612.19 960.589 2599.39 957.158L2593.73 962.815ZM2167.83 841.523C2155.03 838.093 2137.05 842.909 2127.68 852.282L2135.41 854.353C2141.66 848.104 2153.64 844.893 2162.18 847.18L2167.83 841.523Z" fill="#2AC3A2"/>
<g clip-path="url(#clip19)">
<path d="M2131.54 786.222C2139.35 778.412 2154.33 774.398 2165 777.257L2596.56 892.892C2607.23 895.751 2609.55 904.4 2601.74 912.21L2064.34 1449.61C2056.53 1457.42 2041.54 1461.44 2030.87 1458.58L1599.32 1342.94C1588.65 1340.08 1586.33 1331.43 1594.14 1323.62L2131.54 786.222Z" fill="white" fill-opacity="0.8"/>
</g>
<path d="M2162.18 780.085L2593.73 895.72L2599.39 890.063L2167.83 774.428L2162.18 780.085ZM2597.87 911.175L2060.47 1448.58L2068.2 1450.65L2605.6 913.246L2597.87 911.175ZM2033.7 1455.75L1602.15 1340.11L1596.49 1345.77L2028.05 1461.41L2033.7 1455.75ZM1598.01 1324.66L2135.41 787.258L2127.68 785.187L1590.28 1322.59L1598.01 1324.66ZM1602.15 1340.11C1593.61 1337.83 1591.76 1330.91 1598.01 1324.66L1590.28 1322.59C1580.91 1331.96 1583.69 1342.34 1596.49 1345.77L1602.15 1340.11ZM2060.47 1448.58C2054.22 1454.82 2042.24 1458.04 2033.7 1455.75L2028.05 1461.41C2040.85 1464.84 2058.83 1460.02 2068.2 1450.65L2060.47 1448.58ZM2593.73 895.72C2602.27 898.007 2604.12 904.927 2597.87 911.175L2605.6 913.246C2614.97 903.873 2612.19 893.494 2599.39 890.063L2593.73 895.72ZM2167.83 774.428C2155.03 770.998 2137.05 775.815 2127.68 785.187L2135.41 787.258C2141.66 781.009 2153.64 777.798 2162.18 780.085L2167.83 774.428Z" fill="#2AC3A2"/>
<g clip-path="url(#clip20)">
<path d="M2131.54 719.127C2139.35 711.317 2154.33 707.303 2165 710.162L2596.56 825.797C2607.23 828.656 2609.55 837.305 2601.74 845.115L2064.34 1382.52C2056.53 1390.33 2041.54 1394.34 2030.87 1391.48L1599.32 1275.85C1588.65 1272.99 1586.33 1264.34 1594.14 1256.53L2131.54 719.127Z" fill="white" fill-opacity="0.8"/>
<rect x="0.258819" y="0.965926" width="384.78" height="423" transform="matrix(0.965926 0.258819 -0.707107 0.707107 2053.25 859.564)" fill="white" fill-opacity="0.5" stroke="#2AC3A2" stroke-width="2"/>
</g>
<path d="M2162.18 712.99L2593.73 828.625L2599.39 822.968L2167.83 707.333L2162.18 712.99ZM2597.87 844.08L2060.47 1381.48L2068.2 1383.55L2605.6 846.151L2597.87 844.08ZM2033.7 1388.65L1602.15 1273.02L1596.49 1278.68L2028.05 1394.31L2033.7 1388.65ZM1598.01 1257.56L2135.41 720.163L2127.68 718.092L1590.28 1255.49L1598.01 1257.56ZM1602.15 1273.02C1593.61 1270.73 1591.76 1263.81 1598.01 1257.56L1590.28 1255.49C1580.91 1264.87 1583.69 1275.24 1596.49 1278.68L1602.15 1273.02ZM2060.47 1381.48C2054.22 1387.73 2042.24 1390.94 2033.7 1388.65L2028.05 1394.31C2040.85 1397.74 2058.83 1392.92 2068.2 1383.55L2060.47 1381.48ZM2593.73 828.625C2602.27 830.912 2604.12 837.832 2597.87 844.08L2605.6 846.151C2614.97 836.778 2612.19 826.399 2599.39 822.968L2593.73 828.625ZM2167.83 707.333C2155.03 703.903 2137.05 708.72 2127.68 718.092L2135.41 720.163C2141.66 713.914 2153.64 710.703 2162.18 712.99L2167.83 707.333Z" fill="#2AC3A2"/>
<path d="M160.543 1074.41C168.354 1066.6 183.335 1062.59 194.004 1065.45L625.559 1181.08C636.229 1183.94 638.546 1192.59 630.736 1200.4L93.3346 1737.8C85.5241 1745.61 70.5432 1749.63 59.8739 1746.77L-371.681 1631.13C-382.351 1628.27 -384.668 1619.62 -376.858 1611.81L160.543 1074.41Z" fill="#FF9AA2" fill-opacity="0.2"/>
<path d="M191.176 1068.27L622.731 1183.91L628.388 1178.25L196.832 1062.62L191.176 1068.27ZM626.872 1199.36L89.4709 1736.77L97.1983 1738.84L634.599 1201.44L626.872 1199.36ZM62.7023 1743.94L-368.853 1628.3L-374.51 1633.96L57.0455 1749.6L62.7023 1743.94ZM-372.994 1612.85L164.407 1075.45L156.68 1073.38L-380.721 1610.78L-372.994 1612.85ZM-368.853 1628.3C-377.388 1626.02 -379.242 1619.1 -372.994 1612.85L-380.721 1610.78C-390.094 1620.15 -387.313 1630.53 -374.51 1633.96L-368.853 1628.3ZM89.4709 1736.77C83.2225 1743.01 71.2378 1746.23 62.7023 1743.94L57.0455 1749.6C69.8487 1753.03 87.8257 1748.21 97.1983 1738.84L89.4709 1736.77ZM622.731 1183.91C631.266 1186.2 633.12 1193.12 626.872 1199.36L634.599 1201.44C643.972 1192.06 641.191 1181.68 628.388 1178.25L622.731 1183.91ZM196.832 1062.62C184.029 1059.19 166.052 1064 156.68 1073.38L164.407 1075.45C170.656 1069.2 182.64 1065.99 191.176 1068.27L196.832 1062.62Z" fill="#2AC3A2"/>
<g clip-path="url(#clip21)">
<path d="M160.543 1007.32C168.354 999.507 183.335 995.493 194.004 998.352L625.56 1113.99C636.23 1116.85 638.547 1125.49 630.737 1133.31L93.3356 1670.71C85.5251 1678.52 70.5443 1682.53 59.875 1679.67L-371.681 1564.04C-382.351 1561.18 -384.668 1552.53 -376.858 1544.72L160.543 1007.32Z" fill="white" fill-opacity="0.6"/>
<rect x="0.258819" y="0.965926" width="484.78" height="48" transform="matrix(0.965926 0.258819 -0.707107 0.707107 175.377 993.391)" stroke="#2AC3A2" stroke-width="2"/>
</g>
<path d="M191.176 1001.18L622.732 1116.82L628.389 1111.16L196.832 995.523L191.176 1001.18ZM626.873 1132.27L89.4719 1669.67L97.1993 1671.74L634.6 1134.34L626.873 1132.27ZM62.7034 1676.84L-368.853 1561.21L-374.51 1566.87L57.0466 1682.5L62.7034 1676.84ZM-372.994 1545.75L164.407 1008.35L156.68 1006.28L-380.721 1543.68L-372.994 1545.75ZM-368.853 1561.21C-377.388 1558.92 -379.242 1552 -372.994 1545.75L-380.721 1543.68C-390.094 1553.06 -387.313 1563.43 -374.51 1566.87L-368.853 1561.21ZM89.4719 1669.67C83.2235 1675.92 71.2389 1679.13 62.7034 1676.84L57.0466 1682.5C69.8497 1685.93 87.8267 1681.11 97.1993 1671.74L89.4719 1669.67ZM622.732 1116.82C631.267 1119.1 633.121 1126.02 626.873 1132.27L634.6 1134.34C643.973 1124.97 641.192 1114.59 628.389 1111.16L622.732 1116.82ZM196.832 995.523C184.029 992.093 166.052 996.909 156.68 1006.28L164.407 1008.35C170.656 1002.1 182.64 998.893 191.176 1001.18L196.832 995.523Z" fill="#2AC3A2"/>
<g clip-path="url(#clip22)">
<path d="M160.543 940.222C168.354 932.412 183.335 928.398 194.004 931.257L625.56 1046.89C636.23 1049.75 638.547 1058.4 630.737 1066.21L93.3356 1603.61C85.5251 1611.42 70.5443 1615.44 59.875 1612.58L-371.681 1496.94C-382.351 1494.08 -384.668 1485.43 -376.858 1477.62L160.543 940.222Z" fill="white" fill-opacity="0.8"/>
<path d="M547.969 1054.22C547.645 1054.32 547.436 1054.54 547.502 1054.73C547.568 1054.91 547.884 1054.98 548.208 1054.89L548.224 1054.88C548.548 1054.79 548.757 1054.56 548.691 1054.37C548.625 1054.19 548.309 1054.12 547.985 1054.22L547.969 1054.22Z" stroke="#2AC3A2" stroke-linecap="round" stroke-linejoin="round"/>
<path d="M546.72 1044.9C554.8 1043.43 561.755 1045.3 564.107 1049.56" stroke="#2AC3A2" stroke-width="2" stroke-linejoin="round"/>
<path d="M546.783 1048.14C552.169 1047.17 557.385 1048.56 558.954 1051.4" stroke="#2AC3A2" stroke-width="2" stroke-linejoin="round"/>
<path d="M547.598 1051.19C550.445 1050.82 552.618 1051.4 553.683 1052.82" stroke="#2AC3A2" stroke-width="2" stroke-linejoin="round"/>
<path d="M565.003 1058.46L562.882 1060.58M591.065 1051.99L578.337 1064.72L591.065 1051.99ZM582.217 1054.11L573.024 1063.3L582.217 1054.11ZM573.851 1056.35L568.195 1062L573.851 1056.35Z" stroke="#2AC3A2" stroke-width="2"/>
<path d="M609.4 1058.52L608.693 1059.23L609.659 1059.49L611.301 1059.93L606.987 1064.24L600.226 1062.43L604.539 1058.11L606.181 1058.55L607.147 1058.81L607.854 1058.11L608.42 1057.54L609.966 1057.96L609.4 1058.52Z" fill="#B3FFE3" fill-opacity="0.2" stroke="#2AC3A2" stroke-width="2"/>
<path d="M601.26 1069.97L594.498 1068.16L598.812 1063.84L605.573 1065.65L601.26 1069.97Z" fill="#2AC3A2" stroke="#2AC3A2" stroke-width="2"/>
<rect x="0.258819" y="0.965926" width="484.78" height="48" transform="matrix(0.965926 0.258819 -0.707107 0.707107 175.377 926.296)" stroke="#2AC3A2" stroke-width="2"/>
<rect x="0.258819" y="0.965926" width="348.78" height="33" rx="9" transform="matrix(0.965926 0.258819 -0.707107 0.707107 154.037 972.131)" stroke="#2AC3A2" stroke-width="2"/>
<rect x="0.258819" y="0.965926" width="16" height="16" rx="1" transform="matrix(0.965926 0.258819 -0.707107 0.707107 515.832 1076.69)" stroke="#2AC3A2" stroke-width="2"/>
<rect x="-0.258819" y="-0.965926" width="488.78" height="52" transform="matrix(0.965926 0.258819 -0.707107 0.707107 138.638 961.22)" stroke="#2AC3A2" stroke-width="2"/>
</g>
<path d="M191.176 934.085L622.732 1049.72L628.389 1044.06L196.832 928.428L191.176 934.085ZM626.873 1065.18L89.4719 1602.58L97.1993 1604.65L634.6 1067.25L626.873 1065.18ZM62.7034 1609.75L-368.853 1494.11L-374.51 1499.77L57.0466 1615.41L62.7034 1609.75ZM-372.994 1478.66L164.407 941.258L156.68 939.187L-380.721 1476.59L-372.994 1478.66ZM-368.853 1494.11C-377.388 1491.83 -379.242 1484.91 -372.994 1478.66L-380.721 1476.59C-390.094 1485.96 -387.313 1496.34 -374.51 1499.77L-368.853 1494.11ZM89.4719 1602.58C83.2235 1608.82 71.2389 1612.04 62.7034 1609.75L57.0466 1615.41C69.8497 1618.84 87.8267 1614.02 97.1993 1604.65L89.4719 1602.58ZM622.732 1049.72C631.267 1052.01 633.121 1058.93 626.873 1065.18L634.6 1067.25C643.973 1057.87 641.192 1047.49 628.389 1044.06L622.732 1049.72ZM196.832 928.428C184.029 924.998 166.052 929.815 156.68 939.187L164.407 941.258C170.656 935.009 182.64 931.798 191.176 934.085L196.832 928.428Z" fill="#2AC3A2"/>
<g clip-path="url(#clip23)">
<path d="M160.543 873.127C168.354 865.317 183.335 861.303 194.004 864.162L625.56 979.797C636.23 982.656 638.547 991.305 630.737 999.115L93.3356 1536.52C85.5251 1544.33 70.5443 1548.34 59.875 1545.48L-371.681 1429.85C-382.351 1426.99 -384.668 1418.34 -376.858 1410.53L160.543 873.127Z" fill="white" fill-opacity="0.8"/>
<path d="M547.969 987.125C547.645 987.221 547.436 987.449 547.502 987.633C547.568 987.817 547.884 987.888 548.208 987.792L548.224 987.787C548.548 987.691 548.757 987.463 548.691 987.279C548.625 987.095 548.309 987.024 547.985 987.12L547.969 987.125Z" stroke="#2AC3A2" stroke-linecap="round" stroke-linejoin="round"/>
<path d="M546.72 977.804C554.8 976.338 561.755 978.201 564.107 982.463" stroke="#2AC3A2" stroke-width="2" stroke-linejoin="round"/>
<path d="M546.783 981.048C552.169 980.071 557.385 981.469 558.954 984.309" stroke="#2AC3A2" stroke-width="2" stroke-linejoin="round"/>
<path d="M547.598 984.091C550.445 983.724 552.618 984.307 553.683 985.722" stroke="#2AC3A2" stroke-width="2" stroke-linejoin="round"/>
<path d="M565.003 991.364L562.882 993.486M591.065 984.899L578.337 997.627L591.065 984.899ZM582.217 987.011L573.024 996.203L582.217 987.011ZM573.851 989.252L568.195 994.909L573.851 989.252Z" stroke="#2AC3A2" stroke-width="2"/>
<path d="M609.4 991.426L608.693 992.133L609.659 992.392L611.301 992.832L606.987 997.145L600.226 995.333L604.539 991.02L606.181 991.46L607.147 991.719L607.854 991.012L608.42 990.446L609.966 990.86L609.4 991.426Z" fill="#B3FFE3" fill-opacity="0.2" stroke="#2AC3A2" stroke-width="2"/>
<path d="M601.26 1002.87L594.498 1001.06L598.812 996.748L605.573 998.559L601.26 1002.87Z" fill="#2AC3A2" stroke="#2AC3A2" stroke-width="2"/>
<rect x="0.258819" y="0.965926" width="484.78" height="48" transform="matrix(0.965926 0.258819 -0.707107 0.707107 175.377 859.201)" stroke="#2AC3A2" stroke-width="2"/>
<rect x="0.258819" y="0.965926" width="348.78" height="33" rx="9" transform="matrix(0.965926 0.258819 -0.707107 0.707107 154.037 905.036)" stroke="#2AC3A2" stroke-width="2"/>
<rect x="0.258819" y="0.965926" width="16" height="16" rx="1" transform="matrix(0.965926 0.258819 -0.707107 0.707107 515.832 1009.6)" stroke="#2AC3A2" stroke-width="2"/>
<line y1="-1" x2="18" y2="-1" transform="matrix(0.965926 0.258819 -0.707107 0.707107 559.383 1023.93)" stroke="#2AC3A2" stroke-width="2"/>
<line y1="-1" x2="18" y2="-1" transform="matrix(0.965926 0.258819 -0.707107 0.707107 555.141 1028.17)" stroke="#2AC3A2" stroke-width="2"/>
<line y1="-1" x2="18" y2="-1" transform="matrix(0.965926 0.258819 -0.707107 0.707107 550.898 1032.41)" stroke="#2AC3A2" stroke-width="2"/>
<rect x="-0.258819" y="-0.965926" width="488.78" height="52" transform="matrix(0.965926 0.258819 -0.707107 0.707107 138.638 894.125)" stroke="#2AC3A2" stroke-width="2"/>
<rect x="0.258819" y="0.965926" width="55.6667" height="23" rx="11.5" transform="matrix(0.965926 0.258819 -0.707107 0.707107 117.608 978.208)" fill="#B3FFE3" fill-opacity="0.3" stroke="#2AC3A2" stroke-width="2"/>
<rect x="0.258819" y="0.965926" width="55.6667" height="23" rx="11.5" transform="matrix(0.965926 0.258819 -0.707107 0.707107 182.969 995.722)" fill="#B3FFE3" fill-opacity="0.3" stroke="#2AC3A2" stroke-width="2"/>
<rect x="0.258819" y="0.965926" width="55.6667" height="23" rx="11.5" transform="matrix(0.965926 0.258819 -0.707107 0.707107 248.33 1013.24)" fill="#B3FFE3" fill-opacity="0.3" stroke="#2AC3A2" stroke-width="2"/>
<rect x="0.258819" y="0.965926" width="384.78" height="423" transform="matrix(0.965926 0.258819 -0.707107 0.707107 82.2524 1013.56)" fill="white" fill-opacity="0.5" stroke="#2AC3A2" stroke-width="2"/>
</g>
<path d="M191.176 866.99L622.732 982.625L628.389 976.968L196.832 861.333L191.176 866.99ZM626.873 998.08L89.4719 1535.48L97.1993 1537.55L634.6 1000.15L626.873 998.08ZM62.7034 1542.65L-368.853 1427.02L-374.51 1432.68L57.0466 1548.31L62.7034 1542.65ZM-372.994 1411.56L164.407 874.163L156.68 872.092L-380.721 1409.49L-372.994 1411.56ZM-368.853 1427.02C-377.388 1424.73 -379.242 1417.81 -372.994 1411.56L-380.721 1409.49C-390.094 1418.87 -387.313 1429.24 -374.51 1432.68L-368.853 1427.02ZM89.4719 1535.48C83.2235 1541.73 71.2389 1544.94 62.7034 1542.65L57.0466 1548.31C69.8497 1551.74 87.8267 1546.92 97.1993 1537.55L89.4719 1535.48ZM622.732 982.625C631.267 984.912 633.121 991.832 626.873 998.08L634.6 1000.15C643.973 990.778 641.192 980.399 628.389 976.968L622.732 982.625ZM196.832 861.333C184.029 857.903 166.052 862.72 156.68 872.092L164.407 874.163C170.656 867.914 182.64 864.703 191.176 866.99L196.832 861.333Z" fill="#2AC3A2"/>
</g>
<defs>
<clipPath id="clip0">
<rect width="1920" height="1080" fill="white"/>
</clipPath>
<clipPath id="clip1">
<path d="M736.543 -476.683C744.354 -484.493 759.335 -488.507 770.004 -485.648L1201.56 -370.013C1212.23 -367.154 1214.55 -358.505 1206.74 -350.695L669.336 186.707C661.525 194.517 646.544 198.531 635.875 195.672L204.319 80.0371C193.649 77.1783 191.332 68.5291 199.142 60.7186L736.543 -476.683Z" fill="white"/>
</clipPath>
<clipPath id="clip2">
<path d="M736.543 -543.778C744.354 -551.588 759.335 -555.602 770.004 -552.743L1201.56 -437.108C1212.23 -434.249 1214.55 -425.6 1206.74 -417.79L669.336 119.612C661.525 127.422 646.544 131.436 635.875 128.577L204.319 12.9421C193.649 10.0833 191.332 1.4341 199.142 -6.3764L736.543 -543.778Z" fill="white"/>
</clipPath>
<clipPath id="clip3">
<path d="M736.543 -610.873C744.354 -618.683 759.335 -622.697 770.004 -619.838L1201.56 -504.203C1212.23 -501.344 1214.55 -492.695 1206.74 -484.885L669.336 52.5166C661.525 60.3271 646.544 64.3412 635.875 61.4823L204.319 -54.1529C193.649 -57.0117 191.332 -65.6609 199.142 -73.4714L736.543 -610.873Z" fill="white"/>
</clipPath>
<clipPath id="clip4">
<path d="M1615.54 -555.683C1623.35 -563.493 1638.33 -567.507 1649 -564.648L2080.56 -449.013C2091.23 -446.154 2093.55 -437.505 2085.74 -429.695L1548.34 107.707C1540.53 115.517 1525.54 119.531 1514.87 116.672L1083.32 1.03709C1072.65 -1.82175 1070.33 -10.4709 1078.14 -18.2814L1615.54 -555.683Z" fill="white"/>
</clipPath>
<clipPath id="clip5">
<path d="M1615.54 -622.778C1623.35 -630.588 1638.33 -634.602 1649 -631.743L2080.56 -516.108C2091.23 -513.249 2093.55 -504.6 2085.74 -496.79L1548.34 40.6115C1540.53 48.422 1525.54 52.4361 1514.87 49.5773L1083.32 -66.0579C1072.65 -68.9167 1070.33 -77.5659 1078.14 -85.3764L1615.54 -622.778Z" fill="white"/>
</clipPath>
<clipPath id="clip6">
<path d="M914.543 238.317C922.354 230.507 937.335 226.493 948.004 229.352L1379.56 344.987C1390.23 347.846 1392.55 356.495 1384.74 364.305L847.336 901.707C839.525 909.517 824.544 913.531 813.875 910.672L382.319 795.037C371.649 792.178 369.332 783.529 377.142 775.719L914.543 238.317Z" fill="white"/>
</clipPath>
<clipPath id="clip7">
<path d="M914.543 171.222C922.354 163.412 937.335 159.398 948.004 162.257L1379.56 277.892C1390.23 280.751 1392.55 289.4 1384.74 297.21L847.336 834.612C839.525 842.422 824.544 846.436 813.875 843.577L382.319 727.942C371.649 725.083 369.332 716.434 377.142 708.624L914.543 171.222Z" fill="white"/>
</clipPath>
<clipPath id="clip8">
<path d="M914.543 104.127C922.354 96.317 937.335 92.3029 948.004 95.1617L1379.56 210.797C1390.23 213.656 1392.55 222.305 1384.74 230.115L847.336 767.517C839.525 775.327 824.544 779.341 813.875 776.482L382.319 660.847C371.649 657.988 369.332 649.339 377.142 641.529L914.543 104.127Z" fill="white"/>
</clipPath>
<clipPath id="clip9">
<path d="M-29.4566 297.317C-21.6461 289.507 -6.66526 285.493 4.00406 288.352L435.56 403.987C446.23 406.846 448.547 415.495 440.737 423.305L-96.6644 960.707C-104.475 968.517 -119.456 972.531 -130.125 969.672L-561.681 854.037C-572.351 851.178 -574.668 842.529 -566.858 834.719L-29.4566 297.317Z" fill="white"/>
</clipPath>
<clipPath id="clip10">
<path d="M-29.4566 230.222C-21.6461 222.412 -6.66526 218.398 4.00406 221.257L435.56 336.892C446.23 339.751 448.547 348.4 440.737 356.21L-96.6644 893.612C-104.475 901.422 -119.456 905.436 -130.125 902.577L-561.681 786.942C-572.351 784.083 -574.668 775.434 -566.858 767.624L-29.4566 230.222Z" fill="white"/>
</clipPath>
<clipPath id="clip11">
<path d="M-29.4566 163.127C-21.6461 155.317 -6.66526 151.303 4.00406 154.162L435.56 269.797C446.23 272.656 448.547 281.305 440.737 289.115L-96.6644 826.517C-104.475 834.327 -119.456 838.341 -130.125 835.482L-561.681 719.847C-572.351 716.988 -574.668 708.339 -566.858 700.529L-29.4566 163.127Z" fill="white"/>
</clipPath>
<clipPath id="clip12">
<path d="M1998.54 -51.6826C2006.35 -59.4931 2021.33 -63.5072 2032 -60.6483L2463.56 54.9868C2474.23 57.8457 2476.55 66.4949 2468.74 74.3054L1931.34 611.707C1923.53 619.517 1908.54 623.531 1897.87 620.672L1466.32 505.037C1455.65 502.178 1453.33 493.529 1461.14 485.719L1998.54 -51.6826Z" fill="white"/>
</clipPath>
<clipPath id="clip13">
<path d="M1998.54 -118.778C2006.35 -126.588 2021.33 -130.602 2032 -127.743L2463.56 -12.1081C2474.23 -9.24929 2476.55 -0.600094 2468.74 7.21039L1931.34 544.612C1923.53 552.422 1908.54 556.436 1897.87 553.577L1466.32 437.942C1455.65 435.083 1453.33 426.434 1461.14 418.624L1998.54 -118.778Z" fill="white"/>
</clipPath>
<clipPath id="clip14">
<path d="M1998.54 -185.873C2006.35 -193.683 2021.33 -197.697 2032 -194.838L2463.56 -79.2031C2474.23 -76.3443 2476.55 -67.6951 2468.74 -59.8846L1931.34 477.517C1923.53 485.327 1908.54 489.341 1897.87 486.482L1466.32 370.847C1455.65 367.988 1453.33 359.339 1461.14 351.529L1998.54 -185.873Z" fill="white"/>
</clipPath>
<clipPath id="clip15">
<path d="M1304.54 743.317C1312.35 735.507 1327.33 731.493 1338 734.352L1769.56 849.987C1780.23 852.846 1782.55 861.495 1774.74 869.305L1237.34 1406.71C1229.53 1414.52 1214.54 1418.53 1203.87 1415.67L772.319 1300.04C761.649 1297.18 759.332 1288.53 767.142 1280.72L1304.54 743.317Z" fill="white"/>
</clipPath>
<clipPath id="clip16">
<path d="M1304.54 676.222C1312.35 668.412 1327.33 664.398 1338 667.257L1769.56 782.892C1780.23 785.751 1782.55 794.4 1774.74 802.21L1237.34 1339.61C1229.53 1347.42 1214.54 1351.44 1203.87 1348.58L772.319 1232.94C761.649 1230.08 759.332 1221.43 767.142 1213.62L1304.54 676.222Z" fill="white"/>
</clipPath>
<clipPath id="clip17">
<path d="M1304.54 609.127C1312.35 601.317 1327.33 597.303 1338 600.162L1769.56 715.797C1780.23 718.656 1782.55 727.305 1774.74 735.115L1237.34 1272.52C1229.53 1280.33 1214.54 1284.34 1203.87 1281.48L772.319 1165.85C761.649 1162.99 759.332 1154.34 767.142 1146.53L1304.54 609.127Z" fill="white"/>
</clipPath>
<clipPath id="clip18">
<path d="M2131.54 853.317C2139.35 845.507 2154.33 841.493 2165 844.352L2596.56 959.987C2607.23 962.846 2609.55 971.495 2601.74 979.305L2064.34 1516.71C2056.53 1524.52 2041.54 1528.53 2030.87 1525.67L1599.32 1410.04C1588.65 1407.18 1586.33 1398.53 1594.14 1390.72L2131.54 853.317Z" fill="white"/>
</clipPath>
<clipPath id="clip19">
<path d="M2131.54 786.222C2139.35 778.412 2154.33 774.398 2165 777.257L2596.56 892.892C2607.23 895.751 2609.55 904.4 2601.74 912.21L2064.34 1449.61C2056.53 1457.42 2041.54 1461.44 2030.87 1458.58L1599.32 1342.94C1588.65 1340.08 1586.33 1331.43 1594.14 1323.62L2131.54 786.222Z" fill="white"/>
</clipPath>
<clipPath id="clip20">
<path d="M2131.54 719.127C2139.35 711.317 2154.33 707.303 2165 710.162L2596.56 825.797C2607.23 828.656 2609.55 837.305 2601.74 845.115L2064.34 1382.52C2056.53 1390.33 2041.54 1394.34 2030.87 1391.48L1599.32 1275.85C1588.65 1272.99 1586.33 1264.34 1594.14 1256.53L2131.54 719.127Z" fill="white"/>
</clipPath>
<clipPath id="clip21">
<path d="M160.543 1007.32C168.354 999.507 183.335 995.493 194.004 998.352L625.56 1113.99C636.23 1116.85 638.547 1125.49 630.737 1133.31L93.3356 1670.71C85.5251 1678.52 70.5443 1682.53 59.875 1679.67L-371.681 1564.04C-382.351 1561.18 -384.668 1552.53 -376.858 1544.72L160.543 1007.32Z" fill="white"/>
</clipPath>
<clipPath id="clip22">
<path d="M160.543 940.222C168.354 932.412 183.335 928.398 194.004 931.257L625.56 1046.89C636.23 1049.75 638.547 1058.4 630.737 1066.21L93.3356 1603.61C85.5251 1611.42 70.5443 1615.44 59.875 1612.58L-371.681 1496.94C-382.351 1494.08 -384.668 1485.43 -376.858 1477.62L160.543 940.222Z" fill="white"/>
</clipPath>
<clipPath id="clip23">
<path d="M160.543 873.127C168.354 865.317 183.335 861.303 194.004 864.162L625.56 979.797C636.23 982.656 638.547 991.305 630.737 999.115L93.3356 1536.52C85.5251 1544.33 70.5443 1548.34 59.875 1545.48L-371.681 1429.85C-382.351 1426.99 -384.668 1418.34 -376.858 1410.53L160.543 873.127Z" fill="white"/>
</clipPath>
</defs>
</svg>
