<svg class="icon" viewBox="0 0 100 100" xmlns="http://www.w3.org/2000/svg" aria-hidden="true" role="img"><path d="M50.35 93.61C31 93.61 15.55 82.27 8.47 66 .53 48 6.86 19.14 21 6.38l-.58 14.12c.7-.91 6.08-1.16 6.93 0 2.91-5.58 12.3-9.75 19.84-9.9-2.87 2.4-9.49 11.2-8.94 15.67 3.67 1.16 9.29 1.21 12.25 1.41.91.5.76 3.56-1 6.08 0 0-2.36 3.26-8.74 4.42l.75 9.49-7-3.37c-2.26 5.73 3.16 10.8 8.79 9.85 6.22-1.06 8.44-5.13 12.8-4.87s6 2.66 5.48 4.92c0 0-.71 2.71-5.38 2.26-4 6.27-9.24 9-17.77 8.28 13 10.75 30.43 1 34.85-7.78s.55-21.75-3.87-25.41c5.23 2.26 8.84 4.57 10.75 9.64A37.84 37.84 0 0066.72 9.7c17.38 5.07 28 18.53 28.28 40S76 93.62 50.35 93.62z" fill="#212121"/></svg>
