<svg xmlns="http://www.w3.org/2000/svg" viewBox="0 0 560 645" fill="none" role="img"><g filter="url(#filter0_d)" fill="#fff"><path d="M8 23c0-8.284 6.716-15 15-15h514c8.284 0 15 6.716 15 15v599c0 8.284-6.716 15-15 15H23c-8.284 0-15-6.716-15-15V23z"/><path d="M8 22.788C8 14.621 14.716 8 23 8h514c8.284 0 15 6.621 15 14.788v599.424c0 8.167-6.716 14.788-15 14.788H23c-8.284 0-15-6.621-15-14.788V22.788z"/></g><circle cx="54" cy="194" r="18" fill="#1F2033" fill-opacity=".05"/><path d="M42.426 96.038h3.52v2.31a5.133 5.133 0 01-2.948.968c-2.574 0-4.752-2.244-4.752-4.884 0-2.618 2.178-4.862 4.752-4.862 1.386 0 2.86.66 3.762 1.694l2.354-2.112c-1.518-1.584-3.85-2.53-6.116-2.53-4.378 0-8.096 3.564-8.096 7.81 0 4.246 3.718 7.832 8.096 7.832 2.266 0 4.598-.946 6.116-2.53v-6.226h-6.688v2.53zM51.978 102h5.412c5.082 0 8.69-3.146 8.69-7.568s-3.608-7.546-8.69-7.546h-5.412V102zm3.234-2.948v-9.218h2.596c2.882 0 4.928 1.914 4.928 4.598 0 2.706-2.046 4.62-4.928 4.62h-2.596zM68.582 102h3.234v-4.906h3.564c3.278 0 5.698-2.112 5.698-5.104s-2.42-5.104-5.698-5.104h-6.798V102zm3.234-7.876v-4.268h3.212c1.606 0 2.706.836 2.706 2.134s-1.1 2.134-2.706 2.134h-3.212zM95.887 102l-3.718-5.28c2.068-.726 3.432-2.486 3.432-4.73 0-2.992-2.42-5.104-5.698-5.104h-6.798V102h3.234v-4.906h2.398L92.191 102h3.696zM86.34 89.856h3.212c1.606 0 2.706.836 2.706 2.134s-1.1 2.134-2.706 2.134H86.34v-4.268zm13.15 15.356c1.585-1.518 2.333-2.904 2.333-4.202 0-1.606-.858-2.75-2.09-2.75-1.1 0-1.98.924-1.98 2.024 0 1.078.88 1.98 1.936 1.98-.198.704-.66 1.452-1.343 2.068l1.145.88zM110.738 102h5.412c5.082 0 8.69-3.146 8.69-7.568s-3.608-7.546-8.69-7.546h-5.412V102zm3.234-2.948v-9.218h2.596c2.882 0 4.928 1.914 4.928 4.598 0 2.706-2.046 4.62-4.928 4.62h-2.596zm19.091 3.212c3.696 0 5.874-1.914 5.874-4.796 0-2.794-2.156-3.762-5.412-4.488-2.332-.528-3.234-.88-3.234-1.98 0-.902.836-1.628 2.222-1.628 1.452 0 2.97.594 4.312 1.672l1.694-2.332c-1.54-1.32-3.454-2.09-5.918-2.09-3.3 0-5.588 1.914-5.588 4.708 0 2.926 2.266 3.828 5.456 4.554 2.31.528 3.19.858 3.19 1.936 0 .946-.836 1.694-2.464 1.694-1.914 0-3.542-.748-4.972-1.98l-1.87 2.222c1.76 1.628 4.092 2.508 6.71 2.508zm19.29-.264h3.652l-6.16-15.114h-3.63L140.054 102h3.63l.968-2.376h6.732l.968 2.376zm-6.578-5.126l2.244-5.522 2.244 5.522h-4.488zM170.567 102l-3.718-5.28c2.068-.726 3.432-2.486 3.432-4.73 0-2.992-2.42-5.104-5.698-5.104h-6.798V102h3.234v-4.906h2.398l3.454 4.906h3.696zm-9.548-12.144h3.212c1.606 0 2.706.836 2.706 2.134s-1.1 2.134-2.706 2.134h-3.212v-4.268zm13.15 15.356c1.584-1.518 2.332-2.904 2.332-4.202 0-1.606-.858-2.75-2.09-2.75-1.1 0-1.98.924-1.98 2.024 0 1.078.88 1.98 1.936 1.98-.198.704-.66 1.452-1.342 2.068l1.144.88zm18.552-2.948c2.288 0 4.4-.99 5.874-2.53l-2.354-2.112c-.88 1.012-2.134 1.694-3.52 1.694-2.53 0-4.686-2.244-4.686-4.884 0-2.618 2.156-4.862 4.686-4.862 1.386 0 2.64.682 3.52 1.694l2.354-2.112a8.09 8.09 0 00-5.874-2.53c-4.334 0-8.03 3.564-8.03 7.81 0 4.246 3.696 7.832 8.03 7.832zm15.318 0c2.288 0 4.4-.99 5.874-2.53l-2.354-2.112c-.88 1.012-2.134 1.694-3.52 1.694-2.53 0-4.686-2.244-4.686-4.884 0-2.618 2.156-4.862 4.686-4.862 1.386 0 2.64.682 3.52 1.694l2.354-2.112a8.09 8.09 0 00-5.874-2.53c-4.334 0-8.03 3.564-8.03 7.81 0 4.246 3.696 7.832 8.03 7.832zm7.883-.264h3.234v-4.906h3.564c3.278 0 5.698-2.112 5.698-5.104s-2.42-5.104-5.698-5.104h-6.798V102zm3.234-7.876v-4.268h3.212c1.606 0 2.706.836 2.706 2.134s-1.1 2.134-2.706 2.134h-3.212zM241.533 102h3.652l-6.16-15.114h-3.63L229.235 102h3.63l.968-2.376h6.732l.968 2.376zm-6.578-5.126l2.244-5.522 2.244 5.522h-4.488zm13.486 8.338c1.584-1.518 2.332-2.904 2.332-4.202 0-1.606-.858-2.75-2.09-2.75-1.1 0-1.98.924-1.98 2.024 0 1.078.88 1.98 1.936 1.98-.198.704-.66 1.452-1.342 2.068l1.144.88zm16.11-14.85c-1.584 0-3.146.44-4.752 1.254l1.078 2.134c.902-.462 1.892-.814 2.948-.814 1.87 0 2.618 1.056 2.618 2.266v.22c-.968-.374-1.98-.572-2.904-.572-2.64 0-4.73 1.54-4.73 3.784 0 2.178 1.87 3.63 4.29 3.63 1.232 0 2.53-.484 3.344-1.408V102h3.102v-6.798c0-2.97-2.024-4.84-4.994-4.84zm-.726 9.68c-1.1 0-1.914-.572-1.914-1.496s.924-1.606 2.09-1.606c.88 0 1.716.154 2.442.418v1.056c-.22 1.056-1.386 1.628-2.618 1.628zm15.005-9.68c-1.474 0-2.75.66-3.432 1.694v-1.43h-3.212V102h3.212v-6.798l.022.066c0-1.232 1.034-2.2 2.376-2.2 1.276 0 2.156.968 2.156 2.376V102h3.102v-7.238c0-2.574-1.76-4.4-4.224-4.4zm15.427-3.74v5.632c-.902-1.188-2.222-1.892-3.828-1.892-3.036 0-5.236 2.464-5.236 5.94 0 3.498 2.2 5.962 5.236 5.962 1.606 0 2.926-.704 3.828-1.892V102h3.212V86.622h-3.212zm-2.904 12.936c-1.782 0-3.036-1.342-3.036-3.256 0-1.892 1.254-3.234 3.036-3.234 1.694 0 2.904 1.342 2.904 3.234 0 1.914-1.21 3.256-2.904 3.256zm22.604 2.706c2.288 0 4.4-.99 5.874-2.53l-2.354-2.112c-.88 1.012-2.134 1.694-3.52 1.694-2.53 0-4.686-2.244-4.686-4.884 0-2.618 2.156-4.862 4.686-4.862 1.386 0 2.64.682 3.52 1.694l2.354-2.112a8.09 8.09 0 00-5.874-2.53c-4.334 0-8.03 3.564-8.03 7.81 0 4.246 3.696 7.832 8.03 7.832zm14.996 0c4.378 0 8.03-3.586 8.03-7.832s-3.652-7.81-8.03-7.81c-4.334 0-8.03 3.564-8.03 7.81 0 4.246 3.696 7.832 8.03 7.832zm0-2.948c-2.53 0-4.686-2.244-4.686-4.884 0-2.618 2.156-4.862 4.686-4.862 2.552 0 4.708 2.244 4.708 4.862 0 2.64-2.156 4.884-4.708 4.884zM339.371 102h3.234v-4.906h3.564c3.278 0 5.698-2.112 5.698-5.104s-2.42-5.104-5.698-5.104h-6.798V102zm3.234-7.876v-4.268h3.212c1.606 0 2.706.836 2.706 2.134s-1.1 2.134-2.706 2.134h-3.212zM353.894 102h3.234v-4.906h3.564c3.278 0 5.698-2.112 5.698-5.104s-2.42-5.104-5.698-5.104h-6.798V102zm3.234-7.876v-4.268h3.212c1.606 0 2.706.836 2.706 2.134s-1.1 2.134-2.706 2.134h-3.212zM379.506 102h3.652l-6.16-15.114h-3.63L367.208 102h3.63l.968-2.376h6.732l.968 2.376zm-6.578-5.126l2.244-5.522 2.244 5.522h-4.488zm13.749 5.39c1.078 0 1.958-.924 1.958-2.046 0-1.034-.88-1.958-1.958-1.958-1.144 0-2.046.924-2.046 1.958 0 1.122.902 2.046 2.046 2.046zm16.508 0c3.696 0 5.874-1.914 5.874-4.796 0-2.794-2.156-3.762-5.412-4.488-2.332-.528-3.234-.88-3.234-1.98 0-.902.836-1.628 2.222-1.628 1.452 0 2.97.594 4.312 1.672l1.694-2.332c-1.54-1.32-3.454-2.09-5.918-2.09-3.3 0-5.588 1.914-5.588 4.708 0 2.926 2.266 3.828 5.456 4.554 2.31.528 3.19.858 3.19 1.936 0 .946-.836 1.694-2.464 1.694-1.914 0-3.542-.748-4.972-1.98l-1.87 2.222c1.76 1.628 4.092 2.508 6.71 2.508zm13.702 0c3.366 0 6.182-2.728 6.182-5.962 0-3.234-2.816-5.94-6.182-5.94-3.388 0-6.226 2.706-6.226 5.94 0 3.234 2.838 5.962 6.226 5.962zm0-2.706c-1.716 0-3.146-1.496-3.146-3.256 0-1.76 1.43-3.234 3.146-3.234 1.694 0 3.124 1.474 3.124 3.234s-1.43 3.256-3.124 3.256zm14.72 2.442h3.234v-9.416l4.686 8.536 4.664-8.536V102h3.256V86.886h-3.256l-4.664 8.536-4.686-8.536h-3.234V102zm23.94-11.638c-1.584 0-3.146.44-4.752 1.254l1.078 2.134c.902-.462 1.892-.814 2.948-.814 1.87 0 2.618 1.056 2.618 2.266v.22c-.968-.374-1.98-.572-2.904-.572-2.64 0-4.73 1.54-4.73 3.784 0 2.178 1.87 3.63 4.29 3.63 1.232 0 2.53-.484 3.344-1.408V102h3.102v-6.798c0-2.97-2.024-4.84-4.994-4.84zm-.726 9.68c-1.1 0-1.914-.572-1.914-1.496s.924-1.606 2.09-1.606c.88 0 1.716.154 2.442.418v1.056c-.22 1.056-1.386 1.628-2.618 1.628zm15.005-9.68c-1.474 0-2.75.66-3.432 1.694v-1.43h-3.212V102h3.212v-6.798l.022.066c0-1.232 1.034-2.2 2.376-2.2 1.276 0 2.156.968 2.156 2.376V102h3.102v-7.238c0-2.574-1.76-4.4-4.224-4.4zm9.532 15.598c1.782 0 3.234-1.166 4.092-3.388l4.664-11.946h-3.278l-2.838 7.986-2.992-7.986h-3.322l4.73 11.484-.396.836c-.242.418-.726.616-1.342.616-.374 0-.946-.198-1.496-.506l-.682 2.2c.77.418 1.914.704 2.86.704zM46.584 128h3.652l-6.16-15.114h-3.63L34.286 128h3.63l.968-2.376h6.732l.968 2.376zm-6.578-5.126l2.244-5.522 2.244 5.522h-4.488zm17.49 5.39c1.892 0 3.431-.77 4.553-2.002l-2.133-1.804c-.594.66-1.518 1.1-2.398 1.1-1.694 0-3.102-1.496-3.102-3.278 0-1.738 1.408-3.212 3.08-3.212.88 0 1.782.418 2.353 1.056l2.135-1.826c-1.1-1.188-2.619-1.936-4.467-1.936-3.366 0-6.226 2.706-6.226 5.94 0 3.234 2.839 5.962 6.205 5.962zm9.698-9.526v-2.112h-3.212V128h3.212v-5.434c0-2.134 1.518-3.498 3.894-3.498v-2.706c-1.738 0-3.146.902-3.894 2.376zm11.077 9.526c3.366 0 6.182-2.728 6.182-5.962 0-3.234-2.816-5.94-6.182-5.94-3.388 0-6.226 2.706-6.226 5.94 0 3.234 2.838 5.962 6.226 5.962zm0-2.706c-1.716 0-3.146-1.496-3.146-3.256 0-1.76 1.43-3.234 3.146-3.234 1.694 0 3.124 1.474 3.124 3.234s-1.43 3.256-3.124 3.256zm14.934-9.196c-1.474 0-2.75.66-3.432 1.694v-1.43H86.56V128h3.212v-6.798l.022.066c0-1.232 1.034-2.2 2.376-2.2 1.276 0 2.156.968 2.156 2.376V128h3.102v-7.238c0-2.574-1.76-4.4-4.224-4.4zm9.531 15.598c1.782 0 3.234-1.166 4.092-3.388l4.664-11.946h-3.278l-2.838 7.986-2.992-7.986h-3.322l4.73 11.484-.396.836c-.242.418-.726.616-1.342.616-.374 0-.946-.198-1.496-.506l-.682 2.2c.77.418 1.914.704 2.86.704zm24.147-15.598c-1.694 0-3.102.814-3.696 2.068-.704-1.276-2.046-2.068-3.608-2.068-1.408 0-2.53.682-3.08 1.76v-1.496h-3.212V128h3.212v-6.864c0-1.21.902-2.068 2.2-2.068 1.166 0 2.002.924 2.002 2.244v6.71h3.08v-6.886c0-1.21.924-2.068 2.2-2.068 1.188 0 2.024.924 2.024 2.244v6.71h3.08v-7.26c0-2.574-1.826-4.4-4.202-4.4zm11.17 11.902c2.794 0 4.62-1.43 4.62-3.674 0-2.486-2.178-3.146-4.136-3.652-1.54-.418-2.002-.594-2.002-1.21 0-.396.55-.682 1.342-.682.968 0 2.156.374 3.19 1.012l1.298-2.288c-1.254-.836-2.86-1.408-4.488-1.408-2.684 0-4.466 1.54-4.444 3.696.022 2.244 1.826 2.882 4.158 3.454 1.166.308 2.002.528 2.002 1.232 0 .506-.616.858-1.474.858-1.518 0-2.794-.55-3.806-1.276l-1.386 2.222c1.364 1.1 3.3 1.716 5.126 1.716zm7.699-5.588h2.178l.726-9.79h-3.63l.726 9.79zm1.078 5.588c1.078 0 1.958-.924 1.958-2.046 0-1.034-.88-1.958-1.958-1.958-1.144 0-2.046.924-2.046 1.958 0 1.122.902 2.046 2.046 2.046zm14.123-3.19v-12.188h-3.256V128h10.78v-2.926h-7.524zm14.895.352c-1.342 0-2.332-.836-2.706-2.068h8.206c0-4.29-2.09-6.996-5.654-6.996-3.322 0-5.852 2.486-5.852 5.918 0 3.498 2.64 5.984 6.028 5.984 1.672 0 3.63-.704 4.642-1.76l-2.046-2.09c-.616.594-1.716 1.012-2.618 1.012zm-.022-6.226c1.298 0 2.134.726 2.442 1.848h-5.082c.418-1.144 1.43-1.848 2.64-1.848zm12.777-2.838c-1.584 0-3.146.44-4.752 1.254l1.078 2.134c.902-.462 1.892-.814 2.948-.814 1.87 0 2.618 1.056 2.618 2.266v.22c-.968-.374-1.98-.572-2.904-.572-2.64 0-4.73 1.54-4.73 3.784 0 2.178 1.87 3.63 4.29 3.63 1.232 0 2.53-.484 3.344-1.408V128h3.102v-6.798c0-2.97-2.024-4.84-4.994-4.84zm-.726 9.68c-1.1 0-1.914-.572-1.914-1.496s.924-1.606 2.09-1.606c.88 0 1.716.154 2.442.418v1.056c-.22 1.056-1.386 1.628-2.618 1.628zm11.639-7.304v-2.112h-3.212V128h3.212v-5.434c0-2.134 1.518-3.498 3.894-3.498v-2.706c-1.738 0-3.146.902-3.894 2.376zm12.325-2.376c-1.474 0-2.75.66-3.432 1.694v-1.43h-3.212V128h3.212v-6.798l.022.066c0-1.232 1.034-2.2 2.376-2.2 1.276 0 2.156.968 2.156 2.376V128h3.102v-7.238c0-2.574-1.76-4.4-4.224-4.4zM225.142 128h3.234v-9.416l4.686 8.536 4.664-8.536V128h3.256v-15.114h-3.256l-4.664 8.536-4.686-8.536h-3.234V128zm24.446.264c3.366 0 6.182-2.728 6.182-5.962 0-3.234-2.816-5.94-6.182-5.94-3.388 0-6.226 2.706-6.226 5.94 0 3.234 2.838 5.962 6.226 5.962zm0-2.706c-1.716 0-3.146-1.496-3.146-3.256 0-1.76 1.43-3.234 3.146-3.234 1.694 0 3.124 1.474 3.124 3.234s-1.43 3.256-3.124 3.256zm7.849 2.442h9.944v-2.728h-5.764l5.72-6.38v-2.266h-9.746v2.728h5.566l-5.72 6.38V128zm13.821-12.936c.946 0 1.716-.792 1.716-1.76 0-.902-.77-1.716-1.716-1.716-.99 0-1.76.814-1.76 1.716 0 .968.77 1.76 1.76 1.76zM269.63 128h3.212v-11.374h-3.212V128zm6.016 0h3.212v-15.378h-3.212V128zm6.016 0h3.212v-15.378h-3.212V128zm11.098-11.638c-1.584 0-3.146.44-4.752 1.254l1.078 2.134c.902-.462 1.892-.814 2.948-.814 1.87 0 2.618 1.056 2.618 2.266v.22c-.968-.374-1.98-.572-2.904-.572-2.64 0-4.73 1.54-4.73 3.784 0 2.178 1.87 3.63 4.29 3.63 1.232 0 2.53-.484 3.344-1.408V128h3.102v-6.798c0-2.97-2.024-4.84-4.994-4.84zm-.726 9.68c-1.1 0-1.914-.572-1.914-1.496s.924-1.606 2.09-1.606c.88 0 1.716.154 2.442.418v1.056c-.22 1.056-1.386 1.628-2.618 1.628zm9.417-6.71h1.276c.484-1.628 1.034-3.652 1.034-4.862 0-.946-.77-1.716-1.672-1.716-.902 0-1.672.77-1.672 1.716 0 1.21.55 3.234 1.034 4.862zm9.358 8.932c2.794 0 4.62-1.43 4.62-3.674 0-2.486-2.178-3.146-4.136-3.652-1.54-.418-2.002-.594-2.002-1.21 0-.396.55-.682 1.342-.682.968 0 2.156.374 3.19 1.012l1.298-2.288c-1.254-.836-2.86-1.408-4.488-1.408-2.684 0-4.466 1.54-4.444 3.696.022 2.244 1.826 2.882 4.158 3.454 1.166.308 2.002.528 2.002 1.232 0 .506-.616.858-1.474.858-1.518 0-2.794-.55-3.806-1.276l-1.386 2.222c1.364 1.1 3.3 1.716 5.126 1.716zm24.645-12.452v-2.926h-11.638V128h3.256v-5.984h7.59v-2.926h-7.59v-3.278h8.382zm5.43 2.926v-2.112h-3.212V128h3.212v-5.434c0-2.134 1.518-3.498 3.894-3.498v-2.706c-1.738 0-3.146.902-3.894 2.376zm10.829-2.376c-1.584 0-3.146.44-4.752 1.254l1.078 2.134c.902-.462 1.892-.814 2.948-.814 1.87 0 2.618 1.056 2.618 2.266v.22c-.968-.374-1.98-.572-2.904-.572-2.64 0-4.73 1.54-4.73 3.784 0 2.178 1.87 3.63 4.29 3.63 1.232 0 2.53-.484 3.344-1.408V128h3.102v-6.798c0-2.97-2.024-4.84-4.994-4.84zm-.726 9.68c-1.1 0-1.914-.572-1.914-1.496s.924-1.606 2.09-1.606c.88 0 1.716.154 2.442.418v1.056c-.22 1.056-1.386 1.628-2.618 1.628zm21.957-9.68c-1.694 0-3.102.814-3.696 2.068-.704-1.276-2.046-2.068-3.608-2.068-1.408 0-2.53.682-3.08 1.76v-1.496h-3.212V128h3.212v-6.864c0-1.21.902-2.068 2.2-2.068 1.166 0 2.002.924 2.002 2.244v6.71h3.08v-6.886c0-1.21.924-2.068 2.2-2.068 1.188 0 2.024.924 2.024 2.244v6.71h3.08v-7.26c0-2.574-1.826-4.4-4.202-4.4zm12.27 9.064c-1.342 0-2.332-.836-2.706-2.068h8.206c0-4.29-2.09-6.996-5.654-6.996-3.322 0-5.852 2.486-5.852 5.918 0 3.498 2.64 5.984 6.028 5.984 1.672 0 3.63-.704 4.642-1.76l-2.046-2.09c-.616.594-1.716 1.012-2.618 1.012zm-.022-6.226c1.298 0 2.134.726 2.442 1.848h-5.082c.418-1.144 1.43-1.848 2.64-1.848zm10.017 8.8h2.882l2.134-7.15 2.112 7.15h2.882l3.872-11.374h-3.146l-2.156 7.084-2.244-7.084h-2.662l-2.244 7.084-2.156-7.084h-3.146L395.209 128zm20.689.264c3.366 0 6.182-2.728 6.182-5.962 0-3.234-2.816-5.94-6.182-5.94-3.388 0-6.226 2.706-6.226 5.94 0 3.234 2.838 5.962 6.226 5.962zm0-2.706c-1.716 0-3.146-1.496-3.146-3.256 0-1.76 1.43-3.234 3.146-3.234 1.694 0 3.124 1.474 3.124 3.234s-1.43 3.256-3.124 3.256zm11.568-6.82v-2.112h-3.212V128h3.212v-5.434c0-2.134 1.518-3.498 3.894-3.498v-2.706c-1.738 0-3.146.902-3.894 2.376zm16.813-2.112h-3.696l-4.224 4.906v-8.91h-3.212V128h3.212v-2.794l1.364-1.474 2.816 4.268h3.696l-4.378-6.336 4.422-5.038zM455.93 128h3.256v-12.188h4.708v-2.926h-12.672v2.926h4.708V128zm15.634.264c3.366 0 6.182-2.728 6.182-5.962 0-3.234-2.816-5.94-6.182-5.94-3.388 0-6.226 2.706-6.226 5.94 0 3.234 2.838 5.962 6.226 5.962zm0-2.706c-1.716 0-3.146-1.496-3.146-3.256 0-1.76 1.43-3.234 3.146-3.234 1.694 0 3.124 1.474 3.124 3.234s-1.43 3.256-3.124 3.256zM45.616 138.886v5.94H38.73v-5.94h-3.234V154h3.234v-6.248h6.886V154h3.234v-15.114h-3.234zm11.224 3.476c-1.584 0-3.146.44-4.752 1.254l1.078 2.134c.902-.462 1.892-.814 2.948-.814 1.87 0 2.618 1.056 2.618 2.266v.22c-.968-.374-1.98-.572-2.904-.572-2.64 0-4.73 1.54-4.73 3.784 0 2.178 1.87 3.63 4.29 3.63 1.232 0 2.53-.484 3.344-1.408V154h3.102v-6.798c0-2.97-2.024-4.84-4.994-4.84zm-.726 9.68c-1.1 0-1.914-.572-1.914-1.496s.924-1.606 2.09-1.606c.88 0 1.716.154 2.442.418v1.056c-.22 1.056-1.386 1.628-2.618 1.628zm15.005-9.68c-1.474 0-2.75.66-3.432 1.694v-1.43h-3.212V154h3.212v-6.798l.022.066c0-1.232 1.034-2.2 2.376-2.2 1.276 0 2.156.968 2.156 2.376V154h3.102v-7.238c0-2.574-1.76-4.4-4.224-4.4zm15.427-3.74v5.632c-.902-1.188-2.222-1.892-3.828-1.892-3.035 0-5.236 2.464-5.236 5.94 0 3.498 2.2 5.962 5.237 5.962 1.606 0 2.925-.704 3.828-1.892V154h3.212v-15.378h-3.213zm-2.904 12.936c-1.781 0-3.035-1.342-3.035-3.256 0-1.892 1.254-3.234 3.035-3.234 1.695 0 2.904 1.342 2.904 3.234 0 1.914-1.21 3.256-2.904 3.256zM92.578 154h3.212v-15.378h-3.212V154zm11.384-2.574c-1.342 0-2.332-.836-2.706-2.068h8.206c0-4.29-2.09-6.996-5.654-6.996-3.322 0-5.853 2.486-5.853 5.918 0 3.498 2.641 5.984 6.029 5.984 1.672 0 3.63-.704 4.642-1.76l-2.046-2.09c-.616.594-1.716 1.012-2.618 1.012zm-.022-6.226c1.298 0 2.134.726 2.442 1.848H101.3c.418-1.144 1.43-1.848 2.64-1.848zm13.927 8.8h3.234v-4.906h3.564c3.278 0 5.698-2.112 5.698-5.104s-2.42-5.104-5.698-5.104h-6.798V154zm3.234-7.876v-4.268h3.212c1.606 0 2.706.836 2.706 2.134s-1.1 2.134-2.706 2.134h-3.212zm14.414-1.386v-2.112h-3.212V154h3.212v-5.434c0-2.134 1.518-3.498 3.894-3.498v-2.706c-1.738 0-3.146.902-3.894 2.376zm7.353-3.674c.946 0 1.716-.792 1.716-1.76 0-.902-.77-1.716-1.716-1.716-.99 0-1.76.814-1.76 1.716 0 .968.77 1.76 1.76 1.76zM141.24 154h3.212v-11.374h-3.212V154zm9.822 0h2.97l4.862-11.374h-3.344l-2.992 7.678-3.058-7.678h-3.366L151.062 154zm13.866-11.638c-1.584 0-3.146.44-4.752 1.254l1.078 2.134c.902-.462 1.892-.814 2.948-.814 1.87 0 2.618 1.056 2.618 2.266v.22c-.968-.374-1.98-.572-2.904-.572-2.64 0-4.73 1.54-4.73 3.784 0 2.178 1.87 3.63 4.29 3.63 1.232 0 2.53-.484 3.344-1.408V154h3.102v-6.798c0-2.97-2.024-4.84-4.994-4.84zm-.726 9.68c-1.1 0-1.914-.572-1.914-1.496s.924-1.606 2.09-1.606c.88 0 1.716.154 2.442.418v1.056c-.22 1.056-1.386 1.628-2.618 1.628zm13.993 2.222c1.892 0 3.432-.77 4.554-2.002l-2.134-1.804c-.594.66-1.518 1.1-2.398 1.1-1.694 0-3.102-1.496-3.102-3.278 0-1.738 1.408-3.212 3.08-3.212.88 0 1.782.418 2.354 1.056l2.134-1.826c-1.1-1.188-2.618-1.936-4.466-1.936-3.366 0-6.226 2.706-6.226 5.94 0 3.234 2.838 5.962 6.204 5.962zm9.082 3.696c1.782 0 3.234-1.166 4.092-3.388l4.664-11.946h-3.278l-2.838 7.986-2.992-7.986h-3.322l4.73 11.484-.396.836c-.242.418-.726.616-1.342.616-.374 0-.946-.198-1.496-.506l-.682 2.2c.77.418 1.914.704 2.86.704zm19.996-6.886v-12.188h-3.256V154h10.78v-2.926h-7.524zm14.61-8.712c-1.584 0-3.146.44-4.752 1.254l1.078 2.134c.902-.462 1.892-.814 2.948-.814 1.87 0 2.618 1.056 2.618 2.266v.22c-.968-.374-1.98-.572-2.904-.572-2.64 0-4.73 1.54-4.73 3.784 0 2.178 1.87 3.63 4.29 3.63 1.232 0 2.53-.484 3.344-1.408V154h3.102v-6.798c0-2.97-2.024-4.84-4.994-4.84zm-.726 9.68c-1.1 0-1.914-.572-1.914-1.496s.924-1.606 2.09-1.606c.88 0 1.716.154 2.442.418v1.056c-.22 1.056-1.386 1.628-2.618 1.628zM232.444 154h2.882l2.134-7.15 2.112 7.15h2.882l3.872-11.374h-3.146l-2.156 7.084-2.244-7.084h-2.662l-2.244 7.084-2.156-7.084h-3.146L232.444 154zm19.906.264c2.794 0 4.62-1.43 4.62-3.674 0-2.486-2.178-3.146-4.136-3.652-1.54-.418-2.002-.594-2.002-1.21 0-.396.55-.682 1.342-.682.968 0 2.156.374 3.19 1.012l1.298-2.288c-1.254-.836-2.86-1.408-4.488-1.408-2.684 0-4.466 1.54-4.444 3.696.022 2.244 1.826 2.882 4.158 3.454 1.166.308 2.002.528 2.002 1.232 0 .506-.616.858-1.474.858-1.518 0-2.794-.55-3.806-1.276l-1.386 2.222c1.364 1.1 3.3 1.716 5.126 1.716z" fill="#5B3CC2"/><path d="M36.84 67h1.776v-8.244H36.84V67zm4.873 0h1.764v-5.328L47.45 67h1.776v-8.244H47.45v5.328l-3.972-5.328h-1.764V67zm12.737 0h1.776v-6.648h2.568v-1.596h-6.912v1.596h2.568V67zm13.256-6.648v-1.596h-6.348V67h6.348v-1.596h-4.572v-1.812h4.14v-1.596h-4.14v-1.644h4.572zM77.398 67l-2.028-2.88c1.128-.396 1.872-1.356 1.872-2.58 0-1.632-1.32-2.784-3.108-2.784h-3.708V67h1.764v-2.676h1.308L75.382 67h2.016zm-5.208-6.624h1.752c.876 0 1.476.456 1.476 1.164s-.6 1.164-1.476 1.164H72.19v-2.328zM80.01 67h1.765v-5.328L85.747 67h1.776v-8.244h-1.776v5.328l-3.972-5.328H80.01V67zm16.95-6.648v-1.596h-6.348V67h6.348v-1.596h-4.572v-1.812h4.14v-1.596h-4.14v-1.644h4.572zM101.815 67h1.776v-6.648h2.568v-1.596h-6.912v1.596h2.568V67zm13.356-1.596v-6.648h-1.776V67h5.88v-1.596h-4.104zM127.844 67h1.992l-3.36-8.244h-1.98L121.136 67h1.98l.528-1.296h3.672l.528 1.296zm-3.588-2.796l1.224-3.012 1.224 3.012h-2.448zM133.627 67h1.788l1.956-5.664L139.315 67h1.776l2.496-8.244h-1.92l-1.524 5.532-1.824-5.532h-1.92l-1.824 5.532-1.524-5.532h-1.92L133.627 67z" fill="#1AB8EC"/><path stroke="#1F2033" stroke-opacity=".05" d="M36.002 229.5l488 2.008"/><path d="M8 23c0-8.284 6.716-15 15-15h514c8.284 0 15 6.716 15 15v13H8V23z" fill="#5B3CC2"/><path fill="#1F2033" fill-opacity=".05" d="M98 181h151v9H98zM98 199h236v9H98zM36 425h488v9H36zM36 569h488v9H36zM36 497h488v9H36zM36 461h488v9H36zM36 605h242v9H36zM36 533h488v9H36zM36 443h488v9H36zM36 587h488v9H36zM36 515h488v9H36zM36 479h488v9H36zM36 551h488v9H36z"/><path fill="url(#paint0_linear)" d="M36 250h488v157H36z"/><path d="M48.883 196.488H45.9l2.153-2.126h-3.707l2.147-2.119H43c.078-.09.118-.142.164-.188 1.242-1.226 2.466-2.472 3.732-3.673 1.513-1.437 3.35-2.275 5.525-2.379.456-.021.927.071 1.378.165.502.108.997.245 1.48.41.6.199 1.198.214 1.814.099.456-.086.915-.085 1.357.07.699.244 1.146.7 1.26 1.396.097.584.414 1.013.985 1.253.722.304 1.458.58 2.19.864.393.152.791.291 1.184.445.53.208.874.549.884 1.122.011.607.077 1.218.03 1.822-.045.603-.428 1.11-.752 1.623-.135.214-.378.268-.634.294a1.243 1.243 0 00-.433.127c-.25.129-.49.275-.727.425-.472.297-.97.314-1.502.165-.51-.14-1.023-.297-1.546-.352a5.501 5.501 0 00-1.558.037c-1.144.214-1.75.977-1.923 1.989-.183 1.075-.255 2.166-.354 3.252-.053.583-.064 1.17-.095 1.791-.236-.06-.455-.11-.668-.173-2.59-.775-4.808-2.117-6.737-3.893-.11-.101-.104-.182-.055-.299.293-.702.58-1.405.884-2.147z" fill="url(#paint1_linear)"/><path d="M285.5 251H128l157.5 156H443L285.5 251zM482.5 407L329 252h35.5L518 407h-35.5z" fill="#fff" fill-opacity=".1"/><path d="M52.774 265.926H49.57v-3.276h-2.268v3.276H44.08v2.142h3.222v3.276h2.268v-3.276h3.204v-2.142zm15.873 0h-3.204v-3.276h-2.268v3.276h-3.222v2.142h3.222v3.276h2.268v-3.276h3.204v-2.142zm15.873 0h-3.204v-3.276h-2.268v3.276h-3.222v2.142h3.222v3.276h2.268v-3.276h3.204v-2.142zm15.873 0h-3.204v-3.276h-2.268v3.276H91.7v2.142h3.222v3.276h2.268v-3.276h3.204v-2.142zm15.873 0h-3.204v-3.276h-2.268v3.276h-3.222v2.142h3.222v3.276h2.268v-3.276h3.204v-2.142zm15.873 0h-3.204v-3.276h-2.268v3.276h-3.222v2.142h3.222v3.276h2.268v-3.276h3.204v-2.142zm15.873 0h-3.204v-3.276h-2.268v3.276h-3.222v2.142h3.222v3.276h2.268v-3.276h3.204v-2.142zm15.873 0h-3.204v-3.276h-2.268v3.276h-3.222v2.142h3.222v3.276h2.268v-3.276h3.204v-2.142zm-111.111 18H49.57v-3.276h-2.268v3.276H44.08v2.142h3.222v3.276h2.268v-3.276h3.204v-2.142zm15.873 0h-3.204v-3.276h-2.268v3.276h-3.222v2.142h3.222v3.276h2.268v-3.276h3.204v-2.142zm15.873 0h-3.204v-3.276h-2.268v3.276h-3.222v2.142h3.222v3.276h2.268v-3.276h3.204v-2.142zm15.873 0h-3.204v-3.276h-2.268v3.276H91.7v2.142h3.222v3.276h2.268v-3.276h3.204v-2.142zm15.873 0h-3.204v-3.276h-2.268v3.276h-3.222v2.142h3.222v3.276h2.268v-3.276h3.204v-2.142zm15.873 0h-3.204v-3.276h-2.268v3.276h-3.222v2.142h3.222v3.276h2.268v-3.276h3.204v-2.142zm15.873 0h-3.204v-3.276h-2.268v3.276h-3.222v2.142h3.222v3.276h2.268v-3.276h3.204v-2.142zm15.873 0h-3.204v-3.276h-2.268v3.276h-3.222v2.142h3.222v3.276h2.268v-3.276h3.204v-2.142zm-111.111 18H49.57v-3.276h-2.268v3.276H44.08v2.142h3.222v3.276h2.268v-3.276h3.204v-2.142zm15.873 0h-3.204v-3.276h-2.268v3.276h-3.222v2.142h3.222v3.276h2.268v-3.276h3.204v-2.142zm15.873 0h-3.204v-3.276h-2.268v3.276h-3.222v2.142h3.222v3.276h2.268v-3.276h3.204v-2.142zm15.873 0h-3.204v-3.276h-2.268v3.276H91.7v2.142h3.222v3.276h2.268v-3.276h3.204v-2.142zm15.873 0h-3.204v-3.276h-2.268v3.276h-3.222v2.142h3.222v3.276h2.268v-3.276h3.204v-2.142zm15.873 0h-3.204v-3.276h-2.268v3.276h-3.222v2.142h3.222v3.276h2.268v-3.276h3.204v-2.142zm15.873 0h-3.204v-3.276h-2.268v3.276h-3.222v2.142h3.222v3.276h2.268v-3.276h3.204v-2.142zm15.873 0h-3.204v-3.276h-2.268v3.276h-3.222v2.142h3.222v3.276h2.268v-3.276h3.204v-2.142zm-111.111 18H49.57v-3.276h-2.268v3.276H44.08v2.142h3.222v3.276h2.268v-3.276h3.204v-2.142zm15.873 0h-3.204v-3.276h-2.268v3.276h-3.222v2.142h3.222v3.276h2.268v-3.276h3.204v-2.142zm15.873 0h-3.204v-3.276h-2.268v3.276h-3.222v2.142h3.222v3.276h2.268v-3.276h3.204v-2.142zm15.873 0h-3.204v-3.276h-2.268v3.276H91.7v2.142h3.222v3.276h2.268v-3.276h3.204v-2.142zm15.873 0h-3.204v-3.276h-2.268v3.276h-3.222v2.142h3.222v3.276h2.268v-3.276h3.204v-2.142zm15.873 0h-3.204v-3.276h-2.268v3.276h-3.222v2.142h3.222v3.276h2.268v-3.276h3.204v-2.142zm15.873 0h-3.204v-3.276h-2.268v3.276h-3.222v2.142h3.222v3.276h2.268v-3.276h3.204v-2.142zm15.873 0h-3.204v-3.276h-2.268v3.276h-3.222v2.142h3.222v3.276h2.268v-3.276h3.204v-2.142zm-111.111 18H49.57v-3.276h-2.268v3.276H44.08v2.142h3.222v3.276h2.268v-3.276h3.204v-2.142zm15.873 0h-3.204v-3.276h-2.268v3.276h-3.222v2.142h3.222v3.276h2.268v-3.276h3.204v-2.142zm15.873 0h-3.204v-3.276h-2.268v3.276h-3.222v2.142h3.222v3.276h2.268v-3.276h3.204v-2.142zm15.873 0h-3.204v-3.276h-2.268v3.276H91.7v2.142h3.222v3.276h2.268v-3.276h3.204v-2.142zm15.873 0h-3.204v-3.276h-2.268v3.276h-3.222v2.142h3.222v3.276h2.268v-3.276h3.204v-2.142zm15.873 0h-3.204v-3.276h-2.268v3.276h-3.222v2.142h3.222v3.276h2.268v-3.276h3.204v-2.142zm15.873 0h-3.204v-3.276h-2.268v3.276h-3.222v2.142h3.222v3.276h2.268v-3.276h3.204v-2.142zm15.873 0h-3.204v-3.276h-2.268v3.276h-3.222v2.142h3.222v3.276h2.268v-3.276h3.204v-2.142zm-111.111 18H49.57v-3.276h-2.268v3.276H44.08v2.142h3.222v3.276h2.268v-3.276h3.204v-2.142zm15.873 0h-3.204v-3.276h-2.268v3.276h-3.222v2.142h3.222v3.276h2.268v-3.276h3.204v-2.142zm15.873 0h-3.204v-3.276h-2.268v3.276h-3.222v2.142h3.222v3.276h2.268v-3.276h3.204v-2.142zm15.873 0h-3.204v-3.276h-2.268v3.276H91.7v2.142h3.222v3.276h2.268v-3.276h3.204v-2.142zm15.873 0h-3.204v-3.276h-2.268v3.276h-3.222v2.142h3.222v3.276h2.268v-3.276h3.204v-2.142zm15.873 0h-3.204v-3.276h-2.268v3.276h-3.222v2.142h3.222v3.276h2.268v-3.276h3.204v-2.142zm15.873 0h-3.204v-3.276h-2.268v3.276h-3.222v2.142h3.222v3.276h2.268v-3.276h3.204v-2.142zm15.873 0h-3.204v-3.276h-2.268v3.276h-3.222v2.142h3.222v3.276h2.268v-3.276h3.204v-2.142zm-111.111 18H49.57v-3.276h-2.268v3.276H44.08v2.142h3.222v3.276h2.268v-3.276h3.204v-2.142zm15.873 0h-3.204v-3.276h-2.268v3.276h-3.222v2.142h3.222v3.276h2.268v-3.276h3.204v-2.142zm15.873 0h-3.204v-3.276h-2.268v3.276h-3.222v2.142h3.222v3.276h2.268v-3.276h3.204v-2.142zm15.873 0h-3.204v-3.276h-2.268v3.276H91.7v2.142h3.222v3.276h2.268v-3.276h3.204v-2.142zm15.873 0h-3.204v-3.276h-2.268v3.276h-3.222v2.142h3.222v3.276h2.268v-3.276h3.204v-2.142zm15.873 0h-3.204v-3.276h-2.268v3.276h-3.222v2.142h3.222v3.276h2.268v-3.276h3.204v-2.142zm15.873 0h-3.204v-3.276h-2.268v3.276h-3.222v2.142h3.222v3.276h2.268v-3.276h3.204v-2.142zm15.873 0h-3.204v-3.276h-2.268v3.276h-3.222v2.142h3.222v3.276h2.268v-3.276h3.204v-2.142zM405.774 282.926h-3.204v-3.276h-2.268v3.276h-3.222v2.142h3.222v3.276h2.268v-3.276h3.204v-2.142zm15.873 0h-3.204v-3.276h-2.268v3.276h-3.222v2.142h3.222v3.276h2.268v-3.276h3.204v-2.142zm15.873 0h-3.204v-3.276h-2.268v3.276h-3.222v2.142h3.222v3.276h2.268v-3.276h3.204v-2.142zm15.873 0h-3.204v-3.276h-2.268v3.276h-3.222v2.142h3.222v3.276h2.268v-3.276h3.204v-2.142zm15.873 0h-3.204v-3.276h-2.268v3.276h-3.222v2.142h3.222v3.276h2.268v-3.276h3.204v-2.142zm15.873 0h-3.204v-3.276h-2.268v3.276h-3.222v2.142h3.222v3.276h2.268v-3.276h3.204v-2.142zm15.873 0h-3.204v-3.276h-2.268v3.276h-3.222v2.142h3.222v3.276h2.268v-3.276h3.204v-2.142zm15.873 0h-3.204v-3.276h-2.268v3.276h-3.222v2.142h3.222v3.276h2.268v-3.276h3.204v-2.142zm-111.111 18h-3.204v-3.276h-2.268v3.276h-3.222v2.142h3.222v3.276h2.268v-3.276h3.204v-2.142zm15.873 0h-3.204v-3.276h-2.268v3.276h-3.222v2.142h3.222v3.276h2.268v-3.276h3.204v-2.142zm15.873 0h-3.204v-3.276h-2.268v3.276h-3.222v2.142h3.222v3.276h2.268v-3.276h3.204v-2.142zm15.873 0h-3.204v-3.276h-2.268v3.276h-3.222v2.142h3.222v3.276h2.268v-3.276h3.204v-2.142zm15.873 0h-3.204v-3.276h-2.268v3.276h-3.222v2.142h3.222v3.276h2.268v-3.276h3.204v-2.142zm15.873 0h-3.204v-3.276h-2.268v3.276h-3.222v2.142h3.222v3.276h2.268v-3.276h3.204v-2.142zm15.873 0h-3.204v-3.276h-2.268v3.276h-3.222v2.142h3.222v3.276h2.268v-3.276h3.204v-2.142zm15.873 0h-3.204v-3.276h-2.268v3.276h-3.222v2.142h3.222v3.276h2.268v-3.276h3.204v-2.142zm-111.111 18h-3.204v-3.276h-2.268v3.276h-3.222v2.142h3.222v3.276h2.268v-3.276h3.204v-2.142zm15.873 0h-3.204v-3.276h-2.268v3.276h-3.222v2.142h3.222v3.276h2.268v-3.276h3.204v-2.142zm15.873 0h-3.204v-3.276h-2.268v3.276h-3.222v2.142h3.222v3.276h2.268v-3.276h3.204v-2.142zm15.873 0h-3.204v-3.276h-2.268v3.276h-3.222v2.142h3.222v3.276h2.268v-3.276h3.204v-2.142zm15.873 0h-3.204v-3.276h-2.268v3.276h-3.222v2.142h3.222v3.276h2.268v-3.276h3.204v-2.142zm15.873 0h-3.204v-3.276h-2.268v3.276h-3.222v2.142h3.222v3.276h2.268v-3.276h3.204v-2.142zm15.873 0h-3.204v-3.276h-2.268v3.276h-3.222v2.142h3.222v3.276h2.268v-3.276h3.204v-2.142zm15.873 0h-3.204v-3.276h-2.268v3.276h-3.222v2.142h3.222v3.276h2.268v-3.276h3.204v-2.142zm-111.111 18h-3.204v-3.276h-2.268v3.276h-3.222v2.142h3.222v3.276h2.268v-3.276h3.204v-2.142zm15.873 0h-3.204v-3.276h-2.268v3.276h-3.222v2.142h3.222v3.276h2.268v-3.276h3.204v-2.142zm15.873 0h-3.204v-3.276h-2.268v3.276h-3.222v2.142h3.222v3.276h2.268v-3.276h3.204v-2.142zm15.873 0h-3.204v-3.276h-2.268v3.276h-3.222v2.142h3.222v3.276h2.268v-3.276h3.204v-2.142zm15.873 0h-3.204v-3.276h-2.268v3.276h-3.222v2.142h3.222v3.276h2.268v-3.276h3.204v-2.142zm15.873 0h-3.204v-3.276h-2.268v3.276h-3.222v2.142h3.222v3.276h2.268v-3.276h3.204v-2.142zm15.873 0h-3.204v-3.276h-2.268v3.276h-3.222v2.142h3.222v3.276h2.268v-3.276h3.204v-2.142zm15.873 0h-3.204v-3.276h-2.268v3.276h-3.222v2.142h3.222v3.276h2.268v-3.276h3.204v-2.142zm-111.111 18h-3.204v-3.276h-2.268v3.276h-3.222v2.142h3.222v3.276h2.268v-3.276h3.204v-2.142zm15.873 0h-3.204v-3.276h-2.268v3.276h-3.222v2.142h3.222v3.276h2.268v-3.276h3.204v-2.142zm15.873 0h-3.204v-3.276h-2.268v3.276h-3.222v2.142h3.222v3.276h2.268v-3.276h3.204v-2.142zm15.873 0h-3.204v-3.276h-2.268v3.276h-3.222v2.142h3.222v3.276h2.268v-3.276h3.204v-2.142zm15.873 0h-3.204v-3.276h-2.268v3.276h-3.222v2.142h3.222v3.276h2.268v-3.276h3.204v-2.142zm15.873 0h-3.204v-3.276h-2.268v3.276h-3.222v2.142h3.222v3.276h2.268v-3.276h3.204v-2.142zm15.873 0h-3.204v-3.276h-2.268v3.276h-3.222v2.142h3.222v3.276h2.268v-3.276h3.204v-2.142zm15.873 0h-3.204v-3.276h-2.268v3.276h-3.222v2.142h3.222v3.276h2.268v-3.276h3.204v-2.142zm-111.111 18h-3.204v-3.276h-2.268v3.276h-3.222v2.142h3.222v3.276h2.268v-3.276h3.204v-2.142zm15.873 0h-3.204v-3.276h-2.268v3.276h-3.222v2.142h3.222v3.276h2.268v-3.276h3.204v-2.142zm15.873 0h-3.204v-3.276h-2.268v3.276h-3.222v2.142h3.222v3.276h2.268v-3.276h3.204v-2.142zm15.873 0h-3.204v-3.276h-2.268v3.276h-3.222v2.142h3.222v3.276h2.268v-3.276h3.204v-2.142zm15.873 0h-3.204v-3.276h-2.268v3.276h-3.222v2.142h3.222v3.276h2.268v-3.276h3.204v-2.142zm15.873 0h-3.204v-3.276h-2.268v3.276h-3.222v2.142h3.222v3.276h2.268v-3.276h3.204v-2.142zm15.873 0h-3.204v-3.276h-2.268v3.276h-3.222v2.142h3.222v3.276h2.268v-3.276h3.204v-2.142zm15.873 0h-3.204v-3.276h-2.268v3.276h-3.222v2.142h3.222v3.276h2.268v-3.276h3.204v-2.142zm-111.111 18h-3.204v-3.276h-2.268v3.276h-3.222v2.142h3.222v3.276h2.268v-3.276h3.204v-2.142zm15.873 0h-3.204v-3.276h-2.268v3.276h-3.222v2.142h3.222v3.276h2.268v-3.276h3.204v-2.142zm15.873 0h-3.204v-3.276h-2.268v3.276h-3.222v2.142h3.222v3.276h2.268v-3.276h3.204v-2.142zm15.873 0h-3.204v-3.276h-2.268v3.276h-3.222v2.142h3.222v3.276h2.268v-3.276h3.204v-2.142zm15.873 0h-3.204v-3.276h-2.268v3.276h-3.222v2.142h3.222v3.276h2.268v-3.276h3.204v-2.142zm15.873 0h-3.204v-3.276h-2.268v3.276h-3.222v2.142h3.222v3.276h2.268v-3.276h3.204v-2.142zm15.873 0h-3.204v-3.276h-2.268v3.276h-3.222v2.142h3.222v3.276h2.268v-3.276h3.204v-2.142zm15.873 0h-3.204v-3.276h-2.268v3.276h-3.222v2.142h3.222v3.276h2.268v-3.276h3.204v-2.142z" fill="#fff" fill-opacity=".22"/><defs><linearGradient id="paint0_linear" x1="1550.5" y1="233.5" x2="46.5" y2="484.5" gradientUnits="userSpaceOnUse"><stop offset=".547" stop-color="#51FDBD"/><stop offset="1" stop-color="#19D7E1"/></linearGradient><linearGradient id="paint1_linear" x1="111.277" y1="184.213" x2="41.92" y2="189.032" gradientUnits="userSpaceOnUse"><stop offset=".547" stop-color="#51FDBD"/><stop offset="1" stop-color="#19D7E1"/></linearGradient><filter id="filter0_d" x="0" y="0" width="560" height="645" filterUnits="userSpaceOnUse" color-interpolation-filters="sRGB"><feFlood flood-opacity="0" result="BackgroundImageFix"/><feColorMatrix in="SourceAlpha" type="matrix" values="0 0 0 0 0 0 0 0 0 0 0 0 0 0 0 0 0 0 127 0"/><feOffset/><feGaussianBlur stdDeviation="4"/><feColorMatrix type="matrix" values="0 0 0 0 0.12549 0 0 0 0 0.0666667 0 0 0 0 0.223529 0 0 0 0.1 0"/><feBlend mode="normal" in2="BackgroundImageFix" result="effect1_dropShadow"/><feBlend mode="normal" in="SourceGraphic" in2="effect1_dropShadow" result="shape"/></filter></defs></svg>
