<svg xmlns="http://www.w3.org/2000/svg" width="162" height="162" viewBox="0 0 162 162" fill="none"><mask id="b" fill="#fff"><path d="M97.203 47.04c8.113-7.886 18.004-13.871 28.906-17.492a78 78 0 0 1 33.969-3.39c11.443 1.39 22.401 5.295 32.024 11.411s17.656 14.28 23.476 23.86c5.819 9.579 9.269 20.318 10.083 31.385a69.85 69.85 0 0 1-5.387 32.44c-4.358 10.272-11.115 19.443-19.747 26.801-8.632 7.359-18.908 12.709-30.034 15.637l-6.17-21.698c7.666-2.017 14.746-5.703 20.694-10.773 5.948-5.071 10.603-11.389 13.606-18.467a48.14 48.14 0 0 0 3.712-22.352c-.561-7.625-2.938-15.025-6.948-21.625s-9.544-12.226-16.175-16.44-14.181-6.904-22.065-7.863a53.75 53.75 0 0 0-23.405 2.336c-7.513 2.495-14.327 6.62-19.918 12.053z"/></mask><path stroke="url(#a)" stroke-dasharray="6, 6" stroke-width="2" d="M97.203 47.04c8.113-7.886 18.004-13.871 28.906-17.492a78 78 0 0 1 33.969-3.39c11.443 1.39 22.401 5.295 32.024 11.411s17.656 14.28 23.476 23.86c5.819 9.579 9.269 20.318 10.083 31.385a69.85 69.85 0 0 1-5.387 32.44c-4.358 10.272-11.115 19.443-19.747 26.801-8.632 7.359-18.908 12.709-30.034 15.637l-6.17-21.698c7.666-2.017 14.746-5.703 20.694-10.773 5.948-5.071 10.603-11.389 13.606-18.467a48.14 48.14 0 0 0 3.712-22.352c-.561-7.625-2.938-15.025-6.948-21.625s-9.544-12.226-16.175-16.44-14.181-6.904-22.065-7.863a53.75 53.75 0 0 0-23.405 2.336c-7.513 2.495-14.327 6.62-19.918 12.053z" mask="url(#b)" style="stroke:url(#a)" transform="translate(-63.992 -25.587)"/><ellipse cx="8.066" cy="111.597" fill="var(--background-tertiary)" rx="53.677" ry="53.699" transform="matrix(.71707 -.697 .7243 .6895 0 0)"/><g clip-path="url(#c)" transform="translate(-63.992 -25.587)"><path fill="#9abff5" d="m144.256 137.379 32.906 12.434a4.41 4.41 0 0 1 2.559 5.667l-9.326 24.679a4.41 4.41 0 0 1-5.667 2.559l-8.226-3.108-2.332 6.17c-.466 1.233-.375 1.883-1.609 1.417l-2.253-.527c-.411-.155-.95-.594-1.206-1.161l-4.734-10.484-12.545-4.741a4.41 4.41 0 0 1-2.559-5.667l9.325-24.679a4.41 4.41 0 0 1 5.667-2.559m9.961 29.617 8.227 3.108 3.264-8.638-.498-6.768-4.113-1.555.548 7.258-4.319-1.632zm-12.339-4.663 8.226 3.108 3.264-8.637-.498-6.769-4.113-1.554.548 7.257-4.319-1.632z"/></g><g clip-path="url(#d)" transform="translate(-63.992 -25.587)"><path fill="#81b0f3" d="M135.35 60.136 86.67 41.654c-3.346-1.27-7.124.428-8.394 3.775L64.414 81.938c-1.27 3.347.428 7.125 3.774 8.395l12.17 4.62-3.465 9.128c-.693 1.826-1.432 2.457.394 3.15l3.014 1.625c.609.231 1.637.274 2.477-.104l15.53-6.983 18.56 7.047c3.346 1.27 7.124-.428 8.395-3.775l13.862-36.51c1.27-3.346-.428-7.124-3.775-8.395M95.261 83.207l-12.17-4.62 4.852-12.779 7.19-7.017 6.085 2.31-7.725 7.51 6.389 2.426zm18.255 6.93-12.17-4.62 4.852-12.778 7.189-7.017 6.085 2.31-7.725 7.51 6.39 2.426z"/></g><defs><clipPath id="c"><path fill="#fff" d="m198.638 146.586-65.056-24.583-24.583 65.057 65.056 24.582z"/></clipPath><clipPath id="d"><path fill="#fff" d="m66.438 14.055 96.242 36.54-36.54 96.243-96.243-36.54z"/></clipPath><linearGradient id="a" x1="97.203" x2="199.995" y1="47.04" y2="152.793" gradientUnits="userSpaceOnUse"><stop stop-color="#086DFC"/><stop offset=".246" stop-color="#2C81FA"/><stop offset=".516" stop-color="#5497F8"/><stop offset=".821" stop-color="#80B0F6"/><stop offset="1" stop-color="#9ABFF5"/></linearGradient></defs></svg>