<svg class="icon" viewBox="0 0 100 100" xmlns="http://www.w3.org/2000/svg" aria-hidden="true" role="img"><path d="M18.13 86.37l15.62-25.21a4 4 0 00-1.93-5.82l-25.31-10a4 4 0 01-2.32-5l1.26-3.82a4 4 0 014.85-2.6l26.55 7.22a4 4 0 005-3.6l1.93-29a4 4 0 014-3.73h4.38a4 4 0 014 3.73L58.11 37a4 4 0 005 3.61l26.67-6.78a4 4 0 014.78 2.62l1.28 3.88a4 4 0 01-2.32 5l-25.35 10a4 4 0 00-1.92 5.83l15.64 25.2a4 4 0 01-1 5.34l-3.75 2.7a4 4 0 01-5.52-.78L53.45 70.2a4 4 0 00-6.29 0L28.39 93.7a4 4 0 01-5.49.73l-3.73-2.73a4 4 0 01-1.04-5.33z" fill="#212121"/></svg>
