<svg class="icon" viewBox="0 0 100 100" xmlns="http://www.w3.org/2000/svg" aria-hidden="true" role="img"><path d="M32.8 50a16.56 16.56 0 00-12.42 6h-6.29C9.4 56 5 53.75 5 48.55 5 44.75 4.86 32 10.81 32c1 0 5.86 4 12.19 4a18.8 18.8 0 006.23-1.07A22.71 22.71 0 0029 38a21.17 21.17 0 003.8 12zM83 79.86C83 87.45 78 92 70.48 92h-41C22 92 17 87.45 17 79.86 17 69.27 19.48 53 33.22 53c1.59 0 7.41 6.52 16.78 6.52S65.19 53 66.78 53C80.52 53 83 69.27 83 79.86zM35 20A12 12 0 1123 8a12 12 0 0112 12zm33 18a18 18 0 11-18-18 18 18 0 0118 18zm27 10.55c0 5.2-4.41 7.45-9.09 7.45h-6.28a16.6 16.6 0 00-12.43-6A21.2 21.2 0 0071 38a24.43 24.43 0 00-.23-3.09A18.63 18.63 0 0077 36c6.33 0 11.2-4 12.19-4 6 0 5.81 12.75 5.81 16.55zM89 20A12 12 0 1177 8a12 12 0 0112 12z" fill="#212121"/></svg>
