<svg class="icon" viewBox="0 0 100 100" xmlns="http://www.w3.org/2000/svg" aria-hidden="true" role="img"><g fill="#212121"><path d="M75.06 7.64C69.79 2.38 58.41 5.23 49.63 14S38 34.16 43.28 39.42s16.64 2.42 25.42-6.35 11.62-20.16 6.36-25.43zm-10.49 21.2C58.73 34.67 51.63 37 48.7 34.1s-.57-10 5.26-15.87S66.9 10.05 69.82 13s.58 10-5.25 15.86z"/><path d="M50.22 14C41.45 5.22 30.06 2.38 24.8 7.64s-2.42 16.65 6.35 25.43 20.15 11.61 25.42 6.35S59 22.78 50.22 14zm.93 20.1c-2.93 2.93-10 .57-15.87-5.26S27.1 15.9 30 13s10-.58 15.87 5.25 8.19 12.94 5.26 15.87z"/><path d="M18.32 36.72h63.36a6.6 6.6 0 016.61 6.6 6.61 6.61 0 01-6.61 6.6H18.32a6.61 6.61 0 01-6.61-6.6 6.6 6.6 0 016.61-6.6zM12.35 54.53h31.72a2.19 2.19 0 012.19 2.19V95H16.73a4.38 4.38 0 01-4.38-4.38V54.53zM56.11 54.53h31.72v36.1A4.38 4.38 0 0183.45 95H53.92V56.71a2.19 2.19 0 012.19-2.18z"/></g></svg>
