<svg class="icon" viewBox="0 0 100 100" xmlns="http://www.w3.org/2000/svg" aria-hidden="true" role="img"><path d="M50 5A45 45 0 115 50 45 45 0 0150 5zm16 30.53c-.46.35-.76 1-1.34 1.11.29-.06.58-1.11.76-1.34a3.8 3.8 0 011.29-.88 13.28 13.28 0 013-.7 2.94 2.94 0 013 .64C72.62 34.19 74 33 74.2 32.9c.53-.3 1.41-.18 1.76-.71a5.83 5.83 0 00.11-1.29c-1 .12-1.34-.82-1.4-1.64a1.23 1.23 0 01-.35.47c.06-.88-1.06-.24-1.47-.35-1.35-.35-1.17-1.29-1.58-2.29-.24-.52-.88-.7-1.12-1.23-.23-.35-.35-1.11-.88-1.17-.35-.06-1 1.23-1.11 1.17-.53-.29-.76.12-1.17.36s-.65.11-1 .29c1.05-.35-.47-.94-1-.82.82-.24.41-1.12-.06-1.52h.29c-.11-.53-1.75-1-2.28-1.35s-3.34-.94-3.93-.59.18 1.59.18 2.17-.7.88-.7 1.47c0 1 1.87.82 1.41 2.17-.3.82-1.41 1-1.88 1.64s.06 1.64.53 2.05-.82.94-1 1.05c-1 .47-1.76-1-2-1.87-.18-.65-.24-1.41-.94-1.76-.35-.12-1.46-.29-1.7.06-.35-.88-1.58-1.23-2.4-1.52a6.75 6.75 0 00-3.4-.24c.41-.06-.11-1.87-1.11-1.58a6.4 6.4 0 00.29-1.82 3.45 3.45 0 01.7-1.34c.12-.24 1.41-1.59 1-1.65a3.31 3.31 0 002.93-.64c.53-.53.76-1.41 1.29-2 .76-.88 1.7.23 2.52.29 1.17.06 1.11-1.23.47-1.81.76.06.11-1.35-.29-1.53s-2.52.36-1.47.76C53.21 16 51.81 19 51 17.49c-.24-.29-.35-1.52-.88-1.58s-.76.53-.94.88c.3-.77-1.64-1.29-2.05-1.35.88-.59.18-1.23-.47-1.58-.46-.3-1.93-.53-2.34-.06-1.11 1.34 1.17 1.52 1.76 1.87.18.12.88.53.47.82s-1.41.47-1.52.7c-.36.53.4 1.12-.12 1.65-.53-.53-.53-1.41-.94-2 .53.64-2.11.29-2.05.29-.88 0-2.28.58-2.93-.29-.11-.24-.11-1.59.24-1.29-.53-.41-.88-.83-1.23-1.06a35.93 35.93 0 00-5.51 2.41 1.06 1.06 0 00.7-.06 14.61 14.61 0 001.35-.71c.58-.23 1.81-.93 2.46-.4a1.39 1.39 0 01.29-.3 14 14 0 011.17 1.47 3.48 3.48 0 00-1.76-.06c-.4.12-1.11.24-1.29.7.18.29.41.76.3 1.05-.76-.52-1.35-1.4-2.41-1.52a8.53 8.53 0 00-1.29.06 38.09 38.09 0 00-13.77 13 1.58 1.58 0 00.7.47c.59.18 0 1.87 1.12 1a.81.81 0 01.17 1.11c.06-.06 2.41 1.47 2.58 1.58.41.36 1.06.76 1.23 1.23a1 1 0 01-.58 1.06c-.06-.12-.94-1-1.05-.76s0 1.87.64 1.81c-.94.06-.53 3.69-.76 4.4 0 .06.12.06.12.06-.18.7.4 3.45 1.58 3.16-.76.18 1.34 2.87 1.64 3A7.36 7.36 0 0127.79 50c.58.82.58 2 1.4 2.69-.23.71 1.23 1.53 1.18 2.52-.12.06-.18.06-.29.12.29.82 1.4.82 1.81 1.58.24.47 0 1.59.76 1.35.12-1.29-.76-2.58-1.4-3.63-.36-.59-.71-1.12-1-1.7a18.15 18.15 0 01-.59-1.76c.24.06 1.53.53 1.41.7-.47 1.17 1.87 3.22 2.52 4 .18.18 1.52 1.94.82 1.94.76 0 1.82 1.17 2.17 1.76.53.87.41 2 .76 2.92.35 1.18 2 1.7 2.93 2.23A22.66 22.66 0 0042.61 66c1.23.47 1.52.06 2.58-.11 1.52-.24 1.7 1.46 2.93 2.1.76.41 2.4 1 3.22.65-.35.11 1.23 2.52 1.35 2.69.53.71 1.52 1.06 2.11 1.76a.87.87 0 00.4-.53c-.23.65.88 1.88 1.47 1.76s.82-1.4.82-1.87a2.05 2.05 0 01-2.87-1.06c-.12-.29-1-1.93-.24-1.93 1.12 0 .36-.88.24-1.7s-.94-1.35-1.35-2c-.35.7-1.52.53-1.87-.06 0 .18-.18.47-.18.7a2.2 2.2 0 01-.88-.06c.12-.7.18-1.58.36-2.34.29-1.06 2.22-3.11-.3-3a1.52 1.52 0 00-1.52 1.17c-.29.7-.17 1.35-1 1.7a5 5 0 01-2.81-.18C44 63 43.2 60.91 43.2 59.74c-.06-1.58.76-3 0-4.46.35-.29.7-.87 1.11-1.17s.76.18.94-.53a4.45 4.45 0 00-.47-.35c.88.41 2.52-.59 3.28 0 .47.35 1 .47 1.29-.12.06-.17-.41-.88-.18-1.34.18 1 .83 1.17 1.7.52.36.36 1.29.24 1.94.59s.76 1 1.52.18a3.08 3.08 0 01.7 1.4c.18.65.53 2.29 1.12 2.58 1.23.76.93-1.29.82-2-.06-.06-.06-2-.12-2-1.87-.41-1.17-1.88-.12-2.87a13.61 13.61 0 002.11-1.06c.53-.47 1.18-1.29.88-2.05a.73.73 0 00.64-.53c-.17-.06-.87-.64-1-.58.41-.24.35-.59.11-.94.59-.35.3-1 .88-1.23.65.88 1.94-.12 1.29-.82.59-.82 1.94-.41 2.28-1.17.88.23.24-.88.71-1.53s1.11-.53 1.64-.82c0 .06 1.46-.82 1-.88 1 .12 3-.93 1.46-1.81.24-.53-.53-.76-1-.88.41-.11.94.12 1.29-.11.76-.53.23-.77-.41-.94a3.51 3.51 0 00-2.52.7zm-9.5 51.38a37.11 37.11 0 0020.57-11.07c-.35-.35-1-.24-1.47-.47a8.62 8.62 0 00-1.41-.47c.12-1.17-1.17-1.58-2-2.16s-1.23-1.23-2.34-1c-.12.06-1.29.47-1 .7a4.85 4.85 0 00-2.11-1.29c-.94-.29-1.58-1.47-2.52-.41-.47.47-.24 1.17-.47 1.64-.76-.64.7-1.4.12-2.1s-1.94.53-2.52.87c-.36.3-.77.41-1 .76s-.41.94-.65 1.35c-.17-.47-1.17-.35-1.23-.7.24 1.41.24 2.87.53 4.28a3.28 3.28 0 01-.7 2.81c-.7.65-1.58 1.35-1.7 2.34-.11.71.06 1.35.7 1.53.06.87-.93 1.52-.87 2.46-.04.02.02.64.07.93z" fill="#212121"/></svg>
