<svg class="icon" viewBox="0 0 100 100" xmlns="http://www.w3.org/2000/svg" aria-hidden="true" role="img"><g fill="#212121"><path d="M92.18 15H7.82A3.79 3.79 0 004 18.74v62.52A3.79 3.79 0 007.82 85h84.36A3.79 3.79 0 0096 81.26V18.74A3.79 3.79 0 0092.18 15zm-3.85 59.47a3.07 3.07 0 01-3.09 3H14.76a3.07 3.07 0 01-3.09-3V25.53a3.07 3.07 0 013.09-3h70.48a3.07 3.07 0 013.09 3z"/><ellipse cx="49.53" cy="48.58" rx="14.92" ry="16.5"/><circle cx="13.87" cy="25.53" r="8.89"/><circle cx="86.1" cy="26.53" r="8.89"/><circle cx="13.87" cy="74.3" r="8.89"/><circle cx="85.1" cy="74.3" r="8.89"/></g><path d="M55 53.64v2.68H45v-2.68h3.72v-9.33l-3.19 2L44 43.89l5-3h3.13v12.75z" fill="#fff"/></svg>
