<svg class="icon" viewBox="0 0 100 100" xmlns="http://www.w3.org/2000/svg" aria-hidden="true" role="img"><path d="M91.23 78.8A15.9 15.9 0 0175 95a19.8 19.8 0 01-13.84-5.89L15.42 43.4a22.91 22.91 0 01-6.65-16A22.22 22.22 0 0131.09 5a22.94 22.94 0 0116.08 6.66l35.64 35.69a1.94 1.94 0 01.59 1.3c0 1.24-3.3 4.53-4.54 4.53a1.9 1.9 0 01-1.35-.58l-35.7-35.76a15.44 15.44 0 00-10.66-4.53 14.87 14.87 0 00-14.84 15.08 15.13 15.13 0 004.48 10.66l45.7 45.77a12.39 12.39 0 008.51 3.7 8.47 8.47 0 008.72-8.71A12.24 12.24 0 0080 70.27L45.82 36.05a5.28 5.28 0 00-3.54-1.42 3.83 3.83 0 00-3.94 3.95 5.15 5.15 0 001.47 3.48L64 66.2a1.9 1.9 0 01.59 1.3c0 1.24-3.36 4.6-4.6 4.6a2 2 0 01-1.29-.59L34.51 47.36a12.4 12.4 0 01-3.71-8.78A11.41 11.41 0 0142.08 27h.26a12.3 12.3 0 018.78 3.71L85.34 65a19.55 19.55 0 015.89 13.84z" fill="#212121"/></svg>
