<svg xmlns="http://www.w3.org/2000/svg" viewBox="0 0 100 100" aria-hidden="true" role="img"><path d="M67.67 95a1.62 1.62 0 001.62-1.63V29.13a1.61 1.61 0 00-1.18-1.54v-.05l-45-12 9.58-7.17 46.23 12.32v63.06c6.58 13.94 1.88-66.6 3.21-64.29a1.61 1.61 0 00-1.19-1.54L32.73 5a1.34 1.34 0 00-1.36.26L18.49 15h.05c-1.94.77 0 64.28-.67 65.56a1.61 1.61 0 001.19 1.54L67.27 95a1.11 1.11 0 00.4 0zm6.46-4.83a1.59 1.59 0 001.58-1.59v-63.8a1.5 1.5 0 00-1.14-1.45L33.61 12c-2.05-.68-2.91 2.63-.79 3L72.5 26.05v62.53a1.59 1.59 0 001.63 1.59zm-8 1.14l-45-12V18.36l45 12z" fill="#212121"/></svg>
