<svg class="icon" viewBox="0 0 100 100" xmlns="http://www.w3.org/2000/svg" aria-hidden="true" role="img"><path d="M47 50a12 12 0 10-12 12 12 12 0 0012-12zm36 24a6 6 0 10-6 6 6 6 0 006-6zm0-48a6 6 0 10-6 6 6 6 0 006-6zM65 45.71v8.68a1.46 1.46 0 01-1.08 1.4l-7.26 1.13a21.82 21.82 0 01-1.5 3.56c1.31 1.88 2.72 3.61 4.22 5.39a1.59 1.59 0 01.32.94 1.21 1.21 0 01-.32.89c-.94 1.27-6.19 7-7.55 7a1.86 1.86 0 01-1-.33l-5.39-4.22a19.45 19.45 0 01-3.61 1.45 46.34 46.34 0 01-1.07 7.27 1.48 1.48 0 01-1.4 1.13h-8.72a1.44 1.44 0 01-1.4-1.17l-1.08-7.17a23.47 23.47 0 01-3.52-1.45l-5.53 4.17a1.39 1.39 0 01-.94.33 1.54 1.54 0 01-1-.38c-1.22-1.12-6.75-6.14-6.75-7.5a1.57 1.57 0 01.33-.89c1.35-1.78 2.76-3.52 4.12-5.34a25.59 25.59 0 01-1.64-3.85l-7.1-1.14A1.36 1.36 0 015 54.25v-8.67a1.46 1.46 0 011.08-1.41l7.26-1.12a21.92 21.92 0 011.5-3.57q-2-2.79-4.22-5.39a1.8 1.8 0 01-.32-.94 1.47 1.47 0 01.32-.94c.94-1.26 6.19-6.93 7.55-6.93a1.85 1.85 0 011 .32l5.39 4.22a25.91 25.91 0 013.61-1.5 46.59 46.59 0 011.07-7.22 1.51 1.51 0 011.4-1.1h8.72a1.45 1.45 0 011.4 1.17l1.08 7.18a23 23 0 013.52 1.45l5.53-4.18a1.45 1.45 0 01.94-.32 1.53 1.53 0 011 .37c1.22 1.13 6.75 6.19 6.75 7.5a1.63 1.63 0 01-.32.89c-1.36 1.83-2.77 3.52-4.08 5.35a29.61 29.61 0 011.59 3.84l7.13 1.08a1.45 1.45 0 011.1 1.38zm30 25v6.56c0 .7-6 1.36-7 1.45a11.4 11.4 0 01-1.41 2.44c.41.93 2.41 5.61 2.41 6.46a.34.34 0 01-.19.32c-.56.33-5.58 3.33-5.81 3.33-.61 0-4.12-4.69-4.59-5.39A13.34 13.34 0 0177 86c-.47 0-.94 0-1.41-.09-.46.7-4 5.39-4.59 5.39-.23 0-5.25-3-5.81-3.33a.42.42 0 01-.19-.32c0-.8 2-5.54 2.39-6.47A11.36 11.36 0 0166 78.71c-.94-.09-7-.75-7-1.45V70.7c0-.71 6-1.36 7-1.46a12.55 12.55 0 011.4-2.43c-.4-.94-2.4-5.67-2.4-6.47a.43.43 0 01.19-.33c.56-.28 5.58-3.28 5.81-3.28.61 0 4.13 4.64 4.59 5.34.47 0 .94-.09 1.41-.09s.94.05 1.41.09a43.27 43.27 0 014.31-5.25l.28-.09c.23 0 5.25 3 5.81 3.28a.41.41 0 01.19.33c0 .84-2 5.53-2.39 6.47A13.14 13.14 0 0188 69.24c1 .1 7 .76 7 1.46zm0-48v6.56c0 .7-6 1.36-7 1.45a11.4 11.4 0 01-1.41 2.44c.41.93 2.41 5.61 2.41 6.45a.35.35 0 01-.19.33c-.56.33-5.58 3.33-5.81 3.33-.61 0-4.12-4.69-4.59-5.39A13.34 13.34 0 0177 38c-.47 0-.94 0-1.41-.09-.46.7-4 5.39-4.59 5.39-.23 0-5.25-3-5.81-3.33a.42.42 0 01-.19-.33c0-.79 2-5.53 2.39-6.46A11.36 11.36 0 0166 30.71c-.94-.09-7-.75-7-1.45v-6.57c0-.7 6-1.35 7-1.45a12.55 12.55 0 011.4-2.43c-.4-.94-2.4-5.68-2.4-6.47a.43.43 0 01.19-.33c.56-.28 5.58-3.28 5.81-3.28.61 0 4.13 4.64 4.59 5.34.47 0 .94-.09 1.41-.09s.94 0 1.41.09a43.27 43.27 0 014.31-5.25l.28-.09c.23 0 5.25 2.95 5.81 3.28a.41.41 0 01.19.33c0 .84-2 5.53-2.39 6.47A13.14 13.14 0 0188 21.24c.94.1 7 .75 7 1.45z" fill="#212121"/></svg>
