<svg class="icon" viewBox="0 0 100 100" xmlns="http://www.w3.org/2000/svg" aria-hidden="true" role="img"><path d="M86.58 16.93H13.45A8.37 8.37 0 005 25.22V75a8.37 8.37 0 008.44 8.29h73.14A8.36 8.36 0 0095 75V25.22a8.36 8.36 0 00-8.42-8.29zm0 8.29v7c-3.94 3.16-10.23 8.06-23.66 18.39-3 2.29-8.83 7.79-12.91 7.72s-9.94-5.43-12.9-7.72C23.68 40.32 17.39 35.42 13.45 32.26v-7zM13.45 75V42.9c4 3.15 9.74 7.58 18.45 14.27 3.84 3 10.57 9.53 18.11 9.49s14.16-6.42 18.12-9.49c8.7-6.69 14.42-11.12 18.45-14.27V75z" fill="#212121"/></svg>
