<svg class="icon" viewBox="0 0 100 100" xmlns="http://www.w3.org/2000/svg" aria-hidden="true" role="img"><path d="M44.28 59.14c-.1.35-2.57-.8-3.22-1s-3.62-2-4.37-2.46-3.61-2.87-4-3A90.52 90.52 0 0126 61.7c-.9 1.06-3.61 4.47-5.27 5.53a5.09 5.09 0 01-1.91.2 58.7 58.7 0 004.12-4.62c1.26-1.46 7.23-9.79 8.23-11.7s4.22-8.24 4.37-8.84A47 47 0 0030 43.93c-1 .3-3.77 1-4 1.1s-.05.81-.15 1a3.47 3.47 0 01-1.56.75 5.22 5.22 0 01-2.36 0 2.7 2.7 0 01-1.4-1 2.46 2.46 0 01-.25-1.16c.6-.2 1.6-.25 2.71-.55s3.82-1.11 5.27-1.61 4.27-1.55 5.13-1.76 3.2-1.7 4.4-2.1 2.07-.9 2.11-.65a9.35 9.35 0 010 1.66c-.05.25-2.46 5-2.81 5.72-.2.41-1.61 3.07-3.87 6.58.81.35 2.51 1.06 3.22 1.41s6.83 2.91 7.13 3a6.15 6.15 0 01.75 2.81zM34 34.73a1.85 1.85 0 01-.2 1.41 5 5 0 01-2.51 1.91 9.26 9.26 0 01-3 .6 3.93 3.93 0 01-2.46-1.3c-.6-.66-1.06-2.41-.86-2.21a4.68 4.68 0 002.32.25c.65-.16 2.21-.61 2.91-.81a20.32 20.32 0 012.76-.7 1 1 0 011 .85zm35 6.48l3.16 11.4-7-2.1zM13.38 81.39l34.86-11.65V17.91l-34.86 11.7zm62.34-15.92L80.84 67l-9.09-33-5-1.56-10.87 26.95L61 61l2.26-5.53 10.6 3.27zM50.45 17.15l28.78 9.25V7.31zM66.07 83.6l7.94.65-2.71 8-2-3.31a38.41 38.41 0 01-13.87 5.46 24 24 0 01-4.57.6h-4.23c-5.32 0-15-3.16-19.23-6.23a1 1 0 01.5-1.77 29 29 0 013.47 1.75c4.52 2.26 10.84 4.32 15.92 4.32a36.92 36.92 0 0016.27-3.26c1.66-.75 3.12-1.71 4.67-2.56zm22.5-54.19V83.6C49.75 71.25 49.7 71.25 49.7 71.25c-.81.35-36.82 12.5-37.32 12.5a1 1 0 01-.9-.65s-.05-.1-.05-.15V28.81a1.47 1.47 0 01.2-.51 2 2 0 011-.55c.15-.05 3.21-1.05 7.48-2.51V6l28 10c.39-.2 31.63-11 32.08-11a1 1 0 011 1v21z" fill="#212121"/></svg>
