<svg class="icon" viewBox="0 0 100 100" xmlns="http://www.w3.org/2000/svg" aria-hidden="true" role="img"><g fill="#212121"><rect height="10.24" rx="2.29" transform="rotate(45 78.75 78.75)" width="38.41" x="59.55" y="73.63"/><path d="M60.675 57.051l9.05 9.051-3.62 3.62-9.05-9.05z"/><path d="M37.16 5a32.16 32.16 0 1032.15 32.16A32.16 32.16 0 0037.16 5zm0 56.27a24.12 24.12 0 1124.11-24.11 24.12 24.12 0 01-24.11 24.11zM65.26 67.27l-2.53 2.53-.93-3.46-.93-3.46 3.46.93 3.46.93z"/><path d="M67.27 65.26l-2.53 2.53-.93-3.46-.93-3.46 3.46.93 3.46.93z"/></g></svg>
