<svg class="icon" viewBox="0 0 100 100" xmlns="http://www.w3.org/2000/svg" aria-hidden="true" role="img"><path d="M95 40.35a4 4 0 01-1.41 2.59L74 62.09l4.65 27a6.52 6.52 0 01.06 1.08c0 1.41-.65 2.7-2.22 2.7a4.39 4.39 0 01-2.17-.64L50 79.51 25.72 92.27a4.69 4.69 0 01-2.17.64c-1.57 0-2.27-1.29-2.27-2.7a7.91 7.91 0 01.11-1.08l4.65-27L6.35 42.94A4.24 4.24 0 015 40.35c0-1.63 1.68-2.27 3-2.49l27.15-4L47.35 9.3c.49-1 1.4-2.21 2.65-2.21s2.16 1.19 2.65 2.21l12.17 24.61 27.15 4c1.3.22 3 .86 3 2.49z" fill="#212121"/></svg>
