<svg viewBox="0 0 128 132" fill="none" xmlns="http://www.w3.org/2000/svg">
<path d="M56.0205 107.6C56.0205 107.6 41.6998 107.263 29.9935 92.6782C17.3338 76.9052 22.5195 63.0937 22.5195 63.0937" stroke="#347A3F" stroke-width="2" stroke-linecap="round" stroke-linejoin="round"/>
<path d="M18.5205 62.745L23.0194 61.0918L25.5191 65.0916" stroke="#347A3F" stroke-width="2"/>
<path d="M71.0849 24.3683C71.0849 24.3683 85.4057 24.7054 97.1119 39.2905C109.772 55.0636 104.586 68.875 104.586 68.875" stroke="#347A3F" stroke-width="2" stroke-linecap="round" stroke-linejoin="round"/>
<path d="M108.585 69.2238L104.086 70.877L101.586 66.8771" stroke="#347A3F" stroke-width="2"/>
<path d="M78.6153 64.3561C78.6153 64.08 78.8392 63.8561 79.1153 63.8561H84.1308C84.4069 63.8561 84.6308 64.08 84.6308 64.3561V67.3664C84.6308 67.6426 84.4069 67.8664 84.1308 67.8664H79.1153C78.8392 67.8664 78.6153 67.6426 78.6153 67.3664V64.3561ZM40.5176 64.3561C40.5176 64.08 40.7414 63.8561 41.0176 63.8561H46.033C46.3092 63.8561 46.533 64.08 46.533 64.3561V67.3664C46.533 67.6426 46.3092 67.8664 46.033 67.8664H41.0176C40.7414 67.8664 40.5176 67.6426 40.5176 67.3664V64.3561ZM64.0793 43.8047C64.3555 43.8047 64.5793 44.0285 64.5793 44.3047V49.3201C64.5793 49.5963 64.3555 49.8201 64.0793 49.8201H61.069C60.7929 49.8201 60.569 49.5963 60.569 49.3201V44.3047C60.569 44.0285 60.7929 43.8047 61.069 43.8047H64.0793ZM48.0234 49.1744C48.2187 48.9777 48.5369 48.9775 48.7325 49.174L52.2956 52.7538C52.4905 52.9496 52.4896 53.2665 52.2935 53.4613L50.1541 55.5856C49.959 55.7793 49.644 55.7792 49.4491 55.5852L45.8844 52.0372C45.6889 51.8426 45.6879 51.5263 45.8823 51.3305L48.0234 49.1744ZM72.8524 53.4412C72.6574 53.2463 72.657 52.9303 72.8515 52.735L76.397 49.1728C76.5921 48.9767 76.9093 48.9763 77.1049 49.1719L79.2635 51.3305C79.4591 51.5261 79.4587 51.8433 79.2627 52.0385L75.7005 55.5839C75.5051 55.7784 75.1892 55.778 74.9942 55.5831L72.8524 53.4412ZM66.0845 83.9076C66.3606 83.9076 66.5845 84.1314 66.5845 84.4076V85.9127C66.5845 86.4445 66.3732 86.9545 65.9972 87.3306C65.6211 87.7066 65.1111 87.9179 64.5793 87.9179H60.569C60.0372 87.9179 59.5272 87.7066 59.1512 87.3306C58.7751 86.9545 58.5639 86.4445 58.5639 85.9127V84.4076C58.5639 84.1314 58.7877 83.9076 59.0639 83.9076H66.0845ZM60.569 77.3921C60.569 77.6683 60.7929 77.8921 61.069 77.8921H64.0793C64.3555 77.8921 64.5793 77.6683 64.5793 77.3921V74.0099C64.5793 73.7813 64.7351 73.5833 64.9537 73.5161C68.2299 72.5094 70.5947 69.4553 70.5947 65.8613C70.5947 63.7341 69.7497 61.694 68.2456 60.1899C66.7414 58.6857 64.7014 57.8407 62.5742 57.8407C60.447 57.8407 58.4069 58.6857 56.9028 60.1899C55.3986 61.694 54.5536 63.7341 54.5536 65.8613C54.5536 69.4553 56.9184 72.5094 60.1946 73.5161C60.4132 73.5833 60.569 73.7813 60.569 74.0099V77.3921Z" fill="currentColor"/>
<path d="M67.156 78.2178H57.3818V70.3984H67.156V78.2178Z" fill="#347A3F"/>
<circle cx="62.2692" cy="63.5563" r="10.7516" fill="#347A3F"/>
<circle cx="87.1756" cy="96.1766" r="3.1766" fill="#DFBD0A"/>
<circle cx="97.3815" cy="86.3825" r="2.38245" fill="#DFBD0A"/>
<path d="M74.9563 99.6817C74.9391 97.9548 75.9547 95.8721 75.9547 95.8721C75.9547 95.8721 74.2209 98.7408 72.8737 98.6662C71.8089 98.6072 70.6131 97.1343 70.6131 97.1343L70.6475 100.588L68.7771 103.543L71.0204 103.348L72.604 106.268L73.2638 103.153L79.2996 102.229C79.2996 102.229 74.9759 101.648 74.9563 99.6817Z" fill="#DFBD0A" stroke="#DFBD0A"/>
</svg>
