<svg xmlns="http://www.w3.org/2000/svg" fill="none" viewBox="0 0 64 64"><mask id="a" fill="#fff"><path fill-rule="evenodd" d="M23.642 62.177c12.029.372 20.52-6.63 20.52-17.104 0-10.473-6.43-18.624-18.75-20.822-9.824-1.753-23.35 5.887-23.35 16.36-.572 5.817 2.853 11.633 7.693 15.757.093.559.3 2.015.133 3.003-.197 1.164-1.103 2.797-1.103 2.797s2.632.1 3.89-.565c.779-.412 1.65-1.304 2.124-1.827 2.912 1.516 5.99 2.401 8.843 2.401Z" clip-rule="evenodd"/></mask><path fill="currentColor" d="m23.642 62.177.093-2.998-.046-.002h-.047v3Zm1.77-37.926.527-2.954-.527 2.954ZM2.062 40.61l2.986.294.014-.147v-.147h-3Zm7.693 15.757 2.96-.49-.18-1.082-.834-.711-1.946 2.283Zm.133 3.003-2.958-.5 2.958.5Zm-1.103 2.797-2.623-1.456-2.37 4.268 4.878.186.115-2.998Zm3.89-.565-1.402-2.652 1.403 2.652Zm2.124-1.827 1.385-2.66-2.055-1.07-1.554 1.717 2.224 2.013Zm26.363-14.703c0 4.366-1.742 7.882-4.667 10.312-2.962 2.462-7.336 3.961-12.76 3.794l-.185 5.997c6.604.204 12.49-1.612 16.78-5.177 4.328-3.597 6.832-8.819 6.832-14.926h-6ZM24.885 27.204c5.61 1.001 9.636 3.307 12.257 6.323 2.616 3.01 4.02 6.941 4.02 11.546h6c0-5.868-1.812-11.25-5.491-15.482-3.674-4.228-9.023-7.097-15.732-8.294l-1.054 5.907ZM5.062 40.611c0-3.866 2.52-7.577 6.628-10.25 4.1-2.669 9.173-3.874 13.195-3.157l1.053-5.907c-5.802-1.035-12.403.703-17.521 4.035-5.112 3.327-9.355 8.673-9.355 15.28h6Zm6.639 13.474c-4.438-3.78-7.092-8.718-6.653-13.18l-5.971-.588c-.706 7.172 3.49 13.867 8.733 18.335l3.89-4.567Zm1.145 5.787c.263-1.555-.048-3.49-.131-3.995l-5.92.982c.039.23.1.64.133 1.078.037.483.024.804.002.934l5.916 1Zm-4.061 2.296a1337.723 1337.723 0 0 0 2.623 1.455l.001-.001.002-.003.004-.008.013-.023a10.822 10.822 0 0 0 .17-.321c.104-.204.246-.49.396-.821.27-.596.685-1.59.852-2.574L6.93 58.87c-.03.179-.167.584-.4 1.096a12.841 12.841 0 0 1-.37.75v-.002l.001-.002 2.624 1.455Zm2.488-3.217c.051-.027-.03.02-.32.079-.263.052-.578.09-.908.113a12.688 12.688 0 0 1-1.151.027h.004l-.113 2.998-.114 2.998h.02l.036.002.115.003c.095.001.226.003.385.002.315 0 .753-.01 1.245-.045.828-.06 2.369-.219 3.607-.873l-2.806-5.304Zm1.302-1.188c-.198.218-.463.495-.74.747-.305.276-.5.408-.562.441l2.806 5.304c1.3-.689 2.488-1.962 2.944-2.465l-4.448-4.027Zm11.067 1.414c-2.26 0-4.861-.71-7.458-2.062l-2.77 5.322c3.228 1.68 6.78 2.74 10.228 2.74v-6Z" mask="url(#a)"/><path fill="#347A3F" fill-rule="evenodd" d="M44.468 32.24c-9.66.3-16.34-5.279-16.138-13.627.202-8.348 3.525-16.6 15.45-16.605 7.998-.003 18.627 4.685 18.424 13.033.353 4.713-2.608 9.426-6.674 12.724-.049.544-.101 1.5.051 2.163.21.914 1.008 2.156 1.008 2.156s-2.102.25-3.138-.199c-.758-.328-1.652-1.184-1.965-1.498-2.329 1.17-4.768 1.852-7.018 1.852Z" clip-rule="evenodd"/><path fill="#DFBD0A" stroke="#DFBD0A" d="M44.27 18.9c-.839-1.154-2.498-2.02-2.498-2.02s2.495 1.023 3.301.29c.638-.578.662-2.161.662-2.161l1.676 2.308 2.623 1.012-1.5 1.008.444 2.74-1.944-1.733-4.23 2.448s2.42-2.578 1.465-3.892Z"/><path stroke="#DFBD0A" d="M23.698 34.291c3.661-3.543 4.591-6.916 9.375-9.074m-10.237 17.58c7.465-5.14 9.324-13.4 17.535-16.275M32.17 41.94s1.938-2.583 3.153-4.457c1.215-1.873 4.99-4.186 4.99-4.186"/></svg>