<svg viewBox="0 0 65 75" fill="none" xmlns="http://www.w3.org/2000/svg">
<mask id="path-1-inside-1_2052_257" fill="white">
<path fill-rule="evenodd" clip-rule="evenodd" d="M21.6425 74.1771C33.6707 74.5489 42.1617 67.5461 42.1617 57.0731C42.1617 46.6001 35.7313 38.4488 23.4116 36.2509C13.5876 34.4982 0.0624873 42.1382 0.0624873 52.6112C-0.510066 58.4277 2.91486 64.2443 7.75524 68.3683C7.8479 68.927 8.0553 70.3832 7.88806 71.3713C7.69102 72.5354 6.78472 74.1682 6.78472 74.1682C6.78472 74.1682 9.41722 74.2686 10.6758 73.6028C11.4536 73.1913 12.3252 72.2994 12.7987 71.7763C15.7114 73.2923 18.7882 74.1771 21.6425 74.1771Z"/>
</mask>
<path d="M21.6425 74.1771L21.7352 71.1785L21.6888 71.1771H21.6425V74.1771ZM23.4116 36.2509L23.9385 33.2975L23.4116 36.2509ZM0.0624873 52.6112L3.04806 52.9051L3.06249 52.7585V52.6112H0.0624873ZM7.75524 68.3683L10.7148 67.8774L10.5354 66.7958L9.70085 66.0848L7.75524 68.3683ZM7.88806 71.3713L4.93013 70.8707H4.93013L7.88806 71.3713ZM6.78472 74.1682L4.16171 72.7123L1.79276 76.9801L6.67043 77.166L6.78472 74.1682ZM10.6758 73.6028L9.27295 70.951L9.27294 70.951L10.6758 73.6028ZM12.7987 71.7763L14.1838 69.1152L12.1292 68.0459L10.5747 69.7629L12.7987 71.7763ZM39.1617 57.0731C39.1617 61.4391 37.4195 64.9547 34.4954 67.3846C31.5325 69.8466 27.1591 71.3462 21.7352 71.1785L21.5498 77.1756C28.1541 77.3798 34.0403 75.5639 38.33 71.9992C42.6584 68.4024 45.1617 63.1801 45.1617 57.0731H39.1617ZM22.8848 39.2043C28.4952 40.2052 32.5212 42.5109 35.1422 45.5267C37.7584 48.5371 39.1617 52.468 39.1617 57.0731H45.1617C45.1617 51.2052 43.3498 45.8239 39.6709 41.5909C35.9968 37.3633 30.6477 34.4945 23.9385 33.2975L22.8848 39.2043ZM3.06249 52.6112C3.06249 48.7447 5.58251 45.0339 9.68953 42.3607C13.7893 39.6924 18.8629 38.4868 22.8848 39.2043L23.9385 33.2975C18.1363 32.2624 11.5354 34.0004 6.41653 37.3321C1.305 40.659 -2.93751 46.0047 -2.93751 52.6112H3.06249ZM9.70085 66.0848C5.26343 62.3041 2.6089 57.3665 3.04806 52.9051L-2.92308 52.3173C-3.62903 59.489 0.566284 66.1845 5.80962 70.6519L9.70085 66.0848ZM10.846 71.8719C11.1092 70.3171 10.7984 68.3812 10.7148 67.8774L4.79568 68.8593C4.83372 69.0886 4.89435 69.4985 4.92781 69.937C4.96462 70.4195 4.95212 70.7407 4.93013 70.8707L10.846 71.8719ZM6.78472 74.1682C9.40773 75.6242 9.40788 75.6239 9.40804 75.6236C9.4081 75.6235 9.40826 75.6232 9.40837 75.623C9.4086 75.6226 9.40884 75.6222 9.4091 75.6217C9.40961 75.6208 9.41018 75.6198 9.4108 75.6186C9.41205 75.6164 9.41352 75.6137 9.41521 75.6106C9.41859 75.6045 9.42284 75.5968 9.4279 75.5875C9.43803 75.569 9.45145 75.5442 9.46776 75.5138C9.50033 75.4531 9.54469 75.3692 9.59748 75.2666C9.70232 75.0626 9.84418 74.7771 9.99449 74.4458C10.2647 73.8502 10.6793 72.8567 10.846 71.8719L4.93013 70.8707C4.89977 71.05 4.76271 71.4551 4.53051 71.9669C4.42961 72.1893 4.33258 72.3847 4.26133 72.5233C4.22608 72.5919 4.1981 72.6447 4.18033 72.6778C4.17147 72.6943 4.16524 72.7058 4.16199 72.7117C4.16037 72.7147 4.1595 72.7163 4.15944 72.7164C4.1594 72.7164 4.15957 72.7161 4.15995 72.7154C4.16014 72.7151 4.16038 72.7147 4.16067 72.7141C4.16082 72.7139 4.16098 72.7136 4.16115 72.7133C4.16124 72.7131 4.16137 72.7129 4.16142 72.7128C4.16156 72.7125 4.16171 72.7123 6.78472 74.1682ZM9.27294 70.951C9.32425 70.9239 9.24357 70.9717 8.9521 71.0296C8.68989 71.0817 8.37506 71.1192 8.04497 71.1428C7.72111 71.1659 7.42252 71.1727 7.20453 71.1735C7.09692 71.1739 7.01244 71.1728 6.95848 71.1718C6.93158 71.1713 6.91252 71.1708 6.90224 71.1705C6.89711 71.1703 6.89419 71.1702 6.89361 71.1702C6.89332 71.1702 6.89361 71.1702 6.89451 71.1702C6.89495 71.1702 6.89555 71.1703 6.8963 71.1703C6.89668 71.1703 6.89709 71.1703 6.89754 71.1703C6.89777 71.1704 6.89813 71.1704 6.89825 71.1704C6.89862 71.1704 6.89901 71.1704 6.78472 74.1682C6.67043 77.166 6.67083 77.1661 6.67125 77.1661C6.6714 77.1661 6.67183 77.1661 6.67214 77.1661C6.67275 77.1661 6.6734 77.1662 6.6741 77.1662C6.67548 77.1662 6.67704 77.1663 6.67876 77.1664C6.68219 77.1665 6.68628 77.1666 6.69101 77.1668C6.70046 77.1671 6.71248 77.1675 6.72694 77.1679C6.75584 77.1688 6.79456 77.1698 6.84211 77.1707C6.93703 77.1725 7.06804 77.1741 7.22689 77.1735C7.54182 77.1723 7.98002 77.1626 8.4716 77.1276C9.29992 77.0685 10.8409 76.9094 12.0786 76.2546L9.27294 70.951ZM10.5747 69.7629C10.3772 69.9811 10.1124 70.2583 9.83495 70.5102C9.53049 70.7865 9.33489 70.9182 9.27295 70.951L12.0786 76.2546C13.3795 75.5664 14.5675 74.2926 15.0227 73.7898L10.5747 69.7629ZM21.6425 71.1771C19.3827 71.1771 16.7809 70.467 14.1838 69.1152L11.4137 74.4375C14.642 76.1177 18.1937 77.1771 21.6425 77.1771V71.1771Z" fill="currentColor" mask="url(#path-1-inside-1_2052_257)"/>
<path fill-rule="evenodd" clip-rule="evenodd" d="M41.2797 40.3024C29.2574 41.5255 20.4371 35.154 19.9564 24.7246C19.4757 14.2953 22.8957 3.71338 37.768 2.6599C47.7418 1.9534 61.4089 6.86716 61.8896 17.2965C62.7295 23.0471 59.5697 29.0811 54.9155 33.5309C54.8482 34.0972 54.7088 35.5567 54.921 36.5262C55.1716 37.6715 56.1537 39.2332 56.1537 39.2332C56.1537 39.2332 53.5234 39.5198 52.2332 38.9461C51.4374 38.5922 50.5263 37.7686 50.0276 37.2809C47.18 38.9993 44.1387 40.0999 41.2797 40.3024Z" fill="#347A3F"/>
<path d="M41.744 29.4065C41.0048 28.0338 39.3342 26.8526 39.3342 26.8526C39.3342 26.8526 41.8872 28.3262 42.8678 27.6506C43.6428 27.1166 43.9005 25.4052 43.9005 25.4052L45.3788 28.1506L48.0721 29.6297L46.3003 30.5024L46.3814 33.5352L44.5284 31.3751L39.5875 33.4078C39.5875 33.4078 42.5856 30.9694 41.744 29.4065Z" fill="#DFBD0A" stroke="#DFBD0A"/>
<path d="M16.7455 43.0687C21.2292 39.7647 22.7291 36.2472 28.2269 34.6082M14.5689 52.1567C22.9157 46.2717 26.6273 39.0032 35.9422 37.0873M24.8053 52.5926C24.8053 52.5926 28.2578 50.3577 29.8474 48.506C31.437 46.6543 34.8895 44.4194 34.8895 44.4194" stroke="#DFBD0A"/>
</svg>
