<svg viewBox="0 0 16 16" fill="none" xmlns="http://www.w3.org/2000/svg">
<path d="M5.33366 1.33594C2.73366 1.33594 0.666992 3.4026 0.666992 6.0026C0.666992 7.6026 1.46699 9.0026 2.66699 9.8026V11.3359C2.66699 11.7359 2.93366 12.0026 3.33366 12.0026H7.33366C7.73366 12.0026 8.00033 11.7359 8.00033 11.3359V9.8026C9.20033 8.93594 10.0003 7.53594 10.0003 6.0026C10.0003 3.4026 7.93366 1.33594 5.33366 1.33594ZM3.33366 14.0026C3.33366 14.4026 3.60033 14.6693 4.00033 14.6693H6.66699C7.06699 14.6693 7.33366 14.4026 7.33366 14.0026V13.3359H3.33366V14.0026ZM13.667 9.66927V10.6693H12.667V9.66927H13.667ZM12.3337 6.33594H11.3337V6.0026C11.3337 4.86927 12.2003 4.0026 13.3337 4.0026C14.467 4.0026 15.3337 4.86927 15.3337 6.0026C15.3337 6.66927 15.0003 7.26927 14.467 7.6026L14.267 7.73594C13.867 8.0026 13.667 8.4026 13.667 8.86927V9.0026H12.667V8.86927C12.667 8.06927 13.067 7.33594 13.7337 6.93594L13.9337 6.8026C14.2003 6.6026 14.3337 6.33594 14.3337 6.0026C14.3337 5.46927 13.867 5.0026 13.3337 5.0026C12.8003 5.0026 12.3337 5.46927 12.3337 6.0026V6.33594Z" fill="#347A3F"/>
</svg>
