<svg viewBox="0 0 55 65" fill="none" xmlns="http://www.w3.org/2000/svg">
<path d="M41.0551 46.0965C41.3033 45.2844 41.4299 44.4341 41.43 43.5783C41.4299 42.162 41.0834 40.7714 40.4262 39.5493C39.1055 37.0463 36.6555 35.501 34.0041 35.501C33.4817 35.501 32.9608 35.5611 32.45 35.6802C31.763 34.8375 30.9197 34.1629 29.9758 33.7009C29.0318 33.2389 28.0087 33 26.9737 33H26.9272L26.9098 33.0001C23.6984 33.0001 20.8504 35.2563 19.8632 38.5823C18.8413 38.8102 17.8759 39.2731 17.0316 39.9401C16.1874 40.6071 15.4837 41.4628 14.9678 42.4498C14.3125 43.6793 13.9672 45.0754 13.9668 46.4969C13.967 48.4946 14.6482 50.4212 15.8782 51.9035C15.6299 52.7156 15.5033 53.5659 15.5032 54.4217C15.5033 55.838 15.8498 57.2286 16.507 58.4507C17.2886 59.9323 18.4822 61.1054 19.9156 61.8007C21.3491 62.4961 22.9483 62.6778 24.4827 62.3197C25.1698 63.1624 26.0132 63.837 26.9572 64.299C27.9012 64.761 28.9245 64.9999 29.9595 65H30.006L30.0248 64.9999C33.238 64.9999 36.085 62.7436 37.0722 59.4145C38.0941 59.1866 39.0595 58.7236 39.9038 58.0566C40.7481 57.3896 41.4518 56.534 41.9678 55.547C42.6223 54.3186 42.967 52.9236 42.9668 51.5034C42.9666 49.5057 42.2854 47.5792 41.0554 46.0969L41.0551 46.0965ZM30.0078 62.908H30.0002C28.7145 62.9075 27.4696 62.4164 26.482 61.5201C26.5406 61.4857 26.5986 61.45 26.6558 61.4128L32.5079 57.7325C32.6539 57.642 32.7754 57.511 32.8599 57.3529C32.9444 57.1947 32.9889 57.015 32.9889 56.8321V47.8433L35.4625 49.3983C35.4755 49.4054 35.4866 49.4158 35.495 49.4287C35.5034 49.4416 35.5088 49.4565 35.5106 49.4722V56.911C35.5072 60.2184 33.0457 62.9013 30.0078 62.908ZM18.1738 57.4051C17.6904 56.4951 17.4358 55.4625 17.4354 54.4112C17.4354 54.0684 17.4629 53.7246 17.5165 53.3868C17.56 53.4152 17.6359 53.4657 17.6904 53.4997L23.5425 57.1801C23.6884 57.2728 23.8543 57.3217 24.0233 57.3216C24.1922 57.3216 24.3581 57.2726 24.504 57.1798L31.6488 52.6882V55.7983L31.6489 55.8037C31.6489 55.8187 31.6457 55.8334 31.6395 55.8468C31.6334 55.8602 31.6244 55.8719 31.6135 55.8809L25.6975 59.5998C24.8605 60.1243 23.9116 60.4005 22.9458 60.4008C21.979 60.4006 21.0292 60.1238 20.1916 59.5979C19.3541 59.0721 18.6582 58.3157 18.1738 57.4047V57.4051ZM16.6343 43.4955C17.277 42.28 18.2919 41.3493 19.5013 40.8663C19.5013 40.9212 19.4984 41.0184 19.4984 41.0858V48.4466L19.4983 48.4526C19.4984 48.6354 19.5428 48.8149 19.6272 48.9729C19.7115 49.1309 19.8328 49.2618 19.9786 49.3523L27.1234 53.8433L24.65 55.3983C24.6378 55.407 24.6238 55.4124 24.6092 55.4138C24.5947 55.4152 24.58 55.4128 24.5666 55.4065L18.65 51.6845C17.8137 51.157 17.1193 50.3994 16.6366 49.4877C16.1538 48.5759 15.8997 47.542 15.8996 46.4896C15.8999 45.4389 16.1534 44.4066 16.6346 43.4958L16.6343 43.4955ZM36.9568 48.6445L29.812 44.1529L32.2856 42.5985C32.2977 42.5897 32.3118 42.5844 32.3263 42.5829C32.3409 42.5815 32.3555 42.584 32.369 42.5902L38.2854 46.3091C39.1225 46.8358 39.8176 47.593 40.3009 48.5047C40.7842 49.4163 41.0387 50.4504 41.039 51.503C41.039 54.0154 39.599 56.2635 37.4339 57.1312V49.5504C37.4342 49.5476 37.4342 49.5447 37.4342 49.5419C37.4342 49.3598 37.39 49.1809 37.3062 49.0234C37.2224 48.8658 37.1018 48.7351 36.9568 48.6445ZM39.4187 44.6102C39.3612 44.5718 39.3033 44.5342 39.2449 44.4974L33.3928 40.8169C33.2469 40.7244 33.0811 40.6756 32.9122 40.6755C32.7433 40.6756 32.5775 40.7244 32.4316 40.8169L25.2867 45.3086V42.1984L25.2866 42.1931C25.2866 42.1627 25.2998 42.1341 25.3221 42.1159L31.238 38.4001C32.0748 37.8749 33.0237 37.5984 33.9896 37.5983C37.0314 37.5983 39.4981 40.284 39.4981 43.5958C39.498 43.9357 39.4714 44.2749 39.4187 44.6099V44.6102ZM23.9419 50.1534L21.4678 48.5984C21.4548 48.5914 21.4437 48.581 21.4353 48.5681C21.4269 48.5552 21.4215 48.5403 21.4197 48.5246V41.0856C21.421 37.7756 23.8878 35.0921 26.9283 35.0921C28.216 35.0924 29.463 35.5836 30.4528 36.4804C30.4083 36.5068 30.3306 36.5535 30.279 36.5876L24.4269 40.2679C24.2809 40.3584 24.1595 40.4893 24.075 40.6474C23.9905 40.8055 23.946 40.9851 23.946 41.1681V41.174L23.9419 50.1534ZM25.2856 46.9993L28.4677 44.9982L31.6499 46.998V50.9988L28.4677 52.9987L25.2856 50.9988V46.9993Z" fill="#347A3F"/>
<path d="M42.175 20.2785C42.175 20.2785 38.9719 14.3277 28.7165 13.3642C18.4611 12.4006 13.0985 19.4233 11.9912 21.1981" stroke="#DFBD0A" stroke-width="2"/>
<path d="M53.8395 14.9862C53.8395 14.9862 48.2604 4.29226 30.3134 2.60601C12.3664 0.919767 2.94692 13.5826 1.0004 16.7816" stroke="#DFBD0A" stroke-width="2"/>
</svg>
