<svg width="64" height="64" viewBox="0 0 64 64" fill="none" xmlns="http://www.w3.org/2000/svg">
<path d="M41.7772 41.9496C42.1395 41.2256 42.3918 40.4467 42.5245 39.6426C42.7438 38.312 42.6291 36.951 42.1922 35.6996C41.3218 33.1406 39.2272 31.3039 36.7012 30.8875C36.2036 30.8055 35.6981 30.7801 35.193 30.8118C34.6691 29.9121 33.9702 29.1459 33.1425 28.5635C32.3148 27.9812 31.3771 27.5961 30.3911 27.4335L30.3468 27.4262L30.3302 27.4236C27.2708 26.9192 24.2082 28.5916 22.7526 31.5615C21.7438 31.6151 20.7524 31.8984 19.8447 32.3924C18.9371 32.8864 18.1342 33.5798 17.4898 34.4261C16.6752 35.4784 16.1299 36.7358 15.9094 38.0713C15.6002 39.9482 15.9506 41.8652 16.8928 43.4511C16.5305 44.1751 16.2782 44.954 16.1455 45.7581C15.9262 47.0887 16.0409 48.4497 16.4777 49.7012C16.9928 51.2159 17.9482 52.5055 19.206 53.3839C20.4639 54.2623 21.9593 54.6842 23.4766 54.5888C24.0006 55.4885 24.6995 56.2547 25.5273 56.8371C26.3551 57.4194 27.2928 57.8046 28.2788 57.9672L28.3231 57.9745L28.3411 57.9774C31.4021 58.482 34.4639 56.8094 35.92 53.8367C36.9288 53.783 37.9202 53.4997 38.8279 53.0056C39.7355 52.5116 40.5384 51.8182 41.1829 50.9719C41.9967 49.9206 42.5411 48.6641 42.7609 47.3298C43.0701 45.4529 42.7197 43.5359 41.7774 41.9501L41.7772 41.9496ZM28.6489 56.0093L28.6417 56.0081C27.4169 55.8057 26.307 55.1488 25.505 54.1516C25.5662 54.1285 25.627 54.104 25.6872 54.0781L31.8323 51.5395C31.9855 51.4774 32.1214 51.3734 32.2264 51.2381C32.3314 51.1028 32.4017 50.9409 32.4301 50.769L33.8224 42.3239L35.938 44.1734C35.9492 44.1821 35.9583 44.1936 35.9643 44.207C35.9703 44.2204 35.9731 44.2353 35.9724 44.2503L34.8201 51.2393C34.3046 54.3461 31.544 56.4801 28.6489 56.0093ZM18.2276 48.9805C17.908 48.0496 17.8254 47.0395 17.9879 46.0518C18.041 45.7296 18.1205 45.411 18.2238 45.102C18.2609 45.1355 18.3254 45.1949 18.372 45.2354L23.377 49.6123C23.5016 49.7224 23.6521 49.7943 23.813 49.8208C23.974 49.8473 24.1396 49.8274 24.2929 49.7631L31.7952 46.6653L31.3134 49.5873L31.3127 49.5924C31.3104 49.6065 31.3051 49.6198 31.2971 49.6315C31.2892 49.6431 31.2789 49.6526 31.267 49.6594L25.0552 52.2242C24.1765 52.5855 23.2298 52.696 22.3096 52.5446C21.3886 52.3926 20.5267 51.9833 19.8102 51.3577C19.0938 50.7321 18.548 49.9122 18.2276 48.9802L18.2276 48.9805ZM18.9155 35.6703C19.7161 34.6293 20.8271 33.9143 22.054 33.6505C22.0455 33.702 22.0277 33.7929 22.0173 33.8563L20.8771 40.7719L20.8761 40.7775C20.8478 40.9492 20.8623 41.1249 20.9182 41.2866C20.9741 41.4483 21.0694 41.5903 21.1943 41.6982L27.3052 47.0398L24.708 48.1122C24.695 48.1185 24.6809 48.1214 24.6668 48.1204C24.6527 48.1195 24.6391 48.1149 24.6272 48.1069L19.5674 43.6807C18.8523 43.0537 18.3081 42.2329 17.9895 41.3005C17.6708 40.368 17.5889 39.3568 17.7518 38.368C17.9149 37.3809 18.3162 36.4508 18.9157 35.6707L18.9155 35.6703ZM37.4783 43.6998L31.3675 38.3578L33.9647 37.2858C33.9777 37.2795 33.9919 37.2767 34.0059 37.2776C34.02 37.2785 34.0336 37.2832 34.0455 37.2911L39.1057 41.7144C39.8216 42.3407 40.3665 43.1613 40.6857 44.0937C41.0049 45.0261 41.0873 46.0376 40.9244 47.0266C40.5352 49.3871 38.8153 51.2731 36.6183 51.7483L37.7925 44.6259C37.7933 44.6233 37.7937 44.6206 37.7941 44.618C37.8223 44.4469 37.8079 44.2719 37.7525 44.1107C37.697 43.9495 37.6024 43.8078 37.4783 43.6998ZM40.4486 40.2962C40.3997 40.2511 40.3503 40.2067 40.3005 40.1629L35.2955 35.7859C35.1709 35.676 35.0204 35.6041 34.8596 35.5775C34.6987 35.5511 34.5331 35.5709 34.3798 35.6349L26.8774 38.7327L27.3592 35.8107L27.3599 35.8056C27.3646 35.7771 27.3816 35.7523 27.4057 35.7387L33.6171 33.1768C34.4956 32.8148 35.4424 32.704 36.3626 32.8557C39.2604 33.3334 41.1943 36.2441 40.6814 39.3556C40.6286 39.6749 40.5507 39.9895 40.4486 40.2959L40.4486 40.2962ZM24.8458 43.0734L22.7298 41.2238C22.7185 41.2152 22.7094 41.2036 22.7034 41.1902C22.6974 41.1768 22.6947 41.1619 22.6954 41.1469L23.8476 34.1578C24.3616 31.0482 27.1272 28.9145 30.0238 29.392C31.2505 29.5945 32.3623 30.2518 33.1664 31.2498C33.1199 31.2677 33.0387 31.2994 32.9842 31.3233L26.8391 33.8619C26.686 33.924 26.5501 34.0279 26.4451 34.1632C26.3401 34.2984 26.2699 34.4602 26.2415 34.632L26.2406 34.6376L24.8458 43.0734ZM26.6145 40.321L29.9559 38.9408L32.6777 41.3194L32.058 45.0783L28.7167 46.4574L25.9949 44.0787L26.6145 40.321Z" fill="#347A3F"/>
<path fill-rule="evenodd" clip-rule="evenodd" d="M29.1822 1.00378C38.0801 1.12412 46.6919 4.11432 53.742 9.51496C54.1804 9.85081 54.2477 10.4814 53.9013 10.9116L53.447 11.4758C53.0955 11.9124 52.4546 11.9738 52.0159 11.6249C45.595 6.51753 37.4656 3.46603 28.6236 3.46603C20.1561 3.46603 12.3422 6.2645 6.05633 10.987C5.60836 11.3236 4.96972 11.2448 4.63025 10.799L4.20415 10.2395C3.86955 9.80008 3.95387 9.17153 4.40122 8.84765C11.5948 3.63965 20.2843 0.883441 29.1822 1.00378Z" fill="#DFBD0A"/>
<path fill-rule="evenodd" clip-rule="evenodd" d="M29.4991 10.8617C34.9522 10.9355 40.2338 12.7287 44.5969 15.9723C45.0401 16.3018 45.107 16.9331 44.7606 17.3632L44.6236 17.5334C44.2781 17.9626 43.6519 18.0295 43.207 17.7045C39.4374 14.9507 34.7912 13.3254 29.7654 13.3254C24.6326 13.3254 19.8958 15.0207 16.0843 17.8819C15.6306 18.2225 14.9818 18.149 14.638 17.6976L14.0673 16.9481C13.7327 16.5087 13.8166 15.8796 14.2685 15.5622C18.7178 12.4377 24.046 10.788 29.4991 10.8617Z" fill="#DFBD0A"/>
</svg>
