<svg class="icon" viewBox="0 0 100 100" xmlns="http://www.w3.org/2000/svg" aria-hidden="true" role="img"><g fill="#212121"><path d="M50 5.73a45.39 45.39 0 00-14.35 88.46c2.27.42 3.1-1 3.1-2.18s0-4.66-.06-8.46C26.06 86.3 23.4 78.2 23.4 78.2c-2.07-5.25-5-6.64-5-6.64-4.12-2.82.31-2.76.31-2.76 4.56.32 7 4.68 7 4.68 4.05 6.94 10.62 4.93 13.21 3.77a9.62 9.62 0 012.88-6.07C31.64 70 21 66.14 21 48.75a17.53 17.53 0 014.68-12.18c-.48-1.15-2-5.76.43-12 0 0 3.82-1.22 12.49 4.65a43 43 0 0122.73 0c8.66-5.87 12.47-4.65 12.47-4.65 2.47 6.25.92 10.86.44 12A17.48 17.48 0 0179 48.75C79 66.18 68.34 70 58.23 71.14c1.63 1.41 3.08 4.18 3.08 8.41 0 6.07-.05 11-.05 12.46 0 1.2.81 2.62 3.11 2.17A45.39 45.39 0 0050 5.73z" fill-rule="evenodd"/><path d="M21.8 70.9c-.1.23-.45.29-.77.14s-.52-.46-.41-.68.45-.3.78-.15.52.46.4.69zm-.56-.41M23.64 73c-.21.2-.64.11-.93-.21s-.35-.74-.13-.94a.7.7 0 01.93.21c.3.32.36.74.13.94zm-.43-.46M25.43 75.56c-.28.2-.73 0-1-.39s-.28-.89 0-1.08.73 0 1 .38.28.9 0 1.09zm0 0M27.88 78.09a.85.85 0 01-1.16-.17c-.4-.37-.51-.89-.26-1.16s.78-.2 1.17.17.52.89.25 1.16zm0 0M31.26 79.56c-.11.35-.62.51-1.13.36s-.85-.57-.74-.93.61-.53 1.13-.36.85.56.74.93zm0 0M35 79.83c0 .37-.42.68-1 .69s-1-.29-1-.66.43-.68 1-.69 1 .29 1 .66zm0 0M38.44 79.24c.06.36-.31.74-.85.84s-1-.13-1.08-.49.31-.75.84-.85 1 .13 1.09.5zm0 0"/></g></svg>
