<svg class="icon" viewBox="0 0 100 100" xmlns="http://www.w3.org/2000/svg" aria-hidden="true" role="img"><g fill="#212121" fill-rule="evenodd"><path d="M93.89 51a40.7 40.7 0 00-.89-9.11H50.78v17.33H75a21.09 21.09 0 01-8.89 13.56v11.33h14.45C89 76.33 93.89 64.78 93.89 51z"/><path d="M51 95c12 0 22.22-4 29.78-10.89L66.11 72.78A27 27 0 0151 77a26.55 26.55 0 01-25.11-18.44H11v11.55A44.52 44.52 0 0051 95z"/><path d="M26.08 58.56a27.28 27.28 0 010-16.89V29.89H11.19A43.86 43.86 0 006.3 50.11 47.39 47.39 0 0011 70.33z"/><path d="M51.4 23a24 24 0 0117.11 6.67L81.4 16.78A42.88 42.88 0 0051.4 5a45.5 45.5 0 00-40.22 24.89l14.89 11.55C29.84 31 39.62 23 51.4 23z"/></g></svg>
