<svg class="icon" viewBox="0 0 100 100" xmlns="http://www.w3.org/2000/svg" aria-hidden="true" role="img"><g fill-rule="evenodd"><path d="M93.89 51a40.7 40.7 0 00-.89-9.11H50.78v17.33H75a21.09 21.09 0 01-8.89 13.56v11.33h14.45C89 76.33 93.89 64.78 93.89 51z" fill="#4285f4"/><path d="M51 95c12 0 22.22-4 29.78-10.89L66.11 72.78A27 27 0 0151 77a26.55 26.55 0 01-25.11-18.44H11v11.55A44.52 44.52 0 0051 95z" fill="#34a853"/><path d="M25.89 58.56a27.48 27.48 0 010-16.89V29.89H11a43.86 43.86 0 00-4.89 20.22 47.39 47.39 0 004.67 20.22z" fill="#fbbc05"/><path d="M51 23a24 24 0 0117.11 6.67L81 16.78A42.88 42.88 0 0051 5a45.5 45.5 0 00-40.22 24.89l14.89 11.55C29.44 31 39.22 23 51 23z" fill="#ea4335"/></g></svg>
