<svg xmlns="http://www.w3.org/2000/svg" width="79.301" height="98" fill="none"><g fill="#666"><path fill-rule="evenodd" d="M30.3 6a42.823 42.823 0 0 0-26.616 9.226A59.307 59.307 0 0 0 0 10.489 48.786 48.786 0 0 1 30.3 0c27.063 0 49 21.938 49 49s-21.937 49-49 49A48.786 48.786 0 0 1 0 87.511a59.307 59.307 0 0 0 3.684-4.737A42.823 42.823 0 0 0 30.3 92c23.748 0 43-19.252 43-43S54.049 6 30.3 6Z" clip-rule="evenodd"/><path d="m38.633 48.5 9.667-9.667L43.467 34 33.8 43.667 24.134 34 19.3 38.834l9.666 9.666-9.666 9.666 4.833 4.833 9.666-9.666 9.666 9.666 4.834-4.833z"/></g></svg>