<svg xmlns="http://www.w3.org/2000/svg" fill="none" viewBox="0 0 100 100"><g clip-path="url(#a)" transform="translate(-100 -100)"><path fill="#fff" d="M150.001 174.999c13.808 0 25.001-11.194 25.001-25.002 0-13.808-11.193-25.001-25.001-25.001-13.808 0-25.001 11.193-25.001 25.001 0 13.808 11.193 25.002 25.001 25.002z"/><path fill="#229342" d="m128.349 162.504-21.648-37.496a49.994 49.994 0 0 0 18.302 68.299A49.981 49.981 0 0 0 150.004 200l21.648-37.496v-.006a24.992 24.992 0 0 1-34.152 9.16 24.989 24.989 0 0 1-9.151-9.153z"/><path fill="#fbc116" d="m171.651 162.502-21.648 37.496A49.984 49.984 0 0 0 193.304 175a49.995 49.995 0 0 0-.008-50h-43.297l-.005.004a24.995 24.995 0 0 1 21.657 37.499z"/><path fill="#1a73e8" d="M150.001 169.796c10.931 0 19.793-8.862 19.793-19.793 0-10.932-8.862-19.793-19.793-19.793s-19.793 8.861-19.793 19.793c0 10.931 8.862 19.793 19.793 19.793z"/><path fill="#e33b2e" d="M150.001 125.002h43.296a49.99 49.99 0 0 0-86.596.005l21.649 37.496.005.004a25.004 25.004 0 0 1-.008-25.005 24.996 24.996 0 0 1 21.655-12.501z"/></g><defs><clipPath id="a"><path fill="#fff" d="M100 100h100v100H100z"/></clipPath></defs></svg>