<svg xmlns="http://www.w3.org/2000/svg" fill="none" viewBox="0 0 100 99.957"><g clip-path="url(#a)" transform="translate(-100 -300)"><path fill="url(#b)" d="M190.273 374.414a36.57 36.57 0 0 1-4.14 1.836 39.793 39.793 0 0 1-14.024 2.5c-18.476 0-34.57-12.695-34.57-29.023a12.307 12.307 0 0 1 6.406-10.665c-16.718.704-21.015 18.126-21.015 28.321 0 28.906 26.601 31.797 32.343 31.797 3.086 0 7.735-.899 10.547-1.797l.508-.156a50.122 50.122 0 0 0 26.016-20.625 1.565 1.565 0 0 0-2.071-2.188z" style="fill:url(#b)"/><path fill="url(#c)" d="M190.273 374.414a36.57 36.57 0 0 1-4.14 1.836 39.793 39.793 0 0 1-14.024 2.5c-18.476 0-34.57-12.695-34.57-29.023a12.307 12.307 0 0 1 6.406-10.665c-16.718.704-21.015 18.126-21.015 28.321 0 28.906 26.601 31.797 32.343 31.797 3.086 0 7.735-.899 10.547-1.797l.508-.156a50.122 50.122 0 0 0 26.016-20.625 1.565 1.565 0 0 0-2.071-2.188z" opacity=".35" style="fill:url(#c)"/><path fill="url(#d)" d="M141.289 394.258a30.949 30.949 0 0 1-8.867-8.32 31.524 31.524 0 0 1 11.523-46.875c1.25-.586 3.321-1.602 6.094-1.563a12.655 12.655 0 0 1 10.039 5.078 12.463 12.463 0 0 1 2.461 7.305c0-.078 9.57-31.094-31.25-31.094-17.148 0-31.25 16.25-31.25 30.547a50.849 50.849 0 0 0 4.727 21.875 49.998 49.998 0 0 0 61.093 26.172 29.498 29.498 0 0 1-24.531-3.125z" style="fill:url(#d)"/><path fill="url(#e)" d="M141.289 394.258a30.949 30.949 0 0 1-8.867-8.32 31.524 31.524 0 0 1 11.523-46.875c1.25-.586 3.321-1.602 6.094-1.563a12.655 12.655 0 0 1 10.039 5.078 12.463 12.463 0 0 1 2.461 7.305c0-.078 9.57-31.094-31.25-31.094-17.148 0-31.25 16.25-31.25 30.547a50.849 50.849 0 0 0 4.727 21.875 49.998 49.998 0 0 0 61.093 26.172 29.498 29.498 0 0 1-24.531-3.125z" opacity=".41" style="fill:url(#e)"/><path fill="url(#f)" d="M159.531 358.125c-.351.391-1.328.977-1.328 2.187 0 1.016.664 2.032 1.875 2.852 5.586 3.906 16.172 3.359 16.211 3.359a23.272 23.272 0 0 0 11.836-3.242A23.98 23.98 0 0 0 200 342.617c.117-8.75-3.125-14.57-4.414-17.148C187.266 309.297 169.414 300 150 300a50.002 50.002 0 0 0-50 49.297c.195-14.258 14.375-25.781 31.25-25.781 1.367 0 9.18.117 16.406 3.906a28.36 28.36 0 0 1 12.071 11.445c2.382 4.141 2.812 9.414 2.812 11.524 0 2.109-1.055 5.195-3.047 7.773z" style="fill:url(#f)"/><path fill="url(#g)" d="M159.531 358.125c-.351.391-1.328.977-1.328 2.187 0 1.016.664 2.032 1.875 2.852 5.586 3.906 16.172 3.359 16.211 3.359a23.272 23.272 0 0 0 11.836-3.242A23.98 23.98 0 0 0 200 342.617c.117-8.75-3.125-14.57-4.414-17.148C187.266 309.297 169.414 300 150 300a50.002 50.002 0 0 0-50 49.297c.195-14.258 14.375-25.781 31.25-25.781 1.367 0 9.18.117 16.406 3.906a28.36 28.36 0 0 1 12.071 11.445c2.382 4.141 2.812 9.414 2.812 11.524 0 2.109-1.055 5.195-3.047 7.773z" style="fill:url(#g)"/></g><defs><radialGradient id="c" cx="0" cy="0" r="1" gradientTransform="matrix(37.2656 0 0 35.4023 161.406 369.666)" gradientUnits="userSpaceOnUse"><stop offset=".7" stop-opacity="0"/><stop offset=".9" stop-opacity=".5"/><stop offset="1"/></radialGradient><radialGradient id="e" cx="0" cy="0" r="1" gradientTransform="matrix(8.39058 -55.37816 44.73998 6.77875 127.561 377.71)" gradientUnits="userSpaceOnUse"><stop offset=".8" stop-opacity="0"/><stop offset=".9" stop-opacity=".5"/><stop offset="1"/></radialGradient><radialGradient id="f" cx="0" cy="0" r="1" gradientTransform="matrix(-3.16249 79.06248 -168.38635 -6.73542 110.113 318.483)" gradientUnits="userSpaceOnUse"><stop stop-color="#35C1F1"/><stop offset=".1" stop-color="#34C1ED"/><stop offset=".2" stop-color="#2FC2DF"/><stop offset=".3" stop-color="#2BC3D2"/><stop offset=".7" stop-color="#36C752"/></radialGradient><radialGradient id="g" cx="0" cy="0" r="1" gradientTransform="matrix(10.64218 36.48749 -29.67168 8.65424 193.773 330.195)" gradientUnits="userSpaceOnUse"><stop stop-color="#66EB6E"/><stop offset="1" stop-color="#66EB6E" stop-opacity="0"/></radialGradient><linearGradient id="b" x1="122.93" x2="192.617" y1="369.141" y2="369.141" gradientUnits="userSpaceOnUse"><stop stop-color="#0C59A4"/><stop offset="1" stop-color="#114A8B"/></linearGradient><linearGradient id="d" x1="159.648" x2="116.172" y1="338.906" y2="386.289" gradientUnits="userSpaceOnUse"><stop stop-color="#1B9DE2"/><stop offset=".2" stop-color="#1595DF"/><stop offset=".7" stop-color="#0680D7"/><stop offset="1" stop-color="#0078D4"/></linearGradient><clipPath id="a"><path fill="#fff" d="M100 300h100v100H100z"/></clipPath></defs></svg>