<svg xmlns="http://www.w3.org/2000/svg" fill="none" viewBox="0 0 100 102.991"><g clip-path="url(#a)" transform="translate(-100 -500)"><path fill="url(#b)" d="M196.375 534.585c-2.175-5.22-6.587-10.855-10.042-12.637a51.752 51.752 0 0 1 5.069 15.149l.009.084c-5.659-14.067-15.254-19.748-23.094-32.102-.396-.625-.793-1.251-1.179-1.911a15.483 15.483 0 0 1-.551-1.031 9.027 9.027 0 0 1-.747-1.977.13.13 0 0 0-.114-.129.167.167 0 0 0-.094 0c-.006 0-.017.011-.024.014-.008.003-.025.014-.037.019l.02-.033c-12.574 7.343-16.843 20.933-17.23 27.734a25.086 25.086 0 0 0-13.782 5.296 14.975 14.975 0 0 0-1.292-.976 23.088 23.088 0 0 1-.14-12.203 37.051 37.051 0 0 0-12.05 9.288h-.023c-1.984-2.509-1.844-10.779-1.731-12.506a8.935 8.935 0 0 0-1.671.885 36.321 36.321 0 0 0-4.893 4.18 43.551 43.551 0 0 0-4.679 5.6v.007-.009a42.122 42.122 0 0 0-6.717 15.124l-.067.33c-.094.439-.434 2.639-.492 3.117 0 .037-.008.072-.012.109a47.539 47.539 0 0 0-.812 6.883v.258a49.86 49.86 0 0 0 13.221 33.719 50.12 50.12 0 0 0 32.593 15.943 50.157 50.157 0 0 0 34.827-10.216 49.912 49.912 0 0 0 18.749-31.003c.084-.645.152-1.282.227-1.933a51.224 51.224 0 0 0-3.247-25.081zm-57.696 39.084c.233.112.453.233.693.34l.035.022a25.912 25.912 0 0 1-.728-.362zm52.734-36.474v-.048l.009.053z" style="fill:url(#b)"/><path fill="url(#c)" d="M196.375 534.585c-2.175-5.22-6.587-10.855-10.042-12.637a51.782 51.782 0 0 1 5.069 15.149v.048l.009.053a45.106 45.106 0 0 1-1.557 33.698c-5.738 12.278-19.62 24.862-41.358 24.244-23.481-.663-44.173-18.047-48.035-40.81-.704-3.59 0-5.41.354-8.328a37.133 37.133 0 0 0-.805 6.889v.258a49.855 49.855 0 0 0 13.222 33.719 50.11 50.11 0 0 0 32.593 15.943 50.156 50.156 0 0 0 34.826-10.216 49.905 49.905 0 0 0 18.749-31.003c.084-.644.152-1.282.227-1.932a51.221 51.221 0 0 0-3.247-25.081z" style="fill:url(#c)"/><path fill="url(#d)" d="M196.375 534.585c-2.175-5.22-6.587-10.855-10.042-12.637a51.782 51.782 0 0 1 5.069 15.149v.048l.009.053a45.106 45.106 0 0 1-1.557 33.698c-5.738 12.278-19.62 24.862-41.358 24.244-23.481-.663-44.173-18.047-48.035-40.81-.704-3.59 0-5.41.354-8.328a37.133 37.133 0 0 0-.805 6.889v.258a49.855 49.855 0 0 0 13.222 33.719 50.11 50.11 0 0 0 32.593 15.943 50.156 50.156 0 0 0 34.826-10.216 49.905 49.905 0 0 0 18.749-31.003c.084-.644.152-1.282.227-1.932a51.221 51.221 0 0 0-3.247-25.081z" style="fill:url(#d)"/><path fill="url(#e)" d="M172.041 540.446c.108.076.209.152.311.228a27.168 27.168 0 0 0-4.65-6.048c-15.564-15.522-4.077-33.647-2.141-34.575l.019-.028c-12.574 7.343-16.842 20.933-17.23 27.735.584-.04 1.163-.089 1.759-.089a25.31 25.31 0 0 1 12.693 3.439 25.229 25.229 0 0 1 9.239 9.336z" style="fill:url(#e)"/><path fill="url(#f)" d="M150.135 543.551c-.082 1.242-4.482 5.525-6.02 5.525-14.234 0-16.546 8.588-16.546 8.588.631 7.232 5.683 13.191 11.792 16.334.279.145.561.275.844.402.49.217.98.417 1.47.601a22.343 22.343 0 0 0 6.514 1.253c24.954 1.167 29.784-29.757 11.778-38.736a17.321 17.321 0 0 1 12.07 2.923 25.229 25.229 0 0 0-9.239-9.336 25.317 25.317 0 0 0-12.693-3.439c-.594 0-1.175.049-1.759.089a25.082 25.082 0 0 0-13.781 5.296c.763.644 1.625 1.504 3.439 3.289 3.397 3.337 12.109 6.795 12.129 7.201z" style="fill:url(#f)"/><path fill="url(#g)" d="M150.135 543.551c-.082 1.242-4.482 5.525-6.02 5.525-14.234 0-16.546 8.588-16.546 8.588.631 7.232 5.683 13.191 11.792 16.334.279.145.561.275.844.402.49.217.98.417 1.47.601a22.343 22.343 0 0 0 6.514 1.253c24.954 1.167 29.784-29.757 11.778-38.736a17.321 17.321 0 0 1 12.07 2.923 25.229 25.229 0 0 0-9.239-9.336 25.317 25.317 0 0 0-12.693-3.439c-.594 0-1.175.049-1.759.089a25.082 25.082 0 0 0-13.781 5.296c.763.644 1.625 1.504 3.439 3.289 3.397 3.337 12.109 6.795 12.129 7.201z" style="fill:url(#g)"/><path fill="url(#h)" d="M132.233 531.403c.406.258.741.482 1.034.684a23.088 23.088 0 0 1-.141-12.203 37.065 37.065 0 0 0-12.05 9.288c.245-.006 7.506-.136 11.157 2.231z" style="fill:url(#h)"/><path fill="url(#i)" d="M100.452 554.333c3.863 22.762 24.554 40.153 48.035 40.809 21.738.614 35.623-11.972 41.358-24.243a45.108 45.108 0 0 0 1.557-33.699v-.048c0-.037-.008-.059 0-.047l.009.083c1.776 11.564-4.121 22.763-13.342 30.35l-.028.064c-17.967 14.596-35.158 8.804-38.633 6.441a25.897 25.897 0 0 1-.728-.362c-10.474-4.993-14.802-14.505-13.872-22.672a12.875 12.875 0 0 1-7.035-1.967 12.829 12.829 0 0 1-4.823-5.472 18.932 18.932 0 0 1 18.405-.737 24.987 24.987 0 0 0 18.793.737c-.019-.406-8.731-3.864-12.128-7.201-1.815-1.784-2.676-2.643-3.44-3.289a14.96 14.96 0 0 0-1.291-.976c-.297-.202-.632-.421-1.034-.684-3.651-2.368-10.912-2.238-11.153-2.231h-.023c-1.984-2.508-1.844-10.778-1.731-12.506a8.935 8.935 0 0 0-1.671.885 36.528 36.528 0 0 0-4.893 4.18 43.599 43.599 0 0 0-4.699 5.587 42.103 42.103 0 0 0-6.716 15.122c-.025.102-1.803 7.857-.926 11.878z" style="fill:url(#i)"/><path fill="url(#j)" d="M167.701 534.624a27.172 27.172 0 0 1 4.65 6.054c.275.208.532.414.75.613 11.35 10.435 5.403 25.184 4.96 26.228 9.22-7.576 15.112-18.782 13.343-30.35-5.663-14.08-15.267-19.761-23.095-32.114-.396-.625-.793-1.251-1.179-1.912a15.234 15.234 0 0 1-.551-1.03 9.086 9.086 0 0 1-.747-1.978.13.13 0 0 0-.114-.129.187.187 0 0 0-.094 0c-.006 0-.017.012-.024.015-.008.002-.025.014-.036.019-1.937.916-13.42 19.052 2.144 34.562z" style="fill:url(#j)"/><path fill="url(#k)" d="M173.1 541.297c-.218-.2-.475-.406-.75-.614-.102-.076-.203-.152-.312-.228a17.32 17.32 0 0 0-12.07-2.923c18.005 8.979 13.175 39.895-11.778 38.736a22.316 22.316 0 0 1-6.514-1.253c-.49-.183-.98-.383-1.469-.601a17.102 17.102 0 0 1-.845-.402l.035.022c3.479 2.369 20.666 8.157 38.632-6.441l.028-.064c.448-1.043 6.395-15.793-4.96-26.227z" style="fill:url(#k)"/><path fill="url(#l)" d="M127.571 557.656s2.31-8.588 16.545-8.588c1.539 0 5.942-4.283 6.02-5.525a24.987 24.987 0 0 1-18.793-.737 18.929 18.929 0 0 0-18.405.737 12.824 12.824 0 0 0 4.824 5.472 12.872 12.872 0 0 0 7.034 1.967c-.927 8.164 3.4 17.674 13.872 22.672.234.112.454.234.694.34-6.113-3.149-11.161-9.106-11.791-16.334z" style="fill:url(#l)"/><path fill="url(#m)" d="M196.372 534.561c-2.175-5.22-6.587-10.856-10.042-12.638a51.79 51.79 0 0 1 5.07 15.15l.009.083c-5.66-14.067-15.254-19.748-23.094-32.101a59.521 59.521 0 0 1-1.179-1.912 15.748 15.748 0 0 1-.552-1.03 9.086 9.086 0 0 1-.747-1.978.13.13 0 0 0-.113-.129.191.191 0 0 0-.095 0c-.006 0-.016.012-.024.015-.008.002-.025.014-.036.019l.019-.034c-12.574 7.343-16.842 20.933-17.23 27.735.584-.04 1.162-.089 1.759-.089a25.322 25.322 0 0 1 12.693 3.439 25.229 25.229 0 0 1 9.239 9.336 17.316 17.316 0 0 0-12.07-2.923c18.005 8.979 13.174 39.895-11.779 38.736a22.31 22.31 0 0 1-6.513-1.254 26.7 26.7 0 0 1-1.47-.6c-.283-.129-.566-.258-.845-.402l.035.022a25.912 25.912 0 0 1-.728-.362c.233.112.453.233.693.34-6.113-3.151-11.161-9.107-11.791-16.334 0 0 2.311-8.588 16.546-8.588 1.538 0 5.941-4.284 6.02-5.525-.019-.406-8.731-3.865-12.128-7.201-1.815-1.784-2.677-2.644-3.44-3.289a14.577 14.577 0 0 0-1.292-.976 23.088 23.088 0 0 1-.14-12.203 37.048 37.048 0 0 0-12.05 9.287h-.023c-1.984-2.508-1.844-10.778-1.731-12.505a8.935 8.935 0 0 0-1.671.885 36.321 36.321 0 0 0-4.893 4.18 43.551 43.551 0 0 0-4.679 5.6 42.105 42.105 0 0 0-6.717 15.122l-.067.329c-.094.44-.516 2.671-.577 3.15a57.836 57.836 0 0 0-.739 6.96v.258a49.858 49.858 0 0 0 13.221 33.718 50.115 50.115 0 0 0 32.593 15.943 50.152 50.152 0 0 0 34.827-10.216 49.909 49.909 0 0 0 18.749-31.003c.084-.644.152-1.281.227-1.932a51.224 51.224 0 0 0-3.247-25.081z" style="fill:url(#m)"/></g><defs><radialGradient id="c" cx="0" cy="0" r="1" gradientTransform="matrix(104.362 0 0 104.085 186.533 511.617)" gradientUnits="userSpaceOnUse"><stop offset=".129" stop-color="#FFBD4F"/><stop offset=".186" stop-color="#FFAC31"/><stop offset=".247" stop-color="#FF9D17"/><stop offset=".283" stop-color="#FF980E"/><stop offset=".403" stop-color="#FF563B"/><stop offset=".467" stop-color="#FF3750"/><stop offset=".71" stop-color="#F5156C"/><stop offset=".782" stop-color="#EB0878"/><stop offset=".86" stop-color="#E50080"/></radialGradient><radialGradient id="d" cx="0" cy="0" r="1" gradientTransform="matrix(104.362 0 0 104.085 147.784 554.127)" gradientUnits="userSpaceOnUse"><stop offset=".3" stop-color="#960E18"/><stop offset=".351" stop-color="#B11927" stop-opacity=".74"/><stop offset=".435" stop-color="#DB293D" stop-opacity=".343"/><stop offset=".497" stop-color="#F5334B" stop-opacity=".094"/><stop offset=".53" stop-color="#FF3750" stop-opacity="0"/></radialGradient><radialGradient id="e" cx="0" cy="0" r="1" gradientTransform="matrix(75.5982 0 0 75.3974 160.701 488.429)" gradientUnits="userSpaceOnUse"><stop offset=".132" stop-color="#FFF44F"/><stop offset=".252" stop-color="#FFDC3E"/><stop offset=".506" stop-color="#FF9D12"/><stop offset=".526" stop-color="#FF980E"/></radialGradient><radialGradient id="f" cx="0" cy="0" r="1" gradientTransform="matrix(49.6884 0 0 49.5564 136.16 581.179)" gradientUnits="userSpaceOnUse"><stop offset=".353" stop-color="#3A8EE6"/><stop offset=".472" stop-color="#5C79F0"/><stop offset=".669" stop-color="#9059FF"/><stop offset="1" stop-color="#C139E6"/></radialGradient><radialGradient id="g" cx="0" cy="0" r="1" gradientTransform="matrix(25.61117 -6.17556 7.21294 29.91337 152.832 545.192)" gradientUnits="userSpaceOnUse"><stop offset=".206" stop-color="#9059FF" stop-opacity="0"/><stop offset=".278" stop-color="#8C4FF3" stop-opacity=".064"/><stop offset=".747" stop-color="#7716A8" stop-opacity=".45"/><stop offset=".975" stop-color="#6E008B" stop-opacity=".6"/></radialGradient><radialGradient id="h" cx="0" cy="0" r="1" gradientTransform="matrix(35.7519 0 0 35.6569 146.493 507.752)" gradientUnits="userSpaceOnUse"><stop stop-color="#FFE226"/><stop offset=".121" stop-color="#FFDB27"/><stop offset=".295" stop-color="#FFC82A"/><stop offset=".502" stop-color="#FFA930"/><stop offset=".732" stop-color="#FF7E37"/><stop offset=".792" stop-color="#FF7139"/></radialGradient><radialGradient id="i" cx="0" cy="0" r="1" gradientTransform="matrix(152.54 0 0 152.134 174.908 484.565)" gradientUnits="userSpaceOnUse"><stop offset=".113" stop-color="#FFF44F"/><stop offset=".456" stop-color="#FF980E"/><stop offset=".622" stop-color="#FF5634"/><stop offset=".716" stop-color="#FF3647"/><stop offset=".904" stop-color="#E31587"/></radialGradient><radialGradient id="j" cx="0" cy="0" r="1" gradientTransform="matrix(11.73109 110.8711 -72.95297 7.71903 162.23 493)" gradientUnits="userSpaceOnUse"><stop stop-color="#FFF44F"/><stop offset=".06" stop-color="#FFE847"/><stop offset=".168" stop-color="#FFC830"/><stop offset=".304" stop-color="#FF980E"/><stop offset=".356" stop-color="#FF8B16"/><stop offset=".455" stop-color="#FF672A"/><stop offset=".57" stop-color="#FF3647"/><stop offset=".737" stop-color="#E31587"/></radialGradient><radialGradient id="k" cx="0" cy="0" r="1" gradientTransform="matrix(95.2178 0 0 94.9649 146.493 520.634)" gradientUnits="userSpaceOnUse"><stop offset=".137" stop-color="#FFF44F"/><stop offset=".48" stop-color="#FF980E"/><stop offset=".592" stop-color="#FF5634"/><stop offset=".655" stop-color="#FF3647"/><stop offset=".904" stop-color="#E31587"/></radialGradient><radialGradient id="l" cx="0" cy="0" r="1" gradientTransform="matrix(104.22 0 0 103.944 171.033 525.787)" gradientUnits="userSpaceOnUse"><stop offset=".094" stop-color="#FFF44F"/><stop offset=".231" stop-color="#FFE141"/><stop offset=".509" stop-color="#FFAF1E"/><stop offset=".626" stop-color="#FF980E"/></radialGradient><linearGradient id="b" x1="189.749" x2="106.856" y1="515.978" y2="596.169" gradientUnits="userSpaceOnUse"><stop offset=".048" stop-color="#FFF44F"/><stop offset=".111" stop-color="#FFE847"/><stop offset=".225" stop-color="#FFC830"/><stop offset=".368" stop-color="#FF980E"/><stop offset=".401" stop-color="#FF8B16"/><stop offset=".462" stop-color="#FF672A"/><stop offset=".534" stop-color="#FF3647"/><stop offset=".705" stop-color="#E31587"/></linearGradient><linearGradient id="m" x1="188.739" x2="118.224" y1="515.529" y2="586.244" gradientUnits="userSpaceOnUse"><stop offset=".167" stop-color="#FFF44F" stop-opacity=".8"/><stop offset=".266" stop-color="#FFF44F" stop-opacity=".634"/><stop offset=".489" stop-color="#FFF44F" stop-opacity=".217"/><stop offset=".6" stop-color="#FFF44F" stop-opacity="0"/></linearGradient><clipPath id="a"><path fill="#fff" d="M100 500h100v103H100z"/></clipPath></defs></svg>