<svg fill="none" xmlns="http://www.w3.org/2000/svg" viewBox="0 0 111 61"><path d="M30.833 0 37 6.1l-6.167 6.1-6.166-6.1L30.833 0Zm12.334 12.2 6.166 6.1-6.166 6.1L37 18.3l6.167-6.1Zm49.333 0 6.167 6.1-6.167 6.1-6.167-6.1 6.167-6.1Zm12.333 12.2L111 30.5l-6.167 6.1-6.166-6.1 6.166-6.1ZM92.5 36.6l6.167 6.1-6.167 6.1-6.167-6.1 6.167-6.1ZM80.167 48.8l6.166 6.1-6.166 6.1L74 54.9l6.167-6.1ZM67.833 36.6 74 42.7l-6.167 6.1-6.166-6.1 6.166-6.1ZM18.5 12.2l6.167 6.1-6.167 6.1-6.167-6.1 6.167-6.1Z" fill="#223F80"/><path d="m80.167 0 6.166 6.1-55.5 54.9L0 30.5l6.167-6.1 24.666 24.4L80.167 0Z" fill="#4185FF"/></svg>