<svg xmlns="http://www.w3.org/2000/svg" fill="none" viewBox="0 0 95.038 95.748"><g clip-path="url(#a)" transform="translate(-102.481 -703)"><path fill="#000" d="M195.609 754.589a42.946 42.946 0 0 1-3.471 16.899 44.106 44.106 0 0 1-9.887 14.326 45.732 45.732 0 0 1-14.796 9.572 46.912 46.912 0 0 1-17.453 3.362 46.912 46.912 0 0 1-17.453-3.362 45.742 45.742 0 0 1-14.796-9.572 44.103 44.103 0 0 1-9.886-14.326 42.947 42.947 0 0 1-3.472-16.899c0-11.712 4.805-22.943 13.358-31.225 8.553-8.281 20.154-12.934 32.249-12.934 5.989 0 11.92 1.143 17.453 3.362a45.732 45.732 0 0 1 14.796 9.572 44.106 44.106 0 0 1 9.887 14.326 42.946 42.946 0 0 1 3.471 16.899z" opacity=".53"/><path fill="url(#b)" stroke="#cdcdcd" stroke-linecap="round" stroke-linejoin="round" stroke-width=".352" d="M197.343 750.69a47.837 47.837 0 0 1-3.603 18.217 47.641 47.641 0 0 1-10.263 15.444 47.324 47.324 0 0 1-15.359 10.319A47.128 47.128 0 0 1 150 798.294a47.216 47.216 0 0 1-33.477-13.943 47.74 47.74 0 0 1-13.866-33.661 47.737 47.737 0 0 1 13.866-33.661A47.212 47.212 0 0 1 150 703.086a47.127 47.127 0 0 1 18.118 3.623 47.327 47.327 0 0 1 15.359 10.32 47.63 47.63 0 0 1 10.263 15.444 47.83 47.83 0 0 1 3.603 18.217z" style="fill:url(#b)"/><path fill="url(#c)" d="M193.634 750.69a43.995 43.995 0 0 1-12.78 31.023A43.514 43.514 0 0 1 150 794.563a43.514 43.514 0 0 1-30.854-12.85 43.995 43.995 0 0 1-12.78-31.023 43.998 43.998 0 0 1 12.78-31.024A43.514 43.514 0 0 1 150 706.816a43.514 43.514 0 0 1 30.854 12.85 43.998 43.998 0 0 1 12.78 31.024z" style="fill:url(#c)"/><path fill="#f4f2f3" d="M150 709.104a.637.637 0 0 0-.636.64v7.378a.637.637 0 1 0 1.272 0v-7.378a.637.637 0 0 0-.636-.64zm-4.162.265a.638.638 0 0 0-.696.703l.321 3.086a.635.635 0 1 0 1.265-.132l-.32-3.087a.636.636 0 0 0-.57-.57zm8.353.003a.635.635 0 0 0-.57.57l-.323 3.086a.637.637 0 1 0 1.265.134l.323-3.087a.638.638 0 0 0-.695-.703zm-12.628.62a.638.638 0 0 0-.619.772l1.52 7.218a.635.635 0 1 0 1.244-.265l-1.519-7.218a.636.636 0 0 0-.626-.507zm16.903.006a.635.635 0 0 0-.626.507l-1.525 7.217a.639.639 0 0 0 .49.759.634.634 0 0 0 .754-.493l1.525-7.217a.638.638 0 0 0-.618-.773zm-20.983 1.151a.64.64 0 0 0-.66.835l.954 2.952c.109.337.467.52.802.411a.64.64 0 0 0 .408-.807l-.954-2.951a.634.634 0 0 0-.55-.44zm25.04.001a.638.638 0 0 0-.551.44l-.954 2.952a.639.639 0 0 0 .408.806.635.635 0 0 0 .802-.411l.954-2.951a.64.64 0 0 0-.659-.836zm-29.075 1.483a.64.64 0 0 0-.569.9l2.98 6.742a.634.634 0 0 0 .84.325.64.64 0 0 0 .323-.844l-2.981-6.742a.635.635 0 0 0-.593-.381zm33.155.023a.634.634 0 0 0-.593.38l-2.99 6.738a.64.64 0 0 0 .322.844c.322.145.696 0 .84-.323l2.989-6.738a.639.639 0 0 0-.568-.901zm-36.9 1.97a.641.641 0 0 0-.595.958l1.543 2.688a.633.633 0 0 0 .869.234.639.639 0 0 0 .233-.874l-1.543-2.687a.633.633 0 0 0-.507-.319zm40.594 0a.631.631 0 0 0-.507.319l-1.543 2.687a.64.64 0 0 0 .233.874.633.633 0 0 0 .869-.234l1.543-2.688a.641.641 0 0 0-.595-.958zm-44.23 2.28a.641.641 0 0 0-.493 1.016l4.308 5.972c.207.287.604.35.889.142a.64.64 0 0 0 .141-.893l-4.309-5.972a.63.63 0 0 0-.536-.265zm47.912.033a.63.63 0 0 0-.537.263l-4.317 5.967a.64.64 0 0 0 .14.893.633.633 0 0 0 .889-.14l4.317-5.967a.642.642 0 0 0-.492-1.016zm-51.163 2.708a.641.641 0 0 0-.506 1.068l2.065 2.306a.633.633 0 0 0 .899.048.641.641 0 0 0 .047-.904l-2.065-2.306a.634.634 0 0 0-.44-.212zm54.372.005a.637.637 0 0 0-.439.211l-2.066 2.307a.64.64 0 0 0 .047.903.633.633 0 0 0 .899-.047l2.065-2.306a.641.641 0 0 0-.506-1.068zm-57.487 3.004a.64.64 0 0 0-.392 1.115l5.453 4.937a.633.633 0 0 0 .899-.048.64.64 0 0 0-.047-.903l-5.454-4.937a.637.637 0 0 0-.459-.164zm60.618.022a.631.631 0 0 0-.46.164l-5.456 4.932a.64.64 0 0 0 .85.952l5.457-4.933a.64.64 0 0 0-.391-1.115zm-63.209 3.328a.64.64 0 0 0-.396 1.157l2.497 1.825a.633.633 0 0 0 .889-.142.64.64 0 0 0-.141-.893l-2.497-1.825a.63.63 0 0 0-.352-.122zm65.797.023a.64.64 0 0 0-.352.122l-2.498 1.823a.642.642 0 0 0-.142.894c.207.286.604.35.889.141l2.498-1.822a.642.642 0 0 0-.395-1.158zm-68.218 3.55a.64.64 0 0 0-.273 1.193l6.354 3.689a.64.64 0 0 0 .637-1.108l-6.355-3.689a.627.627 0 0 0-.363-.085zm70.622 0a.627.627 0 0 0-.363.085l-6.355 3.689a.64.64 0 0 0 .637 1.108l6.355-3.689a.64.64 0 0 0-.274-1.193zm-72.452 3.808a.64.64 0 0 0-.272 1.224l2.819 1.265a.64.64 0 0 0 .518-1.169l-2.819-1.264a.638.638 0 0 0-.246-.056zm74.295.027a.62.62 0 0 0-.247.055l-2.82 1.263a.64.64 0 0 0-.323.844c.144.324.518.469.84.324l2.82-1.262a.64.64 0 0 0-.27-1.224zm-75.927 3.954a.64.64 0 0 0-.143 1.246l6.977 2.286a.64.64 0 0 0 .395-1.217l-6.977-2.286a.643.643 0 0 0-.252-.029zm77.555.027a.623.623 0 0 0-.251.03l-6.979 2.281a.639.639 0 0 0-.408.806c.109.337.467.52.802.41l6.978-2.281a.64.64 0 0 0-.142-1.246zm-78.571 4.151a.635.635 0 0 0-.626.507.638.638 0 0 0 .49.759l3.019.645a.634.634 0 0 0 .754-.493.637.637 0 0 0-.49-.758l-3.019-.646a.627.627 0 0 0-.128-.014zm79.58.006a.808.808 0 0 0-.129.014l-3.019.645a.638.638 0 0 0-.49.758c.073.347.41.567.754.493l3.02-.645a.638.638 0 0 0 .49-.758.635.635 0 0 0-.626-.507zm-80.35 4.197a.636.636 0 0 0-.57.57.637.637 0 0 0 .566.703l7.297.776a.636.636 0 0 0 .7-.569.639.639 0 0 0-.566-.704l-7.297-.775a.628.628 0 0 0-.13-.001zm81.124.055a.619.619 0 0 0-.129.001l-7.298.766a.637.637 0 0 0-.567.702.635.635 0 0 0 .699.57l7.298-.766a.638.638 0 0 0 .567-.702.637.637 0 0 0-.57-.571zm-81.247 4.247a.637.637 0 0 0-.636.64c0 .354.283.64.636.64h3.087a.637.637 0 0 0 .636-.64.637.637 0 0 0-.636-.64zm78.277 0a.637.637 0 0 0-.636.64c0 .354.284.64.636.64h3.087a.637.637 0 0 0 .636-.64.637.637 0 0 0-.636-.64zm-70.736 3.487a.619.619 0 0 0-.129.001l-7.298.766a.637.637 0 0 0-.567.702.635.635 0 0 0 .699.57l7.298-.766a.638.638 0 0 0 .567-.702.637.637 0 0 0-.57-.571zm66.278.046a.635.635 0 0 0-.57.569.638.638 0 0 0 .565.704l7.297.775a.635.635 0 0 0 .7-.569.637.637 0 0 0-.566-.703l-7.297-.776a.695.695 0 0 0-.129 0zm-69.916 4.321a.627.627 0 0 0-.128.014l-3.019.645a.638.638 0 0 0-.491.758c.074.347.41.567.755.493l3.019-.645a.637.637 0 0 0 .49-.758.634.634 0 0 0-.626-.507zm73.557.006a.635.635 0 0 0-.626.507.639.639 0 0 0 .49.759l3.019.645a.634.634 0 0 0 .754-.493.638.638 0 0 0-.49-.759l-3.019-.645a.627.627 0 0 0-.128-.014zm-68.472 2.519a.626.626 0 0 0-.252.03l-6.978 2.281a.639.639 0 0 0-.408.806c.109.337.466.52.801.41l6.979-2.28a.64.64 0 0 0-.142-1.247zm63.381.023a.635.635 0 0 0-.55.44.639.639 0 0 0 .408.806l6.977 2.286a.64.64 0 0 0 .394-1.217l-6.977-2.285a.626.626 0 0 0-.252-.03zm-66.044 4.973a.638.638 0 0 0-.247.056l-2.82 1.262a.64.64 0 0 0 .517 1.169l2.82-1.262a.64.64 0 0 0-.27-1.225zm68.704.025a.64.64 0 0 0-.271 1.224l2.818 1.264a.64.64 0 0 0 .519-1.168l-2.819-1.265a.62.62 0 0 0-.247-.055zm-63.214 1.386a.634.634 0 0 0-.363.084l-6.354 3.69a.639.639 0 0 0 .636 1.107l6.355-3.688a.64.64 0 0 0-.274-1.193zm57.734 0a.64.64 0 0 0-.274 1.193l6.355 3.688a.632.632 0 0 0 .869-.234.638.638 0 0 0-.232-.873l-6.355-3.69a.634.634 0 0 0-.363-.084zm-59.319 5.413a.641.641 0 0 0-.352.123l-2.498 1.822a.642.642 0 0 0-.142.894c.207.287.604.35.889.142l2.498-1.823a.64.64 0 0 0-.395-1.158zm60.889.022a.642.642 0 0 0-.396 1.158l2.497 1.824a.633.633 0 0 0 .889-.142.64.64 0 0 0-.141-.893l-2.497-1.824a.626.626 0 0 0-.352-.123zm-55.231.221a.629.629 0 0 0-.459.164l-5.457 4.932a.641.641 0 0 0-.048.903.633.633 0 0 0 .899.048l5.457-4.932a.64.64 0 0 0-.392-1.115zm49.573.017a.64.64 0 0 0-.393 1.115l5.454 4.937a.633.633 0 0 0 .899-.048.641.641 0 0 0-.048-.903l-5.453-4.936a.636.636 0 0 0-.459-.165zm-44.396 4.686a.635.635 0 0 0-.537.264l-4.316 5.966a.64.64 0 0 0 .14.894.632.632 0 0 0 .888-.141l4.317-5.966a.641.641 0 0 0-.492-1.017zm39.198.027a.64.64 0 0 0-.493 1.016l4.309 5.972c.206.287.603.35.888.142a.64.64 0 0 0 .141-.893l-4.308-5.972a.634.634 0 0 0-.537-.265zm-44.77.922a.637.637 0 0 0-.44.211l-2.065 2.307a.64.64 0 0 0 .047.903.632.632 0 0 0 .898-.047l2.066-2.307a.64.64 0 0 0-.506-1.067zm50.374.003a.641.641 0 0 0-.506 1.067l2.065 2.307a.633.633 0 0 0 .899.047.64.64 0 0 0 .047-.903l-2.065-2.307a.63.63 0 0 0-.44-.211zm-38.774 2.558a.633.633 0 0 0-.593.38l-2.99 6.738a.64.64 0 0 0 .322.845c.322.144.697 0 .84-.324l2.99-6.738a.64.64 0 0 0-.569-.901zm27.137.019a.64.64 0 0 0-.57.9l2.981 6.742a.634.634 0 0 0 .84.324.64.64 0 0 0 .323-.844l-2.981-6.742a.634.634 0 0 0-.593-.38zm-32.39 2.065a.632.632 0 0 0-.507.319l-1.543 2.687a.64.64 0 0 0 .233.874.633.633 0 0 0 .869-.234l1.543-2.688a.64.64 0 0 0-.595-.958zm37.684 0a.641.641 0 0 0-.595.958l1.543 2.688a.633.633 0 0 0 .869.234.64.64 0 0 0 .233-.874l-1.543-2.687a.633.633 0 0 0-.507-.319zm-25.775.096a.635.635 0 0 0-.626.507l-1.525 7.217a.639.639 0 0 0 .49.759.634.634 0 0 0 .754-.493l1.525-7.217a.638.638 0 0 0-.618-.773zm13.844.005a.639.639 0 0 0-.619.771l1.52 7.219a.635.635 0 1 0 1.244-.265l-1.52-7.218a.633.633 0 0 0-.625-.507zm-6.911.728a.636.636 0 0 0-.636.639v7.378a.637.637 0 1 0 1.272 0v-7.378a.636.636 0 0 0-.636-.639zm-11.678 2.384a.635.635 0 0 0-.55.44l-.954 2.952a.639.639 0 0 0 .408.806.635.635 0 0 0 .802-.411l.954-2.952a.639.639 0 0 0-.66-.835zm23.351.001a.639.639 0 0 0-.66.836l.954 2.951c.109.337.466.52.801.411a.639.639 0 0 0 .409-.806l-.954-2.952a.636.636 0 0 0-.55-.44zm-15.666 1.644a.637.637 0 0 0-.57.57l-.323 3.087a.635.635 0 1 0 1.265.133l.323-3.086a.638.638 0 0 0-.695-.704zm7.961.003a.637.637 0 0 0-.696.703l.32 3.087a.635.635 0 1 0 1.266-.133l-.321-3.086a.636.636 0 0 0-.569-.571z"/><g filter="url(#d)" opacity=".409"><path fill="#000" d="m179.816 725.104-34.806 20.333-22.006 34.835 32.193-23.977z"/></g><path fill="#ff5150" d="m154.988 755.942-9.976-10.505 35.39-23.938z"/><path fill="#f1f1f1" d="m154.988 755.942-9.976-10.505-25.414 34.443z"/><path fill="#000" d="m119.598 779.88 35.39-23.938 25.414-34.443z" opacity=".243"/></g><defs><radialGradient id="c" cx="0" cy="0" r="1" gradientTransform="matrix(47.3433 0 0 47.6037 150.197 744.292)" gradientUnits="userSpaceOnUse"><stop stop-color="#06C2E7"/><stop offset=".25" stop-color="#0DB8EC"/><stop offset=".5" stop-color="#12AEF1"/><stop offset=".75" stop-color="#1F86F9"/><stop offset="1" stop-color="#107DDD"/></radialGradient><linearGradient id="b" x1="149.998" x2="149.998" y1="798.293" y2="703.086" gradientUnits="userSpaceOnUse"><stop stop-color="#BDBDBD"/><stop offset="1" stop-color="#fff"/></linearGradient><clipPath id="a"><path fill="#fff" d="M100 703h100v100H100z"/></clipPath><filter id="d" width="61.901" height="60.258" x="120.459" y="722.559" color-interpolation-filters="sRGB" filterUnits="userSpaceOnUse"><feFlood flood-opacity="0" result="BackgroundImageFix"/><feBlend in="SourceGraphic" in2="BackgroundImageFix" result="shape"/><feGaussianBlur result="effect1_foregroundBlur_325_6635" stdDeviation="1.272"/></filter></defs></svg>