<svg class="icon" viewBox="0 0 100 100" xmlns="http://www.w3.org/2000/svg" aria-hidden="true" role="img"><path d="M90.71 50a53.53 53.53 0 00-20.19-18.71 23.75 23.75 0 11-41 0A53.45 53.45 0 009.29 50C18.35 64 33 73.75 50 73.75S81.65 64 90.71 50zM52.54 29.64A2.57 2.57 0 0050 27.1a16.18 16.18 0 00-16.12 16.11 2.55 2.55 0 105.09 0 11.09 11.09 0 0111-11 2.57 2.57 0 002.57-2.57zM97.5 50a7.32 7.32 0 01-1.06 3.66C86.68 69.72 68.82 80.54 50 80.54S13.31 69.67 3.56 53.66A7.45 7.45 0 012.5 50a7.35 7.35 0 011.06-3.66c9.76-16 27.62-26.88 46.44-26.88s36.69 10.87 46.44 26.88A7.45 7.45 0 0197.5 50z" fill="#212121"/></svg>
