<svg class="icon" viewBox="0 0 100 100" xmlns="http://www.w3.org/2000/svg" aria-hidden="true" role="img"><path d="M65 50a15 15 0 10-15 15 15 15 0 0015-15zm30-6.38v13a2.24 2.24 0 01-1.64 2.1l-10.84 1.65a33.43 33.43 0 01-2.29 5.33c2 2.87 4.11 5.45 6.27 8.08a2.28 2.28 0 01.59 1.47 2 2 0 01-.53 1.35c-1.41 1.87-9.32 10.49-11.31 10.49a3.05 3.05 0 01-1.52-.53l-8.09-6.33a35.51 35.51 0 01-5.33 2.23 76.44 76.44 0 01-1.7 10.9A2.15 2.15 0 0156.5 95h-13a2.08 2.08 0 01-2.1-1.76l-1.66-10.78a35 35 0 01-5.27-2.17l-8.26 6.27a2.27 2.27 0 01-1.47.53 2.11 2.11 0 01-1.46-.65c-3.11-2.81-7.21-6.44-9.67-9.84a2.27 2.27 0 01.06-2.69c2-2.7 4.16-5.27 6.15-8a31.23 31.23 0 01-2.4-5.8L6.7 58.5A2.13 2.13 0 015 56.39v-13a2.26 2.26 0 011.58-2.11l10.9-1.64a31.79 31.79 0 012.28-5.39q-3-4.16-6.27-8.08a2.17 2.17 0 01-.58-1.41 2.29 2.29 0 01.53-1.35c1.4-1.93 9.31-10.49 11.31-10.49a2.61 2.61 0 011.52.59l8.09 6.27a35.08 35.08 0 015.33-2.23 76.44 76.44 0 011.7-10.9A2.13 2.13 0 0143.49 5h13a2.09 2.09 0 012.11 1.76l1.64 10.78a34.67 34.67 0 015.28 2.17l8.32-6.27a2 2 0 011.4-.53 2.33 2.33 0 011.47.59c3.1 2.87 7.21 6.5 9.67 10a2 2 0 01.4 1.29 2.22 2.22 0 01-.46 1.34c-2 2.7-4.16 5.27-6.16 8a32.58 32.58 0 012.41 5.74L93.3 41.5a2.15 2.15 0 011.7 2.11z" fill="#212121"/></svg>
