<svg viewBox="0 0 16 16" fill="none" role="img" xmlns="http://www.w3.org/2000/svg">
  <title>Add icon</title>
<g clip-path="url(#clip0_625:458)">
<path d="M8 1.5C9.28558 1.5 10.5423 1.88122 11.6112 2.59545C12.6801 3.30968 13.5133 4.32484 14.0052 5.51256C14.4972 6.70028 14.6259 8.00721 14.3751 9.26809C14.1243 10.529 13.5052 11.6872 12.5962 12.5962C11.6872 13.5052 10.529 14.1243 9.26809 14.3751C8.00721 14.6259 6.70028 14.4972 5.51256 14.0052C4.32484 13.5132 3.30968 12.6801 2.59545 11.6112C1.88122 10.5423 1.5 9.28558 1.5 8C1.50265 6.27691 2.18832 4.62514 3.40673 3.40673C4.62514 2.18831 6.27691 1.50264 8 1.5ZM8 0C6.41775 0 4.87103 0.469192 3.55544 1.34824C2.23985 2.22729 1.21447 3.47672 0.608967 4.93853C0.00346625 6.40034 -0.15496 8.00887 0.153721 9.56072C0.462403 11.1126 1.22433 12.538 2.34315 13.6569C3.46197 14.7757 4.88743 15.5376 6.43928 15.8463C7.99113 16.155 9.59966 15.9965 11.0615 15.391C12.5233 14.7855 13.7727 13.7602 14.6518 12.4446C15.5308 11.129 16 9.58225 16 8C16 5.87827 15.1571 3.84344 13.6569 2.34315C12.1566 0.842855 10.1217 0 8 0V0Z" fill="#FBFBFE"/>
<path d="M8 4V12" stroke="#FBFBFE" stroke-width="1.5" stroke-miterlimit="10"/>
<path d="M12 8H4" stroke="#FBFBFE" stroke-width="1.5" stroke-miterlimit="10"/>
</g>
<defs>
<clipPath id="clip0_625:458">
<rect role="presentation" width="16" height="16" fill="white"/>
</clipPath>
</defs>
</svg>
