<svg width="20" height="17" fill="none" xmlns="http://www.w3.org/2000/svg"><path d="M10 0C4.5 0 0 3.6 0 8c0 2.1 1 4.1 2.8 5.5 0 .6 1.6 1.2-.8 3.5 0 0 3.5 0 4.5-1.5 1.1.3 2.3.5 3.5.5 5.5 0 10-3.6 10-8s-4.5-8-10-8Zm1 12H9v-2h2v2Zm1.8-5c-.3.4-.7.6-1.1.8-.3.2-.4.3-.5.5-.2.2-.2.4-.2.7H9c0-.5.1-.8.3-1.1.2-.2.6-.5 1.1-.8.3-.1.5-.3.6-.5.1-.2.2-.5.2-.7 0-.3-.1-.5-.3-.7-.2-.2-.5-.3-.8-.3-.3 0-.5.1-.7.2-.2.1-.3.3-.3.6h-2c.1-.7.4-1.3.9-1.7.5-.4 1.2-.5 2.1-.5.9 0 1.7.2 2.2.6.5.4.8 1 .8 1.7.1.4 0 .8-.3 1.2Z" fill="#44984F"/></svg>