<svg viewBox="0 0 100 100" xmlns="http://www.w3.org/2000/svg" role="img">
  <path d="M36.8 84.05a5.66 5.66 0 10-11.32 0 5.66 5.66 0 1011.32 0zm0-67.93a5.66 5.66 0 10-5.66 5.66 5.65 5.65 0 005.66-5.66zm37.75 7.55a5.67 5.67 0 10-5.67 5.66 5.66 5.66 0 005.67-5.66zm5.66 0a11.35 11.35 0 01-5.66 9.79c-.18 21.29-15.28 26-25.3 29.18C39.87 65.59 36.8 67 36.8 72.73v1.53a11.32 11.32 0 11-11.32 0V25.91a11.33 11.33 0 01-5.66-9.79 11.33 11.33 0 0122.65 0 11.34 11.34 0 01-5.67 9.79v29.31a60.13 60.13 0 019.09-3.36c11-3.48 17.21-6.08 17.33-18.4a11.33 11.33 0 01-5.66-9.79 11.33 11.33 0 0122.65 0z" fill="currentColor"/>
</svg>
