<svg width="17" height="16" viewBox="0 0 17 16" fill="none" xmlns="http://www.w3.org/2000/svg">
<path d="M14.472 12.6693V13.3359H2.34896V12.6693L3.69597 11.3359V7.33594C3.69597 5.26927 5.06318 3.44927 7.06349 2.8626C7.06349 2.79594 7.06349 2.73594 7.06349 2.66927C7.06349 2.31565 7.20541 1.97651 7.45802 1.72646C7.71063 1.47641 8.05325 1.33594 8.4105 1.33594C8.76775 1.33594 9.11037 1.47641 9.36298 1.72646C9.61559 1.97651 9.75751 2.31565 9.75751 2.66927C9.75751 2.73594 9.75751 2.79594 9.75751 2.8626C11.7578 3.44927 13.125 5.26927 13.125 7.33594V11.3359L14.472 12.6693ZM9.75751 14.0026C9.75751 14.3562 9.61559 14.6954 9.36298 14.9454C9.11037 15.1955 8.76775 15.3359 8.4105 15.3359C8.05325 15.3359 7.71063 15.1955 7.45802 14.9454C7.20541 14.6954 7.06349 14.3562 7.06349 14.0026M13.6302 2.12927L12.6738 3.07594C13.8255 4.2026 14.472 5.73594 14.472 7.33594H15.819C15.819 5.3826 15.0378 3.5026 13.6302 2.12927ZM1.00195 7.33594H2.34896C2.34896 5.73594 2.99553 4.2026 4.14722 3.07594L3.19084 2.12927C1.78322 3.5026 1.00195 5.3826 1.00195 7.33594Z" fill="#347A3F"/>
</svg>
