<svg viewBox="0 0 28 32" fill="none" xmlns="http://www.w3.org/2000/svg">
<path d="M26.0641 22.5527L27.631 25.4217C27.8151 25.7582 27.9084 26.1369 27.9015 26.5205C27.8947 26.904 27.7879 27.2792 27.5919 27.6089C27.3958 27.9386 27.1172 28.2116 26.7835 28.4008C26.4498 28.59 26.0725 28.689 25.6889 28.6879H18.2076C17.9535 29.6229 17.3987 30.4484 16.629 31.0369C15.8592 31.6253 14.9172 31.9442 13.9482 31.9442C12.9793 31.9442 12.0373 31.6253 11.2675 31.0369C10.4978 30.4484 9.94304 29.6229 9.68894 28.6879H2.20756C1.82395 28.689 1.44669 28.59 1.11299 28.4008C0.779289 28.2116 0.500673 27.9386 0.304619 27.6089C0.108564 27.2792 0.00184384 26.904 -0.00501793 26.5205C-0.0118797 26.1369 0.0813542 25.7582 0.265489 25.4217L1.83239 22.5527C2.00445 22.234 2.0954 21.8777 2.09721 21.5155V13.2396C2.16333 10.7746 3.04354 8.4007 4.6005 6.48843C6.15747 4.57615 8.30362 3.23302 10.7041 2.66859C10.8561 1.92026 11.2621 1.24748 11.8533 0.764232C12.4445 0.280986 13.1846 0.0169983 13.9482 0.0169983C14.7119 0.0169983 15.452 0.280986 16.0432 0.764232C16.6344 1.24748 17.0404 1.92026 17.1924 2.66859C19.5929 3.23302 21.739 4.57615 23.296 6.48843C24.853 8.4007 25.7332 10.7746 25.7993 13.2396V21.5155C25.8011 21.8777 25.892 22.234 26.0641 22.5527Z" fill="#0085F2"/>
</svg>
