<svg viewBox="0 0 16 16" fill="none" role="img" xmlns="http://www.w3.org/2000/svg">
<title>Notification icon</title>
<g clip-path="url(#clip0_626:511)">
<path d="M14.8155 12.7108L14.032 11.2764C13.946 11.117 13.9005 10.9389 13.8996 10.7577V6.6198C13.8665 5.38726 13.4264 4.20034 12.648 3.2442C11.8695 2.28806 10.7964 1.6165 9.59615 1.33428C9.52017 0.960117 9.31718 0.623724 9.02156 0.382101C8.72594 0.140478 8.35588 0.00848389 7.97408 0.00848389C7.59228 0.00848389 7.22222 0.140478 6.9266 0.382101C6.63098 0.623724 6.42799 0.960117 6.35201 1.33428C5.15176 1.6165 4.07869 2.28806 3.30021 3.2442C2.52172 4.20034 2.08162 5.38726 2.04856 6.6198V10.7577C2.04766 10.9389 2.00218 11.117 1.91615 11.2764L1.1327 12.7108C1.04063 12.8791 0.994014 13.0685 0.997445 13.2602C1.00088 13.452 1.05424 13.6396 1.15226 13.8044C1.25029 13.9693 1.3896 14.1058 1.55645 14.2004C1.7233 14.295 1.91193 14.3445 2.10373 14.3439H5.84442C5.97148 14.8115 6.24884 15.2242 6.63372 15.5184C7.0186 15.8127 7.48961 15.9721 7.97408 15.9721C8.45855 15.9721 8.92956 15.8127 9.31444 15.5184C9.69932 15.2242 9.97668 14.8115 10.1037 14.3439H13.8444C14.0362 14.3445 14.2249 14.295 14.3917 14.2004C14.5586 14.1058 14.6979 13.9693 14.7959 13.8044C14.8939 13.6396 14.9473 13.452 14.9507 13.2602C14.9541 13.0685 14.9075 12.8791 14.8155 12.7108ZM3.03063 12.7108L3.3727 12.0929C3.58545 11.6876 3.6989 11.2375 3.70373 10.7798V6.6198C3.76368 5.54349 4.24572 4.53425 5.04523 3.81118C5.84474 3.08811 6.89717 2.70957 7.97408 2.75773C9.05098 2.70957 10.1034 3.08811 10.9029 3.81118C11.7024 4.53425 12.1845 5.54349 12.2444 6.6198V10.7577C12.2493 11.2155 12.3627 11.6655 12.5755 12.0708L12.9175 12.6888L3.03063 12.7108Z" fill="#FBFBFE"/>
</g>
<defs>
<clipPath id="clip0_626:511">
<rect role="presentation" width="13.9476" height="16" fill="white" transform="translate(1)"/>
</clipPath>
</defs>
</svg>
