<svg viewBox="0 0 40 40" fill="none" xmlns="http://www.w3.org/2000/svg">
  <circle cx="20" cy="20" r="20" fill="#FCEFE2" />
  <path
    d="M23.5 22L28.5 27L27 28.5L22 23.5V22.71L21.73 22.43C20.59 23.41 19.11 24 17.5 24C15.7761 24 14.1228 23.3152 12.9038 22.0962C11.6848 20.8772 11 19.2239 11 17.5C11 15.7761 11.6848 14.1228 12.9038 12.9038C14.1228 11.6848 15.7761 11 17.5 11C19.2239 11 20.8772 11.6848 22.0962 12.9038C23.3152 14.1228 24 15.7761 24 17.5C24 19.11 23.41 20.59 22.43 21.73L22.71 22H23.5ZM17.5 22C20 22 22 20 22 17.5C22 15 20 13 17.5 13C15 13 13 15 13 17.5C13 20 15 22 17.5 22ZM20 18H18V20H17V18H15V17H17V15H18V17H20V18Z"
    fill="#E3642A" />
</svg>
