<svg viewBox="0 0 72 72" fill="none" xmlns="http://www.w3.org/2000/svg">
  <style>
    .light {
      --circle: white;
      --arrow: black;
    }

    .dark {
      --circle: black;
      --arrow: white;
    }
  </style>
  <defs>
    <g id="i">
      <path id="circle" fill-rule="evenodd" clip-rule="evenodd"
        d="M47.2774 28.0916C51.3094 32.4591 54.048 38.2806 53.743 43.8451C53.4314 49.5294 50.3039 54.4509 45.697 56.9234C41.4765 59.1885 36.1698 57.2694 31.1273 55.9825C26.1936 54.7235 20.8369 53.9358 17.3995 49.7021C13.8063 45.2765 13.0584 39.452 13.3883 34.1342C13.7262 28.6859 14.8739 22.8179 19.222 20.3201C23.3879 17.927 28.8494 20.9517 33.9003 22.3509C38.6632 23.6702 43.7054 24.2222 47.2774 28.0916Z"
        fill="var(--circle)" />
      <path id="arrow"
        d="M17.762 31.7244C17.762 31.7244 19.1409 25.0959 22.4524 23.9633C25.7134 22.848 28.3711 24.538 30.6009 27.1475C34.1326 31.2807 30.8011 37.9485 29.0772 39.5322C27.3533 41.116 22.4661 43.721 21.792 38.3784C21.1179 33.0359 29.0575 25.868 36.6346 21.6044C43.5724 17.7006 56.47 17.5042 56.47 17.5042M56.47 17.5042C56.47 17.5042 52.4743 16.547 50.0475 15.5588C47.9916 14.7216 44.9662 13.0088 44.9662 13.0088M56.47 17.5042C56.47 17.5042 52.1294 19.6312 49.8609 21.6937C47.9479 23.4332 45.6472 26.8193 45.6472 26.8193"
        stroke="var(--arrow)" stroke-opacity="0.8" stroke-width="2" stroke-linecap="round" stroke-linejoin="round" />
    </g>
  </defs>
  <view id="light" />
  <use href="#i" class="light" />
  <view id="dark" viewBox="0 72 72 72" />
  <use y="72" href="#i" class="dark" />
</svg>
