<svg width="104" height="5" viewBox="0 0 104 5" fill="none" xmlns="http://www.w3.org/2000/svg">
<path d="M30.4776 1.67368C20.4873 1.69409 6.72759 1.58007 3.00024 1.54708C2.46434 1.54233 2.03728 1.97602 2.03826 2.51194C2.03926 3.0677 2.50933 3.50716 3.0639 3.47081L30.4776 1.67368Z" fill="#E3642A"/>
<path d="M102.463 2.04811C102.463 2.04811 86.1698 3.09146 75.3886 2.4862C65.2989 1.91977 59.199 2.81868 49.1104 1.95019C41.3617 1.28313 38.9667 1.65633 30.4776 1.67368M30.4776 1.67368C20.4873 1.69409 6.72759 1.58007 3.00024 1.54708C2.46434 1.54233 2.03728 1.97602 2.03826 2.51194V2.51194C2.03926 3.0677 2.50933 3.50716 3.0639 3.47081L30.4776 1.67368Z" stroke="#E3642A" stroke-width="3" stroke-linecap="round" stroke-linejoin="round"/>
</svg>
