<svg viewBox="0 0 60 60" fill="none" xmlns="http://www.w3.org/2000/svg">
  <style>
    .light {
      --circle: #FCEFE2;
      --icon: #E3642A;
    }

    .dark {
      --circle: #664b33;
      --icon: #E3642A;
    }
  </style>
  <defs>
    <g id="i">
  <circle cx="30" cy="30" r="30" fill="var(--circle)" />
  <path
    d="M30 40C27.6794 40 25.4538 39.0781 23.8128 37.4372C22.1719 35.7962 21.25 33.5706 21.25 31.25C21.25 29.65 21.6875 28.125 22.4375 26.875L34.375 38.8C33.125 39.5625 31.6 40 30 40ZM18.75 20L17.1875 21.5875L20.625 25.0375C19.4375 26.8125 18.75 28.95 18.75 31.25C18.75 34.2337 19.9353 37.0952 22.045 39.205C24.1548 41.3147 27.0163 42.5 30 42.5C32.3 42.5 34.4375 41.8125 36.25 40.625L39.375 43.75L40.9375 42.1625L31.3 32.5L18.75 20ZM28.75 26.8L31.25 29.3V25H28.75M33.75 16.25H26.25V18.75H33.75M38.8 20.6875L37.025 22.4625C35.0875 20.925 32.65 20 30 20C27.7125 20 25.5875 20.6875 23.8125 21.875L25.625 23.675C26.9125 22.9375 28.4125 22.5 30 22.5C32.3206 22.5 34.5462 23.4219 36.1872 25.0628C37.8281 26.7038 38.75 28.9294 38.75 31.25C38.75 32.8375 38.3125 34.3375 37.575 35.625L39.375 37.425C40.5625 35.6625 41.25 33.5375 41.25 31.25C41.25 28.6 40.325 26.1625 38.7875 24.2375L40.5625 22.4625L38.8 20.6875Z"
    fill="var(--icon)" />
    </g>
  </defs>
  <view id="light" />
  <use href="#i" class="light" />
  <view id="dark" viewBox="0 60 60 60" />
  <use y="60" href="#i" class="dark" />
</svg>
