<svg width="24" height="24" viewBox="0 0 36 33" fill="none" xmlns="http://www.w3.org/2000/svg">
  <path class="bullet-bg" fill-rule="evenodd" clip-rule="evenodd"
    d="M20.4776 4.47938C25.8619 5.75782 31.513 9.136 33.287 13.2096C34.9495 17.0271 30.5595 19.562 28.3555 22.5694C26.8426 24.6339 25.6776 26.9656 22.6485 27.7264C19.7025 28.4665 16.2495 27.3389 12.8944 26.4531C8.90552 25.3999 3.82926 25.0976 1.74183 22.2066C-0.345027 19.3165 2.96751 16.8657 4.0283 14.174C5.03153 11.6284 5.02385 8.69765 7.68342 7.13019C11.1569 5.08303 15.532 3.30508 20.4776 4.47938Z"
    fill="#FCEFE2" />
  <path class="bullet-m"
    d="M12.9163 12.1741L6 16.5384L11.9282 20.1093M19.3385 9L14.3983 23.2833M20.8205 12.1741L26.7488 16.5384L20.8205 20.1093"
    stroke="#E3642A" stroke-linecap="round" stroke-linejoin="round" />
</svg>
