<svg viewBox="0 0 60 60" fill="none" xmlns="http://www.w3.org/2000/svg">
  <circle cx="30" cy="30" r="30" fill="#FCEFE2"/>
  <path d="M37.5 28.125V22.5L34.8625 23.825C34.95 24.2 35 24.5875 35 25C35 27.7625 32.7625 30 30 30C27.2375 30 25 27.7625 25 25C25 24.5875 25.05 24.2 25.1375 23.825L21.25 21.875L30 17.5L38.75 21.875V28.125H37.5ZM30 26.25L27.5 25C27.5 26.375 28.625 27.5 30 27.5C31.375 27.5 32.5 26.375 32.5 25L30 26.25ZM33.4375 21.775L30.2 20.125L26.8375 21.8375L30.0875 23.4875L33.4375 21.775ZM30 31.25C33.3375 31.25 40 32.9125 40 36.25V40H20V36.25C20 32.9125 26.6625 31.25 30 31.25ZM30 33.625C26.25 33.625 22.375 35.45 22.375 36.25V37.625H37.625V36.25C37.625 35.45 33.7125 33.625 30 33.625Z" fill="#E3642A"/>
  </svg>
