<svg viewBox="0 0 28 25" fill="none" xmlns="http://www.w3.org/2000/svg">
  <path fill-rule="evenodd" clip-rule="evenodd"
    d="M24.1399 8.76327C25.568 12.2441 25.7997 16.7306 23.9973 19.3718C22.3083 21.847 18.9177 20.4726 16.136 20.4924C14.2264 20.506 12.2943 20.8201 10.5697 19.4674C8.89248 18.1518 8.16806 15.7937 7.33364 13.5882C6.34159 10.9661 4.43323 8.0538 5.37017 5.72427C6.30685 3.39537 9.20004 4.21233 11.3132 3.69374C13.3117 3.20329 15.1323 1.99995 17.2062 2.8196C19.9147 3.89011 22.8281 5.56603 24.1399 8.76327Z"
    fill="#FCEFE2" />
  <path
    d="M6.29709 5.76788L3.1359 19.5967L1.30771 19.9545L4.45328 6.12865L6.29709 5.76788ZM7.92214 5.44992L9.22986 18.4044L7.6048 18.7223L6.29709 5.76788L7.92214 5.44992ZM14.2192 4.2178L11.0737 18.0436L9.24548 18.4013L12.391 4.57551L14.2192 4.2178ZM15.8443 3.89983L17.152 16.8543L15.5269 17.1723L14.2192 4.2178L15.8443 3.89983Z"
    fill="#E3642A" />
</svg>
