<svg viewBox="0 0 60 60" fill="none" xmlns="http://www.w3.org/2000/svg">
  <circle cx="30" cy="30" r="30" fill="#FCEFE2" />
  <path
    d="M18.75 20.3375L20.35 18.75L41.25 39.65L39.6625 41.25L35.075 36.6625C34.3 37.5 33.175 38.1875 31.875 38.525V41.25H28.125V38.525C25.5875 37.8875 23.75 35.9875 23.75 33.75H26.25C26.25 35.1 27.9625 36.25 30 36.25C31.4125 36.25 32.675 35.7 33.3125 34.9L29.6 31.1875C26.975 30.525 23.75 29.6875 23.75 26.25C23.75 25.9625 23.75 25.6875 23.8375 25.425L18.75 20.3375ZM28.125 21.475V18.75H31.875V21.475C34.4125 22.1125 36.25 24.0125 36.25 26.25H33.75C33.75 24.9 32.0375 23.75 30 23.75C29.5375 23.75 29.1 23.8125 28.6875 23.9125L26.75 21.975L28.125 21.475Z"
    fill="#E3642A" />
</svg>
