<svg viewBox="0 0 82 82" fill="none" xmlns="http://www.w3.org/2000/svg">
  <style>
    .light {
      --circle: #FCEFE2;
      --path: #E3642A;
    }

    .dark {
      --circle: #B25C354D;
      --path: #E3642A;
    }
  </style>
  <defs>
    <g id="i">
      <circle cx="57" cy="25.4453" r="25" fill="var(--circle)" />
      <path
        d="M68.3333 58.5312C70.1456 58.5312 71.8837 57.8113 73.1652 56.5298C74.4467 55.2483 75.1667 53.5102 75.1667 51.6979V14.1146C75.1667 12.3023 74.4467 10.5642 73.1652 9.28269C71.8837 8.00119 70.1456 7.28125 68.3333 7.28125H32.3217C33.5175 9.36542 34.1667 11.7229 34.1667 14.1146H68.3333V51.6979H37.5833V58.5312M51.25 24.3646V31.1979H30.75V75.6146H23.9167V55.1146H17.0833V75.6146H10.25V48.2812H5.125V31.1979C5.125 29.3856 5.84494 27.6475 7.12644 26.366C8.40794 25.0845 10.146 24.3646 11.9583 24.3646H51.25ZM27.3333 14.1146C27.3333 15.9269 26.6134 17.665 25.3319 18.9465C24.0504 20.228 22.3123 20.9479 20.5 20.9479C18.6877 20.9479 16.9496 20.228 15.6681 18.9465C14.3866 17.665 13.6667 15.9269 13.6667 14.1146C13.6667 12.3023 14.3866 10.5642 15.6681 9.28269C16.9496 8.00119 18.6877 7.28125 20.5 7.28125C22.3123 7.28125 24.0504 8.00119 25.3319 9.28269C26.6134 10.5642 27.3333 12.3023 27.3333 14.1146Z"
        fill="var(--path)" />
    </g>
  </defs>
  <view id="light" />
  <use href="#i" class="light" />
  <view id="dark" viewBox="0 82 82 82" />
  <use y="82" href="#i" class="dark" />
</svg>
