<svg width="61" height="6" viewBox="0 0 61 6" fill="none" xmlns="http://www.w3.org/2000/svg">
  <path
    d="M18.0624 2.51641C12.7559 2.4534 5.56373 2.2421 2.98262 2.16281C2.45097 2.14648 2.01515 2.57582 2.02035 3.10769C2.02572 3.65757 2.50209 4.08414 3.04922 4.02902L18.0624 2.51641Z"
    fill="#E3642A" />
  <path
    d="M58.69 3.52022C58.69 3.52022 49.504 4.42091 43.4144 3.72149C37.7155 3.06694 34.281 3.91235 28.58 2.9558C24.2013 2.2211 22.8529 2.5733 18.0624 2.51641M18.0624 2.51641C12.7559 2.4534 5.56373 2.2421 2.98262 2.16281C2.45097 2.14648 2.01515 2.57582 2.02035 3.10769V3.10769C2.02572 3.65757 2.50209 4.08414 3.04922 4.02902L18.0624 2.51641Z"
    stroke="#E3642A" stroke-width="3" stroke-linecap="round" stroke-linejoin="round" />
</svg>
