<svg viewBox="0 0 82 82" fill="none" xmlns="http://www.w3.org/2000/svg">
  <style>
    .light {
      --circle: #FCEFE2;
      --path: #E3642A;
    }

    .dark {
      --circle: #B25C354D;
      --path: #E3642A;
    }
  </style>
  <defs>
    <g id="i">
      <circle cx="57" cy="25.4453" r="25" fill="var(--circle)" />
      <path
        d="M61.4994 36.3229V20.9479L54.2902 24.5696C54.5294 25.5946 54.666 26.6537 54.666 27.7812C54.666 35.3321 48.5502 41.4479 40.9993 41.4479C33.4485 41.4479 27.3327 35.3321 27.3327 27.7812C27.3327 26.6537 27.4693 25.5946 27.7085 24.5696L17.0827 19.2396L40.9993 7.28125L64.916 19.2396V36.3229H61.4994ZM40.9993 31.1979L34.166 27.7812C34.166 31.5396 37.241 34.6146 40.9993 34.6146C44.7577 34.6146 47.8327 31.5396 47.8327 27.7812L40.9993 31.1979ZM50.3952 18.9663L41.546 14.4562L32.3552 19.1371L41.2385 23.6471L50.3952 18.9663ZM40.9993 44.8646C50.1218 44.8646 68.3327 49.4088 68.3327 58.5312V68.7812H13.666V58.5312C13.666 49.4088 31.8768 44.8646 40.9993 44.8646ZM40.9993 51.3563C30.7493 51.3563 20.1577 56.3446 20.1577 58.5312V62.2896H61.841V58.5312C61.841 56.3446 51.1469 51.3563 40.9993 51.3563Z"
        fill="var(--path)" />
    </g>
  </defs>
  <view id="light" />
  <use href="#i" class="light" />
  <view id="dark" viewBox="0 82 82 82" />
  <use y="82" href="#i" class="dark" />
</svg>
