<svg viewBox="0 0 82 82" fill="none" xmlns="http://www.w3.org/2000/svg">
  <style>
    .light {
      --circle: #FCEFE2;
      --path: #E3642A;
    }

    .dark {
      --circle: #B25C354D;
      --path: #E3642A;
    }
  </style>
  <defs>
    <g id="i">
      <circle cx="57" cy="25.4453" r="25" fill="var(--circle)" />
      <path
        d="M34.1673 7.28125H47.834C49.6463 7.28125 51.3844 8.00119 52.6659 9.28269C53.9474 10.5642 54.6673 12.3023 54.6673 14.1146V20.9479H68.334C70.1463 20.9479 71.8844 21.6679 73.1659 22.9494C74.4474 24.2309 75.1673 25.9689 75.1673 27.7812V44.9671C73.459 42.2337 71.0673 39.8762 68.334 38.0312V27.7812H13.6673V65.3646H35.8757C36.9348 67.9271 38.4723 70.2162 40.3515 72.1979H13.6673C9.87482 72.1979 6.83398 69.1229 6.83398 65.3646V27.7812C6.83398 23.9887 9.87482 20.9479 13.6673 20.9479H27.334V14.1146C27.334 10.3221 30.3748 7.28125 34.1673 7.28125ZM47.834 20.9479V14.1146H34.1673V20.9479H47.834ZM69.3931 65.0229L79.9165 75.6146L75.1673 80.3637L64.5073 69.8746C62.1498 71.3437 59.3481 72.1979 56.3756 72.1979C47.834 72.1979 41.0006 65.3646 41.0006 56.8229C41.0006 48.2812 47.834 41.4479 56.3756 41.4479C64.9173 41.4479 71.7506 48.2812 71.7506 56.8229C71.7506 59.8296 70.8965 62.6654 69.3931 65.0229ZM56.3756 65.3646C58.641 65.3646 60.8136 64.4647 62.4155 62.8628C64.0174 61.2609 64.9173 59.0883 64.9173 56.8229C64.9173 54.5575 64.0174 52.3849 62.4155 50.783C60.8136 49.1812 58.641 48.2812 56.3756 48.2812C54.1103 48.2812 51.9377 49.1812 50.3358 50.783C48.7339 52.3849 47.834 54.5575 47.834 56.8229C47.834 59.0883 48.7339 61.2609 50.3358 62.8628C51.9377 64.4647 54.1103 65.3646 56.3756 65.3646Z"
        fill="var(--path)" />
    </g>
  </defs>
  <view id="light" />
  <use href="#i" class="light" />
  <view id="dark" viewBox="0 82 82 82" />
  <use y="82" href="#i" class="dark" />
</svg>
