<svg width="141" height="7" viewBox="0 0 141 7" fill="none" xmlns="http://www.w3.org/2000/svg">
  <path
    d="M40.5 2.5C26.1811 2.32997 6.55852 2.16859 2.72271 2.13759C2.3503 2.13458 2.05735 2.4356 2.05712 2.80803C2.05687 3.18552 2.36802 3.48889 2.74538 3.47911L40.5 2.5Z"
    fill="#E3642A" />
  <path
    d="M139.341 3.49864C139.341 3.49864 117.084 5.68096 102.329 3.98631C88.5211 2.40035 80.3925 2.13107 66.3862 2.13107C55.5 2.13107 52.1072 2.63783 40.5 2.5M40.5 2.5C26.1811 2.32997 6.55852 2.16859 2.72271 2.13759C2.3503 2.13458 2.05735 2.4356 2.05712 2.80803V2.80803C2.05687 3.18552 2.36802 3.48889 2.74538 3.47911L40.5 2.5Z"
    stroke="#E3642A" stroke-width="3" stroke-linecap="round" stroke-linejoin="round" />
</svg>
