<svg width="141" height="7" viewBox="0 0 141 7" xmlns="http://www.w3.org/2000/svg">
  <view id="1" fill="none" xmlns="http://www.w3.org/2000/svg" />
  <path
    d="M40.5 2.5C26.1811 2.32997 6.55852 2.16859 2.72271 2.13759C2.3503 2.13458 2.05735 2.4356 2.05712 2.80803C2.05687 3.18552 2.36802 3.48889 2.74538 3.47911L40.5 2.5Z"
    fill="#E3642A" />
  <path
    d="M139.341 3.49864C139.341 3.49864 117.084 5.68096 102.329 3.98631C88.5211 2.40035 80.3925 2.13107 66.3862 2.13107C55.5 2.13107 52.1072 2.63783 40.5 2.5M40.5 2.5C26.1811 2.32997 6.55852 2.16859 2.72271 2.13759C2.3503 2.13458 2.05735 2.4356 2.05712 2.80803V2.80803C2.05687 3.18552 2.36802 3.48889 2.74538 3.47911L40.5 2.5Z"
    stroke="#E3642A" stroke-width="3" stroke-linecap="round" stroke-linejoin="round" />

  <view id="2" viewBox="0 7 141 7" fill="none" xmlns="http://www.w3.org/2000/svg" />
  <g transform="translate(0 7)">
    <path
      d="M18.0624 2.51641C12.7559 2.4534 5.56373 2.2421 2.98262 2.16281C2.45097 2.14648 2.01515 2.57582 2.02035 3.10769C2.02572 3.65757 2.50209 4.08414 3.04922 4.02902L18.0624 2.51641Z"
      fill="#E3642A" />
    <path
      d="M58.69 3.52022C58.69 3.52022 49.504 4.42091 43.4144 3.72149C37.7155 3.06694 34.281 3.91235 28.58 2.9558C24.2013 2.2211 22.8529 2.5733 18.0624 2.51641M18.0624 2.51641C12.7559 2.4534 5.56373 2.2421 2.98262 2.16281C2.45097 2.14648 2.01515 2.57582 2.02035 3.10769V3.10769C2.02572 3.65757 2.50209 4.08414 3.04922 4.02902L18.0624 2.51641Z"
      stroke="#E3642A" stroke-width="3" stroke-linecap="round" stroke-linejoin="round" />
  </g>

  <view id="3"  viewBox="0 13 141 7" fill="none" xmlns="http://www.w3.org/2000/svg" />
  <g transform="translate(0 14)">
    <path
      d="M30.4776 1.67368C20.4873 1.69409 6.72759 1.58007 3.00024 1.54708C2.46434 1.54233 2.03728 1.97602 2.03826 2.51194C2.03926 3.0677 2.50933 3.50716 3.0639 3.47081L30.4776 1.67368Z"
      fill="#E3642A" />
    <path
      d="M102.463 2.04811C102.463 2.04811 86.1698 3.09146 75.3886 2.4862C65.2989 1.91977 59.199 2.81868 49.1104 1.95019C41.3617 1.28313 38.9667 1.65633 30.4776 1.67368M30.4776 1.67368C20.4873 1.69409 6.72759 1.58007 3.00024 1.54708C2.46434 1.54233 2.03728 1.97602 2.03826 2.51194V2.51194C2.03926 3.0677 2.50933 3.50716 3.0639 3.47081L30.4776 1.67368Z"
      stroke="#E3642A" stroke-width="3" stroke-linecap="round" stroke-linejoin="round" />
  </g>
</svg>
