<svg viewBox="0 0 40 40" fill="none" xmlns="http://www.w3.org/2000/svg">
  <style>
    .light {
      --circle: #FCEFE2;
      --icon: #E3642A;
    }

    .dark {
      --circle: #321d13;
      --icon: #E3642A;
    }
  </style>
  <defs>
    <g id="i">
      <circle cx="20" cy="20" r="20" fill="var(--circle)" />
      <path
        d="M26.4167 24.5C26.8587 24.5 27.2826 24.3244 27.5952 24.0118C27.9077 23.6993 28.0833 23.2754 28.0833 22.8333V13.6667C28.0833 13.2246 27.9077 12.8007 27.5952 12.4882C27.2826 12.1756 26.8587 12 26.4167 12H17.6333C17.925 12.5083 18.0833 13.0833 18.0833 13.6667H26.4167V22.8333H18.9167V24.5M22.25 16.1667V17.8333H17.25V28.6667H15.5833V23.6667H13.9167V28.6667H12.25V22H11V17.8333C11 17.3913 11.1756 16.9674 11.4882 16.6548C11.8007 16.3423 12.2246 16.1667 12.6667 16.1667H22.25ZM16.4167 13.6667C16.4167 14.1087 16.2411 14.5326 15.9285 14.8452C15.616 15.1577 15.192 15.3333 14.75 15.3333C14.308 15.3333 13.884 15.1577 13.5715 14.8452C13.2589 14.5326 13.0833 14.1087 13.0833 13.6667C13.0833 13.2246 13.2589 12.8007 13.5715 12.4882C13.884 12.1756 14.308 12 14.75 12C15.192 12 15.616 12.1756 15.9285 12.4882C16.2411 12.8007 16.4167 13.2246 16.4167 13.6667Z"
        fill="var(--icon)" />
    </g>
  </defs>
  <view id="light" />
  <use href="#i" class="light" />
  <view id="dark" viewBox="0 40 40 40" />
  <use y="40" href="#i" class="dark" />
</svg>
