<svg viewBox="0 0 82 82" fill="none" xmlns="http://www.w3.org/2000/svg">
  <style>
    .light {
      --circle: #FCEFE2;
      --path: #E3642A;
    }

    .small.light {
      --circle: #FFF;
    }

    .dark {
      --circle: #B25C354D;
      --path: #E3642A;
    }

    .small.dark {
      --circle: #000;
    }
  </style>
  <defs>
    <g id="i">
      <circle cx="57" cy="25.4453" r="25" fill="var(--circle)" />
      <path
        d="M47.834 44.8646V38.0312L41.0007 41.4479L34.1673 38.0312V44.8646L27.334 48.2812L34.1673 51.6979V58.5312L41.0007 55.1146L47.834 58.5312V51.6979L54.6673 48.2812M47.834 7.28125H23.9173C22.105 7.28125 20.3669 8.00119 19.0854 9.28269C17.8039 10.5642 17.084 12.3023 17.084 14.1146V61.9479C17.084 63.7602 17.8039 65.4983 19.0854 66.7798C20.3669 68.0613 22.105 68.7812 23.9173 68.7812H27.334V61.9479H23.9173V14.1146H44.4173V27.7812H58.084V61.9479H54.6673V68.7812H58.084C59.8963 68.7812 61.6344 68.0613 62.9159 66.7798C64.1974 65.4983 64.9173 63.7602 64.9173 61.9479V24.3646M47.834 44.8646V38.0312L41.0007 41.4479L34.1673 38.0312V44.8646L27.334 48.2812L34.1673 51.6979V58.5312L41.0007 55.1146L47.834 58.5312V51.6979L54.6673 48.2812M34.1673 79.0312L41.0007 75.6146L47.834 79.0312V61.9479H34.1673M47.834 44.8646V38.0312L41.0007 41.4479L34.1673 38.0312V44.8646L27.334 48.2812L34.1673 51.6979V58.5312L41.0007 55.1146L47.834 58.5312V51.6979L54.6673 48.2812L47.834 44.8646Z"
        fill="var(--path)" />
    </g>
  </defs>
  <view id="light" />
  <use href="#i" class="light" />
  <view id="dark" viewBox="0 82 82 82" />
  <use y="82" href="#i" class="dark" />
  <view id="small-light" viewBox="0 164 82 82" />
  <use y="164" href="#i" class="small light" />
  <view id="small-dark" viewBox="0 246 82 82" />
  <use y="246" href="#i" class="small dark" />
</svg>
