<svg viewBox="0 0 24 24" fill="none" xmlns="http://www.w3.org/2000/svg">
  <g clip-path="url(#clip0_2824_1795)">
    <path
      d="M13.171 20.331C11.8826 19.7521 9.65439 19.4841 8.16387 19.6936C6.71719 19.8969 5.26363 20.3694 4.12856 21.1995C4.04705 21.2557 4.00321 21.2618 3.91553 21.2741C3.69634 21.3049 3.44634 21.1166 3.41553 20.8974L1.61648 8.09642C2.08709 7.62793 2.62003 7.2848 3.24681 6.97319C4.1769 6.52954 5.22809 6.24769 6.25391 6.10352C7.96363 5.86324 9.85415 5.95518 11.261 6.74096C12.3968 5.59783 14.1887 4.98836 15.8985 4.74807C16.9243 4.6039 18.0124 4.58508 19.0288 4.75518C19.7172 4.88196 20.3241 5.06489 20.9056 5.38551L22.7046 18.1865C22.7354 18.4056 22.547 18.6556 22.3279 18.6865C22.2402 18.6988 22.1963 18.7049 22.1025 18.6734C20.7826 18.1884 19.2551 18.1348 17.8084 18.3381C16.3179 18.5476 14.2499 19.4194 13.171 20.331ZM10.5691 8.17935C9.30273 7.82087 7.67524 7.69196 6.50036 7.85708C5.44823 8.00495 4.41458 8.28433 3.49325 8.72675L4.91032 18.8097C5.83164 18.3673 6.86529 18.0879 7.91742 17.94C9.09231 17.7749 10.7198 17.9038 11.9861 18.2623L10.5691 8.17935ZM13.7397 18.0158C14.8582 17.3222 16.3871 16.7497 17.562 16.5846C18.6141 16.4367 19.6847 16.4203 20.6923 16.5917L19.2752 6.50873C18.2677 6.33741 17.197 6.35376 16.1449 6.50162C14.97 6.66674 13.4411 7.23926 12.3226 7.93291L13.7397 18.0158ZM14.2899 15.5692C15.0885 15.144 16.0846 14.852 17.2946 14.682C18.2064 14.5538 18.9528 14.5204 19.5161 14.5843L19.3313 13.2692C18.5487 13.2361 17.8024 13.2694 17.1097 13.3668C15.9349 13.5319 14.9387 13.8239 14.094 14.1751L14.2899 15.5692ZM13.9622 13.2369C14.7607 12.8118 15.7556 12.511 16.9656 12.341C17.8774 12.2128 18.6238 12.1794 19.1871 12.2433L19.0023 10.9282C18.2197 10.8951 17.4746 10.9372 16.782 11.0346C15.6597 11.1923 14.6524 11.468 13.7687 11.8604L13.9622 13.2369ZM13.6307 10.8784C14.4317 10.4708 15.4278 10.1788 16.6378 10.0087C17.4357 9.8966 18.192 9.87077 18.8642 9.94617L18.6732 8.58717C17.892 8.56286 17.1456 8.59622 16.453 8.69357C15.2956 8.85622 14.2795 9.13314 13.4409 9.52817L13.6307 10.8784Z"
      fill="#E3642A" />
  </g>
  <defs>
    <clipPath id="clip0_2824_1795">
      <rect width="21.2494" height="21.2494" fill="white" transform="translate(0 2.96094) rotate(-8)" />
    </clipPath>
  </defs>
</svg>
