<svg width="141" height="6" viewBox="0 0 141 6" fill="none" xmlns="http://www.w3.org/2000/svg">
  <path
    d="M2.05635 3.46047L2.05324 2.55396C2.05132 1.99551 2.50704 1.54365 3.06546 1.55021C7.66593 1.60428 26.9267 1.82015 40.8318 1.81607L3.12615 4.4546C2.54915 4.49497 2.05833 4.03887 2.05635 3.46047Z"
    fill="#E3642A" />
  <path
    d="M138.991 2.56738C138.991 2.56738 116.776 4.08481 102.074 3.15079C88.3142 2.27669 79.9989 3.60513 66.2399 2.27918C55.6721 1.26078 52.4073 1.81267 40.8318 1.81607M40.8318 1.81607C26.9267 1.82015 7.66593 1.60428 3.06546 1.55021C2.50704 1.54365 2.05132 1.99551 2.05324 2.55396L2.05635 3.46047C2.05833 4.03887 2.54915 4.49497 3.12615 4.4546L40.8318 1.81607Z"
    stroke="#E3642A" stroke-width="3" stroke-linecap="round" stroke-linejoin="round" />
</svg>
