<svg width="126" height="7" viewBox="0 0 126 7" fill="none" xmlns="http://www.w3.org/2000/svg">
  <path d="M1.91377 4.36998L1.90908 3.47398C1.90614 2.91328 2.35579 2.45953 2.91643 2.46827C7.20169 2.53503 24.1877 2.7887 36.4792 2.81467L2.9896 5.36186C2.41117 5.40586 1.91681 4.95007 1.91377 4.36998Z" fill="#E3642A"/>
  <path d="M123.992 3.77967C123.992 3.77967 104.19 5.24866 91.0803 4.28268C78.8115 3.37865 71.4012 4.68893 59.1319 3.33308C49.7084 2.29171 46.7989 2.83647 36.4792 2.81467M36.4792 2.81467C24.1877 2.7887 7.20169 2.53503 2.91643 2.46827C2.35579 2.45953 1.90614 2.91328 1.90908 3.47398L1.91377 4.36998C1.91681 4.95007 2.41117 5.40586 2.9896 5.36186L36.4792 2.81467Z" stroke="#E3642A" stroke-width="3" stroke-linecap="round" stroke-linejoin="round"/>
  </svg>
