<svg width="16" height="16" viewBox="0 0 24 24" fill="none" xmlns="http://www.w3.org/2000/svg">
  <g clip-path="url(#clip0_2765_6390)">
    <path
      d="M15.8768 14.1375L9.73934 15L9.49289 13.2465L15.6303 12.3839L15.8768 14.1375ZM18.0142 10.2607L9.24645 11.4929L9 9.73937L17.7678 8.50714L18.0142 10.2607ZM17.5213 6.75359L8.75355 7.98582L8.50711 6.23226L17.2749 5.00003L17.5213 6.75359ZM3.24645 6.9716L5.21801 21L19.2464 19.0285L19.4929 20.782L5.46446 22.7536C4.99939 22.8189 4.5274 22.6969 4.15233 22.4142C3.77725 22.1316 3.52982 21.7115 3.46446 21.2465L1.49289 7.21805L3.24645 6.9716ZM18.5355 1.24648C19.0006 1.18112 19.4726 1.30318 19.8477 1.58582C20.2227 1.86846 20.4702 2.28851 20.5355 2.75359L22.2607 15.0285C22.3974 16.0017 21.7268 16.8917 20.7536 17.0285L8.47868 18.7536C8.0136 18.8189 7.54162 18.6969 7.16654 18.4142C6.79147 18.1316 6.54404 17.7115 6.47868 17.2465L4.75355 4.9716C4.61678 3.99838 5.28744 3.10838 6.26066 2.9716L18.5355 1.24648ZM6.50711 4.72515L8.23223 17L20.5071 15.2749L18.782 3.00003L6.50711 4.72515Z"
      fill="#E3642A" />
  </g>
  <defs>
    <clipPath id="clip0_2765_6390">
      <rect width="21.2494" height="21.2494" fill="white" transform="translate(0 2.96094) rotate(-8)" />
    </clipPath>
  </defs>
</svg>
