<svg class="icon" viewBox="0 0 100 100" xmlns="http://www.w3.org/2000/svg" aria-hidden="true" role="img"><path d="M46.065.026c-.234.024-.984.11-1.66.172-9.617 1.008-19.087 5.079-26.81 11.547-1.426 1.18-4.673 4.427-5.854 5.854C5.346 25.235 1.608 33.806.231 43.952c-.308 2.25-.308 9.85 0 12.1C1.608 66.198 5.346 74.77 11.74 82.406c1.181 1.426 4.428 4.673 5.854 5.853 7.637 6.395 16.209 10.133 26.355 11.51 2.25.308 9.85.308 12.1 0 10.146-1.377 18.718-5.115 26.355-11.51 1.426-1.18 4.673-4.427 5.854-5.853 6.394-7.637 10.133-16.208 11.51-26.354.308-2.25.308-9.85 0-12.1-1.377-10.145-5.116-18.717-11.51-26.353-1.181-1.427-4.428-4.673-5.854-5.854-7.612-6.37-16.27-10.158-26.28-11.498C55.041.1 53.467.038 50.552.013c-2.225-.024-4.255-.012-4.488.013zm.615 5.312c0 1.439.098 4.562.233 7.526.074 1.451.16 3.53.197 4.612.135 3.836.541 13.908.603 14.806l.061.897-.553-.061c-.308-.025-.59-.099-.64-.135-.037-.05-.123-.898-.172-1.894-.221-4.378-.947-21.36-1.02-23.845l-.075-2.73.345-.049c.184-.025.492-.061.688-.074l.333-.012v.96zm11.769-.295c.012.012.049 3.726.086 8.252.049 4.537.11 8.608.147 9.05.037.455.025.849-.037.873-.049.037-.356.037-.664 0l-.565-.049-.086-3.578c-.05-1.98-.111-4.169-.136-4.882-.098-2.177-.184-9.568-.11-9.752.049-.135.184-.148.7-.062.357.074.652.136.665.148zm-28.445 4.12c.073.11.651 6.886 1.365 15.753.233 3.012.467 5.767.504 6.111.061.627.05.652-.344.898-.222.135-.443.246-.492.246-.037 0-.111-.32-.148-.713-.172-1.599-.836-9.322-1.303-14.905-.271-3.283-.517-6.222-.554-6.542-.061-.54-.049-.59.27-.762.394-.21.616-.246.702-.086zm33.856 2.471c.344.123.38.185.455.886.123 1.23.086 7.108-.05 7.108-.356 0-1.094-.418-1.156-.652-.036-.148-.073-1.894-.073-3.874 0-3.996-.05-3.763.824-3.468zm-22.715.578c0 .332.087 2.165.185 4.095.098 1.931.21 4.378.258 5.436.086 2.14.11 2.066-.713 2.115-.406.012-.406.012-.43-.603-.025-.344-.087-1.414-.16-2.398-.062-.983-.21-3.11-.308-4.734a129.358 129.358 0 00-.258-3.579c-.074-.614-.062-.64.27-.762.197-.074.542-.135.763-.135.393-.013.393-.013.393.565zm34.115 1.685l.418.172.086 1.648c.037.898.062 2.84.037 4.304l-.037 2.681-.516-.258-.517-.246-.037-4.083c-.025-2.25-.012-4.156.012-4.242.05-.185.05-.185.554.024zm-22.456 1.611c.074.074.246 6.038.258 9.063l.013 1.82-.579-.086c-.332-.037-.602-.074-.614-.086-.037-.025-.406-9.137-.406-10.022v-.91l.627.073c.357.05.664.111.7.148zm28.322.873c.147.172.172 2.865.209 17.72.037 17.057.037 17.5-.184 17.5a.804.804 0 01-.431-.16c-.184-.135-.209-1.623-.27-16.196-.05-8.83-.111-16.847-.148-17.819l-.074-1.77.357.258c.209.147.443.356.54.467zm-11.031 2.521c.061.05.123.75.135 1.55.061 2.717.074 19.38.012 19.43-.024.024-.246-.038-.492-.136l-.442-.184V18.644l.344.074c.184.049.381.123.443.184zm-33.942.689c.037.332.098 1.082.135 1.697.037.602.123 1.98.197 3.05.147 2.164.123 2.3-.578 2.3-.37 0-.418-.038-.468-.407-.123-.725-.553-6.776-.492-6.874.062-.086.701-.307.997-.332.073-.012.172.246.209.566zm-20.341 3.136c.135 1.303.406 4.033.603 6.062.209 2.03.38 3.75.38 3.825 0 .147-.946.614-1.045.516-.061-.061-1.29-10.945-1.29-11.436 0-.296.946-1.538 1.07-1.402.036.024.159 1.119.282 2.435zm48.22 1.29l.356.21.013 2.656c.012 1.451.037 3.074.037 3.603.024 1.107-.111 1.291-.775 1.058l-.381-.136v-1.057c0-.59-.037-2.3-.086-3.812l-.074-2.73h.283c.147 0 .43.098.627.209zM21.21 28.79c.221 2.361.578 6.346.811 8.854l.419 4.55-.48.48-.467.48-.087-.972c-.049-.541-.295-3.05-.553-5.583-.258-2.533-.627-6.21-.812-8.165l-.344-3.542.48-.443c.43-.406.48-.418.565-.197.05.123.259 2.165.468 4.538zM12 30.277c.27 2.423.983 8.867 1.598 14.314.615 5.448 1.193 10.699 1.304 11.683.098.983.27 2.471.369 3.32.172 1.439.172 1.537-.025 1.685-.295.221-.418.196-.418-.062 0-.11-.11-1.045-.246-2.053a4809.8 4809.8 0 01-1.414-10.945 967.16 967.16 0 01-.738-5.718c-.246-1.857-.602-4.624-.8-6.149a1445.96 1445.96 0 01-.737-5.817c-.222-1.672-.357-3.16-.32-3.32.086-.332.812-1.488.886-1.414.024.037.27 2.041.54 4.476zm-3.764 5.3c.185 1.476.53 4.17.763 6.001.234 1.82.529 4.095.664 5.042l.234 1.722-.259.221c-.147.123-.295.172-.344.123-.05-.049-.147-.54-.221-1.082-.074-.541-.53-3.701-1.021-7.01l-.873-6.025.283-.836c.147-.455.307-.824.344-.824.05 0 .234 1.205.43 2.668zm67.516-1.61c.172.172.197.934.197 6.578v6.383h-.345c-.75 0-.738.184-.787-6.8l-.037-6.358h.394c.209 0 .48.086.578.196zm-26.92 2.2c2.779.419 5.202 1.193 7.6 2.423 1.55.8 2.287 1.353 4.009 3 2.558 2.448 4.132 4.588 5.608 7.613 2.152 4.402 2.988 8.3 4.046 18.753.48 4.685 1.106 13.183 1.242 16.663.037 1.008.123 2.669.197 3.69.135 2.164.295 1.868-1.612 2.79-2.644 1.28-5.19 2.165-8.546 2.99-4.108 1.007-6.764 1.327-10.823 1.34l-2.951.012.025-1.414c0-.775.073-2.583.147-3.997.369-6.85.295-15.495-.184-20.29-.27-2.755-.8-6.1-1.095-6.838-.061-.16.222-.295 1.439-.713 2.226-.775 4.157-1.746 4.452-2.226.529-.91-.418-2.214-1.623-2.214-.21 0-.837.222-1.415.48-2.755 1.267-8.276 2.755-11.461 3.087-2.202.233-5.62.098-7.994-.332-1.291-.234-3.603-1.107-5.534-2.103-2.226-1.156-3.591-2.693-3.997-4.513-.221-.984-.16-2.952.123-4.059.308-1.217 1.168-2.988 1.956-4.02 3.504-4.612 10.735-8.609 18.151-10.01 2.361-.443 5.706-.493 8.24-.111zm37.939.382c.442.184.492.233.492.652.024 3.357-.05 11.03-.111 11.35-.013.11-.652.123-.922.025-.173-.062-.197-.726-.197-6.15 0-3.885.049-6.074.123-6.074.061 0 .344.086.615.197zm5.374 6.751l.443.184-.087 10.183c-.098 12.973-.11 13.355-.578 14.474-.762 1.832-.725 2.2-.651-5.842.024-4.02.086-8.091.11-9.038.025-.947.05-3.616.062-5.94 0-2.803.037-4.205.123-4.205.074 0 .332.086.578.184zm-73.96 3.062c.074.996.05 1.094-.307 1.882l-.393.836-.148-1.23c-.234-1.968-.234-2.054.234-2.349.209-.147.43-.246.467-.221.037.024.11.516.148 1.082zm-7.6 7.415c.111 1.009.972 7.698 1.415 10.982.664 5.079.713 5.804.418 5.497-.037-.037-.32-1.746-.615-3.8-1.919-13.257-1.906-13.17-1.746-13.269.332-.221.442-.098.528.59zm8.855 5.633c.074.307.43 3.64.43 4.045 0 .345-.443.664-.64.468-.06-.062-.22-1.107-.344-2.312-.135-1.218-.27-2.484-.307-2.816l-.074-.615.43.492c.247.27.468.602.505.738zm9.924 4.636c.136.123.222.614.332 1.943.185 2.398.21 2.213-.295 2.213-.516 0-.504.037-.676-2.127-.173-2.202-.173-2.177.16-2.177.16 0 .368.074.48.148zm9.74.184c.025.123.086.86.135 1.636.037.774.148 2.52.246 3.873.345 4.968.357 5.596.148 5.596-.234 0-.258-.185-.529-3.69a260.265 260.265 0 00-.406-5.078c-.11-1.34-.184-2.46-.147-2.484.135-.148.492-.037.553.147zm-23.12 2.361c.074.11.541 4.046 1.12 9.42.171 1.623.344 3.185.38 3.48l.062.529-.308-.197c-.233-.16-.32-.32-.32-.602 0-.775-.528-5.879-.934-9.002-.233-1.77-.418-3.333-.418-3.48 0-.258.295-.357.418-.148zm70.971 5.14l-.086 5.14-.308.456c-.7 1.033-.664 1.23-.627-4.526l.025-5.275.455-.468c.246-.245.492-.455.541-.455.037 0 .037 2.312 0 5.129zM75.58 79.885c.062 7.144.05 7.698-.147 7.92-.123.134-.234.22-.27.184-.087-.099-.21-15.68-.111-15.766.049-.049.172-.073.283-.061.16.037.196.91.245 7.723zM35.415 74.99c.086.763.393 4.415.516 6.137.074 1.156.074 1.193-.197 1.279-.147.049-.32.036-.368-.025-.087-.086-.357-2.816-.69-7.022l-.085-1.008h.381c.357 0 .381.024.443.64zm-9.666 4.304c.086.086.147.394.147.701 0 .32.148 1.98.308 3.702.467 4.71.504 5.35.295 5.226-.32-.184-.603-.467-.541-.54.024-.05-.025-.665-.123-1.366a61.075 61.075 0 01-.246-2.582c-.05-.714-.16-2.017-.258-2.89-.234-2.152-.222-2.398.049-2.398a.58.58 0 01.369.147zm5.817 8.276c.036.271.11 1.28.16 2.239.085 1.844.049 1.98-.456 1.598-.147-.11-.246-.578-.393-1.98-.258-2.533-.27-2.434.209-2.385.357.037.406.086.48.528z" fill="#000"/><path d="M27.017 42.156c-1.275.58-1.373 2.4-.171 3.044.87.464 1.752.245 2.206-.555.858-1.47-.54-3.173-2.035-2.49zm8.31 1.238c-1.176.761-1.176 2.593 0 3.354 1.165.736 2.673-.232 2.673-1.703 0-1.419-1.544-2.373-2.672-1.65z" fill="currentColor"/></svg>