<svg viewBox="0 0 100 100" xmlns="http://www.w3.org/2000/svg">
  <path d="M18.33 16.67A6.66 6.66 0 0115 22.4v65.93A1.71 1.71 0 0113.33 90H10a1.72 1.72 0 01-1.67-1.67V22.4a6.65 6.65 0 1110-5.73zM95 20v39.74c0 1.93-1.2 2.66-2.71 3.44-5.88 3.17-12.39 6-19.22 6-9.58 0-14.16-7.29-25.52-7.29-8.28 0-17 3.75-24.16 7.6a3.35 3.35 0 01-5.06-2.86V28A3.42 3.42 0 0120 25.16a37.09 37.09 0 014.11-2.24c6.56-3.34 14.53-6.25 21.93-6.25 8.17 0 14.58 2.7 21.82 6.09a10 10 0 004.58 1c8.18 0 17-7.08 19.27-7.08A3.36 3.36 0 0195 20z" fill="currentColor"/>
</svg>
