<svg viewBox="0 0 16 16" fill="none" xmlns="http://www.w3.org/2000/svg">
<g clip-path="url(#clip0_656:573)">
<path d="M14.9596 6.57575C14.1666 5.47046 13.1217 4.56994 11.9114 3.94874C10.7012 3.32755 9.36036 3.00354 8 3.00354C6.63964 3.00354 5.29884 3.32755 4.08858 3.94874C2.87833 4.56994 1.83344 5.47046 1.0404 6.57575C0.611523 7.16382 0.261731 7.80568 0 8.48484C0.252249 9.16242 0.591814 9.8042 1.0101 10.3939C1.80314 11.4992 2.84803 12.3997 4.05828 13.0209C5.26853 13.6421 6.60933 13.9661 7.9697 13.9661C9.33006 13.9661 10.6709 13.6421 11.8811 13.0209C13.0914 12.3997 14.1363 11.4992 14.9293 10.3939C15.3476 9.8042 15.6871 9.16242 15.9394 8.48484C15.6966 7.80882 15.3673 7.16711 14.9596 6.57575ZM8 12.0202C7.30077 12.0202 6.61725 11.8128 6.03586 11.4244C5.45448 11.0359 5.00134 10.4838 4.73376 9.83776C4.46618 9.19176 4.39616 8.48092 4.53258 7.79513C4.66899 7.10934 5.0057 6.4794 5.50013 5.98497C5.99456 5.49054 6.6245 5.15383 7.31029 5.01742C7.99608 4.88101 8.70692 4.95102 9.35292 5.2186C9.99892 5.48618 10.5511 5.93932 10.9395 6.5207C11.328 7.10209 11.5354 7.78561 11.5354 8.48484C11.5354 9.42248 11.1629 10.3217 10.4999 10.9847C9.83686 11.6477 8.93763 12.0202 8 12.0202Z" fill="#3FE1B0"/>
<path d="M8 10.5051C9.11573 10.5051 10.0202 9.60059 10.0202 8.48486C10.0202 7.36914 9.11573 6.46466 8 6.46466C6.88427 6.46466 5.9798 7.36914 5.9798 8.48486C5.9798 9.60059 6.88427 10.5051 8 10.5051Z" fill="#3FE1B0"/>
</g>
<defs>
<clipPath id="clip0_656:573">
<rect width="16" height="10.9697" fill="white" transform="translate(0 3)"/>
</clipPath>
</defs>
</svg>
