<svg viewBox="0 0 16 16" fill="none" role="img" xmlns="http://www.w3.org/2000/svg">
  <title>Observation icon</title>
<g clip-path="url(#clip0_656:525)">
<path d="M14.9596 6.57575C14.1666 5.47046 13.1217 4.56994 11.9114 3.94874C10.7012 3.32755 9.36036 3.00354 8 3.00354C6.63964 3.00354 5.29884 3.32755 4.08858 3.94874C2.87833 4.56994 1.83344 5.47046 1.0404 6.57575C0.611523 7.16382 0.261731 7.80568 0 8.48484C0.252249 9.16242 0.591814 9.8042 1.0101 10.3939C1.80314 11.4992 2.84803 12.3997 4.05828 13.0209C5.26853 13.6421 6.60933 13.9661 7.9697 13.9661C9.33006 13.9661 10.6709 13.6421 11.8811 13.0209C13.0914 12.3997 14.1363 11.4992 14.9293 10.3939C15.3476 9.8042 15.6871 9.16242 15.9394 8.48484C15.6966 7.80882 15.3673 7.16711 14.9596 6.57575ZM8 12.4545C6.67717 12.4525 5.38145 12.0794 4.26009 11.3776C3.13873 10.6759 2.23672 9.67367 1.65657 8.48484C2.23986 7.3002 3.14323 6.30257 4.26435 5.60494C5.38547 4.90731 6.67954 4.53755 8 4.53755C9.32045 4.53755 10.6145 4.90731 11.7356 5.60494C12.8568 6.30257 13.7601 7.3002 14.3434 8.48484C13.7633 9.67367 12.8613 10.6759 11.7399 11.3776C10.6186 12.0794 9.32283 12.4525 8 12.4545Z" fill="#FBFBFE"/>
<path d="M8 5.45453C7.40066 5.45453 6.81478 5.63225 6.31645 5.96523C5.81812 6.2982 5.42972 6.77147 5.20037 7.32519C4.97101 7.8789 4.911 8.48819 5.02792 9.07601C5.14485 9.66384 5.43346 10.2038 5.85725 10.6276C6.28105 11.0514 6.821 11.34 7.40882 11.4569C7.99664 11.5738 8.60593 11.5138 9.15965 11.2845C9.71336 11.0551 10.1866 10.6667 10.5196 10.1684C10.8526 9.67005 11.0303 9.08417 11.0303 8.48483C11.0303 7.68115 10.711 6.91038 10.1427 6.34208C9.57446 5.77379 8.80369 5.45453 8 5.45453ZM8 9.99998C7.70033 9.99998 7.40739 9.91112 7.15823 9.74464C6.90906 9.57815 6.71486 9.34151 6.60018 9.06466C6.4855 8.7878 6.4555 8.48315 6.51396 8.18924C6.57242 7.89533 6.71673 7.62536 6.92863 7.41346C7.14052 7.20156 7.4105 7.05726 7.70441 6.99879C7.99832 6.94033 8.30297 6.97034 8.57982 7.08501C8.85668 7.19969 9.09332 7.39389 9.2598 7.64306C9.42629 7.89222 9.51515 8.18516 9.51515 8.48483C9.51515 8.88668 9.35552 9.27206 9.07137 9.55621C8.78723 9.84035 8.40184 9.99998 8 9.99998Z" fill="#FBFBFE"/>
</g>
<defs>
<clipPath id="clip0_656:525">
<rect role="presentation" width="16" height="10.9697" fill="white" transform="translate(0 3)"/>
</clipPath>
</defs>
</svg>
