<svg width="13" height="13" fill="none" xmlns="http://www.w3.org/2000/svg"><g clip-path="url(#a)"><path d="M7.15 5.85h-.894a.406.406 0 0 1-.406-.406V2.356c0-.224.182-.406.406-.406h.894m0 6.5h-.894a.406.406 0 0 1-.406-.406v-.488c0-.224.182-.406.406-.406h.894M11.7 0H1.3C.585 0 0 .585 0 1.3v10.72c0 .361.438.542.694.286L2.48 10.52a.407.407 0 0 1 .287-.119H11.7c.715 0 1.3-.585 1.3-1.3V1.3c0-.715-.585-1.3-1.3-1.3Z" fill="#000"/></g><defs><clipPath id="a"><path fill="#fff" d="M0 0h13v13H0z"/></clipPath></defs></svg>