<svg width="16" height="16" viewBox="0 0 16 16" fill="none" xmlns="http://www.w3.org/2000/svg">
<path d="M8.99984 5.33333H7.99984V8.66667L10.8532 10.36L11.3332 9.55333L8.99984 8.16667V5.33333ZM8.6665 2C7.07521 2 5.54908 2.63214 4.42386 3.75736C3.29864 4.88258 2.6665 6.4087 2.6665 8H0.666504L3.3065 10.6867L5.99984 8H3.99984C3.99984 6.76232 4.4915 5.57534 5.36667 4.70017C6.24184 3.825 7.42883 3.33333 8.6665 3.33333C9.90418 3.33333 11.0912 3.825 11.9663 4.70017C12.8415 5.57534 13.3332 6.76232 13.3332 8C13.3332 9.23768 12.8415 10.4247 11.9663 11.2998C11.0912 12.175 9.90418 12.6667 8.6665 12.6667C7.37984 12.6667 6.21317 12.14 5.37317 11.2933L4.4265 12.24C5.51317 13.3333 6.99984 14 8.6665 14C10.2578 14 11.7839 13.3679 12.9091 12.2426C14.0344 11.1174 14.6665 9.5913 14.6665 8C14.6665 6.4087 14.0344 4.88258 12.9091 3.75736C11.7839 2.63214 10.2578 2 8.6665 2Z" fill="#347A3F"/>
</svg>
