<svg class="icon" viewBox="0 0 100 100" xmlns="http://www.w3.org/2000/svg" aria-hidden="true" role="img"><path d="M95 52.06a36 36 0 01-.35 5.22H36.84c0 10 8.79 17.23 18.43 17.23a18.72 18.72 0 0016.18-8.89h21.24a40.44 40.44 0 01-56 22.75c-5.63 2.86-13.51 5.83-19.79 5.83C8.46 94.2 5 89 5 81a51.8 51.8 0 012.26-13.82c.8-2.91 4-8.84 5.47-11.5a116.33 116.33 0 0123.86-30.44C28.9 28.55 20.57 36.89 15.14 43a40.47 40.47 0 0139.43-31.37h2.26C63.06 8.82 71.75 5.8 78.58 5.8c8.13 0 15.12 3.12 15.12 12.31 0 4.82-1.86 10-3.77 14.36A40.58 40.58 0 0195 52.06zm-3.52-32.14c0-5.63-4-9.09-9.54-9.09-4.22 0-9 1.7-12.76 3.51a40.79 40.79 0 0119.74 16.43c1.26-3.32 2.56-7.34 2.56-10.85zM11.43 82c0 5.83 3.46 9 9.19 9 4.47 0 9.44-2 13.36-4.17a40.42 40.42 0 01-17.63-21.46C14 70.19 11.43 76.62 11.43 82zm25.31-35.77H73.3C73 36.54 64.41 29.56 55 29.56s-17.93 7-18.28 16.67z" fill="currentColor"/></svg>
