<svg viewBox="2 2 20 22" fill="none" xmlns="http://www.w3.org/2000/svg">
  <path
    d="M20 2H4C2.9 2 2 2.9 2 4V20.7929C2 21.2383 2.53857 21.4614 2.85355 21.1464L5.85355 18.1464C5.94732 18.0527 6.0745 18 6.20711 18H20C21.1 18 22 17.1 22 16V4C22 2.9 21.1 2 20 2ZM13 13.5C13 13.7761 12.7761 14 12.5 14H11.5C11.2239 14 11 13.7761 11 13.5V12.5C11 12.2239 11.2239 12 11.5 12H12.5C12.7761 12 13 12.2239 13 12.5V13.5ZM14.8 9C14.5 9.4 14.1 9.6 13.7 9.8C13.4379 9.9747 13.3285 10.0731 13.2384 10.2285C13.2114 10.275 13.1794 10.3184 13.1457 10.3603C13.1072 10.4081 13.0788 10.4565 13.058 10.5068C12.9523 10.7619 12.7761 11 12.5 11H11.5C11.2239 11 10.9889 10.7733 11.0439 10.5027C11.0876 10.2878 11.164 10.1131 11.273 9.94152C11.2906 9.91372 11.3115 9.88821 11.3354 9.86553C11.538 9.6731 11.9026 9.40205 12.353 9.12837C12.3842 9.10943 12.4176 9.09457 12.4517 9.08143C12.7231 8.97658 12.9059 8.78829 13 8.6C13.1 8.4 13.2 8.1 13.2 7.9C13.2 7.6 13.1 7.4 12.9 7.2C12.7 7 12.4 6.9 12.1 6.9C11.8 6.9 11.6 7 11.4 7.1C11.335 7.1325 11.2806 7.17556 11.2367 7.22919C11.0618 7.44291 10.8761 7.7 10.6 7.7H9.67651C9.37223 7.7 9.13449 7.42796 9.23053 7.13924C9.38311 6.68055 9.6396 6.28832 10 6C10.5 5.6 11.2 5.5 12.1 5.5C13 5.5 13.8 5.7 14.3 6.1C14.7853 6.48822 15.0822 7.06484 15.0992 7.73844C15.1003 7.7793 15.1055 7.81999 15.1135 7.86008C15.1895 8.24005 15.085 8.62003 14.8 9Z"
    fill="black" />
</svg>