<svg width="16" height="15" viewBox="0 0 16 15" fill="none" xmlns="http://www.w3.org/2000/svg">
<path d="M8 0C12.4 0 16 2.864 16 6.4C16 9.936 12.4 12.8 8 12.8C7.10512 12.8 6.2428 12.6828 5.43652 12.4719C5.27335 12.4293 5.09941 12.4671 4.96752 12.5722C3.64144 13.6293 2.18776 14.075 1.19758 14.2629C0.759941 14.346 0.531259 13.8523 0.815689 13.5095C1.75891 12.3726 2.06598 11.5363 2.16287 11.0552C2.19488 10.8962 2.12535 10.7388 2.00504 10.63C0.760176 9.50447 0 8.02101 0 6.4C0 2.864 3.6 0 8 0Z" fill="#CECECE"/>
</svg>
