<svg width="16" height="16" viewBox="0 0 16 16" fill="none" xmlns="http://www.w3.org/2000/svg">
<path d="M12.1905 9.38095H13.7143V11.6667H16V13.1905H13.7143V15.4762H12.1905V13.1905H9.90476V11.6667H12.1905V9.38095ZM7.61905 1C11.8095 1 15.2381 3.72762 15.2381 7.09524C15.2381 7.53714 15.1771 7.96381 15.0705 8.37524C14.4381 8.04762 13.7143 7.85714 12.9524 7.85714C10.4305 7.85714 8.38095 9.90667 8.38095 12.4286L8.44191 13.1524L7.61905 13.1905C6.67429 13.1905 5.76762 13.0533 4.92952 12.8095C2.70476 14.7143 0 14.7143 0 14.7143C0 14 2.05714 11.7429 2.09524 11.2857C0.8 10.1962 0 8.72571 0 7.09524C0 3.72762 3.42857 1 7.61905 1Z" fill="#4E4E4E"/>
</svg>
