<svg width="362" height="318" viewBox="0 0 362 318" fill="none" xmlns="http://www.w3.org/2000/svg">
<path fill-rule="evenodd" clip-rule="evenodd" d="M219.364 217.973C243.702 210.209 315.185 171.631 325.448 149.06C336.259 125.283 317.49 90.5217 290.73 71.5437C264.456 52.9111 234.579 71.6478 210.35 65.529C188.354 59.9739 166.164 51.5938 144.36 60.0365C121.116 69.037 146.341 105.169 99.804 117.681C51.5343 130.659 51.0934 176.87 64.5673 197.3C77.4283 216.801 132.041 197.29 155.454 203.734C177.252 209.733 197.153 225.059 219.364 217.973Z" fill="url(#paint0_linear_6334_7500)"/>
<path fill-rule="evenodd" clip-rule="evenodd" d="M204.165 304.049C166.315 303.775 129.033 304.682 100.697 305.957C70.8451 307.301 43.9894 312.009 47.7804 314C48.9242 318.249 89.7662 314.073 118.564 315.343C144.709 316.496 169.302 317.859 204.165 317.997C241.331 318.144 260.846 312.875 304.574 316.078C352.061 319.556 365.503 315.933 360.409 314C355.547 312.155 308.835 308.528 281.346 307.262C255.754 306.084 238.707 304.298 204.165 304.049Z" fill="#D5D5D5"/>
<ellipse cx="17.8995" cy="18.347" rx="17.8995" ry="18.347" transform="matrix(-1 0 0 1 35.7969 40)" fill="#F9CD6B"/>
<path d="M19.8965 60.6341L21.5278 65.2219L20.1514 65.7112L18.5202 61.1235L18.7538 60.6322L18.6687 60.3783C17.67 60.6507 16.5751 60.58 15.5739 60.104C14.5018 59.5944 13.6761 58.6797 13.2784 57.5612C12.8807 56.4427 12.9436 55.2121 13.4533 54.14C13.9629 53.0679 14.8776 52.2422 15.9961 51.8445C17.1146 51.4468 18.3452 51.5097 19.4173 52.0194C20.4894 52.5291 21.3151 53.4437 21.7128 54.5622C22.1105 55.6807 22.0476 56.9113 21.5379 57.9834C21.0619 58.9847 20.2574 59.7307 19.3109 60.1499L19.4052 60.4006L19.8965 60.6341ZM18.9738 52.9522L18.6229 52.8083C18.3199 53.0607 17.8297 53.4986 17.3454 54.0842L19.124 54.9297C19.2725 54.1845 19.3025 53.5278 19.307 53.1335C19.2039 53.0616 19.092 53.0084 18.9738 52.9522ZM20.9275 55.7871C20.8651 54.9721 20.5108 54.1938 19.9172 53.6142C19.9097 54.0147 19.8749 54.5853 19.7459 55.2254L20.9275 55.7871ZM15.5419 53.2268L16.7235 53.7885C17.1385 53.2844 17.559 52.8972 17.8649 52.6385C17.0407 52.544 16.2133 52.7607 15.5419 53.2268ZM14.3861 54.5835C14.2383 54.8944 14.1313 55.2477 14.0857 55.5843L15.4165 56.217L15.7854 55.2487L16.3035 54.3513L14.9726 53.7186C14.7404 53.9666 14.5339 54.2725 14.3861 54.5835ZM20.0186 58.4048C20.2508 58.1569 20.4572 57.8509 20.6051 57.54C20.7529 57.229 20.8598 56.8758 20.9055 56.5391L19.5747 55.9064C19.4766 56.241 19.3536 56.5638 19.2058 56.8747C19.058 57.1857 18.8853 57.4848 18.6877 57.7721L20.0186 58.4048ZM16.9254 54.647L16.4073 55.5443L16.0384 56.5126L18.0658 57.4765C18.2634 57.1892 18.4361 56.89 18.5839 56.5791C18.7317 56.2681 18.8547 55.9454 18.9528 55.6108L16.9254 54.647ZM16.0173 59.1712C16.1293 59.2244 16.2412 59.2776 16.3558 59.3092C16.665 59.0597 17.1615 58.6248 17.6458 58.0392L15.8672 57.1937C15.7187 57.9389 15.6949 58.5985 15.6966 58.9958L16.0173 59.1712ZM19.4493 58.8966L18.2677 58.3349C17.8526 58.839 17.4322 59.2262 17.1262 59.4849C17.9505 59.5794 18.7778 59.3627 19.4493 58.8966ZM14.0637 56.3363C14.1261 57.1513 14.4803 57.9296 15.074 58.5092C15.0814 58.1087 15.1163 57.5382 15.2453 56.898L14.0637 56.3363Z" fill="white" fill-opacity="0.9"/>
<path d="M12.2021 45.729C12.4033 45.3057 12.7645 44.9796 13.2062 44.8226C13.6479 44.6656 14.1338 44.6904 14.5572 44.8917L17.7496 46.4094L16.9908 48.0056L13.7983 46.4879L12.2806 49.6803L10.6844 48.9215L12.2021 45.729ZM23.7683 70.7975C23.567 71.2208 23.2058 71.5469 22.7642 71.7039C22.3225 71.8609 21.8366 71.8361 21.4132 71.6348L18.2208 70.1171L18.9796 68.5209L22.1721 70.0386L23.6898 66.8462L25.286 67.605L23.7683 70.7975ZM5.45098 64.0463C5.02763 63.8451 4.70158 63.4839 4.54454 63.0422C4.3875 62.6006 4.41234 62.1146 4.6136 61.6913L6.1313 58.4988L7.72752 59.2577L6.20983 62.4501L9.40227 63.9678L8.64342 65.564L5.45098 64.0463ZM30.5194 52.4801C30.9427 52.6814 31.2688 53.0426 31.4258 53.4843C31.5829 53.9259 31.558 54.4119 31.3568 54.8352L29.8391 58.0277L28.2428 57.2688L29.7605 54.0764L26.5681 52.5587L27.3269 50.9625L30.5194 52.4801Z" fill="white"/>
<circle cx="14.34" cy="14.34" r="14.34" transform="matrix(-1 0 0 1 87.6797 20)" fill="#F9CD6B"/>
<g clip-path="url(#clip0_6334_7500)">
<path d="M76.9214 30.5537L75.4228 31.2399L75.0797 30.4905C74.7366 29.7412 73.9873 30.0843 73.9873 30.0843L72.4886 30.7704L72.1455 30.0211C71.8025 29.2717 71.0531 29.6148 71.0531 29.6148L70.3038 29.9579L69.6177 28.4592C69.2746 27.7099 68.5252 28.053 68.5252 28.053C64.7786 29.7683 63.1535 34.138 64.8689 37.8846C66.5843 41.6313 70.9539 43.2563 74.7006 41.541C78.4472 39.8256 80.0723 35.456 78.3569 31.7093C78.1854 31.3346 78.0138 30.96 77.7674 30.6196C77.371 30.3479 76.9214 30.5537 76.9214 30.5537ZM67.8346 37.4332C67.2352 37.7077 66.4705 37.4233 66.196 36.8238C65.9216 36.2243 66.206 35.4597 66.8054 35.1852C67.4049 34.9107 68.1696 35.1951 68.444 35.7946C68.7185 36.3941 68.4341 37.1587 67.8346 37.4332ZM67.0717 32.7973C66.7973 32.1978 67.0817 31.4331 67.6811 31.1586C68.2806 30.8842 69.0453 31.1686 69.3197 31.768C69.5942 32.3675 69.3098 33.1322 68.7104 33.4066C68.1109 33.6811 67.3462 33.3967 67.0717 32.7973ZM73.2651 40.3854C72.6656 40.6598 71.9009 40.3754 71.6265 39.776C71.352 39.1765 71.6364 38.4118 72.2359 38.1374C72.8353 37.8629 73.6 38.1473 73.8745 38.7468C74.1489 39.3462 73.8646 40.1109 73.2651 40.3854ZM71.9244 36.4672C71.3249 36.7416 70.5602 36.4572 70.2858 35.8578C70.0113 35.2583 70.2957 34.4936 70.8952 34.2192C71.4946 33.9447 72.2593 34.2291 72.5338 34.8286C72.8082 35.428 72.5239 36.1927 71.9244 36.4672ZM76.3572 36.2505C75.7577 36.5249 74.993 36.2405 74.7186 35.6411C74.4441 35.0416 74.7285 34.2769 75.328 34.0025C75.9274 33.728 76.6921 34.0124 76.9666 34.6118C77.241 35.2113 76.9567 35.976 76.3572 36.2505ZM80.8848 33.2711L82.3835 32.585L83.0696 34.0837L81.5709 34.7698L80.8848 33.2711ZM79.6389 26.5903L81.6973 31.0863L80.1986 31.7725L78.1402 27.2765L79.6389 26.5903Z" fill="white"/>
</g>
<path d="M285.422 156L347.422 183.818V225.545C347.422 264.143 320.969 300.237 285.422 309C249.875 300.237 223.422 264.143 223.422 225.545V183.818L285.422 156ZM285.422 197.727C275.777 197.727 266.133 205.377 266.133 215.114V225.545C262 225.545 257.866 229.718 257.866 234.586V258.927C257.866 263.1 262 267.273 266.822 267.273H304.711C308.844 267.273 312.977 263.1 312.977 258.232V233.891C312.977 229.718 308.844 225.545 304.711 225.545V215.114C304.711 205.377 295.066 197.727 285.422 197.727ZM285.422 206.073C290.933 206.073 295.755 209.55 295.755 215.114V225.545H275.089V215.114C275.089 209.55 279.911 206.073 285.422 206.073Z" fill="#B5B1F8"/>
<path d="M196.308 155.193L209.82 150.799L205.316 163.249L188.051 164.713L185.048 161.784C185.048 161.784 181.14 156.12 179.043 152.263C175.777 146.258 171.536 128.096 171.536 128.096L177.542 127.363L196.308 155.193Z" fill="#D99654"/>
<path d="M234.157 303.844L241.562 305.296V309.654L226.752 310.38C226.752 310.38 226.461 309.003 226.752 308.201C227.458 306.256 230.279 308.023 231.936 306.749C233.073 305.874 234.157 303.844 234.157 303.844Z" fill="#0D086C"/>
<path d="M210.813 302.91L218.219 304.363V308.72L203.408 309.446C203.408 309.446 203.117 308.069 203.408 307.268C204.114 305.322 206.935 307.09 208.592 305.815C209.729 304.94 210.813 302.91 210.813 302.91Z" fill="#0D086C"/>
<path d="M218.692 138.958L223.9 136.726C223.9 136.726 229.853 130.029 224.645 127.052C219.436 124.076 226.906 123.229 225.389 121.844C223.826 120.418 221.945 124.498 220.18 123.332C218.24 122.05 226.133 117.379 220.18 117.379C214.227 117.379 219.663 115.266 218.692 114.402C216.954 112.858 213.941 112.413 212.739 114.402C212.609 114.618 212.531 114.863 212.493 115.124C211.917 113.728 211.045 112.419 209.762 112.17C208.308 111.888 206.042 112.914 206.042 112.914V114.402C206.042 114.402 204.453 115.064 203.81 115.891C203.411 116.404 203.016 116.731 203.065 117.379C203.128 118.198 204.23 118.112 204.554 118.867C204.897 119.668 204.51 120.229 204.554 121.099C204.986 129.714 216.459 139.702 216.459 139.702L218.692 138.958Z" fill="black" stroke="black"/>
<path d="M195.307 128.409C195.186 130.446 197.636 130.955 198.264 131.79C201.453 136.031 198.006 139.439 204.158 140.825C208.963 139.733 209.666 140.874 212.205 132.189C212.84 123.069 209.979 121.899 206.06 121C202.692 120.801 202.606 124.213 200.603 126.814C198.444 128.732 197.746 128.206 195.307 128.409Z" fill="#F2AE9B"/>
<path d="M214.227 130.027L206.786 128.539" stroke="black" stroke-width="0.5"/>
<path d="M219.332 143.032L216.27 133.843C216.27 133.843 217.682 133.452 218.312 132.822C219.203 131.93 219.511 131.006 219.332 129.758C219.206 128.876 219.024 128.252 218.311 127.717C217.354 127 216.345 127.239 215.248 127.717C213.729 128.38 212.949 131.284 212.949 131.284L211.998 130.03L204.158 140.829C204.158 140.829 208.004 138.757 210.142 139.785C213.002 141.16 211.998 147.696 211.998 147.696C213.527 145.991 217.802 144.737 219.332 143.032Z" fill="#F2AE9B"/>
<path d="M205.125 135.93C205.125 135.93 202.123 137.728 200.07 136.75" stroke="black" stroke-width="0.2" stroke-linecap="round" stroke-linejoin="round"/>
<path d="M202.33 126.66C201.577 128.001 201.963 129.595 203.117 130.242C204.272 130.889 205.833 130.388 206.585 129.047C207.338 127.705 206.952 126.112 205.798 125.465C204.643 124.817 203.082 125.318 202.33 126.66Z" stroke="black" stroke-width="0.5"/>
<path d="M202.32 126.311C202.32 126.311 201.576 125.565 200.832 125.566" stroke="black" stroke-width="0.5"/>
<ellipse cx="0.744105" cy="1.48821" rx="0.744105" ry="1.48821" transform="matrix(-0.848214 -0.529653 -0.529653 0.848214 205.297 126.352)" fill="black"/>
<path d="M204.35 256.591C201.285 239.592 212.135 214.855 212.135 214.855C212.135 214.855 211.209 217.945 225.75 217.946C240.291 217.946 241.25 215.185 241.25 215.185C241.25 215.185 240.943 235.072 241.907 248.194C243.237 266.314 241.907 305.648 241.907 305.648L232.825 306.38L220.903 248.194V277.092V305.648L210.335 302.719C210.335 302.719 206.595 269.038 204.35 256.591Z" fill="#EA9541"/>
<path d="M221.664 250.001L212.735 216.32C212.735 216.32 201.573 232.429 204.55 252.198C207.526 271.967 211.247 303.452 211.247 303.452L221.664 306.381V250.001Z" fill="#E8672C"/>
<path d="M212.759 216.506C213.079 220.014 231.451 220.341 242.498 216.506C242.498 216.506 242.6 200.406 241.266 190.215C239.623 177.658 236.706 170.987 233.784 158.666C233.404 157.03 224.057 145.145 222.561 144.394L219.568 142.892C218.251 142.892 212.881 146.961 211.608 147.94C211.658 147.875 211.684 147.84 211.684 147.84L211.337 148.15C211.337 148.15 211.435 148.074 211.608 147.94C210.819 148.987 204.052 157.939 202.359 159.417C200.12 161.371 198.617 161.671 198.617 161.671L186.068 130.73L181.409 131.766L188.143 163.173C188.143 163.173 191.482 170.126 195.625 171.436C198.414 172.318 200.305 171.971 203.107 171.129C205.689 170.353 209.093 167.68 209.093 167.68L212.759 216.506Z" fill="#F7E7CD"/>
<path d="M177.949 126.367L172.195 128.642C172.195 128.642 168.283 122.349 168.201 121.404C168.118 120.459 168.34 121.024 168.34 121.024M172.568 117.083C172.568 117.083 171.985 116.334 172.178 117.562C172.372 118.789 173.923 122.738 173.923 122.738M170.484 116.925C170.484 116.925 170.012 116.459 170.094 117.403C170.177 118.348 172.562 122.947 172.562 122.947M169.426 118.643C169.426 118.643 168.704 118.275 169.148 119.404C169.591 120.533 171.672 123.623 171.672 123.623" stroke="black" stroke-width="0.5" stroke-linecap="round"/>
<path d="M177.133 126.636C177.133 126.636 182.051 121.233 179.962 122.265C178.17 123.151 177.173 123.119 176.695 122.988L176.33 122.818L173.26 117.262C173.26 117.262 172.048 116.151 172.174 117.339C172.3 118.526 173.628 122.374 173.628 122.374L170.873 116.865C170.873 116.865 170.08 116.216 170.111 117.128C170.141 118.04 172.263 122.537 172.263 122.537L169.982 118.403C169.982 118.403 168.681 117.929 169.061 119.029C169.44 120.129 171.341 123.163 171.341 123.163L168.678 120.391C168.678 120.391 167.98 120.017 168.011 120.929C168.041 121.842 172.158 128.558 172.158 128.558L177.133 126.636Z" fill="#FE987B"/>
<path d="M173.56 125.367C173.56 125.367 174.053 124.373 174.568 123.818C175.026 123.326 176.314 122.956 176.314 122.956" stroke="black" stroke-width="0.5" stroke-linecap="round"/>
<path d="M193.175 121.545L125.619 92.8173C125.619 92.8173 105.611 90.3547 104.571 93.6779C103.439 97.2953 119.646 108.137 119.646 108.137L147.305 115.366L191.641 127.443L193.175 121.545Z" fill="#D9D9D9"/>
<path d="M129.039 94.2898C129.039 94.2898 124.131 90.7225 119.518 88.3772C115.43 86.2986 108.741 83.885 108.741 83.885C108.741 83.885 106.252 88.6426 104.822 91.798C103.266 95.2328 101.274 100.988 101.274 100.988C101.274 100.988 107.766 105.666 112.514 106.413C117.171 107.146 119.644 108.135 119.644 108.135C119.644 108.135 123.305 104.714 125.499 101.999C127.686 99.2925 129.039 94.2898 129.039 94.2898Z" fill="#3E7AD8"/>
<path d="M159.375 115.157C159.375 115.157 150.706 120.407 145.89 119.657C141.075 118.907 140.111 110.656 140.111 110.656C140.111 110.656 140.784 120.218 144.927 119.657C148.796 119.133 145.89 115.157 145.89 115.157" stroke="#90BAE1"/>
<path d="M149.745 124.157C146.971 123.202 145.893 118.906 145.893 118.906C144.351 120.106 143.966 120.906 143.966 121.156C143.966 121.406 144.6 123.692 145.893 124.907C147.292 126.222 148.597 126.695 150.708 127.157C151.282 127.283 151.955 127.342 152.635 127.361V204.389C150.472 204.689 148.782 205.164 148.782 205.164L145.893 208.915L140.113 251.669L135.298 306.424H140.113L143.003 251.669L148.782 208.915L152.635 208.165V306.424H156.488V208.165L160.34 208.915L165.156 252.419L166.119 306.424H171.898L169.009 251.669L163.23 208.915C163.23 208.915 162.006 206.276 160.34 205.164C159.347 204.501 157.959 204.223 156.488 204.161V127.157V124.157L152.635 124.588C152.635 124.588 150.796 124.518 149.745 124.157Z" fill="#90BAE1"/>
<path d="M186.695 129.945L182.741 130.907C182.741 130.907 178.978 124.135 178.982 123.17C178.986 122.205 179.141 122.809 179.141 122.809M183.33 119.482C183.33 119.482 182.86 118.638 182.934 119.904C183.008 121.17 184.094 125.386 184.094 125.386M181.441 119.005C181.441 119.005 181.049 118.463 181.045 119.428C181.041 120.392 182.833 125.389 182.833 125.389M180.332 120.575C180.332 120.575 179.703 120.094 180.014 121.299C180.324 122.504 181.964 125.934 181.964 125.934" stroke="black" stroke-width="0.5" stroke-linecap="round"/>
<path d="M186.058 126.166C186.058 126.166 186.244 124.852 186.539 124.115C186.801 123.461 187.412 122.606 187.412 122.606" stroke="black" stroke-width="0.5" stroke-linecap="round"/>
<path d="M186.448 129.704C186.448 129.704 188.801 121.405 187.254 122.965C186.92 123.301 186.681 123.864 186.512 124.44C186.221 125.431 186.137 126.463 186.137 126.463L183.643 119.721C183.643 119.721 182.86 118.637 182.933 119.903C183.007 121.169 184.093 125.384 184.093 125.384L181.754 119.244C181.754 119.244 181.049 118.462 181.045 119.427C181.041 120.391 182.833 125.388 182.833 125.388L180.882 120.753C180.882 120.753 179.703 120.093 180.013 121.298C180.323 122.503 181.964 125.933 181.964 125.933L179.613 122.685C179.613 122.685 178.985 122.204 178.981 123.169C178.977 124.134 182.74 130.906 182.74 130.906L186.448 129.704Z" fill="#F2AE9B"/>
<circle cx="10.8786" cy="10.8786" r="10.8786" transform="matrix(-1 0 0 1 72.7578 90)" fill="#F9CD6B"/>
<path d="M60.5457 97.4407C63.3358 96.2485 68.2426 98.4988 68.2426 98.4988C68.2426 98.4988 66.3631 103.726 63.4681 104.79C60.6924 105.811 56.0326 103.354 56.0326 103.354C56.0326 103.354 57.8744 98.5821 60.5457 97.4407Z" stroke="white"/>
<path fill-rule="evenodd" clip-rule="evenodd" d="M63.4011 103.273C62.1649 103.764 60.7644 103.161 60.2728 101.925C59.7813 100.688 60.3849 99.2878 61.6211 98.7962C62.8573 98.3047 64.2578 98.9084 64.7494 100.145C65.2409 101.381 64.6372 102.781 63.4011 103.273ZM61.9551 102.12C61.4253 102.331 60.8251 102.072 60.6144 101.543C60.4038 101.013 60.6625 100.413 61.1923 100.202C61.722 99.9913 62.3223 100.25 62.5329 100.78C62.7436 101.31 62.4849 101.91 61.9551 102.12Z" fill="white"/>
<defs>
<linearGradient id="paint0_linear_6334_7500" x1="144.551" y1="45.6208" x2="219.834" y2="204.145" gradientUnits="userSpaceOnUse">
<stop stop-color="#090968"/>
<stop offset="1" stop-color="#5A23D7"/>
</linearGradient>
<clipPath id="clip0_6334_7500">
<rect width="19.7792" height="19.7792" fill="white" transform="translate(60 29.2344) rotate(-24.6001)"/>
</clipPath>
</defs>
</svg>
