<svg viewBox="0 0 16 16" fill="none" xmlns="http://www.w3.org/2000/svg">
<path d="M14.2,4.3c-0.6-0.5-1.2-0.8-1.9-0.9c-0.4-0.1-0.8-0.1-1.2-0.2c-0.3,0-0.6,0-0.9,0c-1.4,0-2.9,0-4.3,0
	c-0.3,0-0.6,0-0.9,0c-0.4,0-0.8,0.1-1.2,0.2C3,3.5,2.4,3.8,1.8,4.3C0.7,5.2,0,6.5,0,8s0.7,2.8,1.8,3.7c0.6,0.5,1.2,0.8,1.9,0.9
	c0.4,0.1,0.8,0.1,1.2,0.2c0.3,0,0.6,0,0.9,0c1.4,0,2.9,0,4.3,0c0.3,0,0.6,0,0.9,0c0.4,0,0.8-0.1,1.2-0.2c0.7-0.2,1.3-0.5,1.9-0.9
	C15.3,10.8,16,9.5,16,8C16,6.5,15.3,5.2,14.2,4.3z M12.1,9.3c-0.2,0.1-0.5,0.2-0.7,0.3c-0.3,0-0.5,0-0.8,0c-1.8,0-3.5,0-5.2,0
	c-0.3,0-0.5,0-0.8,0c-0.3,0-0.5-0.1-0.7-0.3C3.5,9,3.2,8.5,3.2,8s0.3-1,0.7-1.3c0.2-0.1,0.5-0.2,0.7-0.3c0.3,0,0.5,0,0.8,0
	c1.8,0,3.5,0,5.2,0c0.3,0,0.5,0,0.8,0c0.3,0,0.5,0.1,0.7,0.3C12.5,7,12.8,7.5,12.8,8C12.8,8.5,12.5,9,12.1,9.3z"/>
</svg>
