<svg xmlns="http://www.w3.org/2000/svg" viewBox="0 0 500 500" role="img"><path d="M385.66 254.36c7.12 11.07 21.86 14.26 32.93 7.14s14.26-21.86 7.14-32.93c-36.81-57.2-104.14-92.74-175.72-92.74-8.21 0-16.35.49-24.41 1.4l47.9 47.9c46.39 6.46 88.04 31.75 112.15 69.22ZM74.26 228.64c-7.12 11.07-3.91 25.81 7.16 32.93a23.75 23.75 0 0 0 12.86 3.79c7.84 0 15.51-3.86 20.06-10.94 15.21-23.66 37.42-42.46 63.38-54.75l-35.24-35.24c-27.56 15.83-51.18 37.69-68.23 64.21ZM149.01 292.45c-7.67 10.69-5.21 25.58 5.48 33.25a23.68 23.68 0 0 0 13.86 4.47c7.42 0 14.73-3.46 19.38-9.94 15.44-21.53 38.14-33.88 62.28-33.88 5.55 0 11.01.68 16.34 1.95l-45.88-45.88c-28.06 7.19-53.19 24.55-71.47 50.04Z"/><rect x="244.22" y="39.55" width="44.23" height="385.98" rx="22.11" ry="22.11" transform="rotate(135 266.34 232.54)"/><circle cx="255.51" cy="363.51" r="39.51" style="fill:#231f20"/></svg>
