<svg class="icon" viewBox="0 0 100 100" xmlns="http://www.w3.org/2000/svg" aria-hidden="true" role="img"><path d="M80 16.45a32.35 32.35 0 00-18-5.52c-10.69 0-20.14 5.47-26.77 13.71A40.77 40.77 0 0026.75 49v2.1a40.74 40.74 0 008.43 24.31C41.81 83.6 51.26 89.07 62 89.07a32.39 32.39 0 0018-5.52A44.77 44.77 0 0150 95h-2.16A45 45 0 0150 5h.15A44.92 44.92 0 0180 16.45zM95 50a44.87 44.87 0 01-14.57 33.1 21.39 21.39 0 01-11.15 3.16A22 22 0 0156.48 82c10.19-3.72 17.73-16.62 17.73-32s-7.48-28.28-17.68-32a22.15 22.15 0 0112.76-4.17 21.61 21.61 0 0111.35 3.27A44.87 44.87 0 0195 50z" fill="currentColor"/></svg>
