<svg viewBox="0 0 16 16" fill="none" role="img" xmlns="http://www.w3.org/2000/svg">
  <title>Play icon</title>
<path d="M8.8916 2.7509C8.91063 2.66132 8.99835 2.60385 9.08808 2.62216C9.17885 2.64068 9.23712 2.72962 9.21787 2.82024L7.00174 13.2491C6.9827 13.3387 6.89499 13.3962 6.80525 13.3778C6.71449 13.3593 6.65621 13.2704 6.67546 13.1798L8.8916 2.7509ZM2.06149 8.35328C1.86597 8.15806 1.86584 7.84127 2.06121 7.6459L4.49485 5.21226C4.60008 5.10703 4.78 5.18155 4.78 5.33037C4.78 5.37467 4.7624 5.41716 4.73108 5.44848L3.24121 6.93835C2.65484 7.52472 2.65551 8.47561 3.24269 9.06115L4.73078 10.5451C4.76229 10.5765 4.78 10.6192 4.78 10.6637C4.78 10.8128 4.59974 10.8876 4.4942 10.7822L2.06149 8.35328Z" stroke="#4E4E4E"/>
<path d="M11.5 5.20711L14.2929 8L11.5 10.7929V5.20711L11.8536 4.85355L11.5 5.20711Z" fill="#4E4E4E" stroke="#4E4E4E"/>
</svg>
