<svg xmlns="http://www.w3.org/2000/svg" width="16" height="16" viewBox="0 0 42.333 42.333">
    <g aria-label="{↑}">
        <path
            d="M13.859.863v1.164q-.323 0-.556.059-.227.052-.344.2-.111.144-.085.413l.165 1.561q.063.593-.133.958-.19.365-.587.561-.392.19-.926.27.566.085.958.275.391.19.571.55.18.36.117.964l-.165 1.56q-.026.265.085.413.117.149.35.201.232.059.55.059v1.164q-.73 0-1.239-.106-.508-.106-.814-.339-.302-.227-.418-.603-.112-.37-.059-.905l.16-1.513q.041-.402-.139-.63-.174-.227-.518-.317-.344-.096-.794-.096V5.372q.445 0 .789-.09.344-.096.523-.323.18-.228.138-.63l-.159-1.503q-.058-.545.053-.92.117-.376.418-.604.307-.232.815-.333.513-.106 1.244-.106z"
            style="-inkscape-font-specification:&quot;Fira Code Bold&quot;"
            transform="matrix(2.8446 0 0 2.8446 -25.617 3.96)" />
        <path
            d="m19.03 3.516.146 4.598-1.407.045-.011-1.044q0-.464.03-.756.034-.295.13-.64L14.41 9.23l-1.092-1.092 3.502-3.503q-.303.094-.61.124-.3.03-.763.03l-1.06-.011.046-1.407z"
            style="-inkscape-font-specification:&quot;Fira Code Bold&quot;"
            transform="matrix(2.8446 0 0 2.8446 -25.617 3.96)" />
        <path
            d="M19.034.863q.73 0 1.239.106.508.106.81.339.306.227.423.603.116.37.058.905l-.159 1.513q-.042.402.138.63.18.227.518.323.344.09.794.09v1.354q-.445 0-.788.096-.344.09-.524.317-.18.228-.138.63l.159 1.503q.058.545-.058.92-.112.376-.418.604-.302.232-.815.333-.508.106-1.239.106V10.07q.323 0 .55-.059.234-.052.345-.2.116-.149.09-.413l-.164-1.561q-.064-.598.127-.958.195-.365.592-.556.397-.196.932-.275-.567-.085-.963-.275-.392-.19-.572-.55-.18-.366-.116-.964l.164-1.56q.026-.27-.09-.413-.111-.149-.344-.201-.228-.059-.55-.059Z"
            style="-inkscape-font-specification:&quot;Fira Code Bold&quot;"
            transform="matrix(2.8446 0 0 2.8446 -25.617 3.96)" />
    </g>
</svg>
