<svg xmlns="http://www.w3.org/2000/svg" viewBox="0 0 16 8.5301">
  <path fill="currentColor" d="M7.0292,1.8556,8.0078,3.01,9.0694,1.8556a.4864.4864,0,0,1-.4431-.217A1.3155,1.3155,0,0,1,8.4878.9509.979.979,0,0,1,8.7232.2446.9109.9109,0,0,1,9.411,0h1.9663a1.3165,1.3165,0,0,1,.8863.24,1.0078,1.0078,0,0,1,.2677.7847.9807.9807,0,0,1-.2631.7524,1.1681,1.1681,0,0,1-.817.2447h-.36l-1.93,2.1048L11.47,6.49h.2123a1.1455,1.1455,0,0,1,.8078.2539.9923.9923,0,0,1,.2723.7616.9793.9793,0,0,1-.2816.7847,1.3927,1.3927,0,0,1-.9093.24H9.3371a.9108.9108,0,0,1-.6877-.2446.9648.9648,0,0,1-.2355-.697,1.3025,1.3025,0,0,1,.1431-.697.5076.5076,0,0,1,.457-.217h.0739L7.9154,5.3729,6.78,6.6745h.037a.5481.5481,0,0,1,.48.2078,1.1156,1.1156,0,0,1,.1477.6416,1.0937,1.0937,0,0,1-.2262.7616.9054.9054,0,0,1-.697.2446H4.5551a1.314,1.314,0,0,1-.8909-.24,1.0184,1.0184,0,0,1-.2631-.7847,1.0341,1.0341,0,0,1,.2539-.7616A1.0341,1.0341,0,0,1,4.4166,6.49H4.592L6.78,4.2743,4.6659,2.0218H4.38a1.1924,1.1924,0,0,1-.8216-.2493.955.955,0,0,1-.277-.7478A.9882.9882,0,0,1,3.5581.24,1.3554,1.3554,0,0,1,4.4535,0H6.6876a.8959.8959,0,0,1,.697.2493,1.0963,1.0963,0,0,1,.2262.757,1.1477,1.1477,0,0,1-.1431.6369A.4923.4923,0,0,1,7.0292,1.8556Z"/>
  <path fill="currentColor" d="M12.6626,3.2219h2.885a.4679.4679,0,0,1,.337.1108A.4273.4273,0,0,1,16,3.6558V4.81a.5079.5079,0,0,1-.1431.3508.4166.4166,0,0,1-.3093.157h-2.885a.3466.3466,0,0,1-.2908-.1385.5913.5913,0,0,1-.1062-.3693V3.6558a.4442.4442,0,0,1,.1108-.3139A.3716.3716,0,0,1,12.6626,3.2219Z"/>
  <path fill="currentColor" d="M.397,3.2219H3.282a.468.468,0,0,1,.337.1108.4273.4273,0,0,1,.1154.3231V4.81a.5079.5079,0,0,1-.1431.3508.4166.4166,0,0,1-.3093.157H.397A.3464.3464,0,0,1,.1062,5.179.5913.5913,0,0,1,0,4.81V3.6558a.4442.4442,0,0,1,.1108-.3139A.3716.3716,0,0,1,.397,3.2219Z"/>
</svg>
