<svg viewBox="0 0 16 16" fill="none" xmlns="http://www.w3.org/2000/svg"><path d="M8.684 1v1.416a5.606 5.606 0 0 1 4.884 6.253c-.323 2.552-2.33 4.578-4.884 4.88v1.402a6.995 6.995 0 0 0 6.28-7.663C14.65 3.958 12.005 1.33 8.684 1Zm-1.403.021a6.9 6.9 0 0 0-3.74 1.542l1.003 1.038A5.613 5.613 0 0 1 7.28 2.423V1.021Zm-4.73 2.53A6.926 6.926 0 0 0 1 7.289h1.403a5.617 5.617 0 0 1 1.151-2.734L2.551 3.552Zm7.887 1.985-3.424 3.42-1.488-1.485-.744.743 2.232 2.23 4.168-4.165-.744-.743ZM1.007 8.69a7.034 7.034 0 0 0 1.55 3.736l.997-1.002A5.607 5.607 0 0 1 2.41 8.69H1.007Zm3.537 3.764-1.004.96A7.017 7.017 0 0 0 7.28 15v-1.402a5.619 5.619 0 0 1-2.736-1.143Z" fill="#347A3F"/><circle cx="8" cy="8" r="6.25" stroke="#347A3F" stroke-width="1.5"/></svg>