<svg viewBox="0 0 16 16" fill="none" xmlns="http://www.w3.org/2000/svg"><path d="M8.667 1.336v1.333c2.927.36 5 3.02 4.64 5.947a5.343 5.343 0 0 1-4.64 4.64v1.333a6.662 6.662 0 0 0 5.9-7.353c-.347-3.107-2.793-5.567-5.9-5.9Zm-1.333 0A6.531 6.531 0 0 0 3.78 2.803l.953 1.026a5.33 5.33 0 0 1 2.6-1.12V1.336ZM2.84 3.783a6.54 6.54 0 0 0-1.474 3.553H2.7c.126-.947.5-1.847 1.093-2.6l-.953-.953ZM1.374 8.669a6.693 6.693 0 0 0 1.473 3.554l.947-.954a5.335 5.335 0 0 1-1.087-2.6H1.374Zm3.333 3.58-.926.914a6.663 6.663 0 0 0 3.553 1.506v-1.333a5.335 5.335 0 0 1-2.6-1.087h-.027Z" fill="#B3B3B3"/></svg>