<svg xmlns="http://www.w3.org/2000/svg" viewBox="0 0 500 500" role="img"><path d="M250 7.62C116.14 7.62 7.62 116.14 7.62 250S116.14 492.38 250 492.38 492.38 383.86 492.38 250 383.86 7.62 250 7.62Zm23.54 391.66c-6.45 6.38-15.43 9.57-26.93 9.57s-20.9-3.12-27.35-9.36c-6.45-6.24-9.68-15.04-9.68-26.41s3.16-20.69 9.47-26.72c6.31-6.03 15.5-9.05 27.56-9.05s20.65 3.09 27.04 9.26c6.38 6.17 9.57 15.01 9.57 26.51s-3.23 19.81-9.68 26.2Zm69.43-191.78c-7.02 11.22-20.34 23.85-39.98 37.87-13.47 9.96-21.99 17.54-25.56 22.72-3.58 5.19-5.37 11.99-5.37 20.41v12.62H216.3v-15.57c0-13.47 2.87-25.18 8.63-35.14 5.75-9.96 16.27-20.55 31.56-31.77 14.73-10.52 24.44-19.07 29.14-25.67 4.7-6.59 7.05-13.96 7.05-22.09 0-9.12-3.37-16.06-10.1-20.83-6.73-4.77-16.13-7.15-28.19-7.15-21.04 0-45.03 6.87-71.96 20.62l-22.93-46.08c31.28-17.53 64.45-26.3 99.52-26.3 28.89 0 51.86 6.94 68.91 20.83 17.04 13.89 25.56 32.4 25.56 55.55 0 15.43-3.51 28.76-10.52 39.98Z" style="fill:#231f20"/></svg>
