<svg viewBox="0 0 16 16" fill="currentColor" xmlns="http://www.w3.org/2000/svg">
<path d="M8.48438 12.2812V8.88281C8.48438 7.10156 8.69531 5.64062 9.11719 4.5C9.55469 3.35938 10.2891 2.39062 11.3203 1.59375C12.3516 0.796875 13.5234 0.265625 14.8359 0V2.71875C13.9141 3.25 13.3906 3.96094 13.2656 4.85156H14.8359V12.2812H8.48438ZM0 12.2812V8.88281C0 7.10156 0.210938 5.64062 0.632812 4.5C1.07031 3.35938 1.80469 2.39062 2.83594 1.59375C3.88281 0.796875 5.05469 0.265625 6.35156 0V2.71875C5.42969 3.25 4.90625 3.96094 4.78125 4.85156H6.35156V12.2812H0Z" fill="var(--text-primary)"/>
</svg>
