<svg class="icon" viewBox="0 0 100 100" xmlns="http://www.w3.org/2000/svg" aria-hidden="true" role="img"><path d="M52.66 49.85a3 3 0 01-2.91 3.21 3.06 3.06 0 11-.25-6.12 3 3 0 013.16 2.91zm.75 2.91L71 23.58C68.63 25.79 46.63 46 46 47.09L28.5 76.22c2.31-2.16 24.36-22.5 24.91-23.46zM85.91 50a35.75 35.75 0 01-5.22 18.63 23.71 23.71 0 00-3-1.75.66.66 0 00-.65.65c0 .65 2.36 1.86 3 2.21a36.11 36.11 0 01-21.45 15.12l-.8-3.37c-.06-.45-.36-.5-.76-.5s-.55.5-.5.75l.81 3.41a35.59 35.59 0 01-7.34.76 36.05 36.05 0 01-18.68-5.28A29 29 0 0033.53 77a.66.66 0 00-.65-.65c-.7 0-2.21 3-2.66 3.62a36.13 36.13 0 01-15.17-21.7l3.47-.75a.66.66 0 00.5-.75c0-.35-.5-.56-.81-.5L14.8 57a35.69 35.69 0 014.77-26 23.79 23.79 0 003.31 2 .63.63 0 00.66-.6c0-.71-2.66-2.06-3.27-2.46A36.18 36.18 0 0142 15l.75 3.37a.66.66 0 00.75.5c.35 0 .56-.5.5-.81l-.75-3.31a37.07 37.07 0 016.75-.66 36 36 0 0119 5.47 19.08 19.08 0 00-2 3.27.62.62 0 00.6.65c.71 0 2.06-2.61 2.41-3.22a35.94 35.94 0 0114.9 21.45l-2.82.6c-.45.1-.5.4-.5.8s.5.56.76.51l2.86-.62a36.83 36.83 0 01.7 7zm4.27 0A40.18 40.18 0 1050 90.18 40.17 40.17 0 0090.18 50zM95 50A45 45 0 1150 5a45 45 0 0145 45z" fill="currentColor"/></svg>
