<svg class="icon" viewBox="0 0 100 100" xmlns="http://www.w3.org/2000/svg" aria-hidden="true" role="img"><path d="M 30.839844 5 A 25.93 25.93 0 0 0 5 30.869141 L 5 69.130859 A 25.93 25.93 0 0 0 30.839844 95 L 69.160156 95 A 25.91 25.91 0 0 0 95 69.189453 L 95 30.869141 A 25.93 25.93 0 0 0 69.160156 5 L 30.839844 5 z M 48.619141 20.316406 A 29.66 29.66 0 0 1 79.570312 48.070312 C 84.650312 52.070312 87.290312 56.360938 86.320312 59.960938 C 85.350313 63.560938 80.919688 65.879297 74.429688 66.779297 A 50 50 0 0 1 68.769531 67.230469 A 84 84 0 0 1 46.140625 64.140625 A 82.27 82.27 0 0 1 25.060547 55.269531 L 25 55.279297 A 39 39 0 0 1 20.369141 52.070312 C 15.229141 48.020313 12.659141 43.769922 13.619141 40.169922 C 14.579141 36.569922 19.020859 34.259375 25.380859 33.359375 A 29.66 29.66 0 0 1 48.619141 20.316406 z M 47.804688 24.587891 A 25.5 25.5 0 0 0 24.410156 50 C 29.680156 53.54 37.719063 57.070078 47.039062 59.580078 C 56.666671 62.144115 65.577261 63.174525 72.003906 62.732422 A 25.27 25.27 0 0 0 75.410156 50.199219 L 75.410156 50 A 25.5 25.5 0 0 0 47.804688 24.587891 z M 23.259766 37.140625 C 20.259766 37.850625 18.259375 39.139141 17.859375 40.869141 C 17.459375 42.599141 18.370234 44.659062 20.490234 46.789062 A 30.3 30.3 0 0 1 23.070312 37.589844 L 23.259766 37.140625 z M 79.390625 52.839844 L 79.330078 53.220703 A 26.67 26.67 0 0 1 77.132812 61.882812 C 79.670666 61.112778 81.264168 59.957654 81.710938 58.369141 C 82.160938 56.769141 81.320625 54.829844 79.390625 52.839844 z M 21.369141 57.910156 A 49.51 49.51 0 0 0 27.160156 61.380859 A 25.42 25.42 0 0 0 64 71.279297 C 66.39 71.279297 68.709531 71.279844 70.769531 71.089844 A 29.63 29.63 0 0 1 21.369141 57.910156 z" fill="currentColor"/></svg>
