<svg class="icon" viewBox="0 0 100 100" xmlns="http://www.w3.org/2000/svg" aria-hidden="true" role="img"><path d="M69.16 95H30.84A25.93 25.93 0 015 69.13V30.87A25.93 25.93 0 0130.84 5h38.32A25.93 25.93 0 0195 30.87v38.32A25.91 25.91 0 0169.16 95z" fill="currentColor"/><path d="M64 71.28a25.42 25.42 0 01-36.84-9.9 49.51 49.51 0 01-5.79-3.47 29.63 29.63 0 0049.4 13.18c-2.06.19-4.38.19-6.77.19zm-39-16a39 39 0 01-4.63-3.21c-5.14-4.05-7.71-8.3-6.75-11.9s5.4-5.91 11.76-6.81a29.66 29.66 0 0154.19 14.71c5.08 4 7.72 8.29 6.75 11.89s-5.4 5.92-11.89 6.82a50 50 0 01-5.66.45 84 84 0 01-22.63-3.09 82.27 82.27 0 01-21.08-8.87zm47 7.46a25.27 25.27 0 003.41-12.54V50a25.49 25.49 0 00-51 0c5.27 3.54 13.31 7.07 22.63 9.58 9.65 2.57 18.58 3.6 25.01 3.15zm5.08-.84c2.57-.77 4.18-1.93 4.63-3.53s-.39-3.54-2.32-5.53l-.06.38a26.67 26.67 0 01-2.2 8.67zM23.07 37.59l.19-.45c-3 .71-5 2-5.4 3.73s.51 3.79 2.63 5.92a30.3 30.3 0 012.58-9.2z" fill="#fff"/></svg>
