<svg version="1.2" xmlns="http://www.w3.org/2000/svg" viewBox="0 0 768 794" width="768" height="794">
	<path id="Layer" fill-rule="evenodd" class="s0" d="m739.7 266.5c-16.7-40.1-50.5-83.3-77-97.1 21.7 42.3 34.2 84.9 38.8 116.5l0.2 0.7c-43.5-108.2-117.1-151.8-177.2-246.8-3-4.8-6-9.6-9-14.7-1.6-2.6-2.9-5.2-4.3-8-2.5-4.8-4.3-9.8-5.6-15.2 0-0.5-0.4-0.9-0.9-1q-0.4 0-0.8 0l-0.1 0.1c-0.2 0-0.3 0.1-0.3 0.1 0 0 0-0.1 0.1-0.2-85.4 50-120.7 137.6-129.8 193.2-26.4 1.6-52.2 8.2-76 19.4-4.6 2.3-6.7 7.6-5 12.2 2 5.4 8 8 13.2 5.6 20.8-9.7 43.2-15.6 66.2-17.1l2.3-0.3c3.1-0.1 6.3-0.3 9.5-0.3 18.6-0.1 37.2 2.5 55 7.7l3.2 0.9c3 0.9 5.8 1.9 8.8 3 2.1 0.8 4.3 1.6 6.4 2.5 1.7 0.6 3.4 1.4 5.1 2.1 2.6 1.2 5.2 2.5 7.8 3.8l3.5 1.6c2.6 1.4 5.1 2.8 7.6 4.2 1.6 0.9 3.1 1.8 4.7 2.9 27.7 17.2 50.9 41 67 69.4-20.4-14.3-57.1-28.6-92.4-22.4 138 69 100.9 306.6-90.4 297.6-17-0.6-33.8-3.9-49.8-9.6-3.9-1.4-7.7-3-11.4-4.6-2.1-1-4.4-2-6.5-3.1-46.9-24.2-85.5-70-90.3-125.7 0 0 17.7-66 126.8-66 11.8 0 45.6-32.9 46.2-42.4-0.3-3.2-67.1-29.7-93.1-55.3-13.9-13.7-20.4-20.3-26.3-25.3-3.1-2.7-6.5-5.2-10-7.5-8.7-30.6-9.1-63.1-1.1-93.8-39.4 18-70 46.4-92.3 71.4h-0.2c-15.2-19.3-14.1-82.9-13.3-96.1-0.1-0.9-11.3 5.7-12.8 6.7-13.4 9.7-26 20.4-37.5 32.2q-19.7 19.9-35.9 43c-24.6 34.9-42.2 74.4-51.4 116.1-0.2 0.5-3.7 16.2-6.3 35.4-0.5 3-0.9 6-1.3 9-1 7.3-1.8 14.7-2.2 22l-0.1 1.2c-0.2 4.3-0.5 8.5-0.8 12.8v1.9c0 212 171.9 383.9 383.9 383.9 189.8 0 347.5-137.9 378.4-318.9 0.6-4.9 1.1-9.9 1.7-14.8 7.7-65.8-0.8-135.1-25-192.9zm-553-71.3c0.3 0 0.2 0 0 0zm92.5 46.2c0.3 0 0.1 0 0 0z"/>
</svg>