<svg class="icon" viewBox="0 0 16 16" xmlns="http://www.w3.org/2000/svg" aria-hidden="true" role="img"><path d="M14.389 3.133a7.96 7.96 0 0 0-.696-.795 6.28 6.28 0 0 0-.636-.584c.129.113.253.231.37.357a4.48 4.48 0 0 1 .976 1.625c.418 1.263.39 2.844-.407 4.085-.95 1.48-2.498 2.21-4.171 2.174a3.38 3.38 0 0 1-.218-.006c-3.003-.18-3.76-3.252-2.198-4.58-.421-.09-1.213.087-1.764.91-.494.737-.467 1.877-.161 2.685A4.316 4.316 0 0 1 5.09 7.74c-.395-2.663 1.398-4.935 3.042-5.497-.887-.773-3.11-.72-4.764.493-.964.708-1.654 1.714-2.017 2.913.053-.673.308-1.678.831-2.704C1.63 3.23.924 4.135.576 4.972.074 6.18-.103 7.624.056 8.998l.037.309A8.01 8.01 0 1 0 14.39 3.133Zm.014.603a4.48 4.48 0 0 0-.976-1.625c-.51-.55-1.146-.97-1.82-1.295A8.109 8.109 0 0 0 9.82.184a7.983 7.983 0 0 0-3.313-.02C5.37.404 4.37.894 3.739 1.508c.474-.288 1.135-.52 1.606-.64 2.186-.55 4.593.046 6.234 1.617.33.315.626.669.866 1.058.98 1.588.887 3.584.123 4.761-.567.875-1.781 1.696-2.914 1.687 1.738.09 3.359-.64 4.342-2.17.798-1.241.825-2.822.407-4.085Z" fill="currentColor"/></svg>
