<svg viewBox="0 0 16 16" fill="none" role="img" xmlns="http://www.w3.org/2000/svg">
<title>Favorites icon</title>
<g clip-path="url(#clip0_729:606)">
<path d="M8 2.83501L9.5 5.35501C9.63979 5.58415 9.82428 5.78281 10.0425 5.93915C10.2607 6.09549 10.5081 6.20631 10.77 6.26501L13.63 6.90501L11.69 9.10501C11.5126 9.30953 11.3786 9.54794 11.2961 9.80577C11.2136 10.0636 11.1843 10.3355 11.21 10.605L11.5 13.545L8.79 12.385C8.54171 12.2729 8.27241 12.215 8 12.215C7.72758 12.215 7.45829 12.2729 7.21 12.385L4.5 13.545L4.77 10.625C4.79567 10.3555 4.76637 10.0836 4.68386 9.82577C4.60135 9.56794 4.46736 9.32953 4.29 9.12501L2.37 6.92501L5.23 6.26501C5.49192 6.20631 5.73935 6.09549 5.95753 5.93915C6.17572 5.78281 6.36021 5.58415 6.5 5.35501L8 2.83501ZM8 0.365009C7.91501 0.364249 7.83135 0.386067 7.75755 0.428234C7.68376 0.4704 7.62249 0.531404 7.58 0.605009L5.22 4.60501C5.18502 4.66302 5.13862 4.71333 5.08361 4.75287C5.0286 4.7924 4.96614 4.82035 4.9 4.83501L0.379998 5.83501C0.29737 5.85388 0.221048 5.89386 0.15849 5.95104C0.0959311 6.00822 0.0492746 6.08065 0.0230778 6.16126C-0.0031189 6.24187 -0.00795995 6.32789 0.00902762 6.41092C0.0260152 6.49396 0.0642505 6.57117 0.119998 6.63501L3.18 10.115C3.22371 10.1655 3.25684 10.2243 3.27745 10.2879C3.29806 10.3514 3.30573 10.4184 3.3 10.485L2.87 15.095C2.86298 15.1634 2.87044 15.2326 2.8919 15.2979C2.91337 15.3633 2.94835 15.4234 2.99457 15.4743C3.04079 15.5252 3.09721 15.5659 3.16017 15.5936C3.22313 15.6212 3.29122 15.6354 3.36 15.635C3.42299 15.6443 3.48701 15.6443 3.55 15.635L7.81 13.795C7.86985 13.7686 7.93456 13.7549 8 13.7549C8.06543 13.7549 8.13015 13.7686 8.19 13.795L12.5 15.595C12.563 15.6043 12.627 15.6043 12.69 15.595C12.7588 15.5954 12.8269 15.5812 12.8898 15.5536C12.9528 15.5259 13.0092 15.4852 13.0554 15.4343C13.1017 15.3834 13.1366 15.3233 13.1581 15.2579C13.1796 15.1926 13.187 15.1234 13.18 15.055L12.75 10.445C12.7443 10.3784 12.7519 10.3114 12.7725 10.2479C12.7932 10.1843 12.8263 10.1255 12.87 10.075L15.93 6.59501C15.9857 6.53117 16.024 6.45396 16.041 6.37092C16.058 6.28789 16.0531 6.20187 16.0269 6.12126C16.0007 6.04065 15.9541 5.96822 15.8915 5.91104C15.8289 5.85386 15.7526 5.81388 15.67 5.79501L11.15 4.79501C11.0839 4.78035 11.0214 4.7524 10.9664 4.71287C10.9114 4.67333 10.865 4.62302 10.83 4.56501L8.42 0.605009C8.37751 0.531404 8.31623 0.4704 8.24244 0.428234C8.16865 0.386067 8.08498 0.364249 8 0.365009Z" fill="#FBFBFE"/>
</g>
<defs>
<clipPath id="clip0_729:606">
<rect role="presentation" width="16" height="15.27" fill="white" transform="translate(0 0.36499)"/>
</clipPath>
</defs>
</svg>
