<svg viewBox="0 0 16 16" fill="none" xmlns="http://www.w3.org/2000/svg">
<g clip-path="url(#clip0_729:603)">
<path d="M8.42 0.605043L10.78 4.60504C10.815 4.66306 10.8614 4.71336 10.9164 4.7529C10.9714 4.79244 11.0339 4.82038 11.1 4.83504L15.62 5.83504C15.7026 5.85391 15.7789 5.89389 15.8415 5.95107C15.9041 6.00826 15.9507 6.08069 15.9769 6.16129C16.0031 6.2419 16.008 6.32792 15.991 6.41096C15.974 6.49399 15.9357 6.5712 15.88 6.63504L12.82 10.115C12.7763 10.1656 12.7432 10.2243 12.7225 10.2879C12.7019 10.3514 12.6943 10.4185 12.7 10.485L13.13 15.095C13.1357 15.179 13.1201 15.2631 13.0847 15.3394C13.0493 15.4158 12.9952 15.482 12.9273 15.5318C12.8595 15.5817 12.7802 15.6136 12.6968 15.6247C12.6133 15.6357 12.5285 15.6255 12.45 15.595L8.19 13.755C8.06827 13.705 7.93173 13.705 7.81 13.755L3.55 15.595C3.47154 15.6255 3.38666 15.6357 3.30321 15.6247C3.21977 15.6136 3.14046 15.5817 3.07265 15.5318C3.00483 15.482 2.9507 15.4158 2.91528 15.3394C2.87985 15.2631 2.86428 15.179 2.87 15.095L3.3 10.485C3.30573 10.4185 3.29806 10.3514 3.27745 10.2879C3.25684 10.2243 3.22371 10.1656 3.18 10.115L0.119998 6.63504C0.0642505 6.5712 0.0260152 6.49399 0.00902762 6.41096C-0.00795995 6.32792 -0.0031189 6.2419 0.0230778 6.16129C0.0492746 6.08069 0.0959311 6.00826 0.15849 5.95107C0.221048 5.89389 0.29737 5.85391 0.379998 5.83504L4.9 4.83504C4.96614 4.82038 5.0286 4.79244 5.08361 4.7529C5.13862 4.71336 5.18502 4.66306 5.22 4.60504L7.58 0.605043C7.62355 0.532564 7.68512 0.472589 7.75872 0.430952C7.83232 0.389314 7.91544 0.367432 8 0.367432C8.08456 0.367432 8.16768 0.389314 8.24128 0.430952C8.31487 0.472589 8.37644 0.532564 8.42 0.605043Z" fill="#FBFBFE"/>
</g>
<defs>
<clipPath id="clip0_729:603">
<rect width="16" height="15.27" fill="white" transform="translate(0 0.36499)"/>
</clipPath>
</defs>
</svg>
