<svg xmlns="http://www.w3.org/2000/svg" width="16" height="16" viewBox="0 0 16 16">
  <path fill="currentColor" d="M2.56,3.3333a.6924.6924,0,0,1-.0487.2552.6707.6707,0,0,1-.1387.2162.6412.6412,0,0,1-.2077.1446.6168.6168,0,0,1-.49,0,.6412.6412,0,0,1-.2077-.1446.6707.6707,0,0,1-.1387-.2162.6927.6927,0,0,1,0-.51.67.67,0,0,1,.1387-.2163.6394.6394,0,0,1,.2077-.1445.6168.6168,0,0,1,.49,0,.6394.6394,0,0,1,.2077.1445.67.67,0,0,1,.1387.2163.6923.6923,0,0,1,.0487.2551Zm1.6,5.3334V2a.6846.6846,0,0,0-.1885-.47A.631.631,0,0,0,3.52,1.3333H.64A.631.631,0,0,0,.1885,1.53.6846.6846,0,0,0,0,2V8.6667a.6846.6846,0,0,0,.1885.47A.63.63,0,0,0,.64,9.3333H3.52a.63.63,0,0,0,.4515-.1963A.6846.6846,0,0,0,4.16,8.6667ZM15.4507,7.1148A2.4987,2.4987,0,0,1,16,8.6667a2.08,2.08,0,0,1-.5724,1.4037,1.9183,1.9183,0,0,1-1.3476.5963H11.31a2.5461,2.5461,0,0,0,.29.6666,4.334,4.334,0,0,1,.56,2c0,.8019,0,2.6667-2.24,2.6667a.6059.6059,0,0,1-.2441-.0518.63.63,0,0,1-.2057-.1463,3.1038,3.1038,0,0,1-.6595-1.6982,3.0852,3.0852,0,0,0-.62-1.6352,13.9369,13.9369,0,0,1-1.01-1.25C6.74,10.6148,5.78,9.3667,5.4027,9.3444a.6584.6584,0,0,1-.4214-.2156A.7111.7111,0,0,1,4.8,8.6778V2a.7007.7007,0,0,1,.1929-.4657.6473.6473,0,0,1,.4471-.201A6.7335,6.7335,0,0,0,7.02.8759,11.5369,11.5369,0,0,1,10.88,0h1.2907a2.4171,2.4171,0,0,1,1.97.813,2.6014,2.6014,0,0,1,.4889,1.8851,2.149,2.149,0,0,1,.5334.98,2.2869,2.2869,0,0,1,0,1.2185,2.2612,2.2612,0,0,1,.43,1.4259,2.92,2.92,0,0,1-.1493.7926Z"/>
</svg>
