
<svg class="icon" viewBox="0 0 100 100" xmlns="http://www.w3.org/2000/svg" aria-hidden="true" role="img"><path d="M19.4 75.2a3.6 3.6 0 10-7.2 0 3.6 3.6 0 007.2 0zm9-28.8v36a3.62 3.62 0 01-3.6 3.6H8.6A3.62 3.62 0 015 82.4v-36a3.62 3.62 0 013.6-3.6h16.2a3.62 3.62 0 013.6 3.6zm66.6 0a13.26 13.26 0 01-3.09 8.38 15.2 15.2 0 01.84 4.28 11.87 11.87 0 01-2.42 7.7 11.87 11.87 0 010 6.58 11.47 11.47 0 01-3 5.29c.34 4.22-.62 7.65-2.75 10.18-2.42 2.87-6.13 4.33-11.08 4.39h-7.3c-8 0-15.64-2.64-21.71-4.73-3.55-1.23-6.92-2.41-8.89-2.47a3.71 3.71 0 01-3.6-3.6V46.34a3.77 3.77 0 013.43-3.6c2.08-.16 7.48-6.86 10-10.12a77.57 77.57 0 015.68-6.75c2.19-2.19 2.81-5.57 3.49-8.83s1.29-6.81 3.71-9.17A3.54 3.54 0 0160.8 6.8c12.6 0 12.6 10.07 12.6 14.4 0 4.61-1.63 7.88-3.15 10.8a13.47 13.47 0 00-1.63 3.6H84.2A11 11 0 0195 46.4z" fill="currentColor" transform="rotate(180 50 50)"/></svg>