<svg xmlns="http://www.w3.org/2000/svg" width="16" height="16" viewBox="0 0 16 16">
<path d="M12.9,2.5C11.8,0.9,10.1,0,8.1,0C5.3,0,2.3,1.9,2.2,5.3c-0.1,1.5,0.5,3,1.6,4.2c0.5,0.7,0.9,1.6,1.2,2.8
	C5.1,12.7,5.5,13,5.9,13c0.7,0,1.4,0,2.1,0s1.3,0,2,0c0.5,0,0.9-0.3,1-0.8c0.1-1,0.6-2,1.5-3.1C14.1,7.3,14.3,4.5,12.9,2.5z
	 M8.6,9.9H7.4V5.7h1.2V9.9z M8.6,4.4H7.4V3.2h1.2V4.4z" fill="currentColor" />
<path d="M10.4,13.3c-0.1,0-0.1,0-0.2,0c-1.4,0-2.9,0-4.3,0H5.8c-0.3,0-0.5,0.3-0.5,0.6c0,0.3,0.2,0.6,0.5,0.6h0.1c0.7,0,1.4,0,2.1,0
	c0.6,0,1.2,0,1.8,0c0.1,0,0.3,0,0.4,0c0.1,0,0.1,0,0.2,0c0.2-0.1,0.4-0.3,0.4-0.6C10.8,13.6,10.7,13.4,10.4,13.3z" fill="currentColor" />
<path d="M9.7,14.8H9.6c-0.5,0-1.1,0-1.6,0c-0.6,0-1.1,0-1.6,0.1H6.3c-0.4,0-0.7,0.4-0.5,0.8C5.9,15.9,6.1,16,6.3,16
	c1.1,0,2.2,0,3.3,0h0.1c0.3,0,0.5-0.3,0.5-0.6C10.2,15.1,10,14.8,9.7,14.8z" fill="currentColor" />
</svg>
