<svg class="icon" viewBox="0 0 100 100" xmlns="http://www.w3.org/2000/svg" aria-hidden="true" role="img"><path d="M97.5 20.59a42 42 0 01-9.76 10.06c.06.85.06 1.69.06 2.53 0 25.74-19.59 55.4-55.4 55.4a55 55 0 01-29.9-8.74 40.41 40.41 0 004.7.24 39 39 0 0024.18-8.32 19.5 19.5 0 01-18.21-13.5 24.69 24.69 0 003.68.3A20.65 20.65 0 0022 57.9 19.48 19.48 0 016.36 38.79v-.24a19.69 19.69 0 008.8 2.45 19.5 19.5 0 01-6-26 55.33 55.33 0 0040.12 20.35 21.6 21.6 0 01-.48-4.46 19.45 19.45 0 0119.45-19.47 19.4 19.4 0 0114.22 6.15 38.42 38.42 0 0012.36-4.7 19.44 19.44 0 01-8.54 10.73 38.89 38.89 0 0011.21-3z" fill="currentColor"/></svg>
