<svg class="icon" viewBox="0 0 100 100" xmlns="http://www.w3.org/2000/svg" aria-hidden="true" role="img"><path d="M38.58 24.17a2.11 2.11 0 10-2-2.1 2.1 2.1 0 002 2.1zm22.84 0a2.11 2.11 0 10-2-2 2.1 2.1 0 002 2zm-43.94 10A5.54 5.54 0 0123 39.65v23.27a5.55 5.55 0 11-11.09 0V39.65a5.55 5.55 0 015.57-5.52zm57.36 1v36a5.94 5.94 0 01-5.9 6h-4.06v12.26a5.57 5.57 0 11-11.14 0V77.15h-7.47v12.28a5.55 5.55 0 11-11.09 0l-.06-12.28h-4a5.93 5.93 0 01-5.95-5.92V35.16zM62.28 13.25C69.86 17.14 75 24.61 75 33.21H25c0-8.6 5.14-16.07 12.77-20l-3.89-7.05a.79.79 0 01.27-1.09.86.86 0 011.08.33l3.9 7.14a27.18 27.18 0 0121.75 0l3.9-7.14a.86.86 0 011.08-.33.8.8 0 01.27 1.09zm25.81 26.4v23.27a5.55 5.55 0 11-11.09 0V39.65a5.51 5.51 0 015.49-5.52 5.52 5.52 0 015.6 5.52z" fill="currentColor"/></svg>
