<svg class="icon" viewBox="0 0 100 100" xmlns="http://www.w3.org/2000/svg" aria-hidden="true" role="img">
  <path d="m 73.012759,63.923592 a 4.164378,4.164378 0 1 1 4.163593,-4.165163 4.1698708,4.1698708 0 0 1 -4.163593,4.165163 m -46.025518,0 a 4.164378,4.164378 0 1 1 4.163593,-4.165163 4.1690861,4.1690861 0 0 1 -4.163593,4.165163 M 74.506034,38.840807 82.827728,24.427524 a 1.7316593,1.7316593 0 1 0 -2.998321,-1.733392 l -8.426843,14.595332 c -6.443917,-2.941038 -13.681162,-4.578697 -21.403349,-4.578697 -7.722186,0 -14.958646,1.640013 -21.402564,4.578697 L 20.170593,22.694132 a 1.7314105,1.7314105 0 1 0 -2.999106,1.731038 l 8.322479,14.415637 C 11.20388,46.613214 1.4297148,61.079856 0,78.172089 H 100 C 98.568716,61.079856 88.795336,46.613214 74.506034,38.840807" fill="currentColor"/>
</svg>
