<svg xmlns="http://www.w3.org/2000/svg" viewBox="0 0 500 500" role="img"><circle cx="252.62" cy="344.7" r="39.51" style="fill:#231f20"/><path d="M94.79 244.88c-4.4 0-8.85-1.22-12.82-3.78-11.03-7.09-14.23-21.79-7.13-32.82 36.68-57.06 103.81-92.5 175.19-92.5s138.46 35.42 175.15 92.44c7.1 11.03 3.91 25.72-7.12 32.82-11.03 7.1-25.72 3.91-32.82-7.12-28.04-43.57-79.85-70.64-135.2-70.64s-107.2 27.09-135.23 70.69c-4.54 7.06-12.19 10.91-20 10.91Z"/><path d="M168.61 309.48c-4.79 0-9.63-1.44-13.82-4.45-10.66-7.64-13.11-22.48-5.46-33.14 24.42-34.06 61.12-53.6 100.68-53.6s76.25 19.53 100.67 53.59c7.64 10.66 5.2 25.5-5.46 33.14-10.66 7.64-25.5 5.2-33.14-5.46-15.39-21.46-38.01-33.77-62.07-33.77s-46.68 12.31-62.07 33.78c-4.64 6.47-11.93 9.91-19.32 9.91Z"/></svg>
