<svg version="1.1" xmlns="http://www.w3.org/2000/svg" viewBox="0 0 16 16">
<path d="M14.8,7.2L14.8,7.2c-0.3-1.1-1.4-2-2.6-2h-0.6V4.8c0-0.6-0.6-1.2-1.2-1.2H5.7c-0.6,0-1.2,0.6-1.2,1.2v0.4H3.8
	c-1.2,0-2.3,0.9-2.5,2H1.2C0.6,7.2,0,7.8,0,8.4v0.8c0,0.6,0.6,1.2,1.2,1.2h0.1c0.3,1.1,1.3,2,2.5,2h1.3c0.4,0,0.6-0.2,0.9-0.5
	c0.4-0.4,0.9-0.8,2-0.8s1.7,0.4,2,0.8c0.3,0.2,0.5,0.5,0.9,0.5h1.3c1.2,0,2.3-0.9,2.5-2h0.1c0.6,0,1.2-0.6,1.2-1.2V8.4
	C16,7.8,15.4,7.2,14.8,7.2L14.8,7.2z M0.8,9.2V8.4C0.8,8.2,1,8,1.2,8v1.7C1,9.7,0.8,9.4,0.8,9.2L0.8,9.2z M5.3,4.8
	c0-0.2,0.2-0.4,0.4-0.4h4.6c0.2,0,0.4,0.2,0.4,0.4v0.4H5.3V4.8z M13.7,9.9c0,0.9-0.7,1.6-1.6,1.6H11c0,0-0.2-0.1-0.2-0.2
	c-0.4-0.4-1.2-1.1-2.8-1.1s-2.3,0.7-2.8,1.1c-0.1,0.1-0.2,0.2-0.2,0.2H3.8c-0.9,0-1.6-0.7-1.6-1.6V7.8c0-0.9,0.7-1.6,1.6-1.6h8.3
	c0.9,0,1.6,0.7,1.6,1.6V9.9z M15.2,9.2c0,0.2-0.2,0.4-0.4,0.4V8c0.2,0,0.4,0.2,0.4,0.4V9.2L15.2,9.2z"/>
</svg>
