<svg viewBox="0 0 16 16" fill="none" xmlns="http://www.w3.org/2000/svg">
<path d="M16.2,7.1h-0.9V6.6c0-0.4-0.1-0.7-0.4-1s-0.6-0.4-1-0.4c0,0,0,0,0,0h-0.9c-0.3-1.3-1.5-2.3-2.9-2.3H6.8
	c-1.4,0-2.6,1-2.9,2.3H3c-0.8,0-1.4,0.6-1.4,1.4v0.6H0.8C0.4,7.1,0,7.5,0,7.9v2.5c0,0.4,0.3,0.8,0.8,0.8h0.9v0.6
	c0,0.4,0.1,0.7,0.4,1c0.3,0.3,0.6,0.4,1,0.4c0,0,0,0,0,0h1.5c0.5,0,1-0.2,1.4-0.6c0.6-0.7,1.7-1.1,2.8-1.1s2.2,0.4,2.8,1.1
	c0.3,0.4,0.8,0.6,1.4,0.6l1.1,0c0.8,0,1.4-0.6,1.4-1.4v-0.6h0.9c0.4,0,0.8-0.3,0.8-0.8V7.9C17,7.5,16.6,7.1,16.2,7.1z M1.6,9.6H1.5
	v-1h0.1V9.6z M6.8,4.4h3.4c0.6,0,1.1,0.3,1.3,0.8h-6C5.8,4.7,6.3,4.4,6.8,4.4z M13.9,11.6l-1,0c0,0,0,0,0,0c-0.1,0-0.2,0-0.2-0.1
	c-0.9-1-2.3-1.6-3.9-1.6s-3,0.6-3.9,1.6c-0.1,0.1-0.1,0.1-0.2,0.1H3.1V6.7h1.4h7.9h1.4v1.2v2.5V11.6z M15.5,9.6h-0.1v-1h0.1V9.6z"/>
</svg>
