<svg viewBox="0 0 16 16" xmlns="http://www.w3.org/2000/svg">
<path d="M15.1,7.2h-0.8V6.7c0-0.4-0.1-0.7-0.4-0.9c-0.3-0.3-0.6-0.4-0.9-0.4l0,0h-0.8c-0.3-1.2-1.4-2.1-2.7-2.1H6.3
	C5,3.3,3.9,4.2,3.6,5.4H2.8C2,5.4,1.5,6,1.5,6.7v0.6H0.7C0.4,7.2,0,7.5,0,7.9v2.3C0,10.6,0.3,11,0.7,11h0.8v0.6
	c0,0.4,0.1,0.7,0.4,0.9s0.6,0.4,0.9,0.4l0,0h1.4c0.5,0,0.9-0.2,1.3-0.6c0.6-0.7,1.6-1,2.6-1s2,0.4,2.6,1c0.3,0.4,0.7,0.6,1.3,0.6h1
	c0.7,0,1.3-0.6,1.3-1.3V11h0.8c0.4,0,0.7-0.3,0.7-0.7V7.9C15.8,7.5,15.4,7.2,15.1,7.2z M1.5,9.5L1.5,9.5L1.4,8.6h0.1V9.5z M6.3,4.7
	h3.2c0.6,0,1,0.3,1.2,0.7H5.1C5.4,4.9,5.9,4.7,6.3,4.7z M12.9,11.4H12l0,0c-0.1,0-0.2,0-0.2-0.1C11,10.3,9.7,9.8,8.2,9.8
	s-2.8,0.6-3.6,1.5c-0.1,0.1-0.1,0.1-0.2,0.1H2.9V6.8h1.3h7.3h1.3v1.1v2.3L12.9,11.4L12.9,11.4z M14.4,9.5L14.4,9.5l-0.1-0.9h0.1V9.5
	z"/>
</svg>
