<svg width="82" height="81" viewBox="0 0 82 81" fill="none" xmlns="http://www.w3.org/2000/svg">
<circle cx="57" cy="25" r="25" fill="#E2FFD5"/>
<path d="M73.833 62.9967C79.0466 58.5116 81.9988 52.5334 81.9988 46.3296C81.9988 39.7365 78.8012 33.5705 72.9948 28.9663C67.3437 24.4868 59.8636 22.0195 51.9316 22.0195C43.9995 22.0195 36.5195 24.4868 30.8693 28.9667C25.0629 33.5705 21.8652 39.7365 21.8652 46.3296C21.8652 52.9227 25.0629 59.0888 30.8693 63.6929C36.5195 68.1727 43.9995 70.6399 51.9316 70.6399C52.9885 70.6399 54.0519 70.5949 55.1065 70.5053L56.9081 72.0126C63.1147 77.2039 71.052 80.0618 79.2646 80.0621H81.9979V74.4463L81.1974 73.6738C78.0395 70.6166 75.5369 66.9884 73.833 62.9967ZM60.4884 68.0248L56.8734 65.0005L55.668 65.1432C54.4283 65.2895 53.1805 65.3629 51.9316 65.363C38.3676 65.363 27.3318 56.8246 27.3318 46.3296C27.3318 35.8346 38.3676 27.2961 51.9316 27.2961C65.4956 27.2961 76.5313 35.8345 76.5313 46.3296C76.5313 51.5584 73.8288 56.4399 68.9215 60.0748L67.3473 61.2408L68.0736 63.2253C69.5622 67.2783 71.7502 71.0591 74.5451 74.4079C69.3403 73.5693 64.4761 71.3605 60.4884 68.0248Z" fill="#00D230"/>
<path d="M7.54819 50.6255C10.1068 47.4993 12.1157 43.9885 13.4945 40.2334L14.2154 38.2588L12.6426 37.0937C8.01507 33.6662 5.46661 29.066 5.46661 24.1405C5.46661 14.2429 15.8889 6.19066 28.6997 6.19066C38.1241 6.19066 46.2556 10.5488 49.896 16.7933C50.5719 16.7617 51.2508 16.7438 51.9328 16.7438C53.3025 16.7438 54.6597 16.808 56.0044 16.9363C54.5976 13.4183 52.1544 10.2068 48.7953 7.54377C43.4035 3.26858 36.2675 0.914062 28.6997 0.914062C21.1319 0.914062 13.9959 3.26858 8.60376 7.54377C3.05549 11.943 0 17.8371 0 24.1405C0 30.0437 2.79344 35.7317 7.73013 40.0103C6.11908 43.7526 3.76505 47.1544 0.800688 50.0241L0 50.7968V56.3183H2.7333C7.78771 56.3177 12.7726 55.1816 17.2934 52.9998C16.7977 51.1862 16.5073 49.326 16.4272 47.452C13.6832 49.0042 10.6778 50.0785 7.54819 50.6255Z" fill="#00D230"/>
</svg>
