<svg width="95" height="56" viewBox="0 0 95 56" fill="none" xmlns="http://www.w3.org/2000/svg">
<circle cx="70" cy="25" r="25" fill="#E2FFD5"/>
<path d="M68.3333 1C72.0917 1 75.1667 4.04083 75.1667 7.83333V42C75.1667 45.7925 72.1258 48.8333 68.3333 48.8333H82V55.6667H0V48.8333H13.6667C9.90833 48.8333 6.83333 45.7925 6.83333 42V7.83333C6.83333 4.04083 9.87417 1 13.6667 1H68.3333ZM68.3333 7.83333H13.6667V42H68.3333V7.83333ZM41 28.3333C48.5508 28.3333 54.6667 31.4083 54.6667 35.1667V38.5833H27.3333V35.1667C27.3333 31.4083 33.4492 28.3333 41 28.3333ZM41 11.25C44.7925 11.25 47.8333 14.325 47.8333 18.0833C47.8333 21.8417 44.7925 24.9167 41 24.9167C37.2075 24.9167 34.1667 21.8758 34.1667 18.0833C34.1667 14.2908 37.2417 11.25 41 11.25Z" fill="#00D230"/>
</svg>
