<svg
   width="336.83942"
   height="92.336861"
   viewBox="0 0 336.83942 92.336861"
   fill="none"
   version="1.1"
   id="svg64"
   xmlns="http://www.w3.org/2000/svg">
  <defs
     id="defs64" />
  <path
     d="m 187.7655,53.723765 c 0,0 3.953,-4.1678 4.279,-4.7341 0.326,-0.5663 -2.693,1.5615 -2.693,1.5615 0,0 2.988,-3.0654 2.665,-3.6304 -0.104,-0.1814 -1.086,0.6429 -1.977,1.449 1.101,-1.0612 2.409,-2.3987 2.39,-2.7427 -0.025,-0.431 0.084,-0.5189 -0.434,-0.6276 -0.449,-0.0941 -3.024,2.9802 -3.767,3.9129 0.718,-0.9686 3.109,-4.2794 3.056,-4.3915 -0.286,-0.6043 -0.828,-0.0291 -0.828,-0.0291 l -4.542,4.4979 -0.415,-0.3992 c 0,0 0.801,-1.2967 1.208,-2.0047 0.407,-0.7081 -1.057,-0.2644 -1.057,-0.2644 0,0 -1.381,1.5729 -1.851,2.8505 -0.419,1.1407 -0.529,2.7012 -0.529,2.7012 l 0.03,0.1983 2.328,1.3392 z"
     fill="#f5cac1"
     id="path5" />
  <path
     d="m 190.4565,44.491765 c 0,0 0.542,-0.5752 0.828,0.0291 0.064,0.1337 -3.35,4.8162 -3.255,4.651 0.095,-0.1653 3.447,-4.2811 3.966,-4.1724 0.518,0.1087 0.409,0.1966 0.434,0.6276 0.033,0.5923 -3.871,4.131 -3.871,4.131 0,0 3.264,-3.1764 3.458,-2.8373 0.323,0.565 -2.665,3.6304 -2.665,3.6304 0,0 3.019,-2.1278 2.693,-1.5615 -0.326,0.5663 -4.279,4.7341 -4.279,4.7341 l -2.137,-0.3132 -2.328,-1.3392 -0.03,-0.1983 c 0,0 0.11,-1.5605 0.529,-2.7012 0.47,-1.2776 1.851,-2.8505 1.851,-2.8505 0,0 1.464,-0.4437 1.057,0.2644 -0.407,0.708 -1.208,2.0047 -1.208,2.0047 l 0.415,0.3992"
     stroke="#000000"
     stroke-width="0.5"
     id="path6" />
  <path
     d="m 169.2545,76.100465 c -0.374,4.093 -23.665,13.9877 -36.689,9.7102 l -0.033,0.9668 -5.659,-2.3793 c 0,0 -2.915,-0.6875 -4.322,-1.5861 -1.401,-0.8952 -1.85,-2.3793 -1.85,-2.3793 l 2.655,-16.4453 1.853,-7.4108 c 0.006,-0.0284 0.011,-0.0434 0.011,-0.0434 0,0 2.039,-7.2659 7.076,-10.7153 2.127,-1.4562 3.696,-2.1419 5.601,-2.8138 0.786,-0.2773 1.63,-0.5524 2.593,-0.8783 0.035,-0.0117 0.069,-0.0234 0.104,-0.0352 2.726,-0.9244 4.193,-1.3989 4.193,-1.3989 l 2.795,0.9318 c 0,0 1.462,2.7271 2.795,3.727 1.864,1.3977 1.864,0.9318 1.864,0.9318 0.391,-1.5245 1.043,-4.3935 1.043,-4.3935 l 2.76,0.1387 3.185,0.5292 c 0,0 5.62,0.3331 7.732,2.1776 2.628,2.2951 3.274,17.3978 4.672,20.6295 l 11.368,-13.747 5.816,2.3793 z"
     fill="#eb5a40"
     id="path7" />
  <path
     d="m 123.6695,85.960065 c -1.057,-0.3774 -0.786,-1.9417 0.336,-1.9417 h 50.688 c 1.128,0 1.393,1.5775 0.326,1.9454 l -7.711,2.6584 c -0.105,0.037 -0.215,0.055 -0.326,0.055 h -35.532 c -0.115,0 -0.228,-0.02 -0.336,-0.058 z"
     fill="#9c9b9b"
     id="path8" />
  <path
     d="m 146.6525,36.041765 7.976,0.5392 c 0,0 -0.618,6.1822 2.925,5.8498 3.542,-0.3325 -5.309,3.8605 -5.309,3.8605 0,0 -4.055,-1.5311 -8.25,-3.8605 -1.268,-0.7045 -0.138,-1.7301 2.192,-2.196 1.076,-1.063 0.466,-4.193 0.466,-4.193 z"
     fill="#fdc8be"
     id="path9" />
  <path
     d="m 143.8345,23.094965 1.422,3.6282 1.398,-2.3294 7.454,-3.2612 4.908,7.92 c 0,0 0.887,-0.2098 1.38,-0.5416 0.662,-0.4452 0.854,-1.1365 2.098,-4.5831 1.243,-3.4467 -12.114,-9.3177 -12.114,-9.3177 -1.398,2.7953 -5.034,4.6666 -6.055,5.1247 -1.713,0.7681 -0.491,3.3601 -0.491,3.3601 z"
     fill="#2a2a28"
     stroke="#2a2a28"
     stroke-width="0.5"
     id="path10" />
  <path
     d="m 158.7655,29.518665 c -2.141,6.4377 -2.365,7.0224 -7.816,9.1683 -4.867,-1.7557 -5.576,-2.6857 -6.16,-10.0997 1.863,-7.9216 0.466,-8.3875 9.317,-7.4555 2.796,0.4659 6.057,0.4669 4.659,8.3869 z"
     fill="#fdc8be"
     id="path11" />
  <path
     d="m 146.6535,36.501765 c -1.448,-1.9481 -2.329,-5.5906 -2.329,-5.5906 l 0.932,-5.5906 0.931,-3.2612 0.466,9.1654 c 3.261,0.6182 9.784,1.5499 9.784,1.8322 l 2.795,-7.2705 v 2.7953 l -1.398,4.6588 c -0.085,0.809 -0.899,2.9718 -1.863,4.193 -0.722,0.9143 -1.202,1.5679 -2.329,1.8635 -0.704,0.1847 -1.864,0 -1.864,0 0,0 -1.472,-0.1108 -2.329,-0.4659 -1.313,-0.5439 -1.948,-1.1889 -2.796,-2.3294 z"
     fill="#2a2a28"
     id="path12" />
  <path
     d="m 152.2455,31.844065 c 0,0 2.33,0.9318 2.796,0 0.466,-0.9318 -3.261,-2.3313 -1.398,-3.5006 m 1.785,-2.341 c 0.818,-0.4044 2.336,0 2.336,0 l 0.389,0.9754 m -11.032,-0.7252 c 0,0 0.741,-0.7533 1.397,-0.9326 0.88,-0.2406 1.774,0.3578 2.627,0.6824 m -3.093,1.1819 c 0.466,0.9326 1.722,1.1591 2.33,0.4659 m 5.046,0 c 0.796,0.7143 1.277,0.8972 2.336,0.4659"
     stroke="#000000"
     stroke-width="0.5"
     stroke-linecap="round"
     stroke-linejoin="round"
     id="path13" />
  <ellipse
     cx="144.7885"
     cy="28.114464"
     rx="1.39765"
     ry="2.7953"
     fill="#fdc8be"
     id="ellipse13" />
  <ellipse
     cx="-159.58868"
     cy="-29.679958"
     rx="1.2898597"
     ry="2.7952993"
     transform="matrix(-0.92979527,-0.36807711,-0.36807711,0.92979527,0,0)"
     fill="#fdc8be"
     id="ellipse14" />
  <path
     d="m 131.5275,66.387465 c 0,-0.4142 0.336,-0.75 0.75,-0.75 h 39.613 c 0.496,0 0.855,0.4733 0.722,0.9513 l -5.932,21.2944 c -0.09,0.324 -0.385,0.549 -0.722,0.549 h -33.681 c -0.414,0 -0.75,-0.336 -0.75,-0.75 z"
     fill="#000000"
     stroke="#000000"
     stroke-width="0.5"
     id="path14" />
  <path
     d="m 134.0245,59.061365 -2.493,7.0637"
     stroke="#000000"
     stroke-width="0.5"
     id="path15" />
  <path
     d="m 143.8565,48.611165 -0.466,-7.4542 3.097,-1.6249 c 0,0 0.125,1.3387 0,1.662 -1.184,3.0588 5.755,4.6218 5.755,4.6218 0,0 4.314,-1.7541 3.727,-3.7271 -0.116,-0.39 -0.466,-0.9318 -0.466,-0.9318 l 3.261,0.9318 1.864,4.6588 -8.386,-0.4659 z"
     fill="#ffbd00"
     id="path16" />
  <path
     d="m 152.3065,46.180265 -8.726,2.4931 m 6.649,-3.3241 c 0,0 -3.74,-1.1534 -3.74,-2.9086 0,-1.2466 0,-2.9086 0,-2.9086"
     stroke="#2a2a28"
     stroke-width="0.5"
     id="path17" />
  <path
     d="m 153.9245,37.073765 1.582,-2.4429 -3.697,-0.4651 -3.757,-0.9326 0.932,3.2612 c 0,0 1.369,0.7365 2.329,0.9318 1.07,0.2176 2.611,-0.3524 2.611,-0.3524 z"
     fill="#fdc8be"
     stroke="#2a2a28"
     stroke-width="0.5"
     id="path18" />
  <path
     d="m 153.3955,36.565465 0.793,-1.3465 c 0,0 -1.468,0.1954 -2.379,0.0118 -0.998,-0.201 -2.38,-1.0679 -2.38,-1.0679 l 0.476,2.1004 c 0,0 1.413,0.427 1.904,0.5221 0.546,0.1059 1.586,-0.2199 1.586,-0.2199 z"
     fill="#000000"
     id="path19" />
  <path
     d="m 263.6765,35.534265 c 2.45,5.1745 2.856,5.7885 7.641,7.0305 3.898,-1.9668 5.632,-2.6746 5.366,-8.9447 -2.061,-6.0504 -6.424,-7.9772 -10.116,-7.5279 -2.144,1.4217 -4.722,3.6346 -2.891,9.4421 z"
     fill="#ad847c"
     id="path20" />
  <path
     d="m 275.3245,39.901465 -5.999,1.8439 c 0,0 1.289,4.0845 -3.159,4.6257 -4.448,0.5413 1.724,12.7959 1.724,12.7959 l 15.807,-10.1794 c 0,0 -3.112,-6.0647 -5.51,-5.9917 -2.096,0.0638 -2.863,-3.0944 -2.863,-3.0944 z"
     fill="#ad847c"
     id="path21" />
  <path
     d="m 274.1695,33.880965 1.856,-1.018"
     stroke="#ffffff"
     stroke-width="0.5"
     id="path22" />
  <path
     d="m 272.3555,37.461765 c -1.388,1.3092 -2.263,1.7489 -4.101,1.6598"
     stroke="#000000"
     stroke-width="0.5"
     stroke-linecap="round"
     stroke-linejoin="round"
     id="path23" />
  <path
     d="m 269.5635,37.192265 c 0,0 -0.752,0.9034 -1.273,0.1549 -0.522,-0.7485 0.757,-2.1907 0.035,-3.2522 -0.409,-0.5999 -1.203,-0.9379 -1.501,-1.1501 -1.506,-1.0722 -2.301,0.4268 -2.629,0.3199 m 7.572,-2.5828 c 0,0 0.01,-0.2501 -0.606,-0.3313 -0.827,-0.1091 -0.906,0.2324 -1.649,0.6056 m 2.637,2.8707 c -0.913,-0.3618 -1.361,-0.2098 -1.95,0.2373 m 3.999,6.5438 c 0,0 -1.84,1.3493 -3.318,1.5918 -0.769,0.1263 -3.754,-1.1273 -3.754,-1.1273 m -0.45,-6.371 c -0.741,-0.271 -1.118,-0.25 -1.697,0.2065"
     stroke="#000000"
     stroke-width="0.5"
     stroke-linecap="round"
     stroke-linejoin="round"
     id="path24" />
  <path
     d="m 263.0195,88.702165 -3.319,-1.238 -0.922,-14.0876 c 0,0 -2.581,2.6247 -3.852,2.0153 -1.265,-0.6071 -4.571,-6.1391 -4.571,-6.1391 l -9.806,-20.6793 h 1.936 l 13.141,12.4416 c 0.243,-2.7709 2.681,-7.7798 2.681,-7.7798 l 1.667,-2.579 c 0,0 1.213,-2.347 3.913,-3.6446 2.189,-1.0522 3.665,-2.4262 3.665,-2.4262 0,0 3.966,1.7356 6.482,1.1916 1.951,-0.4219 4.398,-2.9115 4.398,-2.9115 l 6.825,0.7538 c 0,0 2.094,0.9334 3.987,3.4754 1.759,2.3612 7.689,21.6393 7.689,21.6393 l -6.454,4.0248 1.511,12.4186 c 0.105,3.4907 -17.647,5.9777 -28.971,3.5247 z"
     fill="#ffbd00"
     id="path25" />
  <path
     d="m 270.3225,28.369065 c 0,0 -2.85,-1.6879 -4.52,-0.9907 -1.86,0.7767 -2.251,4.5108 -2.251,4.5108 0,0 1.913,7.3947 3.519,9.2016 l -4.729,1.3457 c 0,0 -4.605,2.2665 -5.166,-0.1417 4.567,-1.5225 1.578,-2.2247 0.808,-3.5655 -3.502,-6.1042 -1.75,-12.7795 4.375,-16.6459 7.723,-4.8758 10.991,3.4144 10.991,3.4144 0,0 8.063,-2.762 7.278,2.8445 -0.458,3.2753 2,8.3047 4.933,6.3636 2.798,2.19 -4.257,4.0823 -4.257,4.0823 0,0 -4.899,2.4537 -5.283,0.2469 -0.264,-1.5147 1.678,-1.1656 1.671,-2.7037 -0.009,-1.942 -2.88,-3.7169 -2.88,-3.7169 z"
     fill="#e11818"
     id="path26" />
  <path
     d="m 285.5605,34.705865 c 2.798,2.19 -4.257,4.0823 -4.257,4.0823 0,0 -4.899,2.4537 -5.283,0.2469 -0.264,-1.5147 1.678,-1.1656 1.671,-2.7037 -0.009,-1.942 -2.88,-3.7169 -2.88,-3.7169 l -4.489,-4.2454 c 0,0 -2.85,-1.6879 -4.52,-0.9907 -1.86,0.7767 -2.251,4.5108 -2.251,4.5108 0,0 1.913,7.3947 3.519,9.2016 m 18.49,-6.3849 c -1.752,-1.371 4.169,-2.7589 0,0 z m 0,0 c -2.933,1.9411 -5.391,-3.0883 -4.933,-6.3636 0.785,-5.6065 -7.278,-2.8445 -7.278,-2.8445 0,0 -3.268,-8.2902 -10.991,-3.4144 -6.125,3.8664 -7.877,10.5417 -4.375,16.6459 0.77,1.3408 3.759,2.043 -0.808,3.5655 m 0,0 c -4.567,1.5224 -0.593,-2.545 0,0 z m 0,0 c 0.561,2.4082 5.166,0.1417 5.166,0.1417 l 4.729,-1.3457 m 0,0 c -2.759,0.3357 1.854,2.0849 0,0 z"
     stroke="#000000"
     stroke-width="0.5"
     id="path27" />
  <ellipse
     cx="-270.03809"
     cy="68.715782"
     rx="1.5725503"
     ry="2.7519705"
     transform="matrix(-0.99267882,0.12078398,0.12078398,0.99267882,0,0)"
     fill="#ad847c"
     id="ellipse27" />
  <path
     d="m 265.2505,38.641265 c 0.741,-0.0901 1.314,-0.5872 1.661,-1.225 0.349,-0.6388 0.497,-1.455 0.394,-2.3009 -0.103,-0.8459 -0.443,-1.6027 -0.934,-2.1394 -0.491,-0.5358 -1.166,-0.8811 -1.906,-0.791 -0.741,0.0902 -1.314,0.5872 -1.661,1.225 -0.349,0.6389 -0.497,1.4551 -0.394,2.301 0.103,0.8459 0.443,1.6027 0.934,2.1394 0.491,0.5358 1.166,0.8811 1.906,0.7909 z"
     fill="#eceaea"
     fill-opacity="0.28"
     stroke="#ffffff"
     id="path28" />
  <path
     d="m 272.2785,37.787765 c 0.74,-0.0901 1.313,-0.5872 1.661,-1.225 0.348,-0.6388 0.496,-1.4551 0.393,-2.3009 -0.102,-0.8459 -0.442,-1.6028 -0.934,-2.1394 -0.49,-0.5358 -1.165,-0.8811 -1.906,-0.791 -0.741,0.0901 -1.313,0.5872 -1.661,1.225 -0.348,0.6389 -0.497,1.4551 -0.394,2.301 0.103,0.8459 0.443,1.6027 0.934,2.1394 0.491,0.5358 1.166,0.8811 1.907,0.7909 z"
     fill="#d9d9d9"
     fill-opacity="0.1"
     stroke="#ffffff"
     id="path29" />
  <path
     d="m 267.2475,35.519565 c 0,0 0.399,-0.7194 0.817,-0.8777 0.529,-0.2003 1.524,0.5928 1.524,0.5928"
     stroke="#ffffff"
     stroke-width="0.5"
     id="path30" />
  <path
     d="m 278.9895,62.145265 c -0.109,-0.3995 0.126,-0.812 0.525,-0.9215 l 6.37,-1.7446 c 0.427,-0.1171 0.862,0.1598 0.937,0.5965 l 2.003,11.6707 c 0.065,0.3804 -0.169,0.7482 -0.541,0.8502 l -5.259,1.4404 c -0.399,0.1094 -0.812,-0.1258 -0.921,-0.5252 z"
     fill="#000000"
     stroke="#000000"
     stroke-width="0.5"
     id="path31" />
  <path
     d="m 267.5575,44.588365 c 0.438,0.3427 2.549,1.6703 6.481,1.1916 1.952,-0.2375 4.399,-2.9115 4.399,-2.9115"
     stroke="#2a2a28"
     stroke-width="0.5"
     id="path32" />
  <path
     d="m 265.7465,45.998865 c 0.437,0.3427 2.644,2.4508 6.576,1.9722"
     stroke="#2a2a28"
     stroke-width="0.5"
     id="path33" />
  <path
     d="m 253.2695,73.427565 c 1.383,3.626 4.665,1.2769 5.12,3e-4 0.591,-1.656 0.648,-4.4353 0.648,-4.4353 l -0.068,5.9489 0.275,5.511 0.465,7.0721"
     stroke="#2a2a28"
     stroke-width="0.5"
     id="path34" />
  <path
     d="m 280.3255,69.144465 c 0.399,1.0621 4.067,6.2382 4.067,6.2382 l 2.749,-0.3344 c 0,0 3.643,-2.5314 2.255,-2.9557 -0.392,-0.1198 -1.915,0.5376 -1.915,0.5376 l -1.055,-5.4162 c 0,0 -1.337,-1.2183 -1.171,0.1426 0.166,1.3608 0.745,4.0452 0.745,4.0452 l -0.344,0.0418 -1.592,-5.7997 c 0,0 -0.832,-0.8306 -0.876,-0.1584 -0.017,0.254 0.82,4.6376 0.839,4.7927 0.018,0.1551 -1.597,-4.3997 -2.131,-4.4931 -0.535,-0.0935 -0.538,-0.1605 -0.738,0.2124 -0.274,0.5125 2.23,5.5465 2.23,5.5465 0,0 -2.494,-3.8471 -2.816,-3.6177 -0.537,0.3823 -0.646,0.156 -0.247,1.2182 z"
     fill="#ad847c"
     stroke="#000000"
     stroke-width="0.5"
     id="path35" />
  <path
     d="m 225.1355,40.868165 c 1.567,4.7116 1.852,5.2827 5.841,6.8532 3.562,-1.2849 5.129,-1.7126 5.557,-7.1387 -1.14,-5.4249 -4.695,-7.5409 -7.921,-7.5409 -1.994,0.9995 -4.446,2.6347 -3.477,7.8264 z"
     fill="#ecafa3"
     id="path36" />
  <path
     d="m 234.7035,45.850365 -6.422,0.3294 c 0,0 0.824,3.4579 -2.14,4.2812 -2.964,0.8233 0.144,11.1971 0.144,11.1971 l 14.676,-7.1079 c 0,0 -2.045,-5.5475 -4.117,-5.7358 -1.811,-0.1647 -2.141,-2.964 -2.141,-2.964 z"
     fill="#ecafa3"
     id="path37" />
  <path
     d="m 232.3985,43.442165 c -1.332,0.9818 -2.131,1.2687 -3.704,0.9995"
     stroke="#000000"
     stroke-width="0.5"
     stroke-linecap="round"
     stroke-linejoin="round"
     id="path38" />
  <path
     d="m 230.0265,42.717165 c 0,0 -0.682,0.6819 -1.023,0 -0.341,-0.6819 0.81,-1.7624 0.341,-2.7277 -0.266,-0.5456 -0.884,-0.89 -1.078,-1.1193 -0.241,-0.2855 -0.32,-0.305 -0.57,-0.4283 -0.598,-0.2959 -1.709,0 -1.709,0 l -0.285,0.7139 m 7.978,-0.1428 c 0,0 -0.659,-0.4399 -1.139,-0.5711 -0.644,-0.176 -1.086,-0.2375 -1.71,0 -0.447,0.1703 -0.997,0.7139 -0.997,0.7139 m 2.564,0.9994 c -0.688,-0.3972 -1.058,-0.3153 -1.567,0 m 4.309,5.2897 c 0,0 -2.831,2.2248 -4.024,2.2774 -0.622,0.0275 -1.567,-0.2855 -1.567,-0.2855 m -1.569,-7.1064 c -0.561,-0.3033 -0.861,-0.3241 -1.364,0"
     stroke="#000000"
     stroke-width="0.5"
     stroke-linecap="round"
     stroke-linejoin="round"
     id="path39" />
  <ellipse
     cx="203.21535"
     cy="117.37428"
     rx="0.31030101"
     ry="0.269963"
     transform="rotate(-20.1118)"
     fill="#0f0f0f"
     id="ellipse39" />
  <ellipse
     cx="199.16347"
     cy="115.89055"
     rx="0.31030101"
     ry="0.269963"
     transform="rotate(-20.1118)"
     fill="#0f0f0f"
     id="ellipse40" />
  <path
     d="m 199.5755,53.297465 c 0.448,0.1357 2.607,-0.3147 2.607,-0.3147 l 0.503,-1.8798 c 0,0 -0.333,-1.6711 -0.795,-2.261 -0.463,-0.5899 -0.788,-1.5861 -0.788,-1.5861 0,0 1.227,-2.4929 -0.395,-1.6813 -1.623,0.8116 -1.609,1.9562 -1.293,2.6435 0.077,0.167 0.148,0.2947 0.212,0.3917 -0.339,-0.1728 -0.871,-0.4908 -1.646,-1.0715 -1.547,-1.1594 -2.287,2.085 -2.008,3.6993 0.279,1.6143 3.204,1.3264 3.204,1.3264 0,0 -0.05,0.5977 0.399,0.7335 z"
     fill="#d1ada6"
     id="path40" />
  <path
     d="m 199.6775,49.517265 c 0,0 0.683,-0.0797 0.692,-0.3899 0.006,-0.2315 -0.367,-0.4659 -0.367,-0.4659 l -2.231,-1.2672 c 0,0 -0.487,-0.5985 -1.117,0.2348 -0.63,0.8334 -1.244,2.9692 -0.532,4.1329 0.712,1.1638 3.061,0.7401 3.061,0.7401 l 0.368,0.6823 m 0.126,-3.6671 -1.189,-0.4516 m 1.189,0.4516 c 0,0 0.562,0.2381 0.604,0.5562 0.032,0.2363 -0.216,0.5705 -0.216,0.5705 m 0,0 -1.664,-0.6322 m 1.664,0.6322 c 0,0 0.175,0.2276 0.129,0.3756 -0.069,0.221 -0.584,0.1046 -0.584,0.1046 m 0,0 -1.297,-0.1663 m 1.297,0.1663 c 0,0 0.462,0.2547 0.367,0.4659 -0.063,0.1415 -0.346,0.195 -0.346,0.195 0,0 -0.878,0.2796 -1.405,0.1189"
     stroke="#2a2a28"
     stroke-width="0.5"
     id="path41" />
  <path
     d="m 199.3245,48.360865 c 0,0 -0.486,-2.1019 1.357,-2.7493 1.844,-0.6475 0.139,1.3345 0.486,2.1024 0.219,0.4857 0.473,0.6879 0.712,1.1643 0.417,0.8321 0.734,1.3335 0.744,2.2642 0.008,0.7536 -0.452,1.8762 -0.452,1.8762"
     stroke="#2a2a28"
     stroke-width="0.5"
     id="path42" />
  <path
     d="m 244.7975,84.607965 v -3.7722 c 0,0 5.341,-5.0674 6.371,-5.7252 1.026,-0.6551 1.023,-1.4363 1.023,-1.4363 l -1.023,-7.429 -1.356,-5.4239 c -0.004,-0.0208 -0.008,-0.0318 -0.008,-0.0318 0,0 -1.492,-5.3179 -5.179,-7.8424 -2.222,-1.5215 -1.908,-1.5525 -4.368,-2.3868 -1.995,-0.6766 -3.41,-2.0459 -3.41,-2.0459 l -3.268,1.557 c 0,0 -1.235,1.4866 -1.726,2.6033 -1.158,2.6352 0,7.371 0,7.371 0,0 -1.501,-4.052 -1.804,-5.2334 -0.286,-1.1157 -0.785,-4.7409 -0.785,-4.7409 l -1.476,-0.7253 -2.875,1.2142 c 0,0 -4.113,0.2437 -5.659,1.5937 -1.923,1.6798 -2.178,10.7601 -2.178,10.7601 l -13.975,-10.7601 -4.037,0.7931 c 0.275,3.0163 36.241,34.958 45.733,31.6608 z"
     fill="#eb5a40"
     id="path43" />
  <path
     d="m 227.7675,33.660965 c 1.51,-0.4253 3.788,1.3265 3.788,1.3265 l 3.788,3.6477 c 0,0 1.917,2.3064 1.721,3.9793 -0.155,1.3249 -1.79,1.6528 -1.721,2.9844 0.099,1.9402 4.132,2.9845 4.132,2.9845 0,0 8.124,0.0481 7.576,-2.9845 -0.444,-2.4541 -7.576,0.9949 -5.854,-2.9844 1.721,-3.9793 -3.722,-3.1695 -2.985,-5.9413 1.263,-4.7447 -2.869,-6.7776 -2.869,-6.7776 0,0 -3.806,-3.3887 -10.966,0 -5.678,2.6872 -1.897,7.0966 0.479,12.7189 0.522,1.2349 -1.221,2.3208 -3.288,2.9844 -2.067,0.6637 -5.409,0.7314 -5.166,2.9845 0.231,2.1321 5.166,2.3213 5.166,2.3213 l 6.199,-1.326 c 0,0 1.877,-3.0133 -0.036,-3.295 -0.013,-0.1646 -0.104,-0.3876 -0.309,-0.6843 -1.194,-1.7239 -2.066,-8.2907 -2.066,-8.2907 0,0 0.728,-3.1739 2.411,-3.6477 z"
     fill="#000000"
     stroke="#000000"
     id="path44" />
  <ellipse
     cx="-236.16765"
     cy="41.698124"
     rx="1.36386"
     ry="2.38676"
     transform="scale(-1,1)"
     fill="#ecafa3"
     id="ellipse44" />
  <path
     d="m 242.7915,54.496865 c 0.34,-0.6819 0.505,-0.7947 0.682,-1.3634 0.144,-0.4637 0.208,-1.2258 0.208,-1.2258 0,0 -0.206,-0.8185 -1.572,-1.5019 -0.682,-0.341 -1.364,-0.341 -1.364,-0.341 l -1.712,2.3819 c 0,0 0.149,0.8732 0.567,0.212 0.418,-0.6613 0.81,-1.0711 0.81,-1.0711 l 0.121,0.2206 -0.757,1.8243 c 0,0 0.098,0.8537 0.373,0.5803 0.103,-0.1033 1.156,-2.2297 1.204,-2.3051 0.047,-0.0754 -0.798,2.6131 -0.545,2.8793 0.254,0.2661 0.249,0.2694 0.496,0.1917 0.339,-0.1068 0.864,-3.3517 0.864,-3.3517 0,0 -0.316,3.5156 -0.057,3.552 0.432,0.0607 0.342,-10e-5 0.682,-0.6821 z"
     fill="#ad847c"
     stroke="#000000"
     stroke-width="0.5"
     id="path45" />
  <path
     d="m 245.6485,68.938265 c 0,-0.4142 -0.336,-0.75 -0.75,-0.75 h -28.371 c -0.496,0 -0.856,0.4733 -0.723,0.9513 l 4.192,15.0488 c 0.091,0.3244 0.386,0.5487 0.723,0.5487 h 24.179 c 0.414,0 0.75,-0.3357 0.75,-0.75 z"
     fill="#303d2a"
     stroke="#000000"
     stroke-width="0.5"
     id="path46" />
  <path
     d="m 236.8455,48.557465 -3.357,1.4386 c -2.158,2.158 -2.464,6.4473 -1.678,9.8309"
     stroke="#000000"
     stroke-width="0.5"
     id="path47" />
  <path
     d="m 102.0875,81.413865 c 0,0 -0.236,-0.0293 -0.382,0 -0.656,0.1318 0,1.5563 0,1.5563 l 1.911,0.6916 2.294,0.8646 h 3.058 l 2.867,-2.9396 -1.147,-0.1729 -1.72,-5.0147 c 0,0 -1.338,-1.2097 -1.338,-0.3459 0,0.8639 0.573,4.3231 0.573,4.3231 h -0.382 l -1.614,-6.5719 c 0,0 -0.208,-0.813 -0.833,-0.4099 -0.139,0.0893 -0.209,0.6048 -0.209,0.4032 0,-0.2016 0.171,-0.3375 -0.402,-0.5112 -0.573,-0.1737 -0.878,0.1366 -1.147,0.5188 -0.369,0.5252 0.299,1.4036 0.299,1.4036 0,0 -0.242,-0.2085 -0.626,0 -0.64,0.3474 -0.416,1.8143 -0.416,1.8143 0,0 -0.786,-0.6233 -0.786,0.0676 z"
     fill="#f5cac1"
     id="path48" />
  <path
     d="m 83.244501,30.657665 c 0.189,6.3204 0.098,7.1281 -3.984,10.753 -4.822,0.0231 -6.884,0.1979 -9.771,-6.1035 -1.012,-6.9861 2.312,-11.0729 6.17,-12.4856 2.822,0.3217 6.47,1.2037 7.585,7.8361 z"
     fill="#ecafa3"
     id="path49" />
  <path
     d="m 73.982501,40.805765 7.823,-2.4182 c 0,0 1.653,7.8544 5.558,7.5411 3.904,-0.3133 3.608,10.0937 3.608,10.0937 l -20.662,-2.0735 c 0,0 0.016,-7.5289 2.411,-8.6614 2.094,-0.9901 1.262,-4.4817 1.262,-4.4817 z"
     fill="#ecafa3"
     id="path50" />
  <path
     d="m 75.679501,36.912865 c 2.024,0.5905 3.104,0.5839 4.868,-0.4269"
     stroke="#000000"
     stroke-width="0.5"
     stroke-linecap="round"
     stroke-linejoin="round"
     id="path51" />
  <path
     d="m 77.812501,35.353765 2.044,-0.7487 -1.608,-3.8644 c 0.168,-0.3642 0.238,-0.7444 0.369,-1.1032 0.163,-0.447 0.249,-0.5051 0.494,-0.7618 0.586,-0.6161 2.044,-0.7486 2.044,-0.7486 l 0.654,0.7289 m -9.604,3.3229 c 0,0 0.596,-0.8148 1.113,-1.182 0.693,-0.4926 1.194,-0.7594 2.044,-0.7486 0.61,0.0076 1.506,0.4169 1.506,0.4169 m -2.629,2.3181 c 0.649,-0.7766 0.632,-1.4706 1.379,-1.3165 m -0.395,9.2818 c 0,0 2.412,0.9816 3.862,0.522 0.756,-0.2394 1.75,-1.0278 1.75,-1.0278 m -0.464,-10.1739 c -0.838,-0.2796 -0.768,0.5249 -1.26,0.8613"
     stroke="#000000"
     stroke-width="0.5"
     stroke-linecap="round"
     stroke-linejoin="round"
     id="path52" />
  <ellipse
     cx="64.902321"
     cy="56.500004"
     rx="0.54439199"
     ry="0.54553699"
     transform="rotate(-20.1118)"
     fill="#0f0f0f"
     id="ellipse52" />
  <ellipse
     cx="60.107193"
     cy="56.179329"
     rx="0.54439199"
     ry="0.54553699"
     transform="rotate(-20.1118)"
     fill="#0f0f0f"
     id="ellipse53" />
  <ellipse
     cx="51.414116"
     cy="58.672039"
     rx="1.73681"
     ry="3.0394199"
     transform="rotate(-22.2312)"
     fill="#ecafa3"
     id="ellipse54" />
  <path
     fill-rule="evenodd"
     clip-rule="evenodd"
     d="m 70.518501,20.065765 c -1.315,-0.9798 -3.392,-0.8378 -4.985,0.4429 -1.833,1.473 -2.333,3.8946 -1.116,5.4088 0.414,0.5158 0.975,0.8597 1.606,1.0309 -0.212,1.5865 -0.06,3.2363 0.498,4.7598 0.285,0.7787 0.666,1.7772 1.048,1.7842 0.61,-0.2233 0.956,-0.4964 1.209,-0.8472 l 0.054,-0.0082 c 0,0 1.828,3.435 1.816,6.0375 0,0.1492 0.001,0.2929 0.003,0.4329 0.006,0.6183 0.012,1.1645 -0.171,1.7975 -0.359,1.2363 -1.954,3.2783 -1.954,3.2783 0,0 1.75,-0.771 2.306,-1.2388 1.098,-0.924 1.243,-2.0013 1.305,-3.435 0.023,-0.5258 -0.098,-1.3441 -0.098,-1.3441 l -1.337,-3.6505 c -0.2,-0.5473 0.25,-1.4714 0.25,-1.4714 l -0.504,-3.4913 c 0.087,-0.1273 0.178,-0.2578 0.272,-0.3908 l 4.053,-4.6693 c 0.486,-0.3915 0.962,-0.6917 1.409,-0.8554 0.693,-0.254 1.41,0.2854 2.077,0.7875 v 0 0 c 0.354,0.2668 0.695,0.5231 1.01,0.6442 0.693,0.2658 1.32,0.5938 1.857,0.897 0.197,0.1106 0.381,0.2178 0.552,0.3176 0.107,0.0625 0.21,0.122 0.307,0.1775 0.249,0.3756 0.516,0.9981 0.736,2.0279 0.596,2.7913 0.989,3.7777 0.989,3.7777 0,0 0.192,-1.0035 0.348,-1.6523 0.134,-0.5508 -0.835,-3.0096 -1.131,-3.7396 0.343,0.0076 0.313,-0.4713 -0.205,-1.8848 -0.408,-1.1135 -1.013,-2.0971 -1.76,-2.925 0.918,-0.6684 1.488,-1.6529 1.46,-2.7371 -0.048,-1.9419 -1.993,-3.4683 -4.344,-3.4094 -2.19,0.055 -3.96,1.4668 -4.152,3.23 -0.837,0.0468 -1.681,0.2162 -2.508,0.5191 -0.312,0.1143 -0.612,0.2478 -0.9,0.3989 z"
     fill="#000000"
     id="path54" />
  <path
     d="m 63.427501,64.567165 c 0,0 0.447,7.6508 0.381,12.556 -0.069,5.0604 -0.762,12.937 -0.762,12.937"
     stroke="#000000"
     id="path55" />
  <path
     d="m 64.303501,70.659765 -0.659,-6.188 -2.255,2.7508 -3.473,4.2782 4.311,2.2222 -9.2261,4.4036 c 0,0 -1.1548,1.5932 -2.466,0.7556 -1.3062,-0.8342 -1.3009,-3.0394 -1.3009,-3.0394 l 2.6038,-8.6202 c 0,0 5.6942,-16.3882 10.3892,-19.603 2.83,-1.9375 4.28,-0.4285 7.413,-1.4909 2.54,-0.8616 4.342,-2.4169 4.342,-2.4169 l 3.727,2.4169 c 0,0 1.573,1.893 2.198,3.315 1.475,3.3558 0.639,5.4769 0.639,5.4769 0,0 1.273,-1.2504 1.659,-2.7548 0.364,-1.4208 0.999,-6.0371 0.999,-6.0371 l 1.88,-0.9237 4.933,0.4817 c 0,0 3.965,1.3749 5.934,3.094 2.449,2.139 4.394999,7.072 4.394999,7.072 H 86.940501 l -2.418,20.3321 -9.878,0.903 c -0.531,0.0486 -0.627,0.7834 -0.126,0.9673 l 9.345,3.4338 12.527,-0.221 -0.219,6.8513 c -0.352,3.841 -20.659,6.188 -32.747,1.989 l 0.439,-13.4814 v -3.7425 z"
     fill="#ffbd00"
     id="path56" />
  <path
     d="m 49.961001,78.608965 c -2.2331,-3.2499 1.3803,-9.794 1.3803,-9.794 0,0 5.8212,-1.8606 6.5752,-0.3531 0.868,1.7368 -0.434,3.4736 -0.434,3.4736 l 6.971,-3.7626 c 0.041,-0.1153 0.138,-0.3849 0.345,-0.9633 0.518,-1.4438 1.553,-1.9264 1.553,-1.9264 0,0 0.69,-2.1693 1.725,-2.4082 1.035,-0.2389 1.035,0.2668 1.035,1.4449 0,1.4444 -0.862,2.4083 -0.862,2.4083 l 3.795,-0.8028 c 0,0 3.023,-1.2843 2.243,2.8901 -0.78,4.1745 -1.035,4.014 -1.035,4.014 0,0 -4.313,1.2844 -5.866,1.2844 -1.553,0 -1.494,-0.2908 -1.494,-0.2908 l -12.481,5.2665 c 0,0 -2.6031,0.7526 -3.4505,-0.4806 z"
     fill="#ecafa3"
     id="path57" />
  <path
     d="m 66.166501,74.107165 c 0,0 6.077,-0.3569 6.947,-1.3026 0.628,-0.6834 1.27,-5.2033 1.27,-5.2033 0,0 0.206,-1.2575 -0.419,-1.7084 -0.446,-0.3218 -1.467,-0.3416 -1.467,-0.3416 l -4.16,1.1744 0.434,-1.3026 c 0,0 0.685,-2.0319 0,-2.6057 -0.206,-0.1724 -0.884,5e-4 -0.884,5e-4"
     stroke="#000000"
     stroke-width="0.5"
     stroke-linecap="round"
     id="path58" />
  <path
     d="m 107.6125,78.808565 c 0.057,0.3636 0.114,0.717 0.164,1.0237 l -1.54,-6.3736 -0.018,-0.0774 -0.06,-0.0523 -0.165,0.1884 c 0.165,-0.1884 0.164,-0.1885 0.164,-0.1885 v -10e-5 -2e-4 -5e-4 l -0.002,-0.0014 -0.005,-0.0044 -0.017,-0.0143 c -0.015,-0.0118 -0.035,-0.028 -0.06,-0.0466 -0.05,-0.037 -0.12,-0.0859 -0.201,-0.1306 -0.079,-0.0436 -0.179,-0.0895 -0.287,-0.1111 -0.108,-0.0215 -0.25,-0.0237 -0.382,0.0582 -0.035,0.0215 -0.065,0.0468 -0.091,0.0734 -0.016,-0.0163 -0.033,-0.0324 -0.05,-0.0481 -0.186,-0.1643 -0.395,-0.2193 -0.603,-0.2049 -0.197,0.0135 -0.386,0.088 -0.549,0.1666 -0.26,0.1244 -0.367,0.3689 -0.404,0.5969 -0.036,0.2259 -0.01,0.4764 0.031,0.696 0.027,0.1426 0.062,0.2801 0.097,0.4006 -0.178,-0.01 -0.392,0.0149 -0.609,0.1269 -0.217,0.1122 -0.305,0.3576 -0.348,0.5464 -0.048,0.2076 -0.061,0.4491 -0.061,0.6694 0,0.2133 0.013,0.4184 0.026,0.5733 h -0.38 -0.25 v 0.25 4.523 l -17.685999,0.2205 3.006,-25.7401 c 0.045,-0.3824 0.372,-0.6689 0.757,-0.6629 l 34.792999,0.5415 c 0.443,0.0069 0.784,0.3958 0.733,0.8368 l -2.919,25.0282 h -10.129 l -1.701,-5.5022 -0.028,-0.0893 -0.079,-0.0493 -0.132,0.2124 c 0.132,-0.2124 0.132,-0.2124 0.132,-0.2124 v -10e-5 l -0.001,-2e-4 -0.001,-6e-4 -0.003,-0.0019 -0.011,-0.0066 c -0.009,-0.0055 -0.022,-0.0133 -0.038,-0.0227 -0.033,-0.0188 -0.079,-0.0447 -0.134,-0.0733 -0.11,-0.0565 -0.261,-0.1277 -0.419,-0.1765 -0.145,-0.0451 -0.345,-0.0877 -0.525,-0.0319 -0.1,0.0309 -0.194,0.0927 -0.26,0.1952 -0.064,0.0986 -0.087,0.214 -0.087,0.331 0,0.1907 0.044,0.578 0.105,1.0307 0.062,0.4604 0.144,1.009 0.227,1.5349 z"
     fill="#303d2a"
     stroke="#000000"
     stroke-width="0.5"
     id="path59" />
  <path
     d="m 73.699501,44.020365 3.805,2.2829 c 3.173,3.609 3.529,6.8063 2.283,12.1755"
     stroke="#000000"
     stroke-width="0.5"
     id="path60" />
  <path
     d="m 312.6065,25.305365 2.768,-4.6522 c 0,0 -15.235,-2.1277 -16.191,-8.6829 -0.958,-6.5657 6.351,-10.1378 13.419,-10.6476 8.458,-0.60999996 19.633,4.9625 17.928,12.5676 -1.077,4.8037 -10.093,8.1005 -10.093,8.1005 z"
     fill="#ffffff"
     id="path61" />
  <path
     d="m 317.2475,25.529965 2.768,-4.6522 c 0,0 -15.235,-2.1277 -16.192,-8.6828 -0.958,-6.5658 6.351,-10.1379 13.419,-10.6477 8.458,-0.60999996 19.633,4.9625 17.928,12.5676 -1.076,4.8037 -10.092,8.1006 -10.092,8.1006 z"
     stroke="#00d230"
     stroke-width="3"
     id="path62" />
  <path
     d="m 19.819701,79.747565 -0.7728,-0.7825 c -2.7446,-2.7683 -4.5566,-4.6 -4.5566,-6.8348 0,-1.8317 1.2897,-3.2603 2.9312,-3.2603 0.9273,0 1.8173,0.4801 2.3982,1.233 0.5809,-0.7529 1.4709,-1.233 2.3982,-1.233 1.6414,0 2.9311,1.4286 2.9311,3.2603 0,2.2348 -1.8119,4.0665 -4.5566,6.8348 z"
     fill="#00d230"
     id="path63" />
  <path
     d="m 26.427701,88.770165 -4.7819,-4.6246 c 0,0 15.5616,-6.6896 14.0479,-14.5517 -1.5161,-7.8748 -10.7632,-9.9883 -18.5635,-8.6195 -9.3339996,1.638 -19.1921996,11.1943 -14.4088996,19.5353 3.0214,5.2687 13.9977996,6.5899 13.9977996,6.5899 z"
     stroke="#ffffff"
     stroke-width="3"
     id="path64" />
</svg>
