<svg width="256" height="168" viewBox="0 0 256 168" fill="none" xmlns="http://www.w3.org/2000/svg">
<rect x="44.4033" y="11.5" width="210.6" height="126.69" rx="7.5" stroke="#00D230"/>
<g filter="url(#filter0_d_7659_3240)">
<rect x="23.1914" y="27.4609" width="211.597" height="127.69" rx="8" fill="white"/>
</g>
<path d="M157.953 39.6214C163.369 51.06 164.266 52.4172 174.843 55.1628C183.46 50.815 187.293 49.2504 186.704 35.3899C182.15 22.0152 172.505 17.7557 164.343 18.7489C159.603 21.8917 153.905 26.7836 157.953 39.6214Z" fill="#AD847C"/>
<path d="M183.701 49.2798L170.439 53.3557C170.439 53.3557 173.288 62.3849 163.455 63.5813C153.623 64.7777 167.267 91.8674 167.267 91.8674L202.21 69.3651C202.21 69.3651 195.33 55.9588 190.029 56.1201C185.396 56.2611 183.701 49.2798 183.701 49.2798Z" fill="#AD847C"/>
<path d="M181.145 35.9656L185.248 33.7154" stroke="white" stroke-width="0.5"/>
<path d="M177.131 43.8887C174.062 46.7828 172.129 47.7548 168.066 47.5578" stroke="black" stroke-width="0.5" stroke-linecap="round" stroke-linejoin="round"/>
<path d="M170.958 43.2887C170.958 43.2887 169.297 45.2856 168.144 43.631C166.991 41.9764 169.818 38.7885 168.221 36.4419C167.319 35.1158 165.563 34.3686 164.904 33.8996C161.574 31.5294 159.819 34.8429 159.093 34.6066M175.83 28.8973C175.83 28.8973 175.853 28.3444 174.491 28.1648C172.663 27.9238 172.489 28.6787 170.846 29.5037M176.676 35.8495C174.656 35.0496 173.666 35.3857 172.365 36.3741M181.204 50.8396C181.204 50.8396 177.137 53.8222 173.871 54.3583C172.17 54.6375 165.571 51.8664 165.571 51.8664M164.577 37.7828C162.939 37.1836 162.106 37.2303 160.825 38.2393" stroke="black" stroke-width="0.5" stroke-linecap="round" stroke-linejoin="round"/>
<path d="M156.494 157.157L149.157 154.42L147.119 123.278C147.119 123.278 141.413 129.08 138.605 127.733C135.808 126.391 128.5 114.162 128.5 114.162L106.823 68.4495L111.102 68.4495L140.15 95.9525C140.69 89.8271 146.079 78.7547 146.079 78.7547L149.763 73.0535C149.763 73.0535 152.445 67.8654 158.413 64.997C163.252 62.6711 166.515 59.6337 166.515 59.6337C166.515 59.6337 175.283 63.4704 180.843 62.2678C185.156 61.3351 190.566 55.8318 190.566 55.8318L205.652 57.4982C205.652 57.4982 210.281 59.5615 214.467 65.1806C218.355 70.4003 231.463 113.016 231.463 113.016L217.196 121.913L220.537 149.365C220.768 157.082 181.526 162.578 156.494 157.157Z" fill="#FFBD00"/>
<path d="M172.634 23.784C172.634 23.784 166.333 20.0529 162.642 21.5941C158.529 23.311 157.665 31.5655 157.665 31.5655C157.665 31.5655 161.894 47.9119 165.445 51.9061L154.991 54.881C154.991 54.881 144.811 59.8911 143.571 54.5676C153.668 51.2021 147.059 49.6499 145.358 46.686C137.616 33.1923 141.488 18.4361 155.028 9.88901C172.102 -0.88916 179.325 17.4369 179.325 17.4369C179.325 17.4369 197.149 11.3313 195.415 23.7248C194.401 30.965 199.834 42.0829 206.317 37.792C212.503 42.6332 196.909 46.8162 196.909 46.8162C196.909 46.8162 186.078 52.2401 185.229 47.3618C184.647 44.0135 188.938 44.7852 188.923 41.3852C188.904 37.0922 182.556 33.1689 182.556 33.1689L172.634 23.784Z" fill="#E11818"/>
<path d="M206.317 37.792C212.503 42.6332 196.909 46.8162 196.909 46.8162C196.909 46.8162 186.078 52.2401 185.229 47.3618C184.647 44.0135 188.938 44.7852 188.923 41.3852C188.904 37.0922 182.556 33.1689 182.556 33.1689L172.634 23.784C172.634 23.784 166.333 20.0529 162.642 21.5941C158.529 23.311 157.665 31.5655 157.665 31.5655C157.665 31.5655 161.894 47.9119 165.445 51.9061M206.317 37.792C202.445 34.7612 215.533 31.6932 206.317 37.792ZM206.317 37.792C199.834 42.0829 194.401 30.965 195.415 23.7248C197.149 11.3313 179.325 17.4369 179.325 17.4369C179.325 17.4369 172.102 -0.88916 155.028 9.88901C141.488 18.4361 137.616 33.1923 145.358 46.686C147.059 49.6499 153.668 51.2021 143.571 54.5676M143.571 54.5676C133.475 57.9331 142.261 48.9418 143.571 54.5676ZM143.571 54.5676C144.811 59.8911 154.991 54.881 154.991 54.881L165.445 51.9061M165.445 51.9061C159.346 52.6483 169.542 56.515 165.445 51.9061Z" stroke="black" stroke-width="0.5"/>
<ellipse cx="3.47623" cy="6.0834" rx="3.47623" ry="6.0834" transform="matrix(-0.992679 0.120784 0.120784 0.992679 188.695 33.2988)" fill="#AD847C"/>
<path d="M161.34 45.8891C162.733 45.7196 163.851 44.7805 164.553 43.4922C165.256 42.2029 165.568 40.5277 165.354 38.7686C165.14 37.0095 164.435 35.4581 163.444 34.375C162.453 33.2927 161.142 32.6492 159.749 32.8187C158.356 32.9882 157.238 33.9272 156.536 35.2155C155.833 36.5048 155.52 38.18 155.735 39.9391C155.949 41.6982 156.653 43.2496 157.645 44.3327C158.636 45.415 159.946 46.0586 161.34 45.8891Z" fill="#F2F2F5" fill-opacity="0.3" stroke="white"/>
<path d="M176.872 44.0004C178.265 43.8309 179.383 42.8918 180.085 41.6035C180.788 40.3142 181.1 38.6391 180.886 36.88C180.672 35.1209 179.967 33.5694 178.976 32.4863C177.985 31.4041 176.674 30.7605 175.281 30.93C173.888 31.0995 172.77 32.0386 172.068 33.3268C171.365 34.6161 171.053 36.2913 171.267 38.0504C171.481 39.8095 172.186 41.3609 173.177 42.4441C174.168 43.5263 175.479 44.1699 176.872 44.0004Z" fill="#F2F2F5" fill-opacity="0.3" stroke="white"/>
<path d="M165.827 39.5887C165.827 39.5887 166.709 37.9984 167.634 37.6484C168.803 37.2056 171.003 38.9589 171.003 38.9589" stroke="white" stroke-width="0.5"/>
<path d="M191.702 96.4418L208.237 91.9126C208.664 91.7955 209.099 92.0724 209.174 92.5091L214.012 120.706C214.078 121.086 213.843 121.454 213.471 121.556L199.621 125.35C199.221 125.459 198.809 125.224 198.699 124.825L191.177 97.3633C191.068 96.9638 191.303 96.5512 191.702 96.4418Z" fill="black" stroke="black" stroke-width="0.5"/>
<path d="M166.516 59.642C167.484 60.3997 172.151 63.3343 180.843 62.2763C185.158 61.7511 190.567 55.8402 190.567 55.8402" stroke="#2A2A28" stroke-width="0.5"/>
<path d="M162.515 62.7539C163.482 63.5116 168.359 68.1716 177.052 67.1136" stroke="#2A2A28" stroke-width="0.5"/>
<path d="M134.937 123.386C137.993 131.402 145.247 126.209 146.254 123.387C147.559 119.726 147.687 113.582 147.687 113.582L147.536 126.732L148.144 138.915L149.171 154.548" stroke="#2A2A28" stroke-width="0.5"/>
<path d="M194.741 113.919C195.624 116.267 203.731 127.709 203.731 127.709L209.807 126.97C209.807 126.97 217.862 121.374 214.792 120.436C213.925 120.171 210.56 121.624 210.56 121.624L208.227 109.651C208.227 109.651 205.273 106.958 205.639 109.967C206.005 112.975 207.285 118.909 207.285 118.909L206.525 119.001L203.007 106.181C203.007 106.181 201.167 104.344 201.069 105.83C201.032 106.392 202.882 116.082 202.923 116.425C202.965 116.768 199.394 106.699 198.213 106.493C197.032 106.286 197.025 106.138 196.583 106.962C195.976 108.095 201.513 119.223 201.513 119.223C201.513 119.223 196 110.719 195.287 111.226C194.099 112.071 193.858 111.571 194.741 113.919Z" fill="#AD847C" stroke="black" stroke-width="0.5"/>
<path d="M72.7325 51.4257C76.197 61.841 76.8269 63.1035 85.6456 66.5752C93.5194 63.7347 96.9839 62.7892 97.9287 50.7945C95.4091 38.8025 87.5514 34.125 80.4198 34.125C76.0104 36.3343 70.5918 39.949 72.7325 51.4257Z" fill="#FFE4D8"/>
<path d="M93.8877 62.4375L79.6918 63.1655C79.6918 63.1655 81.5118 70.8095 74.9598 72.6295C68.4078 74.4495 75.2778 97.3815 75.2778 97.3815L107.72 81.6688C107.72 81.6688 103.2 69.4059 98.6197 68.9895C94.6157 68.6255 93.8877 62.4375 93.8877 62.4375Z" fill="#FFE4D8"/>
<path d="M88.7939 57.1113C85.8484 59.2815 84.0826 59.9158 80.6052 59.3206" stroke="black" stroke-width="0.5" stroke-linecap="round" stroke-linejoin="round"/>
<path d="M83.5515 55.5123C83.5515 55.5123 82.0441 57.0198 81.2903 55.5123C80.5366 54.0048 83.0824 51.6164 82.0441 49.4825C81.4573 48.2765 80.0903 47.5151 79.6624 47.0084C79.1295 46.3772 78.9542 46.3341 78.4026 46.0615C77.0789 45.4073 74.6232 46.0615 74.6232 46.0615L73.9933 47.6396M91.6306 47.324C91.6306 47.324 90.1723 46.3516 89.111 46.0615C87.687 45.6723 86.7114 45.5364 85.3316 46.0615C84.3424 46.4379 83.1269 47.6396 83.1269 47.6396M88.796 49.8489C87.2737 48.9707 86.4572 49.1518 85.3316 49.8489M94.8574 61.5421C94.8574 61.5421 88.5998 66.46 85.9615 66.5765C84.5877 66.6371 82.497 65.9453 82.497 65.9453M79.0292 50.2362C77.7893 49.5656 77.1252 49.5196 76.0143 50.2362" stroke="black" stroke-width="0.5" stroke-linecap="round" stroke-linejoin="round"/>
<ellipse cx="86.1081" cy="50.262" rx="0.68594" ry="0.596771" transform="rotate(-20.1118 86.1081 50.262)" fill="#0F0F0F"/>
<ellipse cx="76.5671" cy="50.262" rx="0.68594" ry="0.596771" transform="rotate(-20.1118 76.5671 50.262)" fill="#0F0F0F"/>
<path d="M16.232 78.9C17.2231 79.2001 21.996 78.2044 21.996 78.2044L23.1077 74.0489C23.1077 74.0489 22.3716 70.355 21.3494 69.0509C20.3271 67.7469 19.6084 65.5447 19.6084 65.5447C19.6084 65.5447 22.3214 60.034 18.735 61.8281C15.1486 63.6222 15.1777 66.1525 15.8776 67.6718C16.0476 68.0408 16.2035 68.3232 16.3452 68.5375C15.5973 68.1557 14.4207 67.4527 12.7078 66.1689C9.28816 63.606 7.65108 70.7779 8.26859 74.3464C8.8861 77.9149 15.3518 77.2786 15.3518 77.2786C15.3518 77.2786 15.2409 78.5999 16.232 78.9Z" fill="#FFE4D8"/>
<path d="M16.4571 70.5423C16.4571 70.5423 17.9685 70.366 17.9873 69.6804C18.0014 69.1686 17.1759 68.6505 17.1759 68.6505L12.2445 65.8493C12.2445 65.8493 11.1688 64.5263 9.77604 66.3684C8.38327 68.2106 7.02424 72.932 8.59866 75.5045C10.1731 78.077 15.3662 77.1404 15.3662 77.1404L16.1793 78.6487M16.4571 70.5423L13.8297 69.5439M16.4571 70.5423C16.4571 70.5423 17.7003 71.0688 17.794 71.7719C17.8636 72.2941 17.3148 73.033 17.3148 73.033M17.3148 73.033L13.6364 71.6354M17.3148 73.033C17.3148 73.033 17.7033 73.5361 17.6007 73.8633C17.4474 74.3519 16.3101 74.0945 16.3101 74.0945M16.3101 74.0945L13.443 73.7268M16.3101 74.0945C16.3101 74.0945 17.3313 74.6574 17.1215 75.1245C16.9809 75.4373 16.3564 75.5554 16.3564 75.5554C16.3564 75.5554 14.4143 76.1735 13.2497 75.8182" stroke="#2A2A28" stroke-width="0.5"/>
<path d="M15.6745 67.9909C15.6745 67.9909 14.6002 63.3445 18.6759 61.9134C22.7515 60.4822 18.9823 64.8634 19.7494 66.561C20.2345 67.6346 20.7949 68.0816 21.323 69.1348C22.2451 70.9741 22.9467 72.0824 22.9685 74.1398C22.9862 75.8058 21.9683 78.2873 21.9683 78.2873" stroke="#2A2A28" stroke-width="0.5"/>
<path d="M116.201 148.115V139.777C116.201 139.777 128.007 128.575 130.284 127.121C132.551 125.672 132.545 123.946 132.545 123.946L130.284 107.523L127.286 95.5333C127.276 95.4873 127.269 95.4631 127.269 95.4631C127.269 95.4631 123.969 83.7075 115.819 78.1269C110.907 74.7634 111.602 74.695 106.164 72.8506C101.754 71.3551 98.6262 68.3281 98.6262 68.3281L91.4022 71.77C91.4022 71.77 88.6719 75.0562 87.587 77.5247C85.0266 83.3501 87.587 93.8189 87.587 93.8189C87.587 93.8189 84.2677 84.8617 83.5987 82.2501C82.9668 79.7837 81.8642 71.77 81.8642 71.77L78.6009 70.1666L72.2449 72.8506C72.2449 72.8506 63.1533 73.3894 59.7363 76.3737C55.4846 80.0869 54.9213 100.16 54.9213 100.16L24.0284 76.3737L15.1038 78.1269C15.7132 84.7947 95.2173 155.404 116.201 148.115Z" fill="#EB5A40"/>
<path d="M78.5547 35.489C81.8945 34.5489 86.9284 38.4212 86.9284 38.4212L95.3021 46.4846C95.3021 46.4846 99.5415 51.5831 99.1083 55.2811C98.7653 58.2099 95.1512 58.9348 95.3021 61.8785C95.5219 66.1674 104.437 68.4759 104.437 68.4759C104.437 68.4759 122.396 68.5823 121.184 61.8785C120.204 56.4536 104.438 64.0777 108.243 55.2811C112.049 46.4846 100.015 48.2749 101.646 42.1476C104.437 31.6592 95.3021 27.1652 95.3021 27.1652C95.3021 27.1652 86.8901 19.6744 71.0614 27.1652C58.5091 33.1054 66.8691 42.8527 72.1215 55.2811C73.2752 58.0111 69.4205 60.4114 64.8522 61.8785C60.284 63.3457 52.8948 63.4952 53.4336 68.4759C53.9434 73.189 64.8522 73.6072 64.8522 73.6072L78.5547 70.6761C78.5547 70.6761 82.7045 64.0149 78.4764 63.3922C78.447 63.0283 78.2469 62.5355 77.7927 61.8796C75.1538 58.0688 73.226 43.5525 73.226 43.5525C73.226 43.5525 74.8343 36.5363 78.5547 35.489Z" fill="#AC8807"/>
<path d="M78.5547 35.489C81.8945 34.5489 86.9284 38.4212 86.9284 38.4212L95.3021 46.4846C95.3021 46.4846 99.5415 51.5831 99.1083 55.2811C98.7653 58.2099 95.1512 58.9348 95.3021 61.8785C95.5219 66.1674 104.437 68.4759 104.437 68.4759C104.437 68.4759 122.396 68.5823 121.184 61.8785C120.204 56.4536 104.438 64.0777 108.243 55.2811C112.049 46.4846 100.015 48.2749 101.646 42.1476C104.437 31.6592 95.3021 27.1652 95.3021 27.1652C95.3021 27.1652 86.8901 19.6744 71.0614 27.1652C58.5091 33.1054 66.8691 42.8527 72.1215 55.2811C73.2752 58.0111 69.4205 60.4114 64.8522 61.8785C60.284 63.3457 52.8948 63.4952 53.4336 68.4759C53.9434 73.189 64.8522 73.6072 64.8522 73.6072L78.5547 70.6761C78.5547 70.6761 83.1214 63.3457 77.7927 63.3457C72.4639 63.3457 80.8376 66.2768 77.7927 61.8796C75.1538 58.0688 73.226 43.5525 73.226 43.5525C73.226 43.5525 74.8343 36.5363 78.5547 35.489Z" stroke="#7E6200"/>
<ellipse cx="3.01491" cy="5.27609" rx="3.01491" ry="5.27609" transform="matrix(-1 0 0 1 100.139 47.9824)" fill="#FFE4D8"/>
<path d="M111.765 81.5456C112.517 80.0381 112.88 79.7889 113.271 78.5317C113.589 77.5065 113.732 75.822 113.732 75.822C113.732 75.822 113.277 74.0125 110.256 72.5019C108.749 71.7482 107.241 71.7482 107.241 71.7482L103.456 77.0135C103.456 77.0135 103.786 78.9438 104.71 77.4821C105.634 76.0203 106.5 75.1143 106.5 75.1143L106.768 75.6019L105.095 79.6348C105.095 79.6348 105.312 81.522 105.919 80.9176C106.148 80.6892 108.475 75.9885 108.581 75.8219C108.686 75.6553 106.817 81.5984 107.377 82.1868C107.937 82.7752 107.928 82.7823 108.473 82.6106C109.222 82.3745 110.384 75.2015 110.384 75.2015C110.384 75.2015 109.683 82.9729 110.256 83.0534C111.211 83.1875 111.013 83.0531 111.765 81.5456Z" fill="#AD847C" stroke="black" stroke-width="0.5"/>
<path d="M117.64 111.514H52.1188C51.6226 111.514 51.2631 111.987 51.3963 112.465L61.3378 148.152C61.4282 148.477 61.7236 148.701 62.0603 148.701H117.64C118.054 148.701 118.39 148.365 118.39 147.951V112.264C118.39 111.849 118.054 111.514 117.64 111.514Z" fill="#303D2A" stroke="black" stroke-width="0.5"/>
<path d="M98.623 68.416L91.2024 71.5963C86.432 76.3667 85.7556 85.8483 87.4921 93.3281" stroke="black" stroke-width="0.5"/>
<defs>
<filter id="filter0_d_7659_3240" x="23.1914" y="27.4609" width="219.598" height="135.691" filterUnits="userSpaceOnUse" color-interpolation-filters="sRGB">
<feFlood flood-opacity="0" result="BackgroundImageFix"/>
<feColorMatrix in="SourceAlpha" type="matrix" values="0 0 0 0 0 0 0 0 0 0 0 0 0 0 0 0 0 0 127 0" result="hardAlpha"/>
<feOffset dx="4" dy="4"/>
<feGaussianBlur stdDeviation="2"/>
<feComposite in2="hardAlpha" operator="out"/>
<feColorMatrix type="matrix" values="0 0 0 0 0.733333 0 0 0 0 0.784314 0 0 0 0 0.745098 0 0 0 0.5 0"/>
<feBlend mode="normal" in2="BackgroundImageFix" result="effect1_dropShadow_7659_3240"/>
<feBlend mode="normal" in="SourceGraphic" in2="effect1_dropShadow_7659_3240" result="shape"/>
</filter>
</defs>
</svg>
