<svg width="219" height="169" viewBox="0 0 219 169" fill="none" xmlns="http://www.w3.org/2000/svg">
<path d="M148.778 16H9C4.58172 16 1 19.5817 1 24V136.94C1 141.358 4.58171 144.94 8.99999 144.94H148.778C153.196 144.94 156.778 141.358 156.778 136.94V110.875C156.778 108.876 157.526 106.95 158.875 105.476L173.198 89.815C177.624 84.9761 174.668 77.1603 168.148 76.4614L163.925 76.0088C159.861 75.5731 156.778 72.1426 156.778 68.0544V24C156.778 19.5817 153.196 16 148.778 16Z" stroke="#00D230"/>
<g filter="url(#filter0_d_7628_2233)">
<rect width="182.865" height="128.943" rx="8" transform="matrix(-1 0 0 1 210 31.6484)" fill="white"/>
</g>
<path d="M138.16 140.04C138.16 140.04 137.665 139.979 137.359 140.04C135.984 140.316 137.359 143.303 137.359 143.303L141.366 144.753L146.174 146.565H152.584L158.594 140.403L156.19 140.04L152.584 129.527C152.584 129.527 149.78 126.991 149.78 128.802C149.78 130.613 150.982 137.865 150.982 137.865H150.18L146.797 124.088C146.797 124.088 146.36 122.383 145.05 123.229C144.759 123.416 144.613 124.496 144.613 124.074C144.613 123.651 144.972 123.366 143.77 123.002C142.568 122.638 141.929 123.288 141.366 124.09C140.591 125.191 141.991 127.032 141.991 127.032C141.991 127.032 141.485 126.595 140.68 127.032C139.339 127.761 139.807 130.836 139.807 130.836C139.807 130.836 138.161 129.529 138.16 130.977C138.16 132.426 138.16 140.04 138.16 140.04Z" fill="#F5CAC1"/>
<path d="M98.668 33.6312C99.0643 46.8812 98.8742 48.5745 90.3152 56.1737C80.2064 56.2221 75.8849 56.5886 69.8324 43.3785C67.7099 28.7328 74.6784 20.1653 82.766 17.2038C88.6838 17.8782 96.3298 19.7272 98.668 33.6312Z" fill="#ECAFA3"/>
<path d="M79.2485 54.9045L95.6497 49.835C95.6497 49.835 99.1136 66.3009 107.3 65.6441C115.486 64.9872 114.864 86.8043 114.864 86.8043L71.5486 82.4575C71.5486 82.4575 71.5816 66.6741 76.6031 64.2998C80.9926 62.2242 79.2485 54.9045 79.2485 54.9045Z" fill="#ECAFA3"/>
<path d="M82.8066 46.75C87.0482 47.9879 89.3141 47.974 93.0105 45.8549" stroke="black" stroke-width="0.5" stroke-linecap="round" stroke-linejoin="round"/>
<path d="M87.2801 43.4823L91.5662 41.9128L88.1945 33.8114C88.5477 33.048 88.6931 32.251 88.9679 31.4987C89.3102 30.5616 89.4911 30.4399 90.0034 29.9018C91.2329 28.6102 94.2894 28.3323 94.2894 28.3323L95.659 29.8603M75.5265 36.8266C75.5265 36.8266 76.7765 35.1183 77.8596 34.3486C79.3128 33.3159 80.3628 32.7567 82.1456 32.7791C83.4237 32.7952 85.3011 33.6532 85.3011 33.6532M79.7896 38.5128C81.1513 36.8848 81.1162 35.4298 82.6823 35.7529M81.8536 55.2113C81.8536 55.2113 86.9102 57.269 89.9505 56.3055C91.5336 55.8038 93.6172 54.151 93.6172 54.151M92.6461 32.8224C90.8878 32.2363 91.0354 33.9228 90.0034 34.628" stroke="black" stroke-width="0.5" stroke-linecap="round" stroke-linejoin="round"/>
<ellipse cx="92.6485" cy="33.8065" rx="1.14126" ry="1.14366" transform="rotate(-20.1118 92.6485 33.8065)" fill="#0F0F0F"/>
<ellipse cx="82.9747" cy="36.6327" rx="1.14126" ry="1.14366" transform="rotate(-20.1118 82.9747 36.6327)" fill="#0F0F0F"/>
<ellipse cx="70.455" cy="42.4405" rx="3.64104" ry="6.37183" transform="rotate(-22.2312 70.455 42.4405)" fill="#ECAFA3"/>
<path fill-rule="evenodd" clip-rule="evenodd" d="M71.9707 11.4374C69.2139 9.38517 64.8614 9.68345 61.5215 12.3675C57.6789 15.4555 56.6319 20.5321 59.1829 23.7064C60.0518 24.7877 61.2261 25.5087 62.5488 25.8675C62.1056 29.1926 62.4237 32.6505 63.5933 35.8434C64.1913 37.476 64.9908 39.5691 65.79 39.5839C67.07 39.1152 67.7954 38.542 68.3276 37.8056L68.4373 37.7886C68.4373 37.7886 72.2693 44.9897 72.2455 50.4457C72.2442 50.7585 72.2473 51.0597 72.2504 51.3532C72.2639 52.6493 72.2758 53.7945 71.8913 55.1215C71.1404 57.7132 67.7954 61.994 67.7954 61.994C67.7954 61.994 71.465 60.3777 72.6304 59.397C74.932 57.4599 75.237 55.2014 75.3662 52.1959C75.4135 51.0936 75.1609 49.3781 75.1609 49.3781L72.3586 41.7253C71.9384 40.578 72.8821 38.6406 72.8821 38.6406L71.8248 31.3241C72.0124 31.0521 72.2067 30.773 72.4073 30.4884L80.8854 20.7223C81.9067 19.8982 82.9073 19.2663 83.8466 18.9222C85.3004 18.3897 86.8025 19.5205 88.2007 20.573C88.9438 21.1324 89.6576 21.6697 90.3191 21.9235C91.7716 22.4807 93.0851 23.1684 94.2125 23.8041C94.6235 24.0359 95.0097 24.2607 95.3689 24.4698L95.3701 24.4705C95.597 24.6026 95.8131 24.7284 96.0178 24.8457C96.5396 25.6341 97.0971 26.9373 97.5559 29.0877C98.8044 34.9396 99.6294 37.0074 99.6294 37.0074C99.6294 37.0074 100.031 34.9037 100.36 33.5435C100.638 32.3901 98.6128 27.2465 97.9906 25.7094C98.7051 25.7227 98.6417 24.7174 97.5577 21.758C96.7024 19.423 95.434 17.3605 93.8672 15.6247C95.7921 14.2234 96.9872 12.1589 96.9302 9.88526C96.8281 5.81424 92.7503 2.61425 87.8222 2.73789C83.2295 2.85311 79.5192 5.81426 79.118 9.51187C77.3628 9.60987 75.5939 9.96498 73.8599 10.6001C73.205 10.84 72.575 11.1203 71.9707 11.4374Z" fill="black"/>
<path d="M57.1152 104.723C57.1152 104.723 58.0524 120.762 57.9129 131.045C57.769 141.653 56.3161 158.165 56.3161 158.165" stroke="black"/>
<path d="M58.9482 117.496L57.566 104.523L52.8382 110.29L45.5591 119.259L54.5966 123.917L35.2544 133.149C35.2544 133.149 32.8335 136.489 30.0846 134.733C27.3465 132.984 27.3574 128.361 27.3574 128.361L32.816 110.29C32.816 110.29 44.7543 75.9337 54.5966 69.1943C60.5285 65.1325 63.5693 68.2961 70.1367 66.0688C75.4622 64.2626 79.2393 61.002 79.2393 61.002L87.0531 66.0688C87.0531 66.0688 90.3502 70.0373 91.6605 73.0183C94.7525 80.0534 93 84.5 93 84.5C93 84.5 95.669 81.8788 96.4769 78.725C97.24 75.7464 98.5715 66.0688 98.5715 66.0688L102.512 64.1325L112.854 65.1422C112.854 65.1422 121.168 68.0245 125.294 71.6284C130.429 76.1127 134.509 86.4542 134.509 86.4542H106.404L101.336 129.078L78.2051 131.193C77.6741 131.241 77.5777 131.976 78.0782 132.16L99.9537 140.198L126.216 139.734L125.755 154.097C125.019 162.149 82.4457 167.069 57.1052 158.267L58.0267 130.005V122.159L58.9482 117.496Z" fill="#FFBD00"/>
<path d="M28.8828 134.158C24.2012 127.345 31.7763 113.626 31.7763 113.626C31.7763 113.626 43.9805 109.726 45.5607 112.886C47.3812 116.527 44.6504 120.168 44.6504 120.168L59.2642 112.28C59.3508 112.039 59.5533 111.473 59.988 110.261C61.0731 107.234 63.2432 106.222 63.2432 106.222C63.2432 106.222 64.69 101.675 66.8601 101.174C69.0303 100.673 69.0303 101.733 69.0303 104.203C69.0303 107.231 67.2218 109.252 67.2218 109.252L75.179 107.569C75.179 107.569 81.5164 104.876 79.8809 113.628C78.2455 122.379 77.7108 122.042 77.7108 122.042C77.7108 122.042 68.6686 124.735 65.4134 124.735C62.1582 124.735 62.2823 124.125 62.2823 124.125L36.1165 135.166C36.1165 135.166 30.6592 136.744 28.8828 134.158Z" fill="#ECAFA3"/>
<path d="M62.8555 124.722C62.8555 124.722 75.5957 123.974 77.4196 121.992C78.7375 120.559 80.0823 111.083 80.0823 111.083C80.0823 111.083 80.5139 108.447 79.2038 107.502C78.2685 106.827 76.1289 106.786 76.1289 106.786L67.4068 109.248L68.317 106.517C68.317 106.517 69.7526 102.257 68.317 101.055C67.8857 100.693 66.4648 101.056 66.4648 101.056" stroke="black" stroke-width="0.5" stroke-linecap="round"/>
<path d="M150.653 138.475H150.225L146.59 123.429L146.571 123.352L146.511 123.299L146.347 123.488C146.511 123.299 146.511 123.299 146.511 123.299L146.511 123.299L146.511 123.299L146.51 123.298L146.507 123.296L146.498 123.288C146.491 123.282 146.48 123.273 146.466 123.261C146.438 123.239 146.399 123.207 146.35 123.171C146.253 123.098 146.116 123.003 145.961 122.918C145.807 122.833 145.625 122.751 145.437 122.713C145.25 122.676 145.031 122.678 144.835 122.799C144.702 122.882 144.605 123.005 144.535 123.123C144.524 123.14 144.514 123.158 144.504 123.176C144.431 123.056 144.336 122.934 144.212 122.825C143.884 122.534 143.519 122.438 143.149 122.463C142.79 122.488 142.432 122.626 142.098 122.786C141.667 122.993 141.473 123.404 141.405 123.834C141.336 124.262 141.383 124.751 141.467 125.199C141.552 125.651 141.679 126.079 141.784 126.394C141.787 126.402 141.79 126.411 141.793 126.42C141.755 126.411 141.715 126.403 141.673 126.396C141.293 126.331 140.774 126.328 140.251 126.599C139.913 126.774 139.75 127.175 139.662 127.562C139.569 127.968 139.54 128.451 139.54 128.904C139.54 129.361 139.57 129.8 139.599 130.125C139.607 130.221 139.616 130.307 139.624 130.38H138.525H138.275V130.63V140.383L100.615 140.853L107.068 85.5969C107.113 85.2145 107.44 84.928 107.825 84.934L182.968 86.1035C183.412 86.1104 183.753 86.4993 183.702 86.9402L177.414 140.856H155.734L152.108 129.128L152.08 129.039L152.001 128.99L151.869 129.202C152.001 128.99 152.001 128.989 152.001 128.989L152 128.989L152 128.989L151.998 128.988L151.992 128.985L151.972 128.972C151.954 128.961 151.928 128.946 151.895 128.927C151.829 128.889 151.736 128.837 151.624 128.779C151.402 128.664 151.1 128.523 150.793 128.427C150.497 128.336 150.146 128.27 149.853 128.361C149.698 128.409 149.556 128.503 149.457 128.656C149.36 128.806 149.318 128.991 149.318 129.202C149.318 129.579 149.407 130.371 149.536 131.326C149.666 132.288 149.839 133.436 150.011 134.538C150.184 135.64 150.357 136.697 150.486 137.479C150.551 137.87 150.605 138.192 150.643 138.416L150.653 138.475Z" fill="#303D2A" stroke="black" stroke-width="0.5"/>
<path d="M78.6504 61.6484L86.6269 66.4343C93.2789 74.0002 94.026 80.703 91.4127 91.959" stroke="black" stroke-width="0.5"/>
<defs>
<filter id="filter0_d_7628_2233" x="27.1348" y="31.6484" width="191.865" height="136.943" filterUnits="userSpaceOnUse" color-interpolation-filters="sRGB">
<feFlood flood-opacity="0" result="BackgroundImageFix"/>
<feColorMatrix in="SourceAlpha" type="matrix" values="0 0 0 0 0 0 0 0 0 0 0 0 0 0 0 0 0 0 127 0" result="hardAlpha"/>
<feOffset dx="5" dy="4"/>
<feGaussianBlur stdDeviation="2"/>
<feComposite in2="hardAlpha" operator="out"/>
<feColorMatrix type="matrix" values="0 0 0 0 0.733333 0 0 0 0 0.784314 0 0 0 0 0.745098 0 0 0 0.5 0"/>
<feBlend mode="normal" in2="BackgroundImageFix" result="effect1_dropShadow_7628_2233"/>
<feBlend mode="normal" in="SourceGraphic" in2="effect1_dropShadow_7628_2233" result="shape"/>
</filter>
</defs>
</svg>
