<svg width="191" height="155" viewBox="0 0 191 155" fill="none" xmlns="http://www.w3.org/2000/svg">
<path d="M134.67 99.4818L154.899 75.3511L134.502 71.9916L134.67 99.4818Z" stroke="#00D230"/>
<rect x="-0.5" y="0.5" width="134.064" height="109" rx="7.5" transform="matrix(-1 0 0 1 134.066 20)" stroke="#00D230"/>
<g filter="url(#filter0_d_7659_3241)">
<rect width="156" height="110" rx="8" transform="matrix(-1 0 0 1 183.002 37)" fill="white"/>
</g>
<path d="M179.513 75.0004C179.513 75.0004 186.99 67.1178 187.606 66.0467C188.222 64.9756 182.513 69 182.513 69C182.513 69 188.165 63.2024 187.553 62.1337C187.357 61.7907 185.499 63.3497 183.814 64.8743C185.896 62.8673 188.371 60.3375 188.334 59.6869C188.288 58.8718 188.493 58.7056 187.513 58.5C186.663 58.322 181.795 64.1365 180.389 65.9006C181.746 64.0686 186.27 57.8069 186.17 57.5947C185.629 56.4518 184.604 57.5397 184.604 57.5397L176.013 66.0467L175.227 65.2916C175.227 65.2916 176.742 62.8392 177.512 61.5001C178.282 60.161 175.513 61 175.513 61C175.513 61 172.9 63.9749 172.013 66.3912C171.22 68.5487 171.012 71.5001 171.012 71.5001L171.068 71.8753L175.472 74.408L179.513 75.0004Z" fill="#F5CAC1"/>
<path d="M184.602 57.5397C184.602 57.5397 185.627 56.4518 186.168 57.5947C186.287 57.8477 179.831 66.7038 180.011 66.3912C180.19 66.0787 186.53 58.2944 187.511 58.5C188.491 58.7056 188.286 58.8718 188.332 59.6869C188.396 60.8072 181.011 67.5 181.011 67.5C181.011 67.5 187.184 61.4924 187.551 62.1337C188.163 63.2024 182.511 69 182.511 69C182.511 69 188.22 64.9756 187.604 66.0467C186.988 67.1178 179.511 75.0004 179.511 75.0004L175.47 74.408L171.066 71.8753L171.01 71.5001C171.01 71.5001 171.218 68.5487 172.011 66.3912C172.898 63.9749 175.511 61 175.511 61C175.511 61 178.28 60.161 177.51 61.5001C176.74 62.8392 175.225 65.2916 175.225 65.2916L176.011 66.0467" stroke="black" stroke-width="0.5"/>
<path d="M144.511 117.306C143.803 125.048 99.7527 143.762 75.1201 135.671L75.0589 137.5L64.355 133C64.355 133 58.8425 131.7 56.1816 130C53.5311 128.307 52.6816 125.5 52.6816 125.5L57.704 94.3967L61.208 80.3805C61.2196 80.3268 61.2285 80.2986 61.2285 80.2986C61.2285 80.2986 65.0855 66.5562 74.6129 60.0325C78.6352 57.2782 81.6032 55.9815 85.2055 54.7107C86.6924 54.1861 88.2875 53.666 90.1093 53.0495C90.1746 53.0275 90.2401 53.0053 90.306 52.9829C95.461 51.2346 98.2362 50.3371 98.2362 50.3371L103.523 52.0994C103.523 52.0994 106.288 57.2572 108.81 59.1485C112.334 61.7919 112.334 60.9107 112.334 60.9107C113.073 58.0274 114.306 52.6012 114.306 52.6012L119.527 52.8635L125.551 53.8645C125.551 53.8645 136.179 54.4944 140.174 57.983C145.144 62.3238 146.367 90.8877 149.011 97L170.511 71L181.511 75.5L144.511 117.306Z" fill="#EB5A40"/>
<path d="M53.4486 134.225C52.3917 133.847 52.6627 132.283 53.7849 132.283H160.116C161.245 132.283 161.509 133.861 160.442 134.229L140.689 141.04C140.584 141.076 140.474 141.095 140.363 141.095H72.8567C72.7421 141.095 72.6283 141.075 72.5204 141.036L53.4486 134.225Z" fill="#9C9B9B"/>
<path d="M101.761 41.5312L116.846 42.551C116.846 42.551 115.678 54.2434 122.378 53.6147C129.078 52.986 112.337 60.9162 112.337 60.9162C112.337 60.9162 104.668 58.0204 96.7346 53.6147C94.3353 52.2823 96.4736 50.3426 100.88 49.4615C102.915 47.4509 101.761 41.5312 101.761 41.5312Z" fill="#FDC8BE"/>
<path d="M96.4296 17.0475L99.1191 23.9095L101.762 19.5038L115.861 13.3359L125.143 28.3152C125.143 28.3152 126.821 27.9185 127.754 27.2908C129.006 26.4488 129.37 25.1414 131.721 18.6227C134.073 12.104 108.81 1 108.81 1C106.167 6.28681 99.2889 9.82598 97.3574 10.6925C94.1191 12.1452 96.4296 17.0475 96.4296 17.0475Z" fill="#2A2A28" stroke="#2A2A28" stroke-width="0.5"/>
<path d="M124.67 29.1978C120.62 41.3736 120.196 42.4794 109.887 46.5381C100.682 43.2174 99.3409 41.4585 98.2363 27.4361C101.761 12.454 99.1175 11.5729 115.859 13.3354C121.146 14.2166 127.314 14.2185 124.67 29.1978Z" fill="#FDC8BE"/>
<path d="M101.762 42.4089C99.0228 38.7244 97.3555 31.8353 97.3555 31.8353L99.1181 21.2617L100.88 15.0938L101.762 32.4285C107.929 33.5976 120.265 35.3599 120.265 35.8937L125.552 22.1428V27.4296L122.908 36.241C122.747 37.7709 121.208 41.8617 119.384 44.1712C118.019 45.9005 117.11 47.1367 114.979 47.6957C113.647 48.045 111.454 47.6957 111.454 47.6957C111.454 47.6957 108.669 47.4862 107.048 46.8146C104.565 45.7859 103.365 44.5659 101.762 42.4089Z" fill="#2A2A28"/>
<path d="M112.335 33.5984C112.335 33.5984 116.741 35.3607 117.622 33.5984C118.503 31.8361 111.454 29.1893 114.979 26.9777M118.354 22.5501C119.902 21.7853 122.773 22.5501 122.773 22.5501L123.509 24.3949M102.643 23.0233C102.643 23.0233 104.045 21.5985 105.286 21.2594C106.951 20.8045 108.641 21.9362 110.254 22.5501M104.405 24.7855C105.286 26.5493 107.661 26.9777 108.811 25.6667M118.354 25.6667C119.86 27.0176 120.77 27.3634 122.773 26.5478" stroke="black" stroke-width="0.5" stroke-linecap="round" stroke-linejoin="round"/>
<ellipse cx="98.2372" cy="26.5505" rx="2.64341" ry="5.28681" fill="#FDC8BE"/>
<ellipse cx="2.43954" cy="5.28681" rx="2.43954" ry="5.28681" transform="matrix(-0.929795 -0.368077 -0.368077 0.929795 129.916 28.2598)" fill="#FDC8BE"/>
<path d="M73.6836 97.291H150.669C151.165 97.291 151.525 97.7643 151.392 98.2423L139.676 140.299C139.585 140.623 139.29 140.848 138.953 140.848H73.6836C73.2694 140.848 72.9336 140.512 72.9336 140.098V98.041C72.9336 97.6268 73.2694 97.291 73.6836 97.291Z" fill="black" stroke="black" stroke-width="0.5"/>
<path d="M77.8754 85.082L73.1602 98.4418" stroke="black" stroke-width="0.5"/>
<path d="M96.4749 65.316L95.5938 51.2178L101.451 48.1445C101.451 48.1445 101.688 50.6764 101.451 51.288C99.2115 57.0731 112.335 60.0292 112.335 60.0292C112.335 60.0292 120.494 56.7118 119.384 52.9801C119.165 52.2425 118.503 51.2178 118.503 51.2178L124.671 52.9801L128.196 61.7914L112.335 60.9103L96.4749 65.316Z" fill="#FFBD00"/>
<path d="M112.451 60.7185L95.9479 65.4337M108.522 59.1467C108.522 59.1467 101.449 56.9653 101.449 53.6456C101.449 51.288 101.449 48.1445 101.449 48.1445" stroke="#2A2A28" stroke-width="0.5"/>
<path d="M115.512 43.5L118.504 38.8797L111.512 38L104.406 36.2363L106.169 42.4043C106.169 42.4043 108.758 43.7972 110.574 44.1665C112.597 44.578 115.512 43.5 115.512 43.5Z" fill="#FDC8BE" stroke="#2A2A28" stroke-width="0.5"/>
<path d="M114.512 42.5441L116.012 39.9973C116.012 39.9973 113.235 40.3669 111.512 40.0196C109.626 39.6395 107.012 38 107.012 38L107.912 41.9724C107.912 41.9724 110.584 42.7801 111.512 42.9599C112.545 43.1603 114.512 42.5441 114.512 42.5441Z" fill="black"/>
<defs>
<filter id="filter0_d_7659_3241" x="27.002" y="37" width="164" height="118" filterUnits="userSpaceOnUse" color-interpolation-filters="sRGB">
<feFlood flood-opacity="0" result="BackgroundImageFix"/>
<feColorMatrix in="SourceAlpha" type="matrix" values="0 0 0 0 0 0 0 0 0 0 0 0 0 0 0 0 0 0 127 0" result="hardAlpha"/>
<feOffset dx="4" dy="4"/>
<feGaussianBlur stdDeviation="2"/>
<feComposite in2="hardAlpha" operator="out"/>
<feColorMatrix type="matrix" values="0 0 0 0 0.733333 0 0 0 0 0.784314 0 0 0 0 0.745098 0 0 0 0.5 0"/>
<feBlend mode="normal" in2="BackgroundImageFix" result="effect1_dropShadow_7659_3241"/>
<feBlend mode="normal" in="SourceGraphic" in2="effect1_dropShadow_7659_3241" result="shape"/>
</filter>
</defs>
</svg>
