<svg
          width="143"
          height="142"
          viewBox="0 0 143 142"
          fill="none"
          xmlns="http://www.w3.org/2000/svg"
        >
          <path
            d="M131.511 75.0004C131.511 75.0004 138.988 67.1178 139.604 66.0467C140.22 64.9756 134.511 69 134.511 69C134.511 69 140.163 63.2024 139.551 62.1337C139.355 61.7907 137.497 63.3497 135.812 64.8743C137.894 62.8673 140.369 60.3375 140.332 59.6869C140.286 58.8718 140.491 58.7056 139.511 58.5C138.662 58.322 133.793 64.1365 132.387 65.9006C133.744 64.0686 138.268 57.8069 138.168 57.5947C137.627 56.4518 136.602 57.5397 136.602 57.5397L128.011 66.0467L127.225 65.2916C127.225 65.2916 128.74 62.8392 129.51 61.5001C130.28 60.161 127.511 61 127.511 61C127.511 61 124.898 63.9749 124.011 66.3912C123.218 68.5487 123.01 71.5001 123.01 71.5001L123.066 71.8753L127.47 74.408L131.511 75.0004Z"
            fill="#F5CAC1"
          />
          <path
            d="M136.6 57.5397C136.6 57.5397 137.625 56.4518 138.166 57.5947C138.285 57.8477 131.829 66.7038 132.009 66.3912C132.189 66.0787 138.528 58.2944 139.509 58.5C140.489 58.7056 140.284 58.8718 140.33 59.6869C140.394 60.8072 133.009 67.5 133.009 67.5C133.009 67.5 139.182 61.4924 139.549 62.1337C140.161 63.2024 134.509 69 134.509 69C134.509 69 140.218 64.9756 139.602 66.0467C138.986 67.1178 131.509 75.0004 131.509 75.0004L127.468 74.408L123.064 71.8753L123.008 71.5001C123.008 71.5001 123.216 68.5487 124.009 66.3912C124.896 63.9749 127.509 61 127.509 61C127.509 61 130.278 60.161 129.508 61.5001C128.738 62.8392 127.223 65.2916 127.223 65.2916L128.009 66.0467"
            stroke="black"
            stroke-width="0.5"
          />
          <path
            d="M96.5088 117.306C95.8013 125.048 51.7508 143.762 27.1182 135.671L27.0569 137.5L16.3531 133C16.3531 133 10.8406 131.7 8.17969 130C5.52916 128.307 4.67969 125.5 4.67969 125.5L9.702 94.3967L13.206 80.3805C13.2177 80.3268 13.2265 80.2986 13.2265 80.2986C13.2265 80.2986 17.0836 66.5562 26.6109 60.0325C30.6332 57.2782 33.6013 55.9815 37.2035 54.7107C38.6905 54.1861 40.2855 53.666 42.1074 53.0495C42.1726 53.0275 42.2382 53.0053 42.304 52.9829C47.4591 51.2346 50.2342 50.3371 50.2342 50.3371L55.521 52.0994C55.521 52.0994 58.2862 57.2572 60.8078 59.1485C64.3324 61.7919 64.3324 60.9107 64.3324 60.9107C65.071 58.0274 66.3044 52.6012 66.3044 52.6012L71.5246 52.8635L77.5494 53.8645C77.5494 53.8645 88.1775 54.4944 92.172 57.983C97.1423 62.3238 98.3654 90.8877 101.009 97L122.509 71L133.509 75.5L96.5088 117.306Z"
            fill="#EB5A40"
          />
          <path
            d="M5.44664 134.225C4.38978 133.847 4.66074 132.283 5.78298 132.283H112.114C113.243 132.283 113.507 133.861 112.44 134.229L92.6874 141.04C92.5825 141.076 92.4723 141.095 92.3614 141.095H24.8548C24.7401 141.095 24.6264 141.075 24.5184 141.036L5.44664 134.225Z"
            fill="#9C9B9B"
          />
          <path
            d="M53.759 41.5312L68.8444 42.551C68.8444 42.551 67.6763 54.2434 74.3763 53.6147C81.0763 52.986 64.3348 60.9162 64.3348 60.9162C64.3348 60.9162 56.6658 58.0204 48.7326 53.6147C46.3333 52.2823 48.4716 50.3426 52.8779 49.4615C54.9127 47.4509 53.759 41.5312 53.759 41.5312Z"
            fill="#FDC8BE"
          />
          <path
            d="M48.4277 17.0475L51.1171 23.9095L53.7605 19.5038L67.8587 13.3359L77.1415 28.3152C77.1415 28.3152 78.8189 27.9185 79.7519 27.2908C81.0037 26.4488 81.3676 25.1414 83.7191 18.6227C86.0706 12.104 60.8081 1 60.8081 1C58.1647 6.28681 51.2869 9.82598 49.3554 10.6925C46.1172 12.1452 48.4277 17.0475 48.4277 17.0475Z"
            fill="#2A2A28"
            stroke="#2A2A28"
            stroke-width="0.5"
          />
          <path
            d="M76.6684 29.1978C72.6183 41.3736 72.1944 42.4794 61.885 46.5381C52.6803 43.2174 51.3389 41.4585 50.2344 27.4361C53.7589 12.454 51.1155 11.5729 67.8571 13.3354C73.1439 14.2166 79.3118 14.2185 76.6684 29.1978Z"
            fill="#FDC8BE"
          />
          <path
            d="M53.7596 42.4089C51.0208 38.7244 49.3535 31.8353 49.3535 31.8353L51.1162 21.2617L52.8781 15.0938L53.7596 32.4285C59.9271 33.5976 72.263 35.3599 72.263 35.8937L77.5498 22.1428V27.4296L74.9064 36.241C74.7455 37.7709 73.2059 41.8617 71.3823 44.1712C70.0169 45.9005 69.1079 47.1367 66.9766 47.6957C65.6452 48.045 63.4521 47.6957 63.4521 47.6957C63.4521 47.6957 60.6674 47.4862 59.0464 46.8146C56.5635 45.7859 55.3629 44.5659 53.7596 42.4089Z"
            fill="#2A2A28"
          />
          <path
            d="M64.3332 33.5984C64.3332 33.5984 68.7389 35.3607 69.62 33.5984C70.5012 31.8361 63.452 29.1893 66.9766 26.9777M70.3525 22.5501C71.9 21.7853 74.7708 22.5501 74.7708 22.5501L75.5072 24.3949M54.6406 23.0233C54.6406 23.0233 56.0433 21.5985 57.284 21.2594C58.9487 20.8045 60.6392 21.9362 62.2523 22.5501M56.4029 24.7855C57.284 26.5493 59.6595 26.9777 60.8086 25.6667M70.3525 25.6667C71.8583 27.0176 72.7678 27.3634 74.7708 26.5478"
            stroke="black"
            stroke-width="0.5"
            stroke-linecap="round"
            stroke-linejoin="round"
          />
          <ellipse
            cx="50.2352"
            cy="26.5505"
            rx="2.64341"
            ry="5.28681"
            fill="#FDC8BE"
          />
          <ellipse
            cx="2.43954"
            cy="5.28681"
            rx="2.43954"
            ry="5.28681"
            transform="matrix(-0.929795 -0.368077 -0.368077 0.929795 81.9141 28.2598)"
            fill="#FDC8BE"
          />
          <path
            d="M24.9316 98.041C24.9316 97.6268 25.2674 97.291 25.6816 97.291H102.667C103.163 97.291 103.523 97.7643 103.39 98.2423L91.6738 140.299C91.5835 140.623 91.288 140.848 90.9513 140.848H25.6816C25.2674 140.848 24.9316 140.512 24.9316 140.098V98.041Z"
            fill="black"
            stroke="black"
            stroke-width="0.5"
          />
          <path
            d="M29.8734 85.082L25.1582 98.4418"
            stroke="black"
            stroke-width="0.5"
          />
          <path
            d="M48.4729 65.316L47.5918 51.2178L53.449 48.1445C53.449 48.1445 53.6857 50.6764 53.449 51.288C51.2096 57.0731 64.3334 60.0292 64.3334 60.0292C64.3334 60.0292 72.4919 56.7118 71.3824 52.9801C71.1632 52.2425 70.5013 51.2178 70.5013 51.2178L76.6693 52.9801L80.1938 61.7914L64.3334 60.9103L48.4729 65.316Z"
            fill="#FFBD00"
          />
          <path
            d="M64.4492 60.7185L47.9459 65.4337M60.5199 59.1467C60.5199 59.1467 53.447 56.9653 53.447 53.6456C53.447 51.288 53.447 48.1445 53.447 48.1445"
            stroke="#2A2A28"
            stroke-width="0.5"
          />
          <path
            d="M67.5098 43.5L70.5025 38.8797L63.5098 38L56.4043 36.2363L58.1666 42.4043C58.1666 42.4043 60.7564 43.7972 62.5722 44.1665C64.5954 44.578 67.5098 43.5 67.5098 43.5Z"
            fill="#FDC8BE"
            stroke="#2A2A28"
            stroke-width="0.5"
          />
          <path
            d="M66.5098 42.5441L68.0098 39.9973C68.0098 39.9973 65.2332 40.3669 63.5098 40.0196C61.6238 39.6395 59.0098 38 59.0098 38L59.9098 41.9724C59.9098 41.9724 62.5824 42.7801 63.5098 42.9599C64.543 43.1603 66.5098 42.5441 66.5098 42.5441Z"
            fill="black"
          />
        </svg>