<svg xmlns="http://www.w3.org/2000/svg" width="413.07" height="360.66" fill="none"><mask id="a" fill="#fff"><path fill-rule="evenodd" d="M1080.62 337.873c48.45-32.256 80.38-87.372 80.38-149.945 0-28.312-6.54-55.096-18.18-78.928-63.09 8.178-111.82 62.112-111.82 127.427 0 41.234 19.42 77.933 49.62 101.446" clip-rule="evenodd"/></mask><path fill="#005e2a" fill-rule="evenodd" d="M294.62 337.873C343.07 305.617 375 250.501 375 187.928c0-28.312-6.54-55.096-18.18-78.928C293.73 117.178 245 171.112 245 236.427c0 41.234 19.42 77.933 49.62 101.446" clip-rule="evenodd"/><path fill="#005e2a" d="m1080.62 337.873-.62.789.57.443.6-.4zM1142.82 109l.9-.439-.32-.645-.71.092zm17.18 78.928c0 62.225-31.75 117.034-79.94 149.112l1.11 1.665c48.72-32.433 80.83-87.855 80.83-150.777Zm-18.08-78.489c11.58 23.698 18.08 50.333 18.08 78.489h2c0-28.467-6.57-55.402-18.28-79.367zM1032 236.427c0-64.806 48.35-118.321 110.95-126.435l-.26-1.984C1079.11 116.25 1030 170.603 1030 236.427Zm49.23 100.657c-29.96-23.332-49.23-59.744-49.23-100.657h-2c0 41.556 19.57 78.54 50 102.235z" mask="url(#a)" transform="translate(-786)"/><ellipse cx="180" cy="180.002" fill="#fff" rx="180" ry="180.002"/><circle cx="367.077" cy="52.303" r="31.335" fill="#00d230" stroke="#404040" stroke-width="2" transform="rotate(8.739)"/><path fill="#000" d="M369.49 99.777c.54.733.38 1.763-.35 2.301l-18.03 13.226a4 4 0 0 1-5.59-.859l-4.26-5.798a1.66 1.66 0 0 1 .36-2.302 1.65 1.65 0 0 1 2.3.352l2.31 3.14a3.99 3.99 0 0 0 5.58.856l15.38-11.27a1.644 1.644 0 0 1 2.3.354"/><path stroke="#000" stroke-linecap="round" stroke-width="4" d="m395.17 96.541 15.9 1.774M389.52 86.59l13.58-8.462m-20.34-1.532 4.51-15.352"/><path fill="#00d230" stroke="#404040" stroke-width="2" d="M312.73 340.976c-1.85 12.057-13.46 20.332-25.97 18.407-12.52-1.924-21.11-13.302-19.26-25.359 1.86-12.057 13.46-20.332 25.98-18.407 12.52 1.924 21.11 13.302 19.25 25.359z"/><path fill="#000" d="M298.74 333.041c.39-.39.39-1.04 0-1.41l-2.34-2.34c-.37-.39-1.02-.39-1.41 0l-1.84 1.83 3.75 3.75m-15.87 8.38v3.75h3.75l11.06-11.07-3.75-3.75z"/></svg>