<svg xmlns="http://www.w3.org/2000/svg" width="522.91" height="461" fill="none"><mask id="a" fill="#fff"><path fill-rule="evenodd" d="M1192.19 439.537c66.59-44.328 110.47-120.074 110.47-206.069 0-38.907-8.98-75.717-24.99-108.468-86.7 11.239-153.67 85.36-153.67 175.122 0 56.668 26.69 107.101 68.19 139.415" clip-rule="evenodd"/></mask><path fill="#e2ffd5" fill-rule="evenodd" d="M357.19 438.537c66.59-44.328 110.47-120.074 110.47-206.069 0-38.907-8.98-75.717-24.99-108.468C355.97 135.239 289 209.36 289 299.122c0 56.668 26.69 107.101 68.19 139.415" clip-rule="evenodd"/><path fill="#e2ffd5" d="m1192.19 439.537-.62.789.57.443.6-.399zM1277.67 125l.9-.439-.32-.645-.71.092zm23.99 108.468c0 85.646-43.7 161.086-110.03 205.237l1.11 1.665c66.86-44.506 110.92-120.558 110.92-206.902zm-24.89-108.029c15.94 32.617 24.89 69.277 24.89 108.029h2c0-39.063-9.02-76.022-25.09-108.907zM1125 300.122c0-89.253 66.59-162.955 152.8-174.13l-.26-1.984C1190.35 135.311 1123 209.85 1123 300.122Zm67.8 138.626c-41.26-32.132-67.8-82.28-67.8-138.626h-2c0 56.989 26.84 107.709 68.57 140.204z" mask="url(#a)" transform="translate(-835 -1)"/><g filter="url(#b)" transform="translate(-835 -1)"><circle cx="1061.5" cy="227.5" r="226.5" fill="#fff"/></g><circle cx="458.532" cy="62.79" r="43.437" fill="#00d230" stroke="#f2f2f5" stroke-width="2" transform="rotate(8.739)"/><path fill="#fff" d="M463.77 121.16a2.26 2.26 0 0 1-.49 3.162l-25.99 19.063a4 4 0 0 1-5.59-.859l-6.73-9.176a2.26 2.26 0 0 1 .49-3.163c1-.738 2.42-.522 3.16.484l4.06 5.519a3.99 3.99 0 0 0 5.58.856l22.35-16.372c1-.738 2.42-.52 3.16.486"/><path stroke="#fff" stroke-linecap="round" stroke-width="4" d="m499.06 116.709 21.85 2.438M491.29 103.033l18.66-11.63M482 89.299l6.19-21.098"/><path fill="#00d230" stroke="#f2f2f5" stroke-width="2" d="M396.72 431.253c-2.58 16.785-18.73 28.284-36.13 25.61s-29.35-18.494-26.77-35.278c2.58-16.785 18.73-28.285 36.13-25.61 17.4 2.674 29.35 18.493 26.77 35.278z"/><path fill="#fff" d="M377.12 420.29c.53-.536.53-1.429 0-1.938l-3.22-3.216c-.51-.536-1.4-.536-1.93 0l-2.53 2.515 5.15 5.154m-21.81 11.516v5.154h5.15l15.2-15.213-5.15-5.154z"/><defs><filter id="b" width="461" height="461" x="835" y="1" color-interpolation-filters="sRGB" filterUnits="userSpaceOnUse"><feFlood flood-opacity="0" result="BackgroundImageFix"/><feColorMatrix in="SourceAlpha" result="hardAlpha" values="0 0 0 0 0 0 0 0 0 0 0 0 0 0 0 0 0 0 127 0"/><feOffset dx="4" dy="4"/><feGaussianBlur stdDeviation="2"/><feComposite in2="hardAlpha" operator="out"/><feColorMatrix values="0 0 0 0 0.733333 0 0 0 0 0.784314 0 0 0 0 0.745098 0 0 0 0.5 0"/><feBlend in2="BackgroundImageFix" result="effect1_dropShadow_7993_341"/><feBlend in="SourceGraphic" in2="effect1_dropShadow_7993_341" result="shape"/></filter></defs></svg>