<svg class="icon" viewBox="0 0 100 100" xmlns="http://www.w3.org/2000/svg" aria-hidden="true" role="img"><path d="M86 47a18.39 18.39 0 01-7.19 35.44H21.33C10.94 81.82 2.5 73.89 2.5 63.59a18.8 18.8 0 019.37-16.23A12.9 12.9 0 0124.35 30.7a13.4 13.4 0 018 2.69A28.3 28.3 0 0186 45.36v1.67zM24.21 59.37c0 7.84 6.17 12.25 13.55 12.25A14.89 14.89 0 0048.89 67c-1.35-1.67-2.83-3.3-4.22-5a9.26 9.26 0 01-6.68 3c-3.29 0-6.13-2.18-6.13-5.62a5.73 5.73 0 016-5.61c10.21 0 12.39 17.81 27.23 17.81 7.24 0 13.36-4.54 13.36-12.15S72.31 47.31 65 47.31a14.68 14.68 0 00-11.18 4.5c1.49 1.62 2.88 3.34 4.31 5a9.21 9.21 0 016.59-3c3.06 0 6.13 2.18 6.13 5.43 0 3.57-2.6 5.84-6.08 5.84-9.88 0-12.52-17.81-27-17.81-7.19 0-13.54 4.41-13.54 12.06z" fill="#212121"/></svg>
