<svg viewBox="0 0 100 100" xmlns="http://www.w3.org/2000/svg" aria-hidden="true" role="img"><linearGradient id="a" gradientUnits="userSpaceOnUse" x1="4.86" x2="95.14" y1="50" y2="50"><stop offset="0" stop-color="#3f8fbe"/><stop offset="1" stop-color="#6b62ab"/></linearGradient><path d="M10.41 49.53h15.25l-8.82 9.33H29L25.13 69C40.05 84.27 56 87.49 56 87.49c0-4.25 1-20.67 2-23.55A15.62 15.62 0 0159.88 60c2.2-2.71 5.08-3.71 8.46-3.9A26.28 26.28 0 0178 57.83a6.35 6.35 0 005.76-.34 27.05 27.05 0 003.72-2.37 1.89 1.89 0 011.36-.49 3.16 3.16 0 003.21-1.88 10.18 10.18 0 011.36-2.37 13.68 13.68 0 001.7-7.29c-.17-1.87-.33-3.72-.49-5.42a3.76 3.76 0 00-1-2.54 5.64 5.64 0 00-2.54-1.87c-2-.84-4.08-1.7-6.09-2.37a54.13 54.13 0 01-8.47-3.72 6.87 6.87 0 01-3.2-4.92 7 7 0 00-3.72-5.59 11.25 11.25 0 00-7.46-1 10.68 10.68 0 01-5.58-.17c-1.18-.34-2.21-.67-3.39-1H53l-2.21-.67c-3.91-1.18-5.59-1.87-12-.67 0 0-10.5 2-17.79 9.83L4.86 39.91h14.41z" fill="url(#a)"/></svg>
