<svg xmlns="http://www.w3.org/2000/svg" fill="none" viewBox="0 0 95 56"><circle cx="70" cy="24.998" r="25" fill="#E1F5E5"/><path fill="#007936" d="M68.333.998a6.83 6.83 0 0 1 6.834 6.833v34.167a6.81 6.81 0 0 1-6.834 6.833H82v6.834H0V48.83h13.667a6.83 6.83 0 0 1-6.834-6.833V7.831A6.81 6.81 0 0 1 13.667.998zm0 6.833H13.667v34.167h54.666zM41 28.331c7.55 0 13.667 3.075 13.667 6.834v3.416H27.333v-3.416c0-3.759 6.116-6.834 13.667-6.834m0-17.083a6.83 6.83 0 0 1 6.833 6.833A6.83 6.83 0 0 1 41 24.915a6.81 6.81 0 0 1-6.833-6.834A6.83 6.83 0 0 1 41 11.248"/></svg>