<?xml version="1.0" encoding="UTF-8" standalone="no"?>
<svg
   width="483.69202"
   height="932.08527"
   viewBox="0 0 483.69202 932.08527"
   fill="none"
   version="1.1"
   id="svg7"
   xmlns="http://www.w3.org/2000/svg"
   xmlns:svg="http://www.w3.org/2000/svg">
  <defs
     id="defs7" />
  <path
     d="m 273.52993,365.93 c -14.532,30.333 -21.931,63.589 -21.632,97.223 0.3,33.633 8.29,66.752 23.36,96.821"
     stroke="#ffffff"
     stroke-width="2"
     id="path1" />
  <path
     d="m 301.87893,600.991 c 21.888,26.694 49.739,47.875 81.309,61.838 31.57,13.963 65.978,20.319 100.453,18.555"
     stroke="#ffffff"
     stroke-width="2"
     id="path2" />
  <path
     d="m 462.36793,241.132 c -32.676,-2.112 -65.413,3.081 -95.831,15.201 -30.419,12.12 -57.756,30.864 -80.026,54.869"
     stroke="#ffffff"
     stroke-width="2"
     id="path3" />
  <path
     d="M 1.0929267,397.292 C 13.407927,312.117 48.987927,231.992 103.91393,165.739"
     stroke="#ffffff"
     stroke-width="2"
     id="path4" />
  <path
     d="M 142.43793,803.834 C 65.784927,731.271 15.933927,634.911 0.98992674,530.423"
     stroke="#ffffff"
     stroke-width="2"
     id="path5" />
  <path
     d="m 446.07593,931.086 c -88.052,-3.33 -173.371,-31.47 -246.128,-81.18"
     stroke="#ffffff"
     stroke-width="2"
     stroke-dasharray="30, 30"
     id="path6" />
  <path
     d="m 201.75693,76.863 c 61.347,-41.51 131.678,-67.854 205.2,-76.863"
     stroke="#ffffff"
     stroke-width="2"
     stroke-dasharray="30, 30"
     id="path7" />
</svg>
