<svg width="1039" height="1041" viewBox="0 0 1039 1041" fill="none" xmlns="http://www.w3.org/2000/svg">
<path d="M523.124 282.561C491.734 282.18 460.588 288.11 431.534 300C402.481 311.89 376.113 329.497 353.996 351.776C331.88 374.055 314.466 400.551 302.789 429.691C291.112 458.831 285.41 490.02 286.022 521.406C286.634 552.793 293.546 583.736 306.35 612.399C319.153 641.062 337.586 666.86 360.553 688.26C383.521 709.66 410.555 726.227 440.049 736.976C469.544 747.725 500.898 752.437 532.25 750.833" stroke="white" stroke-width="2"/>
<path d="M520.079 1039.15C451.913 1039.15 384.414 1025.73 321.437 999.642C258.46 973.556 201.237 935.321 153.036 887.12C104.835 838.919 66.6005 781.697 40.5144 718.719C14.4283 655.742 1.00197 588.243 1.00195 520.077C1.00194 451.911 14.4283 384.412 40.5143 321.435C66.6004 258.458 104.835 201.235 153.036 153.034C201.237 104.833 258.46 66.5985 321.437 40.5124C384.414 14.4263 451.913 1 520.079 1" stroke="white" stroke-width="2"/>
</svg>
