<svg width="1311" height="1311" viewBox="0 0 1311 1311" fill="none" xmlns="http://www.w3.org/2000/svg">
<path d="M465.268 557.664C450.736 587.997 443.337 621.253 443.636 654.887C443.936 688.52 451.926 721.639 466.996 751.708" stroke="white" stroke-width="2"/>
<path d="M493.617 792.725C515.505 819.419 543.356 840.6 574.926 854.563C606.496 868.526 640.904 874.882 675.379 873.118" stroke="white" stroke-width="2"/>
<path d="M654.106 432.866C621.43 430.754 588.693 435.947 558.275 448.067C527.856 460.187 500.519 478.931 478.249 502.936" stroke="white" stroke-width="2"/>
<path d="M192.831 589.026C205.146 503.851 240.726 423.726 295.652 357.473" stroke="white" stroke-width="2"/>
<path d="M334.176 995.568C257.523 923.005 207.672 826.645 192.728 722.157" stroke="white" stroke-width="2"/>
<path d="M637.814 1122.82C549.762 1119.49 464.443 1091.35 391.686 1041.64" stroke="white" stroke-width="2" stroke-dasharray="30 30"/>
<path d="M393.495 268.597C454.842 227.087 525.173 200.743 598.695 191.734" stroke="white" stroke-width="2" stroke-dasharray="30 30"/>
</svg>
