<svg xmlns="http://www.w3.org/2000/svg" fill="none" viewBox="0 0 82 81"><ellipse cx="56.455" cy="24.998" fill="#354039" rx="24.761" ry="25"/><path fill="#8FF295" d="M73.125 62.995c5.164-4.485 8.088-10.463 8.088-16.667 0-6.593-3.167-12.76-8.918-17.364-5.597-4.48-13.005-6.946-20.861-6.946s-15.265 2.467-20.861 6.947c-5.75 4.604-8.918 10.77-8.918 17.363s3.167 12.759 8.918 17.363c5.596 4.48 13.005 6.947 20.86 6.947 1.047 0 2.1-.045 3.145-.135l1.784 1.508c6.148 5.191 14.009 8.049 22.143 8.05h2.707v-5.617l-.793-.772a32.8 32.8 0 0 1-7.294-10.677m-13.217 5.028-3.58-3.024-1.194.142q-1.843.22-3.7.22C38 65.361 27.07 56.823 27.07 46.328S38 27.294 51.434 27.294s24.364 8.539 24.364 19.034c0 5.228-2.677 10.11-7.537 13.745l-1.56 1.166.72 1.984a37.9 37.9 0 0 0 6.41 11.183 28.7 28.7 0 0 1-13.923-6.383"/><path fill="#8FF295" d="M7.476 50.624a36.1 36.1 0 0 0 5.89-10.393l.713-1.974-1.558-1.165c-4.583-3.428-7.107-8.028-7.107-12.953 0-9.898 10.323-17.95 23.01-17.95 9.335 0 17.389 4.358 20.994 10.602q1.005-.048 2.017-.05 2.035 0 4.033.193c-1.393-3.518-3.813-6.73-7.14-9.392C42.988 3.267 35.92.912 28.425.912S13.862 3.267 8.52 7.542C3.026 11.94 0 17.835 0 24.139c0 5.903 2.767 11.59 7.656 15.87A31 31 0 0 1 .793 50.021L0 50.795v5.521h2.707c5.006 0 9.943-1.136 14.42-3.318a25.3 25.3 0 0 1-.857-5.548 27.3 27.3 0 0 1-8.794 3.174"/></svg>