<svg width="89" height="96" viewBox="0 0 89 96" fill="none" xmlns="http://www.w3.org/2000/svg">
<path d="M63.902 57.2213C64.258 54.0742 64.525 50.927 64.525 47.6844C64.525 44.4419 64.258 41.2947 63.902 38.1476H78.943C79.655 41.1994 80.1 44.3942 80.1 47.6844C80.1 50.9747 79.655 54.1695 78.943 57.2213M56.0255 83.7339C58.6955 78.4409 60.7425 72.7188 62.1665 66.7582H75.294C71.022 74.6261 64.2135 80.7298 56.0255 83.7339ZM54.913 57.2213H34.087C33.642 54.0742 33.375 50.927 33.375 47.6844C33.375 44.4419 33.642 41.247 34.087 38.1476H54.913C55.3135 41.247 55.625 44.4419 55.625 47.6844C55.625 50.927 55.3135 54.0742 54.913 57.2213ZM44.5 85.6413C40.8065 79.9191 37.825 73.5771 36.0005 66.7582H52.9995C51.175 73.5771 48.1935 79.9191 44.5 85.6413ZM26.7 28.6107H13.706C17.9335 20.695 24.7865 14.5914 32.93 11.635C30.26 16.928 28.2575 22.6501 26.7 28.6107ZM13.706 66.7582H26.7C28.2575 72.7188 30.26 78.4409 32.93 83.7339C24.7865 80.7298 17.9335 74.6261 13.706 66.7582ZM10.057 57.2213C9.345 54.1695 8.9 50.9747 8.9 47.6844C8.9 44.3942 9.345 41.1994 10.057 38.1476H25.098C24.742 41.2947 24.475 44.4419 24.475 47.6844C24.475 50.927 24.742 54.0742 25.098 57.2213M44.5 9.67994C48.1935 15.4021 51.175 21.7918 52.9995 28.6107H36.0005C37.825 21.7918 40.8065 15.4021 44.5 9.67994ZM75.294 28.6107H62.1665C60.7425 22.6501 58.6955 16.928 56.0255 11.635C64.2135 14.6391 71.022 20.695 75.294 28.6107ZM44.5 0C19.8915 0 0 21.458 0 47.6844C0 60.3311 4.68838 72.4599 13.0337 81.4024C17.166 85.8303 22.0716 89.3428 27.4706 91.7391C32.8696 94.1355 38.6562 95.3689 44.5 95.3689C56.3021 95.3689 67.6209 90.345 75.9662 81.4024C84.3116 72.4599 89 60.3311 89 47.6844C89 41.4224 87.849 35.2217 85.6126 29.4364C83.3763 23.6511 80.0985 18.3944 75.9662 13.9664C71.834 9.53854 66.9284 6.02613 61.5294 3.62976C56.1304 1.23339 50.3438 0 44.5 0Z" fill="#F1F1F1"/>
</svg>
