<svg width="786" height="430" viewBox="0 0 786 430" fill="none" xmlns="http://www.w3.org/2000/svg">
<path d="M173.318 156.625C121.588 112.59 82.3912 100.734 0.999163 93.9059" stroke="white" stroke-width="2" stroke-dasharray="30 30"/>
<path d="M8 362.844C62.612 360.053 118.111 345.803 169.539 304.843" stroke="white" stroke-width="2" stroke-dasharray="30 30"/>
<path d="M758.028 237.615C702.822 192.175 656.216 185.631 581.244 192.175" stroke="white" stroke-width="2" stroke-dasharray="30 30"/>
<path d="M380.725 111.59C366.384 90.8193 369.47 79.009 387.418 57.7338" stroke="white" stroke-width="2"/>
<path d="M508.693 361.336C523.034 340.565 519.948 328.755 502 307.48" stroke="white" stroke-width="2"/>
<path d="M604.051 155.61C636.778 179.899 684.004 128.463 674.513 116.091C670.646 111.051 665.03 115.246 664.658 117.805C663.62 124.937 664.548 127.817 667.298 134.48C673.299 149.015 711.632 132.795 719.067 116.091C724.673 103.496 725.717 83.8435 719.067 83.8435" stroke="white" stroke-width="2"/>
<g filter="url(#filter0_d_7721_865)">
<ellipse cx="3.34949" cy="3.45487" rx="3.34949" ry="3.45487" transform="matrix(-0.963795 -0.27102 -0.254153 0.96602 733.518 30.666)" fill="#00D230"/>
</g>
<g filter="url(#filter1_d_7721_865)">
<ellipse cx="3.34949" cy="3.45487" rx="3.34949" ry="3.45487" transform="matrix(-0.963795 -0.27102 -0.254153 0.96602 746.513 30.2227)" fill="#00D230"/>
</g>
<g filter="url(#filter2_d_7721_865)">
<ellipse cx="3.34949" cy="3.45487" rx="3.34949" ry="3.45487" transform="matrix(-0.963795 -0.27102 -0.254153 0.96602 759.505 29.7773)" fill="#00D230"/>
</g>
<path d="M743.324 65.1251L738.85 54.4028C738.85 54.4028 771.716 54.7413 775.688 41.1763C779.666 27.5894 765.264 17.7097 750.462 14.3856C732.748 10.4079 707.449 18.6478 708.795 35.2795C709.645 45.785 727.741 55.6245 727.741 55.6245L743.324 65.1251Z" stroke="white" stroke-width="3"/>
<circle cx="17.2794" cy="17.2794" r="16.2794" transform="matrix(0.996966 0.0778366 0.0778366 -0.996966 224.434 394.887)" stroke="white" stroke-width="2"/>
<path d="M243.436 369.96C248.417 370.349 252.139 374.702 251.751 379.683C251.362 384.664 247.008 388.387 242.027 387.998" stroke="white" stroke-width="2"/>
<circle cx="6" cy="6" r="6" transform="matrix(0.94285 0.333218 0.333218 -0.94285 244 362.314)" fill="#00D230"/>
<circle cx="11.023" cy="11.023" r="10.023" transform="matrix(-0.965926 0.258819 0.258819 0.965926 410.297 9)" stroke="white" stroke-width="2"/>
<path d="M404.165 28.0316C401.086 28.8565 397.922 27.0295 397.097 23.9508C396.272 20.8722 398.099 17.7077 401.178 16.8828" stroke="#00D230" stroke-width="2"/>
<path d="M499.859 403L498.865 401.993C495.332 398.43 493 396.072 493 393.196C493 390.839 494.66 389 496.773 389C497.966 389 499.112 389.618 499.859 390.587C500.607 389.618 501.752 389 502.946 389C505.058 389 506.718 390.839 506.718 393.196C506.718 396.072 504.386 398.43 500.854 401.993L499.859 403Z" fill="#00D230"/>
<path d="M511.004 418.382L504.288 411.888C504.288 411.888 526.145 402.492 524.019 391.449C521.889 380.389 508.902 377.421 497.946 379.343C484.836 381.644 470.99 395.066 477.708 406.781C481.952 414.181 497.368 416.037 497.368 416.037L511.004 418.382Z" stroke="white" stroke-width="3"/>
<defs>
<filter id="filter0_d_7721_865" x="724.064" y="27.6367" width="14.6934" height="14.918" filterUnits="userSpaceOnUse" color-interpolation-filters="sRGB">
<feFlood flood-opacity="0" result="BackgroundImageFix"/>
<feColorMatrix in="SourceAlpha" type="matrix" values="0 0 0 0 0 0 0 0 0 0 0 0 0 0 0 0 0 0 127 0" result="hardAlpha"/>
<feOffset dx="2" dy="2"/>
<feGaussianBlur stdDeviation="2"/>
<feComposite in2="hardAlpha" operator="out"/>
<feColorMatrix type="matrix" values="0 0 0 0 0 0 0 0 0 0 0 0 0 0 0 0 0 0 0.25 0"/>
<feBlend mode="normal" in2="BackgroundImageFix" result="effect1_dropShadow_7721_865"/>
<feBlend mode="normal" in="SourceGraphic" in2="effect1_dropShadow_7721_865" result="shape"/>
</filter>
<filter id="filter1_d_7721_865" x="737.06" y="27.1934" width="14.6934" height="14.918" filterUnits="userSpaceOnUse" color-interpolation-filters="sRGB">
<feFlood flood-opacity="0" result="BackgroundImageFix"/>
<feColorMatrix in="SourceAlpha" type="matrix" values="0 0 0 0 0 0 0 0 0 0 0 0 0 0 0 0 0 0 127 0" result="hardAlpha"/>
<feOffset dx="2" dy="2"/>
<feGaussianBlur stdDeviation="2"/>
<feComposite in2="hardAlpha" operator="out"/>
<feColorMatrix type="matrix" values="0 0 0 0 0 0 0 0 0 0 0 0 0 0 0 0 0 0 0.25 0"/>
<feBlend mode="normal" in2="BackgroundImageFix" result="effect1_dropShadow_7721_865"/>
<feBlend mode="normal" in="SourceGraphic" in2="effect1_dropShadow_7721_865" result="shape"/>
</filter>
<filter id="filter2_d_7721_865" x="750.052" y="26.748" width="14.6934" height="14.918" filterUnits="userSpaceOnUse" color-interpolation-filters="sRGB">
<feFlood flood-opacity="0" result="BackgroundImageFix"/>
<feColorMatrix in="SourceAlpha" type="matrix" values="0 0 0 0 0 0 0 0 0 0 0 0 0 0 0 0 0 0 127 0" result="hardAlpha"/>
<feOffset dx="2" dy="2"/>
<feGaussianBlur stdDeviation="2"/>
<feComposite in2="hardAlpha" operator="out"/>
<feColorMatrix type="matrix" values="0 0 0 0 0 0 0 0 0 0 0 0 0 0 0 0 0 0 0.25 0"/>
<feBlend mode="normal" in2="BackgroundImageFix" result="effect1_dropShadow_7721_865"/>
<feBlend mode="normal" in="SourceGraphic" in2="effect1_dropShadow_7721_865" result="shape"/>
</filter>
</defs>
</svg>
