<svg xmlns="http://www.w3.org/2000/svg" fill="none" viewBox="0 0 692 323"><path fill="#975445" d="M330.931 77.662c9.721 21.853 8.935 24.348 29.849 28.703 15.466-8.306 22.813-10.307 21.756-36.788-8.174-25.553-25.486-33.69-40.137-31.793-8.506 6.004-18.734 15.35-11.468 39.878"/><path fill="#975445" d="m374.875 97.653-21.534 6.247s5.115 17.25-12.534 19.536c-17.648 2.286 6.841 54.042 6.841 54.042l62.72-42.992s-12.362-25.901-21.864-25.305c-16.812 1.055-13.629-11.528-13.629-11.528"/><path stroke="#fff" stroke-width=".5" d="m372.558 70.677 7.366-4.299"/><path fill="#fff" stroke="#000" stroke-linecap="round" stroke-linejoin="round" stroke-width=".5" d="M349.101 92.987c6.364.025 9.446-1.279 14.407-5.016 0 0-2.395 5.538-5.456 6.777-3.322 1.345-8.951-1.76-8.951-1.76"/><path stroke="#000" stroke-linecap="round" stroke-linejoin="round" d="M354.274 84.667s-2.981 3.816-5.05.654c-2.07-3.16 3.004-9.251.138-13.735-1.62-2.533-4.771-3.96-5.954-4.857-5.976-4.528-9.128 1.802-10.43 1.351m31.559 2.374c-3.625-1.528-5.403-.886-7.738 1.003m-13.978 2.691c-2.941-1.145-4.436-1.055-6.734.872"/><path fill="#66351E" d="m328.311 302.223-13.169-5.231-3.658-59.497s-10.242 11.085-15.281 8.511c-5.02-2.563-18.138-25.927-18.138-25.927l-38.906-87.337h7.678l52.14 52.546c.967-11.703 10.64-32.857 10.64-32.857l6.612-10.893s4.815-9.912 15.526-15.392c8.686-4.444 13.618-9.547 13.618-9.547s16.005 9.924 25.863 7.675c12.731-2.904 15.914-15.488 15.914-15.488l18.352 2.081 11.043.952s8.307 3.942 15.82 14.678c6.979 9.972 30.507 91.391 30.507 91.391l-25.607 16.998 2.997 26.225 2.998 26.224c.415 14.743-70.019 25.244-114.949 14.888"/><path fill="#000" stroke="#000" d="M361.233 152.829c-.312-10.82 4.547-27.102 4.547-27.102s-.937 16.565 0 27.102c.473 5.322 1.819 13.551 1.819 13.551l-4.547.968s-1.494-3.293-1.819-14.519Zm15.803-7.341c-2.321-8.761-10.888-20.207-10.888-20.207s4.901 12.952 6.56 21.69c.838 4.414 1.549 11.439 1.549 11.439l4.562-.709s.626-3.122-1.783-12.213Z"/><path fill="#331125" d="M357.283 47.408s-11.309-7.129-17.936-4.184c-7.381 3.28-8.931 19.05-8.931 19.05s7.589 31.231 13.963 38.862l-18.764 5.684s-18.271 9.572-20.497-.599c18.122-6.43 6.26-9.395 3.208-15.058-13.897-25.78-6.946-53.973 17.356-70.302 30.645-20.592 43.61 14.42 43.61 14.42s31.992-11.665 28.879 12.014c-1.819 13.832 7.932 35.074 19.569 26.876 11.103 9.249-16.887 17.24-16.887 17.24s-19.44 10.364-20.963 1.043c-1.046-6.397 6.657-4.922 6.629-11.418-.034-8.202-11.428-15.698-11.428-15.698z"/><ellipse cx="6.245" cy="11.613" fill="#84473D" rx="6.245" ry="11.613" transform="matrix(-.99172 .12844 .11357 .99353 386.11 65.588)"/><ellipse cx="5.107" cy="11.613" fill="#975445" rx="5.107" ry="11.613" transform="matrix(-.99172 .12844 .11357 .99353 383.852 65.88)"/><path stroke="#fff" d="M336.958 89.19c2.353-.305 4.263-1.995 5.475-4.361 1.214-2.37 1.761-5.469 1.387-8.74s-1.603-6.14-3.316-8.13c-1.71-1.989-3.944-3.142-6.297-2.837-2.354.304-4.263 1.994-5.475 4.36-1.214 2.37-1.761 5.47-1.388 8.74.374 3.272 1.604 6.14 3.317 8.132 1.71 1.988 3.944 3.141 6.297 2.836Zm27.879-3.61c2.353-.304 4.263-1.994 5.475-4.36 1.214-2.37 1.761-5.47 1.387-8.74-.374-3.272-1.603-6.14-3.316-8.131-1.71-1.988-3.944-3.142-6.297-2.837-2.354.305-4.263 1.995-5.475 4.361-1.214 2.37-1.762 5.47-1.388 8.74.374 3.272 1.604 6.14 3.317 8.131 1.709 1.988 3.944 3.142 6.297 2.837Z"/><path stroke="#fff" stroke-width=".5" d="M345.064 77.603s1.584-3.038 3.243-3.707c2.099-.846 6.048 2.504 6.048 2.504"/><path fill="#343434" stroke="#000" stroke-width=".5" d="M390.147 187.166a.78.78 0 0 1 .536-.935l31.299-9.127a.723.723 0 0 1 .923.582l8.973 55.67a.78.78 0 0 1-.549.868l-26.321 7.675a.72.72 0 0 1-.908-.515z"/><path fill="#84473D" d="m383.059 109.271-20.46-4.355s3.996-1.515 6.365-2.904c2.459-1.442 5.911-4.356 5.911-4.356s-.389 2.706 0 4.356c1.017 4.327 8.184 7.259 8.184 7.259"/><path fill="#66224A" d="M361.601 56.482c-2.396-.035-5.244 1.937-5.244 1.937l.909 1.499z"/><path stroke="#66224A" d="M366.107 58.42s-2.608-1.91-4.506-1.938m0 0c-2.396-.035-5.244 1.937-5.244 1.937l.909 1.499z"/><path fill="#BF867A" d="M396.96 219.612c1.585 4.486 16.136 26.347 16.136 26.347l10.906-1.413s14.457-10.691 8.948-12.483c-1.556-.506-7.597 2.271-7.597 2.271l-4.186-22.875s-3.099-3.945-4.646.602 2.954 17.085 2.954 17.085l-1.363.176-6.316-24.494s-1.912-3.605-3.478-.669c-.498.935 3.254 19.586 3.329 20.241s-6.335-18.581-8.455-18.976-1.947-.596-2.926.897c-1.32 2.014 8.849 23.425 8.849 23.425s-9.596-14.351-11.053-14.972c-2.273-.968-2.686.352-1.102 4.838"/><path fill="#000" d="M396.698 132.502c4.545-7.51-2.274-22.747-2.274-22.747l-11.016-2.42s-.453 3.121 0 3.872c4.286 7.103-18.084 13.159-18.084 13.159s-14.291-3.287-12.66-8.161c.323-.963.84-2.578.84-2.578l-9.94 3.182s-5.353 17.104 1.302 21.984c7.728 5.668 20.523-13.306 20.523-13.306s24.542 18.195 31.309 7.015"/><path fill="#EDB39D" d="M156.711 78.877c7.879 26.334 9.311 29.526 29.365 38.304 17.905-7.182 19.943-10.696 22.092-41.023-5.73-30.32-17.759-41.023-33.976-41.023-10.027 5.586-22.349 14.725-17.481 43.742"/><path fill="#EDB39D" d="m202.976 103.6-32.714 4.313s20.424 15.127-11.631 24.508c-32.055 9.382.782 64.1.782 64.1l79.741-40.691s-20.869-32.835-22.367-32.835c-22.551 0-13.811-19.395-13.811-19.395"/><path stroke="#000" stroke-linecap="round" stroke-linejoin="round" d="M187.171 95.39c-4.85 7.326-13.034 8.778-19.854 2.487m8.943-9.107s-11.797 3.697-8.293-1.275c3.503-4.973 8.595-6.158 6.17-11.464"/><ellipse cx="1.738" cy="2.67" fill="#000" rx="1.738" ry="2.67" transform="matrix(-1 -.00275 -.00243 1 187.136 72.438)"/><path fill="#E5A38C" d="M188.45 114.048c-6.806 1.974-15.222-3.655-15.222-3.655s9.022 10.058 17.064 7.967c5.34-1.388 7.827-4.46 11.05-9.104 1.555-2.239 2.164-3.695 3.223-6.228 1.497-3.584 2.762-9.583 2.762-9.583l-1.841-.959s-2.986 9.348-6.907 13.896l-.035.041c-3.246 3.766-5.399 6.263-10.094 7.625"/><path stroke="#000" d="M180.919 73.86s1.945-4.118 4.629-1.7c2.684 2.42 4.048 2.903 4.048 2.903m-30.428-.296s1.945-4.12 4.629-1.7 4.048 2.902 4.048 2.902"/><ellipse cx="1.738" cy="2.67" fill="#000" rx="1.738" ry="2.67" transform="matrix(-1 -.00275 -.00243 1 165.35 73.137)"/><path fill="#EDB39D" d="M39.057 168.388c2.396-.353 11.55-7.565 11.55-7.565l-1.702-10.541s-5.17-7.576-8.613-9.458-7.12-6.108-7.12-6.108.373-15.266-5.483-7.485-3.323 13.465-.353 16.168c.72.657 1.328 1.132 1.838 1.469-1.96-.085-5.143-.448-10.032-1.566-9.758-2.232-6.225 15.667-1.429 23.083 4.797 7.417 17.893-.744 17.893-.744s1.055 3.1 3.451 2.747"/><path stroke="#000" stroke-width=".5" d="M30.465 147.641c2.97-.927 6.806 11.907 4.092 13.551 0 0-5.821 3.713-8.639 4.122m-10.457-22.028c-5.001 4.355-1.307 20.993 4.547 25.165s15.494-3.137 15.494-3.137l1.328 2.169"/><path stroke="#000" stroke-width=".5" d="M28.646 144.736s-9.094-8.091-1.365-16.786c7.73-8.695 3.99 5.523 7.275 8.558 2.079 1.921 3.613 2.702 5.762 4.531 3.754 3.195 6.325 4.968 8.381 9.592 1.665 3.744 1.93 10.406 1.93 10.406"/><path fill="#4A594F" d="M256.518 318.847v-20.732s27.577-27.851 32.894-31.466c5.296-3.601 5.281-7.894 5.281-7.894l-5.281-40.83-7.002-29.81c-.023-.114-.041-.174-.041-.174s-7.706-29.227-26.742-43.102c-11.473-8.363-9.851-8.533-22.553-13.118-10.3-3.719-17.605-11.244-17.605-11.244l-16.874 8.557s-6.377 8.17-8.911 14.307c-5.98 14.484 0 40.512 0 40.512s-7.753-22.27-9.316-28.763c-1.475-6.132-4.051-26.056-4.051-26.056l-7.622-3.986-14.846 6.673s-21.235 1.339-29.217 8.759c-9.93 9.232-11.246 59.138-11.246 59.138L50.015 155.09l-18.642 16.763c1.424 16.578 176.133 165.117 225.145 146.994"/><path fill="#394035" d="m265.07 232.836-10.002-36.781 2.273 33.393-7.275 16.455-4.546 7.762 3.182 14.017 1.364-21.779z"/><path fill="#BF867A" d="M246.51 153.305c2.294-4.229 3.404-4.929 4.595-8.455.971-2.876 1.407-7.602 1.407-7.602s-1.388-5.076-10.605-9.314c-4.599-2.115-9.198-2.115-9.198-2.115s-4.892 3.806-7.221 6.857c-2.161 2.832-4.327 7.915-4.327 7.915s1.009 5.415 3.827 1.314 5.461-6.642 5.461-6.642l.978.689-5.264 11.992s.662 5.294 2.512 3.599c.7-.641 7.799-13.828 8.121-14.295.321-.468-5.38 16.205-3.673 17.855 1.708 1.651 1.681 1.671 3.344 1.189 2.287-.662 5.44-17.609 5.44-17.609s-1.748 18.626 0 18.852c2.914.376 2.308-.001 4.603-4.23"/><path stroke="#000" stroke-width=".5" d="M244.491 157.269c2.294-4.229 5.339-10.126 6.53-13.653.972-2.875 1.488-6.369 1.488-6.369s-1.388-5.076-10.605-9.314c-4.599-2.115-9.198-2.115-9.198-2.115m8.816 12.864s-2.771 16.947-5.057 17.609m.328-19.045c-.321.468-7.421 13.655-8.121 14.296-1.85 1.695-2.512-3.599-2.512-3.599m4.287-12.682s-2.645 2.542-5.462 6.643c-2.818 4.1-3.826-1.315-3.826-1.315"/><path fill="#343434" stroke="#343434" stroke-width=".5" d="M261.964 228.225a.75.75 0 0 0-.75-.75H105.06a.75.75 0 0 0-.726.939l23.999 91.701c.086.33.384.56.725.56h132.156a.75.75 0 0 0 .75-.75z"/><path stroke="#000" stroke-width=".5" d="m215.46 120.693-17.226 8.553c-14.094 15.487-12.73 34.361-8.773 53.385"/><path stroke="#000" stroke-width="4" d="m218.679 127.119-16.35 7.459c-9.284 10.95-10.387 30.069-7.008 47.239"/><path fill="#262626" stroke="#262626" d="m212.824 90.006 6.415-4.624s7.332-13.874.916-20.04c-6.415-6.168 2.786-7.922.917-10.792-1.925-2.954-4.241 5.5-6.415 3.083-2.389-2.655 7.331-12.333 0-12.332s-.637-4.378-1.833-6.166c-2.14-3.2-5.851-4.123-7.332 0-.16.446-.256.953-.303 1.494-.709-2.892-1.783-5.604-3.363-6.12-1.791-.584-4.582 1.542-4.582 1.542v3.084s-1.957 1.37-2.75 3.083c-.491 1.062-7.079 6.166-.916 3.083.97-.486-5.479 5.266-3.981 5.563 7.331 1.452 12.175 20.458 12.229 22.261.533 17.847 4.582 20.327 4.582 20.327z"/><path fill="#262626" d="m150.791 62.588 5.159 12.957V61.51s-.014-11.282 10.912-14.52c1.881-.557 8.031-.181 16.103.865 1.785.232 8.688 3.486 9.813 3.976 7.146 3.115 3.101-13.837 4.324-14.34 13.408-5.503-5.688-6.471-5.688-6.471s-1.048-6.344-4.547-9.196c-3.665-2.987-9.744-.59-11.821 0-4.194 1.193-5.62 10.435-5.62 10.435s-2.154 1.663-3.46-1.504c-1.716-4.164-12.489-3.232-14.971 0-1.387 1.807 6.376 6.23-2.125 6.23s2.77 9.777 0 12.459c-2.629 2.546 2.577-1.235-4.861 4.995-7.439 6.23 6.782 8.15 6.782 8.15"/><path stroke="#262626" d="M148.87 49.444c-2.629 2.546 2.577-1.235-4.861 4.995-7.439 6.23 6.782 8.15 6.782 8.15l5.159 12.956V61.51s-.014-11.282 10.912-14.52c1.881-.557 8.031-.181 16.103.865 1.785.232 8.688 3.486 9.813 3.976 7.146 3.115 3.101-13.837 4.324-14.34 13.408-5.503-5.688-6.471-5.688-6.471s-1.048-6.344-4.547-9.196c-3.665-2.987-9.744-.59-11.821 0-4.194 1.193-5.62 10.435-5.62 10.435s-2.154 1.663-3.46-1.504c-1.716-4.164-12.489-3.232-14.971 0-1.387 1.807 6.376 6.23-2.125 6.23s2.77 9.777 0 12.459Zm0 0c.325-.315-2.52 2.44 0 0Z"/><ellipse cx="7.042" cy="13.118" fill="#E5A38C" rx="7.042" ry="13.118" transform="matrix(-1 0 0 1 214.077 64.963)"/><ellipse cx="5.456" cy="13.067" fill="#EDB39D" rx="5.456" ry="13.067" transform="matrix(-1 0 0 1 210.966 64.88)"/><path fill="#000" stroke="#000" d="M184.62 64.866c2.742-.308 6.527 2.86 6.527 2.86s-4.13-4.392-7.308-3.964c-2.619.353-5.548 4.109-5.548 4.109l.84.624s2.98-3.347 5.489-3.629Zm-20.972.033c-2.489-.605-6.333 1.712-6.333 1.712s4.3-3.35 7.178-2.586c2.371.63 4.644 4.282 4.644 4.282l-.845.445s-2.365-3.3-4.644-3.853Z"/><path fill="#E5A38C" stroke="#000" stroke-width=".5" d="M422.745 155.52s-15.328-17.199-16.591-19.536c-1.262-2.337 10.441 6.444 10.441 6.444s-11.586-12.65-10.332-14.982c.402-.748 4.21 2.653 7.664 5.98-4.267-4.379-9.34-9.899-9.265-11.319.095-1.778-.326-2.141 1.684-2.589 1.741-.389 11.721 12.298 14.603 16.147-2.783-3.997-12.056-17.66-11.85-18.123 1.109-2.494 3.21-.12 3.21-.12l17.61 18.562 1.611-1.647s-3.106-5.351-4.684-8.273 4.098-1.092 4.098-1.092 5.355 6.491 7.174 11.764c1.625 4.707 2.052 11.147 2.052 11.147l-.116.819-9.026 5.526z"/><path fill="#F5CAC1" d="M422.146 155.169s-15.79-17.291-17.053-19.628c-1.262-2.337 10.882 6.548 10.882 6.548s-11.625-12.477-10.427-14.775c.503-.963 6.842 5.068 10.617 8.789-4.326-4.385-12.172-12.591-12.101-14.348.071-1.764-.021-1.767 1.939-2.184 1.686-.36 11.242 11.937 14.109 15.809-2.814-4.075-11.96-17.641-11.765-18.096 1.054-2.46 3.137-.076 3.137-.076l17.442 18.666 1.555-1.614s-3.101-5.354-4.68-8.276 3.994-1.027 3.994-1.027 5.314 6.516 7.157 11.774c1.645 4.695 2.139 11.094 2.139 11.094l-.103.811-8.759 5.362z"/><path fill="#4F5950" d="M494.493 247.707c1.45 16.891 91.747 57.726 142.24 40.072l.126 3.99 21.941-9.819s11.3-2.837 16.754-6.546c5.433-3.694 7.175-9.819 7.175-9.819l-10.295-67.865-7.183-30.583c-.024-.117-.042-.179-.042-.179s-7.907-29.985-27.436-44.219c-8.245-6.01-14.329-8.839-21.713-11.612-3.048-1.145-6.318-2.28-10.053-3.625l-.403-.145c-10.567-3.815-16.255-5.773-16.255-5.773l-10.837 3.845s-5.669 11.254-10.838 15.381c-7.224 5.768-7.224 3.845-7.224 3.845-1.514-6.291-4.043-18.131-4.043-18.131l-10.7.572-12.35 2.185s-21.786 1.374-29.974 8.986c-10.189 9.471-12.696 71.796-18.114 85.133l-44.072-56.731-22.548 9.819z"/><path fill="#9C9B9B" d="M687.354 282.656c1.011-.418.711-1.924-.383-1.924H473.498c-1.101 0-1.394 1.52-.371 1.929l43.41 17.359q.179.07.371.071h128.15q.198 0 .382-.076z"/><path fill="#394035" d="m631.982 229.416 10.457-27.572 8.639 44.525-9.766 15.021 1.127 14.016-3.182-27.594z"/><path fill="#FFD1BF" d="m582.125 82.367-30.923 2.225s2.395 25.513-11.339 24.141 20.583 15.931 20.583 15.931 15.721-6.318 31.982-15.931c4.919-2.908.535-7.14-8.497-9.062-5.144-4.297-1.806-17.304-1.806-17.304"/><path fill="#805605" stroke="#805605" stroke-width=".5" d="m593.054 28.944-5.513 14.973-5.419-9.613-29.251-12.01-18.641 30.49s-2.18-3.47-4.092-4.84c-2.566-1.837-7.275-4.355-5.911-17.422S548.779 1 548.779 1c7.275 6.292 30.463-5.324 42.373 14.078 3.979 6.483 1.902 13.866 1.902 13.866Z"/><path fill="#FFD1BF" d="M535.163 55.457c8.302 26.567 9.171 28.98 30.304 37.835 18.868-7.245 21.617-11.083 23.882-41.679-7.225-32.69-1.252-33.648-35.569-29.802-10.838 1.922-23.643 0-18.617 33.646"/><path fill="#805605" d="M582.123 84.282c5.615-8.04 9.032-23.071 9.032-23.071l-3.613-23.071-3.611-13.458-1.808 37.823c-12.642 2.551-37.929 6.396-37.929 7.561l-10.837-30.004v11.536l5.419 19.226c.33 3.338 3.485 12.264 7.224 17.303 2.799 3.773 4.662 6.47 9.031 7.69 2.729.762 7.224 0 7.224 0s5.709-.457 9.031-1.922c5.09-2.245 7.551-4.907 10.837-9.613"/><path stroke="#000" stroke-linecap="round" stroke-linejoin="round" d="M560.449 65.059s-.757-.175-6.668-.175 8.475-9.446 1.25-14.271m21.674-4.783c-2.464-1.758-5.647-4.662-9.031 1.922m-19.563 0c-3.423-1.922-6.606-2.71-9.057 1.923"/><path fill="#E5A38C" d="M587.432 50.624c0 5.078-.236 9.903 2.11 9.903s4.249-4.117 4.249-9.195-1.902-9.195-4.249-9.195-2.11 3.408-2.11 8.487"/><path fill="#FFD1BF" d="M587.432 50.14c0 5.078-.169 9.903 1.507 9.903s3.035-4.117 3.035-9.195-1.359-9.196-3.035-9.196-1.507 3.41-1.507 8.488"/><path fill="#343434" stroke="#000" stroke-width=".5" d="M641.479 204.488a.75.75 0 0 0-.75-.75H480.467a.75.75 0 0 0-.726.94l24.634 94.13c.087.33.385.56.726.56h135.628a.75.75 0 0 0 .75-.75z"/><path fill="#000" d="m593.188 134 1.811-31.199L582.962 96s-.487 5.603 0 6.956c4.602 12.803-22.368 19.344-22.368 19.344s-16.767-7.341-14.487-15.599c.451-1.632 1.811-3.9 1.811-3.9l-12.676 3.9-7.243 19.499 32.595-1.95z"/><path fill="#FFD1BF" d="M553.937 86.667c-3.774-2.42-6.134-10.08-6.134-10.08l14.334-1.92 14.565-3.849s.098 9.68-3.612 13.459c-2.745 2.794-5.309 3.039-9.031 3.845-4.148.897-6.705.736-10.122-1.455"/><path fill="#805605" d="M572.128 35.21c-2.909.014-6.402 2.05-6.402 2.05l1.077 1.482z"/><path stroke="#805605" stroke-linecap="round" d="M577.562 37.057s-3.131-1.859-5.434-1.848m0 0c-2.909.015-6.402 2.05-6.402 2.05l1.077 1.483z"/><path fill="#805605" d="M542.901 37.348c2.909.015 6.402 2.05 6.402 2.05l-1.076 1.482z"/><path stroke="#805605" stroke-linecap="round" d="M537.412 40.2s3.186-2.863 5.489-2.852m0 0c2.909.015 6.402 2.05 6.402 2.05l-1.076 1.482z"/><path fill="#E5A38C" d="M563.773 95.456c-5.524 1.139-9.084.184-9.084.184s4.084.127 9.084-.184q1.093-.224 2.283-.567c4.712-1.367 6.365-1.451 10.003-4.355 4.629-3.696 5.91-6.292 5.91-6.292s-2.062 8.342.099 12.062c.239.312.356.521.356.521a4 4 0 0 1-.356-.52c-.844-1.099-3.213-3.465-7.373-2.384-3.344.87-7.365 1.313-10.922 1.535"/><path fill="#fff" d="M552.083 78.37c8.27 1.425 12.521.33 19.675-3.657 0 0-4.156 6.991-8.369 8.004-4.573 1.098-11.306-4.348-11.306-4.348"/></svg>