<svg width="692" height="323" viewBox="0 0 692 323" fill="none" xmlns="http://www.w3.org/2000/svg">
<path d="M330.933 77.6615C340.654 99.5154 339.867 102.01 360.782 106.365C376.247 98.0588 383.595 96.0582 382.537 69.5771C374.364 44.024 357.052 35.8861 342.401 37.7837C333.895 43.7881 323.666 53.1343 330.933 77.6615Z" fill="#975445"/>
<path d="M374.875 97.6529L353.342 103.9C353.342 103.9 358.456 121.15 340.808 123.436C323.16 125.722 347.648 177.478 347.648 177.478L410.368 134.486C410.368 134.486 398.006 108.585 388.504 109.181C371.693 110.236 374.875 97.6529 374.875 97.6529Z" fill="#975445"/>
<path d="M372.559 70.6773L379.924 66.3781" stroke="white" stroke-width="0.5"/>
<path d="M349.102 92.9874C355.466 93.012 358.547 91.7083 363.508 87.9707C363.508 87.9707 361.113 93.509 358.053 94.7481C354.73 96.0933 349.102 92.9874 349.102 92.9874Z" fill="white" stroke="black" stroke-width="0.5" stroke-linecap="round" stroke-linejoin="round"/>
<path d="M354.275 84.6674C354.275 84.6674 351.294 88.4827 349.224 85.3215C347.154 82.1603 352.229 76.0696 349.363 71.5864C347.743 69.0528 344.591 67.6251 343.409 66.7291C337.432 62.2007 334.281 68.5314 332.979 68.08M364.538 70.4545C360.912 68.9262 359.135 69.5684 356.799 71.4567M342.822 74.1482C339.88 73.0034 338.385 73.0925 336.088 75.0204" stroke="black" stroke-linecap="round" stroke-linejoin="round"/>
<path d="M328.312 302.223L315.143 296.992L311.485 237.495C311.485 237.495 301.243 248.58 296.204 246.006C291.184 243.443 278.066 220.079 278.066 220.079L239.159 132.742L246.838 132.742L298.978 185.288C299.945 173.585 309.618 152.431 309.618 152.431L316.23 141.538C316.23 141.538 321.045 131.626 331.756 126.146C340.442 121.702 345.374 116.599 345.374 116.599C345.374 116.599 361.379 126.523 371.237 124.274C383.968 121.37 387.151 108.786 387.151 108.786L405.503 110.867L416.546 111.819C416.546 111.819 424.853 115.761 432.366 126.497C439.345 136.469 462.873 217.888 462.873 217.888L437.266 234.886L440.263 261.111L443.261 287.335C443.676 302.078 373.242 312.579 328.312 302.223Z" fill="#F2E0CA"/>
<path d="M361.234 152.829C360.921 142.009 365.78 125.727 365.78 125.727C365.78 125.727 364.844 142.292 365.78 152.829C366.253 158.151 367.599 166.38 367.599 166.38L363.053 167.348C363.053 167.348 361.558 164.055 361.234 152.829Z" fill="black" stroke="black"/>
<path d="M377.037 145.488C374.716 136.727 366.149 125.281 366.149 125.281C366.149 125.281 371.05 138.233 372.709 146.971C373.547 151.385 374.258 158.41 374.258 158.41L378.82 157.701C378.82 157.701 379.446 154.579 377.037 145.488Z" fill="black" stroke="black"/>
<path d="M357.284 47.4079C357.284 47.4079 345.975 40.2794 339.348 43.224C331.967 46.504 330.417 62.2746 330.417 62.2746C330.417 62.2746 338.006 93.5053 344.38 101.136L325.616 106.82C325.616 106.82 307.345 116.392 305.119 106.221C323.241 99.7914 311.379 96.8259 308.327 91.1631C294.43 65.3827 301.381 37.1904 325.683 20.8607C356.328 0.26854 369.293 35.2813 369.293 35.2813C369.293 35.2813 401.285 23.6163 398.172 47.2948C396.353 61.1275 406.104 82.3687 417.741 74.1707C428.844 83.42 400.854 91.4119 400.854 91.4119C400.854 91.4119 381.414 101.775 379.891 92.4543C378.845 86.0572 386.548 87.5315 386.52 81.0358C386.486 72.8337 375.092 65.338 375.092 65.338L357.284 47.4079Z" fill="#561D3E"/>
<ellipse cx="6.24546" cy="11.6127" rx="6.24546" ry="11.6127" transform="matrix(-0.991717 0.128443 0.113569 0.99353 386.111 65.5879)" fill="#84473D"/>
<ellipse cx="5.10685" cy="11.6127" rx="5.10685" ry="11.6127" transform="matrix(-0.991717 0.128443 0.113569 0.99353 383.853 65.8809)" fill="#975445"/>
<path d="M336.959 89.1902C339.312 88.8854 341.221 87.1954 342.433 84.829C343.647 82.4591 344.195 79.3602 343.821 76.0889C343.447 72.8177 342.217 69.949 340.505 67.9581C338.795 65.9701 336.561 64.8168 334.207 65.1216C331.854 65.4264 329.945 67.1163 328.733 69.4828C327.519 71.8526 326.971 74.9516 327.345 78.2228C327.719 81.4941 328.949 84.3628 330.661 86.3536C332.371 88.3417 334.605 89.495 336.959 89.1902Z" stroke="white"/>
<path d="M364.837 85.5808C367.191 85.276 369.1 83.5861 370.312 81.2196C371.526 78.8498 372.074 75.7508 371.7 72.4796C371.326 69.2083 370.096 66.3396 368.384 64.3488C366.674 62.3607 364.44 61.2074 362.086 61.5122C359.733 61.817 357.824 63.507 356.612 65.8734C355.398 68.2433 354.85 71.3422 355.224 74.6135C355.598 77.8847 356.828 80.7534 358.54 82.7443C360.25 84.7323 362.484 85.8856 364.837 85.5808Z" stroke="white"/>
<path d="M345.065 77.6031C345.065 77.6031 346.648 74.5648 348.308 73.8961C350.406 73.0502 354.355 76.3998 354.355 76.3998" stroke="white" stroke-width="0.5"/>
<path d="M390.148 187.166C390.045 186.766 390.285 186.347 390.683 186.231L421.983 177.104C422.408 176.98 422.835 177.25 422.905 177.686L431.879 233.356C431.941 233.739 431.703 234.115 431.33 234.224L405.009 241.899C404.61 242.015 404.204 241.785 404.101 241.384L390.148 187.166Z" fill="black" stroke="black" stroke-width="0.5"/>
<path d="M383.06 109.271L362.6 104.916C362.6 104.916 366.596 103.401 368.965 102.012C371.424 100.57 374.876 97.6563 374.876 97.6563C374.876 97.6563 374.487 100.362 374.876 102.012C375.893 106.339 383.06 109.271 383.06 109.271Z" fill="#84473D"/>
<path d="M361.601 56.4817C359.205 56.4466 356.357 58.4194 356.357 58.4194L357.266 59.918L361.601 56.4817Z" fill="#561D3E"/>
<path d="M366.107 58.4195C366.107 58.4195 363.499 56.5095 361.601 56.4817M361.601 56.4817C359.205 56.4466 356.357 58.4194 356.357 58.4194L357.266 59.918L361.601 56.4817Z" stroke="#561D3E"/>
<path d="M396.961 219.612C398.545 224.098 413.097 245.959 413.097 245.959L424.003 244.546C424.003 244.546 438.46 233.855 432.951 232.063C431.395 231.557 425.353 234.334 425.353 234.334L421.167 211.459C421.167 211.459 418.068 207.514 416.522 212.061C414.975 216.608 419.476 229.146 419.476 229.146L418.113 229.322L411.797 204.828C411.797 204.828 409.884 201.223 408.319 204.159C407.82 205.094 411.572 223.745 411.647 224.4C411.722 225.055 405.313 205.819 403.193 205.424C401.072 205.029 401.245 204.828 400.267 206.321C398.947 208.335 409.116 229.746 409.116 229.746C409.116 229.746 399.52 215.395 398.062 214.774C395.789 213.806 395.377 215.126 396.961 219.612Z" fill="#BF867A"/>
<path d="M396.698 132.502C401.243 124.992 394.425 109.755 394.425 109.755L383.408 107.335C383.408 107.335 382.955 110.456 383.408 111.207C387.694 118.31 365.324 124.366 365.324 124.366C365.324 124.366 351.033 121.079 352.665 116.205C352.987 115.242 353.505 113.627 353.505 113.627L343.564 116.809C343.564 116.809 338.211 133.913 344.866 138.793C352.594 144.461 365.39 125.487 365.39 125.487C365.39 125.487 389.931 143.682 396.698 132.502Z" fill="black"/>
<path d="M156.712 78.8773C164.59 105.211 166.022 108.403 186.076 117.181C203.981 109.999 206.02 106.485 208.168 76.1578C202.439 45.8377 190.41 35.1348 174.193 35.1348C164.166 40.7207 151.844 49.86 156.712 78.8773Z" fill="#EDB39D"/>
<path d="M202.976 103.6L170.262 107.913C170.262 107.913 190.686 123.04 158.631 132.421C126.576 141.803 159.413 196.521 159.413 196.521L239.155 155.83C239.155 155.83 218.285 122.995 216.787 122.995C194.236 122.995 202.976 103.6 202.976 103.6Z" fill="#EDB39D"/>
<path d="M187.171 95.3906C182.321 102.716 174.137 104.168 167.317 97.8769" stroke="black" stroke-linecap="round" stroke-linejoin="round"/>
<path d="M176.26 88.77C176.26 88.77 164.463 92.467 167.967 87.4945C171.47 82.5221 176.562 81.3367 174.137 76.0312" stroke="black" stroke-linecap="round" stroke-linejoin="round"/>
<ellipse cx="1.73802" cy="2.67024" rx="1.73802" ry="2.67024" transform="matrix(-0.999996 -0.0027517 -0.0024286 0.999997 187.137 72.4375)" fill="black"/>
<path d="M188.451 114.048C181.645 116.022 173.228 110.393 173.228 110.393C173.228 110.393 182.251 120.451 190.292 118.36C195.632 116.972 198.12 113.9 201.342 109.256C202.897 107.017 203.507 105.561 204.565 103.028C206.062 99.4444 207.328 93.4446 207.328 93.4446L205.486 92.4863C205.486 92.4863 202.5 101.834 198.58 106.382L198.544 106.423C195.298 110.189 193.145 112.686 188.451 114.048Z" fill="#E5A38C"/>
<path d="M180.919 73.8605C180.919 73.8605 182.864 69.7415 185.548 72.1603C188.232 74.5792 189.596 75.0632 189.596 75.0632" stroke="black"/>
<path d="M159.168 74.7667C159.168 74.7667 161.113 70.6477 163.797 73.0666C166.481 75.4855 167.845 75.9694 167.845 75.9694" stroke="black"/>
<ellipse cx="1.73802" cy="2.67024" rx="1.73802" ry="2.67024" transform="matrix(-0.999996 -0.0027517 -0.0024286 0.999997 165.35 73.1367)" fill="black"/>
<path d="M39.0576 168.388C41.4534 168.035 50.6069 160.823 50.6069 160.823L48.9058 150.282C48.9058 150.282 43.7352 142.706 40.2925 140.824C36.8497 138.942 33.1734 134.716 33.1734 134.716C33.1734 134.716 33.5455 119.45 27.6894 127.231C21.8334 135.012 24.367 140.696 27.3362 143.399C28.0574 144.056 28.664 144.531 29.1741 144.868C27.2144 144.783 24.0312 144.42 19.1429 143.302C9.38405 141.07 12.9175 158.969 17.7139 166.385C22.5102 173.802 35.6062 165.641 35.6062 165.641C35.6062 165.641 36.6617 168.741 39.0576 168.388Z" fill="#EDB39D"/>
<path d="M30.4653 147.641C33.4357 146.714 37.2716 159.548 34.5573 161.192C34.5573 161.192 28.7365 164.905 25.9186 165.314M15.4615 143.286C10.4602 147.641 14.1547 164.279 20.0082 168.451C25.8617 172.623 35.5023 165.314 35.5023 165.314L36.8306 167.483" stroke="black" stroke-width="0.5"/>
<path d="M28.6461 144.736C28.6461 144.736 19.5529 136.645 27.2819 127.95C35.0108 119.255 31.2712 133.473 34.5569 136.508C36.635 138.429 38.1696 139.21 40.3187 141.039C44.072 144.234 46.6434 146.007 48.6997 150.631C50.3648 154.375 50.6294 161.037 50.6294 161.037" stroke="black" stroke-width="0.5"/>
<path d="M256.518 318.847V298.115C256.518 298.115 284.095 270.264 289.412 266.649C294.708 263.048 294.693 258.755 294.693 258.755L289.412 217.925L282.41 188.115C282.387 188.001 282.369 187.941 282.369 187.941C282.369 187.941 274.663 158.714 255.627 144.839C244.154 136.476 245.776 136.306 233.074 131.721C222.774 128.002 215.469 120.477 215.469 120.477L198.595 129.034C198.595 129.034 192.218 137.204 189.684 143.341C183.704 157.825 189.684 183.853 189.684 183.853C189.684 183.853 181.931 161.583 180.368 155.09C178.893 148.958 176.317 129.034 176.317 129.034L168.695 125.048L153.849 131.721C153.849 131.721 132.614 133.06 124.632 140.48C114.702 149.712 113.386 199.618 113.386 199.618L50.0147 155.09L31.3734 171.853C32.7968 188.431 207.506 336.97 256.518 318.847Z" fill="#D7F5DC"/>
<path d="M265.071 232.836L255.068 196.055L257.341 229.448L250.067 245.903L245.52 253.665L248.703 267.682L250.067 245.903L265.071 232.836Z" fill="#B5CCAA"/>
<path d="M246.509 153.305C248.804 149.076 249.913 148.376 251.104 144.85C252.075 141.974 252.511 137.248 252.511 137.248C252.511 137.248 251.124 132.172 241.907 127.934C237.308 125.819 232.709 125.819 232.709 125.819C232.709 125.819 227.816 129.625 225.488 132.676C223.327 135.508 221.161 140.591 221.161 140.591C221.161 140.591 222.17 146.006 224.987 141.905C227.805 137.804 230.449 135.263 230.449 135.263L231.426 135.952L226.162 147.944C226.162 147.944 226.825 153.238 228.675 151.543C229.374 150.902 236.474 137.715 236.795 137.248C237.116 136.78 231.415 153.453 233.123 155.103C234.831 156.754 234.803 156.774 236.467 156.292C238.753 155.63 241.907 138.683 241.907 138.683C241.907 138.683 240.159 157.309 241.907 157.535C244.821 157.911 244.214 157.534 246.509 153.305Z" fill="#BF867A"/>
<path d="M244.491 157.269C246.785 153.04 249.83 147.143 251.021 143.616C251.993 140.741 252.509 137.247 252.509 137.247C252.509 137.247 251.121 132.171 241.904 127.933C237.305 125.818 232.706 125.818 232.706 125.818M241.522 138.682C241.522 138.682 238.751 155.629 236.465 156.291M236.793 137.246C236.472 137.714 229.372 150.901 228.672 151.542C226.822 153.237 226.16 147.943 226.16 147.943M230.447 135.261C230.447 135.261 227.802 137.803 224.985 141.904C222.167 146.004 221.159 140.589 221.159 140.589" stroke="black" stroke-width="0.5"/>
<path d="M261.963 228.225C261.963 227.81 261.628 227.475 261.213 227.475H105.059C104.568 227.475 104.209 227.939 104.334 228.414L128.332 320.115C128.418 320.445 128.717 320.675 129.058 320.675H261.213C261.628 320.675 261.963 320.339 261.963 319.925V228.225Z" fill="black" stroke="black" stroke-width="0.5"/>
<path d="M215.46 120.693L198.234 129.246C184.14 144.733 185.504 163.607 189.461 182.631" stroke="black" stroke-width="0.5"/>
<path d="M218.678 127.119L202.328 134.578C193.044 145.528 191.941 164.647 195.321 181.817" stroke="black" stroke-width="4"/>
<path d="M212.823 90.0064L219.238 85.3817C219.238 85.3817 226.57 71.5083 220.155 65.3413C213.739 59.1743 222.941 57.4196 221.071 54.5503C219.147 51.5962 216.83 60.0495 214.656 57.6334C212.267 54.9785 221.988 45.3002 214.656 45.3009C207.325 45.3016 214.02 40.9233 212.823 39.1346C210.683 35.9349 206.972 35.0124 205.492 39.1346C205.331 39.581 205.235 40.0878 205.188 40.6289C204.48 37.7374 203.406 35.0253 201.826 34.5099C200.034 33.9254 197.243 36.0514 197.243 36.0514V39.1346C197.243 39.1346 195.286 40.5043 194.494 42.2177C194.003 43.2803 187.415 48.384 193.578 45.3009C194.548 44.8155 188.098 50.5674 189.596 50.864C196.928 52.3159 201.772 71.3216 201.826 73.1254C202.358 90.9719 206.408 93.452 206.408 93.452L212.823 90.0064Z" fill="black" stroke="black"/>
<path d="M150.791 62.5881L155.95 75.5446V61.5096C155.95 61.5096 155.936 50.2281 166.862 46.9906C168.743 46.4331 174.893 46.809 182.965 47.8555C184.75 48.0869 191.653 51.3408 192.778 51.8312C199.924 54.9459 195.879 37.9942 197.102 37.4918C210.51 31.9876 191.414 31.0197 191.414 31.0197C191.414 31.0197 190.366 24.676 186.867 21.8243C183.202 18.837 177.123 21.234 175.046 21.8245C170.852 23.0166 169.426 32.2588 169.426 32.2588C169.426 32.2588 167.272 33.9219 165.966 30.7554C164.25 26.5909 153.477 27.5229 150.995 30.7554C149.608 32.5624 157.371 36.9856 148.87 36.9849C140.369 36.9842 151.64 46.7618 148.87 49.444C146.241 51.9902 151.447 48.2088 144.009 54.4391C136.57 60.6693 150.791 62.5881 150.791 62.5881Z" fill="black"/>
<path d="M148.87 49.444C146.241 51.9902 151.447 48.2088 144.009 54.4391C136.57 60.6693 150.791 62.5881 150.791 62.5881L155.95 75.5446V61.5096C155.95 61.5096 155.936 50.2281 166.862 46.9906C168.743 46.4331 174.893 46.809 182.965 47.8555C184.75 48.0869 191.653 51.3408 192.778 51.8312C199.924 54.9459 195.879 37.9942 197.102 37.4918C210.51 31.9876 191.414 31.0197 191.414 31.0197C191.414 31.0197 190.366 24.676 186.867 21.8243C183.202 18.837 177.123 21.234 175.046 21.8245C170.852 23.0166 169.426 32.2588 169.426 32.2588C169.426 32.2588 167.272 33.9219 165.966 30.7554C164.25 26.5909 153.477 27.5229 150.995 30.7554C149.608 32.5624 157.371 36.9856 148.87 36.9849C140.369 36.9842 151.64 46.7618 148.87 49.444ZM148.87 49.444C149.195 49.1293 146.35 51.8848 148.87 49.444Z" stroke="black"/>
<ellipse cx="7.04199" cy="13.1176" rx="7.04199" ry="13.1176" transform="matrix(-1 0 0 1 214.077 64.9629)" fill="#E5A38C"/>
<ellipse cx="5.45598" cy="13.0671" rx="5.45598" ry="13.0671" transform="matrix(-1 0 0 1 210.965 64.8809)" fill="#EDB39D"/>
<path d="M184.62 64.8662C187.362 64.5582 191.147 67.7265 191.147 67.7265C191.147 67.7265 187.017 63.3335 183.839 63.7619C181.22 64.115 178.291 67.8709 178.291 67.8709L179.131 68.4953C179.131 68.4953 182.111 65.1483 184.62 64.8662Z" fill="black" stroke="black"/>
<path d="M163.648 64.8986C161.159 64.2939 157.315 66.6111 157.315 66.6111C157.315 66.6111 161.615 63.2617 164.493 64.0253C166.864 64.6545 169.137 68.3066 169.137 68.3066L168.292 68.7518C168.292 68.7518 165.927 65.4522 163.648 64.8986Z" fill="black" stroke="black"/>
<path d="M422.745 155.52C422.745 155.52 407.417 138.321 406.154 135.984C404.892 133.647 416.595 142.428 416.595 142.428C416.595 142.428 405.009 129.778 406.263 127.446C406.665 126.698 410.473 130.099 413.927 133.426C409.66 129.047 404.587 123.527 404.662 122.107C404.757 120.329 404.336 119.966 406.346 119.518C408.087 119.129 418.067 131.816 420.949 135.665C418.166 131.668 408.893 118.005 409.099 117.542C410.208 115.048 412.309 117.422 412.309 117.422L429.919 135.984L431.53 134.337C431.53 134.337 428.424 128.986 426.846 126.064C425.267 123.142 430.944 124.972 430.944 124.972C430.944 124.972 436.299 131.463 438.118 136.736C439.743 141.443 440.17 147.883 440.17 147.883L440.054 148.702L431.028 154.228L422.745 155.52Z" fill="#E5A38C" stroke="black" stroke-width="0.5"/>
<path d="M422.146 155.169C422.146 155.169 406.356 137.878 405.093 135.541C403.831 133.204 415.975 142.089 415.975 142.089C415.975 142.089 404.35 129.612 405.548 127.314C406.051 126.351 412.39 132.382 416.165 136.103C411.839 131.718 403.993 123.512 404.064 121.755C404.135 119.991 404.043 119.988 406.003 119.571C407.689 119.211 417.245 131.508 420.112 135.38C417.298 131.305 408.152 117.739 408.347 117.284C409.401 114.824 411.484 117.208 411.484 117.208L428.926 135.874L430.481 134.26C430.481 134.26 427.38 128.906 425.801 125.984C424.222 123.062 429.795 124.957 429.795 124.957C429.795 124.957 435.109 131.473 436.952 136.731C438.597 141.426 439.091 147.825 439.091 147.825L438.988 148.636L430.229 153.998L422.146 155.169Z" fill="#F5CAC1"/>
<path d="M494.493 247.707C495.943 264.598 586.24 305.433 636.733 287.779L636.859 291.769L658.8 281.95C658.8 281.95 670.1 279.113 675.554 275.404C680.987 271.71 682.729 265.585 682.729 265.585L672.434 197.72L665.251 167.137C665.227 167.02 665.209 166.958 665.209 166.958C665.209 166.958 657.302 136.973 637.773 122.739C629.528 116.729 623.444 113.9 616.06 111.127C613.012 109.982 609.742 108.847 606.007 107.502C605.873 107.454 605.739 107.406 605.604 107.357C595.037 103.542 589.349 101.584 589.349 101.584L578.512 105.429C578.512 105.429 572.843 116.683 567.674 120.81C560.45 126.578 560.45 124.655 560.45 124.655C558.936 118.364 556.407 106.524 556.407 106.524L545.707 107.096L533.357 109.281C533.357 109.281 511.571 110.655 503.383 118.267C493.194 127.738 490.687 190.063 485.269 203.4L441.197 146.669L418.649 156.488L494.493 247.707Z" fill="#D7F5DC"/>
<path d="M687.354 282.656C688.365 282.238 688.065 280.732 686.971 280.732H473.498C472.397 280.732 472.104 282.252 473.127 282.661L516.537 300.02C516.655 300.067 516.781 300.091 516.908 300.091H645.058C645.189 300.091 645.319 300.065 645.44 300.015L687.354 282.656Z" fill="#9C9B9B"/>
<path d="M631.983 229.416L642.44 201.844L651.079 246.369L641.313 261.39L642.44 275.406L639.257 247.812L631.983 229.416Z" fill="#B5CCAA"/>
<path d="M582.125 82.3672L551.202 84.5921C551.202 84.5921 553.597 110.105 539.863 108.733C526.129 107.361 560.446 124.664 560.446 124.664C560.446 124.664 576.167 118.346 592.428 108.733C597.347 105.825 592.963 101.593 583.931 99.6705C578.787 95.3738 582.125 82.3672 582.125 82.3672Z" fill="#FFD1BF"/>
<path d="M593.054 28.9443L587.541 43.9169L582.122 34.304L552.871 22.2945L534.23 52.7843C534.23 52.7843 532.05 49.3141 530.138 47.9446C527.572 46.1073 522.863 43.5889 524.227 30.5219C525.591 17.4548 548.779 1 548.779 1C556.054 7.29155 579.242 -4.32362 591.152 15.0781C595.131 21.5609 593.054 28.9443 593.054 28.9443Z" fill="#9A6806" stroke="#9A6806" stroke-width="0.5"/>
<path d="M535.163 55.4568C543.465 82.0239 544.334 84.4367 565.467 93.2924C584.335 86.0468 587.084 82.209 589.349 51.6131C582.124 18.9229 588.097 17.965 553.78 21.8108C542.942 23.7334 530.137 21.8108 535.163 55.4568Z" fill="#FFD1BF"/>
<path d="M582.123 84.2819C587.738 76.2425 591.155 61.2108 591.155 61.2108L587.542 38.1398L583.931 24.6816L582.123 62.5051C569.481 65.056 544.194 68.9012 544.194 70.0661L533.357 40.0624V51.5979L538.776 70.8238C539.106 74.162 542.261 83.0878 546 88.1271C548.799 91.9003 550.662 94.5977 555.031 95.8174C557.76 96.5794 562.255 95.8174 562.255 95.8174C562.255 95.8174 567.964 95.3603 571.286 93.8949C576.376 91.6503 578.837 88.9882 582.123 84.2819Z" fill="#9A6806"/>
<path d="M560.449 65.0589C560.449 65.0589 559.691 64.884 553.78 64.884C547.87 64.884 562.255 55.4385 555.03 50.6128M576.705 45.8297C574.24 44.072 571.058 41.1681 567.674 47.7523M548.11 47.7523C544.687 45.8297 541.504 45.0414 539.053 49.6749" stroke="black" stroke-linecap="round" stroke-linejoin="round"/>
<path d="M587.432 50.624C587.432 55.7024 587.196 60.5274 589.542 60.5274C591.889 60.5274 593.791 56.4105 593.791 51.3321C593.791 46.2536 591.889 42.1367 589.542 42.1367C587.196 42.1367 587.432 45.5455 587.432 50.624Z" fill="#E5A38C"/>
<path d="M587.431 50.1396C587.431 55.218 587.262 60.043 588.938 60.043C590.614 60.043 591.973 55.9261 591.973 50.8477C591.973 45.7692 590.614 41.6523 588.938 41.6523C587.262 41.6523 587.431 45.0611 587.431 50.1396Z" fill="#FFD1BF"/>
<path d="M641.479 204.488C641.479 204.074 641.143 203.738 640.729 203.738H480.467C479.976 203.738 479.617 204.203 479.742 204.678L504.376 298.808C504.462 299.138 504.76 299.368 505.101 299.368H640.729C641.143 299.368 641.479 299.032 641.479 298.618V204.488Z" fill="black" stroke="black" stroke-width="0.5"/>
<path d="M560.211 124.233L594.041 134.521M568.266 120.803C568.266 120.803 582.764 116.043 582.764 108.8C582.764 103.656 582.764 96.7969 582.764 96.7969" stroke="#2A2A28" stroke-width="0.5"/>
<path d="M592.161 133.576L593.934 103.121L582.149 96.4824C582.149 96.4824 581.673 101.952 582.149 103.273C586.655 115.77 560.25 122.155 560.25 122.155C560.25 122.155 543.835 114.989 546.067 106.928C546.509 105.335 547.84 103.121 547.84 103.121L535.43 106.928L528.339 125.962L560.25 124.059L592.161 133.576Z" fill="black"/>
<path d="M553.938 86.6673C550.163 84.2468 547.803 76.5861 547.803 76.5861L562.137 74.6666L576.702 70.8184C576.702 70.8184 576.801 80.498 573.09 84.2765C570.345 87.0715 567.781 87.3158 564.059 88.1217C559.912 89.0195 557.354 88.858 553.938 86.6673Z" fill="#FFD1BF"/>
<path d="M572.128 35.2095C569.219 35.224 565.726 37.2593 565.726 37.2593L566.803 38.7417L572.128 35.2095Z" fill="#9A6806"/>
<path d="M577.562 37.0574C577.562 37.0574 574.431 35.1981 572.128 35.2095M572.128 35.2095C569.219 35.224 565.726 37.2593 565.726 37.2593L566.803 38.7417L572.128 35.2095Z" stroke="#9A6806" stroke-linecap="round"/>
<path d="M542.902 37.3482C545.811 37.3627 549.304 39.3979 549.304 39.3979L548.227 40.8804L542.902 37.3482Z" fill="#9A6806"/>
<path d="M537.413 40.2009C537.413 40.2009 540.599 37.3367 542.902 37.3482M542.902 37.3482C545.811 37.3627 549.304 39.3979 549.304 39.3979L548.227 40.8804L542.902 37.3482Z" stroke="#9A6806" stroke-linecap="round"/>
<path d="M563.773 95.4558C558.249 96.5947 554.689 95.6402 554.689 95.6402C554.689 95.6402 558.773 95.7671 563.773 95.4558C564.501 95.3056 565.263 95.119 566.056 94.8891C570.768 93.5225 572.421 93.4375 576.059 90.5337C580.688 86.8379 581.969 84.2422 581.969 84.2422C581.969 84.2422 579.907 92.5839 582.068 96.3043C582.307 96.6158 582.424 96.8253 582.424 96.8253C582.294 96.6642 582.176 96.49 582.068 96.3043C581.224 95.206 578.855 92.84 574.695 93.9215C571.351 94.7907 567.33 95.2342 563.773 95.4558Z" fill="#E5A38C"/>
<path d="M552.082 78.3694C560.352 79.7948 564.604 78.6996 571.757 74.7129C571.757 74.7129 567.601 81.7044 563.389 82.7165C558.816 83.8151 552.082 78.3694 552.082 78.3694Z" fill="white"/>
</svg>
