<svg xmlns="http://www.w3.org/2000/svg" fill="none" viewBox="0 0 464 412"><circle cx="205.617" cy="205.617" r="193.617" fill="#fff"/><circle cx="391.261" cy="124.597" r="36.986" fill="#394035" stroke="#101010" stroke-width="2" transform="rotate(8.739 391.261 124.597)"/><path fill="#8FF295" d="M408.438 115.565a1.933 1.933 0 0 1-.415 2.703l-21.747 15.952a4 4 0 0 1-5.591-.859l-5.41-7.375a1.934 1.934 0 0 1 3.118-2.29l3.126 4.25a4 4 0 0 0 5.586.856l18.631-13.652a1.934 1.934 0 0 1 2.702.415"/><path stroke="#8FF295" stroke-linecap="round" stroke-width="4" d="m438.607 111.76 18.681 2.084m-25.318-13.772 15.952-9.941m-23.899-1.799 5.297-18.035"/><path fill="#394035" stroke="#101010" stroke-width="2" d="M350.982 380.623c-2.193 14.264-15.921 24.045-30.719 21.77-14.798-2.274-24.955-15.726-22.762-29.991s15.921-24.045 30.719-21.77c14.798 2.274 24.955 15.726 22.762 29.991Z"/><path fill="#8FF295" d="M334.371 371.276c.458-.458.458-1.221 0-1.656l-2.749-2.749c-.435-.458-1.199-.458-1.657 0l-2.161 2.15 4.405 4.405m-18.644 9.845v4.405h4.406l12.993-13.005-4.406-4.405z"/></svg>