<svg class="icon" viewBox="0 0 100 100" xmlns="http://www.w3.org/2000/svg" aria-hidden="true" role="img"><path d="M55.62 86A5.62 5.62 0 1050 91.62 5.62 5.62 0 0055.62 86zm14.63-11.25v-49.5A2.31 2.31 0 0068 23H32a2.31 2.31 0 00-2.25 2.25v49.5A2.31 2.31 0 0032 77h36a2.31 2.31 0 002.25-2.25zm-13.5-59.63A1.11 1.11 0 0055.66 14H44.38a1.13 1.13 0 100 2.25h11.24a1.11 1.11 0 001.13-1.13zM77 14v72a9.07 9.07 0 01-9 9H32a9.07 9.07 0 01-9-9V14a9.07 9.07 0 019-9h36a9.07 9.07 0 019 9z" fill="#212121"/></svg>
