<svg width="50" height="50" viewBox="0 0 50 50" fill="#000" xmlns="http://www.w3.org/2000/svg">
  <path
    d="M33.9263 30.3019L44.6406 41.0162L41.4263 44.2305L30.7121 33.5162V31.8233L30.1335 31.2233C27.6906 33.3233 24.5192 34.5876 21.0692 34.5876C17.3751 34.5876 13.8323 33.1201 11.2202 30.508C8.60809 27.8959 7.14063 24.3531 7.14062 20.659C7.14063 16.965 8.60809 13.4222 11.2202 10.8101C13.8323 8.19794 17.3751 6.73047 21.0692 6.73047C24.7633 6.73047 28.3061 8.19794 30.9182 10.8101C33.5303 13.4222 34.9978 16.965 34.9978 20.659C34.9978 24.109 33.7335 27.2805 31.6335 29.7233L32.2335 30.3019H33.9263ZM21.0692 9.94475L19.8906 10.009C19.3763 11.1233 18.5835 13.009 18.0049 15.3019H24.1335C23.5549 13.009 22.7621 11.1233 22.2478 10.009C21.8621 9.94475 21.4763 9.94475 21.0692 9.94475ZM30.3478 15.3019C29.0835 13.0948 27.0478 11.3805 24.6049 10.5448C25.1192 11.6805 25.7835 13.3305 26.2763 15.3019H30.3478ZM11.7906 15.3019H15.8621C16.3549 13.3305 17.0192 11.6805 17.5335 10.5448C15.0906 11.3805 13.0549 13.0948 11.7906 15.3019ZM10.3549 20.659C10.3549 21.7305 10.5263 22.8662 10.8478 23.8733H15.4335L15.1763 20.659L15.4335 17.4448H10.8478C10.5263 18.4519 10.3549 19.5876 10.3549 20.659ZM31.2906 23.8733C31.6121 22.8662 31.7835 21.7305 31.7835 20.659C31.7835 19.5876 31.6121 18.4519 31.2906 17.4448H26.7049C26.8763 18.5162 26.9621 19.5876 26.9621 20.659C26.9621 21.7305 26.8763 22.8019 26.7049 23.8733H31.2906ZM17.5763 17.4448L17.3192 20.659L17.5763 23.8733H24.5621C24.7335 22.8019 24.8192 21.7305 24.8192 20.659C24.8192 19.5876 24.7335 18.5162 24.5621 17.4448H17.5763ZM21.0692 31.3733C21.4549 31.3733 21.8406 31.3733 22.2049 31.309C22.7406 30.1948 23.5549 28.309 24.1335 26.0162H18.0049C18.5835 28.309 19.3978 30.1948 19.9335 31.309L21.0692 31.3733ZM30.3478 26.0162H26.2763C25.7835 27.9876 25.1192 29.6376 24.6049 30.7733C27.0478 29.9376 29.0835 28.2233 30.3478 26.0162ZM11.7906 26.0162C13.0549 28.2233 15.0906 29.9376 17.5335 30.7733C17.0192 29.6376 16.3549 27.9876 15.8621 26.0162H11.7906Z" />
</svg>