<svg width="40" height="40" viewBox="0 0 40 40" fill="none" xmlns="http://www.w3.org/2000/svg">
<circle cx="15.625" cy="15.625" r="9.375" fill="#3983EA" fill-opacity="0.4"/>
<path d="M26.4286 23.8571L35 32.4286L32.4286 35L23.8571 26.4286V25.0743L23.3943 24.5943C21.44 26.2743 18.9029 27.2857 16.1429 27.2857C13.1876 27.2857 10.3534 26.1117 8.26367 24.022C6.17398 21.9324 5 19.0981 5 16.1429C5 13.1876 6.17398 10.3534 8.26367 8.26367C10.3534 6.17398 13.1876 5 16.1429 5C19.0981 5 21.9324 6.17398 24.022 8.26367C26.1117 10.3534 27.2857 13.1876 27.2857 16.1429C27.2857 18.9029 26.2743 21.44 24.5943 23.3943L25.0743 23.8571H26.4286ZM16.1429 7.57143L15.2 7.62286C14.7886 8.51429 14.1543 10.0229 13.6914 11.8571H18.5943C18.1314 10.0229 17.4971 8.51429 17.0857 7.62286C16.7771 7.57143 16.4686 7.57143 16.1429 7.57143ZM23.5657 11.8571C22.5543 10.0914 20.9257 8.72 18.9714 8.05143C19.3829 8.96 19.9143 10.28 20.3086 11.8571H23.5657ZM8.72 11.8571H11.9771C12.3714 10.28 12.9029 8.96 13.3143 8.05143C11.36 8.72 9.73143 10.0914 8.72 11.8571ZM7.57143 16.1429C7.57143 17 7.70857 17.9086 7.96571 18.7143H11.6343L11.4286 16.1429L11.6343 13.5714H7.96571C7.70857 14.3771 7.57143 15.2857 7.57143 16.1429ZM24.32 18.7143C24.5771 17.9086 24.7143 17 24.7143 16.1429C24.7143 15.2857 24.5771 14.3771 24.32 13.5714H20.6514C20.7886 14.4286 20.8571 15.2857 20.8571 16.1429C20.8571 17 20.7886 17.8571 20.6514 18.7143H24.32ZM13.3486 13.5714L13.1429 16.1429L13.3486 18.7143H18.9371C19.0743 17.8571 19.1429 17 19.1429 16.1429C19.1429 15.2857 19.0743 14.4286 18.9371 13.5714H13.3486ZM16.1429 24.7143C16.4514 24.7143 16.76 24.7143 17.0514 24.6629C17.48 23.7714 18.1314 22.2629 18.5943 20.4286H13.6914C14.1543 22.2629 14.8057 23.7714 15.2343 24.6629L16.1429 24.7143ZM23.5657 20.4286H20.3086C19.9143 22.0057 19.3829 23.3257 18.9714 24.2343C20.9257 23.5657 22.5543 22.1943 23.5657 20.4286ZM8.72 20.4286C9.73143 22.1943 11.36 23.5657 13.3143 24.2343C12.9029 23.3257 12.3714 22.0057 11.9771 20.4286H8.72Z" fill="black"/>
</svg>
