<svg aria-hidden="true" className="fail" width="24" height="27" viewBox="0 -2 24 25" fill="#000"
  xmlns="http://www.w3.org/2000/svg">
  <g clipPath="url(#clip0_6033_1063)">
    <circle cx="12" cy="11.8984" r="9" fill="#fff" />
    <path
      d="M12 1.79688C17.53 1.79688 22 6.26687 22 11.7969C22 17.3269 17.53 21.7969 12 21.7969C6.47 21.7969 2 17.3269 2 11.7969C2 6.26687 6.47 1.79688 12 1.79688ZM15.59 6.79688L12 10.3869L8.41 6.79688L7 8.20687L10.59 11.7969L7 15.3869L8.41 16.7969L12 13.2069L15.59 16.7969L17 15.3869L13.41 11.7969L17 8.20687L15.59 6.79688Z" />
  </g>
  <defs>
    <clipPath id="clip0_6033_1063">
      <rect width="24" height="24" fill="white" transform="translate(0 0.203125)" />
    </clipPath>
  </defs>
</svg>