<svg width="40" height="40" viewBox="0 0 40 40" fill="none" xmlns="http://www.w3.org/2000/svg">
<path d="M35.3333 3H5.33333C3.5 3 2 4.5 2 6.33333V33C2 34.8333 3.5 36.3333 5.33333 36.3333H35.3333C37.1667 36.3333 38.6667 34.8333 38.6667 33V6.33333C38.6667 4.5 37.1667 3 35.3333 3ZM35.3333 33H5.33333V9.66667H35.3333V33Z" fill="CanvasText"/>
<path d="M18.359 13L13.8462 27.5325H12L16.497 13H18.359ZM20 13V27.5325H18.359V13H20ZM26.359 13L21.8619 27.5325H20.0158L24.5128 13H26.359ZM28 13V27.5325H26.359V13H28Z" fill="#0069C2"/>
</svg>
