<svg width="40" height="40" viewBox="0 0 40 40" fill="none" xmlns="http://www.w3.org/2000/svg">
<path d="M5 7.5C5 6.83696 5.26339 6.20107 5.73223 5.73223C6.20107 5.26339 6.83696 5 7.5 5H12.5V7.5H7.5V12.5H5V7.5ZM35 32.5C35 33.163 34.7366 33.7989 34.2678 34.2678C33.7989 34.7366 33.163 35 32.5 35H27.5V32.5H32.5V27.5H35V32.5ZM7.5 35C6.83696 35 6.20107 34.7366 5.73223 34.2678C5.26339 33.7989 5 33.163 5 32.5V27.5H7.5V32.5H12.5V35H7.5ZM32.5 5C33.163 5 33.7989 5.26339 34.2678 5.73223C34.7366 6.20107 35 6.83696 35 7.5V12.5H32.5V7.5H27.5V5H32.5Z" fill="black"/>
<rect x="12.5" y="13.75" width="15" height="13.75" fill="#3983EA" fill-opacity="0.2"/>
<path d="M27.5002 11.668H12.5002C11.5835 11.668 10.8335 12.418 10.8335 13.3346V26.668C10.8335 27.5846 11.5835 28.3346 12.5002 28.3346H27.5002C28.4168 28.3346 29.1668 27.5846 29.1668 26.668V13.3346C29.1668 12.418 28.4168 11.668 27.5002 11.668ZM27.5002 26.668H12.5002V15.0013H27.5002V26.668Z" fill="#3983EA"/>
</svg>
