<svg width="40" height="40" viewBox="0 0 40 40" fill="none" xmlns="http://www.w3.org/2000/svg">
<path d="M18.3333 21.25H21.6667V22.9167H18.3333V21.25ZM35 7.91667V17.9167C35 27.0833 28.6667 35.75 20 37.9167C11.3333 35.75 5 27.0833 5 17.9167V7.91667L20 1.25L35 7.91667ZM28.3333 16.25H24.6667C24.3333 15.25 23.6667 14.4167 22.8333 13.75L24.8333 11.75L23.6667 10.5833L21.3333 12.9167H20C19.6667 12.9167 19.1667 12.9167 18.8333 13.0833L16.5 10.5833L15.1667 11.9167L17.1667 13.9167C16.3333 14.4167 15.6667 15.25 15.3333 16.25H11.6667V17.9167H15V19.5833H11.6667V21.25H15V22.9167H11.6667V24.5833H15.3333C16 26.5833 17.8333 27.9167 20 27.9167C22.1667 27.9167 24 26.5833 24.6667 24.5833H28.3333V22.9167H25V21.25H28.3333V19.5833H25V17.9167H28.3333V16.25ZM18.3333 19.5833H21.6667V17.9167H18.3333V19.5833Z" fill="CanvasText"/>
<path opacity="0.2" d="M15 18C15 15.2386 17.2386 13 20 13C22.7614 13 25 15.2386 25 18V22.901C25 25.2844 23.3177 27.3365 20.9806 27.8039C20.3333 27.9333 19.6667 27.9333 19.0194 27.8039C16.6823 27.3365 15 25.2844 15 22.901V18Z" fill="#3983EA"/>
</svg>
