<svg width="16" height="21" viewBox="0 0 16 21" xmlns="http://www.w3.org/2000/svg">
  <path
    d="M9 6.04143C9 6.93111 9.72123 7.65234 10.6109 7.65234C12.0461 7.65234 12.7648 5.91716 11.75 4.90234C10.7352 3.88753 9 4.60626 9 6.04143ZM2 0.652344H9.17157C9.70201 0.652344 10.2107 0.863057 10.5858 1.23813L15.4142 6.06656C15.7893 6.44163 16 6.95034 16 7.48077V18.6523C16 19.1828 15.7893 19.6915 15.4142 20.0666C15.0391 20.4416 14.5304 20.6523 14 20.6523H2C0.89 20.6523 0 19.7523 0 18.6523V2.65234C0 1.54234 0.89 0.652344 2 0.652344ZM3 17.6523C3 18.2046 3.44772 18.6523 4 18.6523C4.55228 18.6523 5 18.2046 5 17.6523V13.6523C5 13.1001 4.55228 12.6523 4 12.6523C3.44772 12.6523 3 13.1001 3 13.6523V17.6523ZM7 17.6523C7 18.2046 7.44772 18.6523 8 18.6523C8.55229 18.6523 9 18.2046 9 17.6523V11.6523C9 11.1001 8.55229 10.6523 8 10.6523C7.44772 10.6523 7 11.1001 7 11.6523V17.6523ZM11 17.6523C11 18.2046 11.4477 18.6523 12 18.6523C12.5523 18.6523 13 18.2046 13 17.6523V15.6523C13 15.1001 12.5523 14.6523 12 14.6523C11.4477 14.6523 11 15.1001 11 15.6523V17.6523Z" />
</svg>