<svg class="icon" viewBox="0 0 100 100" xmlns="http://www.w3.org/2000/svg" aria-hidden="true" role="img"><path d="M85.15 28.91a10.23 10.23 0 011.41 1.8h-23.7V7a10.17 10.17 0 011.8 1.41zm-23.9 8.23h27.32v53A4.82 4.82 0 0183.75 95h-67.5a4.82 4.82 0 01-4.82-4.82V9.82A4.82 4.82 0 0116.25 5h40.18v27.32a4.82 4.82 0 004.82 4.82zm8 37v-3.25a1.59 1.59 0 00-1.61-1.6H32.32a1.59 1.59 0 00-1.61 1.6v3.22a1.59 1.59 0 001.61 1.6h35.36a1.59 1.59 0 001.61-1.6zm0-12.86V58a1.59 1.59 0 00-1.61-1.61H32.32A1.59 1.59 0 0030.71 58v3.21a1.6 1.6 0 001.61 1.61h35.36a1.6 1.6 0 001.61-1.57zm0-12.86v-3.24a1.6 1.6 0 00-1.61-1.61H32.32a1.6 1.6 0 00-1.61 1.61v3.21A1.59 1.59 0 0032.32 50h35.36a1.59 1.59 0 001.61-1.61z" fill="#212121"/></svg>
